<?xml version="1.0" encoding="UTF-8" standalone="no"?>
<!DOCTYPE svg PUBLIC "-//W3C//DTD SVG 1.1//EN"
 "http://www.w3.org/Graphics/SVG/1.1/DTD/svg11.dtd">
<!-- Generated by graphviz version 12.2.1 (20241206.2353)
 -->
<!-- Pages: 1 -->
<svg width="644pt" height="91pt"
 viewBox="0.00 0.00 643.75 91.49" xmlns="http://www.w3.org/2000/svg" xmlns:xlink="http://www.w3.org/1999/xlink">
<g id="graph0" class="graph" transform="scale(1 1) rotate(0) translate(4 87.49)">
<polygon fill="white" stroke="none" points="-4,4 -4,-87.49 639.75,-87.49 639.75,4 -4,4"/>
<!-- &#45;1 -->
<g id="node1" class="node">
<title>&#45;1</title>
<polygon fill="lightgray" stroke="black" points="375.5,-83.49 352,-83.49 352,-64.99 375.5,-64.99 375.5,-83.49"/>
<text text-anchor="middle" x="363.75" y="-70.94" font-family="Times New Roman,serif" font-size="9.00">&#45;1</text>
</g>
<!-- 0 -->
<g id="node16" class="node">
<title>0</title>
<ellipse fill="lightblue" stroke="black" cx="319.75" cy="-14.5" rx="14.5" ry="14.5"/>
<text text-anchor="middle" x="319.75" y="-11.2" font-family="Times New Roman,serif" font-size="9.00">0</text>
</g>
<!-- &#45;1&#45;&gt;0 -->
<g id="edge1" class="edge">
<title>&#45;1&#45;&gt;0</title>
<path fill="none" stroke="red" stroke-width="0.24" stroke-dasharray="1,5" d="M357.26,-64.72C351.21,-56.78 341.97,-44.66 334.18,-34.43"/>
<polygon fill="red" stroke="red" stroke-width="0.24" points="337.14,-32.55 328.3,-26.71 331.57,-36.79 337.14,-32.55"/>
</g>
<!-- 1 -->
<g id="node17" class="node">
<title>1</title>
<ellipse fill="lightblue" stroke="black" cx="405.75" cy="-14.5" rx="14.5" ry="14.5"/>
<text text-anchor="middle" x="405.75" y="-11.2" font-family="Times New Roman,serif" font-size="9.00">1</text>
</g>
<!-- &#45;1&#45;&gt;1 -->
<g id="edge2" class="edge">
<title>&#45;1&#45;&gt;1</title>
<path fill="none" stroke="green" stroke-width="0.26" stroke-dasharray="1,5" d="M369.95,-64.72C375.59,-56.96 384.15,-45.2 391.48,-35.12"/>
<polygon fill="green" stroke="green" stroke-width="0.26" points="394.22,-37.3 397.27,-27.15 388.56,-33.18 394.22,-37.3"/>
</g>
<!-- &#45;2 -->
<g id="node2" class="node">
<title>&#45;2</title>
<polygon fill="lightgray" stroke="black" points="149.5,-83.49 126,-83.49 126,-64.99 149.5,-64.99 149.5,-83.49"/>
<text text-anchor="middle" x="137.75" y="-70.94" font-family="Times New Roman,serif" font-size="9.00">&#45;2</text>
</g>
<!-- &#45;2&#45;&gt;0 -->
<g id="edge3" class="edge">
<title>&#45;2&#45;&gt;0</title>
<path fill="none" stroke="red" stroke-width="0.2" d="M149.68,-68.37C152.63,-67.22 155.79,-66.03 158.75,-64.99 207.11,-48.09 264.68,-31.14 296.21,-22.12"/>
<polygon fill="red" stroke="red" stroke-width="0.2" points="296.89,-25.57 305.55,-19.47 294.98,-18.84 296.89,-25.57"/>
</g>
<!-- &#45;3 -->
<g id="node3" class="node">
<title>&#45;3</title>
<polygon fill="lightgray" stroke="black" points="417.5,-83.49 394,-83.49 394,-64.99 417.5,-64.99 417.5,-83.49"/>
<text text-anchor="middle" x="405.75" y="-70.94" font-family="Times New Roman,serif" font-size="9.00">&#45;3</text>
</g>
<!-- &#45;3&#45;&gt;0 -->
<g id="edge4" class="edge">
<title>&#45;3&#45;&gt;0</title>
<path fill="none" stroke="green" stroke-width="0.11" stroke-dasharray="1,5" d="M393.79,-65.21C379.8,-55.82 356.42,-40.12 339.67,-28.87"/>
<polygon fill="green" stroke="green" stroke-width="0.11" points="342,-26.22 331.75,-23.55 338.1,-32.03 342,-26.22"/>
</g>
<!-- &#45;3&#45;&gt;1 -->
<g id="edge5" class="edge">
<title>&#45;3&#45;&gt;1</title>
<path fill="none" stroke="red" stroke-width="0.17" d="M405.75,-64.72C405.75,-58.05 405.75,-48.42 405.75,-39.45"/>
<polygon fill="red" stroke="red" stroke-width="0.17" points="409.25,-39.68 405.75,-29.68 402.25,-39.68 409.25,-39.68"/>
</g>
<!-- &#45;4 -->
<g id="node4" class="node">
<title>&#45;4</title>
<polygon fill="lightgray" stroke="black" points="23.5,-83.49 0,-83.49 0,-64.99 23.5,-64.99 23.5,-83.49"/>
<text text-anchor="middle" x="11.75" y="-70.94" font-family="Times New Roman,serif" font-size="9.00">&#45;4</text>
</g>
<!-- &#45;4&#45;&gt;0 -->
<g id="edge6" class="edge">
<title>&#45;4&#45;&gt;0</title>
<path fill="none" stroke="green" stroke-width="0.23" stroke-dasharray="1,5" d="M23.6,-68.1C26.55,-66.96 29.73,-65.83 32.75,-64.99 127.82,-38.42 244.81,-23.59 294.99,-18.05"/>
<polygon fill="green" stroke="green" stroke-width="0.23" points="295.27,-21.54 304.83,-16.98 294.52,-14.58 295.27,-21.54"/>
</g>
<!-- &#45;5 -->
<g id="node5" class="node">
<title>&#45;5</title>
<polygon fill="lightgray" stroke="black" points="65.5,-83.49 42,-83.49 42,-64.99 65.5,-64.99 65.5,-83.49"/>
<text text-anchor="middle" x="53.75" y="-70.94" font-family="Times New Roman,serif" font-size="9.00">&#45;5</text>
</g>
<!-- &#45;5&#45;&gt;0 -->
<g id="edge7" class="edge">
<title>&#45;5&#45;&gt;0</title>
<path fill="none" stroke="green" stroke-width="0.38" d="M65.62,-68.16C68.57,-67.02 71.74,-65.88 74.75,-64.99 153.62,-41.73 249.98,-25.78 294.71,-19.07"/>
<polygon fill="green" stroke="green" stroke-width="0.38" points="295.22,-22.53 304.6,-17.61 294.2,-15.61 295.22,-22.53"/>
</g>
<!-- &#45;6 -->
<g id="node6" class="node">
<title>&#45;6</title>
<polygon fill="lightgray" stroke="black" points="459.5,-83.49 436,-83.49 436,-64.99 459.5,-64.99 459.5,-83.49"/>
<text text-anchor="middle" x="447.75" y="-70.94" font-family="Times New Roman,serif" font-size="9.00">&#45;6</text>
</g>
<!-- &#45;6&#45;&gt;0 -->
<g id="edge8" class="edge">
<title>&#45;6&#45;&gt;0</title>
<path fill="none" stroke="green" stroke-width="0.31" d="M435.94,-67.91C414.64,-58.31 369.5,-37.94 342.18,-25.62"/>
<polygon fill="green" stroke="green" stroke-width="0.31" points="343.65,-22.44 333.09,-21.51 340.77,-28.82 343.65,-22.44"/>
</g>
<!-- &#45;6&#45;&gt;1 -->
<g id="edge9" class="edge">
<title>&#45;6&#45;&gt;1</title>
<path fill="none" stroke="red" stroke-width="0.76" d="M441.55,-64.72C436.02,-57.11 427.7,-45.67 420.47,-35.73"/>
<polygon fill="red" stroke="red" stroke-width="0.76" points="423.39,-33.8 414.68,-27.77 417.73,-37.92 423.39,-33.8"/>
</g>
<!-- &#45;7 -->
<g id="node7" class="node">
<title>&#45;7</title>
<polygon fill="lightgray" stroke="black" points="501.5,-83.49 478,-83.49 478,-64.99 501.5,-64.99 501.5,-83.49"/>
<text text-anchor="middle" x="489.75" y="-70.94" font-family="Times New Roman,serif" font-size="9.00">&#45;7</text>
</g>
<!-- &#45;7&#45;&gt;0 -->
<g id="edge10" class="edge">
<title>&#45;7&#45;&gt;0</title>
<path fill="none" stroke="green" stroke-width="0.35" d="M477.8,-68.42C474.85,-67.26 471.7,-66.06 468.75,-64.99 424.7,-49.03 372.63,-32.19 343.17,-22.85"/>
<polygon fill="green" stroke="green" stroke-width="0.35" points="344.49,-19.59 333.9,-19.92 342.38,-26.27 344.49,-19.59"/>
</g>
<!-- &#45;7&#45;&gt;1 -->
<g id="edge11" class="edge">
<title>&#45;7&#45;&gt;1</title>
<path fill="none" stroke="red" stroke-width="0.15" stroke-dasharray="1,5" d="M477.71,-64.97C464.16,-55.65 441.93,-40.37 425.76,-29.25"/>
<polygon fill="red" stroke="red" stroke-width="0.15" points="427.9,-26.48 417.68,-23.69 423.93,-32.24 427.9,-26.48"/>
</g>
<!-- &#45;8 -->
<g id="node8" class="node">
<title>&#45;8</title>
<polygon fill="lightgray" stroke="black" points="107.5,-83.49 84,-83.49 84,-64.99 107.5,-64.99 107.5,-83.49"/>
<text text-anchor="middle" x="95.75" y="-70.94" font-family="Times New Roman,serif" font-size="9.00">&#45;8</text>
</g>
<!-- &#45;8&#45;&gt;0 -->
<g id="edge12" class="edge">
<title>&#45;8&#45;&gt;0</title>
<path fill="none" stroke="red" stroke-width="0.28" stroke-dasharray="1,5" d="M107.64,-68.25C110.59,-67.1 113.76,-65.94 116.75,-64.99 180.29,-44.87 257.18,-28.13 295.54,-20.29"/>
<polygon fill="red" stroke="red" stroke-width="0.28" points="295.77,-23.82 304.88,-18.4 294.38,-16.95 295.77,-23.82"/>
</g>
<!-- &#45;9 -->
<g id="node9" class="node">
<title>&#45;9</title>
<polygon fill="lightgray" stroke="black" points="543.5,-83.49 520,-83.49 520,-64.99 543.5,-64.99 543.5,-83.49"/>
<text text-anchor="middle" x="531.75" y="-70.94" font-family="Times New Roman,serif" font-size="9.00">&#45;9</text>
</g>
<!-- &#45;9&#45;&gt;0 -->
<g id="edge13" class="edge">
<title>&#45;9&#45;&gt;0</title>
<path fill="none" stroke="green" stroke-width="0.43" stroke-dasharray="1,5" d="M519.85,-68.28C516.9,-67.13 513.73,-65.96 510.75,-64.99 451.7,-45.82 380.52,-28.98 343.99,-20.79"/>
<polygon fill="green" stroke="green" stroke-width="0.43" points="344.97,-17.42 334.45,-18.67 343.45,-24.25 344.97,-17.42"/>
</g>
<!-- &#45;9&#45;&gt;1 -->
<g id="edge14" class="edge">
<title>&#45;9&#45;&gt;1</title>
<path fill="none" stroke="green" stroke-width="0.15" d="M519.67,-67.7C498.49,-58 454.39,-37.79 427.7,-25.56"/>
<polygon fill="green" stroke="green" stroke-width="0.15" points="429.49,-22.53 418.94,-21.54 426.57,-28.89 429.49,-22.53"/>
</g>
<!-- &#45;10 -->
<g id="node10" class="node">
<title>&#45;10</title>
<polygon fill="lightgray" stroke="black" points="589.75,-83.49 561.75,-83.49 561.75,-64.99 589.75,-64.99 589.75,-83.49"/>
<text text-anchor="middle" x="575.75" y="-70.94" font-family="Times New Roman,serif" font-size="9.00">&#45;10</text>
</g>
<!-- &#45;10&#45;&gt;0 -->
<g id="edge15" class="edge">
<title>&#45;10&#45;&gt;0</title>
<path fill="none" stroke="red" stroke-width="0.24" d="M561.74,-67.87C558.79,-66.84 555.69,-65.83 552.75,-64.99 478.45,-43.9 458.29,-45.08 382.75,-28.99 369.85,-26.24 355.47,-23.16 343.71,-20.64"/>
<polygon fill="red" stroke="red" stroke-width="0.24" points="344.62,-17.26 334.11,-18.58 343.15,-24.1 344.62,-17.26"/>
</g>
<!-- &#45;10&#45;&gt;1 -->
<g id="edge16" class="edge">
<title>&#45;10&#45;&gt;1</title>
<path fill="none" stroke="red" stroke-width="0.16" stroke-dasharray="1,5" d="M561.66,-68.14C558.72,-67.09 555.63,-65.99 552.75,-64.99 509.26,-49.87 458.28,-32.87 429.22,-23.24"/>
<polygon fill="red" stroke="red" stroke-width="0.16" points="430.39,-19.94 419.8,-20.12 428.19,-26.59 430.39,-19.94"/>
</g>
<!-- &#45;11 -->
<g id="node11" class="node">
<title>&#45;11</title>
<polygon fill="lightgray" stroke="black" points="635.75,-83.49 607.75,-83.49 607.75,-64.99 635.75,-64.99 635.75,-83.49"/>
<text text-anchor="middle" x="621.75" y="-70.94" font-family="Times New Roman,serif" font-size="9.00">&#45;11</text>
</g>
<!-- &#45;11&#45;&gt;0 -->
<g id="edge17" class="edge">
<title>&#45;11&#45;&gt;0</title>
<path fill="none" stroke="red" stroke-width="0.41" d="M607.27,-67.6C604.47,-66.64 601.54,-65.72 598.75,-64.99 504.57,-40.46 478.36,-47.19 382.75,-28.99 369.93,-26.55 355.7,-23.53 344.02,-20.97"/>
<polygon fill="red" stroke="red" stroke-width="0.41" points="344.85,-17.56 334.33,-18.82 343.33,-24.4 344.85,-17.56"/>
</g>
<!-- &#45;11&#45;&gt;1 -->
<g id="edge18" class="edge">
<title>&#45;11&#45;&gt;1</title>
<path fill="none" stroke="green" stroke-width="0.32" stroke-dasharray="1,5" d="M607.71,-67.97C604.77,-66.93 601.67,-65.89 598.75,-64.99 538.55,-46.52 466.38,-29.29 429.7,-20.88"/>
<polygon fill="green" stroke="green" stroke-width="0.32" points="430.92,-17.57 420.39,-18.76 429.36,-24.39 430.92,-17.57"/>
</g>
<!-- &#45;12 -->
<g id="node12" class="node">
<title>&#45;12</title>
<polygon fill="lightgray" stroke="black" points="195.75,-83.49 167.75,-83.49 167.75,-64.99 195.75,-64.99 195.75,-83.49"/>
<text text-anchor="middle" x="181.75" y="-70.94" font-family="Times New Roman,serif" font-size="9.00">&#45;12</text>
</g>
<!-- &#45;12&#45;&gt;0 -->
<g id="edge19" class="edge">
<title>&#45;12&#45;&gt;0</title>
<path fill="none" stroke="green" stroke-width="0.22" d="M196,-67.28C220.02,-57.23 268.76,-36.83 297.38,-24.85"/>
<polygon fill="green" stroke="green" stroke-width="0.22" points="298.41,-28.22 306.28,-21.13 295.71,-21.76 298.41,-28.22"/>
</g>
<!-- &#45;12&#45;&gt;1 -->
<g id="edge20" class="edge">
<title>&#45;12&#45;&gt;1</title>
<path fill="none" stroke="green" stroke-width="0.3" d="M195.78,-67.95C198.73,-66.91 201.83,-65.87 204.75,-64.99 267.7,-46.01 343.32,-28.88 381.36,-20.65"/>
<polygon fill="green" stroke="green" stroke-width="0.3" points="382,-24.09 391.04,-18.57 380.53,-17.25 382,-24.09"/>
</g>
<!-- &#45;13 -->
<g id="node13" class="node">
<title>&#45;13</title>
<polygon fill="lightgray" stroke="black" points="241.75,-83.49 213.75,-83.49 213.75,-64.99 241.75,-64.99 241.75,-83.49"/>
<text text-anchor="middle" x="227.75" y="-70.94" font-family="Times New Roman,serif" font-size="9.00">&#45;13</text>
</g>
<!-- &#45;13&#45;&gt;0 -->
<g id="edge21" class="edge">
<title>&#45;13&#45;&gt;0</title>
<path fill="none" stroke="red" stroke-width="0.3" d="M241.32,-64.72C256.56,-55.16 281.46,-39.53 299.11,-28.45"/>
<polygon fill="red" stroke="red" stroke-width="0.3" points="300.59,-31.65 307.2,-23.37 296.87,-25.72 300.59,-31.65"/>
</g>
<!-- &#45;13&#45;&gt;1 -->
<g id="edge22" class="edge">
<title>&#45;13&#45;&gt;1</title>
<path fill="none" stroke="green" stroke-width="0.5" d="M241.83,-68.1C244.77,-67.05 247.86,-65.97 250.75,-64.99 296.98,-49.33 351.41,-32.26 381.92,-22.82"/>
<polygon fill="green" stroke="green" stroke-width="0.5" points="382.77,-26.22 391.29,-19.93 380.71,-19.53 382.77,-26.22"/>
</g>
<!-- &#45;14 -->
<g id="node14" class="node">
<title>&#45;14</title>
<polygon fill="lightgray" stroke="black" points="287.75,-83.49 259.75,-83.49 259.75,-64.99 287.75,-64.99 287.75,-83.49"/>
<text text-anchor="middle" x="273.75" y="-70.94" font-family="Times New Roman,serif" font-size="9.00">&#45;14</text>
</g>
<!-- &#45;14&#45;&gt;0 -->
<g id="edge23" class="edge">
<title>&#45;14&#45;&gt;0</title>
<path fill="none" stroke="green" stroke-width="0.38" d="M280.54,-64.72C286.86,-56.78 296.52,-44.66 304.67,-34.43"/>
<polygon fill="green" stroke="green" stroke-width="0.38" points="307.2,-36.87 310.69,-26.87 301.72,-32.51 307.2,-36.87"/>
</g>
<!-- &#45;14&#45;&gt;1 -->
<g id="edge24" class="edge">
<title>&#45;14&#45;&gt;1</title>
<path fill="none" stroke="red" stroke-width="0.21" d="M288.13,-66.95C311.1,-56.9 356.25,-37.15 383.44,-25.25"/>
<polygon fill="red" stroke="red" stroke-width="0.21" points="384.52,-28.6 392.28,-21.39 381.72,-22.19 384.52,-28.6"/>
</g>
<!-- &#45;15 -->
<g id="node15" class="node">
<title>&#45;15</title>
<polygon fill="lightgray" stroke="black" points="333.75,-83.49 305.75,-83.49 305.75,-64.99 333.75,-64.99 333.75,-83.49"/>
<text text-anchor="middle" x="319.75" y="-70.94" font-family="Times New Roman,serif" font-size="9.00">&#45;15</text>
</g>
<!-- &#45;15&#45;&gt;0 -->
<g id="edge25" class="edge">
<title>&#45;15&#45;&gt;0</title>
<path fill="none" stroke="green" stroke-width="0.76" stroke-dasharray="1,5" d="M319.75,-64.72C319.75,-58.26 319.75,-49.04 319.75,-40.33"/>
<polygon fill="green" stroke="green" stroke-width="0.76" points="323.25,-40.58 319.75,-30.58 316.25,-40.58 323.25,-40.58"/>
</g>
<!-- &#45;15&#45;&gt;1 -->
<g id="edge26" class="edge">
<title>&#45;15&#45;&gt;1</title>
<path fill="none" stroke="red" stroke-width="0.19" stroke-dasharray="1,5" d="M332.44,-64.72C346.4,-55.35 369.02,-40.16 385.45,-29.13"/>
<polygon fill="red" stroke="red" stroke-width="0.19" points="387.25,-32.14 393.6,-23.66 383.34,-26.33 387.25,-32.14"/>
</g>
</g>
</svg>
