<?xml version="1.0" encoding="utf-8" standalone="no"?>
<!DOCTYPE svg PUBLIC "-//W3C//DTD SVG 1.1//EN"
  "http://www.w3.org/Graphics/SVG/1.1/DTD/svg11.dtd">
<svg xmlns:xlink="http://www.w3.org/1999/xlink" width="460.8pt" height="345.6pt" viewBox="0 0 460.8 345.6" xmlns="http://www.w3.org/2000/svg" version="1.1">
 <metadata>
  <rdf:RDF xmlns:dc="http://purl.org/dc/elements/1.1/" xmlns:cc="http://creativecommons.org/ns#" xmlns:rdf="http://www.w3.org/1999/02/22-rdf-syntax-ns#">
   <cc:Work>
    <dc:type rdf:resource="http://purl.org/dc/dcmitype/StillImage"/>
    <dc:date>2025-07-09T13:27:32.710022</dc:date>
    <dc:format>image/svg+xml</dc:format>
    <dc:creator>
     <cc:Agent>
      <dc:title>Matplotlib v3.10.0, https://matplotlib.org/</dc:title>
     </cc:Agent>
    </dc:creator>
   </cc:Work>
  </rdf:RDF>
 </metadata>
 <defs>
  <style type="text/css">*{stroke-linejoin: round; stroke-linecap: butt}</style>
 </defs>
 <g id="figure_1">
  <g id="patch_1">
   <path d="M 0 345.6 
L 460.8 345.6 
L 460.8 0 
L 0 0 
z
" style="fill: #ffffff"/>
  </g>
  <g id="axes_1">
   <g id="patch_2">
    <path d="M 57.6 307.584 
L 414.72 307.584 
L 414.72 41.472 
L 57.6 41.472 
z
" style="fill: #ffffff"/>
   </g>
   <g id="matplotlib.axis_1">
    <g id="xtick_1">
     <g id="line2d_1">
      <path d="M 73.832727 307.584 
L 73.832727 41.472 
" clip-path="url(#pefec63f7a9)" style="fill: none; stroke: #b0b0b0; stroke-width: 0.8; stroke-linecap: square"/>
     </g>
     <g id="line2d_2">
      <defs>
       <path id="mc243528a1e" d="M 0 0 
L 0 3.5 
" style="stroke: #000000; stroke-width: 0.8"/>
      </defs>
      <g>
       <use xlink:href="#mc243528a1e" x="73.832727" y="307.584" style="stroke: #000000; stroke-width: 0.8"/>
      </g>
     </g>
     <g id="text_1">
      <!-- 0 -->
      <g transform="translate(70.651477 322.182437) scale(0.1 -0.1)">
       <defs>
        <path id="DejaVuSans-30" d="M 2034 4250 
Q 1547 4250 1301 3770 
Q 1056 3291 1056 2328 
Q 1056 1369 1301 889 
Q 1547 409 2034 409 
Q 2525 409 2770 889 
Q 3016 1369 3016 2328 
Q 3016 3291 2770 3770 
Q 2525 4250 2034 4250 
z
M 2034 4750 
Q 2819 4750 3233 4129 
Q 3647 3509 3647 2328 
Q 3647 1150 3233 529 
Q 2819 -91 2034 -91 
Q 1250 -91 836 529 
Q 422 1150 422 2328 
Q 422 3509 836 4129 
Q 1250 4750 2034 4750 
z
" transform="scale(0.015625)"/>
       </defs>
       <use xlink:href="#DejaVuSans-30"/>
      </g>
     </g>
    </g>
    <g id="xtick_2">
     <g id="line2d_3">
      <path d="M 138.893758 307.584 
L 138.893758 41.472 
" clip-path="url(#pefec63f7a9)" style="fill: none; stroke: #b0b0b0; stroke-width: 0.8; stroke-linecap: square"/>
     </g>
     <g id="line2d_4">
      <g>
       <use xlink:href="#mc243528a1e" x="138.893758" y="307.584" style="stroke: #000000; stroke-width: 0.8"/>
      </g>
     </g>
     <g id="text_2">
      <!-- 100 -->
      <g transform="translate(129.350008 322.182437) scale(0.1 -0.1)">
       <defs>
        <path id="DejaVuSans-31" d="M 794 531 
L 1825 531 
L 1825 4091 
L 703 3866 
L 703 4441 
L 1819 4666 
L 2450 4666 
L 2450 531 
L 3481 531 
L 3481 0 
L 794 0 
L 794 531 
z
" transform="scale(0.015625)"/>
       </defs>
       <use xlink:href="#DejaVuSans-31"/>
       <use xlink:href="#DejaVuSans-30" transform="translate(63.623047 0)"/>
       <use xlink:href="#DejaVuSans-30" transform="translate(127.246094 0)"/>
      </g>
     </g>
    </g>
    <g id="xtick_3">
     <g id="line2d_5">
      <path d="M 203.95479 307.584 
L 203.95479 41.472 
" clip-path="url(#pefec63f7a9)" style="fill: none; stroke: #b0b0b0; stroke-width: 0.8; stroke-linecap: square"/>
     </g>
     <g id="line2d_6">
      <g>
       <use xlink:href="#mc243528a1e" x="203.95479" y="307.584" style="stroke: #000000; stroke-width: 0.8"/>
      </g>
     </g>
     <g id="text_3">
      <!-- 200 -->
      <g transform="translate(194.41104 322.182437) scale(0.1 -0.1)">
       <defs>
        <path id="DejaVuSans-32" d="M 1228 531 
L 3431 531 
L 3431 0 
L 469 0 
L 469 531 
Q 828 903 1448 1529 
Q 2069 2156 2228 2338 
Q 2531 2678 2651 2914 
Q 2772 3150 2772 3378 
Q 2772 3750 2511 3984 
Q 2250 4219 1831 4219 
Q 1534 4219 1204 4116 
Q 875 4013 500 3803 
L 500 4441 
Q 881 4594 1212 4672 
Q 1544 4750 1819 4750 
Q 2544 4750 2975 4387 
Q 3406 4025 3406 3419 
Q 3406 3131 3298 2873 
Q 3191 2616 2906 2266 
Q 2828 2175 2409 1742 
Q 1991 1309 1228 531 
z
" transform="scale(0.015625)"/>
       </defs>
       <use xlink:href="#DejaVuSans-32"/>
       <use xlink:href="#DejaVuSans-30" transform="translate(63.623047 0)"/>
       <use xlink:href="#DejaVuSans-30" transform="translate(127.246094 0)"/>
      </g>
     </g>
    </g>
    <g id="xtick_4">
     <g id="line2d_7">
      <path d="M 269.015821 307.584 
L 269.015821 41.472 
" clip-path="url(#pefec63f7a9)" style="fill: none; stroke: #b0b0b0; stroke-width: 0.8; stroke-linecap: square"/>
     </g>
     <g id="line2d_8">
      <g>
       <use xlink:href="#mc243528a1e" x="269.015821" y="307.584" style="stroke: #000000; stroke-width: 0.8"/>
      </g>
     </g>
     <g id="text_4">
      <!-- 300 -->
      <g transform="translate(259.472071 322.182437) scale(0.1 -0.1)">
       <defs>
        <path id="DejaVuSans-33" d="M 2597 2516 
Q 3050 2419 3304 2112 
Q 3559 1806 3559 1356 
Q 3559 666 3084 287 
Q 2609 -91 1734 -91 
Q 1441 -91 1130 -33 
Q 819 25 488 141 
L 488 750 
Q 750 597 1062 519 
Q 1375 441 1716 441 
Q 2309 441 2620 675 
Q 2931 909 2931 1356 
Q 2931 1769 2642 2001 
Q 2353 2234 1838 2234 
L 1294 2234 
L 1294 2753 
L 1863 2753 
Q 2328 2753 2575 2939 
Q 2822 3125 2822 3475 
Q 2822 3834 2567 4026 
Q 2313 4219 1838 4219 
Q 1578 4219 1281 4162 
Q 984 4106 628 3988 
L 628 4550 
Q 988 4650 1302 4700 
Q 1616 4750 1894 4750 
Q 2613 4750 3031 4423 
Q 3450 4097 3450 3541 
Q 3450 3153 3228 2886 
Q 3006 2619 2597 2516 
z
" transform="scale(0.015625)"/>
       </defs>
       <use xlink:href="#DejaVuSans-33"/>
       <use xlink:href="#DejaVuSans-30" transform="translate(63.623047 0)"/>
       <use xlink:href="#DejaVuSans-30" transform="translate(127.246094 0)"/>
      </g>
     </g>
    </g>
    <g id="xtick_5">
     <g id="line2d_9">
      <path d="M 334.076852 307.584 
L 334.076852 41.472 
" clip-path="url(#pefec63f7a9)" style="fill: none; stroke: #b0b0b0; stroke-width: 0.8; stroke-linecap: square"/>
     </g>
     <g id="line2d_10">
      <g>
       <use xlink:href="#mc243528a1e" x="334.076852" y="307.584" style="stroke: #000000; stroke-width: 0.8"/>
      </g>
     </g>
     <g id="text_5">
      <!-- 400 -->
      <g transform="translate(324.533102 322.182437) scale(0.1 -0.1)">
       <defs>
        <path id="DejaVuSans-34" d="M 2419 4116 
L 825 1625 
L 2419 1625 
L 2419 4116 
z
M 2253 4666 
L 3047 4666 
L 3047 1625 
L 3713 1625 
L 3713 1100 
L 3047 1100 
L 3047 0 
L 2419 0 
L 2419 1100 
L 313 1100 
L 313 1709 
L 2253 4666 
z
" transform="scale(0.015625)"/>
       </defs>
       <use xlink:href="#DejaVuSans-34"/>
       <use xlink:href="#DejaVuSans-30" transform="translate(63.623047 0)"/>
       <use xlink:href="#DejaVuSans-30" transform="translate(127.246094 0)"/>
      </g>
     </g>
    </g>
    <g id="xtick_6">
     <g id="line2d_11">
      <path d="M 399.137883 307.584 
L 399.137883 41.472 
" clip-path="url(#pefec63f7a9)" style="fill: none; stroke: #b0b0b0; stroke-width: 0.8; stroke-linecap: square"/>
     </g>
     <g id="line2d_12">
      <g>
       <use xlink:href="#mc243528a1e" x="399.137883" y="307.584" style="stroke: #000000; stroke-width: 0.8"/>
      </g>
     </g>
     <g id="text_6">
      <!-- 500 -->
      <g transform="translate(389.594133 322.182437) scale(0.1 -0.1)">
       <defs>
        <path id="DejaVuSans-35" d="M 691 4666 
L 3169 4666 
L 3169 4134 
L 1269 4134 
L 1269 2991 
Q 1406 3038 1543 3061 
Q 1681 3084 1819 3084 
Q 2600 3084 3056 2656 
Q 3513 2228 3513 1497 
Q 3513 744 3044 326 
Q 2575 -91 1722 -91 
Q 1428 -91 1123 -41 
Q 819 9 494 109 
L 494 744 
Q 775 591 1075 516 
Q 1375 441 1709 441 
Q 2250 441 2565 725 
Q 2881 1009 2881 1497 
Q 2881 1984 2565 2268 
Q 2250 2553 1709 2553 
Q 1456 2553 1204 2497 
Q 953 2441 691 2322 
L 691 4666 
z
" transform="scale(0.015625)"/>
       </defs>
       <use xlink:href="#DejaVuSans-35"/>
       <use xlink:href="#DejaVuSans-30" transform="translate(63.623047 0)"/>
       <use xlink:href="#DejaVuSans-30" transform="translate(127.246094 0)"/>
      </g>
     </g>
    </g>
    <g id="text_7">
     <!-- Generations -->
     <g transform="translate(205.662344 335.860562) scale(0.1 -0.1)">
      <defs>
       <path id="DejaVuSans-47" d="M 3809 666 
L 3809 1919 
L 2778 1919 
L 2778 2438 
L 4434 2438 
L 4434 434 
Q 4069 175 3628 42 
Q 3188 -91 2688 -91 
Q 1594 -91 976 548 
Q 359 1188 359 2328 
Q 359 3472 976 4111 
Q 1594 4750 2688 4750 
Q 3144 4750 3555 4637 
Q 3966 4525 4313 4306 
L 4313 3634 
Q 3963 3931 3569 4081 
Q 3175 4231 2741 4231 
Q 1884 4231 1454 3753 
Q 1025 3275 1025 2328 
Q 1025 1384 1454 906 
Q 1884 428 2741 428 
Q 3075 428 3337 486 
Q 3600 544 3809 666 
z
" transform="scale(0.015625)"/>
       <path id="DejaVuSans-65" d="M 3597 1894 
L 3597 1613 
L 953 1613 
Q 991 1019 1311 708 
Q 1631 397 2203 397 
Q 2534 397 2845 478 
Q 3156 559 3463 722 
L 3463 178 
Q 3153 47 2828 -22 
Q 2503 -91 2169 -91 
Q 1331 -91 842 396 
Q 353 884 353 1716 
Q 353 2575 817 3079 
Q 1281 3584 2069 3584 
Q 2775 3584 3186 3129 
Q 3597 2675 3597 1894 
z
M 3022 2063 
Q 3016 2534 2758 2815 
Q 2500 3097 2075 3097 
Q 1594 3097 1305 2825 
Q 1016 2553 972 2059 
L 3022 2063 
z
" transform="scale(0.015625)"/>
       <path id="DejaVuSans-6e" d="M 3513 2113 
L 3513 0 
L 2938 0 
L 2938 2094 
Q 2938 2591 2744 2837 
Q 2550 3084 2163 3084 
Q 1697 3084 1428 2787 
Q 1159 2491 1159 1978 
L 1159 0 
L 581 0 
L 581 3500 
L 1159 3500 
L 1159 2956 
Q 1366 3272 1645 3428 
Q 1925 3584 2291 3584 
Q 2894 3584 3203 3211 
Q 3513 2838 3513 2113 
z
" transform="scale(0.015625)"/>
       <path id="DejaVuSans-72" d="M 2631 2963 
Q 2534 3019 2420 3045 
Q 2306 3072 2169 3072 
Q 1681 3072 1420 2755 
Q 1159 2438 1159 1844 
L 1159 0 
L 581 0 
L 581 3500 
L 1159 3500 
L 1159 2956 
Q 1341 3275 1631 3429 
Q 1922 3584 2338 3584 
Q 2397 3584 2469 3576 
Q 2541 3569 2628 3553 
L 2631 2963 
z
" transform="scale(0.015625)"/>
       <path id="DejaVuSans-61" d="M 2194 1759 
Q 1497 1759 1228 1600 
Q 959 1441 959 1056 
Q 959 750 1161 570 
Q 1363 391 1709 391 
Q 2188 391 2477 730 
Q 2766 1069 2766 1631 
L 2766 1759 
L 2194 1759 
z
M 3341 1997 
L 3341 0 
L 2766 0 
L 2766 531 
Q 2569 213 2275 61 
Q 1981 -91 1556 -91 
Q 1019 -91 701 211 
Q 384 513 384 1019 
Q 384 1609 779 1909 
Q 1175 2209 1959 2209 
L 2766 2209 
L 2766 2266 
Q 2766 2663 2505 2880 
Q 2244 3097 1772 3097 
Q 1472 3097 1187 3025 
Q 903 2953 641 2809 
L 641 3341 
Q 956 3463 1253 3523 
Q 1550 3584 1831 3584 
Q 2591 3584 2966 3190 
Q 3341 2797 3341 1997 
z
" transform="scale(0.015625)"/>
       <path id="DejaVuSans-74" d="M 1172 4494 
L 1172 3500 
L 2356 3500 
L 2356 3053 
L 1172 3053 
L 1172 1153 
Q 1172 725 1289 603 
Q 1406 481 1766 481 
L 2356 481 
L 2356 0 
L 1766 0 
Q 1100 0 847 248 
Q 594 497 594 1153 
L 594 3053 
L 172 3053 
L 172 3500 
L 594 3500 
L 594 4494 
L 1172 4494 
z
" transform="scale(0.015625)"/>
       <path id="DejaVuSans-69" d="M 603 3500 
L 1178 3500 
L 1178 0 
L 603 0 
L 603 3500 
z
M 603 4863 
L 1178 4863 
L 1178 4134 
L 603 4134 
L 603 4863 
z
" transform="scale(0.015625)"/>
       <path id="DejaVuSans-6f" d="M 1959 3097 
Q 1497 3097 1228 2736 
Q 959 2375 959 1747 
Q 959 1119 1226 758 
Q 1494 397 1959 397 
Q 2419 397 2687 759 
Q 2956 1122 2956 1747 
Q 2956 2369 2687 2733 
Q 2419 3097 1959 3097 
z
M 1959 3584 
Q 2709 3584 3137 3096 
Q 3566 2609 3566 1747 
Q 3566 888 3137 398 
Q 2709 -91 1959 -91 
Q 1206 -91 779 398 
Q 353 888 353 1747 
Q 353 2609 779 3096 
Q 1206 3584 1959 3584 
z
" transform="scale(0.015625)"/>
       <path id="DejaVuSans-73" d="M 2834 3397 
L 2834 2853 
Q 2591 2978 2328 3040 
Q 2066 3103 1784 3103 
Q 1356 3103 1142 2972 
Q 928 2841 928 2578 
Q 928 2378 1081 2264 
Q 1234 2150 1697 2047 
L 1894 2003 
Q 2506 1872 2764 1633 
Q 3022 1394 3022 966 
Q 3022 478 2636 193 
Q 2250 -91 1575 -91 
Q 1294 -91 989 -36 
Q 684 19 347 128 
L 347 722 
Q 666 556 975 473 
Q 1284 391 1588 391 
Q 1994 391 2212 530 
Q 2431 669 2431 922 
Q 2431 1156 2273 1281 
Q 2116 1406 1581 1522 
L 1381 1569 
Q 847 1681 609 1914 
Q 372 2147 372 2553 
Q 372 3047 722 3315 
Q 1072 3584 1716 3584 
Q 2034 3584 2315 3537 
Q 2597 3491 2834 3397 
z
" transform="scale(0.015625)"/>
      </defs>
      <use xlink:href="#DejaVuSans-47"/>
      <use xlink:href="#DejaVuSans-65" transform="translate(77.490234 0)"/>
      <use xlink:href="#DejaVuSans-6e" transform="translate(139.013672 0)"/>
      <use xlink:href="#DejaVuSans-65" transform="translate(202.392578 0)"/>
      <use xlink:href="#DejaVuSans-72" transform="translate(263.916016 0)"/>
      <use xlink:href="#DejaVuSans-61" transform="translate(305.029297 0)"/>
      <use xlink:href="#DejaVuSans-74" transform="translate(366.308594 0)"/>
      <use xlink:href="#DejaVuSans-69" transform="translate(405.517578 0)"/>
      <use xlink:href="#DejaVuSans-6f" transform="translate(433.300781 0)"/>
      <use xlink:href="#DejaVuSans-6e" transform="translate(494.482422 0)"/>
      <use xlink:href="#DejaVuSans-73" transform="translate(557.861328 0)"/>
     </g>
    </g>
   </g>
   <g id="matplotlib.axis_2">
    <g id="ytick_1">
     <g id="line2d_13">
      <path d="M 57.6 303.200391 
L 414.72 303.200391 
" clip-path="url(#pefec63f7a9)" style="fill: none; stroke: #b0b0b0; stroke-width: 0.8; stroke-linecap: square"/>
     </g>
     <g id="line2d_14">
      <defs>
       <path id="m2dac394d84" d="M 0 0 
L -3.5 0 
" style="stroke: #000000; stroke-width: 0.8"/>
      </defs>
      <g>
       <use xlink:href="#m2dac394d84" x="57.6" y="303.200391" style="stroke: #000000; stroke-width: 0.8"/>
      </g>
     </g>
     <g id="text_8">
      <!-- −8 -->
      <g transform="translate(35.857813 306.99961) scale(0.1 -0.1)">
       <defs>
        <path id="DejaVuSans-2212" d="M 678 2272 
L 4684 2272 
L 4684 1741 
L 678 1741 
L 678 2272 
z
" transform="scale(0.015625)"/>
        <path id="DejaVuSans-38" d="M 2034 2216 
Q 1584 2216 1326 1975 
Q 1069 1734 1069 1313 
Q 1069 891 1326 650 
Q 1584 409 2034 409 
Q 2484 409 2743 651 
Q 3003 894 3003 1313 
Q 3003 1734 2745 1975 
Q 2488 2216 2034 2216 
z
M 1403 2484 
Q 997 2584 770 2862 
Q 544 3141 544 3541 
Q 544 4100 942 4425 
Q 1341 4750 2034 4750 
Q 2731 4750 3128 4425 
Q 3525 4100 3525 3541 
Q 3525 3141 3298 2862 
Q 3072 2584 2669 2484 
Q 3125 2378 3379 2068 
Q 3634 1759 3634 1313 
Q 3634 634 3220 271 
Q 2806 -91 2034 -91 
Q 1263 -91 848 271 
Q 434 634 434 1313 
Q 434 1759 690 2068 
Q 947 2378 1403 2484 
z
M 1172 3481 
Q 1172 3119 1398 2916 
Q 1625 2713 2034 2713 
Q 2441 2713 2670 2916 
Q 2900 3119 2900 3481 
Q 2900 3844 2670 4047 
Q 2441 4250 2034 4250 
Q 1625 4250 1398 4047 
Q 1172 3844 1172 3481 
z
" transform="scale(0.015625)"/>
       </defs>
       <use xlink:href="#DejaVuSans-2212"/>
       <use xlink:href="#DejaVuSans-38" transform="translate(83.789062 0)"/>
      </g>
     </g>
    </g>
    <g id="ytick_2">
     <g id="line2d_15">
      <path d="M 57.6 269.061464 
L 414.72 269.061464 
" clip-path="url(#pefec63f7a9)" style="fill: none; stroke: #b0b0b0; stroke-width: 0.8; stroke-linecap: square"/>
     </g>
     <g id="line2d_16">
      <g>
       <use xlink:href="#m2dac394d84" x="57.6" y="269.061464" style="stroke: #000000; stroke-width: 0.8"/>
      </g>
     </g>
     <g id="text_9">
      <!-- −6 -->
      <g transform="translate(35.857813 272.860683) scale(0.1 -0.1)">
       <defs>
        <path id="DejaVuSans-36" d="M 2113 2584 
Q 1688 2584 1439 2293 
Q 1191 2003 1191 1497 
Q 1191 994 1439 701 
Q 1688 409 2113 409 
Q 2538 409 2786 701 
Q 3034 994 3034 1497 
Q 3034 2003 2786 2293 
Q 2538 2584 2113 2584 
z
M 3366 4563 
L 3366 3988 
Q 3128 4100 2886 4159 
Q 2644 4219 2406 4219 
Q 1781 4219 1451 3797 
Q 1122 3375 1075 2522 
Q 1259 2794 1537 2939 
Q 1816 3084 2150 3084 
Q 2853 3084 3261 2657 
Q 3669 2231 3669 1497 
Q 3669 778 3244 343 
Q 2819 -91 2113 -91 
Q 1303 -91 875 529 
Q 447 1150 447 2328 
Q 447 3434 972 4092 
Q 1497 4750 2381 4750 
Q 2619 4750 2861 4703 
Q 3103 4656 3366 4563 
z
" transform="scale(0.015625)"/>
       </defs>
       <use xlink:href="#DejaVuSans-2212"/>
       <use xlink:href="#DejaVuSans-36" transform="translate(83.789062 0)"/>
      </g>
     </g>
    </g>
    <g id="ytick_3">
     <g id="line2d_17">
      <path d="M 57.6 234.922538 
L 414.72 234.922538 
" clip-path="url(#pefec63f7a9)" style="fill: none; stroke: #b0b0b0; stroke-width: 0.8; stroke-linecap: square"/>
     </g>
     <g id="line2d_18">
      <g>
       <use xlink:href="#m2dac394d84" x="57.6" y="234.922538" style="stroke: #000000; stroke-width: 0.8"/>
      </g>
     </g>
     <g id="text_10">
      <!-- −4 -->
      <g transform="translate(35.857813 238.721757) scale(0.1 -0.1)">
       <use xlink:href="#DejaVuSans-2212"/>
       <use xlink:href="#DejaVuSans-34" transform="translate(83.789062 0)"/>
      </g>
     </g>
    </g>
    <g id="ytick_4">
     <g id="line2d_19">
      <path d="M 57.6 200.783612 
L 414.72 200.783612 
" clip-path="url(#pefec63f7a9)" style="fill: none; stroke: #b0b0b0; stroke-width: 0.8; stroke-linecap: square"/>
     </g>
     <g id="line2d_20">
      <g>
       <use xlink:href="#m2dac394d84" x="57.6" y="200.783612" style="stroke: #000000; stroke-width: 0.8"/>
      </g>
     </g>
     <g id="text_11">
      <!-- −2 -->
      <g transform="translate(35.857813 204.58283) scale(0.1 -0.1)">
       <use xlink:href="#DejaVuSans-2212"/>
       <use xlink:href="#DejaVuSans-32" transform="translate(83.789062 0)"/>
      </g>
     </g>
    </g>
    <g id="ytick_5">
     <g id="line2d_21">
      <path d="M 57.6 166.644685 
L 414.72 166.644685 
" clip-path="url(#pefec63f7a9)" style="fill: none; stroke: #b0b0b0; stroke-width: 0.8; stroke-linecap: square"/>
     </g>
     <g id="line2d_22">
      <g>
       <use xlink:href="#m2dac394d84" x="57.6" y="166.644685" style="stroke: #000000; stroke-width: 0.8"/>
      </g>
     </g>
     <g id="text_12">
      <!-- 0 -->
      <g transform="translate(44.2375 170.443904) scale(0.1 -0.1)">
       <use xlink:href="#DejaVuSans-30"/>
      </g>
     </g>
    </g>
    <g id="ytick_6">
     <g id="line2d_23">
      <path d="M 57.6 132.505759 
L 414.72 132.505759 
" clip-path="url(#pefec63f7a9)" style="fill: none; stroke: #b0b0b0; stroke-width: 0.8; stroke-linecap: square"/>
     </g>
     <g id="line2d_24">
      <g>
       <use xlink:href="#m2dac394d84" x="57.6" y="132.505759" style="stroke: #000000; stroke-width: 0.8"/>
      </g>
     </g>
     <g id="text_13">
      <!-- 2 -->
      <g transform="translate(44.2375 136.304977) scale(0.1 -0.1)">
       <use xlink:href="#DejaVuSans-32"/>
      </g>
     </g>
    </g>
    <g id="ytick_7">
     <g id="line2d_25">
      <path d="M 57.6 98.366832 
L 414.72 98.366832 
" clip-path="url(#pefec63f7a9)" style="fill: none; stroke: #b0b0b0; stroke-width: 0.8; stroke-linecap: square"/>
     </g>
     <g id="line2d_26">
      <g>
       <use xlink:href="#m2dac394d84" x="57.6" y="98.366832" style="stroke: #000000; stroke-width: 0.8"/>
      </g>
     </g>
     <g id="text_14">
      <!-- 4 -->
      <g transform="translate(44.2375 102.166051) scale(0.1 -0.1)">
       <use xlink:href="#DejaVuSans-34"/>
      </g>
     </g>
    </g>
    <g id="ytick_8">
     <g id="line2d_27">
      <path d="M 57.6 64.227906 
L 414.72 64.227906 
" clip-path="url(#pefec63f7a9)" style="fill: none; stroke: #b0b0b0; stroke-width: 0.8; stroke-linecap: square"/>
     </g>
     <g id="line2d_28">
      <g>
       <use xlink:href="#m2dac394d84" x="57.6" y="64.227906" style="stroke: #000000; stroke-width: 0.8"/>
      </g>
     </g>
     <g id="text_15">
      <!-- 6 -->
      <g transform="translate(44.2375 68.027124) scale(0.1 -0.1)">
       <use xlink:href="#DejaVuSans-36"/>
      </g>
     </g>
    </g>
    <g id="text_16">
     <!-- Fitness -->
     <g transform="translate(29.778125 191.845187) rotate(-90) scale(0.1 -0.1)">
      <defs>
       <path id="DejaVuSans-46" d="M 628 4666 
L 3309 4666 
L 3309 4134 
L 1259 4134 
L 1259 2759 
L 3109 2759 
L 3109 2228 
L 1259 2228 
L 1259 0 
L 628 0 
L 628 4666 
z
" transform="scale(0.015625)"/>
      </defs>
      <use xlink:href="#DejaVuSans-46"/>
      <use xlink:href="#DejaVuSans-69" transform="translate(50.269531 0)"/>
      <use xlink:href="#DejaVuSans-74" transform="translate(78.052734 0)"/>
      <use xlink:href="#DejaVuSans-6e" transform="translate(117.261719 0)"/>
      <use xlink:href="#DejaVuSans-65" transform="translate(180.640625 0)"/>
      <use xlink:href="#DejaVuSans-73" transform="translate(242.164062 0)"/>
      <use xlink:href="#DejaVuSans-73" transform="translate(294.263672 0)"/>
     </g>
    </g>
    <g id="text_17">
     <!-- 1e6 -->
     <g transform="translate(57.6 38.472) scale(0.1 -0.1)">
      <use xlink:href="#DejaVuSans-31"/>
      <use xlink:href="#DejaVuSans-65" transform="translate(63.623047 0)"/>
      <use xlink:href="#DejaVuSans-36" transform="translate(125.146484 0)"/>
     </g>
    </g>
   </g>
   <g id="line2d_29">
    <path d="M 73.832727 174.528 
L 74.483338 172.558109 
L 75.133948 166.152924 
L 75.784558 165.685296 
L 76.435169 165.78306 
L 77.085779 165.540447 
L 77.736389 165.637543 
L 78.386999 165.399 
L 79.03761 166.079508 
L 79.68822 165.308145 
L 80.33883 165.832644 
L 80.989441 165.875763 
L 81.640051 165.547878 
L 82.290661 165.459881 
L 82.941272 165.628147 
L 83.591882 165.388703 
L 84.893103 165.444275 
L 85.543713 165.065789 
L 86.194323 165.549163 
L 86.844934 165.101536 
L 87.495544 165.317325 
L 88.796764 165.215066 
L 89.447375 165.348338 
L 90.097985 165.124459 
L 90.748595 165.452178 
L 91.399206 165.180473 
L 92.049816 165.093517 
L 92.700426 165.307353 
L 93.351037 165.666646 
L 94.001647 165.436364 
L 94.652257 165.446146 
L 95.953478 165.321216 
L 96.604088 166.463433 
L 97.254698 165.309242 
L 99.85714 164.962579 
L 100.50775 165.552895 
L 101.15836 165.269111 
L 101.808971 165.188771 
L 102.459581 165.311283 
L 103.110191 165.273386 
L 103.760802 165.111613 
L 104.411412 165.239003 
L 105.062022 165.065077 
L 105.712633 165.198528 
L 106.363243 164.995335 
L 108.965684 164.881871 
L 109.616294 164.976045 
L 110.266905 164.771993 
L 110.917515 164.730281 
L 111.568125 164.954349 
L 112.218736 164.699102 
L 112.869346 164.661637 
L 113.519956 164.901416 
L 114.170567 164.58694 
L 114.821177 164.88316 
L 115.471787 164.68304 
L 116.122398 164.64116 
L 116.773008 164.829158 
L 117.423618 164.72334 
L 118.074228 164.771595 
L 118.724839 165.001394 
L 119.375449 165.03958 
L 120.026059 164.815734 
L 120.67667 164.766142 
L 121.97789 164.846961 
L 122.628501 164.856709 
L 123.279111 165.105947 
L 123.929721 164.759743 
L 124.580332 165.009218 
L 125.230942 164.903465 
L 125.881552 166.797143 
L 126.532163 165.211258 
L 127.182773 165.016999 
L 127.833383 165.172304 
L 128.483993 165.123883 
L 129.134604 165.285464 
L 129.785214 164.855246 
L 130.435824 164.930114 
L 131.737045 164.855966 
L 132.387655 165.10311 
L 133.038266 165.064639 
L 133.688876 164.868848 
L 134.339486 165.016135 
L 135.640707 164.877256 
L 136.291317 165.235453 
L 137.592538 164.877763 
L 138.243148 165.427835 
L 138.893758 165.046125 
L 139.544369 164.955482 
L 140.194979 165.067267 
L 140.845589 164.763855 
L 141.4962 165.360947 
L 142.79742 164.684929 
L 143.448031 164.923842 
L 146.050472 164.79487 
L 148.652913 165.134093 
L 149.303523 165.079961 
L 149.954134 165.179266 
L 151.255354 164.880811 
L 151.905965 164.773993 
L 152.556575 165.043775 
L 153.207185 164.816821 
L 153.857796 165.072614 
L 154.508406 165.100143 
L 155.159016 164.927192 
L 155.809627 165.189586 
L 156.460237 165.317665 
L 157.110847 165.110458 
L 157.761457 165.135737 
L 158.412068 164.986007 
L 159.062678 165.498807 
L 159.713288 165.778521 
L 160.363899 165.334414 
L 161.014509 165.251334 
L 161.665119 165.419901 
L 162.31573 165.393605 
L 162.96634 165.121561 
L 164.267561 165.345862 
L 164.918171 165.182233 
L 165.568781 165.424628 
L 166.219392 165.14124 
L 166.870002 165.182545 
L 167.520612 165.367884 
L 168.171222 165.133383 
L 169.472443 165.372833 
L 170.123053 164.92852 
L 170.773664 165.286444 
L 172.074884 165.318327 
L 172.725495 165.245526 
L 174.026715 164.805705 
L 174.677326 164.920939 
L 175.978546 164.695989 
L 176.629156 165.043799 
L 177.930377 164.64286 
L 178.580987 164.917338 
L 179.231598 165.018041 
L 179.882208 164.911098 
L 180.532818 165.14236 
L 183.78587 164.811542 
L 184.43648 165.020674 
L 185.087091 164.921189 
L 186.388311 165.518543 
L 187.689532 164.791726 
L 188.340142 164.98362 
L 188.990752 165.353876 
L 192.243804 165.149026 
L 192.894414 164.898223 
L 193.545025 164.839773 
L 194.195635 165.086762 
L 195.496856 165.247648 
L 196.147466 165.12597 
L 196.798076 164.860538 
L 197.448686 165.005662 
L 198.099297 165.393884 
L 198.749907 165.053224 
L 199.400517 165.345907 
L 200.051128 165.507587 
L 200.701738 164.994987 
L 201.352348 164.923952 
L 202.002959 165.248245 
L 202.653569 164.951658 
L 203.95479 165.170414 
L 204.6054 164.785098 
L 205.25601 164.91222 
L 205.906621 165.238598 
L 206.557231 165.191654 
L 207.207841 164.923588 
L 207.858451 164.939408 
L 208.509062 165.257702 
L 209.159672 165.049467 
L 209.810282 165.018987 
L 210.460893 164.845794 
L 211.762113 164.744096 
L 213.063334 164.587137 
L 213.713944 164.674954 
L 215.015165 165.021577 
L 215.665775 164.923564 
L 216.316385 164.979672 
L 218.268216 164.897957 
L 218.918827 165.024054 
L 219.569437 164.959818 
L 220.220047 165.07791 
L 220.870658 164.820456 
L 221.521268 164.712027 
L 222.822489 164.900475 
L 224.123709 164.895666 
L 224.77432 164.69623 
L 225.42493 164.956891 
L 226.72615 164.666962 
L 227.376761 164.883899 
L 228.027371 164.725339 
L 229.328592 165.078991 
L 229.979202 164.715787 
L 230.629812 165.030537 
L 231.280423 164.741712 
L 231.931033 164.65415 
L 232.581643 165.121195 
L 233.882864 165.089584 
L 234.533474 164.704355 
L 235.184085 164.956512 
L 235.834695 164.86279 
L 236.485305 165.163025 
L 237.135915 164.813194 
L 237.786526 164.708878 
L 238.437136 165.101151 
L 239.087746 164.783313 
L 240.388967 165.128414 
L 241.690188 165.319073 
L 242.340798 165.244165 
L 242.991408 164.938711 
L 243.642019 164.876508 
L 244.292629 165.014928 
L 246.24446 164.864189 
L 247.54568 164.75179 
L 248.846901 165.003665 
L 249.497511 164.838242 
L 250.148122 165.040276 
L 250.798732 164.86654 
L 251.449342 164.843937 
L 252.099953 165.216243 
L 252.750563 164.763137 
L 254.051784 164.981265 
L 254.702394 164.823663 
L 255.353004 164.968398 
L 256.003615 164.636027 
L 256.654225 165.178885 
L 257.304835 164.914227 
L 259.256666 164.963241 
L 259.907276 164.90808 
L 260.557887 165.026892 
L 261.208497 164.835927 
L 261.859107 165.295071 
L 262.509718 164.918598 
L 263.810938 165.057586 
L 264.461549 164.807818 
L 265.112159 165.101844 
L 265.762769 164.822817 
L 266.413379 164.948452 
L 267.06399 164.701258 
L 267.7146 165.103415 
L 269.015821 164.787888 
L 269.666431 164.627265 
L 270.967652 164.87048 
L 271.618262 164.793357 
L 272.268872 164.89078 
L 272.919483 164.816826 
L 273.570093 165.10199 
L 276.172534 164.829446 
L 276.823144 165.077316 
L 278.774975 164.988172 
L 279.425586 164.739686 
L 280.076196 164.944218 
L 280.726806 165.278286 
L 281.377417 164.984764 
L 282.028027 165.046045 
L 283.979858 164.594297 
L 285.281079 164.979078 
L 286.582299 165.018403 
L 287.88352 164.755929 
L 288.53413 165.453357 
L 289.18474 165.055587 
L 289.835351 164.848884 
L 290.485961 164.972411 
L 291.136571 164.868176 
L 292.437792 165.074212 
L 293.088402 164.739459 
L 293.739013 164.778183 
L 294.389623 164.631309 
L 295.040233 164.948663 
L 295.690844 164.535885 
L 296.341454 164.832514 
L 296.992064 164.609264 
L 297.642674 164.877728 
L 298.293285 164.819973 
L 298.943895 165.278853 
L 300.895726 164.911877 
L 303.498167 164.858725 
L 304.148778 164.813592 
L 304.799388 164.982283 
L 305.449998 164.916602 
L 306.751219 165.05993 
L 307.401829 164.78132 
L 308.052439 165.030908 
L 309.35366 164.832218 
L 310.654881 164.853461 
L 311.305491 164.982248 
L 311.956101 164.810929 
L 312.606712 164.84705 
L 313.257322 164.729807 
L 313.907932 164.783751 
L 314.558543 164.665601 
L 315.209153 165.007181 
L 315.859763 165.031048 
L 316.510373 164.791597 
L 317.160984 164.672442 
L 317.811594 164.841845 
L 319.112815 164.90647 
L 319.763425 165.058231 
L 321.064646 164.855705 
L 322.365866 165.017586 
L 323.016477 164.863978 
L 323.667087 164.923065 
L 324.317697 164.706234 
L 324.968308 165.002142 
L 328.871969 164.875688 
L 329.52258 164.732046 
L 330.17319 164.898169 
L 330.8238 164.555236 
L 331.474411 164.630145 
L 332.125021 164.547179 
L 332.775631 164.668015 
L 333.426242 164.490898 
L 334.727462 164.839533 
L 335.378073 164.985422 
L 336.028683 164.83243 
L 336.679293 164.453817 
L 337.329903 164.730186 
L 337.980514 164.752185 
L 339.281734 165.089186 
L 339.932345 164.885061 
L 342.534786 165.181753 
L 343.185396 164.935748 
L 343.836007 164.919108 
L 344.486617 165.157378 
L 345.137227 164.949561 
L 345.787837 165.199449 
L 346.438448 165.051939 
L 347.089058 165.309964 
L 347.739668 164.889991 
L 348.390279 164.872794 
L 349.040889 164.737176 
L 349.691499 164.730445 
L 350.34211 164.924166 
L 351.64333 164.519965 
L 352.944551 164.592416 
L 353.595161 164.847265 
L 354.896382 164.710917 
L 355.546992 164.742609 
L 356.197602 165.034422 
L 358.149433 164.540529 
L 358.800044 164.74546 
L 359.450654 164.618036 
L 361.402485 164.587651 
L 362.703706 164.939514 
L 363.354316 164.756969 
L 364.004926 164.900573 
L 364.655537 164.631688 
L 365.306147 164.60589 
L 365.956757 165.846133 
L 366.607367 164.777665 
L 368.559198 164.818388 
L 369.209809 164.481637 
L 369.860419 164.543554 
L 370.511029 164.888463 
L 371.16164 165.036716 
L 371.81225 164.808127 
L 372.46286 165.241229 
L 373.113471 164.900164 
L 373.764081 165.067491 
L 375.065302 164.768835 
L 375.715912 164.953497 
L 376.366522 164.814192 
L 378.968963 164.766583 
L 379.619574 164.870795 
L 380.920794 164.754619 
L 381.571405 164.580423 
L 382.872625 164.71323 
L 383.523236 164.832287 
L 384.173846 164.732579 
L 384.824456 164.912646 
L 385.475066 164.692381 
L 386.125677 164.76372 
L 386.776287 164.721398 
L 388.077508 164.426188 
L 388.728118 164.597369 
L 389.378728 164.497776 
L 391.330559 164.78111 
L 392.63178 164.597544 
L 393.28239 164.795266 
L 394.583611 164.940209 
L 395.234221 165.206733 
L 395.884831 164.983543 
L 397.836662 164.621181 
L 398.487273 164.92065 
L 398.487273 164.92065 
" clip-path="url(#pefec63f7a9)" style="fill: none; stroke: #0000ff; stroke-width: 1.5; stroke-linecap: square"/>
   </g>
   <g id="line2d_30">
    <path d="M 73.832727 295.488 
L 74.483338 272.58948 
L 75.133948 175.059873 
L 75.784558 169.380538 
L 77.085779 167.673006 
L 77.736389 168.340328 
L 78.386999 167.461334 
L 79.03761 170.88967 
L 79.68822 167.121831 
L 80.33883 168.317436 
L 80.989441 168.459061 
L 81.640051 167.69697 
L 82.290661 167.637721 
L 82.941272 168.220805 
L 83.591882 168.017796 
L 84.242492 167.68137 
L 84.893103 168.204124 
L 85.543713 167.193569 
L 86.194323 168.044184 
L 86.844934 167.469211 
L 87.495544 168.10588 
L 88.146154 167.703365 
L 88.796764 167.628228 
L 89.447375 168.416431 
L 90.097985 167.636593 
L 90.748595 168.250801 
L 91.399206 167.498698 
L 92.700426 167.854658 
L 93.351037 168.361652 
L 94.001647 167.80781 
L 94.652257 167.896557 
L 95.302868 167.536526 
L 95.953478 167.794579 
L 96.604088 177.334128 
L 97.254698 168.06604 
L 97.905309 167.60564 
L 98.555919 168.088215 
L 99.206529 166.997512 
L 99.85714 167.188717 
L 100.50775 172.229396 
L 101.15836 167.882055 
L 101.808971 167.700806 
L 102.459581 168.457733 
L 103.110191 168.004928 
L 103.760802 168.048499 
L 105.062022 167.437382 
L 105.712633 168.131339 
L 106.363243 167.763854 
L 107.013853 167.148935 
L 107.664463 166.873131 
L 108.315074 167.26351 
L 108.965684 166.945624 
L 109.616294 167.189455 
L 110.266905 166.613546 
L 111.568125 166.997752 
L 112.218736 166.634075 
L 112.869346 166.641141 
L 113.519956 167.448579 
L 114.170567 166.628569 
L 114.821177 167.171239 
L 115.471787 166.682478 
L 116.122398 166.472043 
L 116.773008 166.866899 
L 118.074228 166.869516 
L 118.724839 167.333428 
L 119.375449 167.532429 
L 120.026059 167.175198 
L 120.67667 167.369616 
L 121.97789 166.967917 
L 122.628501 167.146758 
L 123.279111 167.751859 
L 123.929721 166.915726 
L 124.580332 167.364043 
L 125.230942 167.210415 
L 125.881552 191.359134 
L 126.532163 167.932235 
L 127.182773 167.063505 
L 127.833383 167.686408 
L 128.483993 167.572615 
L 129.134604 168.162807 
L 129.785214 166.778402 
L 130.435824 167.33134 
L 131.086435 166.846516 
L 131.737045 166.960345 
L 132.387655 168.293083 
L 133.038266 167.232407 
L 133.688876 167.16597 
L 134.339486 167.70642 
L 134.990097 167.529327 
L 135.640707 167.508964 
L 136.291317 168.143117 
L 136.941927 167.181777 
L 137.592538 167.119894 
L 138.243148 168.526009 
L 138.893758 167.400224 
L 139.544369 167.167723 
L 140.194979 167.721573 
L 140.845589 167.111661 
L 141.4962 169.550404 
L 142.14681 167.658975 
L 142.79742 166.824448 
L 143.448031 167.419693 
L 144.098641 167.324372 
L 144.749251 167.431401 
L 145.399862 167.274611 
L 146.050472 166.889781 
L 146.701082 167.172236 
L 147.351692 167.630434 
L 149.954134 167.959745 
L 150.604744 167.355173 
L 151.255354 167.350317 
L 151.905965 166.813297 
L 152.556575 167.509538 
L 153.207185 166.836641 
L 153.857796 167.712423 
L 154.508406 167.716735 
L 155.159016 167.109528 
L 155.809627 167.984554 
L 156.460237 168.104074 
L 157.110847 167.508851 
L 157.761457 168.1226 
L 158.412068 167.372775 
L 159.062678 170.17925 
L 159.713288 172.463974 
L 160.363899 167.721597 
L 161.014509 167.37452 
L 161.665119 168.577872 
L 162.31573 168.170087 
L 162.96634 167.594154 
L 163.61695 168.580376 
L 164.267561 168.155715 
L 164.918171 167.904114 
L 165.568781 168.187572 
L 166.219392 167.364494 
L 166.870002 167.465038 
L 167.520612 167.742993 
L 168.171222 167.106283 
L 169.472443 168.07837 
L 170.123053 166.917378 
L 170.773664 167.97426 
L 171.424274 167.692908 
L 172.074884 167.606122 
L 172.725495 167.748367 
L 173.376105 167.09703 
L 174.026715 166.681503 
L 174.677326 167.192459 
L 175.978546 166.471037 
L 176.629156 167.627761 
L 177.279767 167.087495 
L 177.930377 166.33031 
L 178.580987 166.779354 
L 179.231598 167.060996 
L 179.882208 166.813433 
L 180.532818 167.484695 
L 181.183429 167.51256 
L 181.834039 167.011006 
L 183.13526 166.666368 
L 183.78587 166.606086 
L 184.43648 167.469002 
L 185.087091 166.938598 
L 186.388311 168.772339 
L 187.038921 167.112665 
L 187.689532 166.519776 
L 188.340142 167.109752 
L 188.990752 167.916996 
L 189.641363 168.248544 
L 190.291973 167.331095 
L 190.942583 167.997993 
L 191.593194 167.329827 
L 192.243804 167.233844 
L 192.894414 166.607713 
L 193.545025 166.658798 
L 194.195635 167.569863 
L 194.846245 167.567447 
L 195.496856 167.682779 
L 196.147466 168.188149 
L 196.798076 166.685166 
L 197.448686 167.423346 
L 198.099297 167.90428 
L 198.749907 167.131888 
L 200.051128 168.685695 
L 200.701738 167.290988 
L 201.352348 167.22911 
L 202.002959 167.673678 
L 202.653569 167.289743 
L 203.304179 167.547643 
L 203.95479 167.948018 
L 204.6054 166.677415 
L 205.25601 167.313026 
L 206.557231 167.705357 
L 207.207841 166.748353 
L 207.858451 167.655836 
L 208.509062 167.918056 
L 209.159672 167.285358 
L 209.810282 167.271746 
L 210.460893 166.649371 
L 211.111503 167.083101 
L 211.762113 166.690842 
L 212.412724 166.657206 
L 213.063334 166.449493 
L 213.713944 167.08856 
L 214.364555 167.057822 
L 215.015165 167.545944 
L 215.665775 167.484735 
L 216.966996 166.966714 
L 217.617606 166.967917 
L 218.918827 167.411036 
L 219.569437 167.080335 
L 220.220047 167.603034 
L 221.521268 166.626793 
L 222.171878 167.140822 
L 223.473099 166.95865 
L 224.123709 167.143824 
L 224.77432 166.633551 
L 225.42493 167.022911 
L 226.07554 166.726432 
L 226.72615 166.719486 
L 227.376761 167.208583 
L 228.027371 166.5354 
L 228.677981 167.440319 
L 229.328592 167.640198 
L 229.979202 166.722464 
L 230.629812 167.67437 
L 231.280423 166.751642 
L 231.931033 166.627702 
L 232.581643 168.092558 
L 233.882864 167.661982 
L 234.533474 166.692388 
L 235.184085 167.063573 
L 235.834695 167.145768 
L 236.485305 168.061344 
L 237.135915 166.675792 
L 237.786526 166.786154 
L 238.437136 168.007553 
L 239.087746 166.983316 
L 239.738357 167.127174 
L 240.388967 167.645069 
L 241.690188 168.254132 
L 242.340798 168.069074 
L 242.991408 167.17787 
L 243.642019 167.03589 
L 244.292629 167.400109 
L 244.943239 167.441059 
L 245.59385 167.906642 
L 246.24446 167.215722 
L 246.89507 167.568926 
L 247.54568 167.211485 
L 248.196291 167.062986 
L 248.846901 168.955308 
L 249.497511 167.208356 
L 250.148122 167.497826 
L 250.798732 166.995716 
L 251.449342 167.15574 
L 252.099953 169.742676 
L 252.750563 167.272841 
L 253.401173 167.060588 
L 254.051784 167.376609 
L 254.702394 166.896043 
L 255.353004 167.109387 
L 256.003615 166.668155 
L 256.654225 167.738822 
L 257.304835 167.072789 
L 257.955445 167.4014 
L 259.256666 166.933573 
L 259.907276 167.1258 
L 260.557887 167.513003 
L 261.208497 166.771682 
L 261.859107 167.947523 
L 262.509718 167.054305 
L 263.160328 167.226351 
L 263.810938 167.563036 
L 264.461549 166.898361 
L 265.112159 167.922983 
L 265.762769 166.93818 
L 266.413379 167.646541 
L 267.06399 166.524028 
L 267.7146 167.757371 
L 268.36521 167.345292 
L 269.015821 166.648364 
L 269.666431 166.58146 
L 270.967652 167.323672 
L 271.618262 166.838437 
L 272.268872 167.089558 
L 272.919483 166.811875 
L 273.570093 167.601582 
L 274.220703 167.51323 
L 275.521924 166.813556 
L 276.172534 166.839958 
L 276.823144 167.375656 
L 277.473755 167.419494 
L 278.124365 167.850858 
L 278.774975 167.013118 
L 279.425586 166.574027 
L 280.076196 166.855523 
L 280.726806 167.879642 
L 281.377417 167.010544 
L 282.678637 167.277245 
L 283.329248 166.999411 
L 283.979858 168.220858 
L 284.630468 167.167919 
L 285.281079 167.38228 
L 286.582299 167.457178 
L 287.88352 166.617831 
L 288.53413 174.771148 
L 289.18474 167.543939 
L 290.485961 167.000861 
L 291.787182 167.242794 
L 292.437792 167.870449 
L 293.088402 167.128628 
L 293.739013 167.084272 
L 294.389623 166.572895 
L 295.040233 167.351802 
L 295.690844 166.336826 
L 296.341454 167.68078 
L 296.992064 166.580508 
L 297.642674 167.434072 
L 298.293285 166.654783 
L 298.943895 167.976094 
L 299.594505 167.294566 
L 300.245116 167.405077 
L 300.895726 166.896519 
L 301.546336 166.813678 
L 302.196947 166.943112 
L 302.847557 166.699937 
L 303.498167 167.219846 
L 304.148778 166.892821 
L 304.799388 167.285391 
L 305.449998 166.720974 
L 306.100608 166.984542 
L 306.751219 167.115786 
L 307.401829 166.767726 
L 308.052439 167.689124 
L 308.70305 166.717484 
L 309.35366 166.707055 
L 310.00427 167.038711 
L 310.654881 166.883419 
L 311.305491 166.977979 
L 311.956101 166.811013 
L 312.606712 166.848525 
L 313.257322 166.758924 
L 313.907932 166.501052 
L 314.558543 166.503721 
L 315.859763 167.690557 
L 316.510373 166.709244 
L 317.160984 166.959355 
L 317.811594 167.052653 
L 318.462204 166.658421 
L 319.112815 166.991045 
L 319.763425 167.079875 
L 320.414035 166.854246 
L 321.064646 166.778244 
L 321.715256 167.005831 
L 322.365866 167.082067 
L 323.016477 166.704123 
L 323.667087 166.774126 
L 324.317697 166.509478 
L 324.968308 167.371467 
L 325.618918 166.863808 
L 326.269528 166.828088 
L 326.920138 167.14509 
L 327.570749 166.939931 
L 328.221359 166.917126 
L 328.871969 167.228226 
L 329.52258 166.755022 
L 330.17319 167.233224 
L 330.8238 166.559988 
L 331.474411 166.740957 
L 332.125021 166.58472 
L 332.775631 166.89223 
L 333.426242 166.456403 
L 334.076852 166.981932 
L 334.727462 167.018922 
L 335.378073 167.771014 
L 336.679293 166.075 
L 337.329903 167.090227 
L 337.980514 166.560811 
L 338.631124 166.980419 
L 339.281734 167.125325 
L 339.932345 166.985677 
L 340.582955 166.992135 
L 341.233565 167.179197 
L 341.884176 167.039962 
L 342.534786 167.760649 
L 343.185396 166.77184 
L 344.486617 167.165987 
L 345.137227 166.794147 
L 345.787837 167.400008 
L 346.438448 167.056624 
L 347.089058 167.945062 
L 347.739668 166.745377 
L 348.390279 167.013929 
L 349.040889 166.503086 
L 349.691499 166.564002 
L 350.34211 167.290008 
L 350.99272 166.679178 
L 351.64333 166.563717 
L 352.944551 166.990154 
L 353.595161 167.653307 
L 354.896382 166.680281 
L 355.546992 166.92797 
L 356.197602 167.377891 
L 357.498823 166.972723 
L 358.149433 166.296307 
L 358.800044 166.637308 
L 359.450654 166.295504 
L 360.101264 166.340595 
L 360.751875 166.560381 
L 361.402485 166.491408 
L 362.053095 166.642624 
L 362.703706 167.428926 
L 363.354316 166.538138 
L 364.004926 167.203615 
L 364.655537 166.384772 
L 365.306147 167.022021 
L 365.956757 178.081459 
L 366.607367 166.590045 
L 367.257978 166.915076 
L 368.559198 166.823221 
L 369.209809 166.199855 
L 369.860419 166.300946 
L 370.511029 166.930655 
L 371.16164 167.097761 
L 371.81225 166.711713 
L 372.46286 167.759236 
L 373.113471 166.807378 
L 373.764081 167.097587 
L 374.414691 166.871891 
L 375.065302 166.47597 
L 375.715912 167.452266 
L 376.366522 166.813668 
L 377.667743 166.601847 
L 378.968963 166.765689 
L 379.619574 166.76232 
L 380.270184 166.646892 
L 380.920794 167.012121 
L 381.571405 166.195947 
L 382.222015 166.29406 
L 382.872625 166.728334 
L 383.523236 166.682632 
L 384.173846 166.82341 
L 384.824456 167.278947 
L 385.475066 166.506129 
L 386.125677 166.521906 
L 386.776287 166.938433 
L 387.426897 166.250416 
L 388.077508 166.097273 
L 388.728118 167.106122 
L 389.378728 166.543746 
L 390.029339 166.360657 
L 390.679949 166.843519 
L 391.330559 166.508378 
L 392.63178 166.321637 
L 393.28239 166.724703 
L 393.933001 166.705801 
L 394.583611 167.642943 
L 395.234221 167.471944 
L 396.535442 166.659736 
L 398.487273 166.943527 
L 398.487273 166.943527 
" clip-path="url(#pefec63f7a9)" style="fill: none; stroke-dasharray: 9.6,2.4,1.5,2.4; stroke-dashoffset: 0; stroke: #008000; stroke-width: 1.5"/>
   </g>
   <g id="line2d_31">
    <path d="M 73.832727 53.568 
L 74.483338 72.526737 
L 75.133948 157.245975 
L 75.784558 161.990055 
L 76.435169 163.006395 
L 77.085779 163.407889 
L 77.736389 162.934758 
L 78.386999 163.336666 
L 79.03761 161.269346 
L 79.68822 163.49446 
L 80.989441 163.292465 
L 81.640051 163.398787 
L 82.290661 163.282042 
L 83.591882 162.75961 
L 84.242492 163.121796 
L 84.893103 162.684426 
L 85.543713 162.938009 
L 86.194323 163.054142 
L 87.495544 162.528769 
L 88.146154 162.748739 
L 88.796764 162.801903 
L 89.447375 162.280245 
L 90.097985 162.612325 
L 90.748595 162.653554 
L 91.399206 162.862247 
L 92.049816 162.498374 
L 93.351037 162.971639 
L 94.001647 163.064917 
L 94.652257 162.995736 
L 95.302868 163.134632 
L 95.953478 162.847852 
L 96.604088 155.592738 
L 97.254698 162.552445 
L 97.905309 162.794932 
L 98.555919 162.127775 
L 99.206529 162.939478 
L 99.85714 162.73644 
L 100.50775 158.876394 
L 101.15836 162.656168 
L 101.808971 162.676736 
L 102.459581 162.164834 
L 103.110191 162.541844 
L 103.760802 162.174727 
L 104.411412 162.782882 
L 105.062022 162.692772 
L 105.712633 162.265718 
L 106.363243 162.226817 
L 107.013853 162.789311 
L 107.664463 162.899816 
L 108.315074 162.777929 
L 110.266905 162.93044 
L 110.917515 162.611879 
L 111.568125 162.910947 
L 112.869346 162.682132 
L 113.519956 162.354252 
L 114.170567 162.545312 
L 115.471787 162.683603 
L 116.122398 162.810277 
L 116.773008 162.791416 
L 117.423618 162.613849 
L 118.724839 162.66936 
L 120.026059 162.456269 
L 120.67667 162.162669 
L 121.32728 162.572764 
L 121.97789 162.726005 
L 123.279111 162.460036 
L 124.580332 162.654393 
L 125.230942 162.596515 
L 125.881552 142.235151 
L 126.532163 162.490281 
L 127.182773 162.970492 
L 127.833383 162.658201 
L 128.483993 162.675151 
L 129.134604 162.408121 
L 129.785214 162.932091 
L 130.435824 162.528887 
L 131.086435 162.860652 
L 131.737045 162.751588 
L 132.387655 161.913136 
L 133.038266 162.896871 
L 134.339486 162.325849 
L 134.990097 162.374986 
L 135.640707 162.245549 
L 136.291317 162.32779 
L 136.941927 162.844334 
L 138.243148 162.329661 
L 138.893758 162.692027 
L 139.544369 162.743241 
L 140.194979 162.412961 
L 140.845589 162.416049 
L 141.4962 161.171489 
L 142.14681 162.471145 
L 142.79742 162.54541 
L 143.448031 162.42799 
L 144.098641 162.464714 
L 144.749251 162.323882 
L 145.399862 162.440492 
L 146.050472 162.699959 
L 146.701082 162.636703 
L 147.351692 162.238418 
L 148.002303 162.475147 
L 148.652913 162.459942 
L 149.303523 162.146943 
L 150.604744 162.640693 
L 151.255354 162.411306 
L 151.905965 162.734689 
L 152.556575 162.578013 
L 153.207185 162.797 
L 153.857796 162.432805 
L 154.508406 162.48355 
L 155.159016 162.744856 
L 155.809627 162.394619 
L 157.110847 162.712066 
L 157.761457 162.148874 
L 158.412068 162.599239 
L 159.713288 159.093068 
L 160.363899 162.947232 
L 161.014509 163.128147 
L 161.665119 162.26193 
L 162.31573 162.617122 
L 162.96634 162.648969 
L 163.61695 161.987642 
L 164.267561 162.536008 
L 164.918171 162.460352 
L 166.219392 162.917987 
L 167.520612 162.992775 
L 168.171222 163.160482 
L 169.472443 162.667297 
L 170.123053 162.939663 
L 170.773664 162.598627 
L 171.424274 162.977167 
L 172.074884 163.030533 
L 172.725495 162.742686 
L 173.376105 162.960414 
L 174.026715 162.929908 
L 174.677326 162.649419 
L 175.978546 162.920941 
L 176.629156 162.459837 
L 177.279767 162.578244 
L 177.930377 162.95541 
L 178.580987 163.055323 
L 179.231598 162.975086 
L 179.882208 163.008762 
L 181.183429 162.659112 
L 181.834039 162.962185 
L 183.78587 163.016998 
L 184.43648 162.572346 
L 185.087091 162.903781 
L 185.737701 162.665086 
L 186.388311 162.264747 
L 187.038921 163.203517 
L 188.990752 162.790756 
L 189.641363 162.37559 
L 190.291973 163.056904 
L 190.942583 162.506491 
L 191.593194 163.006159 
L 192.894414 163.188734 
L 193.545025 163.020748 
L 194.195635 162.603661 
L 194.846245 162.843627 
L 195.496856 162.812516 
L 196.147466 162.063791 
L 196.798076 163.035911 
L 197.448686 162.587978 
L 198.099297 162.883487 
L 198.749907 162.974559 
L 199.400517 162.80699 
L 200.051128 162.329479 
L 200.701738 162.698986 
L 201.352348 162.618794 
L 202.002959 162.822813 
L 203.304179 162.49442 
L 203.95479 162.392811 
L 204.6054 162.892781 
L 205.25601 162.511414 
L 205.906621 162.912679 
L 206.557231 162.677951 
L 207.207841 163.098824 
L 207.858451 162.22298 
L 208.509062 162.597347 
L 209.159672 162.813577 
L 209.810282 162.766228 
L 210.460893 163.042216 
L 211.111503 162.609786 
L 211.762113 162.797351 
L 212.412724 162.567826 
L 213.063334 162.724782 
L 213.713944 162.261348 
L 214.364555 162.713543 
L 215.665775 162.362392 
L 216.316385 162.756706 
L 217.617606 162.907759 
L 218.268216 162.615956 
L 218.918827 162.637071 
L 219.569437 162.8393 
L 220.220047 162.552786 
L 220.870658 162.568217 
L 221.521268 162.797262 
L 222.171878 162.502031 
L 222.822489 162.799495 
L 223.473099 162.854223 
L 224.123709 162.647507 
L 225.42493 162.89087 
L 227.376761 162.559215 
L 228.027371 162.915279 
L 228.677981 162.385698 
L 229.979202 162.709111 
L 230.629812 162.386705 
L 231.280423 162.731782 
L 231.931033 162.680599 
L 232.581643 162.149831 
L 233.232254 162.25358 
L 234.533474 162.716323 
L 235.184085 162.849451 
L 236.485305 162.264705 
L 237.135915 162.950596 
L 238.437136 162.194749 
L 239.738357 162.895234 
L 240.388967 162.611759 
L 241.690188 162.384013 
L 242.340798 162.419257 
L 242.991408 162.699553 
L 244.292629 162.629746 
L 244.943239 162.536654 
L 245.59385 161.952165 
L 246.24446 162.512656 
L 246.89507 162.023882 
L 247.54568 162.292095 
L 248.196291 162.700461 
L 248.846901 161.052023 
L 249.497511 162.468129 
L 250.798732 162.737363 
L 251.449342 162.532134 
L 252.099953 160.68981 
L 252.750563 162.253434 
L 253.401173 162.615018 
L 254.051784 162.585921 
L 255.353004 162.827409 
L 256.003615 162.603898 
L 256.654225 162.618948 
L 257.304835 162.755665 
L 257.955445 162.532484 
L 258.606056 162.921646 
L 259.256666 162.992909 
L 259.907276 162.690361 
L 260.557887 162.540782 
L 261.208497 162.900172 
L 261.859107 162.642618 
L 262.509718 162.782891 
L 263.810938 162.552136 
L 264.461549 162.717275 
L 265.112159 162.280706 
L 265.762769 162.707454 
L 266.413379 162.250364 
L 267.06399 162.878489 
L 267.7146 162.449459 
L 268.36521 162.432352 
L 269.015821 162.927411 
L 269.666431 162.673071 
L 270.317041 162.652159 
L 270.967652 162.417289 
L 271.618262 162.748276 
L 272.268872 162.692002 
L 272.919483 162.821777 
L 273.570093 162.602398 
L 274.220703 162.531313 
L 275.521924 162.99965 
L 276.172534 162.818933 
L 277.473755 162.678804 
L 278.124365 162.276875 
L 278.774975 162.963226 
L 279.425586 162.905346 
L 280.076196 163.032914 
L 280.726806 162.676931 
L 281.377417 162.958984 
L 282.028027 162.965423 
L 282.678637 162.563721 
L 283.329248 162.490324 
L 283.979858 160.967737 
L 284.630468 162.49498 
L 285.931689 162.612036 
L 286.582299 162.579628 
L 287.88352 162.894026 
L 288.53413 156.135566 
L 289.18474 162.567234 
L 289.835351 162.478894 
L 290.485961 162.943962 
L 291.136571 162.647563 
L 291.787182 162.64291 
L 292.437792 162.277975 
L 293.739013 162.472094 
L 294.389623 162.689724 
L 295.040233 162.545523 
L 295.690844 162.734945 
L 296.341454 161.984248 
L 296.992064 162.638021 
L 297.642674 162.321384 
L 298.293285 162.985163 
L 298.943895 162.581613 
L 299.594505 162.958344 
L 300.245116 162.591997 
L 300.895726 162.927234 
L 302.196947 163.007185 
L 302.847557 163.037963 
L 303.498167 162.497604 
L 304.148778 162.734362 
L 304.799388 162.679176 
L 305.449998 163.112231 
L 306.751219 163.004073 
L 307.401829 162.794913 
L 308.052439 162.372693 
L 308.70305 163.09307 
L 309.35366 162.957382 
L 310.00427 162.65136 
L 311.305491 162.986517 
L 311.956101 162.810845 
L 312.606712 162.845574 
L 313.257322 162.70069 
L 313.907932 163.066449 
L 314.558543 162.827481 
L 315.209153 162.897523 
L 315.859763 162.371538 
L 316.510373 162.873949 
L 317.160984 162.385528 
L 318.462204 162.983569 
L 319.112815 162.821895 
L 319.763425 163.036587 
L 321.064646 162.933166 
L 322.365866 162.953104 
L 323.667087 163.072005 
L 324.968308 162.632818 
L 325.618918 163.096802 
L 326.920138 162.722193 
L 328.221359 162.957859 
L 328.871969 162.52315 
L 329.52258 162.709069 
L 330.17319 162.563115 
L 334.076852 162.446259 
L 334.727462 162.660145 
L 335.378073 162.19983 
L 336.028683 162.70386 
L 336.679293 162.832634 
L 337.329903 162.370145 
L 337.980514 162.94356 
L 338.631124 162.854906 
L 339.281734 163.053047 
L 339.932345 162.784445 
L 341.884176 163.134298 
L 342.534786 162.602857 
L 343.185396 163.099656 
L 343.836007 162.831186 
L 344.486617 163.148769 
L 346.438448 163.047253 
L 347.089058 162.674867 
L 347.739668 163.034606 
L 348.390279 162.731659 
L 349.040889 162.971267 
L 349.691499 162.896887 
L 350.34211 162.558325 
L 350.99272 162.739264 
L 351.64333 162.476214 
L 352.944551 162.194678 
L 353.595161 162.041224 
L 354.896382 162.741552 
L 355.546992 162.557248 
L 356.197602 162.690954 
L 357.498823 162.582727 
L 358.149433 162.78475 
L 360.101264 162.896961 
L 360.751875 162.596192 
L 362.053095 162.866062 
L 362.703706 162.450101 
L 363.354316 162.9758 
L 364.004926 162.597531 
L 364.655537 162.878604 
L 365.306147 162.18976 
L 365.956757 153.610806 
L 366.607367 162.965285 
L 367.257978 162.607942 
L 367.908588 162.856259 
L 369.860419 162.786163 
L 371.81225 162.904541 
L 372.46286 162.723223 
L 373.113471 162.99295 
L 375.065302 163.061699 
L 375.715912 162.454728 
L 376.366522 162.814715 
L 377.017132 162.875497 
L 377.667743 162.768274 
L 378.318353 162.977416 
L 378.968963 162.767477 
L 379.619574 162.97927 
L 380.270184 163.057414 
L 380.920794 162.497117 
L 381.571405 162.964899 
L 382.222015 162.90149 
L 382.872625 162.698125 
L 383.523236 162.981943 
L 384.173846 162.641748 
L 384.824456 162.546344 
L 385.475066 162.878633 
L 386.125677 163.005534 
L 386.776287 162.504363 
L 387.426897 162.831503 
L 388.077508 162.755102 
L 388.728118 162.088616 
L 390.029339 162.892852 
L 390.679949 162.681551 
L 391.330559 163.053842 
L 393.28239 162.86583 
L 393.933001 163.028199 
L 394.583611 162.237475 
L 395.234221 162.941523 
L 395.884831 162.935655 
L 396.535442 163.101237 
L 397.186052 162.908239 
L 397.836662 162.478064 
L 398.487273 162.897774 
L 398.487273 162.897774 
" clip-path="url(#pefec63f7a9)" style="fill: none; stroke-dasharray: 9.6,2.4,1.5,2.4; stroke-dashoffset: 0; stroke: #008000; stroke-width: 1.5"/>
   </g>
   <g id="line2d_32">
    <path d="M 73.832727 162.32678 
L 74.483338 162.021821 
L 77.736389 162.021821 
L 78.386999 161.853017 
L 79.03761 160.190074 
L 80.33883 160.190074 
L 80.989441 157.816983 
L 91.399206 157.776734 
L 92.049816 157.24575 
L 202.653569 157.165732 
L 204.6054 157.118752 
L 276.172534 157.027184 
L 278.774975 156.991589 
L 398.487273 156.991589 
L 398.487273 156.991589 
" clip-path="url(#pefec63f7a9)" style="fill: none; stroke: #ff0000; stroke-width: 1.5; stroke-linecap: square"/>
   </g>
   <g id="patch_3">
    <path d="M 57.6 307.584 
L 57.6 41.472 
" style="fill: none; stroke: #000000; stroke-width: 0.8; stroke-linejoin: miter; stroke-linecap: square"/>
   </g>
   <g id="patch_4">
    <path d="M 414.72 307.584 
L 414.72 41.472 
" style="fill: none; stroke: #000000; stroke-width: 0.8; stroke-linejoin: miter; stroke-linecap: square"/>
   </g>
   <g id="patch_5">
    <path d="M 57.6 307.584 
L 414.72 307.584 
" style="fill: none; stroke: #000000; stroke-width: 0.8; stroke-linejoin: miter; stroke-linecap: square"/>
   </g>
   <g id="patch_6">
    <path d="M 57.6 41.472 
L 414.72 41.472 
" style="fill: none; stroke: #000000; stroke-width: 0.8; stroke-linejoin: miter; stroke-linecap: square"/>
   </g>
   <g id="text_18">
    <!-- Population's average and best fitness -->
    <g transform="translate(123.529687 35.472) scale(0.12 -0.12)">
     <defs>
      <path id="DejaVuSans-50" d="M 1259 4147 
L 1259 2394 
L 2053 2394 
Q 2494 2394 2734 2622 
Q 2975 2850 2975 3272 
Q 2975 3691 2734 3919 
Q 2494 4147 2053 4147 
L 1259 4147 
z
M 628 4666 
L 2053 4666 
Q 2838 4666 3239 4311 
Q 3641 3956 3641 3272 
Q 3641 2581 3239 2228 
Q 2838 1875 2053 1875 
L 1259 1875 
L 1259 0 
L 628 0 
L 628 4666 
z
" transform="scale(0.015625)"/>
      <path id="DejaVuSans-70" d="M 1159 525 
L 1159 -1331 
L 581 -1331 
L 581 3500 
L 1159 3500 
L 1159 2969 
Q 1341 3281 1617 3432 
Q 1894 3584 2278 3584 
Q 2916 3584 3314 3078 
Q 3713 2572 3713 1747 
Q 3713 922 3314 415 
Q 2916 -91 2278 -91 
Q 1894 -91 1617 61 
Q 1341 213 1159 525 
z
M 3116 1747 
Q 3116 2381 2855 2742 
Q 2594 3103 2138 3103 
Q 1681 3103 1420 2742 
Q 1159 2381 1159 1747 
Q 1159 1113 1420 752 
Q 1681 391 2138 391 
Q 2594 391 2855 752 
Q 3116 1113 3116 1747 
z
" transform="scale(0.015625)"/>
      <path id="DejaVuSans-75" d="M 544 1381 
L 544 3500 
L 1119 3500 
L 1119 1403 
Q 1119 906 1312 657 
Q 1506 409 1894 409 
Q 2359 409 2629 706 
Q 2900 1003 2900 1516 
L 2900 3500 
L 3475 3500 
L 3475 0 
L 2900 0 
L 2900 538 
Q 2691 219 2414 64 
Q 2138 -91 1772 -91 
Q 1169 -91 856 284 
Q 544 659 544 1381 
z
M 1991 3584 
L 1991 3584 
z
" transform="scale(0.015625)"/>
      <path id="DejaVuSans-6c" d="M 603 4863 
L 1178 4863 
L 1178 0 
L 603 0 
L 603 4863 
z
" transform="scale(0.015625)"/>
      <path id="DejaVuSans-27" d="M 1147 4666 
L 1147 2931 
L 616 2931 
L 616 4666 
L 1147 4666 
z
" transform="scale(0.015625)"/>
      <path id="DejaVuSans-20" transform="scale(0.015625)"/>
      <path id="DejaVuSans-76" d="M 191 3500 
L 800 3500 
L 1894 563 
L 2988 3500 
L 3597 3500 
L 2284 0 
L 1503 0 
L 191 3500 
z
" transform="scale(0.015625)"/>
      <path id="DejaVuSans-67" d="M 2906 1791 
Q 2906 2416 2648 2759 
Q 2391 3103 1925 3103 
Q 1463 3103 1205 2759 
Q 947 2416 947 1791 
Q 947 1169 1205 825 
Q 1463 481 1925 481 
Q 2391 481 2648 825 
Q 2906 1169 2906 1791 
z
M 3481 434 
Q 3481 -459 3084 -895 
Q 2688 -1331 1869 -1331 
Q 1566 -1331 1297 -1286 
Q 1028 -1241 775 -1147 
L 775 -588 
Q 1028 -725 1275 -790 
Q 1522 -856 1778 -856 
Q 2344 -856 2625 -561 
Q 2906 -266 2906 331 
L 2906 616 
Q 2728 306 2450 153 
Q 2172 0 1784 0 
Q 1141 0 747 490 
Q 353 981 353 1791 
Q 353 2603 747 3093 
Q 1141 3584 1784 3584 
Q 2172 3584 2450 3431 
Q 2728 3278 2906 2969 
L 2906 3500 
L 3481 3500 
L 3481 434 
z
" transform="scale(0.015625)"/>
      <path id="DejaVuSans-64" d="M 2906 2969 
L 2906 4863 
L 3481 4863 
L 3481 0 
L 2906 0 
L 2906 525 
Q 2725 213 2448 61 
Q 2172 -91 1784 -91 
Q 1150 -91 751 415 
Q 353 922 353 1747 
Q 353 2572 751 3078 
Q 1150 3584 1784 3584 
Q 2172 3584 2448 3432 
Q 2725 3281 2906 2969 
z
M 947 1747 
Q 947 1113 1208 752 
Q 1469 391 1925 391 
Q 2381 391 2643 752 
Q 2906 1113 2906 1747 
Q 2906 2381 2643 2742 
Q 2381 3103 1925 3103 
Q 1469 3103 1208 2742 
Q 947 2381 947 1747 
z
" transform="scale(0.015625)"/>
      <path id="DejaVuSans-62" d="M 3116 1747 
Q 3116 2381 2855 2742 
Q 2594 3103 2138 3103 
Q 1681 3103 1420 2742 
Q 1159 2381 1159 1747 
Q 1159 1113 1420 752 
Q 1681 391 2138 391 
Q 2594 391 2855 752 
Q 3116 1113 3116 1747 
z
M 1159 2969 
Q 1341 3281 1617 3432 
Q 1894 3584 2278 3584 
Q 2916 3584 3314 3078 
Q 3713 2572 3713 1747 
Q 3713 922 3314 415 
Q 2916 -91 2278 -91 
Q 1894 -91 1617 61 
Q 1341 213 1159 525 
L 1159 0 
L 581 0 
L 581 4863 
L 1159 4863 
L 1159 2969 
z
" transform="scale(0.015625)"/>
      <path id="DejaVuSans-66" d="M 2375 4863 
L 2375 4384 
L 1825 4384 
Q 1516 4384 1395 4259 
Q 1275 4134 1275 3809 
L 1275 3500 
L 2222 3500 
L 2222 3053 
L 1275 3053 
L 1275 0 
L 697 0 
L 697 3053 
L 147 3053 
L 147 3500 
L 697 3500 
L 697 3744 
Q 697 4328 969 4595 
Q 1241 4863 1831 4863 
L 2375 4863 
z
" transform="scale(0.015625)"/>
     </defs>
     <use xlink:href="#DejaVuSans-50"/>
     <use xlink:href="#DejaVuSans-6f" transform="translate(56.677734 0)"/>
     <use xlink:href="#DejaVuSans-70" transform="translate(117.859375 0)"/>
     <use xlink:href="#DejaVuSans-75" transform="translate(181.335938 0)"/>
     <use xlink:href="#DejaVuSans-6c" transform="translate(244.714844 0)"/>
     <use xlink:href="#DejaVuSans-61" transform="translate(272.498047 0)"/>
     <use xlink:href="#DejaVuSans-74" transform="translate(333.777344 0)"/>
     <use xlink:href="#DejaVuSans-69" transform="translate(372.986328 0)"/>
     <use xlink:href="#DejaVuSans-6f" transform="translate(400.769531 0)"/>
     <use xlink:href="#DejaVuSans-6e" transform="translate(461.951172 0)"/>
     <use xlink:href="#DejaVuSans-27" transform="translate(525.330078 0)"/>
     <use xlink:href="#DejaVuSans-73" transform="translate(552.820312 0)"/>
     <use xlink:href="#DejaVuSans-20" transform="translate(604.919922 0)"/>
     <use xlink:href="#DejaVuSans-61" transform="translate(636.707031 0)"/>
     <use xlink:href="#DejaVuSans-76" transform="translate(697.986328 0)"/>
     <use xlink:href="#DejaVuSans-65" transform="translate(757.166016 0)"/>
     <use xlink:href="#DejaVuSans-72" transform="translate(818.689453 0)"/>
     <use xlink:href="#DejaVuSans-61" transform="translate(859.802734 0)"/>
     <use xlink:href="#DejaVuSans-67" transform="translate(921.082031 0)"/>
     <use xlink:href="#DejaVuSans-65" transform="translate(984.558594 0)"/>
     <use xlink:href="#DejaVuSans-20" transform="translate(1046.082031 0)"/>
     <use xlink:href="#DejaVuSans-61" transform="translate(1077.869141 0)"/>
     <use xlink:href="#DejaVuSans-6e" transform="translate(1139.148438 0)"/>
     <use xlink:href="#DejaVuSans-64" transform="translate(1202.527344 0)"/>
     <use xlink:href="#DejaVuSans-20" transform="translate(1266.003906 0)"/>
     <use xlink:href="#DejaVuSans-62" transform="translate(1297.791016 0)"/>
     <use xlink:href="#DejaVuSans-65" transform="translate(1361.267578 0)"/>
     <use xlink:href="#DejaVuSans-73" transform="translate(1422.791016 0)"/>
     <use xlink:href="#DejaVuSans-74" transform="translate(1474.890625 0)"/>
     <use xlink:href="#DejaVuSans-20" transform="translate(1514.099609 0)"/>
     <use xlink:href="#DejaVuSans-66" transform="translate(1545.886719 0)"/>
     <use xlink:href="#DejaVuSans-69" transform="translate(1581.091797 0)"/>
     <use xlink:href="#DejaVuSans-74" transform="translate(1608.875 0)"/>
     <use xlink:href="#DejaVuSans-6e" transform="translate(1648.083984 0)"/>
     <use xlink:href="#DejaVuSans-65" transform="translate(1711.462891 0)"/>
     <use xlink:href="#DejaVuSans-73" transform="translate(1772.986328 0)"/>
     <use xlink:href="#DejaVuSans-73" transform="translate(1825.085938 0)"/>
    </g>
   </g>
   <g id="legend_1">
    <g id="patch_7">
     <path d="M 334.779375 108.1845 
L 407.72 108.1845 
Q 409.72 108.1845 409.72 106.1845 
L 409.72 48.472 
Q 409.72 46.472 407.72 46.472 
L 334.779375 46.472 
Q 332.779375 46.472 332.779375 48.472 
L 332.779375 106.1845 
Q 332.779375 108.1845 334.779375 108.1845 
z
" style="fill: #ffffff; opacity: 0.8; stroke: #cccccc; stroke-linejoin: miter"/>
    </g>
    <g id="line2d_33">
     <path d="M 336.779375 54.570438 
L 346.779375 54.570438 
L 356.779375 54.570438 
" style="fill: none; stroke: #0000ff; stroke-width: 1.5; stroke-linecap: square"/>
    </g>
    <g id="text_19">
     <!-- average -->
     <g transform="translate(364.779375 58.070438) scale(0.1 -0.1)">
      <use xlink:href="#DejaVuSans-61"/>
      <use xlink:href="#DejaVuSans-76" transform="translate(61.279297 0)"/>
      <use xlink:href="#DejaVuSans-65" transform="translate(120.458984 0)"/>
      <use xlink:href="#DejaVuSans-72" transform="translate(181.982422 0)"/>
      <use xlink:href="#DejaVuSans-61" transform="translate(223.095703 0)"/>
      <use xlink:href="#DejaVuSans-67" transform="translate(284.375 0)"/>
      <use xlink:href="#DejaVuSans-65" transform="translate(347.851562 0)"/>
     </g>
    </g>
    <g id="line2d_34">
     <path d="M 336.779375 69.248563 
L 346.779375 69.248563 
L 356.779375 69.248563 
" style="fill: none; stroke-dasharray: 9.6,2.4,1.5,2.4; stroke-dashoffset: 0; stroke: #008000; stroke-width: 1.5"/>
    </g>
    <g id="text_20">
     <!-- -1 sd -->
     <g transform="translate(364.779375 72.748563) scale(0.1 -0.1)">
      <defs>
       <path id="DejaVuSans-2d" d="M 313 2009 
L 1997 2009 
L 1997 1497 
L 313 1497 
L 313 2009 
z
" transform="scale(0.015625)"/>
      </defs>
      <use xlink:href="#DejaVuSans-2d"/>
      <use xlink:href="#DejaVuSans-31" transform="translate(36.083984 0)"/>
      <use xlink:href="#DejaVuSans-20" transform="translate(99.707031 0)"/>
      <use xlink:href="#DejaVuSans-73" transform="translate(131.494141 0)"/>
      <use xlink:href="#DejaVuSans-64" transform="translate(183.59375 0)"/>
     </g>
    </g>
    <g id="line2d_35">
     <path d="M 336.779375 83.926688 
L 346.779375 83.926688 
L 356.779375 83.926688 
" style="fill: none; stroke-dasharray: 9.6,2.4,1.5,2.4; stroke-dashoffset: 0; stroke: #008000; stroke-width: 1.5"/>
    </g>
    <g id="text_21">
     <!-- +1 sd -->
     <g transform="translate(364.779375 87.426688) scale(0.1 -0.1)">
      <defs>
       <path id="DejaVuSans-2b" d="M 2944 4013 
L 2944 2272 
L 4684 2272 
L 4684 1741 
L 2944 1741 
L 2944 0 
L 2419 0 
L 2419 1741 
L 678 1741 
L 678 2272 
L 2419 2272 
L 2419 4013 
L 2944 4013 
z
" transform="scale(0.015625)"/>
      </defs>
      <use xlink:href="#DejaVuSans-2b"/>
      <use xlink:href="#DejaVuSans-31" transform="translate(83.789062 0)"/>
      <use xlink:href="#DejaVuSans-20" transform="translate(147.412109 0)"/>
      <use xlink:href="#DejaVuSans-73" transform="translate(179.199219 0)"/>
      <use xlink:href="#DejaVuSans-64" transform="translate(231.298828 0)"/>
     </g>
    </g>
    <g id="line2d_36">
     <path d="M 336.779375 98.604813 
L 346.779375 98.604813 
L 356.779375 98.604813 
" style="fill: none; stroke: #ff0000; stroke-width: 1.5; stroke-linecap: square"/>
    </g>
    <g id="text_22">
     <!-- best -->
     <g transform="translate(364.779375 102.104813) scale(0.1 -0.1)">
      <use xlink:href="#DejaVuSans-62"/>
      <use xlink:href="#DejaVuSans-65" transform="translate(63.476562 0)"/>
      <use xlink:href="#DejaVuSans-73" transform="translate(125 0)"/>
      <use xlink:href="#DejaVuSans-74" transform="translate(177.099609 0)"/>
     </g>
    </g>
   </g>
  </g>
 </g>
 <defs>
  <clipPath id="pefec63f7a9">
   <rect x="57.6" y="41.472" width="357.12" height="266.112"/>
  </clipPath>
 </defs>
</svg>
