<?xml version="1.0" encoding="UTF-8" standalone="no"?>
<!DOCTYPE svg PUBLIC "-//W3C//DTD SVG 1.1//EN"
 "http://www.w3.org/Graphics/SVG/1.1/DTD/svg11.dtd">
<!-- Generated by graphviz version 12.2.1 (20241206.2353)
 -->
<!-- Pages: 1 -->
<svg width="644pt" height="91pt"
 viewBox="0.00 0.00 644.00 91.49" xmlns="http://www.w3.org/2000/svg" xmlns:xlink="http://www.w3.org/1999/xlink">
<g id="graph0" class="graph" transform="scale(1 1) rotate(0) translate(4 87.49)">
<polygon fill="white" stroke="none" points="-4,4 -4,-87.49 640,-87.49 640,4 -4,4"/>
<!-- &#45;1 -->
<g id="node1" class="node">
<title>&#45;1</title>
<polygon fill="lightgray" stroke="black" points="157.75,-83.49 134.25,-83.49 134.25,-64.99 157.75,-64.99 157.75,-83.49"/>
<text text-anchor="middle" x="146" y="-70.94" font-family="Times New Roman,serif" font-size="9.00">&#45;1</text>
</g>
<!-- 0 -->
<g id="node16" class="node">
<title>0</title>
<ellipse fill="lightblue" stroke="black" cx="311" cy="-14.5" rx="14.5" ry="14.5"/>
<text text-anchor="middle" x="311" y="-11.2" font-family="Times New Roman,serif" font-size="9.00">0</text>
</g>
<!-- &#45;1&#45;&gt;0 -->
<g id="edge1" class="edge">
<title>&#45;1&#45;&gt;0</title>
<path fill="none" stroke="red" stroke-width="0.17" stroke-dasharray="1,5" d="M157.96,-68.44C160.91,-67.29 164.06,-66.07 167,-64.99 209.42,-49.38 259.42,-32.54 287.95,-23.08"/>
<polygon fill="red" stroke="red" stroke-width="0.17" points="288.79,-26.49 297.19,-20.02 286.59,-19.84 288.79,-26.49"/>
</g>
<!-- 1 -->
<g id="node17" class="node">
<title>1</title>
<ellipse fill="lightblue" stroke="black" cx="358" cy="-14.5" rx="14.5" ry="14.5"/>
<text text-anchor="middle" x="358" y="-11.2" font-family="Times New Roman,serif" font-size="9.00">1</text>
</g>
<!-- &#45;1&#45;&gt;1 -->
<g id="edge2" class="edge">
<title>&#45;1&#45;&gt;1</title>
<path fill="none" stroke="red" stroke-width="0.32" d="M157.88,-68.19C160.82,-67.04 164,-65.9 167,-64.99 239.68,-43.04 263,-55.9 334,-28.99 335.03,-28.6 336.07,-28.17 337.1,-27.72"/>
<polygon fill="red" stroke="red" stroke-width="0.32" points="338.39,-30.99 345.7,-23.32 335.2,-24.76 338.39,-30.99"/>
</g>
<!-- &#45;2 -->
<g id="node2" class="node">
<title>&#45;2</title>
<polygon fill="lightgray" stroke="black" points="199.75,-83.49 176.25,-83.49 176.25,-64.99 199.75,-64.99 199.75,-83.49"/>
<text text-anchor="middle" x="188" y="-70.94" font-family="Times New Roman,serif" font-size="9.00">&#45;2</text>
</g>
<!-- &#45;2&#45;&gt;0 -->
<g id="edge3" class="edge">
<title>&#45;2&#45;&gt;0</title>
<path fill="none" stroke="green" stroke-width="0.59" d="M200.24,-67.49C220.75,-57.87 262.35,-38.34 288.32,-26.14"/>
<polygon fill="green" stroke="green" stroke-width="0.59" points="289.69,-29.36 297.26,-21.95 286.72,-23.03 289.69,-29.36"/>
</g>
<!-- &#45;2&#45;&gt;1 -->
<g id="edge4" class="edge">
<title>&#45;2&#45;&gt;1</title>
<path fill="none" stroke="green" stroke-width="0.25" stroke-dasharray="1,5" d="M199.92,-68.33C202.87,-67.18 206.03,-66 209,-64.99 263.74,-46.4 280.67,-51.31 334,-28.99 335.01,-28.57 336.04,-28.11 337.07,-27.63"/>
<polygon fill="green" stroke="green" stroke-width="0.25" points="338.49,-30.84 345.73,-23.1 335.24,-24.63 338.49,-30.84"/>
</g>
<!-- &#45;3 -->
<g id="node3" class="node">
<title>&#45;3</title>
<polygon fill="lightgray" stroke="black" points="241.75,-83.49 218.25,-83.49 218.25,-64.99 241.75,-64.99 241.75,-83.49"/>
<text text-anchor="middle" x="230" y="-70.94" font-family="Times New Roman,serif" font-size="9.00">&#45;3</text>
</g>
<!-- &#45;3&#45;&gt;0 -->
<g id="edge5" class="edge">
<title>&#45;3&#45;&gt;0</title>
<path fill="none" stroke="green" stroke-width="0.1" d="M241.95,-64.72C255.02,-55.4 276.16,-40.33 291.61,-29.32"/>
<polygon fill="green" stroke="green" stroke-width="0.1" points="293.29,-32.42 299.4,-23.77 289.22,-26.72 293.29,-32.42"/>
</g>
<!-- &#45;3&#45;&gt;1 -->
<g id="edge6" class="edge">
<title>&#45;3&#45;&gt;1</title>
<path fill="none" stroke="red" stroke-width="0.11" d="M241.98,-68.34C265.48,-58.69 316.83,-37.44 334,-28.99 334.99,-28.51 335.99,-28 337,-27.48"/>
<polygon fill="red" stroke="red" stroke-width="0.11" points="338.66,-30.56 345.78,-22.71 335.32,-24.41 338.66,-30.56"/>
</g>
<!-- &#45;4 -->
<g id="node4" class="node">
<title>&#45;4</title>
<polygon fill="lightgray" stroke="black" points="69.75,-83.49 46.25,-83.49 46.25,-64.99 69.75,-64.99 69.75,-83.49"/>
<text text-anchor="middle" x="58" y="-70.94" font-family="Times New Roman,serif" font-size="9.00">&#45;4</text>
</g>
<!-- &#45;4&#45;&gt;0 -->
<g id="edge7" class="edge">
<title>&#45;4&#45;&gt;0</title>
<path fill="none" stroke="green" stroke-width="0.43" d="M69.87,-68.19C72.82,-67.04 76,-65.89 79,-64.99 153.03,-42.72 243.24,-26.49 286.09,-19.43"/>
<polygon fill="green" stroke="green" stroke-width="0.43" points="286.46,-22.91 295.77,-17.86 285.33,-16 286.46,-22.91"/>
</g>
<!-- &#45;5 -->
<g id="node5" class="node">
<title>&#45;5</title>
<polygon fill="lightgray" stroke="black" points="283.75,-83.49 260.25,-83.49 260.25,-64.99 283.75,-64.99 283.75,-83.49"/>
<text text-anchor="middle" x="272" y="-70.94" font-family="Times New Roman,serif" font-size="9.00">&#45;5</text>
</g>
<!-- &#45;5&#45;&gt;0 -->
<g id="edge8" class="edge">
<title>&#45;5&#45;&gt;0</title>
<path fill="none" stroke="red" stroke-width="0.18" stroke-dasharray="1,5" d="M277.75,-64.72C283,-56.96 290.94,-45.2 297.75,-35.12"/>
<polygon fill="red" stroke="red" stroke-width="0.18" points="300.49,-37.31 303.19,-27.06 294.69,-33.39 300.49,-37.31"/>
</g>
<!-- &#45;5&#45;&gt;1 -->
<g id="edge9" class="edge">
<title>&#45;5&#45;&gt;1</title>
<path fill="none" stroke="green" stroke-width="0.25" d="M283.96,-65.21C297.82,-55.9 320.9,-40.41 337.61,-29.18"/>
<polygon fill="green" stroke="green" stroke-width="0.25" points="339.48,-32.15 345.83,-23.67 335.58,-26.33 339.48,-32.15"/>
</g>
<!-- &#45;6 -->
<g id="node6" class="node">
<title>&#45;6</title>
<polygon fill="lightgray" stroke="black" points="325.75,-83.49 302.25,-83.49 302.25,-64.99 325.75,-64.99 325.75,-83.49"/>
<text text-anchor="middle" x="314" y="-70.94" font-family="Times New Roman,serif" font-size="9.00">&#45;6</text>
</g>
<!-- &#45;6&#45;&gt;0 -->
<g id="edge10" class="edge">
<title>&#45;6&#45;&gt;0</title>
<path fill="none" stroke="red" stroke-width="0.31" stroke-dasharray="1,5" d="M313.56,-64.72C313.21,-58.12 312.72,-48.63 312.26,-39.74"/>
<polygon fill="red" stroke="red" stroke-width="0.31" points="315.76,-39.7 311.75,-29.89 308.77,-40.06 315.76,-39.7"/>
</g>
<!-- &#45;6&#45;&gt;1 -->
<g id="edge11" class="edge">
<title>&#45;6&#45;&gt;1</title>
<path fill="none" stroke="red" stroke-width="0.21" stroke-dasharray="1,5" d="M320.49,-64.72C326.54,-56.78 335.78,-44.66 343.57,-34.43"/>
<polygon fill="red" stroke="red" stroke-width="0.21" points="346.21,-36.75 349.48,-26.67 340.64,-32.5 346.21,-36.75"/>
</g>
<!-- &#45;7 -->
<g id="node7" class="node">
<title>&#45;7</title>
<polygon fill="lightgray" stroke="black" points="367.75,-83.49 344.25,-83.49 344.25,-64.99 367.75,-64.99 367.75,-83.49"/>
<text text-anchor="middle" x="356" y="-70.94" font-family="Times New Roman,serif" font-size="9.00">&#45;7</text>
</g>
<!-- &#45;7&#45;&gt;0 -->
<g id="edge12" class="edge">
<title>&#45;7&#45;&gt;0</title>
<path fill="none" stroke="red" stroke-width="0.21" stroke-dasharray="1,5" d="M349.36,-64.72C343.17,-56.78 333.73,-44.66 325.76,-34.43"/>
<polygon fill="red" stroke="red" stroke-width="0.21" points="328.62,-32.41 319.71,-26.68 323.1,-36.72 328.62,-32.41"/>
</g>
<!-- &#45;7&#45;&gt;1 -->
<g id="edge13" class="edge">
<title>&#45;7&#45;&gt;1</title>
<path fill="none" stroke="red" stroke-width="0.35" d="M356.3,-64.72C356.52,-58.12 356.85,-48.63 357.16,-39.74"/>
<polygon fill="red" stroke="red" stroke-width="0.35" points="360.65,-40.07 357.5,-29.95 353.66,-39.83 360.65,-40.07"/>
</g>
<!-- &#45;8 -->
<g id="node8" class="node">
<title>&#45;8</title>
<polygon fill="lightgray" stroke="black" points="409.75,-83.49 386.25,-83.49 386.25,-64.99 409.75,-64.99 409.75,-83.49"/>
<text text-anchor="middle" x="398" y="-70.94" font-family="Times New Roman,serif" font-size="9.00">&#45;8</text>
</g>
<!-- &#45;8&#45;&gt;0 -->
<g id="edge14" class="edge">
<title>&#45;8&#45;&gt;0</title>
<path fill="none" stroke="red" stroke-width="0.25" d="M385.9,-65.21C371.88,-55.9 348.53,-40.41 331.62,-29.18"/>
<polygon fill="red" stroke="red" stroke-width="0.25" points="333.58,-26.28 323.31,-23.67 329.71,-32.11 333.58,-26.28"/>
</g>
<!-- &#45;8&#45;&gt;1 -->
<g id="edge15" class="edge">
<title>&#45;8&#45;&gt;1</title>
<path fill="none" stroke="green" stroke-width="0.37" d="M392.1,-64.72C386.77,-57.03 378.74,-45.43 371.8,-35.42"/>
<polygon fill="green" stroke="green" stroke-width="0.37" points="374.75,-33.53 366.18,-27.3 368.99,-37.51 374.75,-33.53"/>
</g>
<!-- &#45;9 -->
<g id="node9" class="node">
<title>&#45;9</title>
<polygon fill="lightgray" stroke="black" points="451.75,-83.49 428.25,-83.49 428.25,-64.99 451.75,-64.99 451.75,-83.49"/>
<text text-anchor="middle" x="440" y="-70.94" font-family="Times New Roman,serif" font-size="9.00">&#45;9</text>
</g>
<!-- &#45;9&#45;&gt;0 -->
<g id="edge16" class="edge">
<title>&#45;9&#45;&gt;0</title>
<path fill="none" stroke="red" stroke-width="0.19" stroke-dasharray="1,5" d="M427.91,-68.35C404.18,-58.71 352.32,-37.48 335,-28.99 334.01,-28.51 333.01,-28 332,-27.48"/>
<polygon fill="red" stroke="red" stroke-width="0.19" points="333.78,-24.47 323.32,-22.77 330.44,-30.62 333.78,-24.47"/>
</g>
<!-- &#45;9&#45;&gt;1 -->
<g id="edge17" class="edge">
<title>&#45;9&#45;&gt;1</title>
<path fill="none" stroke="green" stroke-width="0.32" d="M427.9,-64.72C414.79,-55.49 393.66,-40.61 378.06,-29.62"/>
<polygon fill="green" stroke="green" stroke-width="0.32" points="380.21,-26.85 370.02,-23.96 376.18,-32.58 380.21,-26.85"/>
</g>
<!-- &#45;10 -->
<g id="node10" class="node">
<title>&#45;10</title>
<polygon fill="lightgray" stroke="black" points="498,-83.49 470,-83.49 470,-64.99 498,-64.99 498,-83.49"/>
<text text-anchor="middle" x="484" y="-70.94" font-family="Times New Roman,serif" font-size="9.00">&#45;10</text>
</g>
<!-- &#45;10&#45;&gt;0 -->
<g id="edge18" class="edge">
<title>&#45;10&#45;&gt;0</title>
<path fill="none" stroke="red" stroke-width="0.47" d="M469.94,-68.03C467,-66.99 463.91,-65.93 461,-64.99 405.56,-47.15 388.75,-51.42 335,-28.99 334.11,-28.62 333.22,-28.23 332.32,-27.81"/>
<polygon fill="red" stroke="red" stroke-width="0.47" points="334.04,-24.76 323.56,-23.25 330.81,-30.97 334.04,-24.76"/>
</g>
<!-- &#45;10&#45;&gt;1 -->
<g id="edge19" class="edge">
<title>&#45;10&#45;&gt;1</title>
<path fill="none" stroke="green" stroke-width="0.41" d="M469.55,-66.62C447.75,-56.63 406.27,-37.62 380.5,-25.81"/>
<polygon fill="green" stroke="green" stroke-width="0.41" points="382.26,-22.76 371.71,-21.78 379.34,-29.13 382.26,-22.76"/>
</g>
<!-- &#45;11 -->
<g id="node11" class="node">
<title>&#45;11</title>
<polygon fill="lightgray" stroke="black" points="544,-83.49 516,-83.49 516,-64.99 544,-64.99 544,-83.49"/>
<text text-anchor="middle" x="530" y="-70.94" font-family="Times New Roman,serif" font-size="9.00">&#45;11</text>
</g>
<!-- &#45;11&#45;&gt;0 -->
<g id="edge20" class="edge">
<title>&#45;11&#45;&gt;0</title>
<path fill="none" stroke="red" stroke-width="0.17" d="M515.99,-67.87C513.04,-66.84 509.94,-65.82 507,-64.99 431.84,-43.76 408.11,-56.45 335,-28.99 333.97,-28.6 332.93,-28.18 331.9,-27.72"/>
<polygon fill="red" stroke="red" stroke-width="0.17" points="333.59,-24.66 323.09,-23.23 330.4,-30.89 333.59,-24.66"/>
</g>
<!-- &#45;11&#45;&gt;1 -->
<g id="edge21" class="edge">
<title>&#45;11&#45;&gt;1</title>
<path fill="none" stroke="green" stroke-width="0.42" stroke-dasharray="1,5" d="M515.91,-68.13C512.97,-67.08 509.89,-65.99 507,-64.99 462.71,-49.7 410.72,-32.63 381.34,-23.06"/>
<polygon fill="green" stroke="green" stroke-width="0.42" points="382.79,-19.85 372.2,-20.09 380.63,-26.51 382.79,-19.85"/>
</g>
<!-- &#45;12 -->
<g id="node12" class="node">
<title>&#45;12</title>
<polygon fill="lightgray" stroke="black" points="590,-83.49 562,-83.49 562,-64.99 590,-64.99 590,-83.49"/>
<text text-anchor="middle" x="576" y="-70.94" font-family="Times New Roman,serif" font-size="9.00">&#45;12</text>
</g>
<!-- &#45;12&#45;&gt;0 -->
<g id="edge22" class="edge">
<title>&#45;12&#45;&gt;0</title>
<path fill="none" stroke="green" stroke-width="0.51" stroke-dasharray="1,5" d="M561.52,-67.6C558.72,-66.64 555.79,-65.72 553,-64.99 457.95,-40.31 427.65,-61.55 335,-28.99 334.09,-28.67 333.18,-28.32 332.27,-27.94"/>
<polygon fill="green" stroke="green" stroke-width="0.51" points="334.02,-24.91 323.51,-23.56 330.89,-31.17 334.02,-24.91"/>
</g>
<!-- &#45;12&#45;&gt;1 -->
<g id="edge23" class="edge">
<title>&#45;12&#45;&gt;1</title>
<path fill="none" stroke="red" stroke-width="0.18" stroke-dasharray="1,5" d="M561.96,-67.97C559.02,-66.93 555.92,-65.88 553,-64.99 492.19,-46.42 419.27,-29.23 382.2,-20.85"/>
<polygon fill="red" stroke="red" stroke-width="0.18" points="383.11,-17.47 372.58,-18.69 381.58,-24.3 383.11,-17.47"/>
</g>
<!-- &#45;13 -->
<g id="node13" class="node">
<title>&#45;13</title>
<polygon fill="lightgray" stroke="black" points="28,-83.49 0,-83.49 0,-64.99 28,-64.99 28,-83.49"/>
<text text-anchor="middle" x="14" y="-70.94" font-family="Times New Roman,serif" font-size="9.00">&#45;13</text>
</g>
<!-- &#45;13&#45;&gt;0 -->
<g id="edge24" class="edge">
<title>&#45;13&#45;&gt;0</title>
<path fill="none" stroke="red" stroke-width="0.27" stroke-dasharray="1,5" d="M28.49,-67.64C31.28,-66.67 34.21,-65.74 37,-64.99 127.54,-40.75 238.11,-24.84 286.43,-18.54"/>
<polygon fill="red" stroke="red" stroke-width="0.27" points="286.67,-22.04 296.14,-17.3 285.78,-15.1 286.67,-22.04"/>
</g>
<!-- &#45;14 -->
<g id="node14" class="node">
<title>&#45;14</title>
<polygon fill="lightgray" stroke="black" points="636,-83.49 608,-83.49 608,-64.99 636,-64.99 636,-83.49"/>
<text text-anchor="middle" x="622" y="-70.94" font-family="Times New Roman,serif" font-size="9.00">&#45;14</text>
</g>
<!-- &#45;14&#45;&gt;0 -->
<g id="edge25" class="edge">
<title>&#45;14&#45;&gt;0</title>
<path fill="none" stroke="red" stroke-width="0.31" stroke-dasharray="1,5" d="M607.54,-67.54C604.74,-66.58 601.8,-65.68 599,-64.99 483.97,-36.85 447.26,-66.68 335,-28.99 333.96,-28.64 332.91,-28.25 331.86,-27.81"/>
<polygon fill="red" stroke="red" stroke-width="0.31" points="333.73,-24.83 323.22,-23.5 330.61,-31.1 333.73,-24.83"/>
</g>
<!-- &#45;14&#45;&gt;1 -->
<g id="edge26" class="edge">
<title>&#45;14&#45;&gt;1</title>
<path fill="none" stroke="red" stroke-width="0.13" d="M607.5,-67.69C604.7,-66.72 601.78,-65.77 599,-64.99 521.09,-43.14 426.51,-26.52 382.6,-19.36"/>
<polygon fill="red" stroke="red" stroke-width="0.13" points="383.2,-15.91 372.77,-17.78 382.09,-22.82 383.2,-15.91"/>
</g>
<!-- &#45;15 -->
<g id="node15" class="node">
<title>&#45;15</title>
<polygon fill="lightgray" stroke="black" points="116,-83.49 88,-83.49 88,-64.99 116,-64.99 116,-83.49"/>
<text text-anchor="middle" x="102" y="-70.94" font-family="Times New Roman,serif" font-size="9.00">&#45;15</text>
</g>
<!-- &#45;15&#45;&gt;0 -->
<g id="edge27" class="edge">
<title>&#45;15&#45;&gt;0</title>
<path fill="none" stroke="red" stroke-width="0.31" stroke-dasharray="1,5" d="M116.05,-67.99C118.99,-66.95 122.08,-65.9 125,-64.99 182.53,-47.05 251.31,-29.83 286.94,-21.21"/>
<polygon fill="red" stroke="red" stroke-width="0.31" points="287.53,-24.67 296.43,-18.93 285.89,-17.86 287.53,-24.67"/>
</g>
<!-- &#45;15&#45;&gt;1 -->
<g id="edge28" class="edge">
<title>&#45;15&#45;&gt;1</title>
<path fill="none" stroke="green" stroke-width="0.53" d="M116.48,-67.62C119.28,-66.65 122.21,-65.73 125,-64.99 216.15,-40.99 245.18,-60.55 334,-28.99 334.91,-28.67 335.82,-28.31 336.73,-27.93"/>
<polygon fill="green" stroke="green" stroke-width="0.53" points="338.09,-31.17 345.46,-23.56 334.95,-24.91 338.09,-31.17"/>
</g>
</g>
</svg>
