<?xml version="1.0" encoding="utf-8" standalone="no"?>
<!DOCTYPE svg PUBLIC "-//W3C//DTD SVG 1.1//EN"
  "http://www.w3.org/Graphics/SVG/1.1/DTD/svg11.dtd">
<svg xmlns:xlink="http://www.w3.org/1999/xlink" width="460.8pt" height="345.6pt" viewBox="0 0 460.8 345.6" xmlns="http://www.w3.org/2000/svg" version="1.1">
 <metadata>
  <rdf:RDF xmlns:dc="http://purl.org/dc/elements/1.1/" xmlns:cc="http://creativecommons.org/ns#" xmlns:rdf="http://www.w3.org/1999/02/22-rdf-syntax-ns#">
   <cc:Work>
    <dc:type rdf:resource="http://purl.org/dc/dcmitype/StillImage"/>
    <dc:date>2025-07-09T15:08:41.324033</dc:date>
    <dc:format>image/svg+xml</dc:format>
    <dc:creator>
     <cc:Agent>
      <dc:title>Matplotlib v3.10.0, https://matplotlib.org/</dc:title>
     </cc:Agent>
    </dc:creator>
   </cc:Work>
  </rdf:RDF>
 </metadata>
 <defs>
  <style type="text/css">*{stroke-linejoin: round; stroke-linecap: butt}</style>
 </defs>
 <g id="figure_1">
  <g id="patch_1">
   <path d="M 0 345.6 
L 460.8 345.6 
L 460.8 0 
L 0 0 
z
" style="fill: #ffffff"/>
  </g>
  <g id="axes_1">
   <g id="patch_2">
    <path d="M 57.6 307.584 
L 414.72 307.584 
L 414.72 41.472 
L 57.6 41.472 
z
" style="fill: #ffffff"/>
   </g>
   <g id="matplotlib.axis_1">
    <g id="xtick_1">
     <g id="line2d_1">
      <path d="M 73.832727 307.584 
L 73.832727 41.472 
" clip-path="url(#p0adeb4fbd7)" style="fill: none; stroke: #b0b0b0; stroke-width: 0.8; stroke-linecap: square"/>
     </g>
     <g id="line2d_2">
      <defs>
       <path id="m6f54729333" d="M 0 0 
L 0 3.5 
" style="stroke: #000000; stroke-width: 0.8"/>
      </defs>
      <g>
       <use xlink:href="#m6f54729333" x="73.832727" y="307.584" style="stroke: #000000; stroke-width: 0.8"/>
      </g>
     </g>
     <g id="text_1">
      <!-- 0 -->
      <g transform="translate(70.651477 322.182437) scale(0.1 -0.1)">
       <defs>
        <path id="DejaVuSans-30" d="M 2034 4250 
Q 1547 4250 1301 3770 
Q 1056 3291 1056 2328 
Q 1056 1369 1301 889 
Q 1547 409 2034 409 
Q 2525 409 2770 889 
Q 3016 1369 3016 2328 
Q 3016 3291 2770 3770 
Q 2525 4250 2034 4250 
z
M 2034 4750 
Q 2819 4750 3233 4129 
Q 3647 3509 3647 2328 
Q 3647 1150 3233 529 
Q 2819 -91 2034 -91 
Q 1250 -91 836 529 
Q 422 1150 422 2328 
Q 422 3509 836 4129 
Q 1250 4750 2034 4750 
z
" transform="scale(0.015625)"/>
       </defs>
       <use xlink:href="#DejaVuSans-30"/>
      </g>
     </g>
    </g>
    <g id="xtick_2">
     <g id="line2d_3">
      <path d="M 138.893758 307.584 
L 138.893758 41.472 
" clip-path="url(#p0adeb4fbd7)" style="fill: none; stroke: #b0b0b0; stroke-width: 0.8; stroke-linecap: square"/>
     </g>
     <g id="line2d_4">
      <g>
       <use xlink:href="#m6f54729333" x="138.893758" y="307.584" style="stroke: #000000; stroke-width: 0.8"/>
      </g>
     </g>
     <g id="text_2">
      <!-- 100 -->
      <g transform="translate(129.350008 322.182437) scale(0.1 -0.1)">
       <defs>
        <path id="DejaVuSans-31" d="M 794 531 
L 1825 531 
L 1825 4091 
L 703 3866 
L 703 4441 
L 1819 4666 
L 2450 4666 
L 2450 531 
L 3481 531 
L 3481 0 
L 794 0 
L 794 531 
z
" transform="scale(0.015625)"/>
       </defs>
       <use xlink:href="#DejaVuSans-31"/>
       <use xlink:href="#DejaVuSans-30" transform="translate(63.623047 0)"/>
       <use xlink:href="#DejaVuSans-30" transform="translate(127.246094 0)"/>
      </g>
     </g>
    </g>
    <g id="xtick_3">
     <g id="line2d_5">
      <path d="M 203.95479 307.584 
L 203.95479 41.472 
" clip-path="url(#p0adeb4fbd7)" style="fill: none; stroke: #b0b0b0; stroke-width: 0.8; stroke-linecap: square"/>
     </g>
     <g id="line2d_6">
      <g>
       <use xlink:href="#m6f54729333" x="203.95479" y="307.584" style="stroke: #000000; stroke-width: 0.8"/>
      </g>
     </g>
     <g id="text_3">
      <!-- 200 -->
      <g transform="translate(194.41104 322.182437) scale(0.1 -0.1)">
       <defs>
        <path id="DejaVuSans-32" d="M 1228 531 
L 3431 531 
L 3431 0 
L 469 0 
L 469 531 
Q 828 903 1448 1529 
Q 2069 2156 2228 2338 
Q 2531 2678 2651 2914 
Q 2772 3150 2772 3378 
Q 2772 3750 2511 3984 
Q 2250 4219 1831 4219 
Q 1534 4219 1204 4116 
Q 875 4013 500 3803 
L 500 4441 
Q 881 4594 1212 4672 
Q 1544 4750 1819 4750 
Q 2544 4750 2975 4387 
Q 3406 4025 3406 3419 
Q 3406 3131 3298 2873 
Q 3191 2616 2906 2266 
Q 2828 2175 2409 1742 
Q 1991 1309 1228 531 
z
" transform="scale(0.015625)"/>
       </defs>
       <use xlink:href="#DejaVuSans-32"/>
       <use xlink:href="#DejaVuSans-30" transform="translate(63.623047 0)"/>
       <use xlink:href="#DejaVuSans-30" transform="translate(127.246094 0)"/>
      </g>
     </g>
    </g>
    <g id="xtick_4">
     <g id="line2d_7">
      <path d="M 269.015821 307.584 
L 269.015821 41.472 
" clip-path="url(#p0adeb4fbd7)" style="fill: none; stroke: #b0b0b0; stroke-width: 0.8; stroke-linecap: square"/>
     </g>
     <g id="line2d_8">
      <g>
       <use xlink:href="#m6f54729333" x="269.015821" y="307.584" style="stroke: #000000; stroke-width: 0.8"/>
      </g>
     </g>
     <g id="text_4">
      <!-- 300 -->
      <g transform="translate(259.472071 322.182437) scale(0.1 -0.1)">
       <defs>
        <path id="DejaVuSans-33" d="M 2597 2516 
Q 3050 2419 3304 2112 
Q 3559 1806 3559 1356 
Q 3559 666 3084 287 
Q 2609 -91 1734 -91 
Q 1441 -91 1130 -33 
Q 819 25 488 141 
L 488 750 
Q 750 597 1062 519 
Q 1375 441 1716 441 
Q 2309 441 2620 675 
Q 2931 909 2931 1356 
Q 2931 1769 2642 2001 
Q 2353 2234 1838 2234 
L 1294 2234 
L 1294 2753 
L 1863 2753 
Q 2328 2753 2575 2939 
Q 2822 3125 2822 3475 
Q 2822 3834 2567 4026 
Q 2313 4219 1838 4219 
Q 1578 4219 1281 4162 
Q 984 4106 628 3988 
L 628 4550 
Q 988 4650 1302 4700 
Q 1616 4750 1894 4750 
Q 2613 4750 3031 4423 
Q 3450 4097 3450 3541 
Q 3450 3153 3228 2886 
Q 3006 2619 2597 2516 
z
" transform="scale(0.015625)"/>
       </defs>
       <use xlink:href="#DejaVuSans-33"/>
       <use xlink:href="#DejaVuSans-30" transform="translate(63.623047 0)"/>
       <use xlink:href="#DejaVuSans-30" transform="translate(127.246094 0)"/>
      </g>
     </g>
    </g>
    <g id="xtick_5">
     <g id="line2d_9">
      <path d="M 334.076852 307.584 
L 334.076852 41.472 
" clip-path="url(#p0adeb4fbd7)" style="fill: none; stroke: #b0b0b0; stroke-width: 0.8; stroke-linecap: square"/>
     </g>
     <g id="line2d_10">
      <g>
       <use xlink:href="#m6f54729333" x="334.076852" y="307.584" style="stroke: #000000; stroke-width: 0.8"/>
      </g>
     </g>
     <g id="text_5">
      <!-- 400 -->
      <g transform="translate(324.533102 322.182437) scale(0.1 -0.1)">
       <defs>
        <path id="DejaVuSans-34" d="M 2419 4116 
L 825 1625 
L 2419 1625 
L 2419 4116 
z
M 2253 4666 
L 3047 4666 
L 3047 1625 
L 3713 1625 
L 3713 1100 
L 3047 1100 
L 3047 0 
L 2419 0 
L 2419 1100 
L 313 1100 
L 313 1709 
L 2253 4666 
z
" transform="scale(0.015625)"/>
       </defs>
       <use xlink:href="#DejaVuSans-34"/>
       <use xlink:href="#DejaVuSans-30" transform="translate(63.623047 0)"/>
       <use xlink:href="#DejaVuSans-30" transform="translate(127.246094 0)"/>
      </g>
     </g>
    </g>
    <g id="xtick_6">
     <g id="line2d_11">
      <path d="M 399.137883 307.584 
L 399.137883 41.472 
" clip-path="url(#p0adeb4fbd7)" style="fill: none; stroke: #b0b0b0; stroke-width: 0.8; stroke-linecap: square"/>
     </g>
     <g id="line2d_12">
      <g>
       <use xlink:href="#m6f54729333" x="399.137883" y="307.584" style="stroke: #000000; stroke-width: 0.8"/>
      </g>
     </g>
     <g id="text_6">
      <!-- 500 -->
      <g transform="translate(389.594133 322.182437) scale(0.1 -0.1)">
       <defs>
        <path id="DejaVuSans-35" d="M 691 4666 
L 3169 4666 
L 3169 4134 
L 1269 4134 
L 1269 2991 
Q 1406 3038 1543 3061 
Q 1681 3084 1819 3084 
Q 2600 3084 3056 2656 
Q 3513 2228 3513 1497 
Q 3513 744 3044 326 
Q 2575 -91 1722 -91 
Q 1428 -91 1123 -41 
Q 819 9 494 109 
L 494 744 
Q 775 591 1075 516 
Q 1375 441 1709 441 
Q 2250 441 2565 725 
Q 2881 1009 2881 1497 
Q 2881 1984 2565 2268 
Q 2250 2553 1709 2553 
Q 1456 2553 1204 2497 
Q 953 2441 691 2322 
L 691 4666 
z
" transform="scale(0.015625)"/>
       </defs>
       <use xlink:href="#DejaVuSans-35"/>
       <use xlink:href="#DejaVuSans-30" transform="translate(63.623047 0)"/>
       <use xlink:href="#DejaVuSans-30" transform="translate(127.246094 0)"/>
      </g>
     </g>
    </g>
    <g id="text_7">
     <!-- Generations -->
     <g transform="translate(205.662344 335.860562) scale(0.1 -0.1)">
      <defs>
       <path id="DejaVuSans-47" d="M 3809 666 
L 3809 1919 
L 2778 1919 
L 2778 2438 
L 4434 2438 
L 4434 434 
Q 4069 175 3628 42 
Q 3188 -91 2688 -91 
Q 1594 -91 976 548 
Q 359 1188 359 2328 
Q 359 3472 976 4111 
Q 1594 4750 2688 4750 
Q 3144 4750 3555 4637 
Q 3966 4525 4313 4306 
L 4313 3634 
Q 3963 3931 3569 4081 
Q 3175 4231 2741 4231 
Q 1884 4231 1454 3753 
Q 1025 3275 1025 2328 
Q 1025 1384 1454 906 
Q 1884 428 2741 428 
Q 3075 428 3337 486 
Q 3600 544 3809 666 
z
" transform="scale(0.015625)"/>
       <path id="DejaVuSans-65" d="M 3597 1894 
L 3597 1613 
L 953 1613 
Q 991 1019 1311 708 
Q 1631 397 2203 397 
Q 2534 397 2845 478 
Q 3156 559 3463 722 
L 3463 178 
Q 3153 47 2828 -22 
Q 2503 -91 2169 -91 
Q 1331 -91 842 396 
Q 353 884 353 1716 
Q 353 2575 817 3079 
Q 1281 3584 2069 3584 
Q 2775 3584 3186 3129 
Q 3597 2675 3597 1894 
z
M 3022 2063 
Q 3016 2534 2758 2815 
Q 2500 3097 2075 3097 
Q 1594 3097 1305 2825 
Q 1016 2553 972 2059 
L 3022 2063 
z
" transform="scale(0.015625)"/>
       <path id="DejaVuSans-6e" d="M 3513 2113 
L 3513 0 
L 2938 0 
L 2938 2094 
Q 2938 2591 2744 2837 
Q 2550 3084 2163 3084 
Q 1697 3084 1428 2787 
Q 1159 2491 1159 1978 
L 1159 0 
L 581 0 
L 581 3500 
L 1159 3500 
L 1159 2956 
Q 1366 3272 1645 3428 
Q 1925 3584 2291 3584 
Q 2894 3584 3203 3211 
Q 3513 2838 3513 2113 
z
" transform="scale(0.015625)"/>
       <path id="DejaVuSans-72" d="M 2631 2963 
Q 2534 3019 2420 3045 
Q 2306 3072 2169 3072 
Q 1681 3072 1420 2755 
Q 1159 2438 1159 1844 
L 1159 0 
L 581 0 
L 581 3500 
L 1159 3500 
L 1159 2956 
Q 1341 3275 1631 3429 
Q 1922 3584 2338 3584 
Q 2397 3584 2469 3576 
Q 2541 3569 2628 3553 
L 2631 2963 
z
" transform="scale(0.015625)"/>
       <path id="DejaVuSans-61" d="M 2194 1759 
Q 1497 1759 1228 1600 
Q 959 1441 959 1056 
Q 959 750 1161 570 
Q 1363 391 1709 391 
Q 2188 391 2477 730 
Q 2766 1069 2766 1631 
L 2766 1759 
L 2194 1759 
z
M 3341 1997 
L 3341 0 
L 2766 0 
L 2766 531 
Q 2569 213 2275 61 
Q 1981 -91 1556 -91 
Q 1019 -91 701 211 
Q 384 513 384 1019 
Q 384 1609 779 1909 
Q 1175 2209 1959 2209 
L 2766 2209 
L 2766 2266 
Q 2766 2663 2505 2880 
Q 2244 3097 1772 3097 
Q 1472 3097 1187 3025 
Q 903 2953 641 2809 
L 641 3341 
Q 956 3463 1253 3523 
Q 1550 3584 1831 3584 
Q 2591 3584 2966 3190 
Q 3341 2797 3341 1997 
z
" transform="scale(0.015625)"/>
       <path id="DejaVuSans-74" d="M 1172 4494 
L 1172 3500 
L 2356 3500 
L 2356 3053 
L 1172 3053 
L 1172 1153 
Q 1172 725 1289 603 
Q 1406 481 1766 481 
L 2356 481 
L 2356 0 
L 1766 0 
Q 1100 0 847 248 
Q 594 497 594 1153 
L 594 3053 
L 172 3053 
L 172 3500 
L 594 3500 
L 594 4494 
L 1172 4494 
z
" transform="scale(0.015625)"/>
       <path id="DejaVuSans-69" d="M 603 3500 
L 1178 3500 
L 1178 0 
L 603 0 
L 603 3500 
z
M 603 4863 
L 1178 4863 
L 1178 4134 
L 603 4134 
L 603 4863 
z
" transform="scale(0.015625)"/>
       <path id="DejaVuSans-6f" d="M 1959 3097 
Q 1497 3097 1228 2736 
Q 959 2375 959 1747 
Q 959 1119 1226 758 
Q 1494 397 1959 397 
Q 2419 397 2687 759 
Q 2956 1122 2956 1747 
Q 2956 2369 2687 2733 
Q 2419 3097 1959 3097 
z
M 1959 3584 
Q 2709 3584 3137 3096 
Q 3566 2609 3566 1747 
Q 3566 888 3137 398 
Q 2709 -91 1959 -91 
Q 1206 -91 779 398 
Q 353 888 353 1747 
Q 353 2609 779 3096 
Q 1206 3584 1959 3584 
z
" transform="scale(0.015625)"/>
       <path id="DejaVuSans-73" d="M 2834 3397 
L 2834 2853 
Q 2591 2978 2328 3040 
Q 2066 3103 1784 3103 
Q 1356 3103 1142 2972 
Q 928 2841 928 2578 
Q 928 2378 1081 2264 
Q 1234 2150 1697 2047 
L 1894 2003 
Q 2506 1872 2764 1633 
Q 3022 1394 3022 966 
Q 3022 478 2636 193 
Q 2250 -91 1575 -91 
Q 1294 -91 989 -36 
Q 684 19 347 128 
L 347 722 
Q 666 556 975 473 
Q 1284 391 1588 391 
Q 1994 391 2212 530 
Q 2431 669 2431 922 
Q 2431 1156 2273 1281 
Q 2116 1406 1581 1522 
L 1381 1569 
Q 847 1681 609 1914 
Q 372 2147 372 2553 
Q 372 3047 722 3315 
Q 1072 3584 1716 3584 
Q 2034 3584 2315 3537 
Q 2597 3491 2834 3397 
z
" transform="scale(0.015625)"/>
      </defs>
      <use xlink:href="#DejaVuSans-47"/>
      <use xlink:href="#DejaVuSans-65" transform="translate(77.490234 0)"/>
      <use xlink:href="#DejaVuSans-6e" transform="translate(139.013672 0)"/>
      <use xlink:href="#DejaVuSans-65" transform="translate(202.392578 0)"/>
      <use xlink:href="#DejaVuSans-72" transform="translate(263.916016 0)"/>
      <use xlink:href="#DejaVuSans-61" transform="translate(305.029297 0)"/>
      <use xlink:href="#DejaVuSans-74" transform="translate(366.308594 0)"/>
      <use xlink:href="#DejaVuSans-69" transform="translate(405.517578 0)"/>
      <use xlink:href="#DejaVuSans-6f" transform="translate(433.300781 0)"/>
      <use xlink:href="#DejaVuSans-6e" transform="translate(494.482422 0)"/>
      <use xlink:href="#DejaVuSans-73" transform="translate(557.861328 0)"/>
     </g>
    </g>
   </g>
   <g id="matplotlib.axis_2">
    <g id="ytick_1">
     <g id="line2d_13">
      <path d="M 57.6 270.197758 
L 414.72 270.197758 
" clip-path="url(#p0adeb4fbd7)" style="fill: none; stroke: #b0b0b0; stroke-width: 0.8; stroke-linecap: square"/>
     </g>
     <g id="line2d_14">
      <defs>
       <path id="m6e07953a7d" d="M 0 0 
L -3.5 0 
" style="stroke: #000000; stroke-width: 0.8"/>
      </defs>
      <g>
       <use xlink:href="#m6e07953a7d" x="57.6" y="270.197758" style="stroke: #000000; stroke-width: 0.8"/>
      </g>
     </g>
     <g id="text_8">
      <!-- −200000 -->
      <g transform="translate(4.045313 273.996977) scale(0.1 -0.1)">
       <defs>
        <path id="DejaVuSans-2212" d="M 678 2272 
L 4684 2272 
L 4684 1741 
L 678 1741 
L 678 2272 
z
" transform="scale(0.015625)"/>
       </defs>
       <use xlink:href="#DejaVuSans-2212"/>
       <use xlink:href="#DejaVuSans-32" transform="translate(83.789062 0)"/>
       <use xlink:href="#DejaVuSans-30" transform="translate(147.412109 0)"/>
       <use xlink:href="#DejaVuSans-30" transform="translate(211.035156 0)"/>
       <use xlink:href="#DejaVuSans-30" transform="translate(274.658203 0)"/>
       <use xlink:href="#DejaVuSans-30" transform="translate(338.28125 0)"/>
       <use xlink:href="#DejaVuSans-30" transform="translate(401.904297 0)"/>
      </g>
     </g>
    </g>
    <g id="ytick_2">
     <g id="line2d_15">
      <path d="M 57.6 219.098691 
L 414.72 219.098691 
" clip-path="url(#p0adeb4fbd7)" style="fill: none; stroke: #b0b0b0; stroke-width: 0.8; stroke-linecap: square"/>
     </g>
     <g id="line2d_16">
      <g>
       <use xlink:href="#m6e07953a7d" x="57.6" y="219.098691" style="stroke: #000000; stroke-width: 0.8"/>
      </g>
     </g>
     <g id="text_9">
      <!-- 0 -->
      <g transform="translate(44.2375 222.89791) scale(0.1 -0.1)">
       <use xlink:href="#DejaVuSans-30"/>
      </g>
     </g>
    </g>
    <g id="ytick_3">
     <g id="line2d_17">
      <path d="M 57.6 167.999624 
L 414.72 167.999624 
" clip-path="url(#p0adeb4fbd7)" style="fill: none; stroke: #b0b0b0; stroke-width: 0.8; stroke-linecap: square"/>
     </g>
     <g id="line2d_18">
      <g>
       <use xlink:href="#m6e07953a7d" x="57.6" y="167.999624" style="stroke: #000000; stroke-width: 0.8"/>
      </g>
     </g>
     <g id="text_10">
      <!-- 200000 -->
      <g transform="translate(12.425 171.798843) scale(0.1 -0.1)">
       <use xlink:href="#DejaVuSans-32"/>
       <use xlink:href="#DejaVuSans-30" transform="translate(63.623047 0)"/>
       <use xlink:href="#DejaVuSans-30" transform="translate(127.246094 0)"/>
       <use xlink:href="#DejaVuSans-30" transform="translate(190.869141 0)"/>
       <use xlink:href="#DejaVuSans-30" transform="translate(254.492188 0)"/>
       <use xlink:href="#DejaVuSans-30" transform="translate(318.115234 0)"/>
      </g>
     </g>
    </g>
    <g id="ytick_4">
     <g id="line2d_19">
      <path d="M 57.6 116.900557 
L 414.72 116.900557 
" clip-path="url(#p0adeb4fbd7)" style="fill: none; stroke: #b0b0b0; stroke-width: 0.8; stroke-linecap: square"/>
     </g>
     <g id="line2d_20">
      <g>
       <use xlink:href="#m6e07953a7d" x="57.6" y="116.900557" style="stroke: #000000; stroke-width: 0.8"/>
      </g>
     </g>
     <g id="text_11">
      <!-- 400000 -->
      <g transform="translate(12.425 120.699776) scale(0.1 -0.1)">
       <use xlink:href="#DejaVuSans-34"/>
       <use xlink:href="#DejaVuSans-30" transform="translate(63.623047 0)"/>
       <use xlink:href="#DejaVuSans-30" transform="translate(127.246094 0)"/>
       <use xlink:href="#DejaVuSans-30" transform="translate(190.869141 0)"/>
       <use xlink:href="#DejaVuSans-30" transform="translate(254.492188 0)"/>
       <use xlink:href="#DejaVuSans-30" transform="translate(318.115234 0)"/>
      </g>
     </g>
    </g>
    <g id="ytick_5">
     <g id="line2d_21">
      <path d="M 57.6 65.80149 
L 414.72 65.80149 
" clip-path="url(#p0adeb4fbd7)" style="fill: none; stroke: #b0b0b0; stroke-width: 0.8; stroke-linecap: square"/>
     </g>
     <g id="line2d_22">
      <g>
       <use xlink:href="#m6e07953a7d" x="57.6" y="65.80149" style="stroke: #000000; stroke-width: 0.8"/>
      </g>
     </g>
     <g id="text_12">
      <!-- 600000 -->
      <g transform="translate(12.425 69.600709) scale(0.1 -0.1)">
       <defs>
        <path id="DejaVuSans-36" d="M 2113 2584 
Q 1688 2584 1439 2293 
Q 1191 2003 1191 1497 
Q 1191 994 1439 701 
Q 1688 409 2113 409 
Q 2538 409 2786 701 
Q 3034 994 3034 1497 
Q 3034 2003 2786 2293 
Q 2538 2584 2113 2584 
z
M 3366 4563 
L 3366 3988 
Q 3128 4100 2886 4159 
Q 2644 4219 2406 4219 
Q 1781 4219 1451 3797 
Q 1122 3375 1075 2522 
Q 1259 2794 1537 2939 
Q 1816 3084 2150 3084 
Q 2853 3084 3261 2657 
Q 3669 2231 3669 1497 
Q 3669 778 3244 343 
Q 2819 -91 2113 -91 
Q 1303 -91 875 529 
Q 447 1150 447 2328 
Q 447 3434 972 4092 
Q 1497 4750 2381 4750 
Q 2619 4750 2861 4703 
Q 3103 4656 3366 4563 
z
" transform="scale(0.015625)"/>
       </defs>
       <use xlink:href="#DejaVuSans-36"/>
       <use xlink:href="#DejaVuSans-30" transform="translate(63.623047 0)"/>
       <use xlink:href="#DejaVuSans-30" transform="translate(127.246094 0)"/>
       <use xlink:href="#DejaVuSans-30" transform="translate(190.869141 0)"/>
       <use xlink:href="#DejaVuSans-30" transform="translate(254.492188 0)"/>
       <use xlink:href="#DejaVuSans-30" transform="translate(318.115234 0)"/>
      </g>
     </g>
    </g>
    <g id="text_13">
     <!-- Fitness -->
     <g transform="translate(-2.034375 191.845187) rotate(-90) scale(0.1 -0.1)">
      <defs>
       <path id="DejaVuSans-46" d="M 628 4666 
L 3309 4666 
L 3309 4134 
L 1259 4134 
L 1259 2759 
L 3109 2759 
L 3109 2228 
L 1259 2228 
L 1259 0 
L 628 0 
L 628 4666 
z
" transform="scale(0.015625)"/>
      </defs>
      <use xlink:href="#DejaVuSans-46"/>
      <use xlink:href="#DejaVuSans-69" transform="translate(50.269531 0)"/>
      <use xlink:href="#DejaVuSans-74" transform="translate(78.052734 0)"/>
      <use xlink:href="#DejaVuSans-6e" transform="translate(117.261719 0)"/>
      <use xlink:href="#DejaVuSans-65" transform="translate(180.640625 0)"/>
      <use xlink:href="#DejaVuSans-73" transform="translate(242.164062 0)"/>
      <use xlink:href="#DejaVuSans-73" transform="translate(294.263672 0)"/>
     </g>
    </g>
   </g>
   <g id="line2d_23">
    <path d="M 73.832727 206.715803 
L 74.483338 207.436484 
L 75.133948 203.772294 
L 75.784558 212.209223 
L 76.435169 207.189962 
L 77.085779 205.752172 
L 77.736389 201.677023 
L 78.386999 204.224585 
L 79.03761 208.008811 
L 79.68822 214.254435 
L 80.33883 204.457131 
L 80.989441 205.182655 
L 81.640051 209.459994 
L 82.290661 206.94311 
L 82.941272 201.949833 
L 83.591882 203.392493 
L 84.242492 199.232032 
L 84.893103 206.03189 
L 85.543713 202.665364 
L 86.194323 200.988605 
L 86.844934 200.440036 
L 87.495544 202.748786 
L 88.146154 201.46636 
L 88.796764 202.720114 
L 89.447375 198.531776 
L 90.097985 200.789804 
L 90.748595 196.404477 
L 91.399206 197.882254 
L 92.049816 198.99064 
L 92.700426 198.469379 
L 93.351037 200.651383 
L 94.001647 197.520132 
L 94.652257 199.971026 
L 95.302868 191.830069 
L 95.953478 190.885895 
L 96.604088 194.745403 
L 97.254698 196.423386 
L 97.905309 195.626896 
L 98.555919 202.690276 
L 99.206529 195.497294 
L 99.85714 196.473744 
L 100.50775 201.320457 
L 101.15836 203.132297 
L 101.808971 200.729485 
L 102.459581 195.65059 
L 103.110191 198.716282 
L 103.760802 193.96257 
L 104.411412 191.3069 
L 105.062022 193.341481 
L 105.712633 203.106116 
L 106.363243 198.253697 
L 107.013853 190.965933 
L 107.664463 193.084424 
L 108.315074 201.390438 
L 110.917515 189.761532 
L 111.568125 203.400299 
L 112.869346 194.965035 
L 113.519956 197.445733 
L 114.170567 190.919257 
L 114.821177 194.374609 
L 115.471787 193.114009 
L 116.773008 196.535748 
L 117.423618 197.198102 
L 118.074228 198.851406 
L 118.724839 195.620604 
L 119.375449 198.40356 
L 120.026059 195.751629 
L 120.67667 196.218422 
L 121.32728 198.47215 
L 121.97789 199.785781 
L 122.628501 200.004193 
L 123.279111 194.232927 
L 123.929721 194.209931 
L 124.580332 196.465081 
L 125.230942 191.709782 
L 125.881552 194.358881 
L 126.532163 195.78364 
L 127.182773 192.359186 
L 127.833383 193.109952 
L 128.483993 194.296863 
L 129.134604 192.066901 
L 129.785214 193.883911 
L 130.435824 192.988168 
L 131.086435 191.841 
L 131.737045 193.055782 
L 132.387655 190.618048 
L 133.038266 192.905182 
L 133.688876 192.865125 
L 134.339486 191.735434 
L 134.990097 192.73732 
L 135.640707 194.525887 
L 136.291317 193.800474 
L 136.941927 193.775451 
L 137.592538 193.316936 
L 138.243148 197.182755 
L 138.893758 191.239239 
L 139.544369 191.220075 
L 140.194979 192.566142 
L 140.845589 192.443068 
L 141.4962 190.812254 
L 142.14681 190.267349 
L 142.79742 195.181432 
L 143.448031 192.008916 
L 144.098641 194.07051 
L 144.749251 193.372632 
L 145.399862 194.682933 
L 146.050472 195.54194 
L 146.701082 194.907871 
L 147.351692 194.794229 
L 148.002303 195.828998 
L 148.652913 194.259318 
L 149.303523 194.32335 
L 149.954134 194.924103 
L 150.604744 199.273011 
L 151.255354 199.345157 
L 151.905965 198.871335 
L 152.556575 196.126217 
L 153.207185 201.495706 
L 153.857796 198.538963 
L 154.508406 197.240268 
L 155.159016 199.227924 
L 155.809627 194.218028 
L 156.460237 194.376848 
L 157.110847 198.477552 
L 157.761457 196.196756 
L 158.412068 197.157458 
L 159.062678 193.76525 
L 159.713288 198.673807 
L 160.363899 191.703183 
L 161.014509 190.815356 
L 161.665119 193.089401 
L 162.31573 191.535905 
L 162.96634 194.502533 
L 163.61695 196.900049 
L 164.267561 196.70634 
L 164.918171 195.341969 
L 165.568781 196.734086 
L 166.219392 195.485117 
L 166.870002 199.023695 
L 167.520612 196.400015 
L 168.171222 197.113807 
L 168.821833 194.369171 
L 169.472443 195.185755 
L 170.123053 194.801558 
L 170.773664 196.561554 
L 171.424274 195.866398 
L 172.074884 195.43963 
L 172.725495 195.457563 
L 173.376105 192.172073 
L 174.677326 199.710286 
L 175.327936 194.0647 
L 175.978546 199.637121 
L 176.629156 197.383522 
L 177.279767 193.835757 
L 177.930377 194.261726 
L 178.580987 198.833725 
L 179.231598 196.173015 
L 179.882208 194.471732 
L 180.532818 194.706461 
L 181.183429 197.541518 
L 181.834039 197.378428 
L 182.484649 198.814742 
L 183.13526 196.115285 
L 183.78587 192.216941 
L 184.43648 193.231882 
L 185.087091 191.929921 
L 185.737701 192.200429 
L 186.388311 196.135504 
L 187.038921 190.213093 
L 187.689532 189.799886 
L 188.340142 193.332186 
L 188.990752 189.351753 
L 189.641363 194.11788 
L 190.291973 194.418621 
L 190.942583 195.330315 
L 191.593194 193.048617 
L 192.243804 195.186589 
L 192.894414 195.262785 
L 193.545025 195.181257 
L 194.195635 193.699311 
L 194.846245 204.497634 
L 195.496856 197.225583 
L 196.147466 197.043831 
L 196.798076 195.895765 
L 197.448686 195.319945 
L 198.099297 197.581571 
L 198.749907 195.599829 
L 199.400517 194.866784 
L 200.051128 197.894857 
L 200.701738 198.631104 
L 201.352348 198.101582 
L 202.002959 198.701757 
L 202.653569 194.872773 
L 203.95479 197.914146 
L 204.6054 197.089554 
L 205.25601 197.659837 
L 205.906621 198.052598 
L 206.557231 195.043053 
L 207.207841 194.506594 
L 207.858451 196.031038 
L 209.159672 192.356345 
L 209.810282 189.773155 
L 211.111503 193.203668 
L 211.762113 194.675317 
L 212.412724 189.218021 
L 213.063334 192.827492 
L 213.713944 191.294996 
L 214.364555 193.828219 
L 215.015165 193.996511 
L 215.665775 200.240248 
L 216.316385 194.143039 
L 216.966996 194.514689 
L 217.617606 190.533132 
L 218.268216 192.061772 
L 218.918827 195.736541 
L 219.569437 193.886325 
L 220.220047 195.186433 
L 220.870658 197.856168 
L 221.521268 190.950726 
L 222.171878 192.216628 
L 222.822489 193.041167 
L 223.473099 190.950739 
L 224.123709 192.067792 
L 224.77432 191.386132 
L 225.42493 192.233035 
L 226.07554 190.665844 
L 226.72615 194.740944 
L 227.376761 193.263672 
L 228.677981 187.885136 
L 229.328592 186.899938 
L 229.979202 189.400048 
L 230.629812 187.045371 
L 231.280423 188.632671 
L 231.931033 190.802274 
L 232.581643 195.890761 
L 233.232254 193.002295 
L 233.882864 193.59733 
L 234.533474 194.0161 
L 235.184085 194.63631 
L 235.834695 193.847617 
L 236.485305 199.088697 
L 237.135915 193.451149 
L 237.786526 193.780569 
L 238.437136 193.375111 
L 239.087746 190.978152 
L 239.738357 192.978809 
L 240.388967 194.441615 
L 241.039577 189.961004 
L 241.690188 193.898641 
L 242.340798 189.254126 
L 242.991408 195.640962 
L 243.642019 190.272922 
L 244.292629 191.347911 
L 244.943239 190.474014 
L 245.59385 190.708467 
L 247.54568 190.315954 
L 248.196291 193.269426 
L 248.846901 193.7874 
L 249.497511 195.376728 
L 250.148122 194.700684 
L 250.798732 191.61231 
L 251.449342 190.014002 
L 252.099953 194.099756 
L 252.750563 195.870901 
L 253.401173 194.677991 
L 254.051784 193.184806 
L 255.353004 196.865989 
L 256.003615 193.485396 
L 256.654225 196.798848 
L 257.304835 194.726989 
L 257.955445 195.405894 
L 258.606056 198.821178 
L 259.256666 197.214974 
L 259.907276 194.783022 
L 260.557887 192.814648 
L 261.208497 193.162776 
L 261.859107 189.79624 
L 262.509718 192.510564 
L 263.160328 191.472714 
L 263.810938 189.86875 
L 264.461549 190.433305 
L 265.112159 190.055213 
L 265.762769 191.365603 
L 266.413379 190.00372 
L 267.06399 192.811868 
L 267.7146 194.442334 
L 268.36521 197.106511 
L 269.015821 194.870622 
L 269.666431 193.982 
L 270.317041 194.865892 
L 270.967652 191.207905 
L 271.618262 194.210173 
L 272.268872 193.342181 
L 272.919483 195.476488 
L 273.570093 194.307986 
L 274.220703 193.746604 
L 274.871314 195.915141 
L 275.521924 199.467794 
L 276.172534 200.632436 
L 276.823144 194.53625 
L 277.473755 192.849619 
L 278.124365 192.790745 
L 279.425586 189.339405 
L 280.076196 195.091782 
L 280.726806 189.57494 
L 281.377417 188.040948 
L 282.028027 187.291997 
L 282.678637 191.015849 
L 283.329248 191.140749 
L 283.979858 189.79123 
L 284.630468 189.62344 
L 285.281079 191.540665 
L 286.582299 190.864466 
L 287.232909 193.054973 
L 287.88352 189.951238 
L 288.53413 190.484329 
L 289.18474 195.01053 
L 289.835351 191.819085 
L 290.485961 192.733326 
L 291.136571 190.457265 
L 291.787182 189.911614 
L 292.437792 190.457031 
L 293.088402 188.885265 
L 293.739013 191.059582 
L 294.389623 191.376713 
L 295.040233 189.072831 
L 295.690844 191.39029 
L 296.341454 191.206733 
L 296.992064 191.724704 
L 297.642674 191.624664 
L 298.293285 191.148354 
L 298.943895 194.757971 
L 299.594505 192.940145 
L 300.245116 189.203457 
L 300.895726 193.321137 
L 301.546336 195.263105 
L 302.196947 199.632983 
L 302.847557 194.277116 
L 303.498167 198.21584 
L 304.148778 194.104103 
L 304.799388 193.757116 
L 305.449998 195.471057 
L 306.100608 195.038582 
L 306.751219 192.939566 
L 307.401829 193.474749 
L 308.052439 195.101598 
L 308.70305 193.478433 
L 309.35366 195.834515 
L 310.00427 196.983144 
L 310.654881 195.348202 
L 311.305491 195.810958 
L 311.956101 194.904907 
L 312.606712 198.067446 
L 313.257322 194.184337 
L 313.907932 193.688552 
L 314.558543 191.96086 
L 315.209153 196.027197 
L 315.859763 192.403584 
L 316.510373 195.385223 
L 317.160984 196.538985 
L 317.811594 197.950348 
L 318.462204 195.417566 
L 319.112815 196.083866 
L 320.414035 200.177051 
L 321.064646 200.207099 
L 321.715256 196.969962 
L 322.365866 202.287161 
L 323.016477 198.702167 
L 323.667087 198.555586 
L 324.317697 195.84308 
L 324.968308 196.099987 
L 325.618918 189.610747 
L 326.269528 191.414958 
L 326.920138 195.827086 
L 327.570749 198.590712 
L 328.221359 197.850982 
L 328.871969 198.669802 
L 329.52258 195.971819 
L 330.17319 190.975943 
L 330.8238 196.414385 
L 331.474411 196.669989 
L 332.125021 193.970107 
L 332.775631 190.791658 
L 333.426242 192.236482 
L 334.076852 195.769912 
L 334.727462 191.957835 
L 335.378073 192.817895 
L 336.028683 191.621795 
L 336.679293 189.27176 
L 337.329903 194.844583 
L 337.980514 195.533444 
L 338.631124 191.386603 
L 339.281734 197.009527 
L 339.932345 197.319148 
L 340.582955 197.25501 
L 341.233565 191.799507 
L 341.884176 196.030507 
L 342.534786 192.0597 
L 343.185396 192.664876 
L 343.836007 191.73336 
L 344.486617 189.509018 
L 345.137227 193.836418 
L 345.787837 188.594183 
L 346.438448 193.808424 
L 347.089058 195.019538 
L 347.739668 194.443651 
L 348.390279 188.158338 
L 349.040889 188.806378 
L 349.691499 193.563624 
L 350.34211 190.376794 
L 350.99272 191.119711 
L 351.64333 195.621998 
L 352.293941 191.950377 
L 352.944551 193.504362 
L 353.595161 195.640812 
L 354.245772 198.328923 
L 354.896382 195.408111 
L 355.546992 200.714967 
L 356.197602 192.985425 
L 356.848213 195.726104 
L 357.498823 192.778854 
L 358.149433 196.736046 
L 358.800044 193.175649 
L 359.450654 191.830657 
L 360.101264 195.579756 
L 360.751875 189.571184 
L 361.402485 190.432671 
L 362.053095 190.167869 
L 362.703706 186.876256 
L 363.354316 186.382591 
L 364.004926 188.990401 
L 364.655537 187.178338 
L 365.306147 191.532814 
L 365.956757 188.615541 
L 366.607367 189.239095 
L 367.257978 191.177613 
L 367.908588 189.733312 
L 368.559198 190.267595 
L 369.209809 188.375969 
L 369.860419 189.710683 
L 370.511029 192.017482 
L 371.16164 189.344005 
L 371.81225 190.307247 
L 372.46286 190.277444 
L 373.113471 188.851717 
L 373.764081 189.042625 
L 374.414691 192.553349 
L 375.065302 189.403916 
L 375.715912 188.416656 
L 376.366522 186.955154 
L 377.017132 188.505411 
L 377.667743 191.0735 
L 378.318353 189.649137 
L 378.968963 191.105414 
L 379.619574 190.177088 
L 380.270184 194.3508 
L 380.920794 190.894656 
L 381.571405 191.889483 
L 382.222015 194.683767 
L 382.872625 195.726231 
L 383.523236 193.273211 
L 384.173846 195.233177 
L 384.824456 191.019459 
L 385.475066 195.370559 
L 386.125677 194.469224 
L 387.426897 198.830326 
L 388.077508 191.762641 
L 388.728118 191.09413 
L 389.378728 192.548326 
L 390.029339 192.993078 
L 390.679949 190.006414 
L 391.330559 192.689617 
L 391.98117 189.913714 
L 392.63178 190.601887 
L 393.28239 188.457674 
L 393.933001 188.340312 
L 394.583611 185.523209 
L 395.234221 189.220387 
L 395.884831 187.606241 
L 397.186052 189.929915 
L 397.836662 186.959442 
L 398.487273 186.732108 
L 398.487273 186.732108 
" clip-path="url(#p0adeb4fbd7)" style="fill: none; stroke: #0000ff; stroke-width: 1.5; stroke-linecap: square"/>
   </g>
   <g id="line2d_24">
    <path d="M 73.832727 221.32584 
L 74.483338 239.439614 
L 75.133948 231.485206 
L 75.784558 251.478348 
L 76.435169 242.498233 
L 77.085779 240.103959 
L 77.736389 231.330529 
L 78.386999 238.087432 
L 79.03761 247.954346 
L 79.68822 264.493045 
L 80.33883 236.800993 
L 81.640051 264.737383 
L 82.290661 259.384177 
L 82.941272 237.038143 
L 83.591882 244.317105 
L 84.242492 237.815181 
L 84.893103 250.332634 
L 85.543713 252.617157 
L 86.194323 238.311031 
L 86.844934 236.683479 
L 87.495544 256.079751 
L 88.146154 246.568038 
L 88.796764 257.513101 
L 89.447375 236.959299 
L 90.097985 251.034486 
L 90.748595 228.455639 
L 91.399206 239.417014 
L 92.049816 241.451914 
L 92.700426 241.794802 
L 93.351037 248.212231 
L 94.001647 235.761914 
L 94.652257 246.91196 
L 95.302868 226.02152 
L 95.953478 221.156287 
L 96.604088 232.843781 
L 97.254698 238.013169 
L 97.905309 239.644932 
L 98.555919 246.419202 
L 99.206529 225.778817 
L 100.50775 242.043094 
L 101.15836 256.6194 
L 101.808971 244.133153 
L 102.459581 235.039821 
L 103.110191 234.786087 
L 103.760802 222.452279 
L 104.411412 219.55149 
L 105.062022 227.846202 
L 105.712633 295.488 
L 106.363243 237.144684 
L 107.013853 222.656139 
L 107.664463 229.991906 
L 108.315074 255.418413 
L 108.965684 240.838389 
L 109.616294 232.165524 
L 110.266905 226.348077 
L 110.917515 222.698401 
L 111.568125 265.111457 
L 112.218736 243.788664 
L 112.869346 228.797124 
L 113.519956 235.694988 
L 114.170567 219.646741 
L 114.821177 235.815731 
L 115.471787 224.281947 
L 116.122398 225.139427 
L 116.773008 231.904964 
L 117.423618 232.062236 
L 118.074228 243.578067 
L 118.724839 239.979132 
L 119.375449 242.647259 
L 120.026059 234.335429 
L 120.67667 235.121999 
L 121.32728 242.29613 
L 121.97789 244.285096 
L 122.628501 237.869278 
L 123.279111 221.625994 
L 124.580332 236.775599 
L 125.230942 221.455441 
L 125.881552 226.468922 
L 126.532163 237.240864 
L 127.182773 224.358471 
L 128.483993 232.022836 
L 129.134604 224.320859 
L 129.785214 229.926444 
L 130.435824 222.521295 
L 131.086435 232.516533 
L 131.737045 236.837953 
L 132.387655 224.794101 
L 133.038266 229.419218 
L 133.688876 231.374507 
L 134.339486 227.706895 
L 134.990097 231.361634 
L 135.640707 231.568237 
L 136.291317 233.652897 
L 136.941927 228.693045 
L 138.243148 234.467138 
L 139.544369 222.49529 
L 140.194979 236.861452 
L 140.845589 234.650165 
L 141.4962 221.527589 
L 142.14681 224.094794 
L 142.79742 237.408095 
L 143.448031 221.011479 
L 144.098641 236.186259 
L 144.749251 226.238303 
L 145.399862 223.254839 
L 146.050472 231.734698 
L 146.701082 226.314136 
L 147.351692 229.122956 
L 148.002303 238.466809 
L 148.652913 234.043051 
L 149.303523 231.276249 
L 149.954134 238.324712 
L 150.604744 237.733302 
L 151.255354 240.631104 
L 151.905965 239.901084 
L 152.556575 231.387487 
L 153.207185 247.313405 
L 153.857796 233.45837 
L 154.508406 235.12842 
L 155.159016 248.138718 
L 155.809627 230.417983 
L 156.460237 231.014869 
L 157.110847 240.167009 
L 157.761457 232.450493 
L 158.412068 240.510645 
L 159.062678 229.340538 
L 159.713288 250.437045 
L 160.363899 227.71646 
L 161.014509 222.462032 
L 161.665119 230.968802 
L 162.31573 226.141508 
L 162.96634 229.747011 
L 163.61695 243.24848 
L 164.267561 236.353332 
L 164.918171 231.404568 
L 165.568781 227.932785 
L 166.219392 231.269543 
L 166.870002 250.153081 
L 167.520612 237.753957 
L 168.171222 235.09467 
L 168.821833 231.92739 
L 169.472443 233.318178 
L 170.123053 231.106453 
L 170.773664 231.963169 
L 171.424274 238.857489 
L 172.074884 237.752201 
L 172.725495 236.36055 
L 173.376105 226.252405 
L 174.677326 240.565837 
L 175.327936 232.310815 
L 175.978546 245.931837 
L 176.629156 236.043572 
L 177.279767 228.952419 
L 178.580987 245.025116 
L 179.231598 235.438243 
L 179.882208 232.182767 
L 180.532818 230.465528 
L 181.183429 243.852538 
L 181.834039 245.250215 
L 182.484649 250.465873 
L 183.13526 234.078683 
L 183.78587 230.31559 
L 184.43648 230.365052 
L 185.087091 232.402885 
L 186.388311 239.275689 
L 187.038921 227.369649 
L 187.689532 225.00275 
L 188.340142 239.467173 
L 188.990752 221.582724 
L 189.641363 232.865188 
L 190.291973 236.612452 
L 191.593194 228.067544 
L 192.243804 232.357235 
L 192.894414 240.493514 
L 193.545025 238.982925 
L 194.195635 226.064391 
L 194.846245 256.675261 
L 195.496856 231.583814 
L 196.147466 236.800276 
L 196.798076 230.537595 
L 197.448686 229.449521 
L 198.099297 238.532957 
L 198.749907 226.866399 
L 199.400517 229.429363 
L 200.051128 242.156346 
L 200.701738 240.631232 
L 201.352348 234.990168 
L 202.002959 239.180204 
L 202.653569 224.911241 
L 203.304179 230.054117 
L 203.95479 236.621331 
L 204.6054 241.281831 
L 205.25601 241.28574 
L 205.906621 243.276538 
L 206.557231 232.303345 
L 207.207841 233.042379 
L 207.858451 239.793324 
L 208.509062 231.347605 
L 209.159672 228.13616 
L 209.810282 222.683351 
L 210.460893 229.761514 
L 211.111503 231.313659 
L 211.762113 230.776242 
L 212.412724 223.063382 
L 213.063334 230.0182 
L 213.713944 232.738816 
L 214.364555 234.287073 
L 215.015165 231.010475 
L 215.665775 254.664594 
L 216.316385 231.079242 
L 216.966996 237.828245 
L 217.617606 219.508536 
L 218.918827 233.35213 
L 219.569437 225.694954 
L 220.220047 232.176293 
L 220.870658 241.123339 
L 221.521268 222.240681 
L 222.171878 231.125228 
L 222.822489 235.102412 
L 223.473099 218.996768 
L 224.123709 235.084833 
L 224.77432 227.07719 
L 225.42493 233.969402 
L 226.07554 225.345339 
L 226.72615 244.617456 
L 227.376761 240.836172 
L 228.027371 220.903147 
L 228.677981 215.99132 
L 229.328592 213.545505 
L 229.979202 217.346381 
L 230.629812 214.959466 
L 231.280423 217.431542 
L 232.581643 232.912382 
L 233.232254 223.933668 
L 233.882864 225.515884 
L 234.533474 233.494669 
L 235.184085 227.522026 
L 235.834695 231.567273 
L 236.485305 249.93272 
L 237.135915 231.287266 
L 237.786526 238.791635 
L 238.437136 228.283091 
L 239.087746 225.459413 
L 239.738357 241.103386 
L 240.388967 224.908582 
L 241.039577 220.107439 
L 241.690188 227.750521 
L 242.340798 216.538669 
L 242.991408 249.087181 
L 243.642019 224.308617 
L 244.292629 220.526302 
L 244.943239 224.516854 
L 245.59385 227.355951 
L 246.24446 225.372219 
L 246.89507 221.394623 
L 247.54568 221.210944 
L 248.196291 227.466372 
L 248.846901 230.519047 
L 249.497511 229.565024 
L 250.148122 226.237203 
L 250.798732 220.988007 
L 251.449342 220.567899 
L 252.099953 231.645432 
L 253.401173 239.337228 
L 254.051784 228.610342 
L 254.702394 227.193838 
L 255.353004 232.421352 
L 256.003615 229.311643 
L 256.654225 238.781647 
L 257.304835 230.520122 
L 257.955445 231.121719 
L 258.606056 243.342215 
L 259.256666 233.574003 
L 259.907276 228.227005 
L 260.557887 227.830051 
L 261.208497 227.835614 
L 261.859107 221.135859 
L 262.509718 235.093221 
L 263.160328 222.790199 
L 263.810938 225.941065 
L 264.461549 222.639142 
L 265.112159 228.175886 
L 265.762769 222.33075 
L 266.413379 219.786433 
L 267.06399 226.024644 
L 268.36521 246.410268 
L 269.015821 236.216108 
L 269.666431 240.620981 
L 270.317041 237.402545 
L 270.967652 223.527386 
L 271.618262 234.206832 
L 272.268872 234.58822 
L 272.919483 232.667184 
L 273.570093 227.406662 
L 274.220703 229.265296 
L 274.871314 228.587631 
L 275.521924 239.741749 
L 276.172534 245.482203 
L 276.823144 228.298246 
L 277.473755 225.990917 
L 278.124365 235.202226 
L 278.774975 223.462564 
L 279.425586 222.800619 
L 280.076196 237.524223 
L 280.726806 217.174095 
L 281.377417 215.536065 
L 282.028027 213.438356 
L 282.678637 228.884937 
L 283.329248 219.900646 
L 283.979858 216.390735 
L 284.630468 217.902209 
L 285.281079 227.239045 
L 285.931689 220.374101 
L 286.582299 221.955252 
L 287.232909 228.772145 
L 287.88352 221.648949 
L 288.53413 223.037228 
L 289.18474 229.36531 
L 289.835351 224.03325 
L 290.485961 234.957328 
L 291.136571 218.836931 
L 291.787182 220.29847 
L 292.437792 220.973176 
L 293.088402 221.90332 
L 293.739013 219.250372 
L 294.389623 222.432775 
L 295.040233 219.088252 
L 295.690844 218.861621 
L 296.341454 225.345318 
L 296.992064 230.329627 
L 297.642674 224.289533 
L 298.293285 220.0979 
L 298.943895 231.470474 
L 299.594505 226.710509 
L 300.245116 217.465785 
L 302.196947 243.40019 
L 302.847557 224.608457 
L 303.498167 237.825312 
L 304.148778 224.975967 
L 304.799388 226.509604 
L 305.449998 238.570258 
L 306.100608 234.63501 
L 306.751219 228.009757 
L 307.401829 226.293831 
L 308.052439 235.107236 
L 308.70305 229.28334 
L 309.35366 234.900027 
L 310.00427 248.210669 
L 310.654881 239.413929 
L 311.305491 235.150236 
L 311.956101 246.654418 
L 312.606712 241.329489 
L 313.257322 227.058465 
L 313.907932 228.082692 
L 314.558543 227.43307 
L 315.209153 234.58089 
L 315.859763 229.367222 
L 316.510373 237.861003 
L 317.160984 236.451397 
L 317.811594 233.173449 
L 318.462204 232.228469 
L 319.112815 233.449098 
L 319.763425 244.661167 
L 320.414035 241.186019 
L 321.064646 240.985244 
L 321.715256 241.500495 
L 322.365866 259.361327 
L 323.016477 243.666186 
L 323.667087 244.76263 
L 324.317697 238.205034 
L 324.968308 238.316109 
L 325.618918 220.876373 
L 326.269528 227.822062 
L 326.920138 238.863281 
L 327.570749 239.708046 
L 328.221359 242.956495 
L 328.871969 243.228792 
L 330.17319 222.619442 
L 330.8238 242.432716 
L 331.474411 238.926195 
L 332.125021 237.445327 
L 332.775631 226.302426 
L 333.426242 229.474085 
L 334.076852 236.488034 
L 334.727462 231.214075 
L 335.378073 234.185532 
L 336.028683 233.632523 
L 336.679293 225.074487 
L 337.329903 242.514792 
L 337.980514 239.737451 
L 338.631124 227.230392 
L 339.281734 238.513448 
L 339.932345 235.226623 
L 340.582955 233.459168 
L 341.233565 228.597628 
L 341.884176 235.974329 
L 342.534786 225.594751 
L 343.185396 231.55325 
L 343.836007 224.505932 
L 344.486617 223.829438 
L 345.137227 240.890855 
L 345.787837 220.508689 
L 346.438448 231.786407 
L 347.089058 226.921993 
L 347.739668 236.804829 
L 348.390279 217.19238 
L 349.040889 218.047656 
L 349.691499 233.473691 
L 350.34211 223.51833 
L 350.99272 221.866541 
L 351.64333 237.745898 
L 352.293941 229.707137 
L 352.944551 225.152733 
L 353.595161 233.498606 
L 354.245772 243.902374 
L 354.896382 232.152089 
L 355.546992 255.017072 
L 356.197602 226.594384 
L 356.848213 233.017563 
L 357.498823 228.534217 
L 358.149433 231.987378 
L 359.450654 227.895563 
L 360.101264 235.965186 
L 360.751875 225.665588 
L 361.402485 218.514722 
L 362.053095 227.84094 
L 362.703706 218.90168 
L 363.354316 219.370477 
L 364.004926 221.732936 
L 364.655537 218.477515 
L 365.306147 231.321546 
L 365.956757 219.621934 
L 366.607367 227.065672 
L 367.257978 222.154346 
L 367.908588 227.70718 
L 368.559198 220.779012 
L 369.209809 227.688218 
L 369.860419 221.924259 
L 370.511029 226.104378 
L 371.16164 217.087719 
L 371.81225 226.242585 
L 372.46286 223.606607 
L 373.113471 217.075082 
L 373.764081 220.306792 
L 374.414691 241.205753 
L 375.065302 232.025377 
L 375.715912 215.974391 
L 376.366522 217.287357 
L 377.017132 215.884068 
L 377.667743 227.391787 
L 378.318353 220.939998 
L 378.968963 227.055541 
L 379.619574 218.945664 
L 380.270184 230.244233 
L 380.920794 222.759349 
L 381.571405 225.213396 
L 382.222015 228.40631 
L 382.872625 234.656289 
L 383.523236 228.813467 
L 384.173846 234.067683 
L 384.824456 226.80838 
L 385.475066 234.496145 
L 386.125677 228.884387 
L 386.776287 234.114505 
L 387.426897 245.374785 
L 388.077508 222.242107 
L 388.728118 225.859109 
L 389.378728 227.088174 
L 390.029339 232.45705 
L 390.679949 219.985798 
L 391.330559 228.04778 
L 391.98117 220.90304 
L 392.63178 228.399989 
L 393.28239 224.734873 
L 393.933001 219.054622 
L 394.583611 217.627834 
L 395.234221 227.426157 
L 395.884831 215.644741 
L 396.535442 216.158745 
L 397.186052 219.07754 
L 397.836662 219.889379 
L 398.487273 213.523716 
L 398.487273 213.523716 
" clip-path="url(#p0adeb4fbd7)" style="fill: none; stroke-dasharray: 9.6,2.4,1.5,2.4; stroke-dashoffset: 0; stroke: #008000; stroke-width: 1.5"/>
   </g>
   <g id="line2d_25">
    <path d="M 73.832727 192.105765 
L 74.483338 175.433353 
L 75.133948 176.059381 
L 75.784558 172.940098 
L 76.435169 171.881691 
L 77.085779 171.400385 
L 77.736389 172.023517 
L 78.386999 170.361737 
L 79.03761 168.063275 
L 79.68822 164.015824 
L 80.33883 172.11327 
L 80.989441 158.62599 
L 81.640051 154.182606 
L 82.290661 154.502043 
L 82.941272 166.861524 
L 83.591882 162.467881 
L 84.242492 160.648882 
L 84.893103 161.731147 
L 85.543713 152.713572 
L 86.194323 163.666179 
L 86.844934 164.196592 
L 87.495544 149.417821 
L 88.146154 156.364681 
L 88.796764 147.927127 
L 89.447375 160.104253 
L 90.097985 150.545123 
L 90.748595 164.353315 
L 91.399206 156.347494 
L 92.049816 156.529367 
L 92.700426 155.143956 
L 93.351037 153.090534 
L 94.001647 159.278351 
L 94.652257 153.030092 
L 95.302868 157.638618 
L 95.953478 160.615504 
L 96.604088 156.647024 
L 97.254698 154.833603 
L 97.905309 151.608859 
L 99.206529 165.21577 
L 99.85714 158.631075 
L 100.50775 160.597819 
L 101.15836 149.645193 
L 101.808971 157.325818 
L 102.459581 156.26136 
L 103.110191 162.646477 
L 103.760802 165.472861 
L 104.411412 163.062309 
L 105.062022 158.836761 
L 105.712633 110.724233 
L 106.363243 159.36271 
L 107.013853 159.275726 
L 107.664463 156.176943 
L 108.315074 147.362462 
L 108.965684 156.307035 
L 109.616294 160.050303 
L 110.266905 159.040425 
L 110.917515 156.824662 
L 111.568125 141.689142 
L 112.218736 153.969979 
L 112.869346 161.132945 
L 113.519956 159.196479 
L 114.170567 162.191772 
L 114.821177 152.933488 
L 115.471787 161.946071 
L 116.122398 164.530685 
L 116.773008 161.166533 
L 117.423618 162.333968 
L 118.074228 154.124745 
L 118.724839 151.262076 
L 120.026059 157.167828 
L 120.67667 157.314846 
L 121.32728 154.64817 
L 121.97789 155.286467 
L 122.628501 162.139108 
L 123.279111 166.83986 
L 123.929721 158.815336 
L 124.580332 156.154563 
L 125.230942 161.964124 
L 125.881552 162.248841 
L 126.532163 154.326417 
L 127.182773 160.359902 
L 127.833383 157.775139 
L 128.483993 156.57089 
L 129.134604 159.812943 
L 129.785214 157.841377 
L 130.435824 163.455042 
L 131.086435 151.165466 
L 131.737045 149.273612 
L 132.387655 156.441995 
L 133.038266 156.391145 
L 133.688876 154.355743 
L 134.339486 155.763973 
L 134.990097 154.113006 
L 135.640707 157.483536 
L 136.291317 153.94805 
L 136.941927 158.857856 
L 137.592538 154.951682 
L 138.243148 159.898373 
L 138.893758 153.968445 
L 139.544369 159.94486 
L 140.194979 148.270832 
L 140.845589 150.235971 
L 141.4962 160.09692 
L 142.79742 152.954769 
L 143.448031 163.006353 
L 144.098641 151.95476 
L 144.749251 160.506962 
L 145.399862 166.111026 
L 146.050472 159.349181 
L 146.701082 163.501605 
L 147.351692 160.465503 
L 148.002303 153.191187 
L 148.652913 154.475586 
L 149.303523 157.37045 
L 149.954134 151.523493 
L 150.604744 160.81272 
L 151.255354 158.05921 
L 151.905965 157.841586 
L 152.556575 160.864948 
L 153.207185 155.678007 
L 153.857796 163.619555 
L 154.508406 159.352116 
L 155.159016 150.317129 
L 155.809627 158.018072 
L 156.460237 157.738826 
L 157.110847 156.788095 
L 157.761457 159.943018 
L 158.412068 153.804271 
L 159.062678 158.189963 
L 159.713288 146.910568 
L 160.363899 155.689906 
L 161.014509 159.16868 
L 161.665119 155.210001 
L 162.31573 156.930303 
L 162.96634 159.258054 
L 163.61695 150.551618 
L 164.267561 157.059348 
L 164.918171 159.27937 
L 165.568781 165.535387 
L 166.219392 159.700691 
L 166.870002 147.894309 
L 167.520612 155.046074 
L 168.171222 159.132944 
L 168.821833 156.810951 
L 169.472443 157.053332 
L 170.123053 158.496662 
L 170.773664 161.159939 
L 171.424274 152.875306 
L 172.074884 153.127059 
L 172.725495 154.554576 
L 173.376105 158.09174 
L 174.026715 158.110453 
L 174.677326 158.854736 
L 175.327936 155.818585 
L 175.978546 153.342405 
L 176.629156 158.723472 
L 177.279767 158.719095 
L 177.930377 151.380622 
L 178.580987 152.642334 
L 179.231598 156.907786 
L 179.882208 156.760696 
L 180.532818 158.947394 
L 181.183429 151.230499 
L 181.834039 149.506642 
L 182.484649 147.163611 
L 183.13526 158.151888 
L 183.78587 154.118292 
L 184.43648 156.098713 
L 185.087091 151.456957 
L 185.737701 148.266586 
L 186.388311 152.995318 
L 187.038921 153.056538 
L 187.689532 154.597022 
L 188.340142 147.197199 
L 188.990752 157.120782 
L 189.641363 155.370573 
L 190.291973 152.224789 
L 190.942583 158.185949 
L 191.593194 158.029691 
L 192.243804 158.015943 
L 192.894414 150.032055 
L 193.545025 151.379589 
L 194.195635 161.334231 
L 194.846245 152.320006 
L 195.496856 162.867353 
L 196.147466 157.287386 
L 196.798076 161.253936 
L 197.448686 161.19037 
L 198.099297 156.630185 
L 198.749907 164.333258 
L 199.400517 160.304206 
L 200.051128 153.633368 
L 200.701738 156.630977 
L 201.352348 161.212996 
L 202.002959 158.22331 
L 202.653569 164.834304 
L 203.304179 162.484534 
L 203.95479 159.206962 
L 204.6054 152.897276 
L 205.25601 154.033934 
L 205.906621 152.828657 
L 206.557231 157.782762 
L 207.207841 155.970809 
L 207.858451 152.268751 
L 208.509062 157.060816 
L 209.159672 156.57653 
L 209.810282 156.86296 
L 210.460893 153.273157 
L 211.111503 155.093677 
L 211.762113 158.574392 
L 212.412724 155.37266 
L 213.063334 155.636784 
L 213.713944 149.851177 
L 215.015165 156.982547 
L 215.665775 145.815902 
L 216.316385 157.206836 
L 216.966996 151.201134 
L 217.617606 161.557728 
L 218.268216 157.122313 
L 218.918827 158.120951 
L 219.569437 162.077695 
L 220.870658 154.588997 
L 221.521268 159.660771 
L 222.171878 153.308028 
L 222.822489 150.979923 
L 223.473099 162.90471 
L 224.123709 149.050751 
L 224.77432 155.695074 
L 225.42493 150.496668 
L 226.07554 155.986349 
L 226.72615 144.864432 
L 227.376761 145.691173 
L 228.027371 159.796574 
L 228.677981 159.778953 
L 229.328592 160.254372 
L 229.979202 161.453714 
L 230.629812 159.131276 
L 231.280423 159.8338 
L 231.931033 156.098532 
L 233.232254 162.070922 
L 233.882864 161.678776 
L 234.533474 154.537532 
L 235.184085 161.750594 
L 235.834695 156.127961 
L 236.485305 148.244674 
L 237.135915 155.615031 
L 237.786526 148.769503 
L 238.437136 158.467131 
L 239.087746 156.496892 
L 239.738357 144.854231 
L 240.388967 163.974648 
L 241.039577 159.814569 
L 241.690188 160.046761 
L 242.340798 161.969582 
L 242.991408 142.194743 
L 243.642019 156.237226 
L 244.292629 162.169519 
L 244.943239 156.431174 
L 245.59385 154.060983 
L 246.24446 155.743257 
L 246.89507 159.262021 
L 247.54568 159.420964 
L 248.196291 159.07248 
L 248.846901 157.055754 
L 249.497511 161.188432 
L 250.148122 163.164166 
L 250.798732 162.236612 
L 252.099953 156.55408 
L 252.750563 156.264815 
L 253.401173 150.018755 
L 254.051784 157.759269 
L 254.702394 162.65272 
L 255.353004 161.310625 
L 256.003615 157.659149 
L 256.654225 154.816049 
L 257.304835 158.933855 
L 257.955445 159.69007 
L 258.606056 154.30014 
L 259.256666 160.855945 
L 259.907276 161.33904 
L 260.557887 157.799246 
L 261.208497 158.489939 
L 261.859107 158.456621 
L 262.509718 149.927908 
L 263.160328 160.155228 
L 263.810938 153.796435 
L 264.461549 158.227468 
L 265.112159 151.93454 
L 265.762769 160.400456 
L 266.413379 160.221007 
L 267.06399 159.599092 
L 267.7146 151.793997 
L 268.36521 147.802753 
L 269.015821 153.525136 
L 269.666431 147.34302 
L 270.317041 152.32924 
L 270.967652 158.888423 
L 271.618262 154.213513 
L 272.268872 152.096143 
L 272.919483 158.285792 
L 273.570093 161.20931 
L 274.220703 158.227911 
L 274.871314 163.242651 
L 276.172534 155.782669 
L 276.823144 160.774254 
L 277.473755 159.708321 
L 278.124365 150.379263 
L 278.774975 158.828865 
L 280.076196 152.659342 
L 280.726806 161.975785 
L 281.377417 160.545831 
L 282.028027 161.145637 
L 282.678637 153.146761 
L 283.329248 162.380852 
L 283.979858 163.191725 
L 284.630468 161.344672 
L 285.281079 155.842285 
L 285.931689 161.988843 
L 287.232909 157.3378 
L 287.88352 158.253528 
L 288.53413 157.93143 
L 289.18474 160.655749 
L 289.835351 159.60492 
L 290.485961 150.509325 
L 291.136571 162.077599 
L 291.787182 159.524757 
L 292.437792 159.940885 
L 293.088402 155.867211 
L 293.739013 162.868792 
L 294.389623 160.320652 
L 295.040233 159.057411 
L 295.690844 163.91896 
L 296.341454 157.068147 
L 296.992064 153.119781 
L 297.642674 158.959795 
L 298.293285 162.198807 
L 298.943895 158.045467 
L 299.594505 159.169781 
L 300.245116 160.941128 
L 300.895726 160.061077 
L 301.546336 155.760231 
L 302.196947 155.865775 
L 302.847557 163.945775 
L 303.498167 158.606368 
L 304.148778 163.23224 
L 304.799388 161.004628 
L 305.449998 152.371857 
L 306.100608 155.442155 
L 307.401829 160.655667 
L 308.052439 155.095961 
L 308.70305 157.673526 
L 309.35366 156.769003 
L 310.00427 145.755619 
L 311.305491 156.47168 
L 311.956101 143.155396 
L 312.606712 154.805403 
L 313.257322 161.310208 
L 313.907932 159.294413 
L 314.558543 156.48865 
L 315.209153 157.473504 
L 315.859763 155.439945 
L 316.510373 152.909444 
L 317.160984 156.626573 
L 317.811594 162.727247 
L 318.462204 158.606662 
L 319.112815 158.718634 
L 319.763425 151.842394 
L 320.414035 159.168083 
L 321.064646 159.428954 
L 322.365866 145.212996 
L 323.016477 153.738148 
L 323.667087 152.348542 
L 324.317697 153.481126 
L 324.968308 153.883864 
L 325.618918 158.34512 
L 326.269528 155.007855 
L 326.920138 152.79089 
L 327.570749 157.473378 
L 328.221359 152.745469 
L 328.871969 154.110812 
L 329.52258 158.98925 
L 330.17319 159.332445 
L 330.8238 150.396054 
L 331.474411 154.413783 
L 332.125021 150.494887 
L 332.775631 155.280889 
L 333.426242 154.99888 
L 334.076852 155.051791 
L 334.727462 152.701594 
L 335.378073 151.450258 
L 336.028683 149.611068 
L 336.679293 153.469033 
L 337.329903 147.174373 
L 338.631124 155.542814 
L 339.281734 155.505606 
L 339.932345 159.411673 
L 340.582955 161.050851 
L 341.233565 155.001387 
L 341.884176 156.086685 
L 342.534786 158.524649 
L 343.185396 153.776503 
L 343.836007 158.960788 
L 344.486617 155.188598 
L 345.137227 146.781982 
L 345.787837 156.679677 
L 346.438448 155.83044 
L 347.089058 163.117083 
L 347.739668 152.082472 
L 348.390279 159.124295 
L 349.040889 159.5651 
L 349.691499 153.653557 
L 350.99272 160.372881 
L 351.64333 153.498098 
L 352.293941 154.193618 
L 352.944551 161.855991 
L 353.595161 157.783018 
L 354.245772 152.755473 
L 354.896382 158.664132 
L 355.546992 146.412862 
L 356.197602 159.376466 
L 356.848213 158.434644 
L 357.498823 157.023491 
L 358.149433 161.484714 
L 358.800044 156.432932 
L 360.101264 155.194326 
L 360.751875 153.476781 
L 361.402485 162.350621 
L 362.053095 152.494798 
L 362.703706 154.850831 
L 363.354316 153.394705 
L 364.004926 156.247866 
L 364.655537 155.87916 
L 365.306147 151.744083 
L 365.956757 157.609148 
L 366.607367 151.412519 
L 367.257978 160.20088 
L 367.908588 151.759444 
L 368.559198 159.756177 
L 369.209809 149.06372 
L 369.860419 157.497107 
L 370.511029 157.930587 
L 371.16164 161.600292 
L 371.81225 154.371908 
L 372.46286 156.948281 
L 373.113471 160.628353 
L 373.764081 157.778458 
L 374.414691 143.900946 
L 375.065302 146.782454 
L 375.715912 160.858921 
L 376.366522 156.622951 
L 377.017132 161.126755 
L 377.667743 154.755213 
L 378.318353 158.358276 
L 378.968963 155.155288 
L 379.619574 161.408512 
L 380.270184 158.457367 
L 380.920794 159.029962 
L 381.571405 158.565569 
L 382.222015 160.961225 
L 382.872625 156.796174 
L 383.523236 157.732956 
L 384.824456 155.230537 
L 385.475066 156.244974 
L 386.125677 160.054061 
L 386.776287 159.147784 
L 387.426897 152.285867 
L 388.077508 161.283174 
L 388.728118 156.329152 
L 389.378728 158.008477 
L 390.029339 153.529106 
L 390.679949 160.027031 
L 391.330559 157.331454 
L 391.98117 158.924388 
L 392.63178 152.803786 
L 393.28239 152.180476 
L 393.933001 157.626001 
L 394.583611 153.418584 
L 395.234221 151.014617 
L 395.884831 159.567741 
L 396.535442 161.384034 
L 397.186052 160.782289 
L 397.836662 154.029505 
L 398.487273 159.940501 
L 398.487273 159.940501 
" clip-path="url(#p0adeb4fbd7)" style="fill: none; stroke-dasharray: 9.6,2.4,1.5,2.4; stroke-dashoffset: 0; stroke: #008000; stroke-width: 1.5"/>
   </g>
   <g id="line2d_26">
    <path d="M 73.832727 164.11942 
L 74.483338 160.876701 
L 75.133948 156.740392 
L 77.736389 156.740392 
L 78.386999 146.141537 
L 79.68822 82.816065 
L 80.989441 82.816065 
L 81.640051 75.583087 
L 84.242492 75.583087 
L 84.893103 70.621275 
L 89.447375 70.621275 
L 90.097985 58.403561 
L 296.341454 58.403561 
L 296.992064 54.09219 
L 351.64333 54.09219 
L 352.293941 53.568 
L 398.487273 53.568 
L 398.487273 53.568 
" clip-path="url(#p0adeb4fbd7)" style="fill: none; stroke: #ff0000; stroke-width: 1.5; stroke-linecap: square"/>
   </g>
   <g id="patch_3">
    <path d="M 57.6 307.584 
L 57.6 41.472 
" style="fill: none; stroke: #000000; stroke-width: 0.8; stroke-linejoin: miter; stroke-linecap: square"/>
   </g>
   <g id="patch_4">
    <path d="M 414.72 307.584 
L 414.72 41.472 
" style="fill: none; stroke: #000000; stroke-width: 0.8; stroke-linejoin: miter; stroke-linecap: square"/>
   </g>
   <g id="patch_5">
    <path d="M 57.6 307.584 
L 414.72 307.584 
" style="fill: none; stroke: #000000; stroke-width: 0.8; stroke-linejoin: miter; stroke-linecap: square"/>
   </g>
   <g id="patch_6">
    <path d="M 57.6 41.472 
L 414.72 41.472 
" style="fill: none; stroke: #000000; stroke-width: 0.8; stroke-linejoin: miter; stroke-linecap: square"/>
   </g>
   <g id="text_14">
    <!-- Population's average and best fitness -->
    <g transform="translate(123.529687 35.472) scale(0.12 -0.12)">
     <defs>
      <path id="DejaVuSans-50" d="M 1259 4147 
L 1259 2394 
L 2053 2394 
Q 2494 2394 2734 2622 
Q 2975 2850 2975 3272 
Q 2975 3691 2734 3919 
Q 2494 4147 2053 4147 
L 1259 4147 
z
M 628 4666 
L 2053 4666 
Q 2838 4666 3239 4311 
Q 3641 3956 3641 3272 
Q 3641 2581 3239 2228 
Q 2838 1875 2053 1875 
L 1259 1875 
L 1259 0 
L 628 0 
L 628 4666 
z
" transform="scale(0.015625)"/>
      <path id="DejaVuSans-70" d="M 1159 525 
L 1159 -1331 
L 581 -1331 
L 581 3500 
L 1159 3500 
L 1159 2969 
Q 1341 3281 1617 3432 
Q 1894 3584 2278 3584 
Q 2916 3584 3314 3078 
Q 3713 2572 3713 1747 
Q 3713 922 3314 415 
Q 2916 -91 2278 -91 
Q 1894 -91 1617 61 
Q 1341 213 1159 525 
z
M 3116 1747 
Q 3116 2381 2855 2742 
Q 2594 3103 2138 3103 
Q 1681 3103 1420 2742 
Q 1159 2381 1159 1747 
Q 1159 1113 1420 752 
Q 1681 391 2138 391 
Q 2594 391 2855 752 
Q 3116 1113 3116 1747 
z
" transform="scale(0.015625)"/>
      <path id="DejaVuSans-75" d="M 544 1381 
L 544 3500 
L 1119 3500 
L 1119 1403 
Q 1119 906 1312 657 
Q 1506 409 1894 409 
Q 2359 409 2629 706 
Q 2900 1003 2900 1516 
L 2900 3500 
L 3475 3500 
L 3475 0 
L 2900 0 
L 2900 538 
Q 2691 219 2414 64 
Q 2138 -91 1772 -91 
Q 1169 -91 856 284 
Q 544 659 544 1381 
z
M 1991 3584 
L 1991 3584 
z
" transform="scale(0.015625)"/>
      <path id="DejaVuSans-6c" d="M 603 4863 
L 1178 4863 
L 1178 0 
L 603 0 
L 603 4863 
z
" transform="scale(0.015625)"/>
      <path id="DejaVuSans-27" d="M 1147 4666 
L 1147 2931 
L 616 2931 
L 616 4666 
L 1147 4666 
z
" transform="scale(0.015625)"/>
      <path id="DejaVuSans-20" transform="scale(0.015625)"/>
      <path id="DejaVuSans-76" d="M 191 3500 
L 800 3500 
L 1894 563 
L 2988 3500 
L 3597 3500 
L 2284 0 
L 1503 0 
L 191 3500 
z
" transform="scale(0.015625)"/>
      <path id="DejaVuSans-67" d="M 2906 1791 
Q 2906 2416 2648 2759 
Q 2391 3103 1925 3103 
Q 1463 3103 1205 2759 
Q 947 2416 947 1791 
Q 947 1169 1205 825 
Q 1463 481 1925 481 
Q 2391 481 2648 825 
Q 2906 1169 2906 1791 
z
M 3481 434 
Q 3481 -459 3084 -895 
Q 2688 -1331 1869 -1331 
Q 1566 -1331 1297 -1286 
Q 1028 -1241 775 -1147 
L 775 -588 
Q 1028 -725 1275 -790 
Q 1522 -856 1778 -856 
Q 2344 -856 2625 -561 
Q 2906 -266 2906 331 
L 2906 616 
Q 2728 306 2450 153 
Q 2172 0 1784 0 
Q 1141 0 747 490 
Q 353 981 353 1791 
Q 353 2603 747 3093 
Q 1141 3584 1784 3584 
Q 2172 3584 2450 3431 
Q 2728 3278 2906 2969 
L 2906 3500 
L 3481 3500 
L 3481 434 
z
" transform="scale(0.015625)"/>
      <path id="DejaVuSans-64" d="M 2906 2969 
L 2906 4863 
L 3481 4863 
L 3481 0 
L 2906 0 
L 2906 525 
Q 2725 213 2448 61 
Q 2172 -91 1784 -91 
Q 1150 -91 751 415 
Q 353 922 353 1747 
Q 353 2572 751 3078 
Q 1150 3584 1784 3584 
Q 2172 3584 2448 3432 
Q 2725 3281 2906 2969 
z
M 947 1747 
Q 947 1113 1208 752 
Q 1469 391 1925 391 
Q 2381 391 2643 752 
Q 2906 1113 2906 1747 
Q 2906 2381 2643 2742 
Q 2381 3103 1925 3103 
Q 1469 3103 1208 2742 
Q 947 2381 947 1747 
z
" transform="scale(0.015625)"/>
      <path id="DejaVuSans-62" d="M 3116 1747 
Q 3116 2381 2855 2742 
Q 2594 3103 2138 3103 
Q 1681 3103 1420 2742 
Q 1159 2381 1159 1747 
Q 1159 1113 1420 752 
Q 1681 391 2138 391 
Q 2594 391 2855 752 
Q 3116 1113 3116 1747 
z
M 1159 2969 
Q 1341 3281 1617 3432 
Q 1894 3584 2278 3584 
Q 2916 3584 3314 3078 
Q 3713 2572 3713 1747 
Q 3713 922 3314 415 
Q 2916 -91 2278 -91 
Q 1894 -91 1617 61 
Q 1341 213 1159 525 
L 1159 0 
L 581 0 
L 581 4863 
L 1159 4863 
L 1159 2969 
z
" transform="scale(0.015625)"/>
      <path id="DejaVuSans-66" d="M 2375 4863 
L 2375 4384 
L 1825 4384 
Q 1516 4384 1395 4259 
Q 1275 4134 1275 3809 
L 1275 3500 
L 2222 3500 
L 2222 3053 
L 1275 3053 
L 1275 0 
L 697 0 
L 697 3053 
L 147 3053 
L 147 3500 
L 697 3500 
L 697 3744 
Q 697 4328 969 4595 
Q 1241 4863 1831 4863 
L 2375 4863 
z
" transform="scale(0.015625)"/>
     </defs>
     <use xlink:href="#DejaVuSans-50"/>
     <use xlink:href="#DejaVuSans-6f" transform="translate(56.677734 0)"/>
     <use xlink:href="#DejaVuSans-70" transform="translate(117.859375 0)"/>
     <use xlink:href="#DejaVuSans-75" transform="translate(181.335938 0)"/>
     <use xlink:href="#DejaVuSans-6c" transform="translate(244.714844 0)"/>
     <use xlink:href="#DejaVuSans-61" transform="translate(272.498047 0)"/>
     <use xlink:href="#DejaVuSans-74" transform="translate(333.777344 0)"/>
     <use xlink:href="#DejaVuSans-69" transform="translate(372.986328 0)"/>
     <use xlink:href="#DejaVuSans-6f" transform="translate(400.769531 0)"/>
     <use xlink:href="#DejaVuSans-6e" transform="translate(461.951172 0)"/>
     <use xlink:href="#DejaVuSans-27" transform="translate(525.330078 0)"/>
     <use xlink:href="#DejaVuSans-73" transform="translate(552.820312 0)"/>
     <use xlink:href="#DejaVuSans-20" transform="translate(604.919922 0)"/>
     <use xlink:href="#DejaVuSans-61" transform="translate(636.707031 0)"/>
     <use xlink:href="#DejaVuSans-76" transform="translate(697.986328 0)"/>
     <use xlink:href="#DejaVuSans-65" transform="translate(757.166016 0)"/>
     <use xlink:href="#DejaVuSans-72" transform="translate(818.689453 0)"/>
     <use xlink:href="#DejaVuSans-61" transform="translate(859.802734 0)"/>
     <use xlink:href="#DejaVuSans-67" transform="translate(921.082031 0)"/>
     <use xlink:href="#DejaVuSans-65" transform="translate(984.558594 0)"/>
     <use xlink:href="#DejaVuSans-20" transform="translate(1046.082031 0)"/>
     <use xlink:href="#DejaVuSans-61" transform="translate(1077.869141 0)"/>
     <use xlink:href="#DejaVuSans-6e" transform="translate(1139.148438 0)"/>
     <use xlink:href="#DejaVuSans-64" transform="translate(1202.527344 0)"/>
     <use xlink:href="#DejaVuSans-20" transform="translate(1266.003906 0)"/>
     <use xlink:href="#DejaVuSans-62" transform="translate(1297.791016 0)"/>
     <use xlink:href="#DejaVuSans-65" transform="translate(1361.267578 0)"/>
     <use xlink:href="#DejaVuSans-73" transform="translate(1422.791016 0)"/>
     <use xlink:href="#DejaVuSans-74" transform="translate(1474.890625 0)"/>
     <use xlink:href="#DejaVuSans-20" transform="translate(1514.099609 0)"/>
     <use xlink:href="#DejaVuSans-66" transform="translate(1545.886719 0)"/>
     <use xlink:href="#DejaVuSans-69" transform="translate(1581.091797 0)"/>
     <use xlink:href="#DejaVuSans-74" transform="translate(1608.875 0)"/>
     <use xlink:href="#DejaVuSans-6e" transform="translate(1648.083984 0)"/>
     <use xlink:href="#DejaVuSans-65" transform="translate(1711.462891 0)"/>
     <use xlink:href="#DejaVuSans-73" transform="translate(1772.986328 0)"/>
     <use xlink:href="#DejaVuSans-73" transform="translate(1825.085938 0)"/>
    </g>
   </g>
   <g id="legend_1">
    <g id="patch_7">
     <path d="M 334.779375 302.584 
L 407.72 302.584 
Q 409.72 302.584 409.72 300.584 
L 409.72 242.8715 
Q 409.72 240.8715 407.72 240.8715 
L 334.779375 240.8715 
Q 332.779375 240.8715 332.779375 242.8715 
L 332.779375 300.584 
Q 332.779375 302.584 334.779375 302.584 
z
" style="fill: #ffffff; opacity: 0.8; stroke: #cccccc; stroke-linejoin: miter"/>
    </g>
    <g id="line2d_27">
     <path d="M 336.779375 248.969937 
L 346.779375 248.969937 
L 356.779375 248.969937 
" style="fill: none; stroke: #0000ff; stroke-width: 1.5; stroke-linecap: square"/>
    </g>
    <g id="text_15">
     <!-- average -->
     <g transform="translate(364.779375 252.469937) scale(0.1 -0.1)">
      <use xlink:href="#DejaVuSans-61"/>
      <use xlink:href="#DejaVuSans-76" transform="translate(61.279297 0)"/>
      <use xlink:href="#DejaVuSans-65" transform="translate(120.458984 0)"/>
      <use xlink:href="#DejaVuSans-72" transform="translate(181.982422 0)"/>
      <use xlink:href="#DejaVuSans-61" transform="translate(223.095703 0)"/>
      <use xlink:href="#DejaVuSans-67" transform="translate(284.375 0)"/>
      <use xlink:href="#DejaVuSans-65" transform="translate(347.851562 0)"/>
     </g>
    </g>
    <g id="line2d_28">
     <path d="M 336.779375 263.648062 
L 346.779375 263.648062 
L 356.779375 263.648062 
" style="fill: none; stroke-dasharray: 9.6,2.4,1.5,2.4; stroke-dashoffset: 0; stroke: #008000; stroke-width: 1.5"/>
    </g>
    <g id="text_16">
     <!-- -1 sd -->
     <g transform="translate(364.779375 267.148062) scale(0.1 -0.1)">
      <defs>
       <path id="DejaVuSans-2d" d="M 313 2009 
L 1997 2009 
L 1997 1497 
L 313 1497 
L 313 2009 
z
" transform="scale(0.015625)"/>
      </defs>
      <use xlink:href="#DejaVuSans-2d"/>
      <use xlink:href="#DejaVuSans-31" transform="translate(36.083984 0)"/>
      <use xlink:href="#DejaVuSans-20" transform="translate(99.707031 0)"/>
      <use xlink:href="#DejaVuSans-73" transform="translate(131.494141 0)"/>
      <use xlink:href="#DejaVuSans-64" transform="translate(183.59375 0)"/>
     </g>
    </g>
    <g id="line2d_29">
     <path d="M 336.779375 278.326187 
L 346.779375 278.326187 
L 356.779375 278.326187 
" style="fill: none; stroke-dasharray: 9.6,2.4,1.5,2.4; stroke-dashoffset: 0; stroke: #008000; stroke-width: 1.5"/>
    </g>
    <g id="text_17">
     <!-- +1 sd -->
     <g transform="translate(364.779375 281.826187) scale(0.1 -0.1)">
      <defs>
       <path id="DejaVuSans-2b" d="M 2944 4013 
L 2944 2272 
L 4684 2272 
L 4684 1741 
L 2944 1741 
L 2944 0 
L 2419 0 
L 2419 1741 
L 678 1741 
L 678 2272 
L 2419 2272 
L 2419 4013 
L 2944 4013 
z
" transform="scale(0.015625)"/>
      </defs>
      <use xlink:href="#DejaVuSans-2b"/>
      <use xlink:href="#DejaVuSans-31" transform="translate(83.789062 0)"/>
      <use xlink:href="#DejaVuSans-20" transform="translate(147.412109 0)"/>
      <use xlink:href="#DejaVuSans-73" transform="translate(179.199219 0)"/>
      <use xlink:href="#DejaVuSans-64" transform="translate(231.298828 0)"/>
     </g>
    </g>
    <g id="line2d_30">
     <path d="M 336.779375 293.004312 
L 346.779375 293.004312 
L 356.779375 293.004312 
" style="fill: none; stroke: #ff0000; stroke-width: 1.5; stroke-linecap: square"/>
    </g>
    <g id="text_18">
     <!-- best -->
     <g transform="translate(364.779375 296.504312) scale(0.1 -0.1)">
      <use xlink:href="#DejaVuSans-62"/>
      <use xlink:href="#DejaVuSans-65" transform="translate(63.476562 0)"/>
      <use xlink:href="#DejaVuSans-73" transform="translate(125 0)"/>
      <use xlink:href="#DejaVuSans-74" transform="translate(177.099609 0)"/>
     </g>
    </g>
   </g>
  </g>
 </g>
 <defs>
  <clipPath id="p0adeb4fbd7">
   <rect x="57.6" y="41.472" width="357.12" height="266.112"/>
  </clipPath>
 </defs>
</svg>
