<?xml version="1.0" encoding="UTF-8" standalone="no"?>
<!DOCTYPE svg PUBLIC "-//W3C//DTD SVG 1.1//EN"
 "http://www.w3.org/Graphics/SVG/1.1/DTD/svg11.dtd">
<!-- Generated by graphviz version 12.2.1 (20241206.2353)
 -->
<!-- Pages: 1 -->
<svg width="644pt" height="91pt"
 viewBox="0.00 0.00 643.75 91.49" xmlns="http://www.w3.org/2000/svg" xmlns:xlink="http://www.w3.org/1999/xlink">
<g id="graph0" class="graph" transform="scale(1 1) rotate(0) translate(4 87.49)">
<polygon fill="white" stroke="none" points="-4,4 -4,-87.49 639.75,-87.49 639.75,4 -4,4"/>
<!-- &#45;1 -->
<g id="node1" class="node">
<title>&#45;1</title>
<polygon fill="lightgray" stroke="black" points="153.5,-83.49 130,-83.49 130,-64.99 153.5,-64.99 153.5,-83.49"/>
<text text-anchor="middle" x="141.75" y="-70.94" font-family="Times New Roman,serif" font-size="9.00">&#45;1</text>
</g>
<!-- 0 -->
<g id="node16" class="node">
<title>0</title>
<ellipse fill="lightblue" stroke="black" cx="306.75" cy="-14.5" rx="14.5" ry="14.5"/>
<text text-anchor="middle" x="306.75" y="-11.2" font-family="Times New Roman,serif" font-size="9.00">0</text>
</g>
<!-- &#45;1&#45;&gt;0 -->
<g id="edge1" class="edge">
<title>&#45;1&#45;&gt;0</title>
<path fill="none" stroke="red" stroke-width="0.41" stroke-dasharray="1,5" d="M153.71,-68.44C156.66,-67.29 159.81,-66.07 162.75,-64.99 204.99,-49.44 254.73,-32.69 283.32,-23.2"/>
<polygon fill="red" stroke="red" stroke-width="0.41" points="284.19,-26.6 292.59,-20.14 281.99,-19.95 284.19,-26.6"/>
</g>
<!-- 1 -->
<g id="node17" class="node">
<title>1</title>
<ellipse fill="lightblue" stroke="black" cx="353.75" cy="-14.5" rx="14.5" ry="14.5"/>
<text text-anchor="middle" x="353.75" y="-11.2" font-family="Times New Roman,serif" font-size="9.00">1</text>
</g>
<!-- &#45;1&#45;&gt;1 -->
<g id="edge2" class="edge">
<title>&#45;1&#45;&gt;1</title>
<path fill="none" stroke="green" stroke-width="0.41" d="M153.63,-68.19C156.57,-67.04 159.75,-65.9 162.75,-64.99 235.43,-43.04 258.75,-55.9 329.75,-28.99 330.65,-28.65 331.56,-28.28 332.46,-27.89"/>
<polygon fill="green" stroke="green" stroke-width="0.41" points="334.01,-31.03 341.33,-23.38 330.83,-24.79 334.01,-31.03"/>
</g>
<!-- &#45;2 -->
<g id="node2" class="node">
<title>&#45;2</title>
<polygon fill="lightgray" stroke="black" points="195.5,-83.49 172,-83.49 172,-64.99 195.5,-64.99 195.5,-83.49"/>
<text text-anchor="middle" x="183.75" y="-70.94" font-family="Times New Roman,serif" font-size="9.00">&#45;2</text>
</g>
<!-- &#45;2&#45;&gt;0 -->
<g id="edge3" class="edge">
<title>&#45;2&#45;&gt;0</title>
<path fill="none" stroke="green" stroke-width="0.12" d="M195.99,-67.49C216.68,-57.78 258.84,-37.99 284.76,-25.82"/>
<polygon fill="green" stroke="green" stroke-width="0.12" points="286.09,-29.06 293.65,-21.65 283.11,-22.73 286.09,-29.06"/>
</g>
<!-- &#45;2&#45;&gt;1 -->
<g id="edge4" class="edge">
<title>&#45;2&#45;&gt;1</title>
<path fill="none" stroke="green" stroke-width="0.13" d="M195.67,-68.33C198.62,-67.18 201.78,-66 204.75,-64.99 259.49,-46.4 276.42,-51.31 329.75,-28.99 330.76,-28.57 331.79,-28.11 332.82,-27.63"/>
<polygon fill="green" stroke="green" stroke-width="0.13" points="334.4,-30.75 341.64,-23.02 331.15,-24.55 334.4,-30.75"/>
</g>
<!-- &#45;3 -->
<g id="node3" class="node">
<title>&#45;3</title>
<polygon fill="lightgray" stroke="black" points="237.5,-83.49 214,-83.49 214,-64.99 237.5,-64.99 237.5,-83.49"/>
<text text-anchor="middle" x="225.75" y="-70.94" font-family="Times New Roman,serif" font-size="9.00">&#45;3</text>
</g>
<!-- &#45;3&#45;&gt;0 -->
<g id="edge5" class="edge">
<title>&#45;3&#45;&gt;0</title>
<path fill="none" stroke="green" stroke-width="0.18" d="M237.7,-64.72C250.65,-55.49 271.52,-40.61 286.93,-29.62"/>
<polygon fill="green" stroke="green" stroke-width="0.18" points="288.95,-32.49 295.06,-23.83 284.88,-26.79 288.95,-32.49"/>
</g>
<!-- &#45;3&#45;&gt;1 -->
<g id="edge6" class="edge">
<title>&#45;3&#45;&gt;1</title>
<path fill="none" stroke="red" stroke-width="0.12" d="M237.73,-68.34C261.23,-58.69 312.58,-37.44 329.75,-28.99 330.74,-28.51 331.74,-28 332.75,-27.48"/>
<polygon fill="red" stroke="red" stroke-width="0.12" points="334.4,-30.56 341.51,-22.71 331.06,-24.41 334.4,-30.56"/>
</g>
<!-- &#45;4 -->
<g id="node4" class="node">
<title>&#45;4</title>
<polygon fill="lightgray" stroke="black" points="279.5,-83.49 256,-83.49 256,-64.99 279.5,-64.99 279.5,-83.49"/>
<text text-anchor="middle" x="267.75" y="-70.94" font-family="Times New Roman,serif" font-size="9.00">&#45;4</text>
</g>
<!-- &#45;4&#45;&gt;0 -->
<g id="edge7" class="edge">
<title>&#45;4&#45;&gt;0</title>
<path fill="none" stroke="red" stroke-width="0.39" d="M273.5,-64.72C278.7,-57.03 286.53,-45.43 293.29,-35.42"/>
<polygon fill="red" stroke="red" stroke-width="0.39" points="296.06,-37.57 298.76,-27.33 290.26,-33.65 296.06,-37.57"/>
</g>
<!-- &#45;4&#45;&gt;1 -->
<g id="edge8" class="edge">
<title>&#45;4&#45;&gt;1</title>
<path fill="none" stroke="red" stroke-width="0.55" d="M279.71,-65.21C293.44,-55.99 316.23,-40.69 332.9,-29.5"/>
<polygon fill="red" stroke="red" stroke-width="0.55" points="334.85,-32.41 341.2,-23.92 330.94,-26.59 334.85,-32.41"/>
</g>
<!-- &#45;5 -->
<g id="node5" class="node">
<title>&#45;5</title>
<polygon fill="lightgray" stroke="black" points="65.5,-83.49 42,-83.49 42,-64.99 65.5,-64.99 65.5,-83.49"/>
<text text-anchor="middle" x="53.75" y="-70.94" font-family="Times New Roman,serif" font-size="9.00">&#45;5</text>
</g>
<!-- &#45;5&#45;&gt;0 -->
<g id="edge9" class="edge">
<title>&#45;5&#45;&gt;0</title>
<path fill="none" stroke="green" stroke-width="0.27" stroke-dasharray="1,5" d="M65.62,-68.19C68.57,-67.04 71.75,-65.89 74.75,-64.99 148.94,-42.67 239.38,-26.43 282.12,-19.38"/>
<polygon fill="green" stroke="green" stroke-width="0.27" points="282.44,-22.87 291.75,-17.82 281.32,-15.96 282.44,-22.87"/>
</g>
<!-- &#45;6 -->
<g id="node6" class="node">
<title>&#45;6</title>
<polygon fill="lightgray" stroke="black" points="321.5,-83.49 298,-83.49 298,-64.99 321.5,-64.99 321.5,-83.49"/>
<text text-anchor="middle" x="309.75" y="-70.94" font-family="Times New Roman,serif" font-size="9.00">&#45;6</text>
</g>
<!-- &#45;6&#45;&gt;0 -->
<g id="edge10" class="edge">
<title>&#45;6&#45;&gt;0</title>
<path fill="none" stroke="green" stroke-width="0.55" d="M309.31,-64.72C308.97,-58.19 308.48,-48.84 308.02,-40.03"/>
<polygon fill="green" stroke="green" stroke-width="0.55" points="311.53,-40.06 307.52,-30.25 304.54,-40.42 311.53,-40.06"/>
</g>
<!-- &#45;6&#45;&gt;1 -->
<g id="edge11" class="edge">
<title>&#45;6&#45;&gt;1</title>
<path fill="none" stroke="red" stroke-width="0.34" d="M316.24,-64.72C322.23,-56.86 331.34,-44.9 339.09,-34.74"/>
<polygon fill="red" stroke="red" stroke-width="0.34" points="341.84,-36.91 345.11,-26.83 336.27,-32.66 341.84,-36.91"/>
</g>
<!-- &#45;7 -->
<g id="node7" class="node">
<title>&#45;7</title>
<polygon fill="lightgray" stroke="black" points="363.5,-83.49 340,-83.49 340,-64.99 363.5,-64.99 363.5,-83.49"/>
<text text-anchor="middle" x="351.75" y="-70.94" font-family="Times New Roman,serif" font-size="9.00">&#45;7</text>
</g>
<!-- &#45;7&#45;&gt;0 -->
<g id="edge12" class="edge">
<title>&#45;7&#45;&gt;0</title>
<path fill="none" stroke="red" stroke-width="0.43" d="M345.11,-64.72C338.98,-56.86 329.66,-44.9 321.75,-34.74"/>
<polygon fill="red" stroke="red" stroke-width="0.43" points="324.57,-32.67 315.66,-26.93 319.05,-36.97 324.57,-32.67"/>
</g>
<!-- &#45;7&#45;&gt;1 -->
<g id="edge13" class="edge">
<title>&#45;7&#45;&gt;1</title>
<path fill="none" stroke="red" stroke-width="0.16" d="M352.05,-64.72C352.28,-58.05 352.61,-48.42 352.92,-39.45"/>
<polygon fill="red" stroke="red" stroke-width="0.16" points="356.41,-39.79 353.26,-29.68 349.41,-39.55 356.41,-39.79"/>
</g>
<!-- &#45;8 -->
<g id="node8" class="node">
<title>&#45;8</title>
<polygon fill="lightgray" stroke="black" points="405.5,-83.49 382,-83.49 382,-64.99 405.5,-64.99 405.5,-83.49"/>
<text text-anchor="middle" x="393.75" y="-70.94" font-family="Times New Roman,serif" font-size="9.00">&#45;8</text>
</g>
<!-- &#45;8&#45;&gt;0 -->
<g id="edge14" class="edge">
<title>&#45;8&#45;&gt;0</title>
<path fill="none" stroke="green" stroke-width="0.12" d="M381.65,-65.21C367.5,-55.82 343.85,-40.12 326.91,-28.87"/>
<polygon fill="green" stroke="green" stroke-width="0.12" points="329.16,-26.17 318.89,-23.56 325.29,-32 329.16,-26.17"/>
</g>
<!-- &#45;8&#45;&gt;1 -->
<g id="edge15" class="edge">
<title>&#45;8&#45;&gt;1</title>
<path fill="none" stroke="green" stroke-width="0.19" d="M387.85,-64.72C382.47,-56.96 374.32,-45.2 367.34,-35.12"/>
<polygon fill="green" stroke="green" stroke-width="0.19" points="370.34,-33.3 361.77,-27.08 364.59,-37.29 370.34,-33.3"/>
</g>
<!-- &#45;9 -->
<g id="node9" class="node">
<title>&#45;9</title>
<polygon fill="lightgray" stroke="black" points="23.5,-83.49 0,-83.49 0,-64.99 23.5,-64.99 23.5,-83.49"/>
<text text-anchor="middle" x="11.75" y="-70.94" font-family="Times New Roman,serif" font-size="9.00">&#45;9</text>
</g>
<!-- &#45;9&#45;&gt;0 -->
<g id="edge16" class="edge">
<title>&#45;9&#45;&gt;0</title>
<path fill="none" stroke="red" stroke-width="0.29" d="M23.6,-68.12C26.55,-66.97 29.74,-65.85 32.75,-64.99 122.92,-39.4 233.68,-24.18 282.12,-18.3"/>
<polygon fill="red" stroke="red" stroke-width="0.29" points="282.31,-21.8 291.83,-17.15 281.49,-14.85 282.31,-21.8"/>
</g>
<!-- &#45;10 -->
<g id="node10" class="node">
<title>&#45;10</title>
<polygon fill="lightgray" stroke="black" points="451.75,-83.49 423.75,-83.49 423.75,-64.99 451.75,-64.99 451.75,-83.49"/>
<text text-anchor="middle" x="437.75" y="-70.94" font-family="Times New Roman,serif" font-size="9.00">&#45;10</text>
</g>
<!-- &#45;10&#45;&gt;0 -->
<g id="edge17" class="edge">
<title>&#45;10&#45;&gt;0</title>
<path fill="none" stroke="red" stroke-width="0.16" stroke-dasharray="1,5" d="M423.32,-67.91C402.53,-60.08 363.12,-44.71 330.75,-28.99 329.76,-28.51 328.76,-28.01 327.75,-27.49"/>
<polygon fill="red" stroke="red" stroke-width="0.16" points="329.48,-24.45 319.02,-22.76 326.14,-30.6 329.48,-24.45"/>
</g>
<!-- &#45;10&#45;&gt;1 -->
<g id="edge18" class="edge">
<title>&#45;10&#45;&gt;1</title>
<path fill="none" stroke="red" stroke-width="0.34" stroke-dasharray="1,5" d="M425.36,-64.72C411.85,-55.44 390.04,-40.44 374.03,-29.44"/>
<polygon fill="red" stroke="red" stroke-width="0.34" points="376.02,-26.56 365.8,-23.78 372.06,-32.33 376.02,-26.56"/>
</g>
<!-- &#45;11 -->
<g id="node11" class="node">
<title>&#45;11</title>
<polygon fill="lightgray" stroke="black" points="497.75,-83.49 469.75,-83.49 469.75,-64.99 497.75,-64.99 497.75,-83.49"/>
<text text-anchor="middle" x="483.75" y="-70.94" font-family="Times New Roman,serif" font-size="9.00">&#45;11</text>
</g>
<!-- &#45;11&#45;&gt;0 -->
<g id="edge19" class="edge">
<title>&#45;11&#45;&gt;0</title>
<path fill="none" stroke="green" stroke-width="0.35" d="M469.7,-68.01C466.75,-66.97 463.66,-65.92 460.75,-64.99 403.61,-46.86 386.17,-51.85 330.75,-28.99 329.73,-28.57 328.71,-28.12 327.68,-27.64"/>
<polygon fill="green" stroke="green" stroke-width="0.35" points="329.63,-24.71 319.15,-23.2 326.4,-30.92 329.63,-24.71"/>
</g>
<!-- &#45;11&#45;&gt;1 -->
<g id="edge20" class="edge">
<title>&#45;11&#45;&gt;1</title>
<path fill="none" stroke="red" stroke-width="0.21" d="M469.34,-66.84C446.83,-56.84 403.14,-37.43 376.39,-25.55"/>
<polygon fill="red" stroke="red" stroke-width="0.21" points="377.91,-22.4 367.35,-21.53 375.06,-28.79 377.91,-22.4"/>
</g>
<!-- &#45;12 -->
<g id="node12" class="node">
<title>&#45;12</title>
<polygon fill="lightgray" stroke="black" points="543.75,-83.49 515.75,-83.49 515.75,-64.99 543.75,-64.99 543.75,-83.49"/>
<text text-anchor="middle" x="529.75" y="-70.94" font-family="Times New Roman,serif" font-size="9.00">&#45;12</text>
</g>
<!-- &#45;12&#45;&gt;0 -->
<g id="edge21" class="edge">
<title>&#45;12&#45;&gt;0</title>
<path fill="none" stroke="red" stroke-width="0.4" d="M515.25,-67.69C512.45,-66.72 509.53,-65.77 506.75,-64.99 429.87,-43.46 405.56,-56.89 330.75,-28.99 329.85,-28.66 328.94,-28.29 328.03,-27.9"/>
<polygon fill="red" stroke="red" stroke-width="0.4" points="329.65,-24.79 319.14,-23.39 326.48,-31.04 329.65,-24.79"/>
</g>
<!-- &#45;12&#45;&gt;1 -->
<g id="edge22" class="edge">
<title>&#45;12&#45;&gt;1</title>
<path fill="none" stroke="green" stroke-width="0.16" d="M515.66,-68.11C512.73,-67.06 509.64,-65.98 506.75,-64.99 461.13,-49.44 407.46,-32.35 377.34,-22.87"/>
<polygon fill="green" stroke="green" stroke-width="0.16" points="378.54,-19.58 367.95,-19.92 376.44,-26.26 378.54,-19.58"/>
</g>
<!-- &#45;13 -->
<g id="node13" class="node">
<title>&#45;13</title>
<polygon fill="lightgray" stroke="black" points="589.75,-83.49 561.75,-83.49 561.75,-64.99 589.75,-64.99 589.75,-83.49"/>
<text text-anchor="middle" x="575.75" y="-70.94" font-family="Times New Roman,serif" font-size="9.00">&#45;13</text>
</g>
<!-- &#45;13&#45;&gt;0 -->
<g id="edge23" class="edge">
<title>&#45;13&#45;&gt;0</title>
<path fill="none" stroke="green" stroke-width="0.19" d="M561.28,-67.59C558.48,-66.63 555.54,-65.71 552.75,-64.99 455.97,-40.01 425.1,-62 330.75,-28.99 329.71,-28.63 328.67,-28.22 327.62,-27.78"/>
<polygon fill="green" stroke="green" stroke-width="0.19" points="329.34,-24.73 318.83,-23.36 326.19,-30.98 329.34,-24.73"/>
</g>
<!-- &#45;13&#45;&gt;1 -->
<g id="edge24" class="edge">
<title>&#45;13&#45;&gt;1</title>
<path fill="none" stroke="red" stroke-width="0.11" d="M561.72,-67.95C558.77,-66.92 555.67,-65.88 552.75,-64.99 490.15,-46.03 414.91,-28.79 377.41,-20.57"/>
<polygon fill="red" stroke="red" stroke-width="0.11" points="378.56,-17.24 368.04,-18.53 377.07,-24.08 378.56,-17.24"/>
</g>
<!-- &#45;14 -->
<g id="node14" class="node">
<title>&#45;14</title>
<polygon fill="lightgray" stroke="black" points="635.75,-83.49 607.75,-83.49 607.75,-64.99 635.75,-64.99 635.75,-83.49"/>
<text text-anchor="middle" x="621.75" y="-70.94" font-family="Times New Roman,serif" font-size="9.00">&#45;14</text>
</g>
<!-- &#45;14&#45;&gt;0 -->
<g id="edge25" class="edge">
<title>&#45;14&#45;&gt;0</title>
<path fill="none" stroke="green" stroke-width="0.2" d="M607.29,-67.53C604.49,-66.58 601.55,-65.67 598.75,-64.99 481.98,-36.54 444.72,-67.13 330.75,-28.99 329.71,-28.64 328.66,-28.25 327.61,-27.82"/>
<polygon fill="green" stroke="green" stroke-width="0.2" points="329.32,-24.76 318.81,-23.43 326.2,-31.02 329.32,-24.76"/>
</g>
<!-- &#45;14&#45;&gt;1 -->
<g id="edge26" class="edge">
<title>&#45;14&#45;&gt;1</title>
<path fill="none" stroke="red" stroke-width="0.16" d="M607.25,-67.68C604.45,-66.71 601.53,-65.77 598.75,-64.99 519.2,-42.82 422.53,-26.26 378.15,-19.22"/>
<polygon fill="red" stroke="red" stroke-width="0.16" points="378.94,-15.8 368.52,-17.71 377.86,-22.72 378.94,-15.8"/>
</g>
<!-- &#45;15 -->
<g id="node15" class="node">
<title>&#45;15</title>
<polygon fill="lightgray" stroke="black" points="111.75,-83.49 83.75,-83.49 83.75,-64.99 111.75,-64.99 111.75,-83.49"/>
<text text-anchor="middle" x="97.75" y="-70.94" font-family="Times New Roman,serif" font-size="9.00">&#45;15</text>
</g>
<!-- &#45;15&#45;&gt;0 -->
<g id="edge27" class="edge">
<title>&#45;15&#45;&gt;0</title>
<path fill="none" stroke="green" stroke-width="0.3" d="M111.8,-67.99C114.74,-66.95 117.83,-65.9 120.75,-64.99 178.28,-47.05 247.06,-29.83 282.69,-21.21"/>
<polygon fill="green" stroke="green" stroke-width="0.3" points="283.28,-24.67 292.19,-18.93 281.65,-17.86 283.28,-24.67"/>
</g>
<!-- &#45;15&#45;&gt;1 -->
<g id="edge28" class="edge">
<title>&#45;15&#45;&gt;1</title>
<path fill="none" stroke="green" stroke-width="0.11" stroke-dasharray="1,5" d="M112.23,-67.62C115.03,-66.65 117.96,-65.73 120.75,-64.99 211.9,-40.99 240.93,-60.55 329.75,-28.99 330.79,-28.62 331.83,-28.21 332.87,-27.77"/>
<polygon fill="green" stroke="green" stroke-width="0.11" points="334.42,-30.91 341.77,-23.28 331.27,-24.66 334.42,-30.91"/>
</g>
</g>
</svg>
