<?xml version="1.0" encoding="utf-8" standalone="no"?>
<!DOCTYPE svg PUBLIC "-//W3C//DTD SVG 1.1//EN"
  "http://www.w3.org/Graphics/SVG/1.1/DTD/svg11.dtd">
<svg xmlns:xlink="http://www.w3.org/1999/xlink" width="460.8pt" height="345.6pt" viewBox="0 0 460.8 345.6" xmlns="http://www.w3.org/2000/svg" version="1.1">
 <metadata>
  <rdf:RDF xmlns:dc="http://purl.org/dc/elements/1.1/" xmlns:cc="http://creativecommons.org/ns#" xmlns:rdf="http://www.w3.org/1999/02/22-rdf-syntax-ns#">
   <cc:Work>
    <dc:type rdf:resource="http://purl.org/dc/dcmitype/StillImage"/>
    <dc:date>2025-07-09T17:36:45.074063</dc:date>
    <dc:format>image/svg+xml</dc:format>
    <dc:creator>
     <cc:Agent>
      <dc:title>Matplotlib v3.10.0, https://matplotlib.org/</dc:title>
     </cc:Agent>
    </dc:creator>
   </cc:Work>
  </rdf:RDF>
 </metadata>
 <defs>
  <style type="text/css">*{stroke-linejoin: round; stroke-linecap: butt}</style>
 </defs>
 <g id="figure_1">
  <g id="patch_1">
   <path d="M 0 345.6 
L 460.8 345.6 
L 460.8 0 
L 0 0 
z
" style="fill: #ffffff"/>
  </g>
  <g id="axes_1">
   <g id="patch_2">
    <path d="M 57.6 307.584 
L 414.72 307.584 
L 414.72 41.472 
L 57.6 41.472 
z
" style="fill: #ffffff"/>
   </g>
   <g id="matplotlib.axis_1">
    <g id="xtick_1">
     <g id="line2d_1">
      <path d="M 73.832727 307.584 
L 73.832727 41.472 
" clip-path="url(#pb707758403)" style="fill: none; stroke: #b0b0b0; stroke-width: 0.8; stroke-linecap: square"/>
     </g>
     <g id="line2d_2">
      <defs>
       <path id="mb7f3aef648" d="M 0 0 
L 0 3.5 
" style="stroke: #000000; stroke-width: 0.8"/>
      </defs>
      <g>
       <use xlink:href="#mb7f3aef648" x="73.832727" y="307.584" style="stroke: #000000; stroke-width: 0.8"/>
      </g>
     </g>
     <g id="text_1">
      <!-- 0 -->
      <g transform="translate(70.651477 322.182437) scale(0.1 -0.1)">
       <defs>
        <path id="DejaVuSans-30" d="M 2034 4250 
Q 1547 4250 1301 3770 
Q 1056 3291 1056 2328 
Q 1056 1369 1301 889 
Q 1547 409 2034 409 
Q 2525 409 2770 889 
Q 3016 1369 3016 2328 
Q 3016 3291 2770 3770 
Q 2525 4250 2034 4250 
z
M 2034 4750 
Q 2819 4750 3233 4129 
Q 3647 3509 3647 2328 
Q 3647 1150 3233 529 
Q 2819 -91 2034 -91 
Q 1250 -91 836 529 
Q 422 1150 422 2328 
Q 422 3509 836 4129 
Q 1250 4750 2034 4750 
z
" transform="scale(0.015625)"/>
       </defs>
       <use xlink:href="#DejaVuSans-30"/>
      </g>
     </g>
    </g>
    <g id="xtick_2">
     <g id="line2d_3">
      <path d="M 138.893758 307.584 
L 138.893758 41.472 
" clip-path="url(#pb707758403)" style="fill: none; stroke: #b0b0b0; stroke-width: 0.8; stroke-linecap: square"/>
     </g>
     <g id="line2d_4">
      <g>
       <use xlink:href="#mb7f3aef648" x="138.893758" y="307.584" style="stroke: #000000; stroke-width: 0.8"/>
      </g>
     </g>
     <g id="text_2">
      <!-- 100 -->
      <g transform="translate(129.350008 322.182437) scale(0.1 -0.1)">
       <defs>
        <path id="DejaVuSans-31" d="M 794 531 
L 1825 531 
L 1825 4091 
L 703 3866 
L 703 4441 
L 1819 4666 
L 2450 4666 
L 2450 531 
L 3481 531 
L 3481 0 
L 794 0 
L 794 531 
z
" transform="scale(0.015625)"/>
       </defs>
       <use xlink:href="#DejaVuSans-31"/>
       <use xlink:href="#DejaVuSans-30" transform="translate(63.623047 0)"/>
       <use xlink:href="#DejaVuSans-30" transform="translate(127.246094 0)"/>
      </g>
     </g>
    </g>
    <g id="xtick_3">
     <g id="line2d_5">
      <path d="M 203.95479 307.584 
L 203.95479 41.472 
" clip-path="url(#pb707758403)" style="fill: none; stroke: #b0b0b0; stroke-width: 0.8; stroke-linecap: square"/>
     </g>
     <g id="line2d_6">
      <g>
       <use xlink:href="#mb7f3aef648" x="203.95479" y="307.584" style="stroke: #000000; stroke-width: 0.8"/>
      </g>
     </g>
     <g id="text_3">
      <!-- 200 -->
      <g transform="translate(194.41104 322.182437) scale(0.1 -0.1)">
       <defs>
        <path id="DejaVuSans-32" d="M 1228 531 
L 3431 531 
L 3431 0 
L 469 0 
L 469 531 
Q 828 903 1448 1529 
Q 2069 2156 2228 2338 
Q 2531 2678 2651 2914 
Q 2772 3150 2772 3378 
Q 2772 3750 2511 3984 
Q 2250 4219 1831 4219 
Q 1534 4219 1204 4116 
Q 875 4013 500 3803 
L 500 4441 
Q 881 4594 1212 4672 
Q 1544 4750 1819 4750 
Q 2544 4750 2975 4387 
Q 3406 4025 3406 3419 
Q 3406 3131 3298 2873 
Q 3191 2616 2906 2266 
Q 2828 2175 2409 1742 
Q 1991 1309 1228 531 
z
" transform="scale(0.015625)"/>
       </defs>
       <use xlink:href="#DejaVuSans-32"/>
       <use xlink:href="#DejaVuSans-30" transform="translate(63.623047 0)"/>
       <use xlink:href="#DejaVuSans-30" transform="translate(127.246094 0)"/>
      </g>
     </g>
    </g>
    <g id="xtick_4">
     <g id="line2d_7">
      <path d="M 269.015821 307.584 
L 269.015821 41.472 
" clip-path="url(#pb707758403)" style="fill: none; stroke: #b0b0b0; stroke-width: 0.8; stroke-linecap: square"/>
     </g>
     <g id="line2d_8">
      <g>
       <use xlink:href="#mb7f3aef648" x="269.015821" y="307.584" style="stroke: #000000; stroke-width: 0.8"/>
      </g>
     </g>
     <g id="text_4">
      <!-- 300 -->
      <g transform="translate(259.472071 322.182437) scale(0.1 -0.1)">
       <defs>
        <path id="DejaVuSans-33" d="M 2597 2516 
Q 3050 2419 3304 2112 
Q 3559 1806 3559 1356 
Q 3559 666 3084 287 
Q 2609 -91 1734 -91 
Q 1441 -91 1130 -33 
Q 819 25 488 141 
L 488 750 
Q 750 597 1062 519 
Q 1375 441 1716 441 
Q 2309 441 2620 675 
Q 2931 909 2931 1356 
Q 2931 1769 2642 2001 
Q 2353 2234 1838 2234 
L 1294 2234 
L 1294 2753 
L 1863 2753 
Q 2328 2753 2575 2939 
Q 2822 3125 2822 3475 
Q 2822 3834 2567 4026 
Q 2313 4219 1838 4219 
Q 1578 4219 1281 4162 
Q 984 4106 628 3988 
L 628 4550 
Q 988 4650 1302 4700 
Q 1616 4750 1894 4750 
Q 2613 4750 3031 4423 
Q 3450 4097 3450 3541 
Q 3450 3153 3228 2886 
Q 3006 2619 2597 2516 
z
" transform="scale(0.015625)"/>
       </defs>
       <use xlink:href="#DejaVuSans-33"/>
       <use xlink:href="#DejaVuSans-30" transform="translate(63.623047 0)"/>
       <use xlink:href="#DejaVuSans-30" transform="translate(127.246094 0)"/>
      </g>
     </g>
    </g>
    <g id="xtick_5">
     <g id="line2d_9">
      <path d="M 334.076852 307.584 
L 334.076852 41.472 
" clip-path="url(#pb707758403)" style="fill: none; stroke: #b0b0b0; stroke-width: 0.8; stroke-linecap: square"/>
     </g>
     <g id="line2d_10">
      <g>
       <use xlink:href="#mb7f3aef648" x="334.076852" y="307.584" style="stroke: #000000; stroke-width: 0.8"/>
      </g>
     </g>
     <g id="text_5">
      <!-- 400 -->
      <g transform="translate(324.533102 322.182437) scale(0.1 -0.1)">
       <defs>
        <path id="DejaVuSans-34" d="M 2419 4116 
L 825 1625 
L 2419 1625 
L 2419 4116 
z
M 2253 4666 
L 3047 4666 
L 3047 1625 
L 3713 1625 
L 3713 1100 
L 3047 1100 
L 3047 0 
L 2419 0 
L 2419 1100 
L 313 1100 
L 313 1709 
L 2253 4666 
z
" transform="scale(0.015625)"/>
       </defs>
       <use xlink:href="#DejaVuSans-34"/>
       <use xlink:href="#DejaVuSans-30" transform="translate(63.623047 0)"/>
       <use xlink:href="#DejaVuSans-30" transform="translate(127.246094 0)"/>
      </g>
     </g>
    </g>
    <g id="xtick_6">
     <g id="line2d_11">
      <path d="M 399.137883 307.584 
L 399.137883 41.472 
" clip-path="url(#pb707758403)" style="fill: none; stroke: #b0b0b0; stroke-width: 0.8; stroke-linecap: square"/>
     </g>
     <g id="line2d_12">
      <g>
       <use xlink:href="#mb7f3aef648" x="399.137883" y="307.584" style="stroke: #000000; stroke-width: 0.8"/>
      </g>
     </g>
     <g id="text_6">
      <!-- 500 -->
      <g transform="translate(389.594133 322.182437) scale(0.1 -0.1)">
       <defs>
        <path id="DejaVuSans-35" d="M 691 4666 
L 3169 4666 
L 3169 4134 
L 1269 4134 
L 1269 2991 
Q 1406 3038 1543 3061 
Q 1681 3084 1819 3084 
Q 2600 3084 3056 2656 
Q 3513 2228 3513 1497 
Q 3513 744 3044 326 
Q 2575 -91 1722 -91 
Q 1428 -91 1123 -41 
Q 819 9 494 109 
L 494 744 
Q 775 591 1075 516 
Q 1375 441 1709 441 
Q 2250 441 2565 725 
Q 2881 1009 2881 1497 
Q 2881 1984 2565 2268 
Q 2250 2553 1709 2553 
Q 1456 2553 1204 2497 
Q 953 2441 691 2322 
L 691 4666 
z
" transform="scale(0.015625)"/>
       </defs>
       <use xlink:href="#DejaVuSans-35"/>
       <use xlink:href="#DejaVuSans-30" transform="translate(63.623047 0)"/>
       <use xlink:href="#DejaVuSans-30" transform="translate(127.246094 0)"/>
      </g>
     </g>
    </g>
    <g id="text_7">
     <!-- Generations -->
     <g transform="translate(205.662344 335.860562) scale(0.1 -0.1)">
      <defs>
       <path id="DejaVuSans-47" d="M 3809 666 
L 3809 1919 
L 2778 1919 
L 2778 2438 
L 4434 2438 
L 4434 434 
Q 4069 175 3628 42 
Q 3188 -91 2688 -91 
Q 1594 -91 976 548 
Q 359 1188 359 2328 
Q 359 3472 976 4111 
Q 1594 4750 2688 4750 
Q 3144 4750 3555 4637 
Q 3966 4525 4313 4306 
L 4313 3634 
Q 3963 3931 3569 4081 
Q 3175 4231 2741 4231 
Q 1884 4231 1454 3753 
Q 1025 3275 1025 2328 
Q 1025 1384 1454 906 
Q 1884 428 2741 428 
Q 3075 428 3337 486 
Q 3600 544 3809 666 
z
" transform="scale(0.015625)"/>
       <path id="DejaVuSans-65" d="M 3597 1894 
L 3597 1613 
L 953 1613 
Q 991 1019 1311 708 
Q 1631 397 2203 397 
Q 2534 397 2845 478 
Q 3156 559 3463 722 
L 3463 178 
Q 3153 47 2828 -22 
Q 2503 -91 2169 -91 
Q 1331 -91 842 396 
Q 353 884 353 1716 
Q 353 2575 817 3079 
Q 1281 3584 2069 3584 
Q 2775 3584 3186 3129 
Q 3597 2675 3597 1894 
z
M 3022 2063 
Q 3016 2534 2758 2815 
Q 2500 3097 2075 3097 
Q 1594 3097 1305 2825 
Q 1016 2553 972 2059 
L 3022 2063 
z
" transform="scale(0.015625)"/>
       <path id="DejaVuSans-6e" d="M 3513 2113 
L 3513 0 
L 2938 0 
L 2938 2094 
Q 2938 2591 2744 2837 
Q 2550 3084 2163 3084 
Q 1697 3084 1428 2787 
Q 1159 2491 1159 1978 
L 1159 0 
L 581 0 
L 581 3500 
L 1159 3500 
L 1159 2956 
Q 1366 3272 1645 3428 
Q 1925 3584 2291 3584 
Q 2894 3584 3203 3211 
Q 3513 2838 3513 2113 
z
" transform="scale(0.015625)"/>
       <path id="DejaVuSans-72" d="M 2631 2963 
Q 2534 3019 2420 3045 
Q 2306 3072 2169 3072 
Q 1681 3072 1420 2755 
Q 1159 2438 1159 1844 
L 1159 0 
L 581 0 
L 581 3500 
L 1159 3500 
L 1159 2956 
Q 1341 3275 1631 3429 
Q 1922 3584 2338 3584 
Q 2397 3584 2469 3576 
Q 2541 3569 2628 3553 
L 2631 2963 
z
" transform="scale(0.015625)"/>
       <path id="DejaVuSans-61" d="M 2194 1759 
Q 1497 1759 1228 1600 
Q 959 1441 959 1056 
Q 959 750 1161 570 
Q 1363 391 1709 391 
Q 2188 391 2477 730 
Q 2766 1069 2766 1631 
L 2766 1759 
L 2194 1759 
z
M 3341 1997 
L 3341 0 
L 2766 0 
L 2766 531 
Q 2569 213 2275 61 
Q 1981 -91 1556 -91 
Q 1019 -91 701 211 
Q 384 513 384 1019 
Q 384 1609 779 1909 
Q 1175 2209 1959 2209 
L 2766 2209 
L 2766 2266 
Q 2766 2663 2505 2880 
Q 2244 3097 1772 3097 
Q 1472 3097 1187 3025 
Q 903 2953 641 2809 
L 641 3341 
Q 956 3463 1253 3523 
Q 1550 3584 1831 3584 
Q 2591 3584 2966 3190 
Q 3341 2797 3341 1997 
z
" transform="scale(0.015625)"/>
       <path id="DejaVuSans-74" d="M 1172 4494 
L 1172 3500 
L 2356 3500 
L 2356 3053 
L 1172 3053 
L 1172 1153 
Q 1172 725 1289 603 
Q 1406 481 1766 481 
L 2356 481 
L 2356 0 
L 1766 0 
Q 1100 0 847 248 
Q 594 497 594 1153 
L 594 3053 
L 172 3053 
L 172 3500 
L 594 3500 
L 594 4494 
L 1172 4494 
z
" transform="scale(0.015625)"/>
       <path id="DejaVuSans-69" d="M 603 3500 
L 1178 3500 
L 1178 0 
L 603 0 
L 603 3500 
z
M 603 4863 
L 1178 4863 
L 1178 4134 
L 603 4134 
L 603 4863 
z
" transform="scale(0.015625)"/>
       <path id="DejaVuSans-6f" d="M 1959 3097 
Q 1497 3097 1228 2736 
Q 959 2375 959 1747 
Q 959 1119 1226 758 
Q 1494 397 1959 397 
Q 2419 397 2687 759 
Q 2956 1122 2956 1747 
Q 2956 2369 2687 2733 
Q 2419 3097 1959 3097 
z
M 1959 3584 
Q 2709 3584 3137 3096 
Q 3566 2609 3566 1747 
Q 3566 888 3137 398 
Q 2709 -91 1959 -91 
Q 1206 -91 779 398 
Q 353 888 353 1747 
Q 353 2609 779 3096 
Q 1206 3584 1959 3584 
z
" transform="scale(0.015625)"/>
       <path id="DejaVuSans-73" d="M 2834 3397 
L 2834 2853 
Q 2591 2978 2328 3040 
Q 2066 3103 1784 3103 
Q 1356 3103 1142 2972 
Q 928 2841 928 2578 
Q 928 2378 1081 2264 
Q 1234 2150 1697 2047 
L 1894 2003 
Q 2506 1872 2764 1633 
Q 3022 1394 3022 966 
Q 3022 478 2636 193 
Q 2250 -91 1575 -91 
Q 1294 -91 989 -36 
Q 684 19 347 128 
L 347 722 
Q 666 556 975 473 
Q 1284 391 1588 391 
Q 1994 391 2212 530 
Q 2431 669 2431 922 
Q 2431 1156 2273 1281 
Q 2116 1406 1581 1522 
L 1381 1569 
Q 847 1681 609 1914 
Q 372 2147 372 2553 
Q 372 3047 722 3315 
Q 1072 3584 1716 3584 
Q 2034 3584 2315 3537 
Q 2597 3491 2834 3397 
z
" transform="scale(0.015625)"/>
      </defs>
      <use xlink:href="#DejaVuSans-47"/>
      <use xlink:href="#DejaVuSans-65" transform="translate(77.490234 0)"/>
      <use xlink:href="#DejaVuSans-6e" transform="translate(139.013672 0)"/>
      <use xlink:href="#DejaVuSans-65" transform="translate(202.392578 0)"/>
      <use xlink:href="#DejaVuSans-72" transform="translate(263.916016 0)"/>
      <use xlink:href="#DejaVuSans-61" transform="translate(305.029297 0)"/>
      <use xlink:href="#DejaVuSans-74" transform="translate(366.308594 0)"/>
      <use xlink:href="#DejaVuSans-69" transform="translate(405.517578 0)"/>
      <use xlink:href="#DejaVuSans-6f" transform="translate(433.300781 0)"/>
      <use xlink:href="#DejaVuSans-6e" transform="translate(494.482422 0)"/>
      <use xlink:href="#DejaVuSans-73" transform="translate(557.861328 0)"/>
     </g>
    </g>
   </g>
   <g id="matplotlib.axis_2">
    <g id="ytick_1">
     <g id="line2d_13">
      <path d="M 57.6 275.060939 
L 414.72 275.060939 
" clip-path="url(#pb707758403)" style="fill: none; stroke: #b0b0b0; stroke-width: 0.8; stroke-linecap: square"/>
     </g>
     <g id="line2d_14">
      <defs>
       <path id="mac4c8c0df6" d="M 0 0 
L -3.5 0 
" style="stroke: #000000; stroke-width: 0.8"/>
      </defs>
      <g>
       <use xlink:href="#mac4c8c0df6" x="57.6" y="275.060939" style="stroke: #000000; stroke-width: 0.8"/>
      </g>
     </g>
     <g id="text_8">
      <!-- −100000 -->
      <g transform="translate(4.045313 278.860158) scale(0.1 -0.1)">
       <defs>
        <path id="DejaVuSans-2212" d="M 678 2272 
L 4684 2272 
L 4684 1741 
L 678 1741 
L 678 2272 
z
" transform="scale(0.015625)"/>
       </defs>
       <use xlink:href="#DejaVuSans-2212"/>
       <use xlink:href="#DejaVuSans-31" transform="translate(83.789062 0)"/>
       <use xlink:href="#DejaVuSans-30" transform="translate(147.412109 0)"/>
       <use xlink:href="#DejaVuSans-30" transform="translate(211.035156 0)"/>
       <use xlink:href="#DejaVuSans-30" transform="translate(274.658203 0)"/>
       <use xlink:href="#DejaVuSans-30" transform="translate(338.28125 0)"/>
       <use xlink:href="#DejaVuSans-30" transform="translate(401.904297 0)"/>
      </g>
     </g>
    </g>
    <g id="ytick_2">
     <g id="line2d_15">
      <path d="M 57.6 218.57562 
L 414.72 218.57562 
" clip-path="url(#pb707758403)" style="fill: none; stroke: #b0b0b0; stroke-width: 0.8; stroke-linecap: square"/>
     </g>
     <g id="line2d_16">
      <g>
       <use xlink:href="#mac4c8c0df6" x="57.6" y="218.57562" style="stroke: #000000; stroke-width: 0.8"/>
      </g>
     </g>
     <g id="text_9">
      <!-- 0 -->
      <g transform="translate(44.2375 222.374839) scale(0.1 -0.1)">
       <use xlink:href="#DejaVuSans-30"/>
      </g>
     </g>
    </g>
    <g id="ytick_3">
     <g id="line2d_17">
      <path d="M 57.6 162.090302 
L 414.72 162.090302 
" clip-path="url(#pb707758403)" style="fill: none; stroke: #b0b0b0; stroke-width: 0.8; stroke-linecap: square"/>
     </g>
     <g id="line2d_18">
      <g>
       <use xlink:href="#mac4c8c0df6" x="57.6" y="162.090302" style="stroke: #000000; stroke-width: 0.8"/>
      </g>
     </g>
     <g id="text_10">
      <!-- 100000 -->
      <g transform="translate(12.425 165.88952) scale(0.1 -0.1)">
       <use xlink:href="#DejaVuSans-31"/>
       <use xlink:href="#DejaVuSans-30" transform="translate(63.623047 0)"/>
       <use xlink:href="#DejaVuSans-30" transform="translate(127.246094 0)"/>
       <use xlink:href="#DejaVuSans-30" transform="translate(190.869141 0)"/>
       <use xlink:href="#DejaVuSans-30" transform="translate(254.492188 0)"/>
       <use xlink:href="#DejaVuSans-30" transform="translate(318.115234 0)"/>
      </g>
     </g>
    </g>
    <g id="ytick_4">
     <g id="line2d_19">
      <path d="M 57.6 105.604983 
L 414.72 105.604983 
" clip-path="url(#pb707758403)" style="fill: none; stroke: #b0b0b0; stroke-width: 0.8; stroke-linecap: square"/>
     </g>
     <g id="line2d_20">
      <g>
       <use xlink:href="#mac4c8c0df6" x="57.6" y="105.604983" style="stroke: #000000; stroke-width: 0.8"/>
      </g>
     </g>
     <g id="text_11">
      <!-- 200000 -->
      <g transform="translate(12.425 109.404202) scale(0.1 -0.1)">
       <use xlink:href="#DejaVuSans-32"/>
       <use xlink:href="#DejaVuSans-30" transform="translate(63.623047 0)"/>
       <use xlink:href="#DejaVuSans-30" transform="translate(127.246094 0)"/>
       <use xlink:href="#DejaVuSans-30" transform="translate(190.869141 0)"/>
       <use xlink:href="#DejaVuSans-30" transform="translate(254.492188 0)"/>
       <use xlink:href="#DejaVuSans-30" transform="translate(318.115234 0)"/>
      </g>
     </g>
    </g>
    <g id="ytick_5">
     <g id="line2d_21">
      <path d="M 57.6 49.119664 
L 414.72 49.119664 
" clip-path="url(#pb707758403)" style="fill: none; stroke: #b0b0b0; stroke-width: 0.8; stroke-linecap: square"/>
     </g>
     <g id="line2d_22">
      <g>
       <use xlink:href="#mac4c8c0df6" x="57.6" y="49.119664" style="stroke: #000000; stroke-width: 0.8"/>
      </g>
     </g>
     <g id="text_12">
      <!-- 300000 -->
      <g transform="translate(12.425 52.918883) scale(0.1 -0.1)">
       <use xlink:href="#DejaVuSans-33"/>
       <use xlink:href="#DejaVuSans-30" transform="translate(63.623047 0)"/>
       <use xlink:href="#DejaVuSans-30" transform="translate(127.246094 0)"/>
       <use xlink:href="#DejaVuSans-30" transform="translate(190.869141 0)"/>
       <use xlink:href="#DejaVuSans-30" transform="translate(254.492188 0)"/>
       <use xlink:href="#DejaVuSans-30" transform="translate(318.115234 0)"/>
      </g>
     </g>
    </g>
    <g id="text_13">
     <!-- Fitness -->
     <g transform="translate(-2.034375 191.845187) rotate(-90) scale(0.1 -0.1)">
      <defs>
       <path id="DejaVuSans-46" d="M 628 4666 
L 3309 4666 
L 3309 4134 
L 1259 4134 
L 1259 2759 
L 3109 2759 
L 3109 2228 
L 1259 2228 
L 1259 0 
L 628 0 
L 628 4666 
z
" transform="scale(0.015625)"/>
      </defs>
      <use xlink:href="#DejaVuSans-46"/>
      <use xlink:href="#DejaVuSans-69" transform="translate(50.269531 0)"/>
      <use xlink:href="#DejaVuSans-74" transform="translate(78.052734 0)"/>
      <use xlink:href="#DejaVuSans-6e" transform="translate(117.261719 0)"/>
      <use xlink:href="#DejaVuSans-65" transform="translate(180.640625 0)"/>
      <use xlink:href="#DejaVuSans-73" transform="translate(242.164062 0)"/>
      <use xlink:href="#DejaVuSans-73" transform="translate(294.263672 0)"/>
     </g>
    </g>
   </g>
   <g id="line2d_23">
    <path d="M 73.832727 191.63582 
L 74.483338 200.094769 
L 75.133948 200.593829 
L 75.784558 200.392681 
L 76.435169 198.76336 
L 77.085779 192.594833 
L 77.736389 198.052625 
L 79.03761 184.2193 
L 79.68822 194.036181 
L 80.33883 185.600089 
L 80.989441 192.283103 
L 81.640051 185.267204 
L 82.290661 181.697324 
L 82.941272 182.098645 
L 84.242492 174.752244 
L 84.893103 179.000551 
L 85.543713 184.043811 
L 86.194323 177.763513 
L 86.844934 184.204038 
L 87.495544 184.271683 
L 88.146154 189.350843 
L 88.796764 191.51846 
L 89.447375 184.048566 
L 90.097985 186.634946 
L 90.748595 186.326544 
L 91.399206 176.51026 
L 92.049816 188.673237 
L 92.700426 181.430248 
L 93.351037 171.560143 
L 94.001647 177.861346 
L 94.652257 170.970364 
L 95.302868 181.866915 
L 95.953478 177.147758 
L 96.604088 173.93885 
L 97.254698 189.183683 
L 97.905309 187.046736 
L 98.555919 178.708535 
L 99.206529 180.813089 
L 99.85714 179.49375 
L 100.50775 175.611755 
L 101.15836 167.004457 
L 101.808971 167.699216 
L 102.459581 176.240478 
L 103.110191 173.998734 
L 103.760802 177.238305 
L 104.411412 179.405021 
L 105.062022 171.090408 
L 105.712633 168.024909 
L 106.363243 173.676976 
L 107.013853 175.669998 
L 107.664463 170.188863 
L 108.315074 170.802232 
L 108.965684 178.445492 
L 109.616294 174.903333 
L 110.266905 165.198041 
L 110.917515 165.886124 
L 111.568125 168.831874 
L 112.218736 181.333206 
L 112.869346 161.960736 
L 113.519956 159.476411 
L 114.170567 165.651111 
L 114.821177 164.94965 
L 115.471787 166.798756 
L 116.773008 159.805874 
L 117.423618 161.419597 
L 118.074228 160.401947 
L 118.724839 171.939102 
L 119.375449 163.160741 
L 120.026059 160.639501 
L 120.67667 164.450253 
L 121.32728 171.890594 
L 121.97789 167.712136 
L 122.628501 166.369453 
L 123.279111 169.104977 
L 125.230942 162.115075 
L 125.881552 162.338665 
L 126.532163 169.42 
L 127.182773 172.370659 
L 127.833383 167.743876 
L 128.483993 173.657426 
L 129.134604 172.783466 
L 130.435824 163.54981 
L 131.086435 162.310635 
L 131.737045 159.936573 
L 133.038266 151.849805 
L 133.688876 155.479586 
L 134.990097 170.462144 
L 135.640707 164.331833 
L 136.291317 161.33046 
L 136.941927 156.098307 
L 137.592538 157.787321 
L 138.243148 161.37464 
L 138.893758 158.094978 
L 139.544369 150.789189 
L 140.194979 158.221521 
L 140.845589 159.237682 
L 141.4962 162.208753 
L 142.14681 159.611967 
L 142.79742 159.802645 
L 143.448031 163.542506 
L 144.098641 164.434783 
L 144.749251 168.336862 
L 145.399862 171.1341 
L 146.050472 164.904987 
L 146.701082 168.816398 
L 147.351692 168.04248 
L 148.002303 163.774523 
L 148.652913 169.878393 
L 149.303523 171.173013 
L 149.954134 173.884648 
L 150.604744 168.637798 
L 151.255354 168.15285 
L 151.905965 167.044304 
L 152.556575 175.595548 
L 153.207185 170.445102 
L 153.857796 171.353961 
L 154.508406 170.724542 
L 155.159016 161.537756 
L 155.809627 154.362461 
L 156.460237 150.477819 
L 157.110847 156.94896 
L 157.761457 153.305175 
L 158.412068 156.14558 
L 159.062678 164.539628 
L 159.713288 154.022733 
L 160.363899 158.887228 
L 161.665119 157.588116 
L 162.31573 163.588478 
L 162.96634 157.126071 
L 163.61695 153.524255 
L 164.267561 161.239007 
L 164.918171 155.04994 
L 165.568781 155.539359 
L 166.219392 155.425029 
L 166.870002 152.538385 
L 167.520612 154.771622 
L 168.171222 163.290224 
L 168.821833 156.567031 
L 169.472443 160.322959 
L 170.123053 154.46936 
L 170.773664 155.729716 
L 171.424274 149.17786 
L 172.074884 151.77778 
L 172.725495 155.019557 
L 173.376105 157.550074 
L 174.026715 167.845226 
L 174.677326 163.979301 
L 175.327936 168.704594 
L 175.978546 165.039279 
L 176.629156 166.45801 
L 177.279767 166.837662 
L 177.930377 167.555139 
L 178.580987 169.444087 
L 179.231598 180.207871 
L 179.882208 175.197262 
L 180.532818 173.159338 
L 181.183429 164.858024 
L 181.834039 162.172754 
L 182.484649 173.060247 
L 183.13526 167.008413 
L 183.78587 164.293914 
L 184.43648 165.13662 
L 185.087091 161.09547 
L 185.737701 171.593638 
L 186.388311 165.138804 
L 187.038921 165.281674 
L 187.689532 164.354661 
L 188.340142 154.464228 
L 188.990752 165.026371 
L 189.641363 166.653744 
L 190.291973 160.770848 
L 190.942583 157.495562 
L 191.593194 161.17604 
L 192.243804 166.554442 
L 192.894414 167.043206 
L 193.545025 158.916057 
L 194.195635 164.17688 
L 194.846245 165.13888 
L 195.496856 171.820118 
L 196.147466 186.284931 
L 196.798076 179.204034 
L 197.448686 184.680658 
L 198.099297 168.957576 
L 198.749907 170.269997 
L 199.400517 165.228191 
L 200.051128 170.04763 
L 200.701738 172.342908 
L 201.352348 161.873406 
L 202.002959 164.51077 
L 202.653569 160.059682 
L 203.304179 161.178302 
L 203.95479 158.023929 
L 204.6054 158.147988 
L 205.25601 158.801331 
L 205.906621 171.017748 
L 206.557231 172.675117 
L 207.207841 161.403161 
L 207.858451 166.068393 
L 208.509062 157.259969 
L 209.159672 163.730389 
L 209.810282 155.309059 
L 210.460893 171.087885 
L 211.111503 170.724269 
L 211.762113 169.465981 
L 212.412724 163.828112 
L 213.063334 166.816616 
L 213.713944 156.437631 
L 214.364555 151.107398 
L 215.015165 159.343822 
L 215.665775 158.758779 
L 216.316385 160.099215 
L 216.966996 160.159022 
L 217.617606 168.167358 
L 218.268216 164.975164 
L 218.918827 163.023315 
L 219.569437 158.683131 
L 220.220047 161.824206 
L 220.870658 157.865351 
L 221.521268 157.338691 
L 222.171878 157.111582 
L 222.822489 158.616011 
L 223.473099 152.321683 
L 224.123709 162.943792 
L 226.07554 154.819448 
L 226.72615 164.669236 
L 227.376761 163.379807 
L 228.027371 166.165943 
L 228.677981 164.125459 
L 229.328592 176.629795 
L 229.979202 176.632797 
L 230.629812 173.772403 
L 231.280423 164.611837 
L 231.931033 169.654691 
L 232.581643 165.093115 
L 233.232254 162.958325 
L 233.882864 163.845931 
L 234.533474 172.005313 
L 235.184085 172.332888 
L 235.834695 166.604417 
L 236.485305 168.742368 
L 237.135915 158.669277 
L 237.786526 161.838815 
L 238.437136 170.446503 
L 239.087746 180.602213 
L 239.738357 166.569777 
L 241.039577 174.073272 
L 241.690188 162.231165 
L 242.340798 162.594656 
L 242.991408 157.234415 
L 244.292629 163.984662 
L 244.943239 166.284599 
L 246.24446 154.765168 
L 246.89507 169.210172 
L 247.54568 157.534939 
L 248.196291 155.723409 
L 248.846901 160.750564 
L 249.497511 156.770585 
L 250.148122 156.395736 
L 250.798732 160.378745 
L 251.449342 157.751872 
L 252.099953 165.723019 
L 252.750563 164.333546 
L 253.401173 165.95696 
L 254.051784 171.578889 
L 254.702394 162.641479 
L 255.353004 158.755666 
L 256.003615 153.606597 
L 256.654225 158.157133 
L 257.304835 159.131089 
L 257.955445 157.849371 
L 258.606056 154.506972 
L 259.256666 159.15833 
L 259.907276 164.672719 
L 260.557887 151.909738 
L 261.208497 150.900526 
L 261.859107 151.190226 
L 262.509718 156.683559 
L 263.160328 160.689776 
L 264.461549 154.747595 
L 265.112159 156.885104 
L 265.762769 154.725737 
L 266.413379 163.917433 
L 267.06399 157.626462 
L 267.7146 164.868208 
L 268.36521 161.84793 
L 269.015821 167.209887 
L 269.666431 166.182006 
L 270.317041 169.704309 
L 270.967652 171.394147 
L 271.618262 169.321544 
L 272.268872 163.467295 
L 272.919483 160.67921 
L 273.570093 166.51627 
L 274.220703 168.351358 
L 274.871314 161.446881 
L 275.521924 163.593258 
L 276.172534 154.495534 
L 276.823144 159.092598 
L 277.473755 156.640462 
L 278.124365 157.706936 
L 278.774975 155.097601 
L 279.425586 160.018026 
L 280.076196 162.887875 
L 280.726806 170.209358 
L 281.377417 167.030134 
L 282.028027 165.129313 
L 282.678637 160.19888 
L 283.329248 162.159657 
L 283.979858 160.16216 
L 284.630468 167.008627 
L 285.281079 162.355428 
L 285.931689 162.09766 
L 286.582299 158.847784 
L 287.232909 166.720463 
L 287.88352 158.12059 
L 288.53413 155.684558 
L 289.18474 150.223854 
L 289.835351 148.296934 
L 290.485961 153.653493 
L 291.136571 165.459983 
L 291.787182 167.552336 
L 292.437792 171.232184 
L 293.088402 173.37198 
L 293.739013 171.887371 
L 294.389623 158.626373 
L 295.040233 166.803739 
L 295.690844 164.876425 
L 296.341454 159.980533 
L 296.992064 169.320491 
L 298.293285 153.852474 
L 298.943895 154.588533 
L 299.594505 155.884884 
L 300.245116 149.974145 
L 300.895726 151.567365 
L 301.546336 155.448482 
L 302.196947 158.522966 
L 302.847557 170.226187 
L 303.498167 171.809499 
L 304.148778 175.731671 
L 304.799388 165.813751 
L 305.449998 165.272125 
L 306.100608 161.625 
L 306.751219 154.328997 
L 307.401829 153.903722 
L 308.052439 148.21796 
L 308.70305 158.180169 
L 309.35366 159.454184 
L 310.00427 159.654897 
L 310.654881 162.126766 
L 311.305491 160.54141 
L 311.956101 156.105571 
L 312.606712 156.676011 
L 313.257322 163.134211 
L 313.907932 159.384708 
L 314.558543 166.766445 
L 315.209153 155.66906 
L 315.859763 163.261053 
L 316.510373 163.573279 
L 317.160984 157.672481 
L 317.811594 161.551502 
L 318.462204 161.501287 
L 319.112815 163.604199 
L 319.763425 158.354545 
L 320.414035 156.360355 
L 321.064646 146.610877 
L 321.715256 153.236061 
L 322.365866 148.133321 
L 323.016477 144.397176 
L 323.667087 149.483874 
L 324.317697 149.180026 
L 324.968308 147.927109 
L 325.618918 144.54729 
L 326.269528 143.094626 
L 326.920138 144.03912 
L 327.570749 146.873869 
L 328.221359 147.303245 
L 329.52258 144.139761 
L 330.17319 151.172381 
L 330.8238 152.700571 
L 331.474411 152.417896 
L 332.125021 147.419319 
L 332.775631 154.253603 
L 333.426242 151.615911 
L 334.076852 154.434464 
L 335.378073 145.299034 
L 336.028683 149.410054 
L 336.679293 149.202587 
L 337.329903 146.935308 
L 337.980514 145.285802 
L 338.631124 149.855719 
L 339.281734 139.113237 
L 339.932345 139.579909 
L 340.582955 142.852787 
L 341.233565 139.295014 
L 341.884176 138.778167 
L 342.534786 142.196394 
L 343.185396 146.328464 
L 343.836007 145.55932 
L 344.486617 142.022892 
L 345.137227 144.433342 
L 345.787837 157.437886 
L 346.438448 152.519918 
L 347.089058 144.52865 
L 347.739668 150.453791 
L 348.390279 151.368792 
L 349.040889 147.471521 
L 349.691499 146.748756 
L 350.34211 149.353539 
L 350.99272 145.855696 
L 351.64333 149.819658 
L 352.293941 144.74892 
L 352.944551 147.169361 
L 353.595161 156.487757 
L 354.245772 150.377178 
L 354.896382 149.40199 
L 355.546992 155.946282 
L 356.197602 151.93553 
L 356.848213 148.972619 
L 357.498823 160.899634 
L 358.149433 154.406549 
L 358.800044 152.973817 
L 359.450654 148.418634 
L 360.101264 151.474452 
L 360.751875 151.202118 
L 361.402485 152.558958 
L 362.053095 151.45706 
L 362.703706 149.337152 
L 364.004926 146.596219 
L 364.655537 141.764544 
L 365.306147 141.292476 
L 365.956757 143.822799 
L 366.607367 147.521029 
L 367.257978 145.017832 
L 367.908588 143.946867 
L 368.559198 150.22251 
L 369.209809 150.850208 
L 369.860419 142.998752 
L 370.511029 137.156456 
L 371.16164 146.008032 
L 371.81225 146.589325 
L 372.46286 142.698937 
L 373.113471 140.281051 
L 373.764081 136.277345 
L 375.065302 144.593108 
L 375.715912 142.824571 
L 376.366522 141.791863 
L 377.017132 142.168815 
L 377.667743 141.348928 
L 378.318353 141.913674 
L 378.968963 141.614582 
L 379.619574 140.260487 
L 380.270184 140.259084 
L 380.920794 135.322773 
L 381.571405 141.751263 
L 382.222015 144.642884 
L 382.872625 137.210765 
L 383.523236 138.594153 
L 384.173846 139.112214 
L 384.824456 135.934444 
L 385.475066 142.090853 
L 386.125677 141.867998 
L 386.776287 145.551085 
L 387.426897 140.855265 
L 388.077508 143.301834 
L 388.728118 144.932867 
L 389.378728 146.919458 
L 390.029339 158.108722 
L 390.679949 152.496734 
L 391.330559 154.588511 
L 391.98117 155.806777 
L 393.28239 152.139945 
L 393.933001 145.573929 
L 394.583611 145.753146 
L 395.234221 148.260884 
L 396.535442 148.778316 
L 397.186052 141.892286 
L 397.836662 146.556897 
L 398.487273 144.665439 
L 398.487273 144.665439 
" clip-path="url(#pb707758403)" style="fill: none; stroke: #0000ff; stroke-width: 1.5; stroke-linecap: square"/>
   </g>
   <g id="line2d_24">
    <path d="M 73.832727 226.097965 
L 74.483338 267.591301 
L 75.133948 253.635867 
L 75.784558 272.768171 
L 76.435169 284.75868 
L 77.085779 274.645501 
L 77.736389 272.422649 
L 78.386999 272.981994 
L 79.03761 247.551356 
L 79.68822 291.387151 
L 80.33883 246.531988 
L 80.989441 271.338993 
L 82.290661 229.023021 
L 82.941272 246.174212 
L 83.591882 236.888479 
L 84.242492 216.16458 
L 84.893103 241.847128 
L 85.543713 276.723709 
L 86.194323 226.414198 
L 86.844934 248.796329 
L 87.495544 245.055519 
L 88.146154 268.767331 
L 88.796764 270.925972 
L 89.447375 277.158436 
L 90.097985 275.719753 
L 90.748595 257.192474 
L 91.399206 233.416403 
L 92.049816 281.292921 
L 92.700426 240.657264 
L 93.351037 214.14225 
L 94.001647 256.475486 
L 94.652257 217.489749 
L 95.302868 271.633708 
L 95.953478 223.057998 
L 96.604088 220.203357 
L 97.254698 293.563809 
L 97.905309 291.12495 
L 98.555919 246.439278 
L 99.206529 248.580602 
L 99.85714 261.050923 
L 100.50775 263.461435 
L 101.15836 229.423415 
L 101.808971 229.258713 
L 102.459581 252.140075 
L 103.110191 249.028872 
L 103.760802 254.631078 
L 104.411412 266.899178 
L 105.062022 241.417669 
L 105.712633 230.452697 
L 106.363243 232.218693 
L 107.013853 241.420306 
L 107.664463 221.149335 
L 108.315074 230.560253 
L 108.965684 269.242308 
L 109.616294 232.132317 
L 110.266905 225.499831 
L 110.917515 228.538503 
L 111.568125 238.896055 
L 112.218736 280.846044 
L 112.869346 224.781576 
L 113.519956 209.758139 
L 114.170567 248.088614 
L 114.821177 237.141114 
L 115.471787 244.394563 
L 116.122398 223.210119 
L 116.773008 224.16614 
L 117.423618 239.505041 
L 118.074228 228.500028 
L 118.724839 259.210317 
L 119.375449 229.25529 
L 120.026059 225.014979 
L 120.67667 219.254204 
L 121.32728 250.358435 
L 121.97789 232.719562 
L 122.628501 225.714347 
L 123.279111 255.993038 
L 123.929721 254.04481 
L 124.580332 217.042955 
L 125.230942 210.730698 
L 125.881552 214.367426 
L 126.532163 234.755654 
L 127.182773 240.630958 
L 127.833383 226.912972 
L 128.483993 253.474337 
L 129.134604 244.670029 
L 129.785214 245.788477 
L 130.435824 215.613536 
L 131.086435 231.863099 
L 131.737045 228.276175 
L 132.387655 201.878834 
L 133.038266 199.01136 
L 133.688876 216.512269 
L 134.339486 244.52315 
L 134.990097 246.590092 
L 135.640707 237.456701 
L 136.291317 220.239196 
L 136.941927 212.906666 
L 137.592538 207.371448 
L 138.243148 226.980222 
L 138.893758 206.758689 
L 139.544369 198.550952 
L 140.194979 230.308838 
L 140.845589 228.13927 
L 141.4962 220.965261 
L 142.14681 211.419155 
L 142.79742 220.686438 
L 143.448031 238.832862 
L 144.098641 224.004108 
L 144.749251 244.254673 
L 145.399862 246.457465 
L 146.050472 222.915812 
L 146.701082 245.60041 
L 147.351692 244.903343 
L 148.002303 236.028892 
L 148.652913 255.861807 
L 149.303523 221.705973 
L 149.954134 266.633216 
L 150.604744 235.655699 
L 151.255354 233.49994 
L 151.905965 238.448503 
L 152.556575 240.375687 
L 153.207185 233.249023 
L 153.857796 235.071081 
L 154.508406 235.253963 
L 155.159016 213.017008 
L 155.809627 203.132659 
L 156.460237 197.535545 
L 157.110847 243.140331 
L 157.761457 207.007465 
L 159.062678 239.914945 
L 159.713288 215.876228 
L 160.363899 237.331929 
L 161.014509 240.308147 
L 161.665119 218.18947 
L 162.31573 273.608957 
L 162.96634 229.63223 
L 163.61695 219.681463 
L 164.267561 253.343648 
L 164.918171 209.531053 
L 165.568781 240.197964 
L 166.870002 204.227246 
L 167.520612 208.469132 
L 168.171222 242.272272 
L 168.821833 218.77734 
L 169.472443 223.141068 
L 170.123053 206.422845 
L 170.773664 213.969223 
L 171.424274 199.22169 
L 172.074884 203.962223 
L 172.725495 209.781778 
L 173.376105 211.795098 
L 174.026715 242.223114 
L 174.677326 225.684962 
L 175.327936 239.252585 
L 175.978546 238.641266 
L 176.629156 258.103602 
L 177.279767 231.218144 
L 177.930377 246.710601 
L 178.580987 237.851152 
L 179.231598 286.513119 
L 179.882208 278.892353 
L 180.532818 257.637894 
L 181.183429 223.193546 
L 181.834039 223.190089 
L 182.484649 231.857441 
L 183.13526 229.592608 
L 183.78587 216.949145 
L 184.43648 229.165845 
L 185.087091 221.413159 
L 185.737701 270.357636 
L 186.388311 228.261192 
L 187.038921 242.625969 
L 187.689532 239.888926 
L 188.340142 206.32851 
L 188.990752 237.946673 
L 189.641363 241.800899 
L 190.291973 236.952602 
L 190.942583 209.169779 
L 191.593194 240.979487 
L 192.243804 254.848693 
L 192.894414 244.485794 
L 193.545025 209.617791 
L 194.195635 251.275215 
L 194.846245 239.334657 
L 195.496856 231.12062 
L 196.147466 295.488 
L 196.798076 252.015628 
L 197.448686 277.79045 
L 198.099297 218.36263 
L 198.749907 229.545266 
L 199.400517 227.689652 
L 200.051128 240.863009 
L 200.701738 261.435769 
L 201.352348 223.798025 
L 202.002959 225.955606 
L 202.653569 221.548597 
L 203.304179 215.199169 
L 203.95479 205.359868 
L 204.6054 216.790968 
L 205.25601 223.707192 
L 205.906621 265.260715 
L 206.557231 273.381088 
L 207.207841 228.520888 
L 207.858451 231.545238 
L 208.509062 212.292338 
L 209.159672 242.37156 
L 209.810282 235.086274 
L 210.460893 271.019604 
L 211.111503 246.042506 
L 211.762113 252.448722 
L 212.412724 231.814939 
L 213.063334 247.860724 
L 213.713944 213.059778 
L 214.364555 201.107242 
L 215.015165 221.681633 
L 215.665775 210.894672 
L 216.316385 226.056773 
L 217.617606 268.430463 
L 218.268216 268.695827 
L 218.918827 266.767882 
L 219.569437 220.876059 
L 220.220047 255.067184 
L 220.870658 229.20349 
L 221.521268 231.494014 
L 222.171878 211.291651 
L 222.822489 227.206817 
L 223.473099 211.788162 
L 224.123709 231.130568 
L 224.77432 224.428038 
L 225.42493 209.326667 
L 226.07554 221.517416 
L 226.72615 237.461014 
L 227.376761 238.329686 
L 228.027371 259.870184 
L 228.677981 236.471042 
L 229.328592 258.878871 
L 229.979202 255.271207 
L 231.280423 222.504182 
L 231.931033 244.10573 
L 232.581643 216.346929 
L 233.232254 216.51098 
L 233.882864 231.588697 
L 234.533474 240.971157 
L 235.184085 223.994587 
L 235.834695 236.367556 
L 236.485305 236.168929 
L 237.135915 206.213966 
L 237.786526 218.346854 
L 238.437136 244.859174 
L 239.087746 258.537312 
L 239.738357 221.224348 
L 240.388967 233.794041 
L 241.039577 254.103044 
L 241.690188 215.831881 
L 242.991408 205.506917 
L 243.642019 211.846231 
L 244.292629 230.612047 
L 244.943239 239.608141 
L 245.59385 206.887849 
L 246.24446 201.240642 
L 246.89507 263.167601 
L 247.54568 206.560827 
L 248.196291 222.9313 
L 248.846901 210.499725 
L 249.497511 206.225973 
L 250.148122 233.333726 
L 250.798732 210.434244 
L 251.449342 208.328872 
L 252.099953 252.321355 
L 252.750563 241.383399 
L 253.401173 235.080817 
L 254.051784 268.681242 
L 254.702394 229.838317 
L 255.353004 211.573952 
L 256.003615 222.429092 
L 256.654225 220.253039 
L 257.304835 220.856772 
L 257.955445 206.872924 
L 258.606056 218.749795 
L 259.256666 215.898755 
L 259.907276 244.446822 
L 260.557887 200.487439 
L 261.208497 199.723779 
L 261.859107 199.434509 
L 262.509718 236.239806 
L 263.160328 214.003082 
L 263.810938 208.108961 
L 264.461549 213.211772 
L 265.112159 220.416 
L 265.762769 204.227031 
L 266.413379 252.742406 
L 267.06399 207.972214 
L 267.7146 244.685514 
L 268.36521 213.272259 
L 269.015821 248.224971 
L 269.666431 220.024795 
L 270.967652 261.560164 
L 271.618262 246.067715 
L 272.268872 212.21361 
L 272.919483 210.431887 
L 273.570093 226.730334 
L 274.220703 250.03624 
L 274.871314 217.648271 
L 275.521924 215.206102 
L 276.172534 206.7501 
L 276.823144 227.471445 
L 277.473755 217.282856 
L 278.774975 206.150158 
L 279.425586 250.704047 
L 280.076196 264.742021 
L 280.726806 285.605187 
L 281.377417 274.319879 
L 282.028027 258.443952 
L 282.678637 221.440579 
L 283.329248 215.001585 
L 283.979858 221.352236 
L 284.630468 242.620812 
L 285.281079 234.709325 
L 285.931689 212.438696 
L 286.582299 221.35593 
L 287.232909 253.200816 
L 287.88352 217.435738 
L 288.53413 203.267469 
L 289.18474 197.214287 
L 289.835351 194.054371 
L 291.136571 267.098061 
L 291.787182 268.132187 
L 292.437792 276.849662 
L 293.088402 281.085069 
L 293.739013 277.911822 
L 294.389623 203.514554 
L 295.040233 258.560563 
L 295.690844 222.270686 
L 296.341454 209.661889 
L 296.992064 268.795501 
L 297.642674 212.642697 
L 298.293285 201.315309 
L 298.943895 206.726152 
L 299.594505 204.808112 
L 300.245116 196.686672 
L 300.895726 202.108645 
L 301.546336 206.224882 
L 302.196947 243.482505 
L 302.847557 260.679828 
L 303.498167 244.192826 
L 304.148778 282.106815 
L 304.799388 236.048101 
L 305.449998 231.889464 
L 306.100608 236.965639 
L 306.751219 210.037649 
L 307.401829 204.593908 
L 308.052439 208.248876 
L 308.70305 210.511161 
L 309.35366 240.603748 
L 310.00427 220.360569 
L 310.654881 237.365394 
L 311.305491 212.816547 
L 311.956101 208.261038 
L 312.606712 232.740785 
L 313.257322 251.194799 
L 313.907932 222.877591 
L 314.558543 247.332936 
L 315.209153 206.394283 
L 315.859763 227.501159 
L 316.510373 226.647412 
L 317.160984 214.254905 
L 317.811594 225.07267 
L 318.462204 228.229765 
L 319.112815 245.511879 
L 319.763425 219.372307 
L 320.414035 211.905021 
L 321.064646 191.658521 
L 321.715256 222.592819 
L 322.365866 196.80014 
L 323.016477 205.084782 
L 323.667087 207.634335 
L 324.317697 196.501791 
L 326.269528 189.095494 
L 326.920138 196.902216 
L 327.570749 207.504667 
L 328.221359 211.156799 
L 328.871969 193.23684 
L 329.52258 199.299053 
L 330.17319 218.345719 
L 330.8238 219.708517 
L 331.474411 204.566354 
L 332.125021 206.988864 
L 332.775631 221.068703 
L 333.426242 217.613738 
L 334.076852 217.863798 
L 334.727462 201.009925 
L 335.378073 208.225035 
L 336.028683 200.561935 
L 336.679293 199.77841 
L 337.329903 200.419094 
L 337.980514 193.284531 
L 338.631124 224.486148 
L 339.281734 182.815892 
L 339.932345 185.061844 
L 340.582955 215.57811 
L 341.233565 184.069263 
L 341.884176 184.359172 
L 342.534786 189.880196 
L 343.185396 201.750693 
L 343.836007 193.836085 
L 344.486617 189.081108 
L 345.137227 199.578281 
L 345.787837 228.648902 
L 346.438448 203.789061 
L 347.089058 192.507615 
L 347.739668 211.043936 
L 348.390279 202.910434 
L 349.040889 196.697734 
L 349.691499 211.127214 
L 350.34211 228.450838 
L 350.99272 193.712319 
L 351.64333 220.85381 
L 352.293941 201.007525 
L 352.944551 196.890578 
L 353.595161 218.997877 
L 354.245772 200.355268 
L 354.896382 209.523594 
L 355.546992 206.360642 
L 356.197602 201.782495 
L 356.848213 208.065937 
L 357.498823 239.122109 
L 358.149433 209.166062 
L 359.450654 198.855238 
L 360.101264 221.032415 
L 360.751875 207.739358 
L 361.402485 215.832195 
L 362.053095 202.118761 
L 362.703706 207.278797 
L 363.354316 200.924464 
L 364.004926 197.165253 
L 364.655537 188.141667 
L 365.306147 187.716316 
L 365.956757 205.144571 
L 366.607367 196.980886 
L 367.257978 214.923823 
L 367.908588 199.271341 
L 368.559198 222.870687 
L 369.209809 220.616478 
L 369.860419 190.188497 
L 370.511029 184.712113 
L 371.16164 202.092482 
L 371.81225 196.532101 
L 372.46286 193.585628 
L 373.113471 185.533728 
L 373.764081 180.222942 
L 374.414691 186.457973 
L 375.065302 194.618877 
L 375.715912 191.195544 
L 376.366522 189.279408 
L 377.017132 189.909955 
L 377.667743 188.384543 
L 378.318353 189.520587 
L 378.968963 211.685972 
L 379.619574 188.984295 
L 380.270184 186.835954 
L 380.920794 178.556603 
L 381.571405 200.441314 
L 382.222015 192.808723 
L 382.872625 181.731192 
L 383.523236 183.385622 
L 384.173846 184.045141 
L 384.824456 180.035506 
L 385.475066 189.56096 
L 386.125677 189.673498 
L 386.776287 196.436202 
L 387.426897 187.971912 
L 388.728118 226.258565 
L 389.378728 206.839465 
L 390.029339 241.490694 
L 390.679949 217.200829 
L 391.330559 231.879571 
L 391.98117 208.329812 
L 392.63178 215.719197 
L 393.28239 202.625686 
L 393.933001 194.264423 
L 394.583611 197.272794 
L 395.234221 200.952752 
L 395.884831 219.813452 
L 396.535442 203.199359 
L 397.186052 193.069459 
L 397.836662 196.909853 
L 398.487273 196.106357 
L 398.487273 196.106357 
" clip-path="url(#pb707758403)" style="fill: none; stroke-dasharray: 9.6,2.4,1.5,2.4; stroke-dashoffset: 0; stroke: #008000; stroke-width: 1.5"/>
   </g>
   <g id="line2d_25">
    <path d="M 73.832727 157.173674 
L 74.483338 132.598237 
L 75.133948 147.551791 
L 75.784558 128.017191 
L 76.435169 112.768041 
L 77.085779 110.544165 
L 77.736389 123.6826 
L 78.386999 108.880137 
L 79.03761 120.887243 
L 79.68822 96.685212 
L 80.33883 124.668189 
L 80.989441 113.227214 
L 81.640051 122.192479 
L 82.290661 134.371627 
L 82.941272 118.023079 
L 83.591882 119.65989 
L 84.242492 133.339908 
L 84.893103 116.153975 
L 85.543713 91.363912 
L 86.194323 129.112827 
L 86.844934 119.611747 
L 87.495544 123.487846 
L 88.146154 109.934355 
L 88.796764 112.110947 
L 89.447375 90.938696 
L 90.097985 97.55014 
L 90.748595 115.460613 
L 91.399206 119.604117 
L 92.049816 96.053552 
L 92.700426 122.203231 
L 93.351037 128.978037 
L 94.001647 99.247206 
L 94.652257 124.45098 
L 95.302868 92.100122 
L 95.953478 131.237518 
L 96.604088 127.674342 
L 97.254698 84.803558 
L 97.905309 82.968522 
L 98.555919 110.977791 
L 99.206529 113.045576 
L 99.85714 97.936576 
L 100.50775 87.762076 
L 101.15836 104.585498 
L 101.808971 106.139719 
L 102.459581 100.340881 
L 103.110191 98.968595 
L 103.760802 99.845532 
L 104.411412 91.910865 
L 105.062022 100.763147 
L 105.712633 105.597121 
L 106.363243 115.135259 
L 107.013853 109.919691 
L 107.664463 119.228391 
L 108.315074 111.044212 
L 108.965684 87.648676 
L 109.616294 117.674348 
L 110.266905 104.89625 
L 110.917515 103.233745 
L 111.568125 98.767693 
L 112.218736 81.820367 
L 112.869346 99.139896 
L 113.519956 109.194682 
L 114.170567 83.213608 
L 114.821177 92.758185 
L 115.471787 89.20295 
L 116.122398 103.337448 
L 116.773008 95.445608 
L 117.423618 83.334153 
L 118.074228 92.303867 
L 118.724839 84.667886 
L 119.375449 97.066192 
L 120.026059 96.264023 
L 120.67667 109.646302 
L 121.32728 93.422752 
L 121.97789 102.70471 
L 122.628501 107.024558 
L 123.279111 82.216917 
L 123.929721 79.743711 
L 124.580332 112.322819 
L 125.230942 113.499453 
L 125.881552 110.309904 
L 126.532163 104.084347 
L 127.182773 104.11036 
L 127.833383 108.57478 
L 128.483993 93.840515 
L 129.134604 100.896902 
L 129.785214 89.737101 
L 130.435824 111.486084 
L 131.086435 92.758171 
L 131.737045 91.596971 
L 132.387655 109.181042 
L 133.038266 104.68825 
L 133.688876 94.446902 
L 134.339486 82.248169 
L 134.990097 94.334196 
L 135.640707 91.206966 
L 136.291317 102.421724 
L 136.941927 99.289947 
L 137.592538 108.203193 
L 138.243148 95.769059 
L 138.893758 109.431267 
L 139.544369 103.027426 
L 140.194979 86.134203 
L 140.845589 90.336094 
L 141.4962 103.452244 
L 142.14681 107.804778 
L 142.79742 98.918853 
L 143.448031 88.252149 
L 144.098641 104.865458 
L 144.749251 92.41905 
L 145.399862 95.810735 
L 146.050472 106.894161 
L 146.701082 92.032386 
L 147.351692 91.181617 
L 148.002303 91.520155 
L 148.652913 83.89498 
L 149.303523 120.640052 
L 149.954134 81.136081 
L 150.604744 101.619897 
L 151.255354 102.80576 
L 151.905965 95.640106 
L 152.556575 110.815409 
L 153.207185 107.641181 
L 153.857796 107.636841 
L 154.508406 106.195121 
L 155.159016 110.058504 
L 155.809627 105.592263 
L 156.460237 103.420092 
L 157.110847 70.757589 
L 157.761457 99.602884 
L 158.412068 89.306579 
L 159.062678 89.164311 
L 159.713288 92.169237 
L 160.363899 80.442528 
L 161.014509 76.312628 
L 161.665119 96.986761 
L 162.31573 53.568 
L 162.96634 84.619912 
L 163.61695 87.367047 
L 164.267561 69.134366 
L 164.918171 100.568827 
L 165.568781 70.880753 
L 166.219392 89.930548 
L 166.870002 100.849524 
L 167.520612 101.074112 
L 168.171222 84.308177 
L 168.821833 94.356722 
L 169.472443 97.50485 
L 170.123053 102.515874 
L 170.773664 97.490209 
L 171.424274 99.134029 
L 172.074884 99.593337 
L 172.725495 100.257336 
L 173.376105 103.305049 
L 174.026715 93.467337 
L 174.677326 102.27364 
L 175.327936 98.156602 
L 175.978546 91.437291 
L 176.629156 74.812418 
L 177.279767 102.45718 
L 177.930377 88.399678 
L 178.580987 101.037023 
L 179.231598 73.902623 
L 179.882208 71.502171 
L 181.183429 106.522501 
L 181.834039 101.15542 
L 182.484649 114.263054 
L 183.13526 104.424218 
L 183.78587 111.638684 
L 184.43648 101.107396 
L 185.087091 100.777781 
L 185.737701 72.82964 
L 186.388311 102.016416 
L 187.038921 87.937379 
L 187.689532 88.820396 
L 188.340142 102.599945 
L 188.990752 92.10607 
L 189.641363 91.50659 
L 190.291973 84.589093 
L 190.942583 105.821345 
L 191.593194 81.372592 
L 192.243804 78.260191 
L 192.894414 89.600619 
L 193.545025 108.214324 
L 194.195635 77.078545 
L 194.846245 90.943103 
L 195.496856 112.519616 
L 196.147466 77.081861 
L 196.798076 106.39244 
L 197.448686 91.570866 
L 198.099297 119.552523 
L 199.400517 102.766729 
L 200.051128 99.232252 
L 200.701738 83.250046 
L 201.352348 99.948787 
L 202.002959 103.065934 
L 202.653569 98.570766 
L 203.304179 107.157436 
L 203.95479 110.68799 
L 204.6054 99.505009 
L 205.25601 93.895469 
L 205.906621 76.774781 
L 206.557231 71.969147 
L 207.207841 94.285435 
L 207.858451 100.591547 
L 208.509062 102.2276 
L 209.159672 85.089219 
L 209.810282 75.531844 
L 210.460893 71.156167 
L 211.111503 95.406031 
L 211.762113 86.48324 
L 212.412724 95.841286 
L 213.063334 85.772508 
L 213.713944 99.815483 
L 214.364555 101.107553 
L 215.015165 97.006012 
L 215.665775 106.622887 
L 216.316385 94.141657 
L 216.966996 71.416676 
L 217.617606 67.904253 
L 218.268216 61.2545 
L 218.918827 59.278747 
L 219.569437 96.490203 
L 220.220047 68.581229 
L 220.870658 86.527212 
L 221.521268 83.183367 
L 222.171878 102.931514 
L 222.822489 90.025206 
L 223.473099 92.855203 
L 224.123709 94.757015 
L 224.77432 95.790599 
L 225.42493 104.548786 
L 226.07554 88.12148 
L 226.72615 91.877458 
L 227.376761 88.429929 
L 228.027371 72.461703 
L 228.677981 91.779877 
L 229.328592 94.380719 
L 229.979202 97.994388 
L 230.629812 107.558699 
L 231.280423 106.719491 
L 231.931033 95.203651 
L 232.581643 113.839301 
L 233.232254 109.40567 
L 233.882864 96.103164 
L 234.533474 103.039469 
L 235.184085 120.671188 
L 235.834695 96.841279 
L 236.485305 101.315807 
L 237.135915 111.124589 
L 237.786526 105.330776 
L 238.437136 96.033833 
L 239.087746 102.667114 
L 239.738357 111.915207 
L 240.388967 106.481243 
L 241.039577 94.0435 
L 241.690188 108.630448 
L 242.340798 114.564769 
L 242.991408 108.961913 
L 243.642019 109.796151 
L 244.292629 97.357277 
L 244.943239 92.961057 
L 245.59385 114.680826 
L 246.24446 108.289694 
L 246.89507 75.252743 
L 247.54568 108.509051 
L 248.196291 88.515518 
L 248.846901 111.001404 
L 249.497511 107.315197 
L 250.148122 79.457746 
L 250.798732 110.323246 
L 251.449342 107.174872 
L 252.099953 79.124682 
L 253.401173 96.833103 
L 254.051784 74.476535 
L 254.702394 95.44464 
L 255.353004 105.93738 
L 256.003615 84.784102 
L 256.654225 96.061227 
L 257.304835 97.405406 
L 257.955445 108.825818 
L 258.606056 90.264148 
L 259.256666 102.417905 
L 259.907276 84.898617 
L 260.557887 103.332037 
L 261.208497 102.077274 
L 261.859107 102.945943 
L 262.509718 77.127312 
L 263.160328 107.376471 
L 263.810938 107.078873 
L 264.461549 96.283419 
L 265.112159 93.354209 
L 265.762769 105.224444 
L 266.413379 75.092461 
L 267.06399 107.280709 
L 267.7146 85.050902 
L 268.36521 110.423601 
L 269.015821 86.194802 
L 269.666431 112.339216 
L 270.317041 98.974839 
L 270.967652 81.22813 
L 271.618262 92.575373 
L 272.268872 114.720979 
L 272.919483 110.926533 
L 273.570093 106.302207 
L 274.220703 86.666477 
L 274.871314 105.24549 
L 275.521924 111.980413 
L 276.172534 102.240967 
L 276.823144 90.713752 
L 277.473755 95.998067 
L 278.124365 103.8739 
L 278.774975 104.045043 
L 279.425586 69.332005 
L 280.076196 61.03373 
L 280.726806 54.81353 
L 281.377417 59.740389 
L 282.028027 71.814673 
L 282.678637 98.957181 
L 283.329248 109.317728 
L 283.979858 98.972084 
L 284.630468 91.396442 
L 285.281079 90.001532 
L 285.931689 111.756625 
L 287.232909 80.240111 
L 287.88352 98.805442 
L 288.53413 108.101646 
L 289.18474 103.23342 
L 289.835351 102.539498 
L 290.485961 77.479509 
L 291.136571 63.821904 
L 291.787182 66.972485 
L 292.437792 65.614706 
L 293.088402 65.658891 
L 293.739013 65.86292 
L 294.389623 113.738191 
L 295.040233 75.046914 
L 295.690844 107.482165 
L 296.341454 110.299177 
L 296.992064 69.845481 
L 297.642674 110.368782 
L 298.943895 102.450915 
L 299.594505 106.961657 
L 300.245116 103.261617 
L 300.895726 101.026085 
L 301.546336 104.672082 
L 302.196947 73.563427 
L 302.847557 79.772546 
L 303.498167 99.426172 
L 304.148778 69.356527 
L 304.799388 95.579401 
L 305.449998 98.654786 
L 306.100608 86.284361 
L 306.751219 98.620346 
L 307.401829 103.213537 
L 308.052439 88.187043 
L 308.70305 105.849176 
L 309.35366 78.304621 
L 310.00427 98.949224 
L 310.654881 86.888138 
L 311.305491 108.266273 
L 311.956101 103.950104 
L 312.606712 80.611237 
L 313.257322 75.073623 
L 313.907932 95.891825 
L 314.558543 86.199954 
L 315.209153 104.943837 
L 315.859763 99.020947 
L 316.510373 100.499145 
L 317.160984 101.090057 
L 318.462204 94.77281 
L 319.112815 81.69652 
L 319.763425 97.336783 
L 320.414035 100.81569 
L 321.064646 101.563233 
L 321.715256 83.879303 
L 322.365866 99.466502 
L 323.016477 83.709571 
L 323.667087 91.333414 
L 324.317697 101.858261 
L 324.968308 101.746851 
L 325.618918 97.557341 
L 326.269528 97.093758 
L 327.570749 86.243071 
L 328.221359 83.449691 
L 328.871969 97.968412 
L 329.52258 88.980469 
L 330.17319 83.999042 
L 330.8238 85.692625 
L 331.474411 100.269439 
L 332.125021 87.849773 
L 332.775631 87.438503 
L 333.426242 85.618084 
L 334.076852 91.005129 
L 334.727462 97.867238 
L 335.378073 82.373032 
L 336.028683 98.258172 
L 336.679293 98.626764 
L 337.329903 93.451522 
L 337.980514 97.287072 
L 338.631124 75.22529 
L 339.281734 95.410581 
L 339.932345 94.097973 
L 340.582955 70.127465 
L 341.233565 94.520766 
L 341.884176 93.197161 
L 342.534786 94.512593 
L 343.185396 90.906236 
L 343.836007 97.282556 
L 344.486617 94.964675 
L 345.137227 89.288403 
L 345.787837 86.22687 
L 346.438448 101.250774 
L 347.089058 96.549685 
L 347.739668 89.863647 
L 348.390279 99.827151 
L 349.040889 98.245308 
L 349.691499 82.370299 
L 350.34211 70.25624 
L 350.99272 97.999073 
L 351.64333 78.785506 
L 352.944551 97.448144 
L 353.595161 93.977636 
L 354.245772 100.399088 
L 354.896382 89.280385 
L 355.546992 105.531922 
L 356.197602 102.088565 
L 356.848213 89.8793 
L 357.498823 82.67716 
L 358.149433 99.647036 
L 358.800044 102.281188 
L 359.450654 97.98203 
L 360.101264 81.91649 
L 360.751875 94.664878 
L 361.402485 89.285721 
L 362.053095 100.795359 
L 362.703706 91.395507 
L 363.354316 94.926052 
L 364.004926 96.027185 
L 365.306147 94.868635 
L 365.956757 82.501028 
L 366.607367 98.061172 
L 367.257978 75.111841 
L 367.908588 88.622394 
L 368.559198 77.574332 
L 369.209809 81.083937 
L 369.860419 95.809007 
L 370.511029 89.600799 
L 371.16164 89.923583 
L 371.81225 96.646549 
L 372.46286 91.812246 
L 373.113471 95.028374 
L 373.764081 92.331748 
L 374.414691 93.787672 
L 375.065302 94.56734 
L 376.366522 94.304318 
L 377.017132 94.427675 
L 378.318353 94.30676 
L 378.968963 71.543193 
L 379.619574 91.536679 
L 380.270184 93.682215 
L 380.920794 92.088943 
L 381.571405 83.061212 
L 382.222015 96.477045 
L 382.872625 92.690338 
L 383.523236 93.802683 
L 384.173846 94.179287 
L 384.824456 91.833383 
L 385.475066 94.620746 
L 386.125677 94.062498 
L 386.776287 94.665967 
L 387.426897 93.738618 
L 388.728118 63.607169 
L 389.378728 86.999451 
L 390.029339 74.72675 
L 390.679949 87.79264 
L 391.330559 77.297451 
L 391.98117 103.283743 
L 392.63178 92.195115 
L 393.28239 101.654204 
L 393.933001 96.883436 
L 394.583611 94.233497 
L 395.234221 95.569016 
L 395.884831 77.244625 
L 396.535442 94.357274 
L 397.186052 90.715112 
L 397.836662 96.203941 
L 398.487273 93.224521 
L 398.487273 93.224521 
" clip-path="url(#pb707758403)" style="fill: none; stroke-dasharray: 9.6,2.4,1.5,2.4; stroke-dashoffset: 0; stroke: #008000; stroke-width: 1.5"/>
   </g>
   <g id="line2d_26">
    <path d="M 73.832727 100.891727 
L 74.483338 99.022703 
L 75.784558 99.022703 
L 76.435169 80.261488 
L 222.171878 80.261488 
L 222.822489 75.982974 
L 398.487273 75.982974 
L 398.487273 75.982974 
" clip-path="url(#pb707758403)" style="fill: none; stroke: #ff0000; stroke-width: 1.5; stroke-linecap: square"/>
   </g>
   <g id="patch_3">
    <path d="M 57.6 307.584 
L 57.6 41.472 
" style="fill: none; stroke: #000000; stroke-width: 0.8; stroke-linejoin: miter; stroke-linecap: square"/>
   </g>
   <g id="patch_4">
    <path d="M 414.72 307.584 
L 414.72 41.472 
" style="fill: none; stroke: #000000; stroke-width: 0.8; stroke-linejoin: miter; stroke-linecap: square"/>
   </g>
   <g id="patch_5">
    <path d="M 57.6 307.584 
L 414.72 307.584 
" style="fill: none; stroke: #000000; stroke-width: 0.8; stroke-linejoin: miter; stroke-linecap: square"/>
   </g>
   <g id="patch_6">
    <path d="M 57.6 41.472 
L 414.72 41.472 
" style="fill: none; stroke: #000000; stroke-width: 0.8; stroke-linejoin: miter; stroke-linecap: square"/>
   </g>
   <g id="text_14">
    <!-- Population's average and best fitness -->
    <g transform="translate(123.529687 35.472) scale(0.12 -0.12)">
     <defs>
      <path id="DejaVuSans-50" d="M 1259 4147 
L 1259 2394 
L 2053 2394 
Q 2494 2394 2734 2622 
Q 2975 2850 2975 3272 
Q 2975 3691 2734 3919 
Q 2494 4147 2053 4147 
L 1259 4147 
z
M 628 4666 
L 2053 4666 
Q 2838 4666 3239 4311 
Q 3641 3956 3641 3272 
Q 3641 2581 3239 2228 
Q 2838 1875 2053 1875 
L 1259 1875 
L 1259 0 
L 628 0 
L 628 4666 
z
" transform="scale(0.015625)"/>
      <path id="DejaVuSans-70" d="M 1159 525 
L 1159 -1331 
L 581 -1331 
L 581 3500 
L 1159 3500 
L 1159 2969 
Q 1341 3281 1617 3432 
Q 1894 3584 2278 3584 
Q 2916 3584 3314 3078 
Q 3713 2572 3713 1747 
Q 3713 922 3314 415 
Q 2916 -91 2278 -91 
Q 1894 -91 1617 61 
Q 1341 213 1159 525 
z
M 3116 1747 
Q 3116 2381 2855 2742 
Q 2594 3103 2138 3103 
Q 1681 3103 1420 2742 
Q 1159 2381 1159 1747 
Q 1159 1113 1420 752 
Q 1681 391 2138 391 
Q 2594 391 2855 752 
Q 3116 1113 3116 1747 
z
" transform="scale(0.015625)"/>
      <path id="DejaVuSans-75" d="M 544 1381 
L 544 3500 
L 1119 3500 
L 1119 1403 
Q 1119 906 1312 657 
Q 1506 409 1894 409 
Q 2359 409 2629 706 
Q 2900 1003 2900 1516 
L 2900 3500 
L 3475 3500 
L 3475 0 
L 2900 0 
L 2900 538 
Q 2691 219 2414 64 
Q 2138 -91 1772 -91 
Q 1169 -91 856 284 
Q 544 659 544 1381 
z
M 1991 3584 
L 1991 3584 
z
" transform="scale(0.015625)"/>
      <path id="DejaVuSans-6c" d="M 603 4863 
L 1178 4863 
L 1178 0 
L 603 0 
L 603 4863 
z
" transform="scale(0.015625)"/>
      <path id="DejaVuSans-27" d="M 1147 4666 
L 1147 2931 
L 616 2931 
L 616 4666 
L 1147 4666 
z
" transform="scale(0.015625)"/>
      <path id="DejaVuSans-20" transform="scale(0.015625)"/>
      <path id="DejaVuSans-76" d="M 191 3500 
L 800 3500 
L 1894 563 
L 2988 3500 
L 3597 3500 
L 2284 0 
L 1503 0 
L 191 3500 
z
" transform="scale(0.015625)"/>
      <path id="DejaVuSans-67" d="M 2906 1791 
Q 2906 2416 2648 2759 
Q 2391 3103 1925 3103 
Q 1463 3103 1205 2759 
Q 947 2416 947 1791 
Q 947 1169 1205 825 
Q 1463 481 1925 481 
Q 2391 481 2648 825 
Q 2906 1169 2906 1791 
z
M 3481 434 
Q 3481 -459 3084 -895 
Q 2688 -1331 1869 -1331 
Q 1566 -1331 1297 -1286 
Q 1028 -1241 775 -1147 
L 775 -588 
Q 1028 -725 1275 -790 
Q 1522 -856 1778 -856 
Q 2344 -856 2625 -561 
Q 2906 -266 2906 331 
L 2906 616 
Q 2728 306 2450 153 
Q 2172 0 1784 0 
Q 1141 0 747 490 
Q 353 981 353 1791 
Q 353 2603 747 3093 
Q 1141 3584 1784 3584 
Q 2172 3584 2450 3431 
Q 2728 3278 2906 2969 
L 2906 3500 
L 3481 3500 
L 3481 434 
z
" transform="scale(0.015625)"/>
      <path id="DejaVuSans-64" d="M 2906 2969 
L 2906 4863 
L 3481 4863 
L 3481 0 
L 2906 0 
L 2906 525 
Q 2725 213 2448 61 
Q 2172 -91 1784 -91 
Q 1150 -91 751 415 
Q 353 922 353 1747 
Q 353 2572 751 3078 
Q 1150 3584 1784 3584 
Q 2172 3584 2448 3432 
Q 2725 3281 2906 2969 
z
M 947 1747 
Q 947 1113 1208 752 
Q 1469 391 1925 391 
Q 2381 391 2643 752 
Q 2906 1113 2906 1747 
Q 2906 2381 2643 2742 
Q 2381 3103 1925 3103 
Q 1469 3103 1208 2742 
Q 947 2381 947 1747 
z
" transform="scale(0.015625)"/>
      <path id="DejaVuSans-62" d="M 3116 1747 
Q 3116 2381 2855 2742 
Q 2594 3103 2138 3103 
Q 1681 3103 1420 2742 
Q 1159 2381 1159 1747 
Q 1159 1113 1420 752 
Q 1681 391 2138 391 
Q 2594 391 2855 752 
Q 3116 1113 3116 1747 
z
M 1159 2969 
Q 1341 3281 1617 3432 
Q 1894 3584 2278 3584 
Q 2916 3584 3314 3078 
Q 3713 2572 3713 1747 
Q 3713 922 3314 415 
Q 2916 -91 2278 -91 
Q 1894 -91 1617 61 
Q 1341 213 1159 525 
L 1159 0 
L 581 0 
L 581 4863 
L 1159 4863 
L 1159 2969 
z
" transform="scale(0.015625)"/>
      <path id="DejaVuSans-66" d="M 2375 4863 
L 2375 4384 
L 1825 4384 
Q 1516 4384 1395 4259 
Q 1275 4134 1275 3809 
L 1275 3500 
L 2222 3500 
L 2222 3053 
L 1275 3053 
L 1275 0 
L 697 0 
L 697 3053 
L 147 3053 
L 147 3500 
L 697 3500 
L 697 3744 
Q 697 4328 969 4595 
Q 1241 4863 1831 4863 
L 2375 4863 
z
" transform="scale(0.015625)"/>
     </defs>
     <use xlink:href="#DejaVuSans-50"/>
     <use xlink:href="#DejaVuSans-6f" transform="translate(56.677734 0)"/>
     <use xlink:href="#DejaVuSans-70" transform="translate(117.859375 0)"/>
     <use xlink:href="#DejaVuSans-75" transform="translate(181.335938 0)"/>
     <use xlink:href="#DejaVuSans-6c" transform="translate(244.714844 0)"/>
     <use xlink:href="#DejaVuSans-61" transform="translate(272.498047 0)"/>
     <use xlink:href="#DejaVuSans-74" transform="translate(333.777344 0)"/>
     <use xlink:href="#DejaVuSans-69" transform="translate(372.986328 0)"/>
     <use xlink:href="#DejaVuSans-6f" transform="translate(400.769531 0)"/>
     <use xlink:href="#DejaVuSans-6e" transform="translate(461.951172 0)"/>
     <use xlink:href="#DejaVuSans-27" transform="translate(525.330078 0)"/>
     <use xlink:href="#DejaVuSans-73" transform="translate(552.820312 0)"/>
     <use xlink:href="#DejaVuSans-20" transform="translate(604.919922 0)"/>
     <use xlink:href="#DejaVuSans-61" transform="translate(636.707031 0)"/>
     <use xlink:href="#DejaVuSans-76" transform="translate(697.986328 0)"/>
     <use xlink:href="#DejaVuSans-65" transform="translate(757.166016 0)"/>
     <use xlink:href="#DejaVuSans-72" transform="translate(818.689453 0)"/>
     <use xlink:href="#DejaVuSans-61" transform="translate(859.802734 0)"/>
     <use xlink:href="#DejaVuSans-67" transform="translate(921.082031 0)"/>
     <use xlink:href="#DejaVuSans-65" transform="translate(984.558594 0)"/>
     <use xlink:href="#DejaVuSans-20" transform="translate(1046.082031 0)"/>
     <use xlink:href="#DejaVuSans-61" transform="translate(1077.869141 0)"/>
     <use xlink:href="#DejaVuSans-6e" transform="translate(1139.148438 0)"/>
     <use xlink:href="#DejaVuSans-64" transform="translate(1202.527344 0)"/>
     <use xlink:href="#DejaVuSans-20" transform="translate(1266.003906 0)"/>
     <use xlink:href="#DejaVuSans-62" transform="translate(1297.791016 0)"/>
     <use xlink:href="#DejaVuSans-65" transform="translate(1361.267578 0)"/>
     <use xlink:href="#DejaVuSans-73" transform="translate(1422.791016 0)"/>
     <use xlink:href="#DejaVuSans-74" transform="translate(1474.890625 0)"/>
     <use xlink:href="#DejaVuSans-20" transform="translate(1514.099609 0)"/>
     <use xlink:href="#DejaVuSans-66" transform="translate(1545.886719 0)"/>
     <use xlink:href="#DejaVuSans-69" transform="translate(1581.091797 0)"/>
     <use xlink:href="#DejaVuSans-74" transform="translate(1608.875 0)"/>
     <use xlink:href="#DejaVuSans-6e" transform="translate(1648.083984 0)"/>
     <use xlink:href="#DejaVuSans-65" transform="translate(1711.462891 0)"/>
     <use xlink:href="#DejaVuSans-73" transform="translate(1772.986328 0)"/>
     <use xlink:href="#DejaVuSans-73" transform="translate(1825.085938 0)"/>
    </g>
   </g>
   <g id="legend_1">
    <g id="patch_7">
     <path d="M 334.779375 302.584 
L 407.72 302.584 
Q 409.72 302.584 409.72 300.584 
L 409.72 242.8715 
Q 409.72 240.8715 407.72 240.8715 
L 334.779375 240.8715 
Q 332.779375 240.8715 332.779375 242.8715 
L 332.779375 300.584 
Q 332.779375 302.584 334.779375 302.584 
z
" style="fill: #ffffff; opacity: 0.8; stroke: #cccccc; stroke-linejoin: miter"/>
    </g>
    <g id="line2d_27">
     <path d="M 336.779375 248.969937 
L 346.779375 248.969937 
L 356.779375 248.969937 
" style="fill: none; stroke: #0000ff; stroke-width: 1.5; stroke-linecap: square"/>
    </g>
    <g id="text_15">
     <!-- average -->
     <g transform="translate(364.779375 252.469937) scale(0.1 -0.1)">
      <use xlink:href="#DejaVuSans-61"/>
      <use xlink:href="#DejaVuSans-76" transform="translate(61.279297 0)"/>
      <use xlink:href="#DejaVuSans-65" transform="translate(120.458984 0)"/>
      <use xlink:href="#DejaVuSans-72" transform="translate(181.982422 0)"/>
      <use xlink:href="#DejaVuSans-61" transform="translate(223.095703 0)"/>
      <use xlink:href="#DejaVuSans-67" transform="translate(284.375 0)"/>
      <use xlink:href="#DejaVuSans-65" transform="translate(347.851562 0)"/>
     </g>
    </g>
    <g id="line2d_28">
     <path d="M 336.779375 263.648062 
L 346.779375 263.648062 
L 356.779375 263.648062 
" style="fill: none; stroke-dasharray: 9.6,2.4,1.5,2.4; stroke-dashoffset: 0; stroke: #008000; stroke-width: 1.5"/>
    </g>
    <g id="text_16">
     <!-- -1 sd -->
     <g transform="translate(364.779375 267.148062) scale(0.1 -0.1)">
      <defs>
       <path id="DejaVuSans-2d" d="M 313 2009 
L 1997 2009 
L 1997 1497 
L 313 1497 
L 313 2009 
z
" transform="scale(0.015625)"/>
      </defs>
      <use xlink:href="#DejaVuSans-2d"/>
      <use xlink:href="#DejaVuSans-31" transform="translate(36.083984 0)"/>
      <use xlink:href="#DejaVuSans-20" transform="translate(99.707031 0)"/>
      <use xlink:href="#DejaVuSans-73" transform="translate(131.494141 0)"/>
      <use xlink:href="#DejaVuSans-64" transform="translate(183.59375 0)"/>
     </g>
    </g>
    <g id="line2d_29">
     <path d="M 336.779375 278.326187 
L 346.779375 278.326187 
L 356.779375 278.326187 
" style="fill: none; stroke-dasharray: 9.6,2.4,1.5,2.4; stroke-dashoffset: 0; stroke: #008000; stroke-width: 1.5"/>
    </g>
    <g id="text_17">
     <!-- +1 sd -->
     <g transform="translate(364.779375 281.826187) scale(0.1 -0.1)">
      <defs>
       <path id="DejaVuSans-2b" d="M 2944 4013 
L 2944 2272 
L 4684 2272 
L 4684 1741 
L 2944 1741 
L 2944 0 
L 2419 0 
L 2419 1741 
L 678 1741 
L 678 2272 
L 2419 2272 
L 2419 4013 
L 2944 4013 
z
" transform="scale(0.015625)"/>
      </defs>
      <use xlink:href="#DejaVuSans-2b"/>
      <use xlink:href="#DejaVuSans-31" transform="translate(83.789062 0)"/>
      <use xlink:href="#DejaVuSans-20" transform="translate(147.412109 0)"/>
      <use xlink:href="#DejaVuSans-73" transform="translate(179.199219 0)"/>
      <use xlink:href="#DejaVuSans-64" transform="translate(231.298828 0)"/>
     </g>
    </g>
    <g id="line2d_30">
     <path d="M 336.779375 293.004312 
L 346.779375 293.004312 
L 356.779375 293.004312 
" style="fill: none; stroke: #ff0000; stroke-width: 1.5; stroke-linecap: square"/>
    </g>
    <g id="text_18">
     <!-- best -->
     <g transform="translate(364.779375 296.504312) scale(0.1 -0.1)">
      <use xlink:href="#DejaVuSans-62"/>
      <use xlink:href="#DejaVuSans-65" transform="translate(63.476562 0)"/>
      <use xlink:href="#DejaVuSans-73" transform="translate(125 0)"/>
      <use xlink:href="#DejaVuSans-74" transform="translate(177.099609 0)"/>
     </g>
    </g>
   </g>
  </g>
 </g>
 <defs>
  <clipPath id="pb707758403">
   <rect x="57.6" y="41.472" width="357.12" height="266.112"/>
  </clipPath>
 </defs>
</svg>
