<?xml version="1.0" encoding="UTF-8" standalone="no"?>
<!DOCTYPE svg PUBLIC "-//W3C//DTD SVG 1.1//EN"
 "http://www.w3.org/Graphics/SVG/1.1/DTD/svg11.dtd">
<!-- Generated by graphviz version 12.2.1 (20241206.2353)
 -->
<!-- Pages: 1 -->
<svg width="792pt" height="279pt"
 viewBox="0.00 0.00 792.04 278.75" xmlns="http://www.w3.org/2000/svg" xmlns:xlink="http://www.w3.org/1999/xlink">
<g id="graph0" class="graph" transform="scale(1 1) rotate(0) translate(4 274.75)">
<polygon fill="white" stroke="none" points="-4,4 -4,-274.75 788.04,-274.75 788.04,4 -4,4"/>
<!-- &#45;1 -->
<g id="node1" class="node">
<title>&#45;1</title>
<polygon fill="lightgray" stroke="black" points="35.79,-270.75 12.29,-270.75 12.29,-252.25 35.79,-252.25 35.79,-270.75"/>
<text text-anchor="middle" x="24.04" y="-258.2" font-family="Times New Roman,serif" font-size="9.00">&#45;1</text>
</g>
<!-- 4987 -->
<g id="node23" class="node">
<title>4987</title>
<ellipse fill="white" stroke="black" cx="24.04" cy="-192.21" rx="24.04" ry="24.04"/>
<text text-anchor="middle" x="24.04" y="-188.91" font-family="Times New Roman,serif" font-size="9.00">4987</text>
</g>
<!-- &#45;1&#45;&gt;4987 -->
<g id="edge14" class="edge">
<title>&#45;1&#45;&gt;4987</title>
<path fill="none" stroke="green" stroke-width="0.68" d="M24.04,-251.98C24.04,-245.69 24.04,-236.69 24.04,-227.61"/>
<polygon fill="green" stroke="green" stroke-width="0.68" points="27.54,-227.72 24.04,-217.72 20.54,-227.72 27.54,-227.72"/>
</g>
<!-- &#45;2 -->
<g id="node2" class="node">
<title>&#45;2</title>
<polygon fill="lightgray" stroke="black" points="176.79,-270.75 153.29,-270.75 153.29,-252.25 176.79,-252.25 176.79,-270.75"/>
<text text-anchor="middle" x="165.04" y="-258.2" font-family="Times New Roman,serif" font-size="9.00">&#45;2</text>
</g>
<!-- &#45;3 -->
<g id="node3" class="node">
<title>&#45;3</title>
<polygon fill="lightgray" stroke="black" points="416.79,-270.75 393.29,-270.75 393.29,-252.25 416.79,-252.25 416.79,-270.75"/>
<text text-anchor="middle" x="405.04" y="-258.2" font-family="Times New Roman,serif" font-size="9.00">&#45;3</text>
</g>
<!-- &#45;4 -->
<g id="node4" class="node">
<title>&#45;4</title>
<polygon fill="lightgray" stroke="black" points="397.79,-201.46 374.29,-201.46 374.29,-182.96 397.79,-182.96 397.79,-201.46"/>
<text text-anchor="middle" x="386.04" y="-188.91" font-family="Times New Roman,serif" font-size="9.00">&#45;4</text>
</g>
<!-- 3625 -->
<g id="node20" class="node">
<title>3625</title>
<ellipse fill="white" stroke="black" cx="357.04" cy="-108.12" rx="24.04" ry="24.04"/>
<text text-anchor="middle" x="357.04" y="-104.82" font-family="Times New Roman,serif" font-size="9.00">3625</text>
</g>
<!-- &#45;4&#45;&gt;3625 -->
<g id="edge8" class="edge">
<title>&#45;4&#45;&gt;3625</title>
<path fill="none" stroke="green" stroke-width="0.37" d="M383.05,-182.73C379.56,-172.85 373.58,-155.95 368.24,-140.83"/>
<polygon fill="green" stroke="green" stroke-width="0.37" points="371.68,-140.04 365.05,-131.78 365.08,-142.37 371.68,-140.04"/>
</g>
<!-- &#45;5 -->
<g id="node5" class="node">
<title>&#45;5</title>
<polygon fill="lightgray" stroke="black" points="603.79,-270.75 580.29,-270.75 580.29,-252.25 603.79,-252.25 603.79,-270.75"/>
<text text-anchor="middle" x="592.04" y="-258.2" font-family="Times New Roman,serif" font-size="9.00">&#45;5</text>
</g>
<!-- &#45;6 -->
<g id="node6" class="node">
<title>&#45;6</title>
<polygon fill="lightgray" stroke="black" points="645.79,-270.75 622.29,-270.75 622.29,-252.25 645.79,-252.25 645.79,-270.75"/>
<text text-anchor="middle" x="634.04" y="-258.2" font-family="Times New Roman,serif" font-size="9.00">&#45;6</text>
</g>
<!-- &#45;7 -->
<g id="node7" class="node">
<title>&#45;7</title>
<polygon fill="lightgray" stroke="black" points="155.79,-201.46 132.29,-201.46 132.29,-182.96 155.79,-182.96 155.79,-201.46"/>
<text text-anchor="middle" x="144.04" y="-188.91" font-family="Times New Roman,serif" font-size="9.00">&#45;7</text>
</g>
<!-- 0 -->
<g id="node16" class="node">
<title>0</title>
<ellipse fill="lightblue" stroke="black" cx="192.04" cy="-108.12" rx="14.5" ry="14.5"/>
<text text-anchor="middle" x="192.04" y="-104.82" font-family="Times New Roman,serif" font-size="9.00">0</text>
</g>
<!-- &#45;7&#45;&gt;0 -->
<g id="edge19" class="edge">
<title>&#45;7&#45;&gt;0</title>
<path fill="none" stroke="red" stroke-width="0.44" d="M149,-182.73C156.23,-170.36 169.91,-146.97 179.92,-129.86"/>
<polygon fill="red" stroke="red" stroke-width="0.44" points="182.67,-132.09 184.7,-121.69 176.63,-128.55 182.67,-132.09"/>
</g>
<!-- 4722 -->
<g id="node21" class="node">
<title>4722</title>
<ellipse fill="white" stroke="black" cx="174.04" cy="-24.04" rx="24.04" ry="24.04"/>
<text text-anchor="middle" x="174.04" y="-20.74" font-family="Times New Roman,serif" font-size="9.00">4722</text>
</g>
<!-- &#45;7&#45;&gt;4722 -->
<g id="edge11" class="edge">
<title>&#45;7&#45;&gt;4722</title>
<path fill="none" stroke="red" stroke-width="0.19" d="M145.57,-182.74C149.66,-160.09 161.01,-97.21 168.09,-58.03"/>
<polygon fill="red" stroke="red" stroke-width="0.19" points="171.49,-58.89 169.82,-48.43 164.6,-57.65 171.49,-58.89"/>
</g>
<!-- &#45;8 -->
<g id="node8" class="node">
<title>&#45;8</title>
<polygon fill="lightgray" stroke="black" points="439.79,-201.46 416.29,-201.46 416.29,-182.96 439.79,-182.96 439.79,-201.46"/>
<text text-anchor="middle" x="428.04" y="-188.91" font-family="Times New Roman,serif" font-size="9.00">&#45;8</text>
</g>
<!-- 1 -->
<g id="node17" class="node">
<title>1</title>
<ellipse fill="lightblue" stroke="black" cx="455.04" cy="-108.12" rx="14.5" ry="14.5"/>
<text text-anchor="middle" x="455.04" y="-104.82" font-family="Times New Roman,serif" font-size="9.00">1</text>
</g>
<!-- &#45;8&#45;&gt;1 -->
<g id="edge12" class="edge">
<title>&#45;8&#45;&gt;1</title>
<path fill="none" stroke="red" stroke-width="0.52" d="M430.83,-182.73C434.7,-170.97 441.84,-149.26 447.37,-132.45"/>
<polygon fill="red" stroke="red" stroke-width="0.52" points="450.68,-133.6 450.48,-123 444.03,-131.41 450.68,-133.6"/>
</g>
<!-- &#45;9 -->
<g id="node9" class="node">
<title>&#45;9</title>
<polygon fill="lightgray" stroke="black" points="355.79,-201.46 332.29,-201.46 332.29,-182.96 355.79,-182.96 355.79,-201.46"/>
<text text-anchor="middle" x="344.04" y="-188.91" font-family="Times New Roman,serif" font-size="9.00">&#45;9</text>
</g>
<!-- &#45;9&#45;&gt;0 -->
<g id="edge4" class="edge">
<title>&#45;9&#45;&gt;0</title>
<path fill="none" stroke="green" stroke-width="0.62" stroke-dasharray="1,5" d="M337.75,-182.74C333.9,-177.99 328.65,-172.23 323.04,-168.17 289.32,-143.71 243.85,-126.03 216.31,-116.7"/>
<polygon fill="green" stroke="green" stroke-width="0.62" points="217.51,-113.41 206.92,-113.62 215.33,-120.06 217.51,-113.41"/>
</g>
<!-- &#45;9&#45;&gt;1 -->
<g id="edge1" class="edge">
<title>&#45;9&#45;&gt;1</title>
<path fill="none" stroke="green" stroke-width="0.32" stroke-dasharray="1,5" d="M350.96,-182.62C354.85,-178.06 359.94,-172.52 365.04,-168.17 386.71,-149.68 414.49,-132.28 433.41,-121.22"/>
<polygon fill="green" stroke="green" stroke-width="0.32" points="435.07,-124.31 442,-116.29 431.58,-118.24 435.07,-124.31"/>
</g>
<!-- &#45;9&#45;&gt;3625 -->
<g id="edge5" class="edge">
<title>&#45;9&#45;&gt;3625</title>
<path fill="none" stroke="green" stroke-width="0.17" d="M345.38,-182.73C346.9,-173.15 349.47,-156.95 351.81,-142.18"/>
<polygon fill="green" stroke="green" stroke-width="0.17" points="355.23,-142.96 353.33,-132.54 348.31,-141.87 355.23,-142.96"/>
</g>
<!-- &#45;10 -->
<g id="node10" class="node">
<title>&#45;10</title>
<polygon fill="lightgray" stroke="black" points="268.04,-201.46 240.04,-201.46 240.04,-182.96 268.04,-182.96 268.04,-201.46"/>
<text text-anchor="middle" x="254.04" y="-188.91" font-family="Times New Roman,serif" font-size="9.00">&#45;10</text>
</g>
<!-- &#45;10&#45;&gt;0 -->
<g id="edge2" class="edge">
<title>&#45;10&#45;&gt;0</title>
<path fill="none" stroke="green" stroke-width="1.66" d="M247.64,-182.73C238.31,-170.39 220.7,-147.06 207.79,-129.97"/>
<polygon fill="green" stroke="green" stroke-width="1.66" points="210.81,-128.16 201.99,-122.29 205.22,-132.38 210.81,-128.16"/>
</g>
<!-- &#45;11 -->
<g id="node11" class="node">
<title>&#45;11</title>
<polygon fill="lightgray" stroke="black" points="692.04,-270.75 664.04,-270.75 664.04,-252.25 692.04,-252.25 692.04,-270.75"/>
<text text-anchor="middle" x="678.04" y="-258.2" font-family="Times New Roman,serif" font-size="9.00">&#45;11</text>
</g>
<!-- &#45;12 -->
<g id="node12" class="node">
<title>&#45;12</title>
<polygon fill="lightgray" stroke="black" points="314.04,-201.46 286.04,-201.46 286.04,-182.96 314.04,-182.96 314.04,-201.46"/>
<text text-anchor="middle" x="300.04" y="-188.91" font-family="Times New Roman,serif" font-size="9.00">&#45;12</text>
</g>
<!-- &#45;12&#45;&gt;0 -->
<g id="edge3" class="edge">
<title>&#45;12&#45;&gt;0</title>
<path fill="none" stroke="green" stroke-width="2.23" d="M292.29,-182.73C287.98,-178.21 282.42,-172.66 277.04,-168.17 257.21,-151.57 232.81,-134.97 215.25,-123.62"/>
<polygon fill="green" stroke="green" stroke-width="2.23" points="217.23,-120.74 206.92,-118.32 213.48,-126.64 217.23,-120.74"/>
</g>
<!-- &#45;13 -->
<g id="node13" class="node">
<title>&#45;13</title>
<polygon fill="lightgray" stroke="black" points="562.04,-270.75 534.04,-270.75 534.04,-252.25 562.04,-252.25 562.04,-270.75"/>
<text text-anchor="middle" x="548.04" y="-258.2" font-family="Times New Roman,serif" font-size="9.00">&#45;13</text>
</g>
<!-- &#45;13&#45;&gt;1 -->
<g id="edge6" class="edge">
<title>&#45;13&#45;&gt;1</title>
<path fill="none" stroke="green" stroke-width="0.36" d="M557.06,-252.01C565.11,-243.77 576.33,-230.44 581.04,-216.25 587.77,-195.97 592.51,-186.2 581.04,-168.17 558.76,-133.12 509.6,-118.52 479.69,-112.71"/>
<polygon fill="green" stroke="green" stroke-width="0.36" points="480.62,-109.32 470.17,-111.04 479.41,-116.21 480.62,-109.32"/>
</g>
<!-- 4963 -->
<g id="node19" class="node">
<title>4963</title>
<ellipse fill="white" stroke="black" cx="548.04" cy="-192.21" rx="24.04" ry="24.04"/>
<text text-anchor="middle" x="548.04" y="-188.91" font-family="Times New Roman,serif" font-size="9.00">4963</text>
</g>
<!-- &#45;13&#45;&gt;4963 -->
<g id="edge10" class="edge">
<title>&#45;13&#45;&gt;4963</title>
<path fill="none" stroke="green" stroke-width="0.17" d="M548.04,-251.98C548.04,-245.48 548.04,-236.09 548.04,-226.71"/>
<polygon fill="green" stroke="green" stroke-width="0.17" points="551.54,-226.93 548.04,-216.93 544.54,-226.93 551.54,-226.93"/>
</g>
<!-- 5596 -->
<g id="node24" class="node">
<title>5596</title>
<ellipse fill="white" stroke="black" cx="482.04" cy="-192.21" rx="24.04" ry="24.04"/>
<text text-anchor="middle" x="482.04" y="-188.91" font-family="Times New Roman,serif" font-size="9.00">5596</text>
</g>
<!-- &#45;13&#45;&gt;5596 -->
<g id="edge16" class="edge">
<title>&#45;13&#45;&gt;5596</title>
<path fill="none" stroke="green" stroke-width="0.21" d="M539.68,-251.98C531.18,-243.31 517.61,-229.47 505.77,-217.4"/>
<polygon fill="green" stroke="green" stroke-width="0.21" points="508.41,-215.09 498.91,-210.4 503.41,-219.99 508.41,-215.09"/>
</g>
<!-- &#45;14 -->
<g id="node14" class="node">
<title>&#45;14</title>
<polygon fill="lightgray" stroke="black" points="738.04,-270.75 710.04,-270.75 710.04,-252.25 738.04,-252.25 738.04,-270.75"/>
<text text-anchor="middle" x="724.04" y="-258.2" font-family="Times New Roman,serif" font-size="9.00">&#45;14</text>
</g>
<!-- &#45;15 -->
<g id="node15" class="node">
<title>&#45;15</title>
<polygon fill="lightgray" stroke="black" points="784.04,-270.75 756.04,-270.75 756.04,-252.25 784.04,-252.25 784.04,-270.75"/>
<text text-anchor="middle" x="770.04" y="-258.2" font-family="Times New Roman,serif" font-size="9.00">&#45;15</text>
</g>
<!-- 0&#45;&gt;4722 -->
<g id="edge7" class="edge">
<title>0&#45;&gt;4722</title>
<path fill="none" stroke="green" stroke-width="0.2" d="M184.56,-95.36C180.88,-85.61 177.16,-71.26 174.65,-58.07"/>
<polygon fill="green" stroke="green" stroke-width="0.2" points="178.17,-57.87 173.04,-48.6 171.26,-59.04 178.17,-57.87"/>
</g>
<!-- 4739 -->
<g id="node18" class="node">
<title>4739</title>
<ellipse fill="white" stroke="black" cx="90.04" cy="-192.21" rx="24.04" ry="24.04"/>
<text text-anchor="middle" x="90.04" y="-188.91" font-family="Times New Roman,serif" font-size="9.00">4739</text>
</g>
<!-- 4739&#45;&gt;0 -->
<g id="edge18" class="edge">
<title>4739&#45;&gt;0</title>
<path fill="none" stroke="green" stroke-width="0.21" d="M108.28,-176.53C126.48,-161.88 154.34,-139.46 172.87,-124.55"/>
<polygon fill="green" stroke="green" stroke-width="0.21" points="175.05,-127.29 180.65,-118.29 170.66,-121.84 175.05,-127.29"/>
</g>
<!-- 4739&#45;&gt;4722 -->
<g id="edge9" class="edge">
<title>4739&#45;&gt;4722</title>
<path fill="none" stroke="green" stroke-width="0.36" stroke-dasharray="1,5" d="M100.68,-170.16C115.39,-141.07 142.01,-88.4 158.82,-55.15"/>
<polygon fill="green" stroke="green" stroke-width="0.36" points="161.86,-56.9 163.24,-46.4 155.61,-53.75 161.86,-56.9"/>
</g>
<!-- 4722&#45;&gt;0 -->
<g id="edge15" class="edge">
<title>4722&#45;&gt;0</title>
<path fill="none" stroke="green" stroke-width="0.23" d="M184.61,-46.01C188.09,-57.46 191.27,-71.68 193.04,-83.51"/>
<polygon fill="green" stroke="green" stroke-width="0.23" points="189.54,-83.71 194.19,-93.22 196.49,-82.88 189.54,-83.71"/>
</g>
<!-- 5236 -->
<g id="node22" class="node">
<title>5236</title>
<ellipse fill="white" stroke="black" cx="198.04" cy="-192.21" rx="24.04" ry="24.04"/>
<text text-anchor="middle" x="198.04" y="-188.91" font-family="Times New Roman,serif" font-size="9.00">5236</text>
</g>
<!-- 5236&#45;&gt;0 -->
<g id="edge13" class="edge">
<title>5236&#45;&gt;0</title>
<path fill="none" stroke="red" stroke-width="0.2" d="M196.34,-167.91C195.54,-156.96 194.59,-143.92 193.78,-132.91"/>
<polygon fill="red" stroke="red" stroke-width="0.2" points="197.28,-132.75 193.06,-123.03 190.3,-133.26 197.28,-132.75"/>
</g>
<!-- 5596&#45;&gt;1 -->
<g id="edge17" class="edge">
<title>5596&#45;&gt;1</title>
<path fill="none" stroke="red" stroke-width="0.37" d="M474.81,-169.21C471.03,-157.72 466.41,-143.67 462.58,-132.05"/>
<polygon fill="red" stroke="red" stroke-width="0.37" points="465.97,-131.14 459.52,-122.73 459.32,-133.33 465.97,-131.14"/>
</g>
</g>
</svg>
