<?xml version="1.0" encoding="UTF-8" standalone="no"?>
<!DOCTYPE svg PUBLIC "-//W3C//DTD SVG 1.1//EN"
 "http://www.w3.org/Graphics/SVG/1.1/DTD/svg11.dtd">
<!-- Generated by graphviz version 12.2.1 (20241206.2353)
 -->
<!-- Pages: 1 -->
<svg width="736pt" height="163pt"
 viewBox="0.00 0.00 735.75 162.85" xmlns="http://www.w3.org/2000/svg" xmlns:xlink="http://www.w3.org/1999/xlink">
<g id="graph0" class="graph" transform="scale(1 1) rotate(0) translate(4 158.85)">
<polygon fill="white" stroke="none" points="-4,4 -4,-158.85 731.75,-158.85 731.75,4 -4,4"/>
<!-- &#45;1 -->
<g id="node1" class="node">
<title>&#45;1</title>
<polygon fill="lightgray" stroke="black" points="345.75,-154.85 322.25,-154.85 322.25,-136.35 345.75,-136.35 345.75,-154.85"/>
<text text-anchor="middle" x="334" y="-142.3" font-family="Times New Roman,serif" font-size="9.00">&#45;1</text>
</g>
<!-- 78 -->
<g id="node20" class="node">
<title>78</title>
<ellipse fill="white" stroke="black" cx="347" cy="-82.67" rx="17.68" ry="17.68"/>
<text text-anchor="middle" x="347" y="-79.37" font-family="Times New Roman,serif" font-size="9.00">78</text>
</g>
<!-- &#45;1&#45;&gt;78 -->
<g id="edge1" class="edge">
<title>&#45;1&#45;&gt;78</title>
<path fill="none" stroke="red" stroke-width="0.23" d="M335.86,-135.87C337.29,-129.17 339.34,-119.56 341.3,-110.4"/>
<polygon fill="red" stroke="red" stroke-width="0.23" points="344.69,-111.28 343.35,-100.77 337.84,-109.82 344.69,-111.28"/>
</g>
<!-- 79 -->
<g id="node21" class="node">
<title>79</title>
<ellipse fill="white" stroke="black" cx="418" cy="-82.67" rx="17.68" ry="17.68"/>
<text text-anchor="middle" x="418" y="-79.37" font-family="Times New Roman,serif" font-size="9.00">79</text>
</g>
<!-- &#45;1&#45;&gt;79 -->
<g id="edge2" class="edge">
<title>&#45;1&#45;&gt;79</title>
<path fill="none" stroke="green" stroke-width="0.42" d="M346.04,-135.87C358.97,-126.48 379.83,-111.36 395.76,-99.8"/>
<polygon fill="green" stroke="green" stroke-width="0.42" points="397.48,-102.88 403.52,-94.17 393.37,-97.21 397.48,-102.88"/>
</g>
<!-- &#45;2 -->
<g id="node2" class="node">
<title>&#45;2</title>
<polygon fill="lightgray" stroke="black" points="727.75,-154.85 704.25,-154.85 704.25,-136.35 727.75,-136.35 727.75,-154.85"/>
<text text-anchor="middle" x="716" y="-142.3" font-family="Times New Roman,serif" font-size="9.00">&#45;2</text>
</g>
<!-- 1 -->
<g id="node19" class="node">
<title>1</title>
<ellipse fill="lightblue" stroke="black" cx="418" cy="-14.5" rx="14.5" ry="14.5"/>
<text text-anchor="middle" x="418" y="-11.2" font-family="Times New Roman,serif" font-size="9.00">1</text>
</g>
<!-- &#45;2&#45;&gt;1 -->
<g id="edge43" class="edge">
<title>&#45;2&#45;&gt;1</title>
<path fill="none" stroke="green" stroke-width="0.44" d="M703.95,-139.38C658.96,-119.88 500.35,-51.17 440.81,-25.38"/>
<polygon fill="green" stroke="green" stroke-width="0.44" points="442.38,-22.24 431.81,-21.48 439.6,-28.67 442.38,-22.24"/>
</g>
<!-- &#45;2&#45;&gt;78 -->
<g id="edge3" class="edge">
<title>&#45;2&#45;&gt;78</title>
<path fill="none" stroke="green" stroke-width="0.16" d="M704.18,-139.34C701.23,-138.2 698.04,-137.11 695,-136.35 563.04,-103.2 523.15,-132.7 391,-100.35 384.9,-98.85 378.5,-96.75 372.52,-94.54"/>
<polygon fill="green" stroke="green" stroke-width="0.16" points="373.81,-91.29 363.22,-90.9 371.26,-97.81 373.81,-91.29"/>
</g>
<!-- &#45;2&#45;&gt;79 -->
<g id="edge4" class="edge">
<title>&#45;2&#45;&gt;79</title>
<path fill="none" stroke="red" stroke-width="0.36" d="M704.14,-139.49C701.19,-138.35 698.01,-137.22 695,-136.35 605.8,-110.59 496.74,-94.08 446.2,-87.26"/>
<polygon fill="red" stroke="red" stroke-width="0.36" points="446.68,-83.79 436.3,-85.95 445.76,-90.73 446.68,-83.79"/>
</g>
<!-- &#45;3 -->
<g id="node3" class="node">
<title>&#45;3</title>
<polygon fill="lightgray" stroke="black" points="387.75,-154.85 364.25,-154.85 364.25,-136.35 387.75,-136.35 387.75,-154.85"/>
<text text-anchor="middle" x="376" y="-142.3" font-family="Times New Roman,serif" font-size="9.00">&#45;3</text>
</g>
<!-- &#45;3&#45;&gt;78 -->
<g id="edge5" class="edge">
<title>&#45;3&#45;&gt;78</title>
<path fill="none" stroke="green" stroke-width="0.51" d="M371.85,-135.87C368.45,-128.74 363.48,-118.29 358.87,-108.61"/>
<polygon fill="green" stroke="green" stroke-width="0.51" points="362.08,-107.2 354.62,-99.68 355.76,-110.21 362.08,-107.2"/>
</g>
<!-- &#45;3&#45;&gt;79 -->
<g id="edge6" class="edge">
<title>&#45;3&#45;&gt;79</title>
<path fill="none" stroke="red" stroke-width="0.38" d="M382.02,-135.87C387.35,-128.13 395.37,-116.49 402.49,-106.17"/>
<polygon fill="red" stroke="red" stroke-width="0.38" points="405.31,-108.25 408.1,-98.03 399.54,-104.28 405.31,-108.25"/>
</g>
<!-- &#45;4 -->
<g id="node4" class="node">
<title>&#45;4</title>
<polygon fill="lightgray" stroke="black" points="429.75,-154.85 406.25,-154.85 406.25,-136.35 429.75,-136.35 429.75,-154.85"/>
<text text-anchor="middle" x="418" y="-142.3" font-family="Times New Roman,serif" font-size="9.00">&#45;4</text>
</g>
<!-- &#45;4&#45;&gt;78 -->
<g id="edge7" class="edge">
<title>&#45;4&#45;&gt;78</title>
<path fill="none" stroke="red" stroke-width="0.27" d="M407.83,-135.87C397.41,-126.93 380.93,-112.78 367.75,-101.47"/>
<polygon fill="red" stroke="red" stroke-width="0.27" points="370.23,-98.99 360.36,-95.13 365.67,-104.3 370.23,-98.99"/>
</g>
<!-- &#45;4&#45;&gt;79 -->
<g id="edge8" class="edge">
<title>&#45;4&#45;&gt;79</title>
<path fill="none" stroke="green" stroke-width="0.16" d="M418,-135.87C418,-129.17 418,-119.56 418,-110.4"/>
<polygon fill="green" stroke="green" stroke-width="0.16" points="421.5,-110.67 418,-100.67 414.5,-110.67 421.5,-110.67"/>
</g>
<!-- &#45;5 -->
<g id="node5" class="node">
<title>&#45;5</title>
<polygon fill="lightgray" stroke="black" points="471.75,-154.85 448.25,-154.85 448.25,-136.35 471.75,-136.35 471.75,-154.85"/>
<text text-anchor="middle" x="460" y="-142.3" font-family="Times New Roman,serif" font-size="9.00">&#45;5</text>
</g>
<!-- &#45;5&#45;&gt;78 -->
<g id="edge9" class="edge">
<title>&#45;5&#45;&gt;78</title>
<path fill="none" stroke="red" stroke-width="0.19" d="M447.91,-138.08C429.69,-128.26 394.84,-109.47 371.26,-96.75"/>
<polygon fill="red" stroke="red" stroke-width="0.19" points="372.94,-93.68 362.47,-92.01 369.61,-99.84 372.94,-93.68"/>
</g>
<!-- &#45;5&#45;&gt;79 -->
<g id="edge10" class="edge">
<title>&#45;5&#45;&gt;79</title>
<path fill="none" stroke="green" stroke-width="0.25" d="M453.98,-135.87C448.6,-128.05 440.46,-116.26 433.29,-105.85"/>
<polygon fill="green" stroke="green" stroke-width="0.25" points="436.35,-104.11 427.79,-97.87 430.58,-108.09 436.35,-104.11"/>
</g>
<!-- &#45;6 -->
<g id="node6" class="node">
<title>&#45;6</title>
<polygon fill="lightgray" stroke="black" points="513.75,-154.85 490.25,-154.85 490.25,-136.35 513.75,-136.35 513.75,-154.85"/>
<text text-anchor="middle" x="502" y="-142.3" font-family="Times New Roman,serif" font-size="9.00">&#45;6</text>
</g>
<!-- &#45;6&#45;&gt;78 -->
<g id="edge11" class="edge">
<title>&#45;6&#45;&gt;78</title>
<path fill="none" stroke="red" stroke-width="0.17" d="M489.84,-139.82C464.63,-129.91 406.25,-106.96 372.44,-93.67"/>
<polygon fill="red" stroke="red" stroke-width="0.17" points="374.03,-90.53 363.44,-90.13 371.47,-97.05 374.03,-90.53"/>
</g>
<!-- &#45;6&#45;&gt;79 -->
<g id="edge12" class="edge">
<title>&#45;6&#45;&gt;79</title>
<path fill="none" stroke="red" stroke-width="0.19" d="M489.96,-135.87C477.03,-126.48 456.17,-111.36 440.24,-99.8"/>
<polygon fill="red" stroke="red" stroke-width="0.19" points="442.36,-97.01 432.21,-93.98 438.25,-102.68 442.36,-97.01"/>
</g>
<!-- &#45;7 -->
<g id="node7" class="node">
<title>&#45;7</title>
<polygon fill="lightgray" stroke="black" points="555.75,-154.85 532.25,-154.85 532.25,-136.35 555.75,-136.35 555.75,-154.85"/>
<text text-anchor="middle" x="544" y="-142.3" font-family="Times New Roman,serif" font-size="9.00">&#45;7</text>
</g>
<!-- &#45;7&#45;&gt;78 -->
<g id="edge13" class="edge">
<title>&#45;7&#45;&gt;78</title>
<path fill="none" stroke="green" stroke-width="0.35" d="M532.09,-139.66C529.14,-138.51 525.97,-137.33 523,-136.35 465.28,-117.2 448.83,-119.14 391,-100.35 385.03,-98.41 378.67,-96.13 372.71,-93.89"/>
<polygon fill="green" stroke="green" stroke-width="0.35" points="374.25,-90.73 363.66,-90.41 371.74,-97.26 374.25,-90.73"/>
</g>
<!-- &#45;7&#45;&gt;79 -->
<g id="edge14" class="edge">
<title>&#45;7&#45;&gt;79</title>
<path fill="none" stroke="green" stroke-width="0.25" d="M531.92,-138.75C511.51,-128.89 469.81,-108.72 442.92,-95.72"/>
<polygon fill="green" stroke="green" stroke-width="0.25" points="444.62,-92.65 434.09,-91.45 441.57,-98.96 444.62,-92.65"/>
</g>
<!-- &#45;8 -->
<g id="node8" class="node">
<title>&#45;8</title>
<polygon fill="lightgray" stroke="black" points="597.75,-154.85 574.25,-154.85 574.25,-136.35 597.75,-136.35 597.75,-154.85"/>
<text text-anchor="middle" x="586" y="-142.3" font-family="Times New Roman,serif" font-size="9.00">&#45;8</text>
</g>
<!-- &#45;8&#45;&gt;78 -->
<g id="edge15" class="edge">
<title>&#45;8&#45;&gt;78</title>
<path fill="none" stroke="red" stroke-width="0.23" d="M574.13,-139.53C571.18,-138.38 568,-137.24 565,-136.35 489.31,-113.83 466.83,-122.41 391,-100.35 384.97,-98.59 378.59,-96.39 372.62,-94.16"/>
<polygon fill="red" stroke="red" stroke-width="0.23" points="374.01,-90.94 363.42,-90.6 371.48,-97.47 374.01,-90.94"/>
</g>
<!-- &#45;8&#45;&gt;79 -->
<g id="edge16" class="edge">
<title>&#45;8&#45;&gt;79</title>
<path fill="none" stroke="red" stroke-width="0.25" d="M574.03,-139.82C571.08,-138.67 567.93,-137.45 565,-136.35 523,-120.58 473.87,-103.18 444.38,-92.85"/>
<polygon fill="red" stroke="red" stroke-width="0.25" points="445.77,-89.63 435.18,-89.64 443.46,-96.24 445.77,-89.63"/>
</g>
<!-- &#45;9 -->
<g id="node9" class="node">
<title>&#45;9</title>
<polygon fill="lightgray" stroke="black" points="639.75,-154.85 616.25,-154.85 616.25,-136.35 639.75,-136.35 639.75,-154.85"/>
<text text-anchor="middle" x="628" y="-142.3" font-family="Times New Roman,serif" font-size="9.00">&#45;9</text>
</g>
<!-- &#45;9&#45;&gt;78 -->
<g id="edge17" class="edge">
<title>&#45;9&#45;&gt;78</title>
<path fill="none" stroke="green" stroke-width="0.2" d="M616.15,-139.44C613.2,-138.3 610.02,-137.18 607,-136.35 513.2,-110.41 484.96,-125.72 391,-100.35 384.94,-98.71 378.55,-96.55 372.57,-94.33"/>
<polygon fill="green" stroke="green" stroke-width="0.2" points="373.92,-91.1 363.33,-90.74 371.38,-97.63 373.92,-91.1"/>
</g>
<!-- &#45;9&#45;&gt;79 -->
<g id="edge18" class="edge">
<title>&#45;9&#45;&gt;79</title>
<path fill="none" stroke="red" stroke-width="0.19" d="M616.08,-139.67C613.14,-138.52 609.97,-137.34 607,-136.35 550.02,-117.27 481.82,-99.47 444.92,-90.25"/>
<polygon fill="red" stroke="red" stroke-width="0.19" points="446.2,-86.96 435.66,-87.95 444.52,-93.75 446.2,-86.96"/>
</g>
<!-- &#45;10 -->
<g id="node10" class="node">
<title>&#45;10</title>
<polygon fill="lightgray" stroke="black" points="686,-154.85 658,-154.85 658,-136.35 686,-136.35 686,-154.85"/>
<text text-anchor="middle" x="672" y="-142.3" font-family="Times New Roman,serif" font-size="9.00">&#45;10</text>
</g>
<!-- &#45;10&#45;&gt;78 -->
<g id="edge19" class="edge">
<title>&#45;10&#45;&gt;78</title>
<path fill="none" stroke="red" stroke-width="0.38" d="M657.54,-138.9C654.74,-137.94 651.8,-137.04 649,-136.35 536.58,-108.66 503.16,-129.04 391,-100.35 384.92,-98.79 378.52,-96.66 372.54,-94.45"/>
<polygon fill="red" stroke="red" stroke-width="0.38" points="374.15,-91.32 363.56,-90.94 371.6,-97.84 374.15,-91.32"/>
</g>
<!-- &#45;10&#45;&gt;79 -->
<g id="edge20" class="edge">
<title>&#45;10&#45;&gt;79</title>
<path fill="none" stroke="green" stroke-width="0.36" d="M657.98,-139.27C655.03,-138.23 651.93,-137.2 649,-136.35 576.57,-115.18 489.32,-97.3 445.69,-88.86"/>
<polygon fill="green" stroke="green" stroke-width="0.36" points="446.59,-85.47 436.11,-87.03 445.28,-92.35 446.59,-85.47"/>
</g>
<!-- &#45;11 -->
<g id="node11" class="node">
<title>&#45;11</title>
<polygon fill="lightgray" stroke="black" points="28,-154.85 0,-154.85 0,-136.35 28,-136.35 28,-154.85"/>
<text text-anchor="middle" x="14" y="-142.3" font-family="Times New Roman,serif" font-size="9.00">&#45;11</text>
</g>
<!-- &#45;11&#45;&gt;78 -->
<g id="edge21" class="edge">
<title>&#45;11&#45;&gt;78</title>
<path fill="none" stroke="red" stroke-width="0.17" d="M28.48,-138.97C31.28,-138 34.21,-137.08 37,-136.35 139.48,-109.48 264.73,-93.08 319.34,-86.71"/>
<polygon fill="red" stroke="red" stroke-width="0.17" points="319.5,-90.21 329.04,-85.6 318.71,-83.26 319.5,-90.21"/>
</g>
<!-- &#45;11&#45;&gt;79 -->
<g id="edge22" class="edge">
<title>&#45;11&#45;&gt;79</title>
<path fill="none" stroke="red" stroke-width="0.21" d="M28.44,-138.81C31.24,-137.86 34.19,-136.98 37,-136.35 191.67,-101.32 242.27,-152.59 392,-100.35 393.04,-99.98 394.08,-99.57 395.11,-99.12"/>
<polygon fill="red" stroke="red" stroke-width="0.21" points="396.62,-102.28 403.76,-94.46 393.3,-96.12 396.62,-102.28"/>
</g>
<!-- &#45;12 -->
<g id="node12" class="node">
<title>&#45;12</title>
<polygon fill="lightgray" stroke="black" points="74,-154.85 46,-154.85 46,-136.35 74,-136.35 74,-154.85"/>
<text text-anchor="middle" x="60" y="-142.3" font-family="Times New Roman,serif" font-size="9.00">&#45;12</text>
</g>
<!-- &#45;12&#45;&gt;78 -->
<g id="edge23" class="edge">
<title>&#45;12&#45;&gt;78</title>
<path fill="none" stroke="green" stroke-width="0.11" d="M74.5,-139.03C77.29,-138.06 80.22,-137.12 83,-136.35 167.99,-112.76 271.15,-95.32 319.5,-87.78"/>
<polygon fill="green" stroke="green" stroke-width="0.11" points="319.98,-91.25 329.33,-86.27 318.92,-84.33 319.98,-91.25"/>
</g>
<!-- &#45;12&#45;&gt;79 -->
<g id="edge24" class="edge">
<title>&#45;12&#45;&gt;79</title>
<path fill="none" stroke="green" stroke-width="0.74" d="M74.45,-138.85C77.25,-137.9 80.19,-137 83,-136.35 217.62,-104.8 261.8,-146.87 392,-100.35 392.78,-100.07 393.55,-99.77 394.33,-99.44"/>
<polygon fill="green" stroke="green" stroke-width="0.74" points="395.87,-102.58 403.05,-94.78 392.58,-96.4 395.87,-102.58"/>
</g>
<!-- &#45;13 -->
<g id="node13" class="node">
<title>&#45;13</title>
<polygon fill="lightgray" stroke="black" points="120,-154.85 92,-154.85 92,-136.35 120,-136.35 120,-154.85"/>
<text text-anchor="middle" x="106" y="-142.3" font-family="Times New Roman,serif" font-size="9.00">&#45;13</text>
</g>
<!-- &#45;13&#45;&gt;78 -->
<g id="edge25" class="edge">
<title>&#45;13&#45;&gt;78</title>
<path fill="none" stroke="red" stroke-width="0.45" d="M120.03,-139.29C122.97,-138.26 126.07,-137.22 129,-136.35 196.48,-116.15 277.46,-98.19 319.16,-89.39"/>
<polygon fill="red" stroke="red" stroke-width="0.45" points="319.85,-92.82 328.93,-87.35 318.42,-85.97 319.85,-92.82"/>
</g>
<!-- &#45;13&#45;&gt;79 -->
<g id="edge26" class="edge">
<title>&#45;13&#45;&gt;79</title>
<path fill="none" stroke="green" stroke-width="0.13" d="M120.46,-138.89C123.26,-137.94 126.2,-137.03 129,-136.35 243.59,-108.28 281.3,-141.15 392,-100.35 393.03,-99.97 394.06,-99.54 395.09,-99.08"/>
<polygon fill="green" stroke="green" stroke-width="0.13" points="396.75,-102.16 403.84,-94.29 393.39,-96.02 396.75,-102.16"/>
</g>
<!-- &#45;14 -->
<g id="node14" class="node">
<title>&#45;14</title>
<polygon fill="lightgray" stroke="black" points="166,-154.85 138,-154.85 138,-136.35 166,-136.35 166,-154.85"/>
<text text-anchor="middle" x="152" y="-142.3" font-family="Times New Roman,serif" font-size="9.00">&#45;14</text>
</g>
<!-- &#45;14&#45;&gt;78 -->
<g id="edge27" class="edge">
<title>&#45;14&#45;&gt;78</title>
<path fill="none" stroke="green" stroke-width="0.64" d="M166.07,-139.43C169.01,-138.38 172.1,-137.31 175,-136.35 225.86,-119.45 285.82,-101.53 319.83,-91.56"/>
<polygon fill="green" stroke="green" stroke-width="0.64" points="320.76,-94.93 329.38,-88.77 318.8,-88.21 320.76,-94.93"/>
</g>
<!-- &#45;14&#45;&gt;79 -->
<g id="edge28" class="edge">
<title>&#45;14&#45;&gt;79</title>
<path fill="none" stroke="red" stroke-width="0.12" d="M166.48,-138.96C169.28,-138 172.21,-137.07 175,-136.35 269.62,-111.74 300.76,-135.46 392,-100.35 393.03,-99.95 394.05,-99.51 395.08,-99.04"/>
<polygon fill="red" stroke="red" stroke-width="0.12" points="396.76,-102.11 403.82,-94.21 393.37,-95.98 396.76,-102.11"/>
</g>
<!-- &#45;15 -->
<g id="node15" class="node">
<title>&#45;15</title>
<polygon fill="lightgray" stroke="black" points="212,-154.85 184,-154.85 184,-136.35 212,-136.35 212,-154.85"/>
<text text-anchor="middle" x="198" y="-142.3" font-family="Times New Roman,serif" font-size="9.00">&#45;15</text>
</g>
<!-- &#45;15&#45;&gt;78 -->
<g id="edge29" class="edge">
<title>&#45;15&#45;&gt;78</title>
<path fill="none" stroke="red" stroke-width="0.27" d="M212.29,-138.75C237.39,-128.49 289.75,-107.08 321.29,-94.18"/>
<polygon fill="red" stroke="red" stroke-width="0.27" points="322.42,-97.5 330.36,-90.47 319.78,-91.02 322.42,-97.5"/>
</g>
<!-- &#45;15&#45;&gt;79 -->
<g id="edge30" class="edge">
<title>&#45;15&#45;&gt;79</title>
<path fill="none" stroke="red" stroke-width="0.12" d="M212.01,-139.23C214.96,-138.2 218.06,-137.18 221,-136.35 295.73,-115.19 320.13,-129.8 392,-100.35 393.02,-99.93 394.04,-99.47 395.06,-98.98"/>
<polygon fill="red" stroke="red" stroke-width="0.12" points="396.77,-102.04 403.77,-94.09 393.34,-95.93 396.77,-102.04"/>
</g>
<!-- &#45;16 -->
<g id="node16" class="node">
<title>&#45;16</title>
<polygon fill="lightgray" stroke="black" points="258,-154.85 230,-154.85 230,-136.35 258,-136.35 258,-154.85"/>
<text text-anchor="middle" x="244" y="-142.3" font-family="Times New Roman,serif" font-size="9.00">&#45;16</text>
</g>
<!-- &#45;16&#45;&gt;78 -->
<g id="edge31" class="edge">
<title>&#45;16&#45;&gt;78</title>
<path fill="none" stroke="red" stroke-width="0.12" d="M258.32,-136.12C275.19,-126.14 303.47,-109.42 323.55,-97.54"/>
<polygon fill="red" stroke="red" stroke-width="0.12" points="325.15,-100.66 331.97,-92.56 321.58,-94.64 325.15,-100.66"/>
</g>
<!-- &#45;16&#45;&gt;79 -->
<g id="edge32" class="edge">
<title>&#45;16&#45;&gt;79</title>
<path fill="none" stroke="red" stroke-width="0.18" d="M258.06,-139.39C261,-138.35 264.09,-137.29 267,-136.35 322.02,-118.58 339.34,-124.2 392,-100.35 393,-99.89 394.01,-99.41 395.02,-98.89"/>
<polygon fill="red" stroke="red" stroke-width="0.18" points="396.7,-101.96 403.61,-93.93 393.2,-95.9 396.7,-101.96"/>
</g>
<!-- &#45;17 -->
<g id="node17" class="node">
<title>&#45;17</title>
<polygon fill="lightgray" stroke="black" points="304,-154.85 276,-154.85 276,-136.35 304,-136.35 304,-154.85"/>
<text text-anchor="middle" x="290" y="-142.3" font-family="Times New Roman,serif" font-size="9.00">&#45;17</text>
</g>
<!-- &#45;17&#45;&gt;78 -->
<g id="edge33" class="edge">
<title>&#45;17&#45;&gt;78</title>
<path fill="none" stroke="green" stroke-width="0.31" d="M298.17,-135.87C305.99,-127.5 318.09,-114.57 328.29,-103.67"/>
<polygon fill="green" stroke="green" stroke-width="0.31" points="330.69,-106.23 334.96,-96.54 325.57,-101.45 330.69,-106.23"/>
</g>
<!-- &#45;17&#45;&gt;79 -->
<g id="edge34" class="edge">
<title>&#45;17&#45;&gt;79</title>
<path fill="none" stroke="green" stroke-width="0.21" d="M304.19,-139.28C324.21,-131.59 361.68,-116.51 392,-100.35 392.97,-99.83 393.95,-99.29 394.94,-98.73"/>
<polygon fill="green" stroke="green" stroke-width="0.21" points="396.65,-101.78 403.4,-93.61 393.03,-95.79 396.65,-101.78"/>
</g>
<!-- 0 -->
<g id="node18" class="node">
<title>0</title>
<ellipse fill="lightblue" stroke="black" cx="350" cy="-14.5" rx="14.5" ry="14.5"/>
<text text-anchor="middle" x="350" y="-11.2" font-family="Times New Roman,serif" font-size="9.00">0</text>
</g>
<!-- 0&#45;&gt;0 -->
<g id="edge39" class="edge">
<title>0&#45;&gt;0</title>
<path fill="none" stroke="red" stroke-width="0.61" d="M360.65,-24.65C371.06,-30.26 382.5,-26.88 382.5,-14.5 382.5,-6.37 377.57,-2.12 371.24,-1.74"/>
<polygon fill="red" stroke="red" stroke-width="0.61" points="370.43,1.66 361.55,-4.12 372.1,-5.14 370.43,1.66"/>
</g>
<!-- 1&#45;&gt;1 -->
<g id="edge40" class="edge">
<title>1&#45;&gt;1</title>
<path fill="none" stroke="red" stroke-width="0.1" d="M428.65,-24.65C439.06,-30.26 450.5,-26.88 450.5,-14.5 450.5,-5.98 445.09,-1.72 438.33,-1.71"/>
<polygon fill="red" stroke="red" stroke-width="0.1" points="437.54,1.7 428.8,-4.3 439.37,-5.06 437.54,1.7"/>
</g>
<!-- 78&#45;&gt;0 -->
<g id="edge35" class="edge">
<title>78&#45;&gt;0</title>
<path fill="none" stroke="green" stroke-width="0.52" d="M347.77,-64.63C348.12,-57.05 348.53,-47.98 348.9,-39.71"/>
<polygon fill="green" stroke="green" stroke-width="0.52" points="352.39,-40.09 349.35,-29.94 345.4,-39.77 352.39,-40.09"/>
</g>
<!-- 78&#45;&gt;1 -->
<g id="edge36" class="edge">
<title>78&#45;&gt;1</title>
<path fill="none" stroke="red" stroke-width="0.14" d="M359.69,-69.84C371.06,-59.25 387.82,-43.62 400.47,-31.84"/>
<polygon fill="red" stroke="red" stroke-width="0.14" points="402.64,-34.6 407.57,-25.22 397.87,-29.48 402.64,-34.6"/>
</g>
<!-- 78&#45;&gt;78 -->
<g id="edge41" class="edge">
<title>78&#45;&gt;78</title>
<path fill="none" stroke="red" stroke-width="0.14" d="M361.66,-93.2C372.19,-96.63 382.68,-93.12 382.68,-82.67 382.68,-75.65 377.94,-71.76 371.64,-71.01"/>
<polygon fill="red" stroke="red" stroke-width="0.14" points="371.41,-67.51 361.87,-72.12 372.2,-74.47 371.41,-67.51"/>
</g>
<!-- 79&#45;&gt;0 -->
<g id="edge37" class="edge">
<title>79&#45;&gt;0</title>
<path fill="none" stroke="red" stroke-width="0.51" d="M405.53,-69.53C394.94,-59.22 379.61,-44.31 367.74,-32.76"/>
<polygon fill="red" stroke="red" stroke-width="0.51" points="370.34,-30.41 360.73,-25.94 365.46,-35.42 370.34,-30.41"/>
</g>
<!-- 79&#45;&gt;1 -->
<g id="edge38" class="edge">
<title>79&#45;&gt;1</title>
<path fill="none" stroke="red" stroke-width="0.53" d="M418,-64.63C418,-57.05 418,-47.98 418,-39.71"/>
<polygon fill="red" stroke="red" stroke-width="0.53" points="421.5,-39.95 418,-29.95 414.5,-39.95 421.5,-39.95"/>
</g>
<!-- 79&#45;&gt;79 -->
<g id="edge42" class="edge">
<title>79&#45;&gt;79</title>
<path fill="none" stroke="green" stroke-width="0.28" stroke-dasharray="1,5" d="M432.66,-93.2C443.19,-96.63 453.68,-93.12 453.68,-82.67 453.68,-75.65 448.94,-71.76 442.64,-71.01"/>
<polygon fill="green" stroke="green" stroke-width="0.28" points="442.62,-67.49 433.07,-72.09 443.41,-74.44 442.62,-67.49"/>
</g>
</g>
</svg>
