<?xml version="1.0" encoding="UTF-8" standalone="no"?>
<!DOCTYPE svg PUBLIC "-//W3C//DTD SVG 1.1//EN"
 "http://www.w3.org/Graphics/SVG/1.1/DTD/svg11.dtd">
<!-- Generated by graphviz version 12.2.1 (20241206.2353)
 -->
<!-- Pages: 1 -->
<svg width="736pt" height="91pt"
 viewBox="0.00 0.00 735.75 91.49" xmlns="http://www.w3.org/2000/svg" xmlns:xlink="http://www.w3.org/1999/xlink">
<g id="graph0" class="graph" transform="scale(1 1) rotate(0) translate(4 87.49)">
<polygon fill="white" stroke="none" points="-4,4 -4,-87.49 731.75,-87.49 731.75,4 -4,4"/>
<!-- &#45;1 -->
<g id="node1" class="node">
<title>&#45;1</title>
<polygon fill="lightgray" stroke="black" points="23.5,-83.49 0,-83.49 0,-64.99 23.5,-64.99 23.5,-83.49"/>
<text text-anchor="middle" x="11.75" y="-70.94" font-family="Times New Roman,serif" font-size="9.00">&#45;1</text>
</g>
<!-- 0 -->
<g id="node18" class="node">
<title>0</title>
<ellipse fill="lightblue" stroke="black" cx="95.75" cy="-14.5" rx="14.5" ry="14.5"/>
<text text-anchor="middle" x="95.75" y="-11.2" font-family="Times New Roman,serif" font-size="9.00">0</text>
</g>
<!-- &#45;1&#45;&gt;0 -->
<g id="edge4" class="edge">
<title>&#45;1&#45;&gt;0</title>
<path fill="none" stroke="red" stroke-width="0.37" d="M23.79,-64.97C37.34,-55.65 59.57,-40.37 75.74,-29.25"/>
<polygon fill="red" stroke="red" stroke-width="0.37" points="77.29,-32.44 83.54,-23.89 73.32,-26.67 77.29,-32.44"/>
</g>
<!-- &#45;2 -->
<g id="node2" class="node">
<title>&#45;2</title>
<polygon fill="lightgray" stroke="black" points="241.5,-83.49 218,-83.49 218,-64.99 241.5,-64.99 241.5,-83.49"/>
<text text-anchor="middle" x="229.75" y="-70.94" font-family="Times New Roman,serif" font-size="9.00">&#45;2</text>
</g>
<!-- 1 -->
<g id="node19" class="node">
<title>1</title>
<ellipse fill="lightblue" stroke="black" cx="229.75" cy="-14.5" rx="14.5" ry="14.5"/>
<text text-anchor="middle" x="229.75" y="-11.2" font-family="Times New Roman,serif" font-size="9.00">1</text>
</g>
<!-- &#45;2&#45;&gt;1 -->
<g id="edge9" class="edge">
<title>&#45;2&#45;&gt;1</title>
<path fill="none" stroke="red" stroke-width="0.2" d="M229.75,-64.72C229.75,-58.05 229.75,-48.42 229.75,-39.45"/>
<polygon fill="red" stroke="red" stroke-width="0.2" points="233.25,-39.73 229.75,-29.73 226.25,-39.73 233.25,-39.73"/>
</g>
<!-- &#45;3 -->
<g id="node3" class="node">
<title>&#45;3</title>
<polygon fill="lightgray" stroke="black" points="325.5,-83.49 302,-83.49 302,-64.99 325.5,-64.99 325.5,-83.49"/>
<text text-anchor="middle" x="313.75" y="-70.94" font-family="Times New Roman,serif" font-size="9.00">&#45;3</text>
</g>
<!-- &#45;4 -->
<g id="node4" class="node">
<title>&#45;4</title>
<polygon fill="lightgray" stroke="black" points="65.5,-83.49 42,-83.49 42,-64.99 65.5,-64.99 65.5,-83.49"/>
<text text-anchor="middle" x="53.75" y="-70.94" font-family="Times New Roman,serif" font-size="9.00">&#45;4</text>
</g>
<!-- &#45;4&#45;&gt;0 -->
<g id="edge6" class="edge">
<title>&#45;4&#45;&gt;0</title>
<path fill="none" stroke="red" stroke-width="0.3" d="M59.95,-64.72C65.59,-56.96 74.15,-45.2 81.48,-35.12"/>
<polygon fill="red" stroke="red" stroke-width="0.3" points="84.19,-37.35 87.24,-27.2 78.52,-33.23 84.19,-37.35"/>
</g>
<!-- &#45;5 -->
<g id="node5" class="node">
<title>&#45;5</title>
<polygon fill="lightgray" stroke="black" points="367.5,-83.49 344,-83.49 344,-64.99 367.5,-64.99 367.5,-83.49"/>
<text text-anchor="middle" x="355.75" y="-70.94" font-family="Times New Roman,serif" font-size="9.00">&#45;5</text>
</g>
<!-- &#45;6 -->
<g id="node6" class="node">
<title>&#45;6</title>
<polygon fill="lightgray" stroke="black" points="107.5,-83.49 84,-83.49 84,-64.99 107.5,-64.99 107.5,-83.49"/>
<text text-anchor="middle" x="95.75" y="-70.94" font-family="Times New Roman,serif" font-size="9.00">&#45;6</text>
</g>
<!-- &#45;6&#45;&gt;0 -->
<g id="edge5" class="edge">
<title>&#45;6&#45;&gt;0</title>
<path fill="none" stroke="red" stroke-width="0.16" d="M95.75,-64.72C95.75,-58.05 95.75,-48.42 95.75,-39.45"/>
<polygon fill="red" stroke="red" stroke-width="0.16" points="99.25,-39.67 95.75,-29.67 92.25,-39.67 99.25,-39.67"/>
</g>
<!-- &#45;7 -->
<g id="node7" class="node">
<title>&#45;7</title>
<polygon fill="lightgray" stroke="black" points="283.5,-83.49 260,-83.49 260,-64.99 283.5,-64.99 283.5,-83.49"/>
<text text-anchor="middle" x="271.75" y="-70.94" font-family="Times New Roman,serif" font-size="9.00">&#45;7</text>
</g>
<!-- &#45;7&#45;&gt;1 -->
<g id="edge2" class="edge">
<title>&#45;7&#45;&gt;1</title>
<path fill="none" stroke="red" stroke-width="0.28" d="M265.55,-64.72C259.91,-56.96 251.35,-45.2 244.02,-35.12"/>
<polygon fill="red" stroke="red" stroke-width="0.28" points="246.96,-33.21 238.25,-27.18 241.3,-37.33 246.96,-33.21"/>
</g>
<!-- &#45;8 -->
<g id="node8" class="node">
<title>&#45;8</title>
<polygon fill="lightgray" stroke="black" points="409.5,-83.49 386,-83.49 386,-64.99 409.5,-64.99 409.5,-83.49"/>
<text text-anchor="middle" x="397.75" y="-70.94" font-family="Times New Roman,serif" font-size="9.00">&#45;8</text>
</g>
<!-- &#45;9 -->
<g id="node9" class="node">
<title>&#45;9</title>
<polygon fill="lightgray" stroke="black" points="451.5,-83.49 428,-83.49 428,-64.99 451.5,-64.99 451.5,-83.49"/>
<text text-anchor="middle" x="439.75" y="-70.94" font-family="Times New Roman,serif" font-size="9.00">&#45;9</text>
</g>
<!-- &#45;10 -->
<g id="node10" class="node">
<title>&#45;10</title>
<polygon fill="lightgray" stroke="black" points="497.75,-83.49 469.75,-83.49 469.75,-64.99 497.75,-64.99 497.75,-83.49"/>
<text text-anchor="middle" x="483.75" y="-70.94" font-family="Times New Roman,serif" font-size="9.00">&#45;10</text>
</g>
<!-- &#45;11 -->
<g id="node11" class="node">
<title>&#45;11</title>
<polygon fill="lightgray" stroke="black" points="543.75,-83.49 515.75,-83.49 515.75,-64.99 543.75,-64.99 543.75,-83.49"/>
<text text-anchor="middle" x="529.75" y="-70.94" font-family="Times New Roman,serif" font-size="9.00">&#45;11</text>
</g>
<!-- &#45;12 -->
<g id="node12" class="node">
<title>&#45;12</title>
<polygon fill="lightgray" stroke="black" points="589.75,-83.49 561.75,-83.49 561.75,-64.99 589.75,-64.99 589.75,-83.49"/>
<text text-anchor="middle" x="575.75" y="-70.94" font-family="Times New Roman,serif" font-size="9.00">&#45;12</text>
</g>
<!-- &#45;13 -->
<g id="node13" class="node">
<title>&#45;13</title>
<polygon fill="lightgray" stroke="black" points="635.75,-83.49 607.75,-83.49 607.75,-64.99 635.75,-64.99 635.75,-83.49"/>
<text text-anchor="middle" x="621.75" y="-70.94" font-family="Times New Roman,serif" font-size="9.00">&#45;13</text>
</g>
<!-- &#45;14 -->
<g id="node14" class="node">
<title>&#45;14</title>
<polygon fill="lightgray" stroke="black" points="681.75,-83.49 653.75,-83.49 653.75,-64.99 681.75,-64.99 681.75,-83.49"/>
<text text-anchor="middle" x="667.75" y="-70.94" font-family="Times New Roman,serif" font-size="9.00">&#45;14</text>
</g>
<!-- &#45;15 -->
<g id="node15" class="node">
<title>&#45;15</title>
<polygon fill="lightgray" stroke="black" points="153.75,-83.49 125.75,-83.49 125.75,-64.99 153.75,-64.99 153.75,-83.49"/>
<text text-anchor="middle" x="139.75" y="-70.94" font-family="Times New Roman,serif" font-size="9.00">&#45;15</text>
</g>
<!-- &#45;15&#45;&gt;0 -->
<g id="edge7" class="edge">
<title>&#45;15&#45;&gt;0</title>
<path fill="none" stroke="green" stroke-width="0.35" d="M133.26,-64.72C127.27,-56.86 118.16,-44.9 110.41,-34.74"/>
<polygon fill="green" stroke="green" stroke-width="0.35" points="113.24,-32.68 104.4,-26.85 107.68,-36.92 113.24,-32.68"/>
</g>
<!-- &#45;16 -->
<g id="node16" class="node">
<title>&#45;16</title>
<polygon fill="lightgray" stroke="black" points="199.75,-83.49 171.75,-83.49 171.75,-64.99 199.75,-64.99 199.75,-83.49"/>
<text text-anchor="middle" x="185.75" y="-70.94" font-family="Times New Roman,serif" font-size="9.00">&#45;16</text>
</g>
<!-- &#45;16&#45;&gt;0 -->
<g id="edge8" class="edge">
<title>&#45;16&#45;&gt;0</title>
<path fill="none" stroke="green" stroke-width="0.64" d="M172.47,-64.72C157.7,-55.24 133.65,-39.82 116.42,-28.76"/>
<polygon fill="green" stroke="green" stroke-width="0.64" points="118.77,-26.11 108.46,-23.65 114.99,-32 118.77,-26.11"/>
</g>
<!-- &#45;16&#45;&gt;1 -->
<g id="edge3" class="edge">
<title>&#45;16&#45;&gt;1</title>
<path fill="none" stroke="red" stroke-width="0.88" d="M192.24,-64.72C198.11,-57.02 206.98,-45.38 214.62,-35.36"/>
<polygon fill="red" stroke="red" stroke-width="0.88" points="217.34,-37.56 220.61,-27.48 211.77,-33.32 217.34,-37.56"/>
</g>
<!-- &#45;17 -->
<g id="node17" class="node">
<title>&#45;17</title>
<polygon fill="lightgray" stroke="black" points="727.75,-83.49 699.75,-83.49 699.75,-64.99 727.75,-64.99 727.75,-83.49"/>
<text text-anchor="middle" x="713.75" y="-70.94" font-family="Times New Roman,serif" font-size="9.00">&#45;17</text>
</g>
<!-- 0&#45;&gt;0 -->
<g id="edge1" class="edge">
<title>0&#45;&gt;0</title>
<path fill="none" stroke="red" stroke-width="0.42" d="M107.41,-23.85C117.54,-28.12 128.25,-25 128.25,-14.5 128.25,-7.6 123.63,-3.89 117.6,-3.36"/>
<polygon fill="red" stroke="red" stroke-width="0.42" points="117.28,0.14 108.04,-5.03 118.49,-6.76 117.28,0.14"/>
</g>
</g>
</svg>
