<?xml version="1.0" encoding="UTF-8" standalone="no"?>
<!DOCTYPE svg PUBLIC "-//W3C//DTD SVG 1.1//EN"
 "http://www.w3.org/Graphics/SVG/1.1/DTD/svg11.dtd">
<!-- Generated by graphviz version 12.2.1 (20241206.2353)
 -->
<!-- Pages: 1 -->
<svg width="587pt" height="186pt"
 viewBox="0.00 0.00 587.00 186.07" xmlns="http://www.w3.org/2000/svg" xmlns:xlink="http://www.w3.org/1999/xlink">
<g id="graph0" class="graph" transform="scale(1 1) rotate(0) translate(4 182.07)">
<polygon fill="white" stroke="none" points="-4,4 -4,-182.07 583,-182.07 583,4 -4,4"/>
<!-- &#45;1 -->
<g id="node1" class="node">
<title>&#45;1</title>
<polygon fill="lightgray" stroke="black" points="130.75,-166.46 107.25,-166.46 107.25,-147.96 130.75,-147.96 130.75,-166.46"/>
<text text-anchor="middle" x="119" y="-153.91" font-family="Times New Roman,serif" font-size="9.00">&#45;1</text>
</g>
<!-- &#45;2 -->
<g id="node2" class="node">
<title>&#45;2</title>
<polygon fill="lightgray" stroke="black" points="153.75,-91.92 130.25,-91.92 130.25,-73.42 153.75,-73.42 153.75,-91.92"/>
<text text-anchor="middle" x="142" y="-79.37" font-family="Times New Roman,serif" font-size="9.00">&#45;2</text>
</g>
<!-- 0 -->
<g id="node18" class="node">
<title>0</title>
<ellipse fill="lightblue" stroke="black" cx="206" cy="-14.5" rx="14.5" ry="14.5"/>
<text text-anchor="middle" x="206" y="-11.2" font-family="Times New Roman,serif" font-size="9.00">0</text>
</g>
<!-- &#45;2&#45;&gt;0 -->
<g id="edge8" class="edge">
<title>&#45;2&#45;&gt;0</title>
<path fill="none" stroke="red" stroke-width="0.26" d="M150.37,-73.02C160.13,-62.92 176.53,-45.97 189,-33.07"/>
<polygon fill="red" stroke="red" stroke-width="0.26" points="191.45,-35.57 195.89,-25.95 186.42,-30.71 191.45,-35.57"/>
</g>
<!-- &#45;3 -->
<g id="node3" class="node">
<title>&#45;3</title>
<polygon fill="lightgray" stroke="black" points="321.75,-91.92 298.25,-91.92 298.25,-73.42 321.75,-73.42 321.75,-91.92"/>
<text text-anchor="middle" x="310" y="-79.37" font-family="Times New Roman,serif" font-size="9.00">&#45;3</text>
</g>
<!-- &#45;3&#45;&gt;0 -->
<g id="edge13" class="edge">
<title>&#45;3&#45;&gt;0</title>
<path fill="none" stroke="red" stroke-width="0.33" stroke-dasharray="1,5" d="M297.84,-73.85C293.48,-71.05 288.52,-67.88 284,-64.99 264.56,-52.59 242.35,-38.5 226.62,-28.54"/>
<polygon fill="red" stroke="red" stroke-width="0.33" points="228.91,-25.85 218.59,-23.46 225.17,-31.76 228.91,-25.85"/>
</g>
<!-- 1 -->
<g id="node19" class="node">
<title>1</title>
<ellipse fill="lightblue" stroke="black" cx="422" cy="-14.5" rx="14.5" ry="14.5"/>
<text text-anchor="middle" x="422" y="-11.2" font-family="Times New Roman,serif" font-size="9.00">1</text>
</g>
<!-- &#45;3&#45;&gt;1 -->
<g id="edge17" class="edge">
<title>&#45;3&#45;&gt;1</title>
<path fill="none" stroke="red" stroke-width="0.73" d="M319.99,-73.16C323.39,-70.42 327.27,-67.46 331,-64.99 353.29,-50.24 380.38,-35.93 399.18,-26.52"/>
<polygon fill="red" stroke="red" stroke-width="0.73" points="400.53,-29.76 407.95,-22.19 397.43,-23.48 400.53,-29.76"/>
</g>
<!-- &#45;4 -->
<g id="node4" class="node">
<title>&#45;4</title>
<polygon fill="lightgray" stroke="black" points="457.75,-91.92 434.25,-91.92 434.25,-73.42 457.75,-73.42 457.75,-91.92"/>
<text text-anchor="middle" x="446" y="-79.37" font-family="Times New Roman,serif" font-size="9.00">&#45;4</text>
</g>
<!-- &#45;4&#45;&gt;1 -->
<g id="edge9" class="edge">
<title>&#45;4&#45;&gt;1</title>
<path fill="none" stroke="red" stroke-width="0.63" d="M442.86,-73.02C439.71,-64.33 434.72,-50.56 430.4,-38.67"/>
<polygon fill="red" stroke="red" stroke-width="0.63" points="433.73,-37.58 427.03,-29.38 427.15,-39.97 433.73,-37.58"/>
</g>
<!-- &#45;5 -->
<g id="node5" class="node">
<title>&#45;5</title>
<polygon fill="lightgray" stroke="black" points="486.75,-166.46 463.25,-166.46 463.25,-147.96 486.75,-147.96 486.75,-166.46"/>
<text text-anchor="middle" x="475" y="-153.91" font-family="Times New Roman,serif" font-size="9.00">&#45;5</text>
</g>
<!-- &#45;6 -->
<g id="node6" class="node">
<title>&#45;6</title>
<polygon fill="lightgray" stroke="black" points="499.75,-91.92 476.25,-91.92 476.25,-73.42 499.75,-73.42 499.75,-91.92"/>
<text text-anchor="middle" x="488" y="-79.37" font-family="Times New Roman,serif" font-size="9.00">&#45;6</text>
</g>
<!-- &#45;6&#45;&gt;1 -->
<g id="edge11" class="edge">
<title>&#45;6&#45;&gt;1</title>
<path fill="none" stroke="red" stroke-width="0.76" d="M479.37,-73.02C469.28,-62.9 452.33,-45.9 439.46,-33"/>
<polygon fill="red" stroke="red" stroke-width="0.76" points="442.05,-30.64 432.51,-26.04 437.1,-35.59 442.05,-30.64"/>
</g>
<!-- &#45;7 -->
<g id="node7" class="node">
<title>&#45;7</title>
<polygon fill="lightgray" stroke="black" points="384.75,-166.46 361.25,-166.46 361.25,-147.96 384.75,-147.96 384.75,-166.46"/>
<text text-anchor="middle" x="373" y="-153.91" font-family="Times New Roman,serif" font-size="9.00">&#45;7</text>
</g>
<!-- 78 -->
<g id="node20" class="node">
<title>78</title>
<ellipse fill="white" stroke="black" cx="399" cy="-82.67" rx="17.68" ry="17.68"/>
<text text-anchor="middle" x="399" y="-79.37" font-family="Times New Roman,serif" font-size="9.00">78</text>
</g>
<!-- &#45;7&#45;&gt;78 -->
<g id="edge1" class="edge">
<title>&#45;7&#45;&gt;78</title>
<path fill="none" stroke="green" stroke-width="0.3" d="M376.08,-147.6C379.45,-138.21 385,-122.73 389.79,-109.35"/>
<polygon fill="green" stroke="green" stroke-width="0.3" points="393.03,-110.7 393.11,-100.1 386.44,-108.34 393.03,-110.7"/>
</g>
<!-- &#45;8 -->
<g id="node8" class="node">
<title>&#45;8</title>
<polygon fill="lightgray" stroke="black" points="363.75,-91.92 340.25,-91.92 340.25,-73.42 363.75,-73.42 363.75,-91.92"/>
<text text-anchor="middle" x="352" y="-79.37" font-family="Times New Roman,serif" font-size="9.00">&#45;8</text>
</g>
<!-- &#45;8&#45;&gt;0 -->
<g id="edge16" class="edge">
<title>&#45;8&#45;&gt;0</title>
<path fill="none" stroke="green" stroke-width="0.12" stroke-dasharray="1,5" d="M342.6,-73.23C339.12,-70.38 335.03,-67.32 331,-64.99 297.61,-45.69 255.25,-30.69 229.41,-22.47"/>
<polygon fill="green" stroke="green" stroke-width="0.12" points="230.49,-19.14 219.9,-19.52 228.41,-25.83 230.49,-19.14"/>
</g>
<!-- &#45;8&#45;&gt;1 -->
<g id="edge6" class="edge">
<title>&#45;8&#45;&gt;1</title>
<path fill="none" stroke="red" stroke-width="0.26" d="M361.15,-73.02C372.06,-62.71 390.52,-45.25 404.26,-32.27"/>
<polygon fill="red" stroke="red" stroke-width="0.26" points="406.56,-34.9 411.43,-25.49 401.76,-29.82 406.56,-34.9"/>
</g>
<!-- &#45;9 -->
<g id="node9" class="node">
<title>&#45;9</title>
<polygon fill="lightgray" stroke="black" points="195.75,-91.92 172.25,-91.92 172.25,-73.42 195.75,-73.42 195.75,-91.92"/>
<text text-anchor="middle" x="184" y="-79.37" font-family="Times New Roman,serif" font-size="9.00">&#45;9</text>
</g>
<!-- &#45;9&#45;&gt;0 -->
<g id="edge18" class="edge">
<title>&#45;9&#45;&gt;0</title>
<path fill="none" stroke="red" stroke-width="0.6" stroke-dasharray="1,5" d="M186.88,-73.02C189.77,-64.33 194.34,-50.56 198.3,-38.67"/>
<polygon fill="red" stroke="red" stroke-width="0.6" points="201.56,-39.93 201.4,-29.34 194.92,-37.73 201.56,-39.93"/>
</g>
<!-- &#45;10 -->
<g id="node10" class="node">
<title>&#45;10</title>
<polygon fill="lightgray" stroke="black" points="242,-91.92 214,-91.92 214,-73.42 242,-73.42 242,-91.92"/>
<text text-anchor="middle" x="228" y="-79.37" font-family="Times New Roman,serif" font-size="9.00">&#45;10</text>
</g>
<!-- &#45;10&#45;&gt;0 -->
<g id="edge21" class="edge">
<title>&#45;10&#45;&gt;0</title>
<path fill="none" stroke="green" stroke-width="0.34" d="M225.12,-73.02C222.21,-64.24 217.56,-50.27 213.58,-38.3"/>
<polygon fill="green" stroke="green" stroke-width="0.34" points="216.95,-37.35 210.48,-28.96 210.31,-39.56 216.95,-37.35"/>
</g>
<!-- &#45;11 -->
<g id="node11" class="node">
<title>&#45;11</title>
<polygon fill="lightgray" stroke="black" points="546,-91.92 518,-91.92 518,-73.42 546,-73.42 546,-91.92"/>
<text text-anchor="middle" x="532" y="-79.37" font-family="Times New Roman,serif" font-size="9.00">&#45;11</text>
</g>
<!-- &#45;11&#45;&gt;1 -->
<g id="edge12" class="edge">
<title>&#45;11&#45;&gt;1</title>
<path fill="none" stroke="red" stroke-width="0.88" d="M520.47,-72.93C516.86,-70.29 512.81,-67.45 509,-64.99 487.61,-51.21 462.22,-37 444.41,-27.36"/>
<polygon fill="red" stroke="red" stroke-width="0.88" points="446.29,-24.4 435.82,-22.75 442.98,-30.56 446.29,-24.4"/>
</g>
<!-- &#45;12 -->
<g id="node12" class="node">
<title>&#45;12</title>
<polygon fill="lightgray" stroke="black" points="313,-166.46 285,-166.46 285,-147.96 313,-147.96 313,-166.46"/>
<text text-anchor="middle" x="299" y="-153.91" font-family="Times New Roman,serif" font-size="9.00">&#45;12</text>
</g>
<!-- &#45;12&#45;&gt;0 -->
<g id="edge14" class="edge">
<title>&#45;12&#45;&gt;0</title>
<path fill="none" stroke="green" stroke-width="0.21" d="M295.31,-147.49C288.04,-130.76 270.82,-93.28 251,-64.99 242.86,-53.37 232.23,-41.56 223.35,-32.4"/>
<polygon fill="green" stroke="green" stroke-width="0.21" points="225.86,-29.95 216.33,-25.32 220.89,-34.88 225.86,-29.95"/>
</g>
<!-- &#45;12&#45;&gt;78 -->
<g id="edge2" class="edge">
<title>&#45;12&#45;&gt;78</title>
<path fill="none" stroke="green" stroke-width="0.25" stroke-dasharray="1,5" d="M310.86,-147.6C327,-135.9 356.18,-114.73 376.52,-99.97"/>
<polygon fill="green" stroke="green" stroke-width="0.25" points="378.56,-102.82 384.6,-94.11 374.45,-97.15 378.56,-102.82"/>
</g>
<!-- &#45;13 -->
<g id="node13" class="node">
<title>&#45;13</title>
<polygon fill="lightgray" stroke="black" points="533,-166.46 505,-166.46 505,-147.96 533,-147.96 533,-166.46"/>
<text text-anchor="middle" x="519" y="-153.91" font-family="Times New Roman,serif" font-size="9.00">&#45;13</text>
</g>
<!-- &#45;14 -->
<g id="node14" class="node">
<title>&#45;14</title>
<polygon fill="lightgray" stroke="black" points="28,-91.92 0,-91.92 0,-73.42 28,-73.42 28,-91.92"/>
<text text-anchor="middle" x="14" y="-79.37" font-family="Times New Roman,serif" font-size="9.00">&#45;14</text>
</g>
<!-- &#45;14&#45;&gt;0 -->
<g id="edge10" class="edge">
<title>&#45;14&#45;&gt;0</title>
<path fill="none" stroke="green" stroke-width="0.34" stroke-dasharray="1,5" d="M24.28,-73.06C28.09,-70.18 32.57,-67.16 37,-64.99 85.58,-41.16 147.77,-26.62 181.53,-19.92"/>
<polygon fill="green" stroke="green" stroke-width="0.34" points="182.16,-23.36 191.32,-18.04 180.84,-16.49 182.16,-23.36"/>
</g>
<!-- &#45;15 -->
<g id="node15" class="node">
<title>&#45;15</title>
<polygon fill="lightgray" stroke="black" points="74,-91.92 46,-91.92 46,-73.42 74,-73.42 74,-91.92"/>
<text text-anchor="middle" x="60" y="-79.37" font-family="Times New Roman,serif" font-size="9.00">&#45;15</text>
</g>
<!-- &#45;15&#45;&gt;0 -->
<g id="edge7" class="edge">
<title>&#45;15&#45;&gt;0</title>
<path fill="none" stroke="green" stroke-width="0.34" d="M73.74,-72.96C78.21,-70.27 83.25,-67.39 88,-64.99 120.14,-48.78 158.86,-33.26 182.96,-24.06"/>
<polygon fill="green" stroke="green" stroke-width="0.34" points="184.03,-27.39 192.15,-20.58 181.56,-20.84 184.03,-27.39"/>
</g>
<!-- &#45;16 -->
<g id="node16" class="node">
<title>&#45;16</title>
<polygon fill="lightgray" stroke="black" points="177,-166.46 149,-166.46 149,-147.96 177,-147.96 177,-166.46"/>
<text text-anchor="middle" x="163" y="-153.91" font-family="Times New Roman,serif" font-size="9.00">&#45;16</text>
</g>
<!-- &#45;16&#45;&gt;0 -->
<g id="edge15" class="edge">
<title>&#45;16&#45;&gt;0</title>
<path fill="none" stroke="red" stroke-width="0.27" stroke-dasharray="1,5" d="M153.57,-147.65C136.62,-131.19 104.23,-94.16 121,-64.99 134.05,-42.3 161.94,-29.04 182.23,-22.05"/>
<polygon fill="red" stroke="red" stroke-width="0.27" points="183.16,-25.42 191.64,-19.07 181.05,-18.75 183.16,-25.42"/>
</g>
<!-- &#45;16&#45;&gt;78 -->
<g id="edge3" class="edge">
<title>&#45;16&#45;&gt;78</title>
<path fill="none" stroke="green" stroke-width="0.18" stroke-dasharray="1,5" d="M177.26,-153.99C211.94,-148.26 302.92,-131.24 373,-100.35 374.01,-99.9 375.02,-99.42 376.03,-98.92"/>
<polygon fill="green" stroke="green" stroke-width="0.18" points="377.7,-101.99 384.64,-93.98 374.22,-95.92 377.7,-101.99"/>
</g>
<!-- &#45;17 -->
<g id="node17" class="node">
<title>&#45;17</title>
<polygon fill="lightgray" stroke="black" points="579,-166.46 551,-166.46 551,-147.96 579,-147.96 579,-166.46"/>
<text text-anchor="middle" x="565" y="-153.91" font-family="Times New Roman,serif" font-size="9.00">&#45;17</text>
</g>
<!-- 0&#45;&gt;0 -->
<g id="edge5" class="edge">
<title>0&#45;&gt;0</title>
<path fill="none" stroke="red" stroke-width="1.05" d="M216.65,-24.65C227.06,-30.26 238.5,-26.88 238.5,-14.5 238.5,-6.56 233.8,-2.32 227.69,-1.77"/>
<polygon fill="red" stroke="red" stroke-width="1.05" points="227.15,1.69 218.2,-3.98 228.73,-5.13 227.15,1.69"/>
</g>
<!-- 78&#45;&gt;0 -->
<g id="edge20" class="edge">
<title>78&#45;&gt;0</title>
<path fill="none" stroke="green" stroke-width="0.38" d="M384.84,-71.56C381.1,-69.19 377,-66.82 373,-64.99 324.58,-42.83 263.76,-27.74 230.5,-20.47"/>
<polygon fill="green" stroke="green" stroke-width="0.38" points="231.41,-17.09 220.9,-18.43 229.96,-23.94 231.41,-17.09"/>
</g>
<!-- 78&#45;&gt;1 -->
<g id="edge4" class="edge">
<title>78&#45;&gt;1</title>
<path fill="none" stroke="green" stroke-width="0.58" stroke-dasharray="1,5" d="M404.57,-65.65C407.37,-57.6 410.81,-47.7 413.89,-38.82"/>
<polygon fill="green" stroke="green" stroke-width="0.58" points="417.14,-40.13 417.12,-29.53 410.53,-37.83 417.14,-40.13"/>
</g>
<!-- 303 -->
<g id="node21" class="node">
<title>303</title>
<ellipse fill="white" stroke="black" cx="424" cy="-157.21" rx="20.86" ry="20.86"/>
<text text-anchor="middle" x="424" y="-153.91" font-family="Times New Roman,serif" font-size="9.00">303</text>
</g>
<!-- 303&#45;&gt;78 -->
<g id="edge19" class="edge">
<title>303&#45;&gt;78</title>
<path fill="none" stroke="red" stroke-width="0.65" d="M417.43,-137.15C414.59,-128.91 411.22,-119.13 408.15,-110.21"/>
<polygon fill="red" stroke="red" stroke-width="0.65" points="411.48,-109.15 404.92,-100.83 404.86,-111.43 411.48,-109.15"/>
</g>
</g>
</svg>
