<?xml version="1.0" encoding="UTF-8" standalone="no"?>
<!DOCTYPE svg PUBLIC "-//W3C//DTD SVG 1.1//EN"
 "http://www.w3.org/Graphics/SVG/1.1/DTD/svg11.dtd">
<!-- Generated by graphviz version 12.2.1 (20241206.2353)
 -->
<!-- Pages: 1 -->
<svg width="708pt" height="163pt"
 viewBox="0.00 0.00 708.25 162.85" xmlns="http://www.w3.org/2000/svg" xmlns:xlink="http://www.w3.org/1999/xlink">
<g id="graph0" class="graph" transform="scale(1 1) rotate(0) translate(4 158.85)">
<polygon fill="white" stroke="none" points="-4,4 -4,-158.85 704.25,-158.85 704.25,4 -4,4"/>
<!-- &#45;1 -->
<g id="node1" class="node">
<title>&#45;1</title>
<polygon fill="lightgray" stroke="black" points="23.5,-154.85 0,-154.85 0,-136.35 23.5,-136.35 23.5,-154.85"/>
<text text-anchor="middle" x="11.75" y="-142.3" font-family="Times New Roman,serif" font-size="9.00">&#45;1</text>
</g>
<!-- 39 -->
<g id="node20" class="node">
<title>39</title>
<ellipse fill="white" stroke="black" cx="307.75" cy="-82.67" rx="17.68" ry="17.68"/>
<text text-anchor="middle" x="307.75" y="-79.37" font-family="Times New Roman,serif" font-size="9.00">39</text>
</g>
<!-- &#45;1&#45;&gt;39 -->
<g id="edge1" class="edge">
<title>&#45;1&#45;&gt;39</title>
<path fill="none" stroke="green" stroke-width="0.42" d="M23.61,-139.5C26.56,-138.35 29.74,-137.22 32.75,-136.35 121.31,-110.71 229.58,-94.15 279.76,-87.28"/>
<polygon fill="green" stroke="green" stroke-width="0.42" points="280.04,-90.78 289.49,-85.98 279.11,-83.84 280.04,-90.78"/>
</g>
<!-- &#45;2 -->
<g id="node2" class="node">
<title>&#45;2</title>
<polygon fill="lightgray" stroke="black" points="65.5,-154.85 42,-154.85 42,-136.35 65.5,-136.35 65.5,-154.85"/>
<text text-anchor="middle" x="53.75" y="-142.3" font-family="Times New Roman,serif" font-size="9.00">&#45;2</text>
</g>
<!-- &#45;2&#45;&gt;39 -->
<g id="edge2" class="edge">
<title>&#45;2&#45;&gt;39</title>
<path fill="none" stroke="red" stroke-width="0.53" d="M65.63,-139.57C68.58,-138.42 71.75,-137.27 74.75,-136.35 147.5,-113.97 235.69,-96.61 279.79,-88.57"/>
<polygon fill="red" stroke="red" stroke-width="0.53" points="280.25,-92.04 289.48,-86.82 279.01,-85.15 280.25,-92.04"/>
</g>
<!-- &#45;3 -->
<g id="node3" class="node">
<title>&#45;3</title>
<polygon fill="lightgray" stroke="black" points="107.5,-154.85 84,-154.85 84,-136.35 107.5,-136.35 107.5,-154.85"/>
<text text-anchor="middle" x="95.75" y="-142.3" font-family="Times New Roman,serif" font-size="9.00">&#45;3</text>
</g>
<!-- &#45;3&#45;&gt;39 -->
<g id="edge3" class="edge">
<title>&#45;3&#45;&gt;39</title>
<path fill="none" stroke="green" stroke-width="0.27" d="M107.66,-139.67C110.61,-138.51 113.78,-137.34 116.75,-136.35 174.22,-117.19 243.01,-99.46 280.35,-90.26"/>
<polygon fill="green" stroke="green" stroke-width="0.27" points="281.17,-93.66 290.05,-87.89 279.51,-86.86 281.17,-93.66"/>
</g>
<!-- &#45;4 -->
<g id="node4" class="node">
<title>&#45;4</title>
<polygon fill="lightgray" stroke="black" points="149.5,-154.85 126,-154.85 126,-136.35 149.5,-136.35 149.5,-154.85"/>
<text text-anchor="middle" x="137.75" y="-142.3" font-family="Times New Roman,serif" font-size="9.00">&#45;4</text>
</g>
<!-- &#45;4&#45;&gt;39 -->
<g id="edge4" class="edge">
<title>&#45;4&#45;&gt;39</title>
<path fill="none" stroke="red" stroke-width="0.14" stroke-dasharray="1,5" d="M149.72,-139.81C152.66,-138.66 155.81,-137.44 158.75,-136.35 201.71,-120.32 252.07,-102.77 281.87,-92.52"/>
<polygon fill="red" stroke="red" stroke-width="0.14" points="282.63,-95.96 290.95,-89.4 280.35,-89.34 282.63,-95.96"/>
</g>
<!-- &#45;5 -->
<g id="node5" class="node">
<title>&#45;5</title>
<polygon fill="lightgray" stroke="black" points="191.5,-154.85 168,-154.85 168,-136.35 191.5,-136.35 191.5,-154.85"/>
<text text-anchor="middle" x="179.75" y="-142.3" font-family="Times New Roman,serif" font-size="9.00">&#45;5</text>
</g>
<!-- &#45;5&#45;&gt;39 -->
<g id="edge5" class="edge">
<title>&#45;5&#45;&gt;39</title>
<path fill="none" stroke="green" stroke-width="0.12" d="M191.56,-138.97C212.27,-129.12 255.52,-108.53 283.02,-95.44"/>
<polygon fill="green" stroke="green" stroke-width="0.12" points="284.34,-98.69 291.86,-91.23 281.33,-92.37 284.34,-98.69"/>
</g>
<!-- &#45;6 -->
<g id="node6" class="node">
<title>&#45;6</title>
<polygon fill="lightgray" stroke="black" points="233.5,-154.85 210,-154.85 210,-136.35 233.5,-136.35 233.5,-154.85"/>
<text text-anchor="middle" x="221.75" y="-142.3" font-family="Times New Roman,serif" font-size="9.00">&#45;6</text>
</g>
<!-- &#45;6&#45;&gt;39 -->
<g id="edge6" class="edge">
<title>&#45;6&#45;&gt;39</title>
<path fill="none" stroke="red" stroke-width="0.47" d="M233.71,-136.12C246.95,-126.74 268.6,-111.41 285.07,-99.73"/>
<polygon fill="red" stroke="red" stroke-width="0.47" points="286.9,-102.73 293.03,-94.1 282.85,-97.02 286.9,-102.73"/>
</g>
<!-- &#45;7 -->
<g id="node7" class="node">
<title>&#45;7</title>
<polygon fill="lightgray" stroke="black" points="593.5,-154.85 570,-154.85 570,-136.35 593.5,-136.35 593.5,-154.85"/>
<text text-anchor="middle" x="581.75" y="-142.3" font-family="Times New Roman,serif" font-size="9.00">&#45;7</text>
</g>
<!-- 0 -->
<g id="node18" class="node">
<title>0</title>
<ellipse fill="lightblue" stroke="black" cx="339.75" cy="-14.5" rx="14.5" ry="14.5"/>
<text text-anchor="middle" x="339.75" y="-11.2" font-family="Times New Roman,serif" font-size="9.00">0</text>
</g>
<!-- &#45;7&#45;&gt;0 -->
<g id="edge18" class="edge">
<title>&#45;7&#45;&gt;0</title>
<path fill="none" stroke="red" stroke-width="0.66" d="M569.88,-139.54C566.93,-138.39 563.75,-137.25 560.75,-136.35 486.78,-114.15 453.65,-145.17 390.75,-100.35 369.59,-85.27 355.64,-58.41 347.76,-38.94"/>
<polygon fill="red" stroke="red" stroke-width="0.66" points="351.06,-37.79 344.26,-29.67 344.52,-40.26 351.06,-37.79"/>
</g>
<!-- &#45;7&#45;&gt;39 -->
<g id="edge7" class="edge">
<title>&#45;7&#45;&gt;39</title>
<path fill="none" stroke="red" stroke-width="0.19" d="M569.9,-139.47C566.95,-138.32 563.77,-137.2 560.75,-136.35 472.56,-111.47 446.56,-122.9 357.75,-100.35 349.86,-98.34 341.41,-95.72 333.74,-93.14"/>
<polygon fill="red" stroke="red" stroke-width="0.19" points="335.11,-89.91 324.51,-89.94 332.81,-96.52 335.11,-89.91"/>
</g>
<!-- &#45;8 -->
<g id="node8" class="node">
<title>&#45;8</title>
<polygon fill="lightgray" stroke="black" points="275.5,-154.85 252,-154.85 252,-136.35 275.5,-136.35 275.5,-154.85"/>
<text text-anchor="middle" x="263.75" y="-142.3" font-family="Times New Roman,serif" font-size="9.00">&#45;8</text>
</g>
<!-- &#45;8&#45;&gt;39 -->
<g id="edge8" class="edge">
<title>&#45;8&#45;&gt;39</title>
<path fill="none" stroke="red" stroke-width="0.22" d="M270.05,-135.87C275.7,-128.05 284.22,-116.26 291.73,-105.85"/>
<polygon fill="red" stroke="red" stroke-width="0.22" points="294.5,-107.99 297.52,-97.83 288.83,-103.89 294.5,-107.99"/>
</g>
<!-- &#45;9 -->
<g id="node9" class="node">
<title>&#45;9</title>
<polygon fill="lightgray" stroke="black" points="635.5,-154.85 612,-154.85 612,-136.35 635.5,-136.35 635.5,-154.85"/>
<text text-anchor="middle" x="623.75" y="-142.3" font-family="Times New Roman,serif" font-size="9.00">&#45;9</text>
</g>
<!-- &#45;10 -->
<g id="node10" class="node">
<title>&#45;10</title>
<polygon fill="lightgray" stroke="black" points="681.75,-154.85 653.75,-154.85 653.75,-136.35 681.75,-136.35 681.75,-154.85"/>
<text text-anchor="middle" x="667.75" y="-142.3" font-family="Times New Roman,serif" font-size="9.00">&#45;10</text>
</g>
<!-- 1 -->
<g id="node19" class="node">
<title>1</title>
<ellipse fill="lightblue" stroke="black" cx="667.75" cy="-82.67" rx="14.5" ry="14.5"/>
<text text-anchor="middle" x="667.75" y="-79.37" font-family="Times New Roman,serif" font-size="9.00">1</text>
</g>
<!-- &#45;10&#45;&gt;1 -->
<g id="edge19" class="edge">
<title>&#45;10&#45;&gt;1</title>
<path fill="none" stroke="green" stroke-width="0.38" stroke-dasharray="1,5" d="M667.75,-135.87C667.75,-128.6 667.75,-117.89 667.75,-108.06"/>
<polygon fill="green" stroke="green" stroke-width="0.38" points="671.25,-108.14 667.75,-98.14 664.25,-108.14 671.25,-108.14"/>
</g>
<!-- &#45;11 -->
<g id="node11" class="node">
<title>&#45;11</title>
<polygon fill="lightgray" stroke="black" points="321.75,-154.85 293.75,-154.85 293.75,-136.35 321.75,-136.35 321.75,-154.85"/>
<text text-anchor="middle" x="307.75" y="-142.3" font-family="Times New Roman,serif" font-size="9.00">&#45;11</text>
</g>
<!-- &#45;11&#45;&gt;39 -->
<g id="edge9" class="edge">
<title>&#45;11&#45;&gt;39</title>
<path fill="none" stroke="red" stroke-width="0.22" d="M307.75,-135.87C307.75,-129.25 307.75,-119.76 307.75,-110.7"/>
<polygon fill="red" stroke="red" stroke-width="0.22" points="311.25,-110.77 307.75,-100.77 304.25,-110.77 311.25,-110.77"/>
</g>
<!-- &#45;12 -->
<g id="node12" class="node">
<title>&#45;12</title>
<polygon fill="lightgray" stroke="black" points="367.75,-154.85 339.75,-154.85 339.75,-136.35 367.75,-136.35 367.75,-154.85"/>
<text text-anchor="middle" x="353.75" y="-142.3" font-family="Times New Roman,serif" font-size="9.00">&#45;12</text>
</g>
<!-- &#45;12&#45;&gt;39 -->
<g id="edge10" class="edge">
<title>&#45;12&#45;&gt;39</title>
<path fill="none" stroke="green" stroke-width="0.11" d="M347.16,-135.87C341.12,-127.87 331.94,-115.7 323.95,-105.13"/>
<polygon fill="green" stroke="green" stroke-width="0.11" points="326.81,-103.11 317.99,-97.24 321.23,-107.33 326.81,-103.11"/>
</g>
<!-- &#45;13 -->
<g id="node13" class="node">
<title>&#45;13</title>
<polygon fill="lightgray" stroke="black" points="413.75,-154.85 385.75,-154.85 385.75,-136.35 413.75,-136.35 413.75,-154.85"/>
<text text-anchor="middle" x="399.75" y="-142.3" font-family="Times New Roman,serif" font-size="9.00">&#45;13</text>
</g>
<!-- &#45;13&#45;&gt;39 -->
<g id="edge11" class="edge">
<title>&#45;13&#45;&gt;39</title>
<path fill="none" stroke="red" stroke-width="0.22" stroke-dasharray="1,5" d="M386.57,-135.87C372.1,-126.28 348.59,-110.71 331,-99.07"/>
<polygon fill="red" stroke="red" stroke-width="0.22" points="332.97,-96.18 322.7,-93.57 329.11,-102.01 332.97,-96.18"/>
</g>
<!-- &#45;14 -->
<g id="node14" class="node">
<title>&#45;14</title>
<polygon fill="lightgray" stroke="black" points="427.75,-91.92 399.75,-91.92 399.75,-73.42 427.75,-73.42 427.75,-91.92"/>
<text text-anchor="middle" x="413.75" y="-79.37" font-family="Times New Roman,serif" font-size="9.00">&#45;14</text>
</g>
<!-- &#45;14&#45;&gt;0 -->
<g id="edge20" class="edge">
<title>&#45;14&#45;&gt;0</title>
<path fill="none" stroke="green" stroke-width="0.56" d="M404.08,-73.02C392.42,-62.59 372.58,-44.85 358.01,-31.82"/>
<polygon fill="green" stroke="green" stroke-width="0.56" points="360.56,-29.41 350.77,-25.35 355.89,-34.63 360.56,-29.41"/>
</g>
<!-- &#45;15 -->
<g id="node15" class="node">
<title>&#45;15</title>
<polygon fill="lightgray" stroke="black" points="459.75,-154.85 431.75,-154.85 431.75,-136.35 459.75,-136.35 459.75,-154.85"/>
<text text-anchor="middle" x="445.75" y="-142.3" font-family="Times New Roman,serif" font-size="9.00">&#45;15</text>
</g>
<!-- &#45;15&#45;&gt;39 -->
<g id="edge12" class="edge">
<title>&#45;15&#45;&gt;39</title>
<path fill="none" stroke="green" stroke-width="0.18" stroke-dasharray="1,5" d="M431.5,-138.31C408.24,-128.03 361.8,-107.53 332.9,-94.77"/>
<polygon fill="green" stroke="green" stroke-width="0.18" points="334.64,-91.71 324.07,-90.88 331.81,-98.12 334.64,-91.71"/>
</g>
<!-- &#45;16 -->
<g id="node16" class="node">
<title>&#45;16</title>
<polygon fill="lightgray" stroke="black" points="505.75,-154.85 477.75,-154.85 477.75,-136.35 505.75,-136.35 505.75,-154.85"/>
<text text-anchor="middle" x="491.75" y="-142.3" font-family="Times New Roman,serif" font-size="9.00">&#45;16</text>
</g>
<!-- &#45;16&#45;&gt;39 -->
<g id="edge13" class="edge">
<title>&#45;16&#45;&gt;39</title>
<path fill="none" stroke="red" stroke-width="0.18" d="M477.66,-139.47C474.72,-138.42 471.64,-137.33 468.75,-136.35 419.67,-119.59 407.02,-116.55 357.75,-100.35 350.01,-97.8 341.61,-95.01 333.95,-92.45"/>
<polygon fill="red" stroke="red" stroke-width="0.18" points="335.26,-89.2 324.67,-89.35 333.04,-95.84 335.26,-89.2"/>
</g>
<!-- &#45;17 -->
<g id="node17" class="node">
<title>&#45;17</title>
<polygon fill="lightgray" stroke="black" points="551.75,-154.85 523.75,-154.85 523.75,-136.35 551.75,-136.35 551.75,-154.85"/>
<text text-anchor="middle" x="537.75" y="-142.3" font-family="Times New Roman,serif" font-size="9.00">&#45;17</text>
</g>
<!-- &#45;17&#45;&gt;39 -->
<g id="edge14" class="edge">
<title>&#45;17&#45;&gt;39</title>
<path fill="none" stroke="green" stroke-width="0.11" stroke-dasharray="1,5" d="M523.73,-139.27C520.78,-138.23 517.68,-137.21 514.75,-136.35 446.05,-116.23 426.67,-119.7 357.75,-100.35 349.91,-98.15 341.48,-95.46 333.81,-92.89"/>
<polygon fill="green" stroke="green" stroke-width="0.11" points="335.05,-89.61 324.45,-89.69 332.78,-96.24 335.05,-89.61"/>
</g>
<!-- 0&#45;&gt;39 -->
<g id="edge21" class="edge">
<title>0&#45;&gt;39</title>
<path fill="none" stroke="green" stroke-width="0.41" d="M338.74,-29.13C335.67,-37.98 330.27,-49.7 324.7,-59.83"/>
<polygon fill="green" stroke="green" stroke-width="0.41" points="321.73,-57.98 319.69,-68.38 327.77,-61.52 321.73,-57.98"/>
</g>
<!-- 1&#45;&gt;1 -->
<g id="edge16" class="edge">
<title>1&#45;&gt;1</title>
<path fill="none" stroke="red" stroke-width="0.16" d="M679.07,-92.37C689.3,-97.09 700.25,-93.85 700.25,-82.67 700.25,-75.15 695.3,-71.23 688.96,-70.89"/>
<polygon fill="red" stroke="red" stroke-width="0.16" points="688.38,-67.44 679.31,-72.92 689.82,-74.29 688.38,-67.44"/>
</g>
<!-- 39&#45;&gt;0 -->
<g id="edge15" class="edge">
<title>39&#45;&gt;0</title>
<path fill="none" stroke="red" stroke-width="0.29" d="M309.87,-64.97C313.39,-55.67 318.93,-44.05 324.44,-34.41"/>
<polygon fill="red" stroke="red" stroke-width="0.29" points="327.37,-36.32 329.62,-25.97 321.4,-32.66 327.37,-36.32"/>
</g>
<!-- 39&#45;&gt;39 -->
<g id="edge17" class="edge">
<title>39&#45;&gt;39</title>
<path fill="none" stroke="green" stroke-width="0.16" d="M322.41,-93.2C332.94,-96.63 343.43,-93.12 343.43,-82.67 343.43,-75.65 338.69,-71.76 332.39,-71.01"/>
<polygon fill="green" stroke="green" stroke-width="0.16" points="332.19,-67.51 322.65,-72.11 332.98,-74.46 332.19,-67.51"/>
</g>
</g>
</svg>
