<?xml version="1.0" encoding="UTF-8" standalone="no"?>
<!DOCTYPE svg PUBLIC "-//W3C//DTD SVG 1.1//EN"
 "http://www.w3.org/Graphics/SVG/1.1/DTD/svg11.dtd">
<!-- Generated by graphviz version 12.2.1 (20241206.2353)
 -->
<!-- Pages: 1 -->
<svg width="690pt" height="163pt"
 viewBox="0.00 0.00 690.00 162.85" xmlns="http://www.w3.org/2000/svg" xmlns:xlink="http://www.w3.org/1999/xlink">
<g id="graph0" class="graph" transform="scale(1 1) rotate(0) translate(4 158.85)">
<polygon fill="white" stroke="none" points="-4,4 -4,-158.85 686,-158.85 686,4 -4,4"/>
<!-- &#45;1 -->
<g id="node1" class="node">
<title>&#45;1</title>
<polygon fill="lightgray" stroke="black" points="203.75,-154.85 180.25,-154.85 180.25,-136.35 203.75,-136.35 203.75,-154.85"/>
<text text-anchor="middle" x="192" y="-142.3" font-family="Times New Roman,serif" font-size="9.00">&#45;1</text>
</g>
<!-- 76 -->
<g id="node20" class="node">
<title>76</title>
<ellipse fill="white" stroke="black" cx="297" cy="-82.67" rx="17.68" ry="17.68"/>
<text text-anchor="middle" x="297" y="-79.37" font-family="Times New Roman,serif" font-size="9.00">76</text>
</g>
<!-- &#45;1&#45;&gt;76 -->
<g id="edge1" class="edge">
<title>&#45;1&#45;&gt;76</title>
<path fill="none" stroke="red" stroke-width="0.28" d="M204.04,-137.61C220.84,-127.86 251.66,-109.98 273.19,-97.48"/>
<polygon fill="red" stroke="red" stroke-width="0.28" points="274.81,-100.59 281.7,-92.55 271.29,-94.54 274.81,-100.59"/>
</g>
<!-- &#45;2 -->
<g id="node2" class="node">
<title>&#45;2</title>
<polygon fill="lightgray" stroke="black" points="245.75,-154.85 222.25,-154.85 222.25,-136.35 245.75,-136.35 245.75,-154.85"/>
<text text-anchor="middle" x="234" y="-142.3" font-family="Times New Roman,serif" font-size="9.00">&#45;2</text>
</g>
<!-- &#45;2&#45;&gt;76 -->
<g id="edge2" class="edge">
<title>&#45;2&#45;&gt;76</title>
<path fill="none" stroke="red" stroke-width="0.26" d="M243.03,-135.87C251.87,-127.31 265.65,-113.99 277.07,-102.94"/>
<polygon fill="red" stroke="red" stroke-width="0.26" points="279.48,-105.48 284.24,-96.01 274.61,-100.45 279.48,-105.48"/>
</g>
<!-- &#45;3 -->
<g id="node3" class="node">
<title>&#45;3</title>
<polygon fill="lightgray" stroke="black" points="287.75,-154.85 264.25,-154.85 264.25,-136.35 287.75,-136.35 287.75,-154.85"/>
<text text-anchor="middle" x="276" y="-142.3" font-family="Times New Roman,serif" font-size="9.00">&#45;3</text>
</g>
<!-- &#45;3&#45;&gt;76 -->
<g id="edge3" class="edge">
<title>&#45;3&#45;&gt;76</title>
<path fill="none" stroke="red" stroke-width="0.23" stroke-dasharray="1,5" d="M279.01,-135.87C281.37,-129 284.8,-119.07 288.03,-109.71"/>
<polygon fill="red" stroke="red" stroke-width="0.23" points="291.33,-110.87 291.28,-100.27 284.71,-108.59 291.33,-110.87"/>
</g>
<!-- &#45;4 -->
<g id="node4" class="node">
<title>&#45;4</title>
<polygon fill="lightgray" stroke="black" points="329.75,-154.85 306.25,-154.85 306.25,-136.35 329.75,-136.35 329.75,-154.85"/>
<text text-anchor="middle" x="318" y="-142.3" font-family="Times New Roman,serif" font-size="9.00">&#45;4</text>
</g>
<!-- &#45;4&#45;&gt;76 -->
<g id="edge4" class="edge">
<title>&#45;4&#45;&gt;76</title>
<path fill="none" stroke="green" stroke-width="0.19" stroke-dasharray="1,5" d="M314.99,-135.87C312.6,-128.93 309.13,-118.86 305.87,-109.41"/>
<polygon fill="green" stroke="green" stroke-width="0.19" points="309.27,-108.53 302.7,-100.22 302.65,-110.81 309.27,-108.53"/>
</g>
<!-- &#45;5 -->
<g id="node5" class="node">
<title>&#45;5</title>
<polygon fill="lightgray" stroke="black" points="69.75,-154.85 46.25,-154.85 46.25,-136.35 69.75,-136.35 69.75,-154.85"/>
<text text-anchor="middle" x="58" y="-142.3" font-family="Times New Roman,serif" font-size="9.00">&#45;5</text>
</g>
<!-- 0 -->
<g id="node18" class="node">
<title>0</title>
<ellipse fill="lightblue" stroke="black" cx="58" cy="-14.5" rx="14.5" ry="14.5"/>
<text text-anchor="middle" x="58" y="-11.2" font-family="Times New Roman,serif" font-size="9.00">0</text>
</g>
<!-- &#45;5&#45;&gt;0 -->
<g id="edge20" class="edge">
<title>&#45;5&#45;&gt;0</title>
<path fill="none" stroke="red" stroke-width="0.22" d="M58,-136.13C58,-116.83 58,-68.99 58,-39.69"/>
<polygon fill="red" stroke="red" stroke-width="0.22" points="61.5,-39.8 58,-29.8 54.5,-39.8 61.5,-39.8"/>
</g>
<!-- &#45;5&#45;&gt;76 -->
<g id="edge5" class="edge">
<title>&#45;5&#45;&gt;76</title>
<path fill="none" stroke="green" stroke-width="0.25" d="M69.89,-139.6C72.84,-138.45 76.01,-137.29 79,-136.35 146.46,-115.06 227.97,-97.45 269.61,-89.03"/>
<polygon fill="green" stroke="green" stroke-width="0.25" points="270.05,-92.51 279.17,-87.11 268.67,-85.64 270.05,-92.51"/>
</g>
<!-- &#45;6 -->
<g id="node6" class="node">
<title>&#45;6</title>
<polygon fill="lightgray" stroke="black" points="371.75,-154.85 348.25,-154.85 348.25,-136.35 371.75,-136.35 371.75,-154.85"/>
<text text-anchor="middle" x="360" y="-142.3" font-family="Times New Roman,serif" font-size="9.00">&#45;6</text>
</g>
<!-- &#45;6&#45;&gt;76 -->
<g id="edge6" class="edge">
<title>&#45;6&#45;&gt;76</title>
<path fill="none" stroke="red" stroke-width="0.29" d="M350.97,-135.87C342.13,-127.31 328.35,-113.99 316.93,-102.94"/>
<polygon fill="red" stroke="red" stroke-width="0.29" points="319.43,-100.49 309.8,-96.05 314.56,-105.52 319.43,-100.49"/>
</g>
<!-- &#45;7 -->
<g id="node7" class="node">
<title>&#45;7</title>
<polygon fill="lightgray" stroke="black" points="413.75,-154.85 390.25,-154.85 390.25,-136.35 413.75,-136.35 413.75,-154.85"/>
<text text-anchor="middle" x="402" y="-142.3" font-family="Times New Roman,serif" font-size="9.00">&#45;7</text>
</g>
<!-- &#45;7&#45;&gt;76 -->
<g id="edge7" class="edge">
<title>&#45;7&#45;&gt;76</title>
<path fill="none" stroke="red" stroke-width="0.52" d="M389.96,-137.61C373.23,-127.9 342.61,-110.14 321.1,-97.65"/>
<polygon fill="red" stroke="red" stroke-width="0.52" points="323.02,-94.72 312.61,-92.73 319.5,-100.77 323.02,-94.72"/>
</g>
<!-- &#45;8 -->
<g id="node8" class="node">
<title>&#45;8</title>
<polygon fill="lightgray" stroke="black" points="635.75,-154.85 612.25,-154.85 612.25,-136.35 635.75,-136.35 635.75,-154.85"/>
<text text-anchor="middle" x="624" y="-142.3" font-family="Times New Roman,serif" font-size="9.00">&#45;8</text>
</g>
<!-- &#45;9 -->
<g id="node9" class="node">
<title>&#45;9</title>
<polygon fill="lightgray" stroke="black" points="593.75,-154.85 570.25,-154.85 570.25,-136.35 593.75,-136.35 593.75,-154.85"/>
<text text-anchor="middle" x="582" y="-142.3" font-family="Times New Roman,serif" font-size="9.00">&#45;9</text>
</g>
<!-- 1 -->
<g id="node19" class="node">
<title>1</title>
<ellipse fill="lightblue" stroke="black" cx="463" cy="-14.5" rx="14.5" ry="14.5"/>
<text text-anchor="middle" x="463" y="-11.2" font-family="Times New Roman,serif" font-size="9.00">1</text>
</g>
<!-- &#45;9&#45;&gt;1 -->
<g id="edge23" class="edge">
<title>&#45;9&#45;&gt;1</title>
<path fill="none" stroke="green" stroke-width="0.11" d="M574.19,-136.13C555,-115.31 505.21,-61.29 479.27,-33.14"/>
<polygon fill="green" stroke="green" stroke-width="0.11" points="482.09,-31.04 472.74,-26.06 476.95,-35.79 482.09,-31.04"/>
</g>
<!-- &#45;9&#45;&gt;76 -->
<g id="edge8" class="edge">
<title>&#45;9&#45;&gt;76</title>
<path fill="none" stroke="green" stroke-width="0.25" d="M570.13,-139.51C567.18,-138.37 564.01,-137.23 561,-136.35 476.37,-111.49 373.04,-94.65 324.58,-87.52"/>
<polygon fill="green" stroke="green" stroke-width="0.25" points="325.33,-84.09 314.93,-86.13 324.33,-91.02 325.33,-84.09"/>
</g>
<!-- &#45;10 -->
<g id="node10" class="node">
<title>&#45;10</title>
<polygon fill="lightgray" stroke="black" points="460,-154.85 432,-154.85 432,-136.35 460,-136.35 460,-154.85"/>
<text text-anchor="middle" x="446" y="-142.3" font-family="Times New Roman,serif" font-size="9.00">&#45;10</text>
</g>
<!-- &#45;10&#45;&gt;76 -->
<g id="edge9" class="edge">
<title>&#45;10&#45;&gt;76</title>
<path fill="none" stroke="red" stroke-width="0.24" d="M431.71,-138.75C406.61,-128.49 354.25,-107.08 322.71,-94.18"/>
<polygon fill="red" stroke="red" stroke-width="0.24" points="324.18,-91 313.6,-90.46 321.53,-97.48 324.18,-91"/>
</g>
<!-- &#45;11 -->
<g id="node11" class="node">
<title>&#45;11</title>
<polygon fill="lightgray" stroke="black" points="506,-154.85 478,-154.85 478,-136.35 506,-136.35 506,-154.85"/>
<text text-anchor="middle" x="492" y="-142.3" font-family="Times New Roman,serif" font-size="9.00">&#45;11</text>
</g>
<!-- &#45;11&#45;&gt;76 -->
<g id="edge10" class="edge">
<title>&#45;11&#45;&gt;76</title>
<path fill="none" stroke="green" stroke-width="0.23" d="M477.93,-139.43C474.99,-138.38 471.9,-137.31 469,-136.35 417.7,-119.3 357.14,-101.22 323.29,-91.3"/>
<polygon fill="green" stroke="green" stroke-width="0.23" points="324.6,-88.04 314.02,-88.59 322.64,-94.76 324.6,-88.04"/>
</g>
<!-- &#45;12 -->
<g id="node12" class="node">
<title>&#45;12</title>
<polygon fill="lightgray" stroke="black" points="477,-91.92 449,-91.92 449,-73.42 477,-73.42 477,-91.92"/>
<text text-anchor="middle" x="463" y="-79.37" font-family="Times New Roman,serif" font-size="9.00">&#45;12</text>
</g>
<!-- &#45;12&#45;&gt;1 -->
<g id="edge21" class="edge">
<title>&#45;12&#45;&gt;1</title>
<path fill="none" stroke="red" stroke-width="0.24" d="M463,-73.02C463,-64.54 463,-51.23 463,-39.55"/>
<polygon fill="red" stroke="red" stroke-width="0.24" points="466.5,-39.83 463,-29.83 459.5,-39.83 466.5,-39.83"/>
</g>
<!-- &#45;13 -->
<g id="node13" class="node">
<title>&#45;13</title>
<polygon fill="lightgray" stroke="black" points="28,-154.85 0,-154.85 0,-136.35 28,-136.35 28,-154.85"/>
<text text-anchor="middle" x="14" y="-142.3" font-family="Times New Roman,serif" font-size="9.00">&#45;13</text>
</g>
<!-- &#45;13&#45;&gt;0 -->
<g id="edge22" class="edge">
<title>&#45;13&#45;&gt;0</title>
<path fill="none" stroke="green" stroke-width="0.36" d="M16.89,-136.13C23.56,-116.54 40.25,-67.58 50.19,-38.41"/>
<polygon fill="green" stroke="green" stroke-width="0.36" points="53.43,-39.76 53.34,-29.17 46.8,-37.5 53.43,-39.76"/>
</g>
<!-- &#45;13&#45;&gt;76 -->
<g id="edge11" class="edge">
<title>&#45;13&#45;&gt;76</title>
<path fill="none" stroke="green" stroke-width="0.16" d="M28.5,-139.04C31.3,-138.07 34.22,-137.12 37,-136.35 120.51,-113.04 221.81,-95.52 269.56,-87.89"/>
<polygon fill="green" stroke="green" stroke-width="0.16" points="269.88,-91.38 279.21,-86.36 268.79,-84.47 269.88,-91.38"/>
</g>
<!-- &#45;14 -->
<g id="node14" class="node">
<title>&#45;14</title>
<polygon fill="lightgray" stroke="black" points="682,-154.85 654,-154.85 654,-136.35 682,-136.35 682,-154.85"/>
<text text-anchor="middle" x="668" y="-142.3" font-family="Times New Roman,serif" font-size="9.00">&#45;14</text>
</g>
<!-- &#45;15 -->
<g id="node15" class="node">
<title>&#45;15</title>
<polygon fill="lightgray" stroke="black" points="552,-154.85 524,-154.85 524,-136.35 552,-136.35 552,-154.85"/>
<text text-anchor="middle" x="538" y="-142.3" font-family="Times New Roman,serif" font-size="9.00">&#45;15</text>
</g>
<!-- &#45;15&#45;&gt;76 -->
<g id="edge12" class="edge">
<title>&#45;15&#45;&gt;76</title>
<path fill="none" stroke="green" stroke-width="0.19" d="M523.97,-139.29C521.03,-138.26 517.93,-137.22 515,-136.35 447.23,-116.07 365.85,-98.04 324.31,-89.28"/>
<polygon fill="green" stroke="green" stroke-width="0.19" points="325.2,-85.89 314.69,-87.27 323.76,-92.74 325.2,-85.89"/>
</g>
<!-- &#45;16 -->
<g id="node16" class="node">
<title>&#45;16</title>
<polygon fill="lightgray" stroke="black" points="116,-154.85 88,-154.85 88,-136.35 116,-136.35 116,-154.85"/>
<text text-anchor="middle" x="102" y="-142.3" font-family="Times New Roman,serif" font-size="9.00">&#45;16</text>
</g>
<!-- &#45;16&#45;&gt;76 -->
<g id="edge13" class="edge">
<title>&#45;16&#45;&gt;76</title>
<path fill="none" stroke="green" stroke-width="0.28" d="M116.07,-139.43C119.01,-138.38 122.1,-137.31 125,-136.35 176.3,-119.3 236.86,-101.22 270.71,-91.3"/>
<polygon fill="green" stroke="green" stroke-width="0.28" points="271.29,-94.78 279.91,-88.61 269.33,-88.06 271.29,-94.78"/>
</g>
<!-- &#45;17 -->
<g id="node17" class="node">
<title>&#45;17</title>
<polygon fill="lightgray" stroke="black" points="162,-154.85 134,-154.85 134,-136.35 162,-136.35 162,-154.85"/>
<text text-anchor="middle" x="148" y="-142.3" font-family="Times New Roman,serif" font-size="9.00">&#45;17</text>
</g>
<!-- &#45;17&#45;&gt;76 -->
<g id="edge14" class="edge">
<title>&#45;17&#45;&gt;76</title>
<path fill="none" stroke="green" stroke-width="0.27" d="M162.29,-138.75C187.39,-128.49 239.75,-107.08 271.29,-94.18"/>
<polygon fill="green" stroke="green" stroke-width="0.27" points="272.43,-97.5 280.36,-90.47 269.78,-91.02 272.43,-97.5"/>
</g>
<!-- 0&#45;&gt;0 -->
<g id="edge17" class="edge">
<title>0&#45;&gt;0</title>
<path fill="none" stroke="red" stroke-width="0.23" d="M68.65,-24.65C79.06,-30.26 90.5,-26.88 90.5,-14.5 90.5,-5.98 85.09,-1.72 78.33,-1.71"/>
<polygon fill="red" stroke="red" stroke-width="0.23" points="77.72,1.75 68.99,-4.25 79.56,-5.01 77.72,1.75"/>
</g>
<!-- 1&#45;&gt;1 -->
<g id="edge18" class="edge">
<title>1&#45;&gt;1</title>
<path fill="none" stroke="green" stroke-width="0.28" d="M473.65,-24.65C484.06,-30.26 495.5,-26.88 495.5,-14.5 495.5,-5.98 490.09,-1.72 483.33,-1.71"/>
<polygon fill="green" stroke="green" stroke-width="0.28" points="482.79,1.77 474.06,-4.23 484.63,-4.99 482.79,1.77"/>
</g>
<!-- 76&#45;&gt;0 -->
<g id="edge15" class="edge">
<title>76&#45;&gt;0</title>
<path fill="none" stroke="green" stroke-width="0.41" d="M279.81,-76.91C237.91,-65.31 130.4,-35.54 82.11,-22.17"/>
<polygon fill="green" stroke="green" stroke-width="0.41" points="83.14,-18.83 72.57,-19.53 81.27,-25.57 83.14,-18.83"/>
</g>
<!-- 76&#45;&gt;1 -->
<g id="edge16" class="edge">
<title>76&#45;&gt;1</title>
<path fill="none" stroke="green" stroke-width="0.33" d="M313.22,-75.2C342.94,-63.36 406.2,-38.14 440.22,-24.58"/>
<polygon fill="green" stroke="green" stroke-width="0.33" points="441.31,-27.91 449.31,-20.95 438.72,-21.41 441.31,-27.91"/>
</g>
<!-- 76&#45;&gt;76 -->
<g id="edge19" class="edge">
<title>76&#45;&gt;76</title>
<path fill="none" stroke="green" stroke-width="0.13" d="M311.66,-93.2C322.19,-96.63 332.68,-93.12 332.68,-82.67 332.68,-75.65 327.94,-71.76 321.64,-71.01"/>
<polygon fill="green" stroke="green" stroke-width="0.13" points="321.39,-67.51 311.85,-72.12 322.18,-74.47 321.39,-67.51"/>
</g>
</g>
</svg>
