<?xml version="1.0" encoding="UTF-8" standalone="no"?>
<!DOCTYPE svg PUBLIC "-//W3C//DTD SVG 1.1//EN"
 "http://www.w3.org/Graphics/SVG/1.1/DTD/svg11.dtd">
<!-- Generated by graphviz version 12.2.1 (20241206.2353)
 -->
<!-- Pages: 1 -->
<svg width="736pt" height="169pt"
 viewBox="0.00 0.00 735.75 169.21" xmlns="http://www.w3.org/2000/svg" xmlns:xlink="http://www.w3.org/1999/xlink">
<g id="graph0" class="graph" transform="scale(1 1) rotate(0) translate(4 165.21)">
<polygon fill="white" stroke="none" points="-4,4 -4,-165.21 731.75,-165.21 731.75,4 -4,4"/>
<!-- &#45;1 -->
<g id="node1" class="node">
<title>&#45;1</title>
<polygon fill="lightgray" stroke="black" points="107.5,-161.21 84,-161.21 84,-142.71 107.5,-142.71 107.5,-161.21"/>
<text text-anchor="middle" x="95.75" y="-148.66" font-family="Times New Roman,serif" font-size="9.00">&#45;1</text>
</g>
<!-- 209 -->
<g id="node20" class="node">
<title>209</title>
<ellipse fill="white" stroke="black" cx="288.75" cy="-85.85" rx="20.86" ry="20.86"/>
<text text-anchor="middle" x="288.75" y="-82.55" font-family="Times New Roman,serif" font-size="9.00">209</text>
</g>
<!-- &#45;1&#45;&gt;209 -->
<g id="edge1" class="edge">
<title>&#45;1&#45;&gt;209</title>
<path fill="none" stroke="red" stroke-width="0.48" d="M107.7,-146.12C110.64,-144.97 113.8,-143.77 116.75,-142.71 166.17,-125 224.41,-106.59 258.86,-95.96"/>
<polygon fill="red" stroke="red" stroke-width="0.48" points="259.53,-99.41 268.06,-93.13 257.47,-92.72 259.53,-99.41"/>
</g>
<!-- &#45;2 -->
<g id="node2" class="node">
<title>&#45;2</title>
<polygon fill="lightgray" stroke="black" points="149.5,-161.21 126,-161.21 126,-142.71 149.5,-142.71 149.5,-161.21"/>
<text text-anchor="middle" x="137.75" y="-148.66" font-family="Times New Roman,serif" font-size="9.00">&#45;2</text>
</g>
<!-- &#45;2&#45;&gt;209 -->
<g id="edge2" class="edge">
<title>&#45;2&#45;&gt;209</title>
<path fill="none" stroke="green" stroke-width="0.12" d="M149.85,-145.82C173.67,-135.71 227.22,-112.98 260.43,-98.88"/>
<polygon fill="green" stroke="green" stroke-width="0.12" points="261.62,-102.17 269.46,-95.04 258.89,-95.73 261.62,-102.17"/>
</g>
<!-- &#45;3 -->
<g id="node3" class="node">
<title>&#45;3</title>
<polygon fill="lightgray" stroke="black" points="65.5,-161.21 42,-161.21 42,-142.71 65.5,-142.71 65.5,-161.21"/>
<text text-anchor="middle" x="53.75" y="-148.66" font-family="Times New Roman,serif" font-size="9.00">&#45;3</text>
</g>
<!-- 1 -->
<g id="node19" class="node">
<title>1</title>
<ellipse fill="lightblue" stroke="black" cx="264.75" cy="-14.5" rx="14.5" ry="14.5"/>
<text text-anchor="middle" x="264.75" y="-11.2" font-family="Times New Roman,serif" font-size="9.00">1</text>
</g>
<!-- &#45;3&#45;&gt;1 -->
<g id="edge20" class="edge">
<title>&#45;3&#45;&gt;1</title>
<path fill="none" stroke="red" stroke-width="0.3" stroke-dasharray="1,5" d="M65.7,-143.29C100.22,-121.13 200.39,-56.82 244.03,-28.8"/>
<polygon fill="red" stroke="red" stroke-width="0.3" points="245.77,-31.84 252.29,-23.49 241.99,-25.95 245.77,-31.84"/>
</g>
<!-- &#45;3&#45;&gt;209 -->
<g id="edge3" class="edge">
<title>&#45;3&#45;&gt;209</title>
<path fill="none" stroke="red" stroke-width="0.24" d="M65.65,-146C68.6,-144.85 71.77,-143.68 74.75,-142.71 83.6,-139.83 201.85,-109.26 258.67,-94.6"/>
<polygon fill="red" stroke="red" stroke-width="0.24" points="259.36,-98.04 268.17,-92.15 257.61,-91.26 259.36,-98.04"/>
</g>
<!-- &#45;4 -->
<g id="node4" class="node">
<title>&#45;4</title>
<polygon fill="lightgray" stroke="black" points="191.5,-161.21 168,-161.21 168,-142.71 191.5,-142.71 191.5,-161.21"/>
<text text-anchor="middle" x="179.75" y="-148.66" font-family="Times New Roman,serif" font-size="9.00">&#45;4</text>
</g>
<!-- &#45;4&#45;&gt;209 -->
<g id="edge4" class="edge">
<title>&#45;4&#45;&gt;209</title>
<path fill="none" stroke="red" stroke-width="0.56" d="M191.83,-143.85C208.54,-134.03 239.16,-116.02 261.53,-102.86"/>
<polygon fill="red" stroke="red" stroke-width="0.56" points="263.26,-105.9 270.11,-97.82 259.71,-99.87 263.26,-105.9"/>
</g>
<!-- &#45;5 -->
<g id="node5" class="node">
<title>&#45;5</title>
<polygon fill="lightgray" stroke="black" points="639.5,-161.21 616,-161.21 616,-142.71 639.5,-142.71 639.5,-161.21"/>
<text text-anchor="middle" x="627.75" y="-148.66" font-family="Times New Roman,serif" font-size="9.00">&#45;5</text>
</g>
<!-- 0 -->
<g id="node18" class="node">
<title>0</title>
<ellipse fill="lightblue" stroke="black" cx="585.75" cy="-14.5" rx="14.5" ry="14.5"/>
<text text-anchor="middle" x="585.75" y="-11.2" font-family="Times New Roman,serif" font-size="9.00">0</text>
</g>
<!-- &#45;5&#45;&gt;0 -->
<g id="edge21" class="edge">
<title>&#45;5&#45;&gt;0</title>
<path fill="none" stroke="red" stroke-width="0.53" d="M625.12,-142.49C618.79,-122.06 602.5,-69.52 592.97,-38.8"/>
<polygon fill="red" stroke="red" stroke-width="0.53" points="596.34,-37.84 590.04,-29.33 589.66,-39.92 596.34,-37.84"/>
</g>
<!-- &#45;5&#45;&gt;209 -->
<g id="edge5" class="edge">
<title>&#45;5&#45;&gt;209</title>
<path fill="none" stroke="red" stroke-width="0.35" d="M615.9,-145.83C612.95,-144.68 609.77,-143.56 606.75,-142.71 503.59,-113.7 377.16,-96.87 319.75,-90.2"/>
<polygon fill="red" stroke="red" stroke-width="0.35" points="320.39,-86.75 310.05,-89.1 319.6,-93.71 320.39,-86.75"/>
</g>
<!-- &#45;6 -->
<g id="node6" class="node">
<title>&#45;6</title>
<polygon fill="lightgray" stroke="black" points="597.5,-161.21 574,-161.21 574,-142.71 597.5,-142.71 597.5,-161.21"/>
<text text-anchor="middle" x="585.75" y="-148.66" font-family="Times New Roman,serif" font-size="9.00">&#45;6</text>
</g>
<!-- &#45;6&#45;&gt;0 -->
<g id="edge22" class="edge">
<title>&#45;6&#45;&gt;0</title>
<path fill="none" stroke="red" stroke-width="0.15" d="M585.75,-142.49C585.75,-122.18 585.75,-70.12 585.75,-39.33"/>
<polygon fill="red" stroke="red" stroke-width="0.15" points="589.25,-39.64 585.75,-29.64 582.25,-39.64 589.25,-39.64"/>
</g>
<!-- &#45;6&#45;&gt;209 -->
<g id="edge6" class="edge">
<title>&#45;6&#45;&gt;209</title>
<path fill="none" stroke="red" stroke-width="0.54" d="M573.88,-145.88C570.93,-144.74 567.76,-143.6 564.75,-142.71 477.6,-116.99 371.51,-99.17 319.93,-91.34"/>
<polygon fill="red" stroke="red" stroke-width="0.54" points="320.7,-87.92 310.29,-89.9 319.66,-94.84 320.7,-87.92"/>
</g>
<!-- &#45;7 -->
<g id="node7" class="node">
<title>&#45;7</title>
<polygon fill="lightgray" stroke="black" points="23.5,-161.21 0,-161.21 0,-142.71 23.5,-142.71 23.5,-161.21"/>
<text text-anchor="middle" x="11.75" y="-148.66" font-family="Times New Roman,serif" font-size="9.00">&#45;7</text>
</g>
<!-- &#45;7&#45;&gt;1 -->
<g id="edge23" class="edge">
<title>&#45;7&#45;&gt;1</title>
<path fill="none" stroke="red" stroke-width="0.18" d="M20.92,-142.26C39.17,-125.33 81.93,-87.63 123.75,-64.99 162.56,-43.98 212.05,-29.04 240.89,-21.38"/>
<polygon fill="red" stroke="red" stroke-width="0.18" points="241.45,-24.85 250.26,-18.96 239.7,-18.07 241.45,-24.85"/>
</g>
<!-- &#45;7&#45;&gt;209 -->
<g id="edge7" class="edge">
<title>&#45;7&#45;&gt;209</title>
<path fill="none" stroke="red" stroke-width="0.38" stroke-dasharray="1,5" d="M23.63,-145.91C26.58,-144.77 29.75,-143.62 32.75,-142.71 112.48,-118.52 209.15,-100.35 257.72,-91.97"/>
<polygon fill="red" stroke="red" stroke-width="0.38" points="258.05,-95.47 267.32,-90.34 256.88,-88.56 258.05,-95.47"/>
</g>
<!-- &#45;8 -->
<g id="node8" class="node">
<title>&#45;8</title>
<polygon fill="lightgray" stroke="black" points="233.5,-161.21 210,-161.21 210,-142.71 233.5,-142.71 233.5,-161.21"/>
<text text-anchor="middle" x="221.75" y="-148.66" font-family="Times New Roman,serif" font-size="9.00">&#45;8</text>
</g>
<!-- &#45;8&#45;&gt;209 -->
<g id="edge8" class="edge">
<title>&#45;8&#45;&gt;209</title>
<path fill="none" stroke="red" stroke-width="0.33" d="M230.79,-142.31C239.96,-133.54 254.5,-119.62 266.73,-107.92"/>
<polygon fill="red" stroke="red" stroke-width="0.33" points="268.81,-110.77 273.62,-101.33 263.97,-105.72 268.81,-110.77"/>
</g>
<!-- &#45;9 -->
<g id="node9" class="node">
<title>&#45;9</title>
<polygon fill="lightgray" stroke="black" points="681.5,-161.21 658,-161.21 658,-142.71 681.5,-142.71 681.5,-161.21"/>
<text text-anchor="middle" x="669.75" y="-148.66" font-family="Times New Roman,serif" font-size="9.00">&#45;9</text>
</g>
<!-- &#45;10 -->
<g id="node10" class="node">
<title>&#45;10</title>
<polygon fill="lightgray" stroke="black" points="279.75,-161.21 251.75,-161.21 251.75,-142.71 279.75,-142.71 279.75,-161.21"/>
<text text-anchor="middle" x="265.75" y="-148.66" font-family="Times New Roman,serif" font-size="9.00">&#45;10</text>
</g>
<!-- &#45;10&#45;&gt;209 -->
<g id="edge9" class="edge">
<title>&#45;10&#45;&gt;209</title>
<path fill="none" stroke="green" stroke-width="0.28" stroke-dasharray="1,5" d="M268.85,-142.31C271.33,-135.41 274.94,-125.33 278.42,-115.65"/>
<polygon fill="green" stroke="green" stroke-width="0.28" points="281.7,-116.86 281.79,-106.26 275.11,-114.49 281.7,-116.86"/>
</g>
<!-- &#45;11 -->
<g id="node11" class="node">
<title>&#45;11</title>
<polygon fill="lightgray" stroke="black" points="325.75,-161.21 297.75,-161.21 297.75,-142.71 325.75,-142.71 325.75,-161.21"/>
<text text-anchor="middle" x="311.75" y="-148.66" font-family="Times New Roman,serif" font-size="9.00">&#45;11</text>
</g>
<!-- &#45;11&#45;&gt;209 -->
<g id="edge10" class="edge">
<title>&#45;11&#45;&gt;209</title>
<path fill="none" stroke="green" stroke-width="0.2" stroke-dasharray="1,5" d="M308.65,-142.31C306.15,-135.34 302.48,-125.12 298.97,-115.35"/>
<polygon fill="green" stroke="green" stroke-width="0.2" points="302.34,-114.38 295.67,-106.15 295.75,-116.74 302.34,-114.38"/>
</g>
<!-- &#45;12 -->
<g id="node12" class="node">
<title>&#45;12</title>
<polygon fill="lightgray" stroke="black" points="371.75,-161.21 343.75,-161.21 343.75,-142.71 371.75,-142.71 371.75,-161.21"/>
<text text-anchor="middle" x="357.75" y="-148.66" font-family="Times New Roman,serif" font-size="9.00">&#45;12</text>
</g>
<!-- &#45;12&#45;&gt;209 -->
<g id="edge11" class="edge">
<title>&#45;12&#45;&gt;209</title>
<path fill="none" stroke="green" stroke-width="0.56" d="M348.44,-142.31C339.03,-133.57 324.11,-119.71 311.54,-108.03"/>
<polygon fill="green" stroke="green" stroke-width="0.56" points="314.03,-105.56 304.32,-101.32 309.27,-110.69 314.03,-105.56"/>
</g>
<!-- &#45;13 -->
<g id="node13" class="node">
<title>&#45;13</title>
<polygon fill="lightgray" stroke="black" points="417.75,-161.21 389.75,-161.21 389.75,-142.71 417.75,-142.71 417.75,-161.21"/>
<text text-anchor="middle" x="403.75" y="-148.66" font-family="Times New Roman,serif" font-size="9.00">&#45;13</text>
</g>
<!-- &#45;13&#45;&gt;209 -->
<g id="edge12" class="edge">
<title>&#45;13&#45;&gt;209</title>
<path fill="none" stroke="green" stroke-width="0.29" d="M389.65,-143.1C371.3,-132.87 338.87,-114.79 315.73,-101.89"/>
<polygon fill="green" stroke="green" stroke-width="0.29" points="317.58,-98.91 307.14,-97.1 314.17,-105.03 317.58,-98.91"/>
</g>
<!-- &#45;14 -->
<g id="node14" class="node">
<title>&#45;14</title>
<polygon fill="lightgray" stroke="black" points="727.75,-161.21 699.75,-161.21 699.75,-142.71 727.75,-142.71 727.75,-161.21"/>
<text text-anchor="middle" x="713.75" y="-148.66" font-family="Times New Roman,serif" font-size="9.00">&#45;14</text>
</g>
<!-- &#45;15 -->
<g id="node15" class="node">
<title>&#45;15</title>
<polygon fill="lightgray" stroke="black" points="463.75,-161.21 435.75,-161.21 435.75,-142.71 463.75,-142.71 463.75,-161.21"/>
<text text-anchor="middle" x="449.75" y="-148.66" font-family="Times New Roman,serif" font-size="9.00">&#45;15</text>
</g>
<!-- &#45;15&#45;&gt;209 -->
<g id="edge13" class="edge">
<title>&#45;15&#45;&gt;209</title>
<path fill="none" stroke="green" stroke-width="0.18" stroke-dasharray="1,5" d="M435.46,-145.27C409.01,-134.74 351.96,-112.02 317.32,-98.23"/>
<polygon fill="green" stroke="green" stroke-width="0.18" points="319.03,-95.14 308.44,-94.69 316.44,-101.64 319.03,-95.14"/>
</g>
<!-- &#45;16 -->
<g id="node16" class="node">
<title>&#45;16</title>
<polygon fill="lightgray" stroke="black" points="509.75,-161.21 481.75,-161.21 481.75,-142.71 509.75,-142.71 509.75,-161.21"/>
<text text-anchor="middle" x="495.75" y="-148.66" font-family="Times New Roman,serif" font-size="9.00">&#45;16</text>
</g>
<!-- &#45;16&#45;&gt;209 -->
<g id="edge14" class="edge">
<title>&#45;16&#45;&gt;209</title>
<path fill="none" stroke="green" stroke-width="0.27" d="M481.68,-145.79C478.74,-144.74 475.65,-143.67 472.75,-142.71 418.72,-124.83 355.06,-105.99 318.55,-95.4"/>
<polygon fill="green" stroke="green" stroke-width="0.27" points="319.98,-92.17 309.4,-92.76 318.03,-98.9 319.98,-92.17"/>
</g>
<!-- &#45;17 -->
<g id="node17" class="node">
<title>&#45;17</title>
<polygon fill="lightgray" stroke="black" points="555.75,-161.21 527.75,-161.21 527.75,-142.71 555.75,-142.71 555.75,-161.21"/>
<text text-anchor="middle" x="541.75" y="-148.66" font-family="Times New Roman,serif" font-size="9.00">&#45;17</text>
</g>
<!-- &#45;17&#45;&gt;209 -->
<g id="edge15" class="edge">
<title>&#45;17&#45;&gt;209</title>
<path fill="none" stroke="red" stroke-width="0.34" d="M527.72,-145.66C524.77,-144.62 521.68,-143.59 518.75,-142.71 448.21,-121.56 363.71,-102.64 319.37,-93.2"/>
<polygon fill="red" stroke="red" stroke-width="0.34" points="320.26,-89.81 309.75,-91.17 318.81,-96.66 320.26,-89.81"/>
</g>
<!-- 1&#45;&gt;1 -->
<g id="edge18" class="edge">
<title>1&#45;&gt;1</title>
<path fill="none" stroke="red" stroke-width="0.16" d="M275.07,-24.94C285.56,-31.08 297.25,-27.6 297.25,-14.5 297.25,-5.49 291.72,-1.03 284.86,-1.12"/>
<polygon fill="red" stroke="red" stroke-width="0.16" points="283.87,2.24 275.3,-3.99 285.89,-4.46 283.87,2.24"/>
</g>
<!-- 1&#45;&gt;209 -->
<g id="edge24" class="edge">
<title>1&#45;&gt;209</title>
<path fill="none" stroke="red" stroke-width="0.14" d="M273.63,-26.47C277.66,-34.25 281.93,-45.08 285.21,-55.3"/>
<polygon fill="red" stroke="red" stroke-width="0.14" points="281.76,-55.97 287.93,-64.58 288.47,-54 281.76,-55.97"/>
</g>
<!-- 209&#45;&gt;0 -->
<g id="edge16" class="edge">
<title>209&#45;&gt;0</title>
<path fill="none" stroke="red" stroke-width="0.9" d="M309.16,-80.08C361.9,-67.77 502.57,-34.92 560.39,-21.42"/>
<polygon fill="red" stroke="red" stroke-width="0.9" points="561.14,-24.84 570.09,-19.15 559.55,-18.02 561.14,-24.84"/>
</g>
<!-- 209&#45;&gt;1 -->
<g id="edge17" class="edge">
<title>209&#45;&gt;1</title>
<path fill="none" stroke="green" stroke-width="0.18" d="M277.06,-68.06C273.11,-59.35 269.2,-48.56 266.46,-39.03"/>
<polygon fill="green" stroke="green" stroke-width="0.18" points="269.92,-38.43 264.08,-29.59 263.14,-40.15 269.92,-38.43"/>
</g>
<!-- 209&#45;&gt;209 -->
<g id="edge19" class="edge">
<title>209&#45;&gt;209</title>
<path fill="none" stroke="red" stroke-width="0.19" d="M306.33,-97.37C317.24,-100.15 327.61,-96.31 327.61,-85.85 327.61,-78.82 322.93,-74.78 316.55,-73.73"/>
<polygon fill="red" stroke="red" stroke-width="0.19" points="316.4,-70.24 306.62,-74.31 316.8,-77.22 316.4,-70.24"/>
</g>
</g>
</svg>
