<?xml version="1.0" encoding="UTF-8" standalone="no"?>
<!DOCTYPE svg PUBLIC "-//W3C//DTD SVG 1.1//EN"
 "http://www.w3.org/Graphics/SVG/1.1/DTD/svg11.dtd">
<!-- Generated by graphviz version 12.2.1 (20241206.2353)
 -->
<!-- Pages: 1 -->
<svg width="736pt" height="163pt"
 viewBox="0.00 0.00 735.75 162.85" xmlns="http://www.w3.org/2000/svg" xmlns:xlink="http://www.w3.org/1999/xlink">
<g id="graph0" class="graph" transform="scale(1 1) rotate(0) translate(4 158.85)">
<polygon fill="white" stroke="none" points="-4,4 -4,-158.85 731.75,-158.85 731.75,4 -4,4"/>
<!-- &#45;1 -->
<g id="node1" class="node">
<title>&#45;1</title>
<polygon fill="lightgray" stroke="black" points="23.5,-154.85 0,-154.85 0,-136.35 23.5,-136.35 23.5,-154.85"/>
<text text-anchor="middle" x="11.75" y="-142.3" font-family="Times New Roman,serif" font-size="9.00">&#45;1</text>
</g>
<!-- 99 -->
<g id="node20" class="node">
<title>99</title>
<ellipse fill="white" stroke="black" cx="369.75" cy="-82.67" rx="17.68" ry="17.68"/>
<text text-anchor="middle" x="369.75" y="-79.37" font-family="Times New Roman,serif" font-size="9.00">99</text>
</g>
<!-- &#45;1&#45;&gt;99 -->
<g id="edge1" class="edge">
<title>&#45;1&#45;&gt;99</title>
<path fill="none" stroke="green" stroke-width="0.22" d="M23.59,-139.42C26.54,-138.28 29.73,-137.17 32.75,-136.35 144.97,-105.93 283.29,-91.18 341.66,-85.96"/>
<polygon fill="green" stroke="green" stroke-width="0.22" points="341.93,-89.45 351.59,-85.1 341.33,-82.48 341.93,-89.45"/>
</g>
<!-- &#45;2 -->
<g id="node2" class="node">
<title>&#45;2</title>
<polygon fill="lightgray" stroke="black" points="65.5,-154.85 42,-154.85 42,-136.35 65.5,-136.35 65.5,-154.85"/>
<text text-anchor="middle" x="53.75" y="-142.3" font-family="Times New Roman,serif" font-size="9.00">&#45;2</text>
</g>
<!-- &#45;2&#45;&gt;99 -->
<g id="edge2" class="edge">
<title>&#45;2&#45;&gt;99</title>
<path fill="none" stroke="green" stroke-width="0.46" d="M65.6,-139.47C68.55,-138.32 71.73,-137.2 74.75,-136.35 170.6,-109.25 288.08,-93.22 341.22,-86.86"/>
<polygon fill="green" stroke="green" stroke-width="0.46" points="341.63,-90.34 351.16,-85.7 340.82,-83.38 341.63,-90.34"/>
</g>
<!-- &#45;3 -->
<g id="node3" class="node">
<title>&#45;3</title>
<polygon fill="lightgray" stroke="black" points="107.5,-154.85 84,-154.85 84,-136.35 107.5,-136.35 107.5,-154.85"/>
<text text-anchor="middle" x="95.75" y="-142.3" font-family="Times New Roman,serif" font-size="9.00">&#45;3</text>
</g>
<!-- &#45;3&#45;&gt;99 -->
<g id="edge3" class="edge">
<title>&#45;3&#45;&gt;99</title>
<path fill="none" stroke="green" stroke-width="0.14" stroke-dasharray="1,5" d="M107.62,-139.53C110.57,-138.38 113.75,-137.24 116.75,-136.35 197.12,-112.38 295.02,-95.33 341.99,-87.87"/>
<polygon fill="green" stroke="green" stroke-width="0.14" points="342.47,-91.34 351.81,-86.33 341.39,-84.42 342.47,-91.34"/>
</g>
<!-- &#45;4 -->
<g id="node4" class="node">
<title>&#45;4</title>
<polygon fill="lightgray" stroke="black" points="149.5,-154.85 126,-154.85 126,-136.35 149.5,-136.35 149.5,-154.85"/>
<text text-anchor="middle" x="137.75" y="-142.3" font-family="Times New Roman,serif" font-size="9.00">&#45;4</text>
</g>
<!-- &#45;4&#45;&gt;99 -->
<g id="edge4" class="edge">
<title>&#45;4&#45;&gt;99</title>
<path fill="none" stroke="red" stroke-width="0.18" d="M149.65,-139.61C152.6,-138.46 155.77,-137.3 158.75,-136.35 223.62,-115.6 301.83,-97.94 342.38,-89.31"/>
<polygon fill="red" stroke="red" stroke-width="0.18" points="342.98,-92.76 352.04,-87.28 341.53,-85.91 342.98,-92.76"/>
</g>
<!-- &#45;5 -->
<g id="node5" class="node">
<title>&#45;5</title>
<polygon fill="lightgray" stroke="black" points="191.5,-154.85 168,-154.85 168,-136.35 191.5,-136.35 191.5,-154.85"/>
<text text-anchor="middle" x="179.75" y="-142.3" font-family="Times New Roman,serif" font-size="9.00">&#45;5</text>
</g>
<!-- &#45;5&#45;&gt;99 -->
<g id="edge5" class="edge">
<title>&#45;5&#45;&gt;99</title>
<path fill="none" stroke="red" stroke-width="0.43" d="M191.69,-139.73C194.63,-138.58 197.79,-137.39 200.75,-136.35 250.45,-118.86 309.38,-101.17 342.89,-91.39"/>
<polygon fill="red" stroke="red" stroke-width="0.43" points="343.58,-94.83 352.2,-88.68 341.63,-88.11 343.58,-94.83"/>
</g>
<!-- &#45;6 -->
<g id="node6" class="node">
<title>&#45;6</title>
<polygon fill="lightgray" stroke="black" points="233.5,-154.85 210,-154.85 210,-136.35 233.5,-136.35 233.5,-154.85"/>
<text text-anchor="middle" x="221.75" y="-142.3" font-family="Times New Roman,serif" font-size="9.00">&#45;6</text>
</g>
<!-- &#45;6&#45;&gt;99 -->
<g id="edge6" class="edge">
<title>&#45;6&#45;&gt;99</title>
<path fill="none" stroke="red" stroke-width="0.28" d="M233.86,-139.61C257.89,-129.72 312.03,-107.43 344.25,-94.17"/>
<polygon fill="red" stroke="red" stroke-width="0.28" points="345.18,-97.57 353.09,-90.53 342.51,-91.1 345.18,-97.57"/>
</g>
<!-- &#45;7 -->
<g id="node7" class="node">
<title>&#45;7</title>
<polygon fill="lightgray" stroke="black" points="275.5,-154.85 252,-154.85 252,-136.35 275.5,-136.35 275.5,-154.85"/>
<text text-anchor="middle" x="263.75" y="-142.3" font-family="Times New Roman,serif" font-size="9.00">&#45;7</text>
</g>
<!-- &#45;7&#45;&gt;99 -->
<g id="edge7" class="edge">
<title>&#45;7&#45;&gt;99</title>
<path fill="none" stroke="green" stroke-width="0.26" d="M275.91,-137.61C292.87,-127.86 323.98,-109.98 345.72,-97.48"/>
<polygon fill="green" stroke="green" stroke-width="0.26" points="347.41,-100.55 354.33,-92.53 343.92,-94.48 347.41,-100.55"/>
</g>
<!-- &#45;8 -->
<g id="node8" class="node">
<title>&#45;8</title>
<polygon fill="lightgray" stroke="black" points="317.5,-154.85 294,-154.85 294,-136.35 317.5,-136.35 317.5,-154.85"/>
<text text-anchor="middle" x="305.75" y="-142.3" font-family="Times New Roman,serif" font-size="9.00">&#45;8</text>
</g>
<!-- &#45;8&#45;&gt;99 -->
<g id="edge8" class="edge">
<title>&#45;8&#45;&gt;99</title>
<path fill="none" stroke="red" stroke-width="0.67" d="M314.92,-135.87C323.93,-127.29 337.98,-113.91 349.6,-102.85"/>
<polygon fill="red" stroke="red" stroke-width="0.67" points="351.97,-105.43 356.8,-96 347.14,-100.36 351.97,-105.43"/>
</g>
<!-- &#45;9 -->
<g id="node9" class="node">
<title>&#45;9</title>
<polygon fill="lightgray" stroke="black" points="359.5,-154.85 336,-154.85 336,-136.35 359.5,-136.35 359.5,-154.85"/>
<text text-anchor="middle" x="347.75" y="-142.3" font-family="Times New Roman,serif" font-size="9.00">&#45;9</text>
</g>
<!-- &#45;9&#45;&gt;99 -->
<g id="edge9" class="edge">
<title>&#45;9&#45;&gt;99</title>
<path fill="none" stroke="green" stroke-width="0.16" d="M350.9,-135.87C353.44,-128.83 357.15,-118.58 360.6,-109.01"/>
<polygon fill="green" stroke="green" stroke-width="0.16" points="363.86,-110.28 363.97,-99.68 357.28,-107.9 363.86,-110.28"/>
</g>
<!-- &#45;10 -->
<g id="node10" class="node">
<title>&#45;10</title>
<polygon fill="lightgray" stroke="black" points="405.75,-154.85 377.75,-154.85 377.75,-136.35 405.75,-136.35 405.75,-154.85"/>
<text text-anchor="middle" x="391.75" y="-142.3" font-family="Times New Roman,serif" font-size="9.00">&#45;10</text>
</g>
<!-- &#45;10&#45;&gt;99 -->
<g id="edge10" class="edge">
<title>&#45;10&#45;&gt;99</title>
<path fill="none" stroke="green" stroke-width="0.22" d="M388.6,-135.87C386.06,-128.83 382.35,-118.58 378.9,-109.01"/>
<polygon fill="green" stroke="green" stroke-width="0.22" points="382.25,-107.99 375.57,-99.77 375.67,-110.37 382.25,-107.99"/>
</g>
<!-- &#45;11 -->
<g id="node11" class="node">
<title>&#45;11</title>
<polygon fill="lightgray" stroke="black" points="451.75,-154.85 423.75,-154.85 423.75,-136.35 451.75,-136.35 451.75,-154.85"/>
<text text-anchor="middle" x="437.75" y="-142.3" font-family="Times New Roman,serif" font-size="9.00">&#45;11</text>
</g>
<!-- &#45;11&#45;&gt;99 -->
<g id="edge11" class="edge">
<title>&#45;11&#45;&gt;99</title>
<path fill="none" stroke="green" stroke-width="0.13" stroke-dasharray="1,5" d="M428.01,-135.87C418.15,-127.04 402.63,-113.13 390.08,-101.89"/>
<polygon fill="green" stroke="green" stroke-width="0.13" points="392.66,-99.5 382.88,-95.43 387.99,-104.71 392.66,-99.5"/>
</g>
<!-- &#45;12 -->
<g id="node12" class="node">
<title>&#45;12</title>
<polygon fill="lightgray" stroke="black" points="497.75,-154.85 469.75,-154.85 469.75,-136.35 497.75,-136.35 497.75,-154.85"/>
<text text-anchor="middle" x="483.75" y="-142.3" font-family="Times New Roman,serif" font-size="9.00">&#45;12</text>
</g>
<!-- &#45;12&#45;&gt;99 -->
<g id="edge12" class="edge">
<title>&#45;12&#45;&gt;99</title>
<path fill="none" stroke="green" stroke-width="0.21" d="M469.31,-136.88C450.44,-126.79 417.1,-108.98 394.24,-96.76"/>
<polygon fill="green" stroke="green" stroke-width="0.21" points="395.91,-93.68 385.44,-92.06 392.61,-99.86 395.91,-93.68"/>
</g>
<!-- &#45;13 -->
<g id="node13" class="node">
<title>&#45;13</title>
<polygon fill="lightgray" stroke="black" points="543.75,-154.85 515.75,-154.85 515.75,-136.35 543.75,-136.35 543.75,-154.85"/>
<text text-anchor="middle" x="529.75" y="-142.3" font-family="Times New Roman,serif" font-size="9.00">&#45;13</text>
</g>
<!-- &#45;13&#45;&gt;99 -->
<g id="edge13" class="edge">
<title>&#45;13&#45;&gt;99</title>
<path fill="none" stroke="green" stroke-width="0.15" d="M515.27,-139.08C488.1,-128.74 429.18,-106.3 395.24,-93.37"/>
<polygon fill="green" stroke="green" stroke-width="0.15" points="396.77,-90.21 386.18,-89.93 394.28,-96.76 396.77,-90.21"/>
</g>
<!-- &#45;14 -->
<g id="node14" class="node">
<title>&#45;14</title>
<polygon fill="lightgray" stroke="black" points="589.75,-154.85 561.75,-154.85 561.75,-136.35 589.75,-136.35 589.75,-154.85"/>
<text text-anchor="middle" x="575.75" y="-142.3" font-family="Times New Roman,serif" font-size="9.00">&#45;14</text>
</g>
<!-- &#45;14&#45;&gt;99 -->
<g id="edge14" class="edge">
<title>&#45;14&#45;&gt;99</title>
<path fill="none" stroke="red" stroke-width="0.43" d="M561.69,-139.39C558.75,-138.35 555.66,-137.29 552.75,-136.35 498.01,-118.67 433.14,-100.69 397.2,-90.98"/>
<polygon fill="red" stroke="red" stroke-width="0.43" points="398.21,-87.63 387.64,-88.41 396.39,-94.39 398.21,-87.63"/>
</g>
<!-- &#45;15 -->
<g id="node15" class="node">
<title>&#45;15</title>
<polygon fill="lightgray" stroke="black" points="635.75,-154.85 607.75,-154.85 607.75,-136.35 635.75,-136.35 635.75,-154.85"/>
<text text-anchor="middle" x="621.75" y="-142.3" font-family="Times New Roman,serif" font-size="9.00">&#45;15</text>
</g>
<!-- &#45;15&#45;&gt;99 -->
<g id="edge15" class="edge">
<title>&#45;15&#45;&gt;99</title>
<path fill="none" stroke="green" stroke-width="0.17" d="M607.73,-139.27C604.78,-138.23 601.68,-137.21 598.75,-136.35 526.93,-115.29 440.45,-97.36 397.2,-88.89"/>
<polygon fill="green" stroke="green" stroke-width="0.17" points="397.9,-85.46 387.42,-86.99 396.57,-92.33 397.9,-85.46"/>
</g>
<!-- &#45;16 -->
<g id="node16" class="node">
<title>&#45;16</title>
<polygon fill="lightgray" stroke="black" points="681.75,-154.85 653.75,-154.85 653.75,-136.35 681.75,-136.35 681.75,-154.85"/>
<text text-anchor="middle" x="667.75" y="-142.3" font-family="Times New Roman,serif" font-size="9.00">&#45;16</text>
</g>
<!-- &#45;16&#45;&gt;99 -->
<g id="edge16" class="edge">
<title>&#45;16&#45;&gt;99</title>
<path fill="none" stroke="red" stroke-width="0.32" d="M653.26,-139.01C650.46,-138.05 647.53,-137.11 644.75,-136.35 555.82,-112.04 447.72,-94.83 397.67,-87.55"/>
<polygon fill="red" stroke="red" stroke-width="0.32" points="398.21,-84.09 387.82,-86.14 397.22,-91.02 398.21,-84.09"/>
</g>
<!-- &#45;17 -->
<g id="node17" class="node">
<title>&#45;17</title>
<polygon fill="lightgray" stroke="black" points="727.75,-154.85 699.75,-154.85 699.75,-136.35 727.75,-136.35 727.75,-154.85"/>
<text text-anchor="middle" x="713.75" y="-142.3" font-family="Times New Roman,serif" font-size="9.00">&#45;17</text>
</g>
<!-- 1 -->
<g id="node19" class="node">
<title>1</title>
<ellipse fill="lightblue" stroke="black" cx="584.75" cy="-14.5" rx="14.5" ry="14.5"/>
<text text-anchor="middle" x="584.75" y="-11.2" font-family="Times New Roman,serif" font-size="9.00">1</text>
</g>
<!-- &#45;17&#45;&gt;1 -->
<g id="edge23" class="edge">
<title>&#45;17&#45;&gt;1</title>
<path fill="none" stroke="red" stroke-width="0.39" d="M705.29,-136.13C684.38,-115.21 629.98,-60.76 601.97,-32.73"/>
<polygon fill="red" stroke="red" stroke-width="0.39" points="604.78,-30.59 595.23,-25.99 599.83,-35.54 604.78,-30.59"/>
</g>
<!-- &#45;17&#45;&gt;99 -->
<g id="edge17" class="edge">
<title>&#45;17&#45;&gt;99</title>
<path fill="none" stroke="red" stroke-width="0.29" d="M699.27,-138.95C696.47,-137.99 693.54,-137.07 690.75,-136.35 584.14,-108.72 453.7,-92.62 397.58,-86.51"/>
<polygon fill="red" stroke="red" stroke-width="0.29" points="398.14,-83.05 387.82,-85.47 397.39,-90.01 398.14,-83.05"/>
</g>
<!-- 0 -->
<g id="node18" class="node">
<title>0</title>
<ellipse fill="lightblue" stroke="black" cx="369.75" cy="-14.5" rx="14.5" ry="14.5"/>
<text text-anchor="middle" x="369.75" y="-11.2" font-family="Times New Roman,serif" font-size="9.00">0</text>
</g>
<!-- 0&#45;&gt;0 -->
<g id="edge20" class="edge">
<title>0&#45;&gt;0</title>
<path fill="none" stroke="green" stroke-width="0.15" d="M380.4,-24.65C390.81,-30.26 402.25,-26.88 402.25,-14.5 402.25,-5.98 396.84,-1.72 390.08,-1.71"/>
<polygon fill="green" stroke="green" stroke-width="0.15" points="389.36,1.72 380.63,-4.28 391.19,-5.04 389.36,1.72"/>
</g>
<!-- 1&#45;&gt;1 -->
<g id="edge21" class="edge">
<title>1&#45;&gt;1</title>
<path fill="none" stroke="red" stroke-width="0.43" d="M595.4,-24.65C605.81,-30.26 617.25,-26.88 617.25,-14.5 617.25,-6.18 612.08,-1.92 605.54,-1.72"/>
<polygon fill="red" stroke="red" stroke-width="0.43" points="604.83,1.71 596.03,-4.18 606.58,-5.06 604.83,1.71"/>
</g>
<!-- 99&#45;&gt;0 -->
<g id="edge18" class="edge">
<title>99&#45;&gt;0</title>
<path fill="none" stroke="red" stroke-width="0.55" d="M369.75,-64.63C369.75,-57.05 369.75,-47.98 369.75,-39.71"/>
<polygon fill="red" stroke="red" stroke-width="0.55" points="373.25,-39.97 369.75,-29.97 366.25,-39.97 373.25,-39.97"/>
</g>
<!-- 99&#45;&gt;1 -->
<g id="edge19" class="edge">
<title>99&#45;&gt;1</title>
<path fill="none" stroke="red" stroke-width="0.57" d="M386.62,-76.48C424.5,-64.82 516.44,-36.52 560.47,-22.97"/>
<polygon fill="red" stroke="red" stroke-width="0.57" points="561.46,-26.33 569.98,-20.04 559.4,-19.64 561.46,-26.33"/>
</g>
<!-- 99&#45;&gt;99 -->
<g id="edge22" class="edge">
<title>99&#45;&gt;99</title>
<path fill="none" stroke="green" stroke-width="0.36" d="M384.41,-93.2C394.94,-96.63 405.43,-93.12 405.43,-82.67 405.43,-75.81 400.91,-71.95 394.83,-71.06"/>
<polygon fill="green" stroke="green" stroke-width="0.36" points="394.54,-67.58 384.95,-72.08 395.26,-74.54 394.54,-67.58"/>
</g>
</g>
</svg>
