<?xml version="1.0" encoding="UTF-8" standalone="no"?>
<!DOCTYPE svg PUBLIC "-//W3C//DTD SVG 1.1//EN"
 "http://www.w3.org/Graphics/SVG/1.1/DTD/svg11.dtd">
<!-- Generated by graphviz version 12.2.1 (20241206.2353)
 -->
<!-- Pages: 1 -->
<svg width="610pt" height="176pt"
 viewBox="0.00 0.00 609.50 175.57" xmlns="http://www.w3.org/2000/svg" xmlns:xlink="http://www.w3.org/1999/xlink">
<g id="graph0" class="graph" transform="scale(1 1) rotate(0) translate(4 171.57)">
<polygon fill="white" stroke="none" points="-4,4 -4,-171.57 605.5,-171.57 605.5,4 -4,4"/>
<!-- &#45;1 -->
<g id="node1" class="node">
<title>&#45;1</title>
<polygon fill="lightgray" stroke="black" points="23.5,-167.57 0,-167.57 0,-149.07 23.5,-149.07 23.5,-167.57"/>
<text text-anchor="middle" x="11.75" y="-155.02" font-family="Times New Roman,serif" font-size="9.00">&#45;1</text>
</g>
<!-- &#45;2 -->
<g id="node2" class="node">
<title>&#45;2</title>
<polygon fill="lightgray" stroke="black" points="391.5,-98.28 368,-98.28 368,-79.78 391.5,-79.78 391.5,-98.28"/>
<text text-anchor="middle" x="379.75" y="-85.73" font-family="Times New Roman,serif" font-size="9.00">&#45;2</text>
</g>
<!-- 0 -->
<g id="node18" class="node">
<title>0</title>
<ellipse fill="lightblue" stroke="black" cx="266.75" cy="-14.5" rx="14.5" ry="14.5"/>
<text text-anchor="middle" x="266.75" y="-11.2" font-family="Times New Roman,serif" font-size="9.00">0</text>
</g>
<!-- &#45;2&#45;&gt;0 -->
<g id="edge1" class="edge">
<title>&#45;2&#45;&gt;0</title>
<path fill="none" stroke="green" stroke-width="0.29" d="M373.35,-79.71C369.46,-75.01 364.21,-69.25 358.75,-64.99 337.18,-48.16 309.07,-33.97 289.63,-25.16"/>
<polygon fill="green" stroke="green" stroke-width="0.29" points="291.05,-21.96 280.48,-21.13 288.22,-28.37 291.05,-21.96"/>
</g>
<!-- 1 -->
<g id="node19" class="node">
<title>1</title>
<ellipse fill="lightblue" stroke="black" cx="400.75" cy="-14.5" rx="14.5" ry="14.5"/>
<text text-anchor="middle" x="400.75" y="-11.2" font-family="Times New Roman,serif" font-size="9.00">1</text>
</g>
<!-- &#45;2&#45;&gt;1 -->
<g id="edge2" class="edge">
<title>&#45;2&#45;&gt;1</title>
<path fill="none" stroke="red" stroke-width="0.32" d="M382.24,-79.43C385.13,-69.44 390.02,-52.56 394.05,-38.65"/>
<polygon fill="red" stroke="red" stroke-width="0.32" points="397.36,-39.81 396.77,-29.23 390.63,-37.86 397.36,-39.81"/>
</g>
<!-- &#45;3 -->
<g id="node3" class="node">
<title>&#45;3</title>
<polygon fill="lightgray" stroke="black" points="433.5,-98.28 410,-98.28 410,-79.78 433.5,-79.78 433.5,-98.28"/>
<text text-anchor="middle" x="421.75" y="-85.73" font-family="Times New Roman,serif" font-size="9.00">&#45;3</text>
</g>
<!-- &#45;3&#45;&gt;0 -->
<g id="edge3" class="edge">
<title>&#45;3&#45;&gt;0</title>
<path fill="none" stroke="red" stroke-width="0.34" d="M415.56,-79.41C411.75,-74.62 406.5,-68.86 400.75,-64.99 366.25,-41.75 319.43,-27.72 291.25,-20.8"/>
<polygon fill="red" stroke="red" stroke-width="0.34" points="292.12,-17.41 281.59,-18.54 290.52,-24.23 292.12,-17.41"/>
</g>
<!-- &#45;3&#45;&gt;1 -->
<g id="edge4" class="edge">
<title>&#45;3&#45;&gt;1</title>
<path fill="none" stroke="green" stroke-width="0.86" d="M419.26,-79.43C416.42,-69.63 411.67,-53.22 407.69,-39.47"/>
<polygon fill="green" stroke="green" stroke-width="0.86" points="411.1,-38.64 404.95,-30.01 404.37,-40.59 411.1,-38.64"/>
</g>
<!-- &#45;4 -->
<g id="node4" class="node">
<title>&#45;4</title>
<polygon fill="lightgray" stroke="black" points="517.5,-98.28 494,-98.28 494,-79.78 517.5,-79.78 517.5,-98.28"/>
<text text-anchor="middle" x="505.75" y="-85.73" font-family="Times New Roman,serif" font-size="9.00">&#45;4</text>
</g>
<!-- &#45;4&#45;&gt;1 -->
<g id="edge5" class="edge">
<title>&#45;4&#45;&gt;1</title>
<path fill="none" stroke="green" stroke-width="0.39" d="M498.91,-79.35C495.05,-74.76 489.96,-69.22 484.75,-64.99 465.35,-49.24 440.38,-35.19 422.73,-26.12"/>
<polygon fill="green" stroke="green" stroke-width="0.39" points="424.79,-23.24 414.28,-21.88 421.65,-29.5 424.79,-23.24"/>
</g>
<!-- &#45;5 -->
<g id="node5" class="node">
<title>&#45;5</title>
<polygon fill="lightgray" stroke="black" points="559.5,-98.28 536,-98.28 536,-79.78 559.5,-79.78 559.5,-98.28"/>
<text text-anchor="middle" x="547.75" y="-85.73" font-family="Times New Roman,serif" font-size="9.00">&#45;5</text>
</g>
<!-- &#45;5&#45;&gt;1 -->
<g id="edge6" class="edge">
<title>&#45;5&#45;&gt;1</title>
<path fill="none" stroke="red" stroke-width="0.44" stroke-dasharray="1,5" d="M541.53,-79.46C537.71,-74.68 532.46,-68.92 526.75,-64.99 494.77,-42.97 451.58,-28.75 424.97,-21.44"/>
<polygon fill="red" stroke="red" stroke-width="0.44" points="426.19,-18.15 415.63,-18.98 424.41,-24.92 426.19,-18.15"/>
</g>
<!-- &#45;6 -->
<g id="node6" class="node">
<title>&#45;6</title>
<polygon fill="lightgray" stroke="black" points="115.5,-167.57 92,-167.57 92,-149.07 115.5,-149.07 115.5,-167.57"/>
<text text-anchor="middle" x="103.75" y="-155.02" font-family="Times New Roman,serif" font-size="9.00">&#45;6</text>
</g>
<!-- 1163 -->
<g id="node20" class="node">
<title>1163</title>
<ellipse fill="white" stroke="black" cx="103.75" cy="-89.03" rx="24.04" ry="24.04"/>
<text text-anchor="middle" x="103.75" y="-85.73" font-family="Times New Roman,serif" font-size="9.00">1163</text>
</g>
<!-- &#45;6&#45;&gt;1163 -->
<g id="edge23" class="edge">
<title>&#45;6&#45;&gt;1163</title>
<path fill="none" stroke="red" stroke-width="0.16" d="M103.75,-148.8C103.75,-142.31 103.75,-132.92 103.75,-123.54"/>
<polygon fill="red" stroke="red" stroke-width="0.16" points="107.25,-123.74 103.75,-113.74 100.25,-123.74 107.25,-123.74"/>
</g>
<!-- &#45;7 -->
<g id="node7" class="node">
<title>&#45;7</title>
<polygon fill="lightgray" stroke="black" points="162.5,-167.57 139,-167.57 139,-149.07 162.5,-149.07 162.5,-167.57"/>
<text text-anchor="middle" x="150.75" y="-155.02" font-family="Times New Roman,serif" font-size="9.00">&#45;7</text>
</g>
<!-- &#45;7&#45;&gt;0 -->
<g id="edge7" class="edge">
<title>&#45;7&#45;&gt;0</title>
<path fill="none" stroke="green" stroke-width="0.43" d="M150.78,-148.69C151.28,-131.08 154.7,-90.52 174.75,-64.99 191.92,-43.13 221.51,-29.7 242.49,-22.45"/>
<polygon fill="green" stroke="green" stroke-width="0.43" points="243.51,-25.8 251.96,-19.4 241.37,-19.13 243.51,-25.8"/>
</g>
<!-- &#45;7&#45;&gt;1163 -->
<g id="edge21" class="edge">
<title>&#45;7&#45;&gt;1163</title>
<path fill="none" stroke="green" stroke-width="0.57" d="M144.8,-148.8C139.34,-140.99 130.95,-128.98 123.17,-117.84"/>
<polygon fill="green" stroke="green" stroke-width="0.57" points="126.22,-116.1 117.63,-109.9 120.49,-120.11 126.22,-116.1"/>
</g>
<!-- &#45;8 -->
<g id="node8" class="node">
<title>&#45;8</title>
<polygon fill="lightgray" stroke="black" points="601.5,-98.28 578,-98.28 578,-79.78 601.5,-79.78 601.5,-98.28"/>
<text text-anchor="middle" x="589.75" y="-85.73" font-family="Times New Roman,serif" font-size="9.00">&#45;8</text>
</g>
<!-- &#45;8&#45;&gt;1 -->
<g id="edge8" class="edge">
<title>&#45;8&#45;&gt;1</title>
<path fill="none" stroke="red" stroke-width="0.17" d="M584,-79.72C580.2,-74.79 574.81,-68.78 568.75,-64.99 522.93,-36.32 459.74,-23.6 425.39,-18.51"/>
<polygon fill="red" stroke="red" stroke-width="0.17" points="425.96,-15.05 415.57,-17.14 425,-21.98 425.96,-15.05"/>
</g>
<!-- &#45;9 -->
<g id="node9" class="node">
<title>&#45;9</title>
<polygon fill="lightgray" stroke="black" points="475.5,-98.28 452,-98.28 452,-79.78 475.5,-79.78 475.5,-98.28"/>
<text text-anchor="middle" x="463.75" y="-85.73" font-family="Times New Roman,serif" font-size="9.00">&#45;9</text>
</g>
<!-- &#45;9&#45;&gt;0 -->
<g id="edge9" class="edge">
<title>&#45;9&#45;&gt;0</title>
<path fill="none" stroke="green" stroke-width="0.69" d="M458.02,-79.69C454.22,-74.75 448.83,-68.74 442.75,-64.99 394.49,-35.21 327.87,-22.89 292.02,-18.16"/>
<polygon fill="green" stroke="green" stroke-width="0.69" points="292.91,-14.75 282.55,-17.01 292.06,-21.69 292.91,-14.75"/>
</g>
<!-- &#45;9&#45;&gt;1 -->
<g id="edge10" class="edge">
<title>&#45;9&#45;&gt;1</title>
<path fill="none" stroke="red" stroke-width="0.14" d="M456.28,-79.43C446.49,-68.15 429.07,-48.1 416.35,-33.46"/>
<polygon fill="red" stroke="red" stroke-width="0.14" points="419.18,-31.38 409.98,-26.13 413.9,-35.97 419.18,-31.38"/>
</g>
<!-- &#45;10 -->
<g id="node10" class="node">
<title>&#45;10</title>
<polygon fill="lightgray" stroke="black" points="211.75,-98.28 183.75,-98.28 183.75,-79.78 211.75,-79.78 211.75,-98.28"/>
<text text-anchor="middle" x="197.75" y="-85.73" font-family="Times New Roman,serif" font-size="9.00">&#45;10</text>
</g>
<!-- &#45;10&#45;&gt;0 -->
<g id="edge18" class="edge">
<title>&#45;10&#45;&gt;0</title>
<path fill="none" stroke="red" stroke-width="0.37" stroke-dasharray="1,5" d="M205.94,-79.43C216.78,-68.03 236.16,-47.65 250.13,-32.96"/>
<polygon fill="red" stroke="red" stroke-width="0.37" points="252.51,-35.55 256.86,-25.89 247.44,-30.72 252.51,-35.55"/>
</g>
<!-- &#45;10&#45;&gt;1 -->
<g id="edge11" class="edge">
<title>&#45;10&#45;&gt;1</title>
<path fill="none" stroke="green" stroke-width="0.11" d="M204.17,-79.69C208.39,-74.75 214.3,-68.75 220.75,-64.99 271.48,-35.45 340.53,-22.94 376.58,-18.14"/>
<polygon fill="green" stroke="green" stroke-width="0.11" points="376.59,-21.67 386.08,-16.96 375.72,-14.72 376.59,-21.67"/>
</g>
<!-- &#45;11 -->
<g id="node11" class="node">
<title>&#45;11</title>
<polygon fill="lightgray" stroke="black" points="208.75,-167.57 180.75,-167.57 180.75,-149.07 208.75,-149.07 208.75,-167.57"/>
<text text-anchor="middle" x="194.75" y="-155.02" font-family="Times New Roman,serif" font-size="9.00">&#45;11</text>
</g>
<!-- &#45;12 -->
<g id="node12" class="node">
<title>&#45;12</title>
<polygon fill="lightgray" stroke="black" points="257.75,-98.28 229.75,-98.28 229.75,-79.78 257.75,-79.78 257.75,-98.28"/>
<text text-anchor="middle" x="243.75" y="-85.73" font-family="Times New Roman,serif" font-size="9.00">&#45;12</text>
</g>
<!-- &#45;12&#45;&gt;0 -->
<g id="edge12" class="edge">
<title>&#45;12&#45;&gt;0</title>
<path fill="none" stroke="red" stroke-width="0.42" d="M246.48,-79.43C249.65,-69.44 255,-52.56 259.41,-38.65"/>
<polygon fill="red" stroke="red" stroke-width="0.42" points="262.67,-39.96 262.35,-29.37 255.99,-37.84 262.67,-39.96"/>
</g>
<!-- &#45;12&#45;&gt;1 -->
<g id="edge13" class="edge">
<title>&#45;12&#45;&gt;1</title>
<path fill="none" stroke="green" stroke-width="0.88" d="M250.68,-79.44C254.91,-74.66 260.66,-68.9 266.75,-64.99 301.46,-42.74 347.6,-28.52 375.69,-21.28"/>
<polygon fill="green" stroke="green" stroke-width="0.88" points="376.38,-24.71 385.25,-18.92 374.7,-17.91 376.38,-24.71"/>
</g>
<!-- &#45;13 -->
<g id="node13" class="node">
<title>&#45;13</title>
<polygon fill="lightgray" stroke="black" points="303.75,-98.28 275.75,-98.28 275.75,-79.78 303.75,-79.78 303.75,-98.28"/>
<text text-anchor="middle" x="289.75" y="-85.73" font-family="Times New Roman,serif" font-size="9.00">&#45;13</text>
</g>
<!-- &#45;13&#45;&gt;0 -->
<g id="edge14" class="edge">
<title>&#45;13&#45;&gt;0</title>
<path fill="none" stroke="green" stroke-width="0.41" d="M287.02,-79.43C283.85,-69.44 278.5,-52.56 274.09,-38.65"/>
<polygon fill="green" stroke="green" stroke-width="0.41" points="277.5,-37.82 271.14,-29.35 270.83,-39.94 277.5,-37.82"/>
</g>
<!-- &#45;13&#45;&gt;1 -->
<g id="edge22" class="edge">
<title>&#45;13&#45;&gt;1</title>
<path fill="none" stroke="green" stroke-width="0.12" d="M297.34,-79.35C301.6,-74.77 307.17,-69.23 312.75,-64.99 333.58,-49.18 360.02,-34.99 378.45,-25.9"/>
<polygon fill="green" stroke="green" stroke-width="0.12" points="379.89,-29.09 387.38,-21.59 376.85,-22.78 379.89,-29.09"/>
</g>
<!-- &#45;14 -->
<g id="node14" class="node">
<title>&#45;14</title>
<polygon fill="lightgray" stroke="black" points="254.75,-167.57 226.75,-167.57 226.75,-149.07 254.75,-149.07 254.75,-167.57"/>
<text text-anchor="middle" x="240.75" y="-155.02" font-family="Times New Roman,serif" font-size="9.00">&#45;14</text>
</g>
<!-- &#45;15 -->
<g id="node15" class="node">
<title>&#45;15</title>
<polygon fill="lightgray" stroke="black" points="69.75,-167.57 41.75,-167.57 41.75,-149.07 69.75,-149.07 69.75,-167.57"/>
<text text-anchor="middle" x="55.75" y="-155.02" font-family="Times New Roman,serif" font-size="9.00">&#45;15</text>
</g>
<!-- &#45;15&#45;&gt;0 -->
<g id="edge15" class="edge">
<title>&#45;15&#45;&gt;0</title>
<path fill="none" stroke="green" stroke-width="0.14" d="M54.33,-148.63C51.9,-130.54 49.12,-88.57 70.75,-64.99 93.8,-39.86 194.83,-24.36 242.14,-18.35"/>
<polygon fill="green" stroke="green" stroke-width="0.14" points="242.45,-21.84 251.95,-17.15 241.59,-14.89 242.45,-21.84"/>
</g>
<!-- &#45;15&#45;&gt;1163 -->
<g id="edge19" class="edge">
<title>&#45;15&#45;&gt;1163</title>
<path fill="none" stroke="red" stroke-width="0.1" d="M61.83,-148.8C67.51,-140.83 76.31,-128.5 84.39,-117.18"/>
<polygon fill="red" stroke="red" stroke-width="0.1" points="87.03,-119.5 89.99,-109.33 81.33,-115.43 87.03,-119.5"/>
</g>
<!-- &#45;16 -->
<g id="node16" class="node">
<title>&#45;16</title>
<polygon fill="lightgray" stroke="black" points="349.75,-98.28 321.75,-98.28 321.75,-79.78 349.75,-79.78 349.75,-98.28"/>
<text text-anchor="middle" x="335.75" y="-85.73" font-family="Times New Roman,serif" font-size="9.00">&#45;16</text>
</g>
<!-- &#45;16&#45;&gt;0 -->
<g id="edge16" class="edge">
<title>&#45;16&#45;&gt;0</title>
<path fill="none" stroke="red" stroke-width="0.43" d="M327.56,-79.43C316.72,-68.03 297.34,-47.65 283.37,-32.96"/>
<polygon fill="red" stroke="red" stroke-width="0.43" points="286.13,-30.79 276.7,-25.96 281.06,-35.61 286.13,-30.79"/>
</g>
<!-- &#45;16&#45;&gt;1 -->
<g id="edge17" class="edge">
<title>&#45;16&#45;&gt;1</title>
<path fill="none" stroke="red" stroke-width="0.99" stroke-dasharray="1,5" d="M343.46,-79.43C353.38,-68.36 370.87,-48.84 383.92,-34.28"/>
<polygon fill="red" stroke="red" stroke-width="0.99" points="386.3,-36.86 390.37,-27.08 381.09,-32.19 386.3,-36.86"/>
</g>
<!-- &#45;17 -->
<g id="node17" class="node">
<title>&#45;17</title>
<polygon fill="lightgray" stroke="black" points="300.75,-167.57 272.75,-167.57 272.75,-149.07 300.75,-149.07 300.75,-167.57"/>
<text text-anchor="middle" x="286.75" y="-155.02" font-family="Times New Roman,serif" font-size="9.00">&#45;17</text>
</g>
<!-- 1163&#45;&gt;0 -->
<g id="edge20" class="edge">
<title>1163&#45;&gt;0</title>
<path fill="none" stroke="green" stroke-width="0.32" d="M123.51,-75.19C129.28,-71.68 135.67,-68.01 141.75,-64.99 175.95,-48 217.5,-32.51 243.03,-23.54"/>
<polygon fill="green" stroke="green" stroke-width="0.32" points="244.17,-26.85 252.47,-20.27 241.88,-20.24 244.17,-26.85"/>
</g>
</g>
</svg>
