<?xml version="1.0" encoding="UTF-8" standalone="no"?>
<!DOCTYPE svg PUBLIC "-//W3C//DTD SVG 1.1//EN"
 "http://www.w3.org/Graphics/SVG/1.1/DTD/svg11.dtd">
<!-- Generated by graphviz version 12.2.1 (20241206.2353)
 -->
<!-- Pages: 1 -->
<svg width="703pt" height="169pt"
 viewBox="0.00 0.00 702.75 169.21" xmlns="http://www.w3.org/2000/svg" xmlns:xlink="http://www.w3.org/1999/xlink">
<g id="graph0" class="graph" transform="scale(1 1) rotate(0) translate(4 165.21)">
<polygon fill="white" stroke="none" points="-4,4 -4,-165.21 698.75,-165.21 698.75,4 -4,4"/>
<!-- &#45;1 -->
<g id="node1" class="node">
<title>&#45;1</title>
<polygon fill="lightgray" stroke="black" points="23.5,-161.21 0,-161.21 0,-142.71 23.5,-142.71 23.5,-161.21"/>
<text text-anchor="middle" x="11.75" y="-148.66" font-family="Times New Roman,serif" font-size="9.00">&#45;1</text>
</g>
<!-- &#45;2 -->
<g id="node2" class="node">
<title>&#45;2</title>
<polygon fill="lightgray" stroke="black" points="107.5,-161.21 84,-161.21 84,-142.71 107.5,-142.71 107.5,-161.21"/>
<text text-anchor="middle" x="95.75" y="-148.66" font-family="Times New Roman,serif" font-size="9.00">&#45;2</text>
</g>
<!-- 1 -->
<g id="node19" class="node">
<title>1</title>
<ellipse fill="lightblue" stroke="black" cx="95.75" cy="-14.5" rx="14.5" ry="14.5"/>
<text text-anchor="middle" x="95.75" y="-11.2" font-family="Times New Roman,serif" font-size="9.00">1</text>
</g>
<!-- &#45;2&#45;&gt;1 -->
<g id="edge16" class="edge">
<title>&#45;2&#45;&gt;1</title>
<path fill="none" stroke="red" stroke-width="0.3" stroke-dasharray="1,5" d="M95.75,-142.49C95.75,-122.26 95.75,-70.57 95.75,-39.73"/>
<polygon fill="red" stroke="red" stroke-width="0.3" points="99.25,-39.87 95.75,-29.87 92.25,-39.87 99.25,-39.87"/>
</g>
<!-- 24 -->
<g id="node20" class="node">
<title>24</title>
<ellipse fill="white" stroke="black" cx="202.75" cy="-85.85" rx="17.68" ry="17.68"/>
<text text-anchor="middle" x="202.75" y="-82.55" font-family="Times New Roman,serif" font-size="9.00">24</text>
</g>
<!-- &#45;2&#45;&gt;24 -->
<g id="edge1" class="edge">
<title>&#45;2&#45;&gt;24</title>
<path fill="none" stroke="red" stroke-width="0.43" d="M107.61,-143.85C124.67,-133.63 156.53,-114.55 178.65,-101.29"/>
<polygon fill="red" stroke="red" stroke-width="0.43" points="180.41,-104.32 187.19,-96.18 176.81,-98.31 180.41,-104.32"/>
</g>
<!-- &#45;3 -->
<g id="node3" class="node">
<title>&#45;3</title>
<polygon fill="lightgray" stroke="black" points="426.5,-161.21 403,-161.21 403,-142.71 426.5,-142.71 426.5,-161.21"/>
<text text-anchor="middle" x="414.75" y="-148.66" font-family="Times New Roman,serif" font-size="9.00">&#45;3</text>
</g>
<!-- 121 -->
<g id="node21" class="node">
<title>121</title>
<ellipse fill="white" stroke="black" cx="420.75" cy="-85.85" rx="20.86" ry="20.86"/>
<text text-anchor="middle" x="420.75" y="-82.55" font-family="Times New Roman,serif" font-size="9.00">121</text>
</g>
<!-- &#45;3&#45;&gt;121 -->
<g id="edge17" class="edge">
<title>&#45;3&#45;&gt;121</title>
<path fill="none" stroke="red" stroke-width="0.19" d="M415.56,-142.31C416.17,-135.76 417.06,-126.33 417.92,-117.1"/>
<polygon fill="red" stroke="red" stroke-width="0.19" points="421.4,-117.5 418.84,-107.21 414.43,-116.84 421.4,-117.5"/>
</g>
<!-- &#45;4 -->
<g id="node4" class="node">
<title>&#45;4</title>
<polygon fill="lightgray" stroke="black" points="195.5,-161.21 172,-161.21 172,-142.71 195.5,-142.71 195.5,-161.21"/>
<text text-anchor="middle" x="183.75" y="-148.66" font-family="Times New Roman,serif" font-size="9.00">&#45;4</text>
</g>
<!-- &#45;4&#45;&gt;24 -->
<g id="edge2" class="edge">
<title>&#45;4&#45;&gt;24</title>
<path fill="none" stroke="red" stroke-width="0.24" stroke-dasharray="1,5" d="M186.31,-142.31C188.55,-134.75 191.93,-123.37 195.04,-112.87"/>
<polygon fill="red" stroke="red" stroke-width="0.24" points="198.3,-114.17 197.79,-103.59 191.59,-112.18 198.3,-114.17"/>
</g>
<!-- &#45;5 -->
<g id="node5" class="node">
<title>&#45;5</title>
<polygon fill="lightgray" stroke="black" points="237.5,-161.21 214,-161.21 214,-142.71 237.5,-142.71 237.5,-161.21"/>
<text text-anchor="middle" x="225.75" y="-148.66" font-family="Times New Roman,serif" font-size="9.00">&#45;5</text>
</g>
<!-- &#45;5&#45;&gt;24 -->
<g id="edge13" class="edge">
<title>&#45;5&#45;&gt;24</title>
<path fill="none" stroke="green" stroke-width="0.34" stroke-dasharray="1,5" d="M222.65,-142.31C219.92,-134.7 215.79,-123.21 212.01,-112.66"/>
<polygon fill="green" stroke="green" stroke-width="0.34" points="215.38,-111.7 208.71,-103.47 208.8,-114.07 215.38,-111.7"/>
</g>
<!-- &#45;6 -->
<g id="node6" class="node">
<title>&#45;6</title>
<polygon fill="lightgray" stroke="black" points="468.5,-161.21 445,-161.21 445,-142.71 468.5,-142.71 468.5,-161.21"/>
<text text-anchor="middle" x="456.75" y="-148.66" font-family="Times New Roman,serif" font-size="9.00">&#45;6</text>
</g>
<!-- &#45;6&#45;&gt;121 -->
<g id="edge12" class="edge">
<title>&#45;6&#45;&gt;121</title>
<path fill="none" stroke="red" stroke-width="0.12" stroke-dasharray="1,5" d="M451.89,-142.31C447.71,-134.86 441.44,-123.69 435.62,-113.33"/>
<polygon fill="red" stroke="red" stroke-width="0.12" points="438.72,-111.7 430.77,-104.69 432.61,-115.13 438.72,-111.7"/>
</g>
<!-- &#45;7 -->
<g id="node7" class="node">
<title>&#45;7</title>
<polygon fill="lightgray" stroke="black" points="510.5,-161.21 487,-161.21 487,-142.71 510.5,-142.71 510.5,-161.21"/>
<text text-anchor="middle" x="498.75" y="-148.66" font-family="Times New Roman,serif" font-size="9.00">&#45;7</text>
</g>
<!-- &#45;8 -->
<g id="node8" class="node">
<title>&#45;8</title>
<polygon fill="lightgray" stroke="black" points="371.5,-161.21 348,-161.21 348,-142.71 371.5,-142.71 371.5,-161.21"/>
<text text-anchor="middle" x="359.75" y="-148.66" font-family="Times New Roman,serif" font-size="9.00">&#45;8</text>
</g>
<!-- 0 -->
<g id="node18" class="node">
<title>0</title>
<ellipse fill="lightblue" stroke="black" cx="290.75" cy="-14.5" rx="14.5" ry="14.5"/>
<text text-anchor="middle" x="290.75" y="-11.2" font-family="Times New Roman,serif" font-size="9.00">0</text>
</g>
<!-- &#45;8&#45;&gt;0 -->
<g id="edge14" class="edge">
<title>&#45;8&#45;&gt;0</title>
<path fill="none" stroke="red" stroke-width="0.97" d="M355.43,-142.49C344.92,-121.85 317.72,-68.45 302.15,-37.87"/>
<polygon fill="red" stroke="red" stroke-width="0.97" points="305.31,-36.36 297.65,-29.04 299.07,-39.54 305.31,-36.36"/>
</g>
<!-- &#45;8&#45;&gt;24 -->
<g id="edge3" class="edge">
<title>&#45;8&#45;&gt;24</title>
<path fill="none" stroke="red" stroke-width="0.37" stroke-dasharray="1,5" d="M347.69,-146.04C322.2,-135.63 262.39,-111.21 228.1,-97.2"/>
<polygon fill="red" stroke="red" stroke-width="0.37" points="229.85,-94.13 219.26,-93.59 227.2,-100.62 229.85,-94.13"/>
</g>
<!-- &#45;9 -->
<g id="node9" class="node">
<title>&#45;9</title>
<polygon fill="lightgray" stroke="black" points="65.5,-161.21 42,-161.21 42,-142.71 65.5,-142.71 65.5,-161.21"/>
<text text-anchor="middle" x="53.75" y="-148.66" font-family="Times New Roman,serif" font-size="9.00">&#45;9</text>
</g>
<!-- &#45;9&#45;&gt;1 -->
<g id="edge11" class="edge">
<title>&#45;9&#45;&gt;1</title>
<path fill="none" stroke="green" stroke-width="1.08" d="M56.38,-142.49C62.66,-122.24 78.72,-70.44 88.27,-39.61"/>
<polygon fill="green" stroke="green" stroke-width="1.08" points="91.6,-40.71 91.22,-30.12 84.91,-38.63 91.6,-40.71"/>
</g>
<!-- &#45;9&#45;&gt;24 -->
<g id="edge4" class="edge">
<title>&#45;9&#45;&gt;24</title>
<path fill="none" stroke="red" stroke-width="0.12" d="M65.94,-145.71C90.26,-135.25 145.21,-111.61 177.58,-97.68"/>
<polygon fill="red" stroke="red" stroke-width="0.12" points="178.88,-100.93 186.68,-93.76 176.11,-94.5 178.88,-100.93"/>
</g>
<!-- &#45;10 -->
<g id="node10" class="node">
<title>&#45;10</title>
<polygon fill="lightgray" stroke="black" points="283.75,-161.21 255.75,-161.21 255.75,-142.71 283.75,-142.71 283.75,-161.21"/>
<text text-anchor="middle" x="269.75" y="-148.66" font-family="Times New Roman,serif" font-size="9.00">&#45;10</text>
</g>
<!-- &#45;10&#45;&gt;24 -->
<g id="edge5" class="edge">
<title>&#45;10&#45;&gt;24</title>
<path fill="none" stroke="green" stroke-width="0.26" stroke-dasharray="1,5" d="M260.71,-142.31C251.01,-133.03 235.29,-117.99 222.67,-105.91"/>
<polygon fill="green" stroke="green" stroke-width="0.26" points="225.22,-103.51 215.58,-99.12 220.38,-108.57 225.22,-103.51"/>
</g>
<!-- &#45;11 -->
<g id="node11" class="node">
<title>&#45;11</title>
<polygon fill="lightgray" stroke="black" points="304.75,-95.1 276.75,-95.1 276.75,-76.6 304.75,-76.6 304.75,-95.1"/>
<text text-anchor="middle" x="290.75" y="-82.55" font-family="Times New Roman,serif" font-size="9.00">&#45;11</text>
</g>
<!-- &#45;11&#45;&gt;0 -->
<g id="edge18" class="edge">
<title>&#45;11&#45;&gt;0</title>
<path fill="none" stroke="red" stroke-width="0.13" d="M290.75,-76.35C290.75,-67.19 290.75,-52.21 290.75,-39.41"/>
<polygon fill="red" stroke="red" stroke-width="0.13" points="294.25,-39.54 290.75,-29.54 287.25,-39.54 294.25,-39.54"/>
</g>
<!-- &#45;12 -->
<g id="node12" class="node">
<title>&#45;12</title>
<polygon fill="lightgray" stroke="black" points="329.75,-161.21 301.75,-161.21 301.75,-142.71 329.75,-142.71 329.75,-161.21"/>
<text text-anchor="middle" x="315.75" y="-148.66" font-family="Times New Roman,serif" font-size="9.00">&#45;12</text>
</g>
<!-- &#45;12&#45;&gt;24 -->
<g id="edge6" class="edge">
<title>&#45;12&#45;&gt;24</title>
<path fill="none" stroke="green" stroke-width="0.27" stroke-dasharray="1,5" d="M301.44,-142.84C282.73,-132.23 249.69,-113.48 227.03,-100.63"/>
<polygon fill="green" stroke="green" stroke-width="0.27" points="228.8,-97.61 218.38,-95.72 225.35,-103.7 228.8,-97.61"/>
</g>
<!-- &#45;13 -->
<g id="node13" class="node">
<title>&#45;13</title>
<polygon fill="lightgray" stroke="black" points="556.75,-161.21 528.75,-161.21 528.75,-142.71 556.75,-142.71 556.75,-161.21"/>
<text text-anchor="middle" x="542.75" y="-148.66" font-family="Times New Roman,serif" font-size="9.00">&#45;13</text>
</g>
<!-- &#45;14 -->
<g id="node14" class="node">
<title>&#45;14</title>
<polygon fill="lightgray" stroke="black" points="602.75,-161.21 574.75,-161.21 574.75,-142.71 602.75,-142.71 602.75,-161.21"/>
<text text-anchor="middle" x="588.75" y="-148.66" font-family="Times New Roman,serif" font-size="9.00">&#45;14</text>
</g>
<!-- &#45;15 -->
<g id="node15" class="node">
<title>&#45;15</title>
<polygon fill="lightgray" stroke="black" points="648.75,-161.21 620.75,-161.21 620.75,-142.71 648.75,-142.71 648.75,-161.21"/>
<text text-anchor="middle" x="634.75" y="-148.66" font-family="Times New Roman,serif" font-size="9.00">&#45;15</text>
</g>
<!-- &#45;16 -->
<g id="node16" class="node">
<title>&#45;16</title>
<polygon fill="lightgray" stroke="black" points="153.75,-161.21 125.75,-161.21 125.75,-142.71 153.75,-142.71 153.75,-161.21"/>
<text text-anchor="middle" x="139.75" y="-148.66" font-family="Times New Roman,serif" font-size="9.00">&#45;16</text>
</g>
<!-- &#45;16&#45;&gt;24 -->
<g id="edge15" class="edge">
<title>&#45;16&#45;&gt;24</title>
<path fill="none" stroke="red" stroke-width="0.29" d="M148.25,-142.31C157.28,-133.12 171.87,-118.27 183.69,-106.25"/>
<polygon fill="red" stroke="red" stroke-width="0.29" points="186.13,-108.75 190.65,-99.17 181.14,-103.85 186.13,-108.75"/>
</g>
<!-- &#45;17 -->
<g id="node17" class="node">
<title>&#45;17</title>
<polygon fill="lightgray" stroke="black" points="694.75,-161.21 666.75,-161.21 666.75,-142.71 694.75,-142.71 694.75,-161.21"/>
<text text-anchor="middle" x="680.75" y="-148.66" font-family="Times New Roman,serif" font-size="9.00">&#45;17</text>
</g>
<!-- 0&#45;&gt;0 -->
<g id="edge9" class="edge">
<title>0&#45;&gt;0</title>
<path fill="none" stroke="red" stroke-width="0.34" d="M301.07,-24.94C311.56,-31.08 323.25,-27.6 323.25,-14.5 323.25,-5.49 317.72,-1.03 310.86,-1.12"/>
<polygon fill="red" stroke="red" stroke-width="0.34" points="310.13,2.32 301.55,-3.91 312.14,-4.39 310.13,2.32"/>
</g>
<!-- 1&#45;&gt;1 -->
<g id="edge10" class="edge">
<title>1&#45;&gt;1</title>
<path fill="none" stroke="green" stroke-width="0.28" stroke-dasharray="1,5" d="M106.07,-24.94C116.56,-31.08 128.25,-27.6 128.25,-14.5 128.25,-5.49 122.72,-1.03 115.86,-1.12"/>
<polygon fill="green" stroke="green" stroke-width="0.28" points="115.04,2.29 106.47,-3.94 117.05,-4.42 115.04,2.29"/>
</g>
<!-- 24&#45;&gt;0 -->
<g id="edge7" class="edge">
<title>24&#45;&gt;0</title>
<path fill="none" stroke="green" stroke-width="0.22" d="M216.5,-74.01C231.32,-62.33 255.01,-43.66 271.64,-30.56"/>
<polygon fill="green" stroke="green" stroke-width="0.22" points="273.66,-33.42 279.34,-24.49 269.32,-27.93 273.66,-33.42"/>
</g>
<!-- 24&#45;&gt;1 -->
<g id="edge8" class="edge">
<title>24&#45;&gt;1</title>
<path fill="none" stroke="green" stroke-width="0.22" d="M188.32,-75.5C169.74,-63.45 137.32,-42.44 116.2,-28.75"/>
<polygon fill="green" stroke="green" stroke-width="0.22" points="118.22,-25.89 107.93,-23.39 114.41,-31.76 118.22,-25.89"/>
</g>
</g>
</svg>
