<?xml version="1.0" encoding="UTF-8" standalone="no"?>
<!DOCTYPE svg PUBLIC "-//W3C//DTD SVG 1.1//EN"
 "http://www.w3.org/Graphics/SVG/1.1/DTD/svg11.dtd">
<!-- Generated by graphviz version 12.2.1 (20241206.2353)
 -->
<!-- Pages: 1 -->
<svg width="752pt" height="176pt"
 viewBox="0.00 0.00 752.12 175.57" xmlns="http://www.w3.org/2000/svg" xmlns:xlink="http://www.w3.org/1999/xlink">
<g id="graph0" class="graph" transform="scale(1 1) rotate(0) translate(4 171.57)">
<polygon fill="white" stroke="none" points="-4,4 -4,-171.57 748.12,-171.57 748.12,4 -4,4"/>
<!-- &#45;1 -->
<g id="node1" class="node">
<title>&#45;1</title>
<polygon fill="lightgray" stroke="black" points="384.28,-98.28 360.78,-98.28 360.78,-79.78 384.28,-79.78 384.28,-98.28"/>
<text text-anchor="middle" x="372.53" y="-85.73" font-family="Times New Roman,serif" font-size="9.00">&#45;1</text>
</g>
<!-- 0 -->
<g id="node16" class="node">
<title>0</title>
<ellipse fill="lightblue" stroke="black" cx="328.53" cy="-14.5" rx="14.5" ry="14.5"/>
<text text-anchor="middle" x="328.53" y="-11.2" font-family="Times New Roman,serif" font-size="9.00">0</text>
</g>
<!-- &#45;1&#45;&gt;0 -->
<g id="edge1" class="edge">
<title>&#45;1&#45;&gt;0</title>
<path fill="none" stroke="red" stroke-width="0.5" d="M367.31,-79.43C360.95,-68.94 349.97,-50.85 341.32,-36.58"/>
<polygon fill="red" stroke="red" stroke-width="0.5" points="344.36,-34.84 336.18,-28.1 338.37,-38.47 344.36,-34.84"/>
</g>
<!-- 1 -->
<g id="node17" class="node">
<title>1</title>
<ellipse fill="lightblue" stroke="black" cx="498.53" cy="-14.5" rx="14.5" ry="14.5"/>
<text text-anchor="middle" x="498.53" y="-11.2" font-family="Times New Roman,serif" font-size="9.00">1</text>
</g>
<!-- &#45;1&#45;&gt;1 -->
<g id="edge2" class="edge">
<title>&#45;1&#45;&gt;1</title>
<path fill="none" stroke="red" stroke-width="0.61" d="M378.85,-79.6C382.71,-74.87 387.96,-69.11 393.53,-64.99 418.77,-46.35 452.15,-32.08 474.43,-23.75"/>
<polygon fill="red" stroke="red" stroke-width="0.61" points="475.6,-27.05 483.81,-20.36 473.22,-20.47 475.6,-27.05"/>
</g>
<!-- &#45;2 -->
<g id="node2" class="node">
<title>&#45;2</title>
<polygon fill="lightgray" stroke="black" points="52.28,-167.57 28.78,-167.57 28.78,-149.07 52.28,-149.07 52.28,-167.57"/>
<text text-anchor="middle" x="40.53" y="-155.02" font-family="Times New Roman,serif" font-size="9.00">&#45;2</text>
</g>
<!-- &#45;2&#45;&gt;0 -->
<g id="edge3" class="edge">
<title>&#45;2&#45;&gt;0</title>
<path fill="none" stroke="green" stroke-width="0.26" stroke-dasharray="1,5" d="M32.36,-148.66C16.69,-130.99 -14.19,-90.32 7.53,-64.99 45.78,-20.39 234.48,-15.61 303.33,-15.37"/>
<polygon fill="green" stroke="green" stroke-width="0.26" points="303.28,-18.87 313.28,-15.36 303.28,-11.87 303.28,-18.87"/>
</g>
<!-- &#45;2&#45;&gt;1 -->
<g id="edge4" class="edge">
<title>&#45;2&#45;&gt;1</title>
<path fill="none" stroke="green" stroke-width="0.62" d="M52.72,-156.5C138.72,-150.68 650.87,-115.94 653.53,-113.07 668.09,-97.43 666.13,-82.25 653.53,-64.99 623.61,-24.03 559.4,-16.18 523.73,-15.14"/>
<polygon fill="green" stroke="green" stroke-width="0.62" points="524.21,-11.65 514.16,-15.02 524.12,-18.65 524.21,-11.65"/>
</g>
<!-- 1022 -->
<g id="node19" class="node">
<title>1022</title>
<ellipse fill="white" stroke="black" cx="40.53" cy="-89.03" rx="24.04" ry="24.04"/>
<text text-anchor="middle" x="40.53" y="-85.73" font-family="Times New Roman,serif" font-size="9.00">1022</text>
</g>
<!-- &#45;2&#45;&gt;1022 -->
<g id="edge31" class="edge">
<title>&#45;2&#45;&gt;1022</title>
<path fill="none" stroke="green" stroke-width="0.27" d="M40.53,-148.8C40.53,-142.38 40.53,-133.12 40.53,-123.84"/>
<polygon fill="green" stroke="green" stroke-width="0.27" points="44.03,-123.91 40.53,-113.91 37.03,-123.91 44.03,-123.91"/>
</g>
<!-- &#45;3 -->
<g id="node3" class="node">
<title>&#45;3</title>
<polygon fill="lightgray" stroke="black" points="426.28,-98.28 402.78,-98.28 402.78,-79.78 426.28,-79.78 426.28,-98.28"/>
<text text-anchor="middle" x="414.53" y="-85.73" font-family="Times New Roman,serif" font-size="9.00">&#45;3</text>
</g>
<!-- &#45;3&#45;&gt;0 -->
<g id="edge5" class="edge">
<title>&#45;3&#45;&gt;0</title>
<path fill="none" stroke="green" stroke-width="0.41" stroke-dasharray="1,5" d="M407.49,-79.59C403.56,-75.07 398.48,-69.52 393.53,-64.99 379.25,-51.92 361.72,-38.71 348.46,-29.24"/>
<polygon fill="green" stroke="green" stroke-width="0.41" points="350.75,-26.57 340.56,-23.67 346.72,-32.29 350.75,-26.57"/>
</g>
<!-- &#45;3&#45;&gt;1 -->
<g id="edge6" class="edge">
<title>&#45;3&#45;&gt;1</title>
<path fill="none" stroke="green" stroke-width="0.19" d="M421.6,-79.62C425.53,-75.11 430.61,-69.56 435.53,-64.99 449.27,-52.22 466.02,-39.17 478.79,-29.67"/>
<polygon fill="green" stroke="green" stroke-width="0.19" points="480.69,-32.63 486.68,-23.89 476.55,-26.98 480.69,-32.63"/>
</g>
<!-- &#45;4 -->
<g id="node4" class="node">
<title>&#45;4</title>
<polygon fill="lightgray" stroke="black" points="724.28,-98.28 700.78,-98.28 700.78,-79.78 724.28,-79.78 724.28,-98.28"/>
<text text-anchor="middle" x="712.53" y="-85.73" font-family="Times New Roman,serif" font-size="9.00">&#45;4</text>
</g>
<!-- &#45;4&#45;&gt;1 -->
<g id="edge7" class="edge">
<title>&#45;4&#45;&gt;1</title>
<path fill="none" stroke="red" stroke-width="0.28" d="M705.08,-79.7C700.24,-74.76 693.55,-68.75 686.53,-64.99 632.49,-36.08 560.53,-23.28 523.26,-18.28"/>
<polygon fill="red" stroke="red" stroke-width="0.28" points="524.07,-14.86 513.71,-17.08 523.19,-21.8 524.07,-14.86"/>
</g>
<!-- &#45;5 -->
<g id="node5" class="node">
<title>&#45;5</title>
<polygon fill="lightgray" stroke="black" points="468.28,-98.28 444.78,-98.28 444.78,-79.78 468.28,-79.78 468.28,-98.28"/>
<text text-anchor="middle" x="456.53" y="-85.73" font-family="Times New Roman,serif" font-size="9.00">&#45;5</text>
</g>
<!-- &#45;5&#45;&gt;0 -->
<g id="edge8" class="edge">
<title>&#45;5&#45;&gt;0</title>
<path fill="none" stroke="red" stroke-width="0.32" d="M450.22,-79.58C446.37,-74.85 441.12,-69.09 435.53,-64.99 409.45,-45.88 374.81,-31.5 352.11,-23.3"/>
<polygon fill="red" stroke="red" stroke-width="0.32" points="353.35,-20.03 342.76,-20.03 351.04,-26.64 353.35,-20.03"/>
</g>
<!-- &#45;5&#45;&gt;1 -->
<g id="edge9" class="edge">
<title>&#45;5&#45;&gt;1</title>
<path fill="none" stroke="red" stroke-width="0.45" d="M461.51,-79.43C467.55,-69 477.94,-51.06 486.18,-36.83"/>
<polygon fill="red" stroke="red" stroke-width="0.45" points="489.13,-38.71 491.11,-28.3 483.07,-35.2 489.13,-38.71"/>
</g>
<!-- &#45;6 -->
<g id="node6" class="node">
<title>&#45;6</title>
<polygon fill="lightgray" stroke="black" points="510.28,-98.28 486.78,-98.28 486.78,-79.78 510.28,-79.78 510.28,-98.28"/>
<text text-anchor="middle" x="498.53" y="-85.73" font-family="Times New Roman,serif" font-size="9.00">&#45;6</text>
</g>
<!-- &#45;6&#45;&gt;0 -->
<g id="edge10" class="edge">
<title>&#45;6&#45;&gt;0</title>
<path fill="none" stroke="green" stroke-width="0.27" stroke-dasharray="1,5" d="M492.39,-79.34C488.59,-74.53 483.34,-68.77 477.53,-64.99 438.07,-39.35 384.07,-25.78 353.08,-19.67"/>
<polygon fill="green" stroke="green" stroke-width="0.27" points="354.01,-16.28 343.54,-17.88 352.73,-23.16 354.01,-16.28"/>
</g>
<!-- &#45;6&#45;&gt;1 -->
<g id="edge11" class="edge">
<title>&#45;6&#45;&gt;1</title>
<path fill="none" stroke="green" stroke-width="0.36" d="M498.53,-79.43C498.53,-69.66 498.53,-53.29 498.53,-39.56"/>
<polygon fill="green" stroke="green" stroke-width="0.36" points="502.03,-39.83 498.53,-29.83 495.03,-39.83 502.03,-39.83"/>
</g>
<!-- &#45;7 -->
<g id="node7" class="node">
<title>&#45;7</title>
<polygon fill="lightgray" stroke="black" points="195.28,-167.57 171.78,-167.57 171.78,-149.07 195.28,-149.07 195.28,-167.57"/>
<text text-anchor="middle" x="183.53" y="-155.02" font-family="Times New Roman,serif" font-size="9.00">&#45;7</text>
</g>
<!-- &#45;7&#45;&gt;0 -->
<g id="edge12" class="edge">
<title>&#45;7&#45;&gt;0</title>
<path fill="none" stroke="green" stroke-width="0.51" d="M176.07,-148.83C161.77,-131.47 133.6,-91.34 153.53,-64.99 171.63,-41.07 259.28,-25.39 303.25,-18.9"/>
<polygon fill="green" stroke="green" stroke-width="0.51" points="303.74,-22.36 313.15,-17.49 302.75,-15.43 303.74,-22.36"/>
</g>
<!-- &#45;7&#45;&gt;1 -->
<g id="edge13" class="edge">
<title>&#45;7&#45;&gt;1</title>
<path fill="none" stroke="red" stroke-width="0.61" d="M195.77,-151.79C198.59,-150.72 201.63,-149.73 204.53,-149.07 262.01,-136.15 693.31,-156.12 733.53,-113.07 748.12,-97.46 746.99,-81.59 733.53,-64.99 707.29,-32.65 578.88,-20.64 523.75,-16.93"/>
<polygon fill="red" stroke="red" stroke-width="0.61" points="524.28,-13.46 514.08,-16.32 523.84,-20.44 524.28,-13.46"/>
</g>
<!-- 908 -->
<g id="node18" class="node">
<title>908</title>
<ellipse fill="white" stroke="black" cx="183.53" cy="-89.03" rx="20.86" ry="20.86"/>
<text text-anchor="middle" x="183.53" y="-85.73" font-family="Times New Roman,serif" font-size="9.00">908</text>
</g>
<!-- &#45;7&#45;&gt;908 -->
<g id="edge29" class="edge">
<title>&#45;7&#45;&gt;908</title>
<path fill="none" stroke="green" stroke-width="0.11" d="M183.53,-148.8C183.53,-141.59 183.53,-130.79 183.53,-120.42"/>
<polygon fill="green" stroke="green" stroke-width="0.11" points="187.03,-120.49 183.53,-110.49 180.03,-120.49 187.03,-120.49"/>
</g>
<!-- &#45;8 -->
<g id="node8" class="node">
<title>&#45;8</title>
<polygon fill="lightgray" stroke="black" points="106.28,-98.28 82.78,-98.28 82.78,-79.78 106.28,-79.78 106.28,-98.28"/>
<text text-anchor="middle" x="94.53" y="-85.73" font-family="Times New Roman,serif" font-size="9.00">&#45;8</text>
</g>
<!-- &#45;8&#45;&gt;0 -->
<g id="edge14" class="edge">
<title>&#45;8&#45;&gt;0</title>
<path fill="none" stroke="green" stroke-width="0.8" stroke-dasharray="1,5" d="M101.95,-79.64C106.77,-74.67 113.47,-68.66 120.53,-64.99 181.1,-33.5 261.99,-21.71 302.75,-17.57"/>
<polygon fill="green" stroke="green" stroke-width="0.8" points="302.98,-21.06 312.61,-16.65 302.33,-14.09 302.98,-21.06"/>
</g>
<!-- &#45;9 -->
<g id="node9" class="node">
<title>&#45;9</title>
<polygon fill="lightgray" stroke="black" points="552.28,-98.28 528.78,-98.28 528.78,-79.78 552.28,-79.78 552.28,-98.28"/>
<text text-anchor="middle" x="540.53" y="-85.73" font-family="Times New Roman,serif" font-size="9.00">&#45;9</text>
</g>
<!-- &#45;9&#45;&gt;0 -->
<g id="edge15" class="edge">
<title>&#45;9&#45;&gt;0</title>
<path fill="none" stroke="red" stroke-width="0.68" d="M534.83,-79.65C531.04,-74.69 525.65,-68.68 519.53,-64.99 466.21,-32.84 392.32,-21.39 353.95,-17.46"/>
<polygon fill="red" stroke="red" stroke-width="0.68" points="354.33,-13.98 344.05,-16.54 353.69,-20.95 354.33,-13.98"/>
</g>
<!-- &#45;9&#45;&gt;1 -->
<g id="edge16" class="edge">
<title>&#45;9&#45;&gt;1</title>
<path fill="none" stroke="red" stroke-width="0.21" d="M535.55,-79.43C529.45,-68.9 518.92,-50.71 510.65,-36.42"/>
<polygon fill="red" stroke="red" stroke-width="0.21" points="513.81,-34.89 505.77,-27.99 507.75,-38.4 513.81,-34.89"/>
</g>
<!-- &#45;10 -->
<g id="node10" class="node">
<title>&#45;10</title>
<polygon fill="lightgray" stroke="black" points="241.53,-167.57 213.53,-167.57 213.53,-149.07 241.53,-149.07 241.53,-167.57"/>
<text text-anchor="middle" x="227.53" y="-155.02" font-family="Times New Roman,serif" font-size="9.00">&#45;10</text>
</g>
<!-- &#45;11 -->
<g id="node11" class="node">
<title>&#45;11</title>
<polygon fill="lightgray" stroke="black" points="598.53,-98.28 570.53,-98.28 570.53,-79.78 598.53,-79.78 598.53,-98.28"/>
<text text-anchor="middle" x="584.53" y="-85.73" font-family="Times New Roman,serif" font-size="9.00">&#45;11</text>
</g>
<!-- &#45;11&#45;&gt;0 -->
<g id="edge17" class="edge">
<title>&#45;11&#45;&gt;0</title>
<path fill="none" stroke="red" stroke-width="0.49" stroke-dasharray="1,5" d="M578.18,-79.56C574,-74.57 568.09,-68.55 561.53,-64.99 492.84,-27.66 398.54,-18.47 353.91,-16.22"/>
<polygon fill="red" stroke="red" stroke-width="0.49" points="354.31,-12.74 344.17,-15.81 354.01,-19.73 354.31,-12.74"/>
</g>
<!-- &#45;11&#45;&gt;1 -->
<g id="edge18" class="edge">
<title>&#45;11&#45;&gt;1</title>
<path fill="none" stroke="green" stroke-width="0.24" d="M576.67,-79.68C572.33,-75.2 566.77,-69.64 561.53,-64.99 547.5,-52.54 530.77,-39.47 518.07,-29.89"/>
<polygon fill="green" stroke="green" stroke-width="0.24" points="520.42,-27.27 510.31,-24.08 516.22,-32.87 520.42,-27.27"/>
</g>
<!-- &#45;12 -->
<g id="node12" class="node">
<title>&#45;12</title>
<polygon fill="lightgray" stroke="black" points="644.53,-98.28 616.53,-98.28 616.53,-79.78 644.53,-79.78 644.53,-98.28"/>
<text text-anchor="middle" x="630.53" y="-85.73" font-family="Times New Roman,serif" font-size="9.00">&#45;12</text>
</g>
<!-- &#45;12&#45;&gt;0 -->
<g id="edge19" class="edge">
<title>&#45;12&#45;&gt;0</title>
<path fill="none" stroke="red" stroke-width="1.16" d="M624.22,-79.48C620.05,-74.46 614.14,-68.44 607.53,-64.99 563.45,-41.99 415.06,-24.46 354.54,-18.09"/>
<polygon fill="red" stroke="red" stroke-width="1.16" points="355.08,-14.63 344.77,-17.09 354.36,-21.59 355.08,-14.63"/>
</g>
<!-- &#45;12&#45;&gt;1 -->
<g id="edge20" class="edge">
<title>&#45;12&#45;&gt;1</title>
<path fill="none" stroke="red" stroke-width="0.48" d="M623.49,-79.6C619.23,-74.87 613.48,-69.11 607.53,-64.99 580.55,-46.28 545.36,-31.82 522.37,-23.48"/>
<polygon fill="red" stroke="red" stroke-width="0.48" points="523.73,-20.25 513.13,-20.23 521.4,-26.85 523.73,-20.25"/>
</g>
<!-- &#45;13 -->
<g id="node13" class="node">
<title>&#45;13</title>
<polygon fill="lightgray" stroke="black" points="250.53,-98.28 222.53,-98.28 222.53,-79.78 250.53,-79.78 250.53,-98.28"/>
<text text-anchor="middle" x="236.53" y="-85.73" font-family="Times New Roman,serif" font-size="9.00">&#45;13</text>
</g>
<!-- &#45;13&#45;&gt;0 -->
<g id="edge21" class="edge">
<title>&#45;13&#45;&gt;0</title>
<path fill="none" stroke="red" stroke-width="0.45" d="M244.31,-79.59C248.63,-75.08 254.19,-69.53 259.53,-64.99 275.05,-51.81 293.91,-38.44 307.99,-28.93"/>
<polygon fill="red" stroke="red" stroke-width="0.45" points="309.92,-31.85 316.3,-23.39 306.03,-26.02 309.92,-31.85"/>
</g>
<!-- &#45;13&#45;&gt;1 -->
<g id="edge22" class="edge">
<title>&#45;13&#45;&gt;1</title>
<path fill="none" stroke="green" stroke-width="0.61" d="M242.87,-79.55C247.06,-74.55 252.97,-68.54 259.53,-64.99 296.52,-45.01 419.77,-26.27 473.33,-18.85"/>
<polygon fill="green" stroke="green" stroke-width="0.61" points="473.58,-22.34 483.02,-17.52 472.64,-15.41 473.58,-22.34"/>
</g>
<!-- &#45;14 -->
<g id="node14" class="node">
<title>&#45;14</title>
<polygon fill="lightgray" stroke="black" points="296.53,-98.28 268.53,-98.28 268.53,-79.78 296.53,-79.78 296.53,-98.28"/>
<text text-anchor="middle" x="282.53" y="-85.73" font-family="Times New Roman,serif" font-size="9.00">&#45;14</text>
</g>
<!-- &#45;14&#45;&gt;0 -->
<g id="edge23" class="edge">
<title>&#45;14&#45;&gt;0</title>
<path fill="none" stroke="red" stroke-width="0.62" d="M287.99,-79.43C294.68,-68.88 306.24,-50.64 315.31,-36.34"/>
<polygon fill="red" stroke="red" stroke-width="0.62" points="318.2,-38.32 320.6,-28 312.29,-34.57 318.2,-38.32"/>
</g>
<!-- &#45;14&#45;&gt;1 -->
<g id="edge28" class="edge">
<title>&#45;14&#45;&gt;1</title>
<path fill="none" stroke="red" stroke-width="0.6" d="M288.93,-79.66C293.14,-74.7 299.05,-68.69 305.53,-64.99 360.25,-33.76 434.82,-21.91 473.28,-17.68"/>
<polygon fill="red" stroke="red" stroke-width="0.6" points="473.49,-21.17 483.08,-16.69 472.78,-14.21 473.49,-21.17"/>
</g>
<!-- &#45;15 -->
<g id="node15" class="node">
<title>&#45;15</title>
<polygon fill="lightgray" stroke="black" points="342.53,-98.28 314.53,-98.28 314.53,-79.78 342.53,-79.78 342.53,-98.28"/>
<text text-anchor="middle" x="328.53" y="-85.73" font-family="Times New Roman,serif" font-size="9.00">&#45;15</text>
</g>
<!-- &#45;15&#45;&gt;0 -->
<g id="edge24" class="edge">
<title>&#45;15&#45;&gt;0</title>
<path fill="none" stroke="red" stroke-width="0.49" d="M328.53,-79.43C328.53,-69.75 328.53,-53.61 328.53,-39.97"/>
<polygon fill="red" stroke="red" stroke-width="0.49" points="332.03,-40.04 328.53,-30.04 325.03,-40.04 332.03,-40.04"/>
</g>
<!-- &#45;15&#45;&gt;1 -->
<g id="edge25" class="edge">
<title>&#45;15&#45;&gt;1</title>
<path fill="none" stroke="red" stroke-width="0.31" d="M335.42,-79.37C339.63,-74.57 345.38,-68.81 351.53,-64.99 390.86,-40.58 443.65,-26.64 474.09,-20.11"/>
<polygon fill="red" stroke="red" stroke-width="0.31" points="474.67,-23.56 483.77,-18.13 473.27,-16.7 474.67,-23.56"/>
</g>
<!-- 0&#45;&gt;0 -->
<g id="edge26" class="edge">
<title>0&#45;&gt;0</title>
<path fill="none" stroke="red" stroke-width="0.44" d="M338.51,-25.19C349.09,-31.89 361.03,-28.33 361.03,-14.5 361.03,-4.99 355.39,-0.33 348.42,-0.53"/>
<polygon fill="red" stroke="red" stroke-width="0.44" points="347.54,2.87 339.14,-3.59 349.73,-3.78 347.54,2.87"/>
</g>
<!-- 1&#45;&gt;1 -->
<g id="edge27" class="edge">
<title>1&#45;&gt;1</title>
<path fill="none" stroke="red" stroke-width="0.43" d="M508.51,-25.19C519.09,-31.89 531.03,-28.33 531.03,-14.5 531.03,-4.99 525.39,-0.33 518.42,-0.53"/>
<polygon fill="red" stroke="red" stroke-width="0.43" points="517.53,2.86 509.13,-3.59 519.72,-3.78 517.53,2.86"/>
</g>
<!-- 908&#45;&gt;0 -->
<g id="edge30" class="edge">
<title>908&#45;&gt;0</title>
<path fill="none" stroke="green" stroke-width="0.15" d="M199.2,-74.83C203.67,-71.39 208.66,-67.85 213.53,-64.99 243.74,-47.26 281.49,-32.24 305.31,-23.54"/>
<polygon fill="green" stroke="green" stroke-width="0.15" points="306.46,-26.85 314.69,-20.18 304.1,-20.26 306.46,-26.85"/>
</g>
<!-- 1022&#45;&gt;0 -->
<g id="edge32" class="edge">
<title>1022&#45;&gt;0</title>
<path fill="none" stroke="green" stroke-width="0.26" d="M58.93,-73.19C63.49,-70.09 68.51,-67.12 73.53,-64.99 153.3,-31.21 256.94,-20.25 303.71,-16.89"/>
<polygon fill="green" stroke="green" stroke-width="0.26" points="303.68,-20.4 313.43,-16.25 303.22,-13.42 303.68,-20.4"/>
</g>
</g>
</svg>
