<?xml version="1.0" encoding="UTF-8" standalone="no"?>
<!DOCTYPE svg PUBLIC "-//W3C//DTD SVG 1.1//EN"
 "http://www.w3.org/Graphics/SVG/1.1/DTD/svg11.dtd">
<!-- Generated by graphviz version 12.2.1 (20241206.2353)
 -->
<!-- Pages: 1 -->
<svg width="736pt" height="91pt"
 viewBox="0.00 0.00 735.50 91.49" xmlns="http://www.w3.org/2000/svg" xmlns:xlink="http://www.w3.org/1999/xlink">
<g id="graph0" class="graph" transform="scale(1 1) rotate(0) translate(4 87.49)">
<polygon fill="white" stroke="none" points="-4,4 -4,-87.49 731.5,-87.49 731.5,4 -4,4"/>
<!-- &#45;1 -->
<g id="node1" class="node">
<title>&#45;1</title>
<polygon fill="lightgray" stroke="black" points="23.5,-83.49 0,-83.49 0,-64.99 23.5,-64.99 23.5,-83.49"/>
<text text-anchor="middle" x="11.75" y="-70.94" font-family="Times New Roman,serif" font-size="9.00">&#45;1</text>
</g>
<!-- 1 -->
<g id="node19" class="node">
<title>1</title>
<ellipse fill="lightblue" stroke="black" cx="321.75" cy="-14.5" rx="14.5" ry="14.5"/>
<text text-anchor="middle" x="321.75" y="-11.2" font-family="Times New Roman,serif" font-size="9.00">1</text>
</g>
<!-- &#45;1&#45;&gt;1 -->
<g id="edge1" class="edge">
<title>&#45;1&#45;&gt;1</title>
<path fill="none" stroke="green" stroke-width="0.17" d="M23.6,-68.1C26.55,-66.95 29.73,-65.83 32.75,-64.99 128.68,-38.24 246.78,-23.47 297.13,-17.99"/>
<polygon fill="green" stroke="green" stroke-width="0.17" points="297.25,-21.5 306.82,-16.96 296.51,-14.54 297.25,-21.5"/>
</g>
<!-- &#45;2 -->
<g id="node2" class="node">
<title>&#45;2</title>
<polygon fill="lightgray" stroke="black" points="249.5,-83.49 226,-83.49 226,-64.99 249.5,-64.99 249.5,-83.49"/>
<text text-anchor="middle" x="237.75" y="-70.94" font-family="Times New Roman,serif" font-size="9.00">&#45;2</text>
</g>
<!-- 0 -->
<g id="node18" class="node">
<title>0</title>
<ellipse fill="lightblue" stroke="black" cx="426.75" cy="-14.5" rx="14.5" ry="14.5"/>
<text text-anchor="middle" x="426.75" y="-11.2" font-family="Times New Roman,serif" font-size="9.00">0</text>
</g>
<!-- &#45;2&#45;&gt;0 -->
<g id="edge2" class="edge">
<title>&#45;2&#45;&gt;0</title>
<path fill="none" stroke="green" stroke-width="0.14" d="M249.68,-68.35C252.62,-67.19 255.79,-66.01 258.75,-64.99 309.62,-47.54 370.38,-30.58 403.09,-21.76"/>
<polygon fill="green" stroke="green" stroke-width="0.14" points="403.72,-25.21 412.48,-19.25 401.91,-18.45 403.72,-25.21"/>
</g>
<!-- &#45;2&#45;&gt;1 -->
<g id="edge3" class="edge">
<title>&#45;2&#45;&gt;1</title>
<path fill="none" stroke="green" stroke-width="0.11" d="M249.79,-64.97C263.34,-55.65 285.57,-40.37 301.74,-29.25"/>
<polygon fill="green" stroke="green" stroke-width="0.11" points="303.61,-32.21 309.87,-23.66 299.65,-26.44 303.61,-32.21"/>
</g>
<!-- &#45;3 -->
<g id="node3" class="node">
<title>&#45;3</title>
<polygon fill="lightgray" stroke="black" points="291.5,-83.49 268,-83.49 268,-64.99 291.5,-64.99 291.5,-83.49"/>
<text text-anchor="middle" x="279.75" y="-70.94" font-family="Times New Roman,serif" font-size="9.00">&#45;3</text>
</g>
<!-- &#45;3&#45;&gt;0 -->
<g id="edge4" class="edge">
<title>&#45;3&#45;&gt;0</title>
<path fill="none" stroke="red" stroke-width="0.12" d="M291.78,-68.52C316.28,-58.89 372.32,-36.88 403.95,-24.45"/>
<polygon fill="red" stroke="red" stroke-width="0.12" points="405.09,-27.76 413.12,-20.85 402.53,-21.25 405.09,-27.76"/>
</g>
<!-- &#45;3&#45;&gt;1 -->
<g id="edge5" class="edge">
<title>&#45;3&#45;&gt;1</title>
<path fill="none" stroke="red" stroke-width="0.26" d="M285.95,-64.72C291.59,-56.96 300.15,-45.2 307.48,-35.12"/>
<polygon fill="red" stroke="red" stroke-width="0.26" points="310.22,-37.3 313.27,-27.16 304.56,-33.18 310.22,-37.3"/>
</g>
<!-- &#45;4 -->
<g id="node4" class="node">
<title>&#45;4</title>
<polygon fill="lightgray" stroke="black" points="333.5,-83.49 310,-83.49 310,-64.99 333.5,-64.99 333.5,-83.49"/>
<text text-anchor="middle" x="321.75" y="-70.94" font-family="Times New Roman,serif" font-size="9.00">&#45;4</text>
</g>
<!-- &#45;4&#45;&gt;0 -->
<g id="edge6" class="edge">
<title>&#45;4&#45;&gt;0</title>
<path fill="none" stroke="red" stroke-width="0.21" d="M333.79,-66.62C351.25,-57.02 383.85,-39.09 405.42,-27.22"/>
<polygon fill="red" stroke="red" stroke-width="0.21" points="406.84,-30.44 413.92,-22.55 403.47,-24.3 406.84,-30.44"/>
</g>
<!-- &#45;4&#45;&gt;1 -->
<g id="edge7" class="edge">
<title>&#45;4&#45;&gt;1</title>
<path fill="none" stroke="red" stroke-width="0.29" d="M321.75,-64.72C321.75,-58.12 321.75,-48.63 321.75,-39.74"/>
<polygon fill="red" stroke="red" stroke-width="0.29" points="325.25,-39.87 321.75,-29.87 318.25,-39.87 325.25,-39.87"/>
</g>
<!-- &#45;5 -->
<g id="node5" class="node">
<title>&#45;5</title>
<polygon fill="lightgray" stroke="black" points="375.5,-83.49 352,-83.49 352,-64.99 375.5,-64.99 375.5,-83.49"/>
<text text-anchor="middle" x="363.75" y="-70.94" font-family="Times New Roman,serif" font-size="9.00">&#45;5</text>
</g>
<!-- &#45;5&#45;&gt;0 -->
<g id="edge8" class="edge">
<title>&#45;5&#45;&gt;0</title>
<path fill="none" stroke="green" stroke-width="0.2" d="M373.05,-64.72C382.5,-56.05 397.39,-42.41 409.09,-31.68"/>
<polygon fill="green" stroke="green" stroke-width="0.2" points="411.35,-34.36 416.36,-25.02 406.62,-29.2 411.35,-34.36"/>
</g>
<!-- &#45;5&#45;&gt;1 -->
<g id="edge9" class="edge">
<title>&#45;5&#45;&gt;1</title>
<path fill="none" stroke="green" stroke-width="0.13" d="M357.55,-64.72C351.85,-56.88 343.18,-44.96 335.8,-34.81"/>
<polygon fill="green" stroke="green" stroke-width="0.13" points="338.83,-33.03 330.12,-27 333.17,-37.15 338.83,-33.03"/>
</g>
<!-- &#45;6 -->
<g id="node6" class="node">
<title>&#45;6</title>
<polygon fill="lightgray" stroke="black" points="417.5,-83.49 394,-83.49 394,-64.99 417.5,-64.99 417.5,-83.49"/>
<text text-anchor="middle" x="405.75" y="-70.94" font-family="Times New Roman,serif" font-size="9.00">&#45;6</text>
</g>
<!-- &#45;6&#45;&gt;0 -->
<g id="edge10" class="edge">
<title>&#45;6&#45;&gt;0</title>
<path fill="none" stroke="red" stroke-width="0.18" stroke-dasharray="1,5" d="M408.85,-64.72C411.4,-57.72 415.13,-47.46 418.52,-38.12"/>
<polygon fill="red" stroke="red" stroke-width="0.18" points="421.78,-39.39 421.91,-28.8 415.21,-37 421.78,-39.39"/>
</g>
<!-- &#45;6&#45;&gt;1 -->
<g id="edge11" class="edge">
<title>&#45;6&#45;&gt;1</title>
<path fill="none" stroke="red" stroke-width="0.26" d="M393.71,-64.97C380.16,-55.65 357.93,-40.37 341.76,-29.25"/>
<polygon fill="red" stroke="red" stroke-width="0.26" points="344.04,-26.57 333.82,-23.79 340.08,-32.34 344.04,-26.57"/>
</g>
<!-- &#45;7 -->
<g id="node7" class="node">
<title>&#45;7</title>
<polygon fill="lightgray" stroke="black" points="727.5,-83.49 704,-83.49 704,-64.99 727.5,-64.99 727.5,-83.49"/>
<text text-anchor="middle" x="715.75" y="-70.94" font-family="Times New Roman,serif" font-size="9.00">&#45;7</text>
</g>
<!-- &#45;8 -->
<g id="node8" class="node">
<title>&#45;8</title>
<polygon fill="lightgray" stroke="black" points="459.5,-83.49 436,-83.49 436,-64.99 459.5,-64.99 459.5,-83.49"/>
<text text-anchor="middle" x="447.75" y="-70.94" font-family="Times New Roman,serif" font-size="9.00">&#45;8</text>
</g>
<!-- &#45;8&#45;&gt;0 -->
<g id="edge12" class="edge">
<title>&#45;8&#45;&gt;0</title>
<path fill="none" stroke="green" stroke-width="0.34" d="M444.65,-64.72C442.13,-57.79 438.45,-47.68 435.09,-38.42"/>
<polygon fill="green" stroke="green" stroke-width="0.34" points="438.38,-37.22 431.67,-29.02 431.8,-39.62 438.38,-37.22"/>
</g>
<!-- &#45;8&#45;&gt;1 -->
<g id="edge13" class="edge">
<title>&#45;8&#45;&gt;1</title>
<path fill="none" stroke="red" stroke-width="0.61" d="M435.67,-67.7C414.68,-58.08 371.17,-38.14 344.41,-25.88"/>
<polygon fill="red" stroke="red" stroke-width="0.61" points="346.12,-22.81 335.57,-21.83 343.2,-29.18 346.12,-22.81"/>
</g>
<!-- &#45;9 -->
<g id="node9" class="node">
<title>&#45;9</title>
<polygon fill="lightgray" stroke="black" points="685.5,-83.49 662,-83.49 662,-64.99 685.5,-64.99 685.5,-83.49"/>
<text text-anchor="middle" x="673.75" y="-70.94" font-family="Times New Roman,serif" font-size="9.00">&#45;9</text>
</g>
<!-- &#45;9&#45;&gt;0 -->
<g id="edge14" class="edge">
<title>&#45;9&#45;&gt;0</title>
<path fill="none" stroke="green" stroke-width="0.6" d="M661.87,-68.2C658.92,-67.05 655.75,-65.9 652.75,-64.99 581.09,-43.22 493.92,-26.9 451.85,-19.65"/>
<polygon fill="green" stroke="green" stroke-width="0.6" points="452.57,-16.22 442.13,-18 451.4,-23.12 452.57,-16.22"/>
</g>
<!-- &#45;10 -->
<g id="node10" class="node">
<title>&#45;10</title>
<polygon fill="lightgray" stroke="black" points="505.75,-83.49 477.75,-83.49 477.75,-64.99 505.75,-64.99 505.75,-83.49"/>
<text text-anchor="middle" x="491.75" y="-70.94" font-family="Times New Roman,serif" font-size="9.00">&#45;10</text>
</g>
<!-- &#45;10&#45;&gt;0 -->
<g id="edge15" class="edge">
<title>&#45;10&#45;&gt;0</title>
<path fill="none" stroke="green" stroke-width="0.12" stroke-dasharray="1,5" d="M482.16,-64.72C472.31,-55.97 456.75,-42.15 444.62,-31.37"/>
<polygon fill="green" stroke="green" stroke-width="0.12" points="447.18,-28.96 437.38,-24.94 442.53,-34.2 447.18,-28.96"/>
</g>
<!-- &#45;10&#45;&gt;1 -->
<g id="edge16" class="edge">
<title>&#45;10&#45;&gt;1</title>
<path fill="none" stroke="green" stroke-width="0.36" d="M477.66,-68.14C474.72,-67.09 471.63,-65.99 468.75,-64.99 425.26,-49.87 374.28,-32.87 345.22,-23.24"/>
<polygon fill="green" stroke="green" stroke-width="0.36" points="346.68,-20.04 336.09,-20.22 344.48,-26.68 346.68,-20.04"/>
</g>
<!-- &#45;11 -->
<g id="node11" class="node">
<title>&#45;11</title>
<polygon fill="lightgray" stroke="black" points="551.75,-83.49 523.75,-83.49 523.75,-64.99 551.75,-64.99 551.75,-83.49"/>
<text text-anchor="middle" x="537.75" y="-70.94" font-family="Times New Roman,serif" font-size="9.00">&#45;11</text>
</g>
<!-- &#45;11&#45;&gt;0 -->
<g id="edge17" class="edge">
<title>&#45;11&#45;&gt;0</title>
<path fill="none" stroke="green" stroke-width="0.2" stroke-dasharray="1,5" d="M523.69,-65.93C504.69,-56.04 470.62,-38.32 448.35,-26.73"/>
<polygon fill="green" stroke="green" stroke-width="0.2" points="450.09,-23.69 439.6,-22.18 446.85,-29.9 450.09,-23.69"/>
</g>
<!-- &#45;11&#45;&gt;1 -->
<g id="edge18" class="edge">
<title>&#45;11&#45;&gt;1</title>
<path fill="none" stroke="red" stroke-width="0.38" d="M523.71,-67.97C520.77,-66.93 517.67,-65.89 514.75,-64.99 454.81,-46.6 383,-29.44 346.17,-20.99"/>
<polygon fill="red" stroke="red" stroke-width="0.38" points="347.01,-17.59 336.49,-18.78 345.46,-24.41 347.01,-17.59"/>
</g>
<!-- &#45;12 -->
<g id="node12" class="node">
<title>&#45;12</title>
<polygon fill="lightgray" stroke="black" points="69.75,-83.49 41.75,-83.49 41.75,-64.99 69.75,-64.99 69.75,-83.49"/>
<text text-anchor="middle" x="55.75" y="-70.94" font-family="Times New Roman,serif" font-size="9.00">&#45;12</text>
</g>
<!-- &#45;12&#45;&gt;1 -->
<g id="edge19" class="edge">
<title>&#45;12&#45;&gt;1</title>
<path fill="none" stroke="red" stroke-width="0.12" stroke-dasharray="1,5" d="M70.25,-67.69C73.05,-66.71 75.97,-65.77 78.75,-64.99 157.66,-42.93 253.54,-26.31 297.55,-19.24"/>
<polygon fill="red" stroke="red" stroke-width="0.12" points="297.83,-22.74 307.16,-17.72 296.73,-15.83 297.83,-22.74"/>
</g>
<!-- &#45;13 -->
<g id="node13" class="node">
<title>&#45;13</title>
<polygon fill="lightgray" stroke="black" points="597.75,-83.49 569.75,-83.49 569.75,-64.99 597.75,-64.99 597.75,-83.49"/>
<text text-anchor="middle" x="583.75" y="-70.94" font-family="Times New Roman,serif" font-size="9.00">&#45;13</text>
</g>
<!-- &#45;13&#45;&gt;0 -->
<g id="edge20" class="edge">
<title>&#45;13&#45;&gt;0</title>
<path fill="none" stroke="green" stroke-width="0.25" d="M569.26,-67.91C542,-57.89 482.87,-36.14 449.99,-24.04"/>
<polygon fill="green" stroke="green" stroke-width="0.25" points="451.26,-20.78 440.67,-20.61 448.84,-27.35 451.26,-20.78"/>
</g>
<!-- &#45;13&#45;&gt;1 -->
<g id="edge21" class="edge">
<title>&#45;13&#45;&gt;1</title>
<path fill="none" stroke="green" stroke-width="0.71" d="M569.74,-67.86C566.8,-66.83 563.69,-65.82 560.75,-64.99 483.97,-43.39 390.88,-26.79 346.98,-19.52"/>
<polygon fill="green" stroke="green" stroke-width="0.71" points="347.7,-16.09 337.26,-17.93 346.57,-23 347.7,-16.09"/>
</g>
<!-- &#45;14 -->
<g id="node14" class="node">
<title>&#45;14</title>
<polygon fill="lightgray" stroke="black" points="115.75,-83.49 87.75,-83.49 87.75,-64.99 115.75,-64.99 115.75,-83.49"/>
<text text-anchor="middle" x="101.75" y="-70.94" font-family="Times New Roman,serif" font-size="9.00">&#45;14</text>
</g>
<!-- &#45;14&#45;&gt;1 -->
<g id="edge22" class="edge">
<title>&#45;14&#45;&gt;1</title>
<path fill="none" stroke="red" stroke-width="0.27" d="M115.79,-67.96C118.73,-66.92 121.83,-65.88 124.75,-64.99 186.47,-46.22 260.58,-29 297.85,-20.7"/>
<polygon fill="red" stroke="red" stroke-width="0.27" points="298.37,-24.17 307.38,-18.6 296.86,-17.34 298.37,-24.17"/>
</g>
<!-- &#45;15 -->
<g id="node15" class="node">
<title>&#45;15</title>
<polygon fill="lightgray" stroke="black" points="161.75,-83.49 133.75,-83.49 133.75,-64.99 161.75,-64.99 161.75,-83.49"/>
<text text-anchor="middle" x="147.75" y="-70.94" font-family="Times New Roman,serif" font-size="9.00">&#45;15</text>
</g>
<!-- &#45;15&#45;&gt;1 -->
<g id="edge23" class="edge">
<title>&#45;15&#45;&gt;1</title>
<path fill="none" stroke="green" stroke-width="0.27" stroke-dasharray="1,5" d="M161.84,-68.12C164.78,-67.07 167.86,-65.98 170.75,-64.99 215.6,-49.6 268.3,-32.56 298.09,-23.03"/>
<polygon fill="green" stroke="green" stroke-width="0.27" points="299.11,-26.38 307.57,-20 296.98,-19.71 299.11,-26.38"/>
</g>
<!-- &#45;16 -->
<g id="node16" class="node">
<title>&#45;16</title>
<polygon fill="lightgray" stroke="black" points="643.75,-83.49 615.75,-83.49 615.75,-64.99 643.75,-64.99 643.75,-83.49"/>
<text text-anchor="middle" x="629.75" y="-70.94" font-family="Times New Roman,serif" font-size="9.00">&#45;16</text>
</g>
<!-- &#45;16&#45;&gt;0 -->
<g id="edge24" class="edge">
<title>&#45;16&#45;&gt;0</title>
<path fill="none" stroke="green" stroke-width="0.23" stroke-dasharray="1,5" d="M615.7,-68.01C612.76,-66.97 609.66,-65.91 606.75,-64.99 551.3,-47.45 485.15,-30.18 450.54,-21.42"/>
<polygon fill="green" stroke="green" stroke-width="0.23" points="451.75,-18.12 441.19,-19.07 450.04,-24.9 451.75,-18.12"/>
</g>
<!-- &#45;16&#45;&gt;1 -->
<g id="edge25" class="edge">
<title>&#45;16&#45;&gt;1</title>
<path fill="none" stroke="red" stroke-width="0.13" d="M615.27,-67.62C612.47,-66.66 609.54,-65.73 606.75,-64.99 581.57,-58.34 410.05,-29.97 345.9,-19.44"/>
<polygon fill="red" stroke="red" stroke-width="0.13" points="346.85,-16.05 336.41,-17.89 345.71,-22.96 346.85,-16.05"/>
</g>
<!-- &#45;17 -->
<g id="node17" class="node">
<title>&#45;17</title>
<polygon fill="lightgray" stroke="black" points="207.75,-83.49 179.75,-83.49 179.75,-64.99 207.75,-64.99 207.75,-83.49"/>
<text text-anchor="middle" x="193.75" y="-70.94" font-family="Times New Roman,serif" font-size="9.00">&#45;17</text>
</g>
<!-- &#45;17&#45;&gt;0 -->
<g id="edge26" class="edge">
<title>&#45;17&#45;&gt;0</title>
<path fill="none" stroke="green" stroke-width="0.2" stroke-dasharray="1,5" d="M207.78,-67.93C210.72,-66.89 213.82,-65.86 216.75,-64.99 283.06,-45.35 362.96,-28.29 402.35,-20.31"/>
<polygon fill="green" stroke="green" stroke-width="0.2" points="402.93,-23.76 412.05,-18.36 401.56,-16.9 402.93,-23.76"/>
</g>
<!-- &#45;17&#45;&gt;1 -->
<g id="edge27" class="edge">
<title>&#45;17&#45;&gt;1</title>
<path fill="none" stroke="red" stroke-width="0.24" stroke-dasharray="1,5" d="M207.94,-66.84C230.1,-56.84 273.12,-37.43 299.46,-25.55"/>
<polygon fill="red" stroke="red" stroke-width="0.24" points="300.65,-28.85 308.33,-21.55 297.77,-22.47 300.65,-28.85"/>
</g>
</g>
</svg>
