<?xml version="1.0" encoding="UTF-8" standalone="no"?>
<!DOCTYPE svg PUBLIC "-//W3C//DTD SVG 1.1//EN"
 "http://www.w3.org/Graphics/SVG/1.1/DTD/svg11.dtd">
<!-- Generated by graphviz version 12.2.1 (20241206.2353)
 -->
<!-- Pages: 1 -->
<svg width="736pt" height="163pt"
 viewBox="0.00 0.00 736.00 162.85" xmlns="http://www.w3.org/2000/svg" xmlns:xlink="http://www.w3.org/1999/xlink">
<g id="graph0" class="graph" transform="scale(1 1) rotate(0) translate(4 158.85)">
<polygon fill="white" stroke="none" points="-4,4 -4,-158.85 732,-158.85 732,4 -4,4"/>
<!-- &#45;1 -->
<g id="node1" class="node">
<title>&#45;1</title>
<polygon fill="lightgray" stroke="black" points="207.75,-154.85 184.25,-154.85 184.25,-136.35 207.75,-136.35 207.75,-154.85"/>
<text text-anchor="middle" x="196" y="-142.3" font-family="Times New Roman,serif" font-size="9.00">&#45;1</text>
</g>
<!-- 15 -->
<g id="node20" class="node">
<title>15</title>
<ellipse fill="white" stroke="black" cx="280" cy="-82.67" rx="17.68" ry="17.68"/>
<text text-anchor="middle" x="280" y="-79.37" font-family="Times New Roman,serif" font-size="9.00">15</text>
</g>
<!-- &#45;1&#45;&gt;15 -->
<g id="edge1" class="edge">
<title>&#45;1&#45;&gt;15</title>
<path fill="none" stroke="green" stroke-width="0.86" d="M208.04,-135.87C220.85,-126.57 241.44,-111.64 257.32,-100.12"/>
<polygon fill="green" stroke="green" stroke-width="0.86" points="258.94,-103.27 264.98,-94.57 254.83,-97.6 258.94,-103.27"/>
</g>
<!-- &#45;2 -->
<g id="node2" class="node">
<title>&#45;2</title>
<polygon fill="lightgray" stroke="black" points="551.75,-154.85 528.25,-154.85 528.25,-136.35 551.75,-136.35 551.75,-154.85"/>
<text text-anchor="middle" x="540" y="-142.3" font-family="Times New Roman,serif" font-size="9.00">&#45;2</text>
</g>
<!-- &#45;3 -->
<g id="node3" class="node">
<title>&#45;3</title>
<polygon fill="lightgray" stroke="black" points="249.75,-154.85 226.25,-154.85 226.25,-136.35 249.75,-136.35 249.75,-154.85"/>
<text text-anchor="middle" x="238" y="-142.3" font-family="Times New Roman,serif" font-size="9.00">&#45;3</text>
</g>
<!-- &#45;3&#45;&gt;15 -->
<g id="edge2" class="edge">
<title>&#45;3&#45;&gt;15</title>
<path fill="none" stroke="red" stroke-width="0.4" d="M244.02,-135.87C249.35,-128.13 257.37,-116.49 264.49,-106.17"/>
<polygon fill="red" stroke="red" stroke-width="0.4" points="267.29,-108.28 270.08,-98.06 261.52,-104.3 267.29,-108.28"/>
</g>
<!-- &#45;4 -->
<g id="node4" class="node">
<title>&#45;4</title>
<polygon fill="lightgray" stroke="black" points="509.75,-154.85 486.25,-154.85 486.25,-136.35 509.75,-136.35 509.75,-154.85"/>
<text text-anchor="middle" x="498" y="-142.3" font-family="Times New Roman,serif" font-size="9.00">&#45;4</text>
</g>
<!-- 0 -->
<g id="node18" class="node">
<title>0</title>
<ellipse fill="lightblue" stroke="black" cx="388" cy="-14.5" rx="14.5" ry="14.5"/>
<text text-anchor="middle" x="388" y="-11.2" font-family="Times New Roman,serif" font-size="9.00">0</text>
</g>
<!-- &#45;4&#45;&gt;0 -->
<g id="edge19" class="edge">
<title>&#45;4&#45;&gt;0</title>
<path fill="none" stroke="red" stroke-width="0.31" d="M497.87,-135.98C497.2,-120.25 493.75,-86.55 477,-64.99 460.46,-43.71 432.07,-30.22 411.8,-22.8"/>
<polygon fill="red" stroke="red" stroke-width="0.31" points="413.08,-19.54 402.48,-19.6 410.81,-26.16 413.08,-19.54"/>
</g>
<!-- 1 -->
<g id="node19" class="node">
<title>1</title>
<ellipse fill="lightblue" stroke="black" cx="454" cy="-82.67" rx="14.5" ry="14.5"/>
<text text-anchor="middle" x="454" y="-79.37" font-family="Times New Roman,serif" font-size="9.00">1</text>
</g>
<!-- &#45;4&#45;&gt;1 -->
<g id="edge17" class="edge">
<title>&#45;4&#45;&gt;1</title>
<path fill="none" stroke="green" stroke-width="0.21" d="M491.7,-135.87C485.55,-127.35 475.98,-114.11 468.03,-103.09"/>
<polygon fill="green" stroke="green" stroke-width="0.21" points="470.96,-101.18 462.27,-95.12 465.29,-105.27 470.96,-101.18"/>
</g>
<!-- &#45;4&#45;&gt;15 -->
<g id="edge3" class="edge">
<title>&#45;4&#45;&gt;15</title>
<path fill="none" stroke="red" stroke-width="0.14" d="M486.09,-139.65C483.14,-138.5 479.98,-137.33 477,-136.35 417.21,-116.68 345.45,-98.92 307.19,-89.91"/>
<polygon fill="red" stroke="red" stroke-width="0.14" points="308.07,-86.52 297.53,-87.65 306.47,-93.34 308.07,-86.52"/>
</g>
<!-- &#45;5 -->
<g id="node5" class="node">
<title>&#45;5</title>
<polygon fill="lightgray" stroke="black" points="291.75,-154.85 268.25,-154.85 268.25,-136.35 291.75,-136.35 291.75,-154.85"/>
<text text-anchor="middle" x="280" y="-142.3" font-family="Times New Roman,serif" font-size="9.00">&#45;5</text>
</g>
<!-- &#45;5&#45;&gt;15 -->
<g id="edge4" class="edge">
<title>&#45;5&#45;&gt;15</title>
<path fill="none" stroke="green" stroke-width="0.61" d="M280,-135.87C280,-129.39 280,-120.18 280,-111.29"/>
<polygon fill="green" stroke="green" stroke-width="0.61" points="283.5,-111.35 280,-101.35 276.5,-111.35 283.5,-111.35"/>
</g>
<!-- &#45;6 -->
<g id="node6" class="node">
<title>&#45;6</title>
<polygon fill="lightgray" stroke="black" points="593.75,-154.85 570.25,-154.85 570.25,-136.35 593.75,-136.35 593.75,-154.85"/>
<text text-anchor="middle" x="582" y="-142.3" font-family="Times New Roman,serif" font-size="9.00">&#45;6</text>
</g>
<!-- &#45;7 -->
<g id="node7" class="node">
<title>&#45;7</title>
<polygon fill="lightgray" stroke="black" points="333.75,-154.85 310.25,-154.85 310.25,-136.35 333.75,-136.35 333.75,-154.85"/>
<text text-anchor="middle" x="322" y="-142.3" font-family="Times New Roman,serif" font-size="9.00">&#45;7</text>
</g>
<!-- &#45;7&#45;&gt;15 -->
<g id="edge5" class="edge">
<title>&#45;7&#45;&gt;15</title>
<path fill="none" stroke="green" stroke-width="0.26" d="M315.98,-135.87C310.6,-128.05 302.46,-116.26 295.29,-105.85"/>
<polygon fill="green" stroke="green" stroke-width="0.26" points="298.36,-104.14 289.8,-97.89 292.6,-108.11 298.36,-104.14"/>
</g>
<!-- &#45;8 -->
<g id="node8" class="node">
<title>&#45;8</title>
<polygon fill="lightgray" stroke="black" points="635.75,-154.85 612.25,-154.85 612.25,-136.35 635.75,-136.35 635.75,-154.85"/>
<text text-anchor="middle" x="624" y="-142.3" font-family="Times New Roman,serif" font-size="9.00">&#45;8</text>
</g>
<!-- &#45;9 -->
<g id="node9" class="node">
<title>&#45;9</title>
<polygon fill="lightgray" stroke="black" points="375.75,-154.85 352.25,-154.85 352.25,-136.35 375.75,-136.35 375.75,-154.85"/>
<text text-anchor="middle" x="364" y="-142.3" font-family="Times New Roman,serif" font-size="9.00">&#45;9</text>
</g>
<!-- &#45;9&#45;&gt;15 -->
<g id="edge6" class="edge">
<title>&#45;9&#45;&gt;15</title>
<path fill="none" stroke="red" stroke-width="0.15" d="M351.96,-135.87C339.03,-126.48 318.17,-111.36 302.24,-99.8"/>
<polygon fill="red" stroke="red" stroke-width="0.15" points="304.31,-96.98 294.16,-93.94 300.2,-102.64 304.31,-96.98"/>
</g>
<!-- &#45;10 -->
<g id="node10" class="node">
<title>&#45;10</title>
<polygon fill="lightgray" stroke="black" points="682,-154.85 654,-154.85 654,-136.35 682,-136.35 682,-154.85"/>
<text text-anchor="middle" x="668" y="-142.3" font-family="Times New Roman,serif" font-size="9.00">&#45;10</text>
</g>
<!-- &#45;11 -->
<g id="node11" class="node">
<title>&#45;11</title>
<polygon fill="lightgray" stroke="black" points="422,-154.85 394,-154.85 394,-136.35 422,-136.35 422,-154.85"/>
<text text-anchor="middle" x="408" y="-142.3" font-family="Times New Roman,serif" font-size="9.00">&#45;11</text>
</g>
<!-- &#45;11&#45;&gt;1 -->
<g id="edge16" class="edge">
<title>&#45;11&#45;&gt;1</title>
<path fill="none" stroke="red" stroke-width="0.65" d="M414.59,-135.87C420.96,-127.44 430.82,-114.37 439.09,-103.42"/>
<polygon fill="red" stroke="red" stroke-width="0.65" points="441.72,-105.74 444.95,-95.65 436.13,-101.53 441.72,-105.74"/>
</g>
<!-- &#45;11&#45;&gt;15 -->
<g id="edge7" class="edge">
<title>&#45;11&#45;&gt;15</title>
<path fill="none" stroke="green" stroke-width="0.69" stroke-dasharray="1,5" d="M393.81,-137.84C372.55,-127.72 332.1,-108.47 305.59,-95.85"/>
<polygon fill="green" stroke="green" stroke-width="0.69" points="307.33,-92.8 296.79,-91.66 304.32,-99.12 307.33,-92.8"/>
</g>
<!-- &#45;12 -->
<g id="node12" class="node">
<title>&#45;12</title>
<polygon fill="lightgray" stroke="black" points="28,-154.85 0,-154.85 0,-136.35 28,-136.35 28,-154.85"/>
<text text-anchor="middle" x="14" y="-142.3" font-family="Times New Roman,serif" font-size="9.00">&#45;12</text>
</g>
<!-- &#45;12&#45;&gt;15 -->
<g id="edge8" class="edge">
<title>&#45;12&#45;&gt;15</title>
<path fill="none" stroke="red" stroke-width="0.35" d="M28.01,-139.24C30.96,-138.21 34.06,-137.19 37,-136.35 113.87,-114.33 206.72,-96.6 252.18,-88.47"/>
<polygon fill="red" stroke="red" stroke-width="0.35" points="252.67,-91.94 261.91,-86.75 251.45,-85.05 252.67,-91.94"/>
</g>
<!-- &#45;13 -->
<g id="node13" class="node">
<title>&#45;13</title>
<polygon fill="lightgray" stroke="black" points="74,-154.85 46,-154.85 46,-136.35 74,-136.35 74,-154.85"/>
<text text-anchor="middle" x="60" y="-142.3" font-family="Times New Roman,serif" font-size="9.00">&#45;13</text>
</g>
<!-- &#45;13&#45;&gt;15 -->
<g id="edge9" class="edge">
<title>&#45;13&#45;&gt;15</title>
<path fill="none" stroke="green" stroke-width="0.29" stroke-dasharray="1,5" d="M74.05,-139.35C76.99,-138.31 80.08,-137.26 83,-136.35 143.08,-117.58 214.72,-99.47 252.89,-90.16"/>
<polygon fill="green" stroke="green" stroke-width="0.29" points="253.42,-93.63 262.31,-87.88 251.77,-86.83 253.42,-93.63"/>
</g>
<!-- &#45;14 -->
<g id="node14" class="node">
<title>&#45;14</title>
<polygon fill="lightgray" stroke="black" points="468,-154.85 440,-154.85 440,-136.35 468,-136.35 468,-154.85"/>
<text text-anchor="middle" x="454" y="-142.3" font-family="Times New Roman,serif" font-size="9.00">&#45;14</text>
</g>
<!-- &#45;14&#45;&gt;1 -->
<g id="edge18" class="edge">
<title>&#45;14&#45;&gt;1</title>
<path fill="none" stroke="red" stroke-width="0.65" d="M454,-135.87C454,-128.68 454,-118.12 454,-108.37"/>
<polygon fill="red" stroke="red" stroke-width="0.65" points="457.5,-108.55 454,-98.55 450.5,-108.55 457.5,-108.55"/>
</g>
<!-- &#45;14&#45;&gt;15 -->
<g id="edge10" class="edge">
<title>&#45;14&#45;&gt;15</title>
<path fill="none" stroke="green" stroke-width="0.5" d="M439.9,-139.52C436.96,-138.46 433.88,-137.37 431,-136.35 387.45,-120.94 336.72,-103.31 306.55,-92.85"/>
<polygon fill="green" stroke="green" stroke-width="0.5" points="308.09,-89.68 297.49,-89.72 305.8,-96.3 308.09,-89.68"/>
</g>
<!-- &#45;15 -->
<g id="node15" class="node">
<title>&#45;15</title>
<polygon fill="lightgray" stroke="black" points="728,-154.85 700,-154.85 700,-136.35 728,-136.35 728,-154.85"/>
<text text-anchor="middle" x="714" y="-142.3" font-family="Times New Roman,serif" font-size="9.00">&#45;15</text>
</g>
<!-- &#45;16 -->
<g id="node16" class="node">
<title>&#45;16</title>
<polygon fill="lightgray" stroke="black" points="120,-154.85 92,-154.85 92,-136.35 120,-136.35 120,-154.85"/>
<text text-anchor="middle" x="106" y="-142.3" font-family="Times New Roman,serif" font-size="9.00">&#45;16</text>
</g>
<!-- &#45;16&#45;&gt;15 -->
<g id="edge11" class="edge">
<title>&#45;16&#45;&gt;15</title>
<path fill="none" stroke="red" stroke-width="0.23" d="M120.1,-139.52C123.04,-138.46 126.12,-137.37 129,-136.35 172.55,-120.94 223.28,-103.31 253.45,-92.85"/>
<polygon fill="red" stroke="red" stroke-width="0.23" points="254.59,-96.16 262.9,-89.58 252.3,-89.55 254.59,-96.16"/>
</g>
<!-- &#45;17 -->
<g id="node17" class="node">
<title>&#45;17</title>
<polygon fill="lightgray" stroke="black" points="166,-154.85 138,-154.85 138,-136.35 166,-136.35 166,-154.85"/>
<text text-anchor="middle" x="152" y="-142.3" font-family="Times New Roman,serif" font-size="9.00">&#45;17</text>
</g>
<!-- &#45;17&#45;&gt;15 -->
<g id="edge12" class="edge">
<title>&#45;17&#45;&gt;15</title>
<path fill="none" stroke="green" stroke-width="0.27" stroke-dasharray="1,5" d="M166.19,-137.84C187.54,-127.68 228.26,-108.3 254.76,-95.68"/>
<polygon fill="green" stroke="green" stroke-width="0.27" points="256.26,-98.84 263.79,-91.39 253.25,-92.52 256.26,-98.84"/>
</g>
<!-- 0&#45;&gt;0 -->
<g id="edge14" class="edge">
<title>0&#45;&gt;0</title>
<path fill="none" stroke="red" stroke-width="0.23" d="M398.65,-24.65C409.06,-30.26 420.5,-26.88 420.5,-14.5 420.5,-5.98 415.09,-1.72 408.33,-1.71"/>
<polygon fill="red" stroke="red" stroke-width="0.23" points="407.73,1.75 398.99,-4.24 409.56,-5.01 407.73,1.75"/>
</g>
<!-- 15&#45;&gt;0 -->
<g id="edge13" class="edge">
<title>15&#45;&gt;0</title>
<path fill="none" stroke="red" stroke-width="0.27" stroke-dasharray="1,5" d="M295.02,-72.47C313.71,-61.01 345.76,-41.37 366.92,-28.41"/>
<polygon fill="red" stroke="red" stroke-width="0.27" points="368.74,-31.4 375.44,-23.19 365.08,-25.43 368.74,-31.4"/>
</g>
<!-- 15&#45;&gt;15 -->
<g id="edge15" class="edge">
<title>15&#45;&gt;15</title>
<path fill="none" stroke="red" stroke-width="0.23" d="M294.66,-93.2C305.19,-96.63 315.68,-93.12 315.68,-82.67 315.68,-75.65 310.94,-71.76 304.64,-71.01"/>
<polygon fill="red" stroke="red" stroke-width="0.23" points="304.55,-67.49 295.01,-72.1 305.34,-74.45 304.55,-67.49"/>
</g>
</g>
</svg>
