<?xml version="1.0" encoding="UTF-8" standalone="no"?>
<!DOCTYPE svg PUBLIC "-//W3C//DTD SVG 1.1//EN"
 "http://www.w3.org/Graphics/SVG/1.1/DTD/svg11.dtd">
<!-- Generated by graphviz version 12.2.1 (20241206.2353)
 -->
<!-- Pages: 1 -->
<svg width="736pt" height="163pt"
 viewBox="0.00 0.00 735.75 162.85" xmlns="http://www.w3.org/2000/svg" xmlns:xlink="http://www.w3.org/1999/xlink">
<g id="graph0" class="graph" transform="scale(1 1) rotate(0) translate(4 158.85)">
<polygon fill="white" stroke="none" points="-4,4 -4,-158.85 731.75,-158.85 731.75,4 -4,4"/>
<!-- &#45;1 -->
<g id="node1" class="node">
<title>&#45;1</title>
<polygon fill="lightgray" stroke="black" points="23.5,-154.85 0,-154.85 0,-136.35 23.5,-136.35 23.5,-154.85"/>
<text text-anchor="middle" x="11.75" y="-142.3" font-family="Times New Roman,serif" font-size="9.00">&#45;1</text>
</g>
<!-- 38 -->
<g id="node20" class="node">
<title>38</title>
<ellipse fill="white" stroke="black" cx="347.75" cy="-82.67" rx="17.68" ry="17.68"/>
<text text-anchor="middle" x="347.75" y="-79.37" font-family="Times New Roman,serif" font-size="9.00">38</text>
</g>
<!-- &#45;1&#45;&gt;38 -->
<g id="edge1" class="edge">
<title>&#45;1&#45;&gt;38</title>
<path fill="none" stroke="green" stroke-width="0.23" d="M23.6,-139.45C26.55,-138.3 29.73,-137.18 32.75,-136.35 136.7,-107.58 264.56,-92.11 319.97,-86.35"/>
<polygon fill="green" stroke="green" stroke-width="0.23" points="320.11,-89.85 329.71,-85.36 319.4,-82.88 320.11,-89.85"/>
</g>
<!-- &#45;2 -->
<g id="node2" class="node">
<title>&#45;2</title>
<polygon fill="lightgray" stroke="black" points="65.5,-154.85 42,-154.85 42,-136.35 65.5,-136.35 65.5,-154.85"/>
<text text-anchor="middle" x="53.75" y="-142.3" font-family="Times New Roman,serif" font-size="9.00">&#45;2</text>
</g>
<!-- &#45;2&#45;&gt;38 -->
<g id="edge2" class="edge">
<title>&#45;2&#45;&gt;38</title>
<path fill="none" stroke="red" stroke-width="0.23" d="M65.61,-139.5C68.56,-138.35 71.74,-137.22 74.75,-136.35 162.64,-110.84 270.08,-94.22 319.91,-87.32"/>
<polygon fill="red" stroke="red" stroke-width="0.23" points="320.13,-90.82 329.56,-86 319.18,-83.88 320.13,-90.82"/>
</g>
<!-- &#45;3 -->
<g id="node3" class="node">
<title>&#45;3</title>
<polygon fill="lightgray" stroke="black" points="107.5,-154.85 84,-154.85 84,-136.35 107.5,-136.35 107.5,-154.85"/>
<text text-anchor="middle" x="95.75" y="-142.3" font-family="Times New Roman,serif" font-size="9.00">&#45;3</text>
</g>
<!-- &#45;3&#45;&gt;38 -->
<g id="edge3" class="edge">
<title>&#45;3&#45;&gt;38</title>
<path fill="none" stroke="red" stroke-width="0.18" d="M107.63,-139.57C110.58,-138.42 113.76,-137.27 116.75,-136.35 189.01,-114.05 276.62,-96.61 320.26,-88.55"/>
<polygon fill="red" stroke="red" stroke-width="0.18" points="320.65,-92.04 329.86,-86.8 319.4,-85.15 320.65,-92.04"/>
</g>
<!-- &#45;4 -->
<g id="node4" class="node">
<title>&#45;4</title>
<polygon fill="lightgray" stroke="black" points="149.5,-154.85 126,-154.85 126,-136.35 149.5,-136.35 149.5,-154.85"/>
<text text-anchor="middle" x="137.75" y="-142.3" font-family="Times New Roman,serif" font-size="9.00">&#45;4</text>
</g>
<!-- &#45;4&#45;&gt;38 -->
<g id="edge4" class="edge">
<title>&#45;4&#45;&gt;38</title>
<path fill="none" stroke="red" stroke-width="0.27" d="M149.67,-139.67C152.61,-138.52 155.78,-137.34 158.75,-136.35 215.49,-117.35 283.35,-99.62 320.36,-90.36"/>
<polygon fill="red" stroke="red" stroke-width="0.27" points="321.12,-93.78 329.98,-87.97 319.43,-86.99 321.12,-93.78"/>
</g>
<!-- &#45;5 -->
<g id="node5" class="node">
<title>&#45;5</title>
<polygon fill="lightgray" stroke="black" points="191.5,-154.85 168,-154.85 168,-136.35 191.5,-136.35 191.5,-154.85"/>
<text text-anchor="middle" x="179.75" y="-142.3" font-family="Times New Roman,serif" font-size="9.00">&#45;5</text>
</g>
<!-- &#45;5&#45;&gt;38 -->
<g id="edge5" class="edge">
<title>&#45;5&#45;&gt;38</title>
<path fill="none" stroke="red" stroke-width="0.11" d="M191.72,-139.82C194.67,-138.67 197.82,-137.45 200.75,-136.35 242.75,-120.58 291.88,-103.18 321.37,-92.85"/>
<polygon fill="red" stroke="red" stroke-width="0.11" points="322.5,-96.17 330.78,-89.56 320.19,-89.56 322.5,-96.17"/>
</g>
<!-- &#45;6 -->
<g id="node6" class="node">
<title>&#45;6</title>
<polygon fill="lightgray" stroke="black" points="233.5,-154.85 210,-154.85 210,-136.35 233.5,-136.35 233.5,-154.85"/>
<text text-anchor="middle" x="221.75" y="-142.3" font-family="Times New Roman,serif" font-size="9.00">&#45;6</text>
</g>
<!-- &#45;6&#45;&gt;38 -->
<g id="edge6" class="edge">
<title>&#45;6&#45;&gt;38</title>
<path fill="none" stroke="red" stroke-width="0.12" d="M233.83,-138.75C254.33,-128.84 296.3,-108.55 323.18,-95.55"/>
<polygon fill="red" stroke="red" stroke-width="0.12" points="324.36,-98.87 331.84,-91.36 321.31,-92.57 324.36,-98.87"/>
</g>
<!-- &#45;7 -->
<g id="node7" class="node">
<title>&#45;7</title>
<polygon fill="lightgray" stroke="black" points="275.5,-154.85 252,-154.85 252,-136.35 275.5,-136.35 275.5,-154.85"/>
<text text-anchor="middle" x="263.75" y="-142.3" font-family="Times New Roman,serif" font-size="9.00">&#45;7</text>
</g>
<!-- &#45;7&#45;&gt;38 -->
<g id="edge7" class="edge">
<title>&#45;7&#45;&gt;38</title>
<path fill="none" stroke="green" stroke-width="0.3" d="M275.79,-135.87C288.72,-126.48 309.58,-111.36 325.51,-99.8"/>
<polygon fill="green" stroke="green" stroke-width="0.3" points="327.37,-102.77 333.41,-94.07 323.26,-97.11 327.37,-102.77"/>
</g>
<!-- &#45;8 -->
<g id="node8" class="node">
<title>&#45;8</title>
<polygon fill="lightgray" stroke="black" points="317.5,-154.85 294,-154.85 294,-136.35 317.5,-136.35 317.5,-154.85"/>
<text text-anchor="middle" x="305.75" y="-142.3" font-family="Times New Roman,serif" font-size="9.00">&#45;8</text>
</g>
<!-- &#45;8&#45;&gt;38 -->
<g id="edge8" class="edge">
<title>&#45;8&#45;&gt;38</title>
<path fill="none" stroke="red" stroke-width="0.28" d="M311.77,-135.87C317.15,-128.05 325.29,-116.26 332.46,-105.85"/>
<polygon fill="red" stroke="red" stroke-width="0.28" points="335.14,-108.13 337.93,-97.91 329.38,-104.16 335.14,-108.13"/>
</g>
<!-- &#45;9 -->
<g id="node9" class="node">
<title>&#45;9</title>
<polygon fill="lightgray" stroke="black" points="359.5,-154.85 336,-154.85 336,-136.35 359.5,-136.35 359.5,-154.85"/>
<text text-anchor="middle" x="347.75" y="-142.3" font-family="Times New Roman,serif" font-size="9.00">&#45;9</text>
</g>
<!-- &#45;9&#45;&gt;38 -->
<g id="edge9" class="edge">
<title>&#45;9&#45;&gt;38</title>
<path fill="none" stroke="red" stroke-width="0.29" d="M347.75,-135.87C347.75,-129.25 347.75,-119.76 347.75,-110.7"/>
<polygon fill="red" stroke="red" stroke-width="0.29" points="351.25,-110.87 347.75,-100.87 344.25,-110.87 351.25,-110.87"/>
</g>
<!-- &#45;10 -->
<g id="node10" class="node">
<title>&#45;10</title>
<polygon fill="lightgray" stroke="black" points="405.75,-154.85 377.75,-154.85 377.75,-136.35 405.75,-136.35 405.75,-154.85"/>
<text text-anchor="middle" x="391.75" y="-142.3" font-family="Times New Roman,serif" font-size="9.00">&#45;10</text>
</g>
<!-- &#45;10&#45;&gt;38 -->
<g id="edge10" class="edge">
<title>&#45;10&#45;&gt;38</title>
<path fill="none" stroke="red" stroke-width="0.34" d="M385.45,-135.87C379.8,-128.05 371.28,-116.26 363.77,-105.85"/>
<polygon fill="red" stroke="red" stroke-width="0.34" points="366.78,-104.04 358.09,-97.98 361.1,-108.14 366.78,-104.04"/>
</g>
<!-- &#45;11 -->
<g id="node11" class="node">
<title>&#45;11</title>
<polygon fill="lightgray" stroke="black" points="451.75,-154.85 423.75,-154.85 423.75,-136.35 451.75,-136.35 451.75,-154.85"/>
<text text-anchor="middle" x="437.75" y="-142.3" font-family="Times New Roman,serif" font-size="9.00">&#45;11</text>
</g>
<!-- &#45;11&#45;&gt;38 -->
<g id="edge11" class="edge">
<title>&#45;11&#45;&gt;38</title>
<path fill="none" stroke="green" stroke-width="0.17" d="M424.86,-135.87C410.7,-126.28 387.7,-110.71 370.5,-99.07"/>
<polygon fill="green" stroke="green" stroke-width="0.17" points="372.57,-96.24 362.32,-93.54 368.64,-102.04 372.57,-96.24"/>
</g>
<!-- &#45;12 -->
<g id="node12" class="node">
<title>&#45;12</title>
<polygon fill="lightgray" stroke="black" points="497.75,-154.85 469.75,-154.85 469.75,-136.35 497.75,-136.35 497.75,-154.85"/>
<text text-anchor="middle" x="483.75" y="-142.3" font-family="Times New Roman,serif" font-size="9.00">&#45;12</text>
</g>
<!-- &#45;12&#45;&gt;38 -->
<g id="edge12" class="edge">
<title>&#45;12&#45;&gt;38</title>
<path fill="none" stroke="green" stroke-width="0.29" d="M469.45,-138.19C446.51,-127.92 401.19,-107.61 372.8,-94.89"/>
<polygon fill="green" stroke="green" stroke-width="0.29" points="374.48,-91.81 363.92,-90.91 371.62,-98.2 374.48,-91.81"/>
</g>
<!-- &#45;13 -->
<g id="node13" class="node">
<title>&#45;13</title>
<polygon fill="lightgray" stroke="black" points="543.75,-154.85 515.75,-154.85 515.75,-136.35 543.75,-136.35 543.75,-154.85"/>
<text text-anchor="middle" x="529.75" y="-142.3" font-family="Times New Roman,serif" font-size="9.00">&#45;13</text>
</g>
<!-- &#45;13&#45;&gt;38 -->
<g id="edge13" class="edge">
<title>&#45;13&#45;&gt;38</title>
<path fill="none" stroke="green" stroke-width="0.41" d="M515.66,-139.48C512.72,-138.43 509.64,-137.34 506.75,-136.35 460.32,-120.33 405.94,-102.52 374.31,-92.25"/>
<polygon fill="green" stroke="green" stroke-width="0.41" points="375.69,-89.02 365.09,-89.26 373.53,-95.67 375.69,-89.02"/>
</g>
<!-- &#45;14 -->
<g id="node14" class="node">
<title>&#45;14</title>
<polygon fill="lightgray" stroke="black" points="589.75,-154.85 561.75,-154.85 561.75,-136.35 589.75,-136.35 589.75,-154.85"/>
<text text-anchor="middle" x="575.75" y="-142.3" font-family="Times New Roman,serif" font-size="9.00">&#45;14</text>
</g>
<!-- &#45;14&#45;&gt;38 -->
<g id="edge14" class="edge">
<title>&#45;14&#45;&gt;38</title>
<path fill="none" stroke="red" stroke-width="0.4" d="M561.71,-139.33C558.77,-138.29 555.67,-137.24 552.75,-136.35 489.98,-117.07 414.95,-99.04 375.37,-89.9"/>
<polygon fill="red" stroke="red" stroke-width="0.4" points="376.31,-86.53 365.78,-87.71 374.74,-93.35 376.31,-86.53"/>
</g>
<!-- &#45;15 -->
<g id="node15" class="node">
<title>&#45;15</title>
<polygon fill="lightgray" stroke="black" points="635.75,-154.85 607.75,-154.85 607.75,-136.35 635.75,-136.35 635.75,-154.85"/>
<text text-anchor="middle" x="621.75" y="-142.3" font-family="Times New Roman,serif" font-size="9.00">&#45;15</text>
</g>
<!-- &#45;15&#45;&gt;38 -->
<g id="edge15" class="edge">
<title>&#45;15&#45;&gt;38</title>
<path fill="none" stroke="green" stroke-width="0.24" d="M607.74,-139.23C604.79,-138.19 601.69,-137.18 598.75,-136.35 518.82,-113.74 422.1,-96.11 375.5,-88.21"/>
<polygon fill="green" stroke="green" stroke-width="0.24" points="376.09,-84.76 365.65,-86.55 374.93,-91.66 376.09,-84.76"/>
</g>
<!-- &#45;16 -->
<g id="node16" class="node">
<title>&#45;16</title>
<polygon fill="lightgray" stroke="black" points="681.75,-154.85 653.75,-154.85 653.75,-136.35 681.75,-136.35 681.75,-154.85"/>
<text text-anchor="middle" x="667.75" y="-142.3" font-family="Times New Roman,serif" font-size="9.00">&#45;16</text>
</g>
<!-- &#45;16&#45;&gt;38 -->
<g id="edge16" class="edge">
<title>&#45;16&#45;&gt;38</title>
<path fill="none" stroke="green" stroke-width="0.23" d="M653.27,-138.98C650.47,-138.02 647.54,-137.09 644.75,-136.35 547.22,-110.4 428.21,-93.67 375.34,-86.98"/>
<polygon fill="green" stroke="green" stroke-width="0.23" points="376.09,-83.54 365.73,-85.78 375.22,-90.49 376.09,-83.54"/>
</g>
<!-- &#45;17 -->
<g id="node17" class="node">
<title>&#45;17</title>
<polygon fill="lightgray" stroke="black" points="727.75,-154.85 699.75,-154.85 699.75,-136.35 727.75,-136.35 727.75,-154.85"/>
<text text-anchor="middle" x="713.75" y="-142.3" font-family="Times New Roman,serif" font-size="9.00">&#45;17</text>
</g>
<!-- &#45;17&#45;&gt;38 -->
<g id="edge17" class="edge">
<title>&#45;17&#45;&gt;38</title>
<path fill="none" stroke="green" stroke-width="0.22" d="M699.28,-138.93C696.48,-137.97 693.55,-137.06 690.75,-136.35 575.58,-107.13 434.28,-91.67 375.48,-86.1"/>
<polygon fill="green" stroke="green" stroke-width="0.22" points="376.09,-82.65 365.81,-85.21 375.44,-89.62 376.09,-82.65"/>
</g>
<!-- 0 -->
<g id="node18" class="node">
<title>0</title>
<ellipse fill="lightblue" stroke="black" cx="315.75" cy="-14.5" rx="14.5" ry="14.5"/>
<text text-anchor="middle" x="315.75" y="-11.2" font-family="Times New Roman,serif" font-size="9.00">0</text>
</g>
<!-- 0&#45;&gt;0 -->
<g id="edge20" class="edge">
<title>0&#45;&gt;0</title>
<path fill="none" stroke="green" stroke-width="0.43" d="M326.4,-24.65C336.81,-30.26 348.25,-26.88 348.25,-14.5 348.25,-6.18 343.08,-1.92 336.54,-1.72"/>
<polygon fill="green" stroke="green" stroke-width="0.43" points="335.84,1.71 327.03,-4.18 337.59,-5.06 335.84,1.71"/>
</g>
<!-- 1 -->
<g id="node19" class="node">
<title>1</title>
<ellipse fill="lightblue" stroke="black" cx="380.75" cy="-14.5" rx="14.5" ry="14.5"/>
<text text-anchor="middle" x="380.75" y="-11.2" font-family="Times New Roman,serif" font-size="9.00">1</text>
</g>
<!-- 1&#45;&gt;1 -->
<g id="edge21" class="edge">
<title>1&#45;&gt;1</title>
<path fill="none" stroke="green" stroke-width="0.26" d="M391.4,-24.65C401.81,-30.26 413.25,-26.88 413.25,-14.5 413.25,-5.98 407.84,-1.72 401.08,-1.71"/>
<polygon fill="green" stroke="green" stroke-width="0.26" points="400.51,1.76 391.78,-4.24 402.34,-5 400.51,1.76"/>
</g>
<!-- 38&#45;&gt;0 -->
<g id="edge18" class="edge">
<title>38&#45;&gt;0</title>
<path fill="none" stroke="red" stroke-width="0.14" d="M340.33,-66.32C336.12,-57.62 330.78,-46.59 326.16,-37.03"/>
<polygon fill="red" stroke="red" stroke-width="0.14" points="329.44,-35.77 321.94,-28.29 323.14,-38.82 329.44,-35.77"/>
</g>
<!-- 38&#45;&gt;1 -->
<g id="edge19" class="edge">
<title>38&#45;&gt;1</title>
<path fill="none" stroke="red" stroke-width="0.32" d="M355.4,-66.32C359.7,-57.71 365.13,-46.81 369.86,-37.33"/>
<polygon fill="red" stroke="red" stroke-width="0.32" points="372.92,-39.04 374.25,-28.53 366.66,-35.91 372.92,-39.04"/>
</g>
<!-- 38&#45;&gt;38 -->
<g id="edge22" class="edge">
<title>38&#45;&gt;38</title>
<path fill="none" stroke="green" stroke-width="0.16" d="M362.41,-93.2C372.94,-96.63 383.43,-93.12 383.43,-82.67 383.43,-75.65 378.69,-71.76 372.39,-71.01"/>
<polygon fill="green" stroke="green" stroke-width="0.16" points="372.19,-67.51 362.65,-72.11 372.98,-74.46 372.19,-67.51"/>
</g>
</g>
</svg>
