<?xml version="1.0" encoding="utf-8" standalone="no"?>
<!DOCTYPE svg PUBLIC "-//W3C//DTD SVG 1.1//EN"
  "http://www.w3.org/Graphics/SVG/1.1/DTD/svg11.dtd">
<svg xmlns:xlink="http://www.w3.org/1999/xlink" width="460.8pt" height="345.6pt" viewBox="0 0 460.8 345.6" xmlns="http://www.w3.org/2000/svg" version="1.1">
 <metadata>
  <rdf:RDF xmlns:dc="http://purl.org/dc/elements/1.1/" xmlns:cc="http://creativecommons.org/ns#" xmlns:rdf="http://www.w3.org/1999/02/22-rdf-syntax-ns#">
   <cc:Work>
    <dc:type rdf:resource="http://purl.org/dc/dcmitype/StillImage"/>
    <dc:date>2025-03-06T13:40:17.611910</dc:date>
    <dc:format>image/svg+xml</dc:format>
    <dc:creator>
     <cc:Agent>
      <dc:title>Matplotlib v3.10.0, https://matplotlib.org/</dc:title>
     </cc:Agent>
    </dc:creator>
   </cc:Work>
  </rdf:RDF>
 </metadata>
 <defs>
  <style type="text/css">*{stroke-linejoin: round; stroke-linecap: butt}</style>
 </defs>
 <g id="figure_1">
  <g id="patch_1">
   <path d="M 0 345.6 
L 460.8 345.6 
L 460.8 0 
L 0 0 
z
" style="fill: #ffffff"/>
  </g>
  <g id="axes_1">
   <g id="patch_2">
    <path d="M 57.6 307.584 
L 414.72 307.584 
L 414.72 41.472 
L 57.6 41.472 
z
" style="fill: #ffffff"/>
   </g>
   <g id="FillBetweenPolyCollection_1">
    <path d="M 73.832727 55.822411 
L 73.832727 307.584 
L 77.112066 307.584 
L 80.391405 307.584 
L 83.670744 307.584 
L 86.950083 307.584 
L 90.229421 307.584 
L 93.50876 307.584 
L 96.788099 307.584 
L 100.067438 307.584 
L 103.346777 307.584 
L 106.626116 307.584 
L 109.905455 307.584 
L 113.184793 307.584 
L 116.464132 307.584 
L 119.743471 307.584 
L 123.02281 307.584 
L 126.302149 307.584 
L 129.581488 307.584 
L 132.860826 307.584 
L 136.140165 307.584 
L 139.419504 307.584 
L 142.698843 307.584 
L 145.978182 307.584 
L 149.257521 307.584 
L 152.53686 307.584 
L 155.816198 307.584 
L 159.095537 307.584 
L 162.374876 307.584 
L 165.654215 307.584 
L 168.933554 307.584 
L 172.212893 307.584 
L 175.492231 307.584 
L 178.77157 307.584 
L 182.050909 307.584 
L 185.330248 307.584 
L 188.609587 307.584 
L 191.888926 307.584 
L 195.168264 307.584 
L 198.447603 307.584 
L 201.726942 307.584 
L 205.006281 307.584 
L 208.28562 307.584 
L 211.564959 307.584 
L 214.844298 307.584 
L 218.123636 307.584 
L 221.402975 307.584 
L 224.682314 307.584 
L 227.961653 307.584 
L 231.240992 307.584 
L 234.520331 307.584 
L 237.799669 307.584 
L 241.079008 307.584 
L 244.358347 307.584 
L 247.637686 307.584 
L 250.917025 307.584 
L 254.196364 307.584 
L 257.475702 307.584 
L 260.755041 307.584 
L 264.03438 307.584 
L 267.313719 307.584 
L 270.593058 307.584 
L 273.872397 307.584 
L 277.151736 307.584 
L 280.431074 307.584 
L 283.710413 307.584 
L 286.989752 307.584 
L 290.269091 307.584 
L 293.54843 307.584 
L 296.827769 307.584 
L 300.107107 307.584 
L 303.386446 307.584 
L 306.665785 307.584 
L 309.945124 307.584 
L 313.224463 307.584 
L 316.503802 307.584 
L 319.78314 307.584 
L 323.062479 307.584 
L 326.341818 307.584 
L 329.621157 307.584 
L 332.900496 307.584 
L 336.179835 307.584 
L 339.459174 307.584 
L 342.738512 307.584 
L 346.017851 307.584 
L 349.29719 307.584 
L 352.576529 307.584 
L 355.855868 307.584 
L 359.135207 307.584 
L 362.414545 307.584 
L 365.693884 307.584 
L 368.973223 307.584 
L 372.252562 307.584 
L 375.531901 307.584 
L 378.81124 307.584 
L 382.090579 307.584 
L 385.369917 307.584 
L 388.649256 307.584 
L 391.928595 307.584 
L 395.207934 307.584 
L 398.487273 307.584 
L 398.487273 307.584 
L 398.487273 307.584 
L 395.207934 307.584 
L 391.928595 307.584 
L 388.649256 307.584 
L 385.369917 307.584 
L 382.090579 307.584 
L 378.81124 307.584 
L 375.531901 307.584 
L 372.252562 307.584 
L 368.973223 307.584 
L 365.693884 307.584 
L 362.414545 307.584 
L 359.135207 307.584 
L 355.855868 307.584 
L 352.576529 307.584 
L 349.29719 307.584 
L 346.017851 307.584 
L 342.738512 307.584 
L 339.459174 307.584 
L 336.179835 307.584 
L 332.900496 307.584 
L 329.621157 307.584 
L 326.341818 307.584 
L 323.062479 307.584 
L 319.78314 307.584 
L 316.503802 307.584 
L 313.224463 307.584 
L 309.945124 307.584 
L 306.665785 307.584 
L 303.386446 307.584 
L 300.107107 307.584 
L 296.827769 307.584 
L 293.54843 307.584 
L 290.269091 307.584 
L 286.989752 307.584 
L 283.710413 307.584 
L 280.431074 307.584 
L 277.151736 307.584 
L 273.872397 307.584 
L 270.593058 307.584 
L 267.313719 307.584 
L 264.03438 307.584 
L 260.755041 307.584 
L 257.475702 307.584 
L 254.196364 307.584 
L 250.917025 307.584 
L 247.637686 307.584 
L 244.358347 307.584 
L 241.079008 307.584 
L 237.799669 307.584 
L 234.520331 199.326517 
L 231.240992 149.813404 
L 227.961653 208.557775 
L 224.682314 195.969695 
L 221.402975 180.864 
L 218.123636 208.557775 
L 214.844298 235.412344 
L 211.564959 189.256053 
L 208.28562 186.738437 
L 205.006281 211.075391 
L 201.726942 241.286781 
L 198.447603 176.667974 
L 195.168264 190.095258 
L 191.888926 223.66347 
L 188.609587 240.447576 
L 185.330248 165.758305 
L 182.050909 100.300291 
L 178.77157 80.159364 
L 175.492231 115.405987 
L 172.212893 85.194596 
L 168.933554 55.822411 
L 165.654215 55.822411 
L 162.374876 55.822411 
L 159.095537 55.822411 
L 155.816198 55.822411 
L 152.53686 55.822411 
L 149.257521 55.822411 
L 145.978182 55.822411 
L 142.698843 55.822411 
L 139.419504 55.822411 
L 136.140165 55.822411 
L 132.860826 55.822411 
L 129.581488 55.822411 
L 126.302149 55.822411 
L 123.02281 55.822411 
L 119.743471 55.822411 
L 116.464132 55.822411 
L 113.184793 55.822411 
L 109.905455 55.822411 
L 106.626116 55.822411 
L 103.346777 55.822411 
L 100.067438 55.822411 
L 96.788099 55.822411 
L 93.50876 55.822411 
L 90.229421 55.822411 
L 86.950083 55.822411 
L 83.670744 55.822411 
L 80.391405 55.822411 
L 77.112066 55.822411 
L 73.832727 55.822411 
z
" clip-path="url(#p7d21318c98)" style="fill: #1f77b4"/>
   </g>
   <g id="FillBetweenPolyCollection_2">
    <path d="M 73.832727 55.822411 
L 73.832727 55.822411 
L 77.112066 55.822411 
L 80.391405 55.822411 
L 83.670744 55.822411 
L 86.950083 55.822411 
L 90.229421 55.822411 
L 93.50876 55.822411 
L 96.788099 55.822411 
L 100.067438 55.822411 
L 103.346777 55.822411 
L 106.626116 55.822411 
L 109.905455 55.822411 
L 113.184793 55.822411 
L 116.464132 55.822411 
L 119.743471 55.822411 
L 123.02281 55.822411 
L 126.302149 55.822411 
L 129.581488 55.822411 
L 132.860826 55.822411 
L 136.140165 55.822411 
L 139.419504 55.822411 
L 142.698843 55.822411 
L 145.978182 55.822411 
L 149.257521 55.822411 
L 152.53686 55.822411 
L 155.816198 55.822411 
L 159.095537 55.822411 
L 162.374876 55.822411 
L 165.654215 55.822411 
L 168.933554 55.822411 
L 172.212893 85.194596 
L 175.492231 115.405987 
L 178.77157 80.159364 
L 182.050909 100.300291 
L 185.330248 165.758305 
L 188.609587 240.447576 
L 191.888926 223.66347 
L 195.168264 190.095258 
L 198.447603 176.667974 
L 201.726942 241.286781 
L 205.006281 211.075391 
L 208.28562 186.738437 
L 211.564959 189.256053 
L 214.844298 235.412344 
L 218.123636 208.557775 
L 221.402975 180.864 
L 224.682314 195.969695 
L 227.961653 208.557775 
L 231.240992 149.813404 
L 234.520331 199.326517 
L 237.799669 307.584 
L 241.079008 307.584 
L 244.358347 307.584 
L 247.637686 307.584 
L 250.917025 307.584 
L 254.196364 307.584 
L 257.475702 307.584 
L 260.755041 307.584 
L 264.03438 307.584 
L 267.313719 307.584 
L 270.593058 307.584 
L 273.872397 307.584 
L 277.151736 307.584 
L 280.431074 307.584 
L 283.710413 307.584 
L 286.989752 307.584 
L 290.269091 307.584 
L 293.54843 307.584 
L 296.827769 307.584 
L 300.107107 307.584 
L 303.386446 307.584 
L 306.665785 307.584 
L 309.945124 307.584 
L 313.224463 307.584 
L 316.503802 307.584 
L 319.78314 307.584 
L 323.062479 307.584 
L 326.341818 307.584 
L 329.621157 307.584 
L 332.900496 307.584 
L 336.179835 307.584 
L 339.459174 307.584 
L 342.738512 307.584 
L 346.017851 307.584 
L 349.29719 307.584 
L 352.576529 307.584 
L 355.855868 307.584 
L 359.135207 307.584 
L 362.414545 307.584 
L 365.693884 307.584 
L 368.973223 307.584 
L 372.252562 307.584 
L 375.531901 307.584 
L 378.81124 307.584 
L 382.090579 307.584 
L 385.369917 307.584 
L 388.649256 307.584 
L 391.928595 307.584 
L 395.207934 307.584 
L 398.487273 307.584 
L 398.487273 307.584 
L 398.487273 307.584 
L 395.207934 307.584 
L 391.928595 307.584 
L 388.649256 307.584 
L 385.369917 307.584 
L 382.090579 307.584 
L 378.81124 307.584 
L 375.531901 307.584 
L 372.252562 307.584 
L 368.973223 307.584 
L 365.693884 307.584 
L 362.414545 307.584 
L 359.135207 307.584 
L 355.855868 307.584 
L 352.576529 307.584 
L 349.29719 307.584 
L 346.017851 307.584 
L 342.738512 307.584 
L 339.459174 307.584 
L 336.179835 307.584 
L 332.900496 307.584 
L 329.621157 307.584 
L 326.341818 307.584 
L 323.062479 307.584 
L 319.78314 307.584 
L 316.503802 307.584 
L 313.224463 307.584 
L 309.945124 307.584 
L 306.665785 307.584 
L 303.386446 307.584 
L 300.107107 307.584 
L 296.827769 307.584 
L 293.54843 307.584 
L 290.269091 307.584 
L 286.989752 307.584 
L 283.710413 307.584 
L 280.431074 307.584 
L 277.151736 307.584 
L 273.872397 307.584 
L 270.593058 307.584 
L 267.313719 307.584 
L 264.03438 307.584 
L 260.755041 307.584 
L 257.475702 307.584 
L 254.196364 307.584 
L 250.917025 241.286781 
L 247.637686 200.165722 
L 244.358347 211.075391 
L 241.079008 210.236185 
L 237.799669 226.181086 
L 234.520331 127.994066 
L 231.240992 75.963338 
L 227.961653 125.47645 
L 224.682314 154.848636 
L 221.402975 122.119629 
L 218.123636 122.958834 
L 214.844298 144.778172 
L 211.564959 135.546914 
L 208.28562 127.154861 
L 205.006281 122.119629 
L 201.726942 127.154861 
L 198.447603 122.958834 
L 195.168264 125.47645 
L 191.888926 113.727576 
L 188.609587 97.782675 
L 185.330248 57.500821 
L 182.050909 55.822411 
L 178.77157 55.822411 
L 175.492231 55.822411 
L 172.212893 55.822411 
L 168.933554 55.822411 
L 165.654215 55.822411 
L 162.374876 55.822411 
L 159.095537 55.822411 
L 155.816198 55.822411 
L 152.53686 55.822411 
L 149.257521 55.822411 
L 145.978182 55.822411 
L 142.698843 55.822411 
L 139.419504 55.822411 
L 136.140165 55.822411 
L 132.860826 55.822411 
L 129.581488 55.822411 
L 126.302149 55.822411 
L 123.02281 55.822411 
L 119.743471 55.822411 
L 116.464132 55.822411 
L 113.184793 55.822411 
L 109.905455 55.822411 
L 106.626116 55.822411 
L 103.346777 55.822411 
L 100.067438 55.822411 
L 96.788099 55.822411 
L 93.50876 55.822411 
L 90.229421 55.822411 
L 86.950083 55.822411 
L 83.670744 55.822411 
L 80.391405 55.822411 
L 77.112066 55.822411 
L 73.832727 55.822411 
z
" clip-path="url(#p7d21318c98)" style="fill: #ff7f0e"/>
   </g>
   <g id="FillBetweenPolyCollection_3">
    <path d="M 73.832727 55.822411 
L 73.832727 55.822411 
L 77.112066 55.822411 
L 80.391405 55.822411 
L 83.670744 55.822411 
L 86.950083 55.822411 
L 90.229421 55.822411 
L 93.50876 55.822411 
L 96.788099 55.822411 
L 100.067438 55.822411 
L 103.346777 55.822411 
L 106.626116 55.822411 
L 109.905455 55.822411 
L 113.184793 55.822411 
L 116.464132 55.822411 
L 119.743471 55.822411 
L 123.02281 55.822411 
L 126.302149 55.822411 
L 129.581488 55.822411 
L 132.860826 55.822411 
L 136.140165 55.822411 
L 139.419504 55.822411 
L 142.698843 55.822411 
L 145.978182 55.822411 
L 149.257521 55.822411 
L 152.53686 55.822411 
L 155.816198 55.822411 
L 159.095537 55.822411 
L 162.374876 55.822411 
L 165.654215 55.822411 
L 168.933554 55.822411 
L 172.212893 55.822411 
L 175.492231 55.822411 
L 178.77157 55.822411 
L 182.050909 55.822411 
L 185.330248 57.500821 
L 188.609587 97.782675 
L 191.888926 113.727576 
L 195.168264 125.47645 
L 198.447603 122.958834 
L 201.726942 127.154861 
L 205.006281 122.119629 
L 208.28562 127.154861 
L 211.564959 135.546914 
L 214.844298 144.778172 
L 218.123636 122.958834 
L 221.402975 122.119629 
L 224.682314 154.848636 
L 227.961653 125.47645 
L 231.240992 75.963338 
L 234.520331 127.994066 
L 237.799669 226.181086 
L 241.079008 210.236185 
L 244.358347 211.075391 
L 247.637686 200.165722 
L 250.917025 241.286781 
L 254.196364 307.584 
L 257.475702 307.584 
L 260.755041 307.584 
L 264.03438 307.584 
L 267.313719 307.584 
L 270.593058 307.584 
L 273.872397 307.584 
L 277.151736 307.584 
L 280.431074 307.584 
L 283.710413 307.584 
L 286.989752 307.584 
L 290.269091 307.584 
L 293.54843 307.584 
L 296.827769 307.584 
L 300.107107 307.584 
L 303.386446 307.584 
L 306.665785 307.584 
L 309.945124 307.584 
L 313.224463 307.584 
L 316.503802 307.584 
L 319.78314 307.584 
L 323.062479 307.584 
L 326.341818 307.584 
L 329.621157 307.584 
L 332.900496 307.584 
L 336.179835 307.584 
L 339.459174 307.584 
L 342.738512 307.584 
L 346.017851 307.584 
L 349.29719 307.584 
L 352.576529 307.584 
L 355.855868 307.584 
L 359.135207 307.584 
L 362.414545 307.584 
L 365.693884 307.584 
L 368.973223 307.584 
L 372.252562 307.584 
L 375.531901 307.584 
L 378.81124 307.584 
L 382.090579 307.584 
L 385.369917 307.584 
L 388.649256 307.584 
L 391.928595 307.584 
L 395.207934 307.584 
L 398.487273 307.584 
L 398.487273 307.584 
L 398.487273 307.584 
L 395.207934 307.584 
L 391.928595 307.584 
L 388.649256 307.584 
L 385.369917 307.584 
L 382.090579 307.584 
L 378.81124 307.584 
L 375.531901 307.584 
L 372.252562 307.584 
L 368.973223 307.584 
L 365.693884 307.584 
L 362.414545 307.584 
L 359.135207 307.584 
L 355.855868 307.584 
L 352.576529 307.584 
L 349.29719 307.584 
L 346.017851 307.584 
L 342.738512 307.584 
L 339.459174 307.584 
L 336.179835 307.584 
L 332.900496 307.584 
L 329.621157 307.584 
L 326.341818 307.584 
L 323.062479 307.584 
L 319.78314 307.584 
L 316.503802 307.584 
L 313.224463 307.584 
L 309.945124 307.584 
L 306.665785 307.584 
L 303.386446 307.584 
L 300.107107 307.584 
L 296.827769 307.584 
L 293.54843 307.584 
L 290.269091 307.584 
L 286.989752 307.584 
L 283.710413 307.584 
L 280.431074 307.584 
L 277.151736 307.584 
L 273.872397 307.584 
L 270.593058 237.090755 
L 267.313719 260.588503 
L 264.03438 255.553272 
L 260.755041 238.769166 
L 257.475702 245.482808 
L 254.196364 226.181086 
L 250.917025 191.773669 
L 247.637686 145.617377 
L 244.358347 127.154861 
L 241.079008 154.848636 
L 237.799669 148.974199 
L 234.520331 86.033801 
L 231.240992 55.822411 
L 227.961653 55.822411 
L 224.682314 56.661616 
L 221.402975 55.822411 
L 218.123636 55.822411 
L 214.844298 54.983205 
L 211.564959 55.822411 
L 208.28562 54.983205 
L 205.006281 54.983205 
L 201.726942 54.983205 
L 198.447603 54.983205 
L 195.168264 54.983205 
L 191.888926 55.822411 
L 188.609587 55.822411 
L 185.330248 55.822411 
L 182.050909 55.822411 
L 178.77157 55.822411 
L 175.492231 55.822411 
L 172.212893 55.822411 
L 168.933554 55.822411 
L 165.654215 55.822411 
L 162.374876 55.822411 
L 159.095537 55.822411 
L 155.816198 55.822411 
L 152.53686 55.822411 
L 149.257521 55.822411 
L 145.978182 55.822411 
L 142.698843 55.822411 
L 139.419504 55.822411 
L 136.140165 55.822411 
L 132.860826 55.822411 
L 129.581488 55.822411 
L 126.302149 55.822411 
L 123.02281 55.822411 
L 119.743471 55.822411 
L 116.464132 55.822411 
L 113.184793 55.822411 
L 109.905455 55.822411 
L 106.626116 55.822411 
L 103.346777 55.822411 
L 100.067438 55.822411 
L 96.788099 55.822411 
L 93.50876 55.822411 
L 90.229421 55.822411 
L 86.950083 55.822411 
L 83.670744 55.822411 
L 80.391405 55.822411 
L 77.112066 55.822411 
L 73.832727 55.822411 
z
" clip-path="url(#p7d21318c98)" style="fill: #2ca02c"/>
   </g>
   <g id="FillBetweenPolyCollection_4">
    <path d="M 73.832727 55.822411 
L 73.832727 55.822411 
L 77.112066 55.822411 
L 80.391405 55.822411 
L 83.670744 55.822411 
L 86.950083 55.822411 
L 90.229421 55.822411 
L 93.50876 55.822411 
L 96.788099 55.822411 
L 100.067438 55.822411 
L 103.346777 55.822411 
L 106.626116 55.822411 
L 109.905455 55.822411 
L 113.184793 55.822411 
L 116.464132 55.822411 
L 119.743471 55.822411 
L 123.02281 55.822411 
L 126.302149 55.822411 
L 129.581488 55.822411 
L 132.860826 55.822411 
L 136.140165 55.822411 
L 139.419504 55.822411 
L 142.698843 55.822411 
L 145.978182 55.822411 
L 149.257521 55.822411 
L 152.53686 55.822411 
L 155.816198 55.822411 
L 159.095537 55.822411 
L 162.374876 55.822411 
L 165.654215 55.822411 
L 168.933554 55.822411 
L 172.212893 55.822411 
L 175.492231 55.822411 
L 178.77157 55.822411 
L 182.050909 55.822411 
L 185.330248 55.822411 
L 188.609587 55.822411 
L 191.888926 55.822411 
L 195.168264 54.983205 
L 198.447603 54.983205 
L 201.726942 54.983205 
L 205.006281 54.983205 
L 208.28562 54.983205 
L 211.564959 55.822411 
L 214.844298 54.983205 
L 218.123636 55.822411 
L 221.402975 55.822411 
L 224.682314 56.661616 
L 227.961653 55.822411 
L 231.240992 55.822411 
L 234.520331 86.033801 
L 237.799669 148.974199 
L 241.079008 154.848636 
L 244.358347 127.154861 
L 247.637686 145.617377 
L 250.917025 191.773669 
L 254.196364 226.181086 
L 257.475702 245.482808 
L 260.755041 238.769166 
L 264.03438 255.553272 
L 267.313719 260.588503 
L 270.593058 237.090755 
L 273.872397 307.584 
L 277.151736 307.584 
L 280.431074 307.584 
L 283.710413 307.584 
L 286.989752 307.584 
L 290.269091 307.584 
L 293.54843 307.584 
L 296.827769 307.584 
L 300.107107 307.584 
L 303.386446 307.584 
L 306.665785 307.584 
L 309.945124 307.584 
L 313.224463 307.584 
L 316.503802 307.584 
L 319.78314 307.584 
L 323.062479 307.584 
L 326.341818 307.584 
L 329.621157 307.584 
L 332.900496 307.584 
L 336.179835 307.584 
L 339.459174 307.584 
L 342.738512 307.584 
L 346.017851 307.584 
L 349.29719 307.584 
L 352.576529 307.584 
L 355.855868 307.584 
L 359.135207 307.584 
L 362.414545 307.584 
L 365.693884 307.584 
L 368.973223 307.584 
L 372.252562 307.584 
L 375.531901 307.584 
L 378.81124 307.584 
L 382.090579 307.584 
L 385.369917 307.584 
L 388.649256 307.584 
L 391.928595 307.584 
L 395.207934 307.584 
L 398.487273 307.584 
L 398.487273 307.584 
L 398.487273 307.584 
L 395.207934 307.584 
L 391.928595 307.584 
L 388.649256 307.584 
L 385.369917 307.584 
L 382.090579 307.584 
L 378.81124 307.584 
L 375.531901 307.584 
L 372.252562 307.584 
L 368.973223 307.584 
L 365.693884 307.584 
L 362.414545 307.584 
L 359.135207 307.584 
L 355.855868 307.584 
L 352.576529 307.584 
L 349.29719 307.584 
L 346.017851 307.584 
L 342.738512 307.584 
L 339.459174 307.584 
L 336.179835 307.584 
L 332.900496 307.584 
L 329.621157 307.584 
L 326.341818 307.584 
L 323.062479 307.584 
L 319.78314 307.584 
L 316.503802 307.584 
L 313.224463 307.584 
L 309.945124 307.584 
L 306.665785 307.584 
L 303.386446 307.584 
L 300.107107 285.764662 
L 296.827769 279.890225 
L 293.54843 289.960689 
L 290.269091 270.658967 
L 286.989752 269.819762 
L 283.710413 264.78453 
L 280.431074 258.070887 
L 277.151736 258.910093 
L 273.872397 263.106119 
L 270.593058 190.934464 
L 267.313719 222.824265 
L 264.03438 214.432212 
L 260.755041 185.899232 
L 257.475702 161.562278 
L 254.196364 131.350887 
L 250.917025 98.621881 
L 247.637686 88.551417 
L 244.358347 76.802543 
L 241.079008 98.621881 
L 237.799669 92.747444 
L 234.520331 61.696848 
L 231.240992 55.822411 
L 227.961653 55.822411 
L 224.682314 56.661616 
L 221.402975 55.822411 
L 218.123636 55.822411 
L 214.844298 54.983205 
L 211.564959 55.822411 
L 208.28562 54.983205 
L 205.006281 54.983205 
L 201.726942 54.983205 
L 198.447603 54.983205 
L 195.168264 54.983205 
L 191.888926 55.822411 
L 188.609587 55.822411 
L 185.330248 55.822411 
L 182.050909 55.822411 
L 178.77157 55.822411 
L 175.492231 55.822411 
L 172.212893 55.822411 
L 168.933554 55.822411 
L 165.654215 55.822411 
L 162.374876 55.822411 
L 159.095537 55.822411 
L 155.816198 55.822411 
L 152.53686 55.822411 
L 149.257521 55.822411 
L 145.978182 55.822411 
L 142.698843 55.822411 
L 139.419504 55.822411 
L 136.140165 55.822411 
L 132.860826 55.822411 
L 129.581488 55.822411 
L 126.302149 55.822411 
L 123.02281 55.822411 
L 119.743471 55.822411 
L 116.464132 55.822411 
L 113.184793 55.822411 
L 109.905455 55.822411 
L 106.626116 55.822411 
L 103.346777 55.822411 
L 100.067438 55.822411 
L 96.788099 55.822411 
L 93.50876 55.822411 
L 90.229421 55.822411 
L 86.950083 55.822411 
L 83.670744 55.822411 
L 80.391405 55.822411 
L 77.112066 55.822411 
L 73.832727 55.822411 
z
" clip-path="url(#p7d21318c98)" style="fill: #d62728"/>
   </g>
   <g id="FillBetweenPolyCollection_5">
    <path d="M 73.832727 55.822411 
L 73.832727 55.822411 
L 77.112066 55.822411 
L 80.391405 55.822411 
L 83.670744 55.822411 
L 86.950083 55.822411 
L 90.229421 55.822411 
L 93.50876 55.822411 
L 96.788099 55.822411 
L 100.067438 55.822411 
L 103.346777 55.822411 
L 106.626116 55.822411 
L 109.905455 55.822411 
L 113.184793 55.822411 
L 116.464132 55.822411 
L 119.743471 55.822411 
L 123.02281 55.822411 
L 126.302149 55.822411 
L 129.581488 55.822411 
L 132.860826 55.822411 
L 136.140165 55.822411 
L 139.419504 55.822411 
L 142.698843 55.822411 
L 145.978182 55.822411 
L 149.257521 55.822411 
L 152.53686 55.822411 
L 155.816198 55.822411 
L 159.095537 55.822411 
L 162.374876 55.822411 
L 165.654215 55.822411 
L 168.933554 55.822411 
L 172.212893 55.822411 
L 175.492231 55.822411 
L 178.77157 55.822411 
L 182.050909 55.822411 
L 185.330248 55.822411 
L 188.609587 55.822411 
L 191.888926 55.822411 
L 195.168264 54.983205 
L 198.447603 54.983205 
L 201.726942 54.983205 
L 205.006281 54.983205 
L 208.28562 54.983205 
L 211.564959 55.822411 
L 214.844298 54.983205 
L 218.123636 55.822411 
L 221.402975 55.822411 
L 224.682314 56.661616 
L 227.961653 55.822411 
L 231.240992 55.822411 
L 234.520331 61.696848 
L 237.799669 92.747444 
L 241.079008 98.621881 
L 244.358347 76.802543 
L 247.637686 88.551417 
L 250.917025 98.621881 
L 254.196364 131.350887 
L 257.475702 161.562278 
L 260.755041 185.899232 
L 264.03438 214.432212 
L 267.313719 222.824265 
L 270.593058 190.934464 
L 273.872397 263.106119 
L 277.151736 258.910093 
L 280.431074 258.070887 
L 283.710413 264.78453 
L 286.989752 269.819762 
L 290.269091 270.658967 
L 293.54843 289.960689 
L 296.827769 279.890225 
L 300.107107 285.764662 
L 303.386446 307.584 
L 306.665785 307.584 
L 309.945124 307.584 
L 313.224463 307.584 
L 316.503802 307.584 
L 319.78314 307.584 
L 323.062479 307.584 
L 326.341818 307.584 
L 329.621157 307.584 
L 332.900496 307.584 
L 336.179835 307.584 
L 339.459174 307.584 
L 342.738512 307.584 
L 346.017851 307.584 
L 349.29719 307.584 
L 352.576529 307.584 
L 355.855868 307.584 
L 359.135207 307.584 
L 362.414545 307.584 
L 365.693884 307.584 
L 368.973223 307.584 
L 372.252562 307.584 
L 375.531901 307.584 
L 378.81124 307.584 
L 382.090579 307.584 
L 385.369917 307.584 
L 388.649256 307.584 
L 391.928595 307.584 
L 395.207934 307.584 
L 398.487273 307.584 
L 398.487273 307.584 
L 398.487273 307.584 
L 395.207934 307.584 
L 391.928595 307.584 
L 388.649256 307.584 
L 385.369917 307.584 
L 382.090579 307.584 
L 378.81124 307.584 
L 375.531901 307.584 
L 372.252562 307.584 
L 368.973223 307.584 
L 365.693884 307.584 
L 362.414545 307.584 
L 359.135207 307.584 
L 355.855868 307.584 
L 352.576529 307.584 
L 349.29719 307.584 
L 346.017851 307.584 
L 342.738512 307.584 
L 339.459174 307.584 
L 336.179835 307.584 
L 332.900496 307.584 
L 329.621157 307.584 
L 326.341818 307.584 
L 323.062479 307.584 
L 319.78314 307.584 
L 316.503802 307.584 
L 313.224463 307.584 
L 309.945124 307.584 
L 306.665785 307.584 
L 303.386446 245.482808 
L 300.107107 190.095258 
L 296.827769 211.075391 
L 293.54843 235.412344 
L 290.269091 226.181086 
L 286.989752 243.804397 
L 283.710413 204.361748 
L 280.431074 206.040159 
L 277.151736 221.145854 
L 273.872397 184.220821 
L 270.593058 157.366252 
L 267.313719 137.225325 
L 264.03438 109.53155 
L 260.755041 148.134993 
L 257.475702 96.104265 
L 254.196364 70.928106 
L 250.917025 56.661616 
L 247.637686 55.822411 
L 244.358347 55.822411 
L 241.079008 55.822411 
L 237.799669 54.983205 
L 234.520331 55.822411 
L 231.240992 55.822411 
L 227.961653 55.822411 
L 224.682314 56.661616 
L 221.402975 55.822411 
L 218.123636 55.822411 
L 214.844298 54.983205 
L 211.564959 55.822411 
L 208.28562 54.983205 
L 205.006281 54.983205 
L 201.726942 54.983205 
L 198.447603 54.983205 
L 195.168264 54.983205 
L 191.888926 55.822411 
L 188.609587 55.822411 
L 185.330248 55.822411 
L 182.050909 55.822411 
L 178.77157 55.822411 
L 175.492231 55.822411 
L 172.212893 55.822411 
L 168.933554 55.822411 
L 165.654215 55.822411 
L 162.374876 55.822411 
L 159.095537 55.822411 
L 155.816198 55.822411 
L 152.53686 55.822411 
L 149.257521 55.822411 
L 145.978182 55.822411 
L 142.698843 55.822411 
L 139.419504 55.822411 
L 136.140165 55.822411 
L 132.860826 55.822411 
L 129.581488 55.822411 
L 126.302149 55.822411 
L 123.02281 55.822411 
L 119.743471 55.822411 
L 116.464132 55.822411 
L 113.184793 55.822411 
L 109.905455 55.822411 
L 106.626116 55.822411 
L 103.346777 55.822411 
L 100.067438 55.822411 
L 96.788099 55.822411 
L 93.50876 55.822411 
L 90.229421 55.822411 
L 86.950083 55.822411 
L 83.670744 55.822411 
L 80.391405 55.822411 
L 77.112066 55.822411 
L 73.832727 55.822411 
z
" clip-path="url(#p7d21318c98)" style="fill: #9467bd"/>
   </g>
   <g id="FillBetweenPolyCollection_6">
    <path d="M 73.832727 55.822411 
L 73.832727 55.822411 
L 77.112066 55.822411 
L 80.391405 55.822411 
L 83.670744 55.822411 
L 86.950083 55.822411 
L 90.229421 55.822411 
L 93.50876 55.822411 
L 96.788099 55.822411 
L 100.067438 55.822411 
L 103.346777 55.822411 
L 106.626116 55.822411 
L 109.905455 55.822411 
L 113.184793 55.822411 
L 116.464132 55.822411 
L 119.743471 55.822411 
L 123.02281 55.822411 
L 126.302149 55.822411 
L 129.581488 55.822411 
L 132.860826 55.822411 
L 136.140165 55.822411 
L 139.419504 55.822411 
L 142.698843 55.822411 
L 145.978182 55.822411 
L 149.257521 55.822411 
L 152.53686 55.822411 
L 155.816198 55.822411 
L 159.095537 55.822411 
L 162.374876 55.822411 
L 165.654215 55.822411 
L 168.933554 55.822411 
L 172.212893 55.822411 
L 175.492231 55.822411 
L 178.77157 55.822411 
L 182.050909 55.822411 
L 185.330248 55.822411 
L 188.609587 55.822411 
L 191.888926 55.822411 
L 195.168264 54.983205 
L 198.447603 54.983205 
L 201.726942 54.983205 
L 205.006281 54.983205 
L 208.28562 54.983205 
L 211.564959 55.822411 
L 214.844298 54.983205 
L 218.123636 55.822411 
L 221.402975 55.822411 
L 224.682314 56.661616 
L 227.961653 55.822411 
L 231.240992 55.822411 
L 234.520331 55.822411 
L 237.799669 54.983205 
L 241.079008 55.822411 
L 244.358347 55.822411 
L 247.637686 55.822411 
L 250.917025 56.661616 
L 254.196364 70.928106 
L 257.475702 96.104265 
L 260.755041 148.134993 
L 264.03438 109.53155 
L 267.313719 137.225325 
L 270.593058 157.366252 
L 273.872397 184.220821 
L 277.151736 221.145854 
L 280.431074 206.040159 
L 283.710413 204.361748 
L 286.989752 243.804397 
L 290.269091 226.181086 
L 293.54843 235.412344 
L 296.827769 211.075391 
L 300.107107 190.095258 
L 303.386446 245.482808 
L 306.665785 307.584 
L 309.945124 307.584 
L 313.224463 307.584 
L 316.503802 307.584 
L 319.78314 307.584 
L 323.062479 307.584 
L 326.341818 307.584 
L 329.621157 307.584 
L 332.900496 307.584 
L 336.179835 307.584 
L 339.459174 307.584 
L 342.738512 307.584 
L 346.017851 307.584 
L 349.29719 307.584 
L 352.576529 307.584 
L 355.855868 307.584 
L 359.135207 307.584 
L 362.414545 307.584 
L 365.693884 307.584 
L 368.973223 307.584 
L 372.252562 307.584 
L 375.531901 307.584 
L 378.81124 307.584 
L 382.090579 307.584 
L 385.369917 307.584 
L 388.649256 307.584 
L 391.928595 307.584 
L 395.207934 307.584 
L 398.487273 307.584 
L 398.487273 285.764662 
L 398.487273 285.764662 
L 395.207934 290.799894 
L 391.928595 260.588503 
L 388.649256 268.141351 
L 385.369917 264.78453 
L 382.090579 267.302146 
L 378.81124 259.749298 
L 375.531901 267.302146 
L 372.252562 267.302146 
L 368.973223 268.141351 
L 365.693884 268.980556 
L 362.414545 268.980556 
L 359.135207 264.78453 
L 355.855868 268.141351 
L 352.576529 252.19645 
L 349.29719 259.749298 
L 346.017851 256.392477 
L 342.738512 265.623735 
L 339.459174 282.407841 
L 336.179835 279.890225 
L 332.900496 256.392477 
L 329.621157 243.804397 
L 326.341818 233.733934 
L 323.062479 226.181086 
L 319.78314 206.879364 
L 316.503802 233.733934 
L 313.224463 261.427709 
L 309.945124 258.910093 
L 306.665785 258.070887 
L 303.386446 180.864 
L 300.107107 129.672477 
L 296.827769 181.703205 
L 293.54843 200.165722 
L 290.269091 209.39698 
L 286.989752 214.432212 
L 283.710413 158.205457 
L 280.431074 154.00943 
L 277.151736 171.632742 
L 273.872397 142.260556 
L 270.593058 99.461086 
L 267.313719 102.817907 
L 264.03438 80.159364 
L 260.755041 95.26506 
L 257.475702 66.732079 
L 254.196364 54.983205 
L 250.917025 56.661616 
L 247.637686 55.822411 
L 244.358347 55.822411 
L 241.079008 55.822411 
L 237.799669 54.983205 
L 234.520331 55.822411 
L 231.240992 55.822411 
L 227.961653 55.822411 
L 224.682314 56.661616 
L 221.402975 55.822411 
L 218.123636 55.822411 
L 214.844298 54.983205 
L 211.564959 55.822411 
L 208.28562 54.983205 
L 205.006281 54.983205 
L 201.726942 54.983205 
L 198.447603 54.983205 
L 195.168264 54.983205 
L 191.888926 55.822411 
L 188.609587 55.822411 
L 185.330248 55.822411 
L 182.050909 55.822411 
L 178.77157 55.822411 
L 175.492231 55.822411 
L 172.212893 55.822411 
L 168.933554 55.822411 
L 165.654215 55.822411 
L 162.374876 55.822411 
L 159.095537 55.822411 
L 155.816198 55.822411 
L 152.53686 55.822411 
L 149.257521 55.822411 
L 145.978182 55.822411 
L 142.698843 55.822411 
L 139.419504 55.822411 
L 136.140165 55.822411 
L 132.860826 55.822411 
L 129.581488 55.822411 
L 126.302149 55.822411 
L 123.02281 55.822411 
L 119.743471 55.822411 
L 116.464132 55.822411 
L 113.184793 55.822411 
L 109.905455 55.822411 
L 106.626116 55.822411 
L 103.346777 55.822411 
L 100.067438 55.822411 
L 96.788099 55.822411 
L 93.50876 55.822411 
L 90.229421 55.822411 
L 86.950083 55.822411 
L 83.670744 55.822411 
L 80.391405 55.822411 
L 77.112066 55.822411 
L 73.832727 55.822411 
z
" clip-path="url(#p7d21318c98)" style="fill: #8c564b"/>
   </g>
   <g id="FillBetweenPolyCollection_7">
    <path d="M 73.832727 55.822411 
L 73.832727 55.822411 
L 77.112066 55.822411 
L 80.391405 55.822411 
L 83.670744 55.822411 
L 86.950083 55.822411 
L 90.229421 55.822411 
L 93.50876 55.822411 
L 96.788099 55.822411 
L 100.067438 55.822411 
L 103.346777 55.822411 
L 106.626116 55.822411 
L 109.905455 55.822411 
L 113.184793 55.822411 
L 116.464132 55.822411 
L 119.743471 55.822411 
L 123.02281 55.822411 
L 126.302149 55.822411 
L 129.581488 55.822411 
L 132.860826 55.822411 
L 136.140165 55.822411 
L 139.419504 55.822411 
L 142.698843 55.822411 
L 145.978182 55.822411 
L 149.257521 55.822411 
L 152.53686 55.822411 
L 155.816198 55.822411 
L 159.095537 55.822411 
L 162.374876 55.822411 
L 165.654215 55.822411 
L 168.933554 55.822411 
L 172.212893 55.822411 
L 175.492231 55.822411 
L 178.77157 55.822411 
L 182.050909 55.822411 
L 185.330248 55.822411 
L 188.609587 55.822411 
L 191.888926 55.822411 
L 195.168264 54.983205 
L 198.447603 54.983205 
L 201.726942 54.983205 
L 205.006281 54.983205 
L 208.28562 54.983205 
L 211.564959 55.822411 
L 214.844298 54.983205 
L 218.123636 55.822411 
L 221.402975 55.822411 
L 224.682314 56.661616 
L 227.961653 55.822411 
L 231.240992 55.822411 
L 234.520331 55.822411 
L 237.799669 54.983205 
L 241.079008 55.822411 
L 244.358347 55.822411 
L 247.637686 55.822411 
L 250.917025 56.661616 
L 254.196364 54.983205 
L 257.475702 66.732079 
L 260.755041 95.26506 
L 264.03438 80.159364 
L 267.313719 102.817907 
L 270.593058 99.461086 
L 273.872397 142.260556 
L 277.151736 171.632742 
L 280.431074 154.00943 
L 283.710413 158.205457 
L 286.989752 214.432212 
L 290.269091 209.39698 
L 293.54843 200.165722 
L 296.827769 181.703205 
L 300.107107 129.672477 
L 303.386446 180.864 
L 306.665785 258.070887 
L 309.945124 258.910093 
L 313.224463 261.427709 
L 316.503802 233.733934 
L 319.78314 206.879364 
L 323.062479 226.181086 
L 326.341818 233.733934 
L 329.621157 243.804397 
L 332.900496 256.392477 
L 336.179835 279.890225 
L 339.459174 282.407841 
L 342.738512 265.623735 
L 346.017851 256.392477 
L 349.29719 259.749298 
L 352.576529 252.19645 
L 355.855868 268.141351 
L 359.135207 264.78453 
L 362.414545 268.980556 
L 365.693884 268.980556 
L 368.973223 268.141351 
L 372.252562 267.302146 
L 375.531901 267.302146 
L 378.81124 259.749298 
L 382.090579 267.302146 
L 385.369917 264.78453 
L 388.649256 268.141351 
L 391.928595 260.588503 
L 395.207934 290.799894 
L 398.487273 285.764662 
L 398.487273 285.764662 
L 398.487273 285.764662 
L 395.207934 273.176583 
L 391.928595 202.683338 
L 388.649256 225.341881 
L 385.369917 227.020291 
L 382.090579 235.412344 
L 378.81124 227.859497 
L 375.531901 250.51804 
L 372.252562 236.25155 
L 368.973223 221.98506 
L 365.693884 234.573139 
L 362.414545 224.502675 
L 359.135207 227.020291 
L 355.855868 233.733934 
L 352.576529 232.055523 
L 349.29719 222.824265 
L 346.017851 191.773669 
L 342.738512 216.949828 
L 339.459174 242.965192 
L 336.179835 222.824265 
L 332.900496 191.773669 
L 329.621157 184.220821 
L 326.341818 170.793536 
L 323.062479 195.969695 
L 319.78314 169.954331 
L 316.503802 189.256053 
L 313.224463 214.432212 
L 309.945124 214.432212 
L 306.665785 201.844132 
L 303.386446 141.421351 
L 300.107107 91.908238 
L 296.827769 148.134993 
L 293.54843 159.883868 
L 290.269091 169.954331 
L 286.989752 179.185589 
L 283.710413 126.315656 
L 280.431074 115.405987 
L 277.151736 137.225325 
L 273.872397 90.229828 
L 270.593058 55.822411 
L 267.313719 54.983205 
L 264.03438 54.983205 
L 260.755041 55.822411 
L 257.475702 54.983205 
L 254.196364 54.983205 
L 250.917025 56.661616 
L 247.637686 55.822411 
L 244.358347 55.822411 
L 241.079008 55.822411 
L 237.799669 54.983205 
L 234.520331 55.822411 
L 231.240992 55.822411 
L 227.961653 55.822411 
L 224.682314 56.661616 
L 221.402975 55.822411 
L 218.123636 55.822411 
L 214.844298 54.983205 
L 211.564959 55.822411 
L 208.28562 54.983205 
L 205.006281 54.983205 
L 201.726942 54.983205 
L 198.447603 54.983205 
L 195.168264 54.983205 
L 191.888926 55.822411 
L 188.609587 55.822411 
L 185.330248 55.822411 
L 182.050909 55.822411 
L 178.77157 55.822411 
L 175.492231 55.822411 
L 172.212893 55.822411 
L 168.933554 55.822411 
L 165.654215 55.822411 
L 162.374876 55.822411 
L 159.095537 55.822411 
L 155.816198 55.822411 
L 152.53686 55.822411 
L 149.257521 55.822411 
L 145.978182 55.822411 
L 142.698843 55.822411 
L 139.419504 55.822411 
L 136.140165 55.822411 
L 132.860826 55.822411 
L 129.581488 55.822411 
L 126.302149 55.822411 
L 123.02281 55.822411 
L 119.743471 55.822411 
L 116.464132 55.822411 
L 113.184793 55.822411 
L 109.905455 55.822411 
L 106.626116 55.822411 
L 103.346777 55.822411 
L 100.067438 55.822411 
L 96.788099 55.822411 
L 93.50876 55.822411 
L 90.229421 55.822411 
L 86.950083 55.822411 
L 83.670744 55.822411 
L 80.391405 55.822411 
L 77.112066 55.822411 
L 73.832727 55.822411 
z
" clip-path="url(#p7d21318c98)" style="fill: #e377c2"/>
   </g>
   <g id="FillBetweenPolyCollection_8">
    <path d="M 73.832727 55.822411 
L 73.832727 55.822411 
L 77.112066 55.822411 
L 80.391405 55.822411 
L 83.670744 55.822411 
L 86.950083 55.822411 
L 90.229421 55.822411 
L 93.50876 55.822411 
L 96.788099 55.822411 
L 100.067438 55.822411 
L 103.346777 55.822411 
L 106.626116 55.822411 
L 109.905455 55.822411 
L 113.184793 55.822411 
L 116.464132 55.822411 
L 119.743471 55.822411 
L 123.02281 55.822411 
L 126.302149 55.822411 
L 129.581488 55.822411 
L 132.860826 55.822411 
L 136.140165 55.822411 
L 139.419504 55.822411 
L 142.698843 55.822411 
L 145.978182 55.822411 
L 149.257521 55.822411 
L 152.53686 55.822411 
L 155.816198 55.822411 
L 159.095537 55.822411 
L 162.374876 55.822411 
L 165.654215 55.822411 
L 168.933554 55.822411 
L 172.212893 55.822411 
L 175.492231 55.822411 
L 178.77157 55.822411 
L 182.050909 55.822411 
L 185.330248 55.822411 
L 188.609587 55.822411 
L 191.888926 55.822411 
L 195.168264 54.983205 
L 198.447603 54.983205 
L 201.726942 54.983205 
L 205.006281 54.983205 
L 208.28562 54.983205 
L 211.564959 55.822411 
L 214.844298 54.983205 
L 218.123636 55.822411 
L 221.402975 55.822411 
L 224.682314 56.661616 
L 227.961653 55.822411 
L 231.240992 55.822411 
L 234.520331 55.822411 
L 237.799669 54.983205 
L 241.079008 55.822411 
L 244.358347 55.822411 
L 247.637686 55.822411 
L 250.917025 56.661616 
L 254.196364 54.983205 
L 257.475702 54.983205 
L 260.755041 55.822411 
L 264.03438 54.983205 
L 267.313719 54.983205 
L 270.593058 55.822411 
L 273.872397 90.229828 
L 277.151736 137.225325 
L 280.431074 115.405987 
L 283.710413 126.315656 
L 286.989752 179.185589 
L 290.269091 169.954331 
L 293.54843 159.883868 
L 296.827769 148.134993 
L 300.107107 91.908238 
L 303.386446 141.421351 
L 306.665785 201.844132 
L 309.945124 214.432212 
L 313.224463 214.432212 
L 316.503802 189.256053 
L 319.78314 169.954331 
L 323.062479 195.969695 
L 326.341818 170.793536 
L 329.621157 184.220821 
L 332.900496 191.773669 
L 336.179835 222.824265 
L 339.459174 242.965192 
L 342.738512 216.949828 
L 346.017851 191.773669 
L 349.29719 222.824265 
L 352.576529 232.055523 
L 355.855868 233.733934 
L 359.135207 227.020291 
L 362.414545 224.502675 
L 365.693884 234.573139 
L 368.973223 221.98506 
L 372.252562 236.25155 
L 375.531901 250.51804 
L 378.81124 227.859497 
L 382.090579 235.412344 
L 385.369917 227.020291 
L 388.649256 225.341881 
L 391.928595 202.683338 
L 395.207934 273.176583 
L 398.487273 285.764662 
L 398.487273 255.553272 
L 398.487273 255.553272 
L 395.207934 114.566781 
L 391.928595 175.828768 
L 388.649256 189.256053 
L 385.369917 195.969695 
L 382.090579 231.216318 
L 378.81124 216.110623 
L 375.531901 201.844132 
L 372.252562 183.381616 
L 368.973223 159.044662 
L 365.693884 194.291285 
L 362.414545 195.969695 
L 359.135207 206.879364 
L 355.855868 222.824265 
L 352.576529 209.39698 
L 349.29719 133.029298 
L 346.017851 150.652609 
L 342.738512 150.652609 
L 339.459174 185.060026 
L 336.179835 173.311152 
L 332.900496 129.672477 
L 329.621157 136.386119 
L 326.341818 122.119629 
L 323.062479 119.602013 
L 319.78314 109.53155 
L 316.503802 98.621881 
L 313.224463 97.782675 
L 309.945124 101.139497 
L 306.665785 117.084397 
L 303.386446 83.516185 
L 300.107107 80.159364 
L 296.827769 103.657113 
L 293.54843 104.496318 
L 290.269091 98.621881 
L 286.989752 96.94347 
L 283.710413 75.963338 
L 280.431074 57.500821 
L 277.151736 56.661616 
L 273.872397 55.822411 
L 270.593058 55.822411 
L 267.313719 54.983205 
L 264.03438 54.983205 
L 260.755041 55.822411 
L 257.475702 54.983205 
L 254.196364 54.983205 
L 250.917025 56.661616 
L 247.637686 55.822411 
L 244.358347 55.822411 
L 241.079008 55.822411 
L 237.799669 54.983205 
L 234.520331 55.822411 
L 231.240992 55.822411 
L 227.961653 55.822411 
L 224.682314 56.661616 
L 221.402975 55.822411 
L 218.123636 55.822411 
L 214.844298 54.983205 
L 211.564959 55.822411 
L 208.28562 54.983205 
L 205.006281 54.983205 
L 201.726942 54.983205 
L 198.447603 54.983205 
L 195.168264 54.983205 
L 191.888926 55.822411 
L 188.609587 55.822411 
L 185.330248 55.822411 
L 182.050909 55.822411 
L 178.77157 55.822411 
L 175.492231 55.822411 
L 172.212893 55.822411 
L 168.933554 55.822411 
L 165.654215 55.822411 
L 162.374876 55.822411 
L 159.095537 55.822411 
L 155.816198 55.822411 
L 152.53686 55.822411 
L 149.257521 55.822411 
L 145.978182 55.822411 
L 142.698843 55.822411 
L 139.419504 55.822411 
L 136.140165 55.822411 
L 132.860826 55.822411 
L 129.581488 55.822411 
L 126.302149 55.822411 
L 123.02281 55.822411 
L 119.743471 55.822411 
L 116.464132 55.822411 
L 113.184793 55.822411 
L 109.905455 55.822411 
L 106.626116 55.822411 
L 103.346777 55.822411 
L 100.067438 55.822411 
L 96.788099 55.822411 
L 93.50876 55.822411 
L 90.229421 55.822411 
L 86.950083 55.822411 
L 83.670744 55.822411 
L 80.391405 55.822411 
L 77.112066 55.822411 
L 73.832727 55.822411 
z
" clip-path="url(#p7d21318c98)" style="fill: #7f7f7f"/>
   </g>
   <g id="FillBetweenPolyCollection_9">
    <path d="M 73.832727 55.822411 
L 73.832727 55.822411 
L 77.112066 55.822411 
L 80.391405 55.822411 
L 83.670744 55.822411 
L 86.950083 55.822411 
L 90.229421 55.822411 
L 93.50876 55.822411 
L 96.788099 55.822411 
L 100.067438 55.822411 
L 103.346777 55.822411 
L 106.626116 55.822411 
L 109.905455 55.822411 
L 113.184793 55.822411 
L 116.464132 55.822411 
L 119.743471 55.822411 
L 123.02281 55.822411 
L 126.302149 55.822411 
L 129.581488 55.822411 
L 132.860826 55.822411 
L 136.140165 55.822411 
L 139.419504 55.822411 
L 142.698843 55.822411 
L 145.978182 55.822411 
L 149.257521 55.822411 
L 152.53686 55.822411 
L 155.816198 55.822411 
L 159.095537 55.822411 
L 162.374876 55.822411 
L 165.654215 55.822411 
L 168.933554 55.822411 
L 172.212893 55.822411 
L 175.492231 55.822411 
L 178.77157 55.822411 
L 182.050909 55.822411 
L 185.330248 55.822411 
L 188.609587 55.822411 
L 191.888926 55.822411 
L 195.168264 54.983205 
L 198.447603 54.983205 
L 201.726942 54.983205 
L 205.006281 54.983205 
L 208.28562 54.983205 
L 211.564959 55.822411 
L 214.844298 54.983205 
L 218.123636 55.822411 
L 221.402975 55.822411 
L 224.682314 56.661616 
L 227.961653 55.822411 
L 231.240992 55.822411 
L 234.520331 55.822411 
L 237.799669 54.983205 
L 241.079008 55.822411 
L 244.358347 55.822411 
L 247.637686 55.822411 
L 250.917025 56.661616 
L 254.196364 54.983205 
L 257.475702 54.983205 
L 260.755041 55.822411 
L 264.03438 54.983205 
L 267.313719 54.983205 
L 270.593058 55.822411 
L 273.872397 55.822411 
L 277.151736 56.661616 
L 280.431074 57.500821 
L 283.710413 75.963338 
L 286.989752 96.94347 
L 290.269091 98.621881 
L 293.54843 104.496318 
L 296.827769 103.657113 
L 300.107107 80.159364 
L 303.386446 83.516185 
L 306.665785 117.084397 
L 309.945124 101.139497 
L 313.224463 97.782675 
L 316.503802 98.621881 
L 319.78314 109.53155 
L 323.062479 119.602013 
L 326.341818 122.119629 
L 329.621157 136.386119 
L 332.900496 129.672477 
L 336.179835 173.311152 
L 339.459174 185.060026 
L 342.738512 150.652609 
L 346.017851 150.652609 
L 349.29719 133.029298 
L 352.576529 209.39698 
L 355.855868 222.824265 
L 359.135207 206.879364 
L 362.414545 195.969695 
L 365.693884 194.291285 
L 368.973223 159.044662 
L 372.252562 183.381616 
L 375.531901 201.844132 
L 378.81124 216.110623 
L 382.090579 231.216318 
L 385.369917 195.969695 
L 388.649256 189.256053 
L 391.928595 175.828768 
L 395.207934 114.566781 
L 398.487273 255.553272 
L 398.487273 255.553272 
L 398.487273 255.553272 
L 395.207934 114.566781 
L 391.928595 175.828768 
L 388.649256 189.256053 
L 385.369917 195.969695 
L 382.090579 231.216318 
L 378.81124 216.110623 
L 375.531901 159.044662 
L 372.252562 149.813404 
L 368.973223 125.47645 
L 365.693884 122.119629 
L 362.414545 138.903735 
L 359.135207 135.546914 
L 355.855868 173.311152 
L 352.576529 140.582146 
L 349.29719 91.069033 
L 346.017851 106.174728 
L 342.738512 101.978702 
L 339.459174 125.47645 
L 336.179835 107.853139 
L 332.900496 65.892874 
L 329.621157 56.661616 
L 326.341818 55.822411 
L 323.062479 56.661616 
L 319.78314 56.661616 
L 316.503802 55.822411 
L 313.224463 56.661616 
L 309.945124 55.822411 
L 306.665785 55.822411 
L 303.386446 55.822411 
L 300.107107 55.822411 
L 296.827769 54.983205 
L 293.54843 54.983205 
L 290.269091 54.983205 
L 286.989752 54.144 
L 283.710413 54.144 
L 280.431074 55.822411 
L 277.151736 56.661616 
L 273.872397 55.822411 
L 270.593058 55.822411 
L 267.313719 54.983205 
L 264.03438 54.983205 
L 260.755041 55.822411 
L 257.475702 54.983205 
L 254.196364 54.983205 
L 250.917025 56.661616 
L 247.637686 55.822411 
L 244.358347 55.822411 
L 241.079008 55.822411 
L 237.799669 54.983205 
L 234.520331 55.822411 
L 231.240992 55.822411 
L 227.961653 55.822411 
L 224.682314 56.661616 
L 221.402975 55.822411 
L 218.123636 55.822411 
L 214.844298 54.983205 
L 211.564959 55.822411 
L 208.28562 54.983205 
L 205.006281 54.983205 
L 201.726942 54.983205 
L 198.447603 54.983205 
L 195.168264 54.983205 
L 191.888926 55.822411 
L 188.609587 55.822411 
L 185.330248 55.822411 
L 182.050909 55.822411 
L 178.77157 55.822411 
L 175.492231 55.822411 
L 172.212893 55.822411 
L 168.933554 55.822411 
L 165.654215 55.822411 
L 162.374876 55.822411 
L 159.095537 55.822411 
L 155.816198 55.822411 
L 152.53686 55.822411 
L 149.257521 55.822411 
L 145.978182 55.822411 
L 142.698843 55.822411 
L 139.419504 55.822411 
L 136.140165 55.822411 
L 132.860826 55.822411 
L 129.581488 55.822411 
L 126.302149 55.822411 
L 123.02281 55.822411 
L 119.743471 55.822411 
L 116.464132 55.822411 
L 113.184793 55.822411 
L 109.905455 55.822411 
L 106.626116 55.822411 
L 103.346777 55.822411 
L 100.067438 55.822411 
L 96.788099 55.822411 
L 93.50876 55.822411 
L 90.229421 55.822411 
L 86.950083 55.822411 
L 83.670744 55.822411 
L 80.391405 55.822411 
L 77.112066 55.822411 
L 73.832727 55.822411 
z
" clip-path="url(#p7d21318c98)" style="fill: #bcbd22"/>
   </g>
   <g id="FillBetweenPolyCollection_10">
    <path d="M 73.832727 55.822411 
L 73.832727 55.822411 
L 77.112066 55.822411 
L 80.391405 55.822411 
L 83.670744 55.822411 
L 86.950083 55.822411 
L 90.229421 55.822411 
L 93.50876 55.822411 
L 96.788099 55.822411 
L 100.067438 55.822411 
L 103.346777 55.822411 
L 106.626116 55.822411 
L 109.905455 55.822411 
L 113.184793 55.822411 
L 116.464132 55.822411 
L 119.743471 55.822411 
L 123.02281 55.822411 
L 126.302149 55.822411 
L 129.581488 55.822411 
L 132.860826 55.822411 
L 136.140165 55.822411 
L 139.419504 55.822411 
L 142.698843 55.822411 
L 145.978182 55.822411 
L 149.257521 55.822411 
L 152.53686 55.822411 
L 155.816198 55.822411 
L 159.095537 55.822411 
L 162.374876 55.822411 
L 165.654215 55.822411 
L 168.933554 55.822411 
L 172.212893 55.822411 
L 175.492231 55.822411 
L 178.77157 55.822411 
L 182.050909 55.822411 
L 185.330248 55.822411 
L 188.609587 55.822411 
L 191.888926 55.822411 
L 195.168264 54.983205 
L 198.447603 54.983205 
L 201.726942 54.983205 
L 205.006281 54.983205 
L 208.28562 54.983205 
L 211.564959 55.822411 
L 214.844298 54.983205 
L 218.123636 55.822411 
L 221.402975 55.822411 
L 224.682314 56.661616 
L 227.961653 55.822411 
L 231.240992 55.822411 
L 234.520331 55.822411 
L 237.799669 54.983205 
L 241.079008 55.822411 
L 244.358347 55.822411 
L 247.637686 55.822411 
L 250.917025 56.661616 
L 254.196364 54.983205 
L 257.475702 54.983205 
L 260.755041 55.822411 
L 264.03438 54.983205 
L 267.313719 54.983205 
L 270.593058 55.822411 
L 273.872397 55.822411 
L 277.151736 56.661616 
L 280.431074 55.822411 
L 283.710413 54.144 
L 286.989752 54.144 
L 290.269091 54.983205 
L 293.54843 54.983205 
L 296.827769 54.983205 
L 300.107107 55.822411 
L 303.386446 55.822411 
L 306.665785 55.822411 
L 309.945124 55.822411 
L 313.224463 56.661616 
L 316.503802 55.822411 
L 319.78314 56.661616 
L 323.062479 56.661616 
L 326.341818 55.822411 
L 329.621157 56.661616 
L 332.900496 65.892874 
L 336.179835 107.853139 
L 339.459174 125.47645 
L 342.738512 101.978702 
L 346.017851 106.174728 
L 349.29719 91.069033 
L 352.576529 140.582146 
L 355.855868 173.311152 
L 359.135207 135.546914 
L 362.414545 138.903735 
L 365.693884 122.119629 
L 368.973223 125.47645 
L 372.252562 149.813404 
L 375.531901 159.044662 
L 378.81124 216.110623 
L 382.090579 231.216318 
L 385.369917 195.969695 
L 388.649256 189.256053 
L 391.928595 175.828768 
L 395.207934 114.566781 
L 398.487273 255.553272 
L 398.487273 223.66347 
L 398.487273 223.66347 
L 395.207934 85.194596 
L 391.928595 130.511682 
L 388.649256 141.421351 
L 385.369917 137.225325 
L 382.090579 150.652609 
L 378.81124 133.029298 
L 375.531901 125.47645 
L 372.252562 108.692344 
L 368.973223 88.551417 
L 365.693884 76.802543 
L 362.414545 98.621881 
L 359.135207 91.069033 
L 355.855868 130.511682 
L 352.576529 96.94347 
L 349.29719 55.822411 
L 346.017851 54.983205 
L 342.738512 56.661616 
L 339.459174 55.822411 
L 336.179835 55.822411 
L 332.900496 56.661616 
L 329.621157 56.661616 
L 326.341818 55.822411 
L 323.062479 56.661616 
L 319.78314 56.661616 
L 316.503802 55.822411 
L 313.224463 56.661616 
L 309.945124 55.822411 
L 306.665785 55.822411 
L 303.386446 55.822411 
L 300.107107 55.822411 
L 296.827769 54.983205 
L 293.54843 54.983205 
L 290.269091 54.983205 
L 286.989752 54.144 
L 283.710413 54.144 
L 280.431074 55.822411 
L 277.151736 56.661616 
L 273.872397 55.822411 
L 270.593058 55.822411 
L 267.313719 54.983205 
L 264.03438 54.983205 
L 260.755041 55.822411 
L 257.475702 54.983205 
L 254.196364 54.983205 
L 250.917025 56.661616 
L 247.637686 55.822411 
L 244.358347 55.822411 
L 241.079008 55.822411 
L 237.799669 54.983205 
L 234.520331 55.822411 
L 231.240992 55.822411 
L 227.961653 55.822411 
L 224.682314 56.661616 
L 221.402975 55.822411 
L 218.123636 55.822411 
L 214.844298 54.983205 
L 211.564959 55.822411 
L 208.28562 54.983205 
L 205.006281 54.983205 
L 201.726942 54.983205 
L 198.447603 54.983205 
L 195.168264 54.983205 
L 191.888926 55.822411 
L 188.609587 55.822411 
L 185.330248 55.822411 
L 182.050909 55.822411 
L 178.77157 55.822411 
L 175.492231 55.822411 
L 172.212893 55.822411 
L 168.933554 55.822411 
L 165.654215 55.822411 
L 162.374876 55.822411 
L 159.095537 55.822411 
L 155.816198 55.822411 
L 152.53686 55.822411 
L 149.257521 55.822411 
L 145.978182 55.822411 
L 142.698843 55.822411 
L 139.419504 55.822411 
L 136.140165 55.822411 
L 132.860826 55.822411 
L 129.581488 55.822411 
L 126.302149 55.822411 
L 123.02281 55.822411 
L 119.743471 55.822411 
L 116.464132 55.822411 
L 113.184793 55.822411 
L 109.905455 55.822411 
L 106.626116 55.822411 
L 103.346777 55.822411 
L 100.067438 55.822411 
L 96.788099 55.822411 
L 93.50876 55.822411 
L 90.229421 55.822411 
L 86.950083 55.822411 
L 83.670744 55.822411 
L 80.391405 55.822411 
L 77.112066 55.822411 
L 73.832727 55.822411 
z
" clip-path="url(#p7d21318c98)" style="fill: #17becf"/>
   </g>
   <g id="FillBetweenPolyCollection_11">
    <path d="M 73.832727 55.822411 
L 73.832727 55.822411 
L 77.112066 55.822411 
L 80.391405 55.822411 
L 83.670744 55.822411 
L 86.950083 55.822411 
L 90.229421 55.822411 
L 93.50876 55.822411 
L 96.788099 55.822411 
L 100.067438 55.822411 
L 103.346777 55.822411 
L 106.626116 55.822411 
L 109.905455 55.822411 
L 113.184793 55.822411 
L 116.464132 55.822411 
L 119.743471 55.822411 
L 123.02281 55.822411 
L 126.302149 55.822411 
L 129.581488 55.822411 
L 132.860826 55.822411 
L 136.140165 55.822411 
L 139.419504 55.822411 
L 142.698843 55.822411 
L 145.978182 55.822411 
L 149.257521 55.822411 
L 152.53686 55.822411 
L 155.816198 55.822411 
L 159.095537 55.822411 
L 162.374876 55.822411 
L 165.654215 55.822411 
L 168.933554 55.822411 
L 172.212893 55.822411 
L 175.492231 55.822411 
L 178.77157 55.822411 
L 182.050909 55.822411 
L 185.330248 55.822411 
L 188.609587 55.822411 
L 191.888926 55.822411 
L 195.168264 54.983205 
L 198.447603 54.983205 
L 201.726942 54.983205 
L 205.006281 54.983205 
L 208.28562 54.983205 
L 211.564959 55.822411 
L 214.844298 54.983205 
L 218.123636 55.822411 
L 221.402975 55.822411 
L 224.682314 56.661616 
L 227.961653 55.822411 
L 231.240992 55.822411 
L 234.520331 55.822411 
L 237.799669 54.983205 
L 241.079008 55.822411 
L 244.358347 55.822411 
L 247.637686 55.822411 
L 250.917025 56.661616 
L 254.196364 54.983205 
L 257.475702 54.983205 
L 260.755041 55.822411 
L 264.03438 54.983205 
L 267.313719 54.983205 
L 270.593058 55.822411 
L 273.872397 55.822411 
L 277.151736 56.661616 
L 280.431074 55.822411 
L 283.710413 54.144 
L 286.989752 54.144 
L 290.269091 54.983205 
L 293.54843 54.983205 
L 296.827769 54.983205 
L 300.107107 55.822411 
L 303.386446 55.822411 
L 306.665785 55.822411 
L 309.945124 55.822411 
L 313.224463 56.661616 
L 316.503802 55.822411 
L 319.78314 56.661616 
L 323.062479 56.661616 
L 326.341818 55.822411 
L 329.621157 56.661616 
L 332.900496 56.661616 
L 336.179835 55.822411 
L 339.459174 55.822411 
L 342.738512 56.661616 
L 346.017851 54.983205 
L 349.29719 55.822411 
L 352.576529 96.94347 
L 355.855868 130.511682 
L 359.135207 91.069033 
L 362.414545 98.621881 
L 365.693884 76.802543 
L 368.973223 88.551417 
L 372.252562 108.692344 
L 375.531901 125.47645 
L 378.81124 133.029298 
L 382.090579 150.652609 
L 385.369917 137.225325 
L 388.649256 141.421351 
L 391.928595 130.511682 
L 395.207934 85.194596 
L 398.487273 223.66347 
L 398.487273 202.683338 
L 398.487273 202.683338 
L 395.207934 57.500821 
L 391.928595 81.837775 
L 388.649256 96.94347 
L 385.369917 96.94347 
L 382.090579 107.013934 
L 378.81124 96.104265 
L 375.531901 92.747444 
L 372.252562 93.586649 
L 368.973223 72.606517 
L 365.693884 55.822411 
L 362.414545 56.661616 
L 359.135207 55.822411 
L 355.855868 55.822411 
L 352.576529 55.822411 
L 349.29719 55.822411 
L 346.017851 54.983205 
L 342.738512 56.661616 
L 339.459174 55.822411 
L 336.179835 55.822411 
L 332.900496 56.661616 
L 329.621157 56.661616 
L 326.341818 55.822411 
L 323.062479 56.661616 
L 319.78314 56.661616 
L 316.503802 55.822411 
L 313.224463 56.661616 
L 309.945124 55.822411 
L 306.665785 55.822411 
L 303.386446 55.822411 
L 300.107107 55.822411 
L 296.827769 54.983205 
L 293.54843 54.983205 
L 290.269091 54.983205 
L 286.989752 54.144 
L 283.710413 54.144 
L 280.431074 55.822411 
L 277.151736 56.661616 
L 273.872397 55.822411 
L 270.593058 55.822411 
L 267.313719 54.983205 
L 264.03438 54.983205 
L 260.755041 55.822411 
L 257.475702 54.983205 
L 254.196364 54.983205 
L 250.917025 56.661616 
L 247.637686 55.822411 
L 244.358347 55.822411 
L 241.079008 55.822411 
L 237.799669 54.983205 
L 234.520331 55.822411 
L 231.240992 55.822411 
L 227.961653 55.822411 
L 224.682314 56.661616 
L 221.402975 55.822411 
L 218.123636 55.822411 
L 214.844298 54.983205 
L 211.564959 55.822411 
L 208.28562 54.983205 
L 205.006281 54.983205 
L 201.726942 54.983205 
L 198.447603 54.983205 
L 195.168264 54.983205 
L 191.888926 55.822411 
L 188.609587 55.822411 
L 185.330248 55.822411 
L 182.050909 55.822411 
L 178.77157 55.822411 
L 175.492231 55.822411 
L 172.212893 55.822411 
L 168.933554 55.822411 
L 165.654215 55.822411 
L 162.374876 55.822411 
L 159.095537 55.822411 
L 155.816198 55.822411 
L 152.53686 55.822411 
L 149.257521 55.822411 
L 145.978182 55.822411 
L 142.698843 55.822411 
L 139.419504 55.822411 
L 136.140165 55.822411 
L 132.860826 55.822411 
L 129.581488 55.822411 
L 126.302149 55.822411 
L 123.02281 55.822411 
L 119.743471 55.822411 
L 116.464132 55.822411 
L 113.184793 55.822411 
L 109.905455 55.822411 
L 106.626116 55.822411 
L 103.346777 55.822411 
L 100.067438 55.822411 
L 96.788099 55.822411 
L 93.50876 55.822411 
L 90.229421 55.822411 
L 86.950083 55.822411 
L 83.670744 55.822411 
L 80.391405 55.822411 
L 77.112066 55.822411 
L 73.832727 55.822411 
z
" clip-path="url(#p7d21318c98)" style="fill: #1f77b4"/>
   </g>
   <g id="FillBetweenPolyCollection_12">
    <path d="M 73.832727 55.822411 
L 73.832727 55.822411 
L 77.112066 55.822411 
L 80.391405 55.822411 
L 83.670744 55.822411 
L 86.950083 55.822411 
L 90.229421 55.822411 
L 93.50876 55.822411 
L 96.788099 55.822411 
L 100.067438 55.822411 
L 103.346777 55.822411 
L 106.626116 55.822411 
L 109.905455 55.822411 
L 113.184793 55.822411 
L 116.464132 55.822411 
L 119.743471 55.822411 
L 123.02281 55.822411 
L 126.302149 55.822411 
L 129.581488 55.822411 
L 132.860826 55.822411 
L 136.140165 55.822411 
L 139.419504 55.822411 
L 142.698843 55.822411 
L 145.978182 55.822411 
L 149.257521 55.822411 
L 152.53686 55.822411 
L 155.816198 55.822411 
L 159.095537 55.822411 
L 162.374876 55.822411 
L 165.654215 55.822411 
L 168.933554 55.822411 
L 172.212893 55.822411 
L 175.492231 55.822411 
L 178.77157 55.822411 
L 182.050909 55.822411 
L 185.330248 55.822411 
L 188.609587 55.822411 
L 191.888926 55.822411 
L 195.168264 54.983205 
L 198.447603 54.983205 
L 201.726942 54.983205 
L 205.006281 54.983205 
L 208.28562 54.983205 
L 211.564959 55.822411 
L 214.844298 54.983205 
L 218.123636 55.822411 
L 221.402975 55.822411 
L 224.682314 56.661616 
L 227.961653 55.822411 
L 231.240992 55.822411 
L 234.520331 55.822411 
L 237.799669 54.983205 
L 241.079008 55.822411 
L 244.358347 55.822411 
L 247.637686 55.822411 
L 250.917025 56.661616 
L 254.196364 54.983205 
L 257.475702 54.983205 
L 260.755041 55.822411 
L 264.03438 54.983205 
L 267.313719 54.983205 
L 270.593058 55.822411 
L 273.872397 55.822411 
L 277.151736 56.661616 
L 280.431074 55.822411 
L 283.710413 54.144 
L 286.989752 54.144 
L 290.269091 54.983205 
L 293.54843 54.983205 
L 296.827769 54.983205 
L 300.107107 55.822411 
L 303.386446 55.822411 
L 306.665785 55.822411 
L 309.945124 55.822411 
L 313.224463 56.661616 
L 316.503802 55.822411 
L 319.78314 56.661616 
L 323.062479 56.661616 
L 326.341818 55.822411 
L 329.621157 56.661616 
L 332.900496 56.661616 
L 336.179835 55.822411 
L 339.459174 55.822411 
L 342.738512 56.661616 
L 346.017851 54.983205 
L 349.29719 55.822411 
L 352.576529 55.822411 
L 355.855868 55.822411 
L 359.135207 55.822411 
L 362.414545 56.661616 
L 365.693884 55.822411 
L 368.973223 72.606517 
L 372.252562 93.586649 
L 375.531901 92.747444 
L 378.81124 96.104265 
L 382.090579 107.013934 
L 385.369917 96.94347 
L 388.649256 96.94347 
L 391.928595 81.837775 
L 395.207934 57.500821 
L 398.487273 202.683338 
L 398.487273 55.822411 
L 398.487273 55.822411 
L 395.207934 54.983205 
L 391.928595 54.144 
L 388.649256 55.822411 
L 385.369917 55.822411 
L 382.090579 56.661616 
L 378.81124 56.661616 
L 375.531901 55.822411 
L 372.252562 54.983205 
L 368.973223 55.822411 
L 365.693884 55.822411 
L 362.414545 56.661616 
L 359.135207 55.822411 
L 355.855868 55.822411 
L 352.576529 55.822411 
L 349.29719 55.822411 
L 346.017851 54.983205 
L 342.738512 56.661616 
L 339.459174 55.822411 
L 336.179835 55.822411 
L 332.900496 56.661616 
L 329.621157 56.661616 
L 326.341818 55.822411 
L 323.062479 56.661616 
L 319.78314 56.661616 
L 316.503802 55.822411 
L 313.224463 56.661616 
L 309.945124 55.822411 
L 306.665785 55.822411 
L 303.386446 55.822411 
L 300.107107 55.822411 
L 296.827769 54.983205 
L 293.54843 54.983205 
L 290.269091 54.983205 
L 286.989752 54.144 
L 283.710413 54.144 
L 280.431074 55.822411 
L 277.151736 56.661616 
L 273.872397 55.822411 
L 270.593058 55.822411 
L 267.313719 54.983205 
L 264.03438 54.983205 
L 260.755041 55.822411 
L 257.475702 54.983205 
L 254.196364 54.983205 
L 250.917025 56.661616 
L 247.637686 55.822411 
L 244.358347 55.822411 
L 241.079008 55.822411 
L 237.799669 54.983205 
L 234.520331 55.822411 
L 231.240992 55.822411 
L 227.961653 55.822411 
L 224.682314 56.661616 
L 221.402975 55.822411 
L 218.123636 55.822411 
L 214.844298 54.983205 
L 211.564959 55.822411 
L 208.28562 54.983205 
L 205.006281 54.983205 
L 201.726942 54.983205 
L 198.447603 54.983205 
L 195.168264 54.983205 
L 191.888926 55.822411 
L 188.609587 55.822411 
L 185.330248 55.822411 
L 182.050909 55.822411 
L 178.77157 55.822411 
L 175.492231 55.822411 
L 172.212893 55.822411 
L 168.933554 55.822411 
L 165.654215 55.822411 
L 162.374876 55.822411 
L 159.095537 55.822411 
L 155.816198 55.822411 
L 152.53686 55.822411 
L 149.257521 55.822411 
L 145.978182 55.822411 
L 142.698843 55.822411 
L 139.419504 55.822411 
L 136.140165 55.822411 
L 132.860826 55.822411 
L 129.581488 55.822411 
L 126.302149 55.822411 
L 123.02281 55.822411 
L 119.743471 55.822411 
L 116.464132 55.822411 
L 113.184793 55.822411 
L 109.905455 55.822411 
L 106.626116 55.822411 
L 103.346777 55.822411 
L 100.067438 55.822411 
L 96.788099 55.822411 
L 93.50876 55.822411 
L 90.229421 55.822411 
L 86.950083 55.822411 
L 83.670744 55.822411 
L 80.391405 55.822411 
L 77.112066 55.822411 
L 73.832727 55.822411 
z
" clip-path="url(#p7d21318c98)" style="fill: #ff7f0e"/>
   </g>
   <g id="matplotlib.axis_1">
    <g id="xtick_1">
     <g id="line2d_1">
      <defs>
       <path id="m5dd3e39662" d="M 0 0 
L 0 3.5 
" style="stroke: #000000; stroke-width: 0.8"/>
      </defs>
      <g>
       <use xlink:href="#m5dd3e39662" x="73.832727" y="307.584" style="stroke: #000000; stroke-width: 0.8"/>
      </g>
     </g>
     <g id="text_1">
      <!-- 0 -->
      <g transform="translate(70.651477 322.182437) scale(0.1 -0.1)">
       <defs>
        <path id="DejaVuSans-30" d="M 2034 4250 
Q 1547 4250 1301 3770 
Q 1056 3291 1056 2328 
Q 1056 1369 1301 889 
Q 1547 409 2034 409 
Q 2525 409 2770 889 
Q 3016 1369 3016 2328 
Q 3016 3291 2770 3770 
Q 2525 4250 2034 4250 
z
M 2034 4750 
Q 2819 4750 3233 4129 
Q 3647 3509 3647 2328 
Q 3647 1150 3233 529 
Q 2819 -91 2034 -91 
Q 1250 -91 836 529 
Q 422 1150 422 2328 
Q 422 3509 836 4129 
Q 1250 4750 2034 4750 
z
" transform="scale(0.015625)"/>
       </defs>
       <use xlink:href="#DejaVuSans-30"/>
      </g>
     </g>
    </g>
    <g id="xtick_2">
     <g id="line2d_2">
      <g>
       <use xlink:href="#m5dd3e39662" x="139.419504" y="307.584" style="stroke: #000000; stroke-width: 0.8"/>
      </g>
     </g>
     <g id="text_2">
      <!-- 20 -->
      <g transform="translate(133.057004 322.182437) scale(0.1 -0.1)">
       <defs>
        <path id="DejaVuSans-32" d="M 1228 531 
L 3431 531 
L 3431 0 
L 469 0 
L 469 531 
Q 828 903 1448 1529 
Q 2069 2156 2228 2338 
Q 2531 2678 2651 2914 
Q 2772 3150 2772 3378 
Q 2772 3750 2511 3984 
Q 2250 4219 1831 4219 
Q 1534 4219 1204 4116 
Q 875 4013 500 3803 
L 500 4441 
Q 881 4594 1212 4672 
Q 1544 4750 1819 4750 
Q 2544 4750 2975 4387 
Q 3406 4025 3406 3419 
Q 3406 3131 3298 2873 
Q 3191 2616 2906 2266 
Q 2828 2175 2409 1742 
Q 1991 1309 1228 531 
z
" transform="scale(0.015625)"/>
       </defs>
       <use xlink:href="#DejaVuSans-32"/>
       <use xlink:href="#DejaVuSans-30" transform="translate(63.623047 0)"/>
      </g>
     </g>
    </g>
    <g id="xtick_3">
     <g id="line2d_3">
      <g>
       <use xlink:href="#m5dd3e39662" x="205.006281" y="307.584" style="stroke: #000000; stroke-width: 0.8"/>
      </g>
     </g>
     <g id="text_3">
      <!-- 40 -->
      <g transform="translate(198.643781 322.182437) scale(0.1 -0.1)">
       <defs>
        <path id="DejaVuSans-34" d="M 2419 4116 
L 825 1625 
L 2419 1625 
L 2419 4116 
z
M 2253 4666 
L 3047 4666 
L 3047 1625 
L 3713 1625 
L 3713 1100 
L 3047 1100 
L 3047 0 
L 2419 0 
L 2419 1100 
L 313 1100 
L 313 1709 
L 2253 4666 
z
" transform="scale(0.015625)"/>
       </defs>
       <use xlink:href="#DejaVuSans-34"/>
       <use xlink:href="#DejaVuSans-30" transform="translate(63.623047 0)"/>
      </g>
     </g>
    </g>
    <g id="xtick_4">
     <g id="line2d_4">
      <g>
       <use xlink:href="#m5dd3e39662" x="270.593058" y="307.584" style="stroke: #000000; stroke-width: 0.8"/>
      </g>
     </g>
     <g id="text_4">
      <!-- 60 -->
      <g transform="translate(264.230558 322.182437) scale(0.1 -0.1)">
       <defs>
        <path id="DejaVuSans-36" d="M 2113 2584 
Q 1688 2584 1439 2293 
Q 1191 2003 1191 1497 
Q 1191 994 1439 701 
Q 1688 409 2113 409 
Q 2538 409 2786 701 
Q 3034 994 3034 1497 
Q 3034 2003 2786 2293 
Q 2538 2584 2113 2584 
z
M 3366 4563 
L 3366 3988 
Q 3128 4100 2886 4159 
Q 2644 4219 2406 4219 
Q 1781 4219 1451 3797 
Q 1122 3375 1075 2522 
Q 1259 2794 1537 2939 
Q 1816 3084 2150 3084 
Q 2853 3084 3261 2657 
Q 3669 2231 3669 1497 
Q 3669 778 3244 343 
Q 2819 -91 2113 -91 
Q 1303 -91 875 529 
Q 447 1150 447 2328 
Q 447 3434 972 4092 
Q 1497 4750 2381 4750 
Q 2619 4750 2861 4703 
Q 3103 4656 3366 4563 
z
" transform="scale(0.015625)"/>
       </defs>
       <use xlink:href="#DejaVuSans-36"/>
       <use xlink:href="#DejaVuSans-30" transform="translate(63.623047 0)"/>
      </g>
     </g>
    </g>
    <g id="xtick_5">
     <g id="line2d_5">
      <g>
       <use xlink:href="#m5dd3e39662" x="336.179835" y="307.584" style="stroke: #000000; stroke-width: 0.8"/>
      </g>
     </g>
     <g id="text_5">
      <!-- 80 -->
      <g transform="translate(329.817335 322.182437) scale(0.1 -0.1)">
       <defs>
        <path id="DejaVuSans-38" d="M 2034 2216 
Q 1584 2216 1326 1975 
Q 1069 1734 1069 1313 
Q 1069 891 1326 650 
Q 1584 409 2034 409 
Q 2484 409 2743 651 
Q 3003 894 3003 1313 
Q 3003 1734 2745 1975 
Q 2488 2216 2034 2216 
z
M 1403 2484 
Q 997 2584 770 2862 
Q 544 3141 544 3541 
Q 544 4100 942 4425 
Q 1341 4750 2034 4750 
Q 2731 4750 3128 4425 
Q 3525 4100 3525 3541 
Q 3525 3141 3298 2862 
Q 3072 2584 2669 2484 
Q 3125 2378 3379 2068 
Q 3634 1759 3634 1313 
Q 3634 634 3220 271 
Q 2806 -91 2034 -91 
Q 1263 -91 848 271 
Q 434 634 434 1313 
Q 434 1759 690 2068 
Q 947 2378 1403 2484 
z
M 1172 3481 
Q 1172 3119 1398 2916 
Q 1625 2713 2034 2713 
Q 2441 2713 2670 2916 
Q 2900 3119 2900 3481 
Q 2900 3844 2670 4047 
Q 2441 4250 2034 4250 
Q 1625 4250 1398 4047 
Q 1172 3844 1172 3481 
z
" transform="scale(0.015625)"/>
       </defs>
       <use xlink:href="#DejaVuSans-38"/>
       <use xlink:href="#DejaVuSans-30" transform="translate(63.623047 0)"/>
      </g>
     </g>
    </g>
    <g id="xtick_6">
     <g id="line2d_6">
      <g>
       <use xlink:href="#m5dd3e39662" x="401.766612" y="307.584" style="stroke: #000000; stroke-width: 0.8"/>
      </g>
     </g>
     <g id="text_6">
      <!-- 100 -->
      <g transform="translate(392.222862 322.182437) scale(0.1 -0.1)">
       <defs>
        <path id="DejaVuSans-31" d="M 794 531 
L 1825 531 
L 1825 4091 
L 703 3866 
L 703 4441 
L 1819 4666 
L 2450 4666 
L 2450 531 
L 3481 531 
L 3481 0 
L 794 0 
L 794 531 
z
" transform="scale(0.015625)"/>
       </defs>
       <use xlink:href="#DejaVuSans-31"/>
       <use xlink:href="#DejaVuSans-30" transform="translate(63.623047 0)"/>
       <use xlink:href="#DejaVuSans-30" transform="translate(127.246094 0)"/>
      </g>
     </g>
    </g>
    <g id="text_7">
     <!-- Generations -->
     <g transform="translate(205.662344 335.860562) scale(0.1 -0.1)">
      <defs>
       <path id="DejaVuSans-47" d="M 3809 666 
L 3809 1919 
L 2778 1919 
L 2778 2438 
L 4434 2438 
L 4434 434 
Q 4069 175 3628 42 
Q 3188 -91 2688 -91 
Q 1594 -91 976 548 
Q 359 1188 359 2328 
Q 359 3472 976 4111 
Q 1594 4750 2688 4750 
Q 3144 4750 3555 4637 
Q 3966 4525 4313 4306 
L 4313 3634 
Q 3963 3931 3569 4081 
Q 3175 4231 2741 4231 
Q 1884 4231 1454 3753 
Q 1025 3275 1025 2328 
Q 1025 1384 1454 906 
Q 1884 428 2741 428 
Q 3075 428 3337 486 
Q 3600 544 3809 666 
z
" transform="scale(0.015625)"/>
       <path id="DejaVuSans-65" d="M 3597 1894 
L 3597 1613 
L 953 1613 
Q 991 1019 1311 708 
Q 1631 397 2203 397 
Q 2534 397 2845 478 
Q 3156 559 3463 722 
L 3463 178 
Q 3153 47 2828 -22 
Q 2503 -91 2169 -91 
Q 1331 -91 842 396 
Q 353 884 353 1716 
Q 353 2575 817 3079 
Q 1281 3584 2069 3584 
Q 2775 3584 3186 3129 
Q 3597 2675 3597 1894 
z
M 3022 2063 
Q 3016 2534 2758 2815 
Q 2500 3097 2075 3097 
Q 1594 3097 1305 2825 
Q 1016 2553 972 2059 
L 3022 2063 
z
" transform="scale(0.015625)"/>
       <path id="DejaVuSans-6e" d="M 3513 2113 
L 3513 0 
L 2938 0 
L 2938 2094 
Q 2938 2591 2744 2837 
Q 2550 3084 2163 3084 
Q 1697 3084 1428 2787 
Q 1159 2491 1159 1978 
L 1159 0 
L 581 0 
L 581 3500 
L 1159 3500 
L 1159 2956 
Q 1366 3272 1645 3428 
Q 1925 3584 2291 3584 
Q 2894 3584 3203 3211 
Q 3513 2838 3513 2113 
z
" transform="scale(0.015625)"/>
       <path id="DejaVuSans-72" d="M 2631 2963 
Q 2534 3019 2420 3045 
Q 2306 3072 2169 3072 
Q 1681 3072 1420 2755 
Q 1159 2438 1159 1844 
L 1159 0 
L 581 0 
L 581 3500 
L 1159 3500 
L 1159 2956 
Q 1341 3275 1631 3429 
Q 1922 3584 2338 3584 
Q 2397 3584 2469 3576 
Q 2541 3569 2628 3553 
L 2631 2963 
z
" transform="scale(0.015625)"/>
       <path id="DejaVuSans-61" d="M 2194 1759 
Q 1497 1759 1228 1600 
Q 959 1441 959 1056 
Q 959 750 1161 570 
Q 1363 391 1709 391 
Q 2188 391 2477 730 
Q 2766 1069 2766 1631 
L 2766 1759 
L 2194 1759 
z
M 3341 1997 
L 3341 0 
L 2766 0 
L 2766 531 
Q 2569 213 2275 61 
Q 1981 -91 1556 -91 
Q 1019 -91 701 211 
Q 384 513 384 1019 
Q 384 1609 779 1909 
Q 1175 2209 1959 2209 
L 2766 2209 
L 2766 2266 
Q 2766 2663 2505 2880 
Q 2244 3097 1772 3097 
Q 1472 3097 1187 3025 
Q 903 2953 641 2809 
L 641 3341 
Q 956 3463 1253 3523 
Q 1550 3584 1831 3584 
Q 2591 3584 2966 3190 
Q 3341 2797 3341 1997 
z
" transform="scale(0.015625)"/>
       <path id="DejaVuSans-74" d="M 1172 4494 
L 1172 3500 
L 2356 3500 
L 2356 3053 
L 1172 3053 
L 1172 1153 
Q 1172 725 1289 603 
Q 1406 481 1766 481 
L 2356 481 
L 2356 0 
L 1766 0 
Q 1100 0 847 248 
Q 594 497 594 1153 
L 594 3053 
L 172 3053 
L 172 3500 
L 594 3500 
L 594 4494 
L 1172 4494 
z
" transform="scale(0.015625)"/>
       <path id="DejaVuSans-69" d="M 603 3500 
L 1178 3500 
L 1178 0 
L 603 0 
L 603 3500 
z
M 603 4863 
L 1178 4863 
L 1178 4134 
L 603 4134 
L 603 4863 
z
" transform="scale(0.015625)"/>
       <path id="DejaVuSans-6f" d="M 1959 3097 
Q 1497 3097 1228 2736 
Q 959 2375 959 1747 
Q 959 1119 1226 758 
Q 1494 397 1959 397 
Q 2419 397 2687 759 
Q 2956 1122 2956 1747 
Q 2956 2369 2687 2733 
Q 2419 3097 1959 3097 
z
M 1959 3584 
Q 2709 3584 3137 3096 
Q 3566 2609 3566 1747 
Q 3566 888 3137 398 
Q 2709 -91 1959 -91 
Q 1206 -91 779 398 
Q 353 888 353 1747 
Q 353 2609 779 3096 
Q 1206 3584 1959 3584 
z
" transform="scale(0.015625)"/>
       <path id="DejaVuSans-73" d="M 2834 3397 
L 2834 2853 
Q 2591 2978 2328 3040 
Q 2066 3103 1784 3103 
Q 1356 3103 1142 2972 
Q 928 2841 928 2578 
Q 928 2378 1081 2264 
Q 1234 2150 1697 2047 
L 1894 2003 
Q 2506 1872 2764 1633 
Q 3022 1394 3022 966 
Q 3022 478 2636 193 
Q 2250 -91 1575 -91 
Q 1294 -91 989 -36 
Q 684 19 347 128 
L 347 722 
Q 666 556 975 473 
Q 1284 391 1588 391 
Q 1994 391 2212 530 
Q 2431 669 2431 922 
Q 2431 1156 2273 1281 
Q 2116 1406 1581 1522 
L 1381 1569 
Q 847 1681 609 1914 
Q 372 2147 372 2553 
Q 372 3047 722 3315 
Q 1072 3584 1716 3584 
Q 2034 3584 2315 3537 
Q 2597 3491 2834 3397 
z
" transform="scale(0.015625)"/>
      </defs>
      <use xlink:href="#DejaVuSans-47"/>
      <use xlink:href="#DejaVuSans-65" transform="translate(77.490234 0)"/>
      <use xlink:href="#DejaVuSans-6e" transform="translate(139.013672 0)"/>
      <use xlink:href="#DejaVuSans-65" transform="translate(202.392578 0)"/>
      <use xlink:href="#DejaVuSans-72" transform="translate(263.916016 0)"/>
      <use xlink:href="#DejaVuSans-61" transform="translate(305.029297 0)"/>
      <use xlink:href="#DejaVuSans-74" transform="translate(366.308594 0)"/>
      <use xlink:href="#DejaVuSans-69" transform="translate(405.517578 0)"/>
      <use xlink:href="#DejaVuSans-6f" transform="translate(433.300781 0)"/>
      <use xlink:href="#DejaVuSans-6e" transform="translate(494.482422 0)"/>
      <use xlink:href="#DejaVuSans-73" transform="translate(557.861328 0)"/>
     </g>
    </g>
   </g>
   <g id="matplotlib.axis_2">
    <g id="ytick_1">
     <g id="line2d_7">
      <defs>
       <path id="mf60e7d0bb7" d="M 0 0 
L -3.5 0 
" style="stroke: #000000; stroke-width: 0.8"/>
      </defs>
      <g>
       <use xlink:href="#mf60e7d0bb7" x="57.6" y="307.584" style="stroke: #000000; stroke-width: 0.8"/>
      </g>
     </g>
     <g id="text_8">
      <!-- 0 -->
      <g transform="translate(44.2375 311.383219) scale(0.1 -0.1)">
       <use xlink:href="#DejaVuSans-30"/>
      </g>
     </g>
    </g>
    <g id="ytick_2">
     <g id="line2d_8">
      <g>
       <use xlink:href="#mf60e7d0bb7" x="57.6" y="265.623735" style="stroke: #000000; stroke-width: 0.8"/>
      </g>
     </g>
     <g id="text_9">
      <!-- 50 -->
      <g transform="translate(37.875 269.422954) scale(0.1 -0.1)">
       <defs>
        <path id="DejaVuSans-35" d="M 691 4666 
L 3169 4666 
L 3169 4134 
L 1269 4134 
L 1269 2991 
Q 1406 3038 1543 3061 
Q 1681 3084 1819 3084 
Q 2600 3084 3056 2656 
Q 3513 2228 3513 1497 
Q 3513 744 3044 326 
Q 2575 -91 1722 -91 
Q 1428 -91 1123 -41 
Q 819 9 494 109 
L 494 744 
Q 775 591 1075 516 
Q 1375 441 1709 441 
Q 2250 441 2565 725 
Q 2881 1009 2881 1497 
Q 2881 1984 2565 2268 
Q 2250 2553 1709 2553 
Q 1456 2553 1204 2497 
Q 953 2441 691 2322 
L 691 4666 
z
" transform="scale(0.015625)"/>
       </defs>
       <use xlink:href="#DejaVuSans-35"/>
       <use xlink:href="#DejaVuSans-30" transform="translate(63.623047 0)"/>
      </g>
     </g>
    </g>
    <g id="ytick_3">
     <g id="line2d_9">
      <g>
       <use xlink:href="#mf60e7d0bb7" x="57.6" y="223.66347" style="stroke: #000000; stroke-width: 0.8"/>
      </g>
     </g>
     <g id="text_10">
      <!-- 100 -->
      <g transform="translate(31.5125 227.462689) scale(0.1 -0.1)">
       <use xlink:href="#DejaVuSans-31"/>
       <use xlink:href="#DejaVuSans-30" transform="translate(63.623047 0)"/>
       <use xlink:href="#DejaVuSans-30" transform="translate(127.246094 0)"/>
      </g>
     </g>
    </g>
    <g id="ytick_4">
     <g id="line2d_10">
      <g>
       <use xlink:href="#mf60e7d0bb7" x="57.6" y="181.703205" style="stroke: #000000; stroke-width: 0.8"/>
      </g>
     </g>
     <g id="text_11">
      <!-- 150 -->
      <g transform="translate(31.5125 185.502424) scale(0.1 -0.1)">
       <use xlink:href="#DejaVuSans-31"/>
       <use xlink:href="#DejaVuSans-35" transform="translate(63.623047 0)"/>
       <use xlink:href="#DejaVuSans-30" transform="translate(127.246094 0)"/>
      </g>
     </g>
    </g>
    <g id="ytick_5">
     <g id="line2d_11">
      <g>
       <use xlink:href="#mf60e7d0bb7" x="57.6" y="139.74294" style="stroke: #000000; stroke-width: 0.8"/>
      </g>
     </g>
     <g id="text_12">
      <!-- 200 -->
      <g transform="translate(31.5125 143.542159) scale(0.1 -0.1)">
       <use xlink:href="#DejaVuSans-32"/>
       <use xlink:href="#DejaVuSans-30" transform="translate(63.623047 0)"/>
       <use xlink:href="#DejaVuSans-30" transform="translate(127.246094 0)"/>
      </g>
     </g>
    </g>
    <g id="ytick_6">
     <g id="line2d_12">
      <g>
       <use xlink:href="#mf60e7d0bb7" x="57.6" y="97.782675" style="stroke: #000000; stroke-width: 0.8"/>
      </g>
     </g>
     <g id="text_13">
      <!-- 250 -->
      <g transform="translate(31.5125 101.581894) scale(0.1 -0.1)">
       <use xlink:href="#DejaVuSans-32"/>
       <use xlink:href="#DejaVuSans-35" transform="translate(63.623047 0)"/>
       <use xlink:href="#DejaVuSans-30" transform="translate(127.246094 0)"/>
      </g>
     </g>
    </g>
    <g id="ytick_7">
     <g id="line2d_13">
      <g>
       <use xlink:href="#mf60e7d0bb7" x="57.6" y="55.822411" style="stroke: #000000; stroke-width: 0.8"/>
      </g>
     </g>
     <g id="text_14">
      <!-- 300 -->
      <g transform="translate(31.5125 59.621629) scale(0.1 -0.1)">
       <defs>
        <path id="DejaVuSans-33" d="M 2597 2516 
Q 3050 2419 3304 2112 
Q 3559 1806 3559 1356 
Q 3559 666 3084 287 
Q 2609 -91 1734 -91 
Q 1441 -91 1130 -33 
Q 819 25 488 141 
L 488 750 
Q 750 597 1062 519 
Q 1375 441 1716 441 
Q 2309 441 2620 675 
Q 2931 909 2931 1356 
Q 2931 1769 2642 2001 
Q 2353 2234 1838 2234 
L 1294 2234 
L 1294 2753 
L 1863 2753 
Q 2328 2753 2575 2939 
Q 2822 3125 2822 3475 
Q 2822 3834 2567 4026 
Q 2313 4219 1838 4219 
Q 1578 4219 1281 4162 
Q 984 4106 628 3988 
L 628 4550 
Q 988 4650 1302 4700 
Q 1616 4750 1894 4750 
Q 2613 4750 3031 4423 
Q 3450 4097 3450 3541 
Q 3450 3153 3228 2886 
Q 3006 2619 2597 2516 
z
" transform="scale(0.015625)"/>
       </defs>
       <use xlink:href="#DejaVuSans-33"/>
       <use xlink:href="#DejaVuSans-30" transform="translate(63.623047 0)"/>
       <use xlink:href="#DejaVuSans-30" transform="translate(127.246094 0)"/>
      </g>
     </g>
    </g>
    <g id="text_15">
     <!-- Size per Species -->
     <g transform="translate(25.432812 215.520969) rotate(-90) scale(0.1 -0.1)">
      <defs>
       <path id="DejaVuSans-53" d="M 3425 4513 
L 3425 3897 
Q 3066 4069 2747 4153 
Q 2428 4238 2131 4238 
Q 1616 4238 1336 4038 
Q 1056 3838 1056 3469 
Q 1056 3159 1242 3001 
Q 1428 2844 1947 2747 
L 2328 2669 
Q 3034 2534 3370 2195 
Q 3706 1856 3706 1288 
Q 3706 609 3251 259 
Q 2797 -91 1919 -91 
Q 1588 -91 1214 -16 
Q 841 59 441 206 
L 441 856 
Q 825 641 1194 531 
Q 1563 422 1919 422 
Q 2459 422 2753 634 
Q 3047 847 3047 1241 
Q 3047 1584 2836 1778 
Q 2625 1972 2144 2069 
L 1759 2144 
Q 1053 2284 737 2584 
Q 422 2884 422 3419 
Q 422 4038 858 4394 
Q 1294 4750 2059 4750 
Q 2388 4750 2728 4690 
Q 3069 4631 3425 4513 
z
" transform="scale(0.015625)"/>
       <path id="DejaVuSans-7a" d="M 353 3500 
L 3084 3500 
L 3084 2975 
L 922 459 
L 3084 459 
L 3084 0 
L 275 0 
L 275 525 
L 2438 3041 
L 353 3041 
L 353 3500 
z
" transform="scale(0.015625)"/>
       <path id="DejaVuSans-20" transform="scale(0.015625)"/>
       <path id="DejaVuSans-70" d="M 1159 525 
L 1159 -1331 
L 581 -1331 
L 581 3500 
L 1159 3500 
L 1159 2969 
Q 1341 3281 1617 3432 
Q 1894 3584 2278 3584 
Q 2916 3584 3314 3078 
Q 3713 2572 3713 1747 
Q 3713 922 3314 415 
Q 2916 -91 2278 -91 
Q 1894 -91 1617 61 
Q 1341 213 1159 525 
z
M 3116 1747 
Q 3116 2381 2855 2742 
Q 2594 3103 2138 3103 
Q 1681 3103 1420 2742 
Q 1159 2381 1159 1747 
Q 1159 1113 1420 752 
Q 1681 391 2138 391 
Q 2594 391 2855 752 
Q 3116 1113 3116 1747 
z
" transform="scale(0.015625)"/>
       <path id="DejaVuSans-63" d="M 3122 3366 
L 3122 2828 
Q 2878 2963 2633 3030 
Q 2388 3097 2138 3097 
Q 1578 3097 1268 2742 
Q 959 2388 959 1747 
Q 959 1106 1268 751 
Q 1578 397 2138 397 
Q 2388 397 2633 464 
Q 2878 531 3122 666 
L 3122 134 
Q 2881 22 2623 -34 
Q 2366 -91 2075 -91 
Q 1284 -91 818 406 
Q 353 903 353 1747 
Q 353 2603 823 3093 
Q 1294 3584 2113 3584 
Q 2378 3584 2631 3529 
Q 2884 3475 3122 3366 
z
" transform="scale(0.015625)"/>
      </defs>
      <use xlink:href="#DejaVuSans-53"/>
      <use xlink:href="#DejaVuSans-69" transform="translate(63.476562 0)"/>
      <use xlink:href="#DejaVuSans-7a" transform="translate(91.259766 0)"/>
      <use xlink:href="#DejaVuSans-65" transform="translate(143.75 0)"/>
      <use xlink:href="#DejaVuSans-20" transform="translate(205.273438 0)"/>
      <use xlink:href="#DejaVuSans-70" transform="translate(237.060547 0)"/>
      <use xlink:href="#DejaVuSans-65" transform="translate(300.537109 0)"/>
      <use xlink:href="#DejaVuSans-72" transform="translate(362.060547 0)"/>
      <use xlink:href="#DejaVuSans-20" transform="translate(403.173828 0)"/>
      <use xlink:href="#DejaVuSans-53" transform="translate(434.960938 0)"/>
      <use xlink:href="#DejaVuSans-70" transform="translate(498.4375 0)"/>
      <use xlink:href="#DejaVuSans-65" transform="translate(561.914062 0)"/>
      <use xlink:href="#DejaVuSans-63" transform="translate(623.4375 0)"/>
      <use xlink:href="#DejaVuSans-69" transform="translate(678.417969 0)"/>
      <use xlink:href="#DejaVuSans-65" transform="translate(706.201172 0)"/>
      <use xlink:href="#DejaVuSans-73" transform="translate(767.724609 0)"/>
     </g>
    </g>
   </g>
   <g id="patch_3">
    <path d="M 57.6 307.584 
L 57.6 41.472 
" style="fill: none; stroke: #000000; stroke-width: 0.8; stroke-linejoin: miter; stroke-linecap: square"/>
   </g>
   <g id="patch_4">
    <path d="M 414.72 307.584 
L 414.72 41.472 
" style="fill: none; stroke: #000000; stroke-width: 0.8; stroke-linejoin: miter; stroke-linecap: square"/>
   </g>
   <g id="patch_5">
    <path d="M 57.6 307.584 
L 414.72 307.584 
" style="fill: none; stroke: #000000; stroke-width: 0.8; stroke-linejoin: miter; stroke-linecap: square"/>
   </g>
   <g id="patch_6">
    <path d="M 57.6 41.472 
L 414.72 41.472 
" style="fill: none; stroke: #000000; stroke-width: 0.8; stroke-linejoin: miter; stroke-linecap: square"/>
   </g>
   <g id="text_16">
    <!-- Speciation -->
    <g transform="translate(204.714375 35.472) scale(0.12 -0.12)">
     <use xlink:href="#DejaVuSans-53"/>
     <use xlink:href="#DejaVuSans-70" transform="translate(63.476562 0)"/>
     <use xlink:href="#DejaVuSans-65" transform="translate(126.953125 0)"/>
     <use xlink:href="#DejaVuSans-63" transform="translate(188.476562 0)"/>
     <use xlink:href="#DejaVuSans-69" transform="translate(243.457031 0)"/>
     <use xlink:href="#DejaVuSans-61" transform="translate(271.240234 0)"/>
     <use xlink:href="#DejaVuSans-74" transform="translate(332.519531 0)"/>
     <use xlink:href="#DejaVuSans-69" transform="translate(371.728516 0)"/>
     <use xlink:href="#DejaVuSans-6f" transform="translate(399.511719 0)"/>
     <use xlink:href="#DejaVuSans-6e" transform="translate(460.693359 0)"/>
    </g>
   </g>
  </g>
 </g>
 <defs>
  <clipPath id="p7d21318c98">
   <rect x="57.6" y="41.472" width="357.12" height="266.112"/>
  </clipPath>
 </defs>
</svg>
