<?xml version="1.0" encoding="UTF-8" standalone="no"?>
<!DOCTYPE svg PUBLIC "-//W3C//DTD SVG 1.1//EN"
 "http://www.w3.org/Graphics/SVG/1.1/DTD/svg11.dtd">
<!-- Generated by graphviz version 12.2.1 (20241206.2353)
 -->
<!-- Pages: 1 -->
<svg width="650pt" height="163pt"
 viewBox="0.00 0.00 649.53 162.85" xmlns="http://www.w3.org/2000/svg" xmlns:xlink="http://www.w3.org/1999/xlink">
<g id="graph0" class="graph" transform="scale(1 1) rotate(0) translate(4 158.85)">
<polygon fill="white" stroke="none" points="-4,4 -4,-158.85 645.53,-158.85 645.53,4 -4,4"/>
<!-- &#45;1 -->
<g id="node1" class="node">
<title>&#45;1</title>
<polygon fill="lightgray" stroke="black" points="251.28,-91.92 227.78,-91.92 227.78,-73.42 251.28,-73.42 251.28,-91.92"/>
<text text-anchor="middle" x="239.53" y="-79.37" font-family="Times New Roman,serif" font-size="9.00">&#45;1</text>
</g>
<!-- 0 -->
<g id="node16" class="node">
<title>0</title>
<ellipse fill="lightblue" stroke="black" cx="217.53" cy="-14.5" rx="14.5" ry="14.5"/>
<text text-anchor="middle" x="217.53" y="-11.2" font-family="Times New Roman,serif" font-size="9.00">0</text>
</g>
<!-- &#45;1&#45;&gt;0 -->
<g id="edge1" class="edge">
<title>&#45;1&#45;&gt;0</title>
<path fill="none" stroke="red" stroke-width="0.37" d="M236.66,-73.02C233.74,-64.24 229.09,-50.27 225.11,-38.3"/>
<polygon fill="red" stroke="red" stroke-width="0.37" points="228.5,-37.39 222.02,-29.01 221.86,-39.6 228.5,-37.39"/>
</g>
<!-- 1 -->
<g id="node17" class="node">
<title>1</title>
<ellipse fill="lightblue" stroke="black" cx="386.53" cy="-14.5" rx="14.5" ry="14.5"/>
<text text-anchor="middle" x="386.53" y="-11.2" font-family="Times New Roman,serif" font-size="9.00">1</text>
</g>
<!-- &#45;1&#45;&gt;1 -->
<g id="edge2" class="edge">
<title>&#45;1&#45;&gt;1</title>
<path fill="none" stroke="red" stroke-width="0.18" stroke-dasharray="1,5" d="M248.93,-73.23C252.41,-70.37 256.5,-67.32 260.53,-64.99 294.18,-45.6 336.88,-30.62 362.94,-22.44"/>
<polygon fill="red" stroke="red" stroke-width="0.18" points="363.89,-25.8 372.43,-19.53 361.84,-19.11 363.89,-25.8"/>
</g>
<!-- &#45;2 -->
<g id="node2" class="node">
<title>&#45;2</title>
<polygon fill="lightgray" stroke="black" points="293.28,-91.92 269.78,-91.92 269.78,-73.42 293.28,-73.42 293.28,-91.92"/>
<text text-anchor="middle" x="281.53" y="-79.37" font-family="Times New Roman,serif" font-size="9.00">&#45;2</text>
</g>
<!-- &#45;2&#45;&gt;0 -->
<g id="edge3" class="edge">
<title>&#45;2&#45;&gt;0</title>
<path fill="none" stroke="red" stroke-width="0.11" stroke-dasharray="1,5" d="M273.17,-73.02C263.31,-62.83 246.69,-45.65 234.18,-32.71"/>
<polygon fill="red" stroke="red" stroke-width="0.11" points="236.95,-30.54 227.48,-25.79 231.92,-35.41 236.95,-30.54"/>
</g>
<!-- &#45;2&#45;&gt;1 -->
<g id="edge4" class="edge">
<title>&#45;2&#45;&gt;1</title>
<path fill="none" stroke="green" stroke-width="0.23" d="M291.57,-73.23C294.97,-70.5 298.85,-67.52 302.53,-64.99 323.13,-50.84 347.92,-36.55 365.2,-26.98"/>
<polygon fill="green" stroke="green" stroke-width="0.23" points="366.57,-30.23 373.66,-22.35 363.21,-24.09 366.57,-30.23"/>
</g>
<!-- &#45;3 -->
<g id="node3" class="node">
<title>&#45;3</title>
<polygon fill="lightgray" stroke="black" points="230.28,-154.85 206.78,-154.85 206.78,-136.35 230.28,-136.35 230.28,-154.85"/>
<text text-anchor="middle" x="218.53" y="-142.3" font-family="Times New Roman,serif" font-size="9.00">&#45;3</text>
</g>
<!-- &#45;3&#45;&gt;0 -->
<g id="edge5" class="edge">
<title>&#45;3&#45;&gt;0</title>
<path fill="none" stroke="green" stroke-width="0.22" d="M206.38,-143.96C165.6,-141.53 34.69,-131.39 9.53,-100.35 -41.42,-37.48 126.87,-20.78 192.47,-16.71"/>
<polygon fill="green" stroke="green" stroke-width="0.22" points="192.66,-20.2 202.44,-16.14 192.26,-13.22 192.66,-20.2"/>
</g>
<!-- 80 -->
<g id="node18" class="node">
<title>80</title>
<ellipse fill="white" stroke="black" cx="539.53" cy="-82.67" rx="17.68" ry="17.68"/>
<text text-anchor="middle" x="539.53" y="-79.37" font-family="Times New Roman,serif" font-size="9.00">80</text>
</g>
<!-- &#45;3&#45;&gt;80 -->
<g id="edge25" class="edge">
<title>&#45;3&#45;&gt;80</title>
<path fill="none" stroke="green" stroke-width="0.24" d="M230.59,-142.86C267.37,-137.5 381.26,-120.34 474.53,-100.35 487.09,-97.65 500.89,-94.19 512.53,-91.11"/>
<polygon fill="green" stroke="green" stroke-width="0.24" points="513.41,-94.5 522.16,-88.53 511.59,-87.74 513.41,-94.5"/>
</g>
<!-- &#45;4 -->
<g id="node4" class="node">
<title>&#45;4</title>
<polygon fill="lightgray" stroke="black" points="595.28,-154.85 571.78,-154.85 571.78,-136.35 595.28,-136.35 595.28,-154.85"/>
<text text-anchor="middle" x="583.53" y="-142.3" font-family="Times New Roman,serif" font-size="9.00">&#45;4</text>
</g>
<!-- &#45;5 -->
<g id="node5" class="node">
<title>&#45;5</title>
<polygon fill="lightgray" stroke="black" points="335.28,-91.92 311.78,-91.92 311.78,-73.42 335.28,-73.42 335.28,-91.92"/>
<text text-anchor="middle" x="323.53" y="-79.37" font-family="Times New Roman,serif" font-size="9.00">&#45;5</text>
</g>
<!-- &#45;5&#45;&gt;0 -->
<g id="edge6" class="edge">
<title>&#45;5&#45;&gt;0</title>
<path fill="none" stroke="red" stroke-width="0.18" d="M313.5,-73.22C310.1,-70.49 306.22,-67.51 302.53,-64.99 281.71,-50.77 256.63,-36.49 239.13,-26.95"/>
<polygon fill="red" stroke="red" stroke-width="0.18" points="240.96,-23.96 230.5,-22.29 237.64,-30.12 240.96,-23.96"/>
</g>
<!-- &#45;5&#45;&gt;1 -->
<g id="edge7" class="edge">
<title>&#45;5&#45;&gt;1</title>
<path fill="none" stroke="green" stroke-width="0.11" stroke-dasharray="1,5" d="M331.77,-73.02C341.47,-62.83 357.83,-45.65 370.14,-32.71"/>
<polygon fill="green" stroke="green" stroke-width="0.11" points="372.37,-35.45 376.73,-25.79 367.3,-30.62 372.37,-35.45"/>
</g>
<!-- &#45;6 -->
<g id="node6" class="node">
<title>&#45;6</title>
<polygon fill="lightgray" stroke="black" points="377.28,-91.92 353.78,-91.92 353.78,-73.42 377.28,-73.42 377.28,-91.92"/>
<text text-anchor="middle" x="365.53" y="-79.37" font-family="Times New Roman,serif" font-size="9.00">&#45;6</text>
</g>
<!-- &#45;6&#45;&gt;0 -->
<g id="edge8" class="edge">
<title>&#45;6&#45;&gt;0</title>
<path fill="none" stroke="green" stroke-width="0.29" d="M356.14,-73.22C352.66,-70.36 348.57,-67.31 344.53,-64.99 310.63,-45.52 267.58,-30.56 241.32,-22.4"/>
<polygon fill="green" stroke="green" stroke-width="0.29" points="242.49,-19.1 231.91,-19.55 240.47,-25.8 242.49,-19.1"/>
</g>
<!-- &#45;6&#45;&gt;1 -->
<g id="edge9" class="edge">
<title>&#45;6&#45;&gt;1</title>
<path fill="none" stroke="red" stroke-width="0.23" stroke-dasharray="1,5" d="M368.28,-73.02C371.06,-64.24 375.5,-50.27 379.29,-38.3"/>
<polygon fill="red" stroke="red" stroke-width="0.23" points="382.62,-39.39 382.31,-28.8 375.95,-37.27 382.62,-39.39"/>
</g>
<!-- &#45;7 -->
<g id="node7" class="node">
<title>&#45;7</title>
<polygon fill="lightgray" stroke="black" points="505.28,-154.85 481.78,-154.85 481.78,-136.35 505.28,-136.35 505.28,-154.85"/>
<text text-anchor="middle" x="493.53" y="-142.3" font-family="Times New Roman,serif" font-size="9.00">&#45;7</text>
</g>
<!-- &#45;7&#45;&gt;0 -->
<g id="edge10" class="edge">
<title>&#45;7&#45;&gt;0</title>
<path fill="none" stroke="green" stroke-width="0.17" stroke-dasharray="1,5" d="M481.46,-144.36C412.75,-142.87 72.92,-133.86 42.53,-100.35 -3.69,-49.36 134.61,-25.78 192.92,-18.28"/>
<polygon fill="green" stroke="green" stroke-width="0.17" points="193.06,-21.79 202.56,-17.1 192.21,-14.84 193.06,-21.79"/>
</g>
<!-- &#45;7&#45;&gt;1 -->
<g id="edge11" class="edge">
<title>&#45;7&#45;&gt;1</title>
<path fill="none" stroke="red" stroke-width="0.17" d="M493.64,-136C493.41,-120.31 490.88,-86.66 474.53,-64.99 458.44,-43.66 430.31,-30.19 410.19,-22.77"/>
<polygon fill="red" stroke="red" stroke-width="0.17" points="411.33,-19.46 400.73,-19.52 409.05,-26.08 411.33,-19.46"/>
</g>
<!-- &#45;7&#45;&gt;80 -->
<g id="edge26" class="edge">
<title>&#45;7&#45;&gt;80</title>
<path fill="none" stroke="green" stroke-width="0.39" d="M500.12,-135.87C506.1,-127.95 515.16,-115.94 523.09,-105.44"/>
<polygon fill="green" stroke="green" stroke-width="0.39" points="525.8,-107.66 529.04,-97.57 520.22,-103.44 525.8,-107.66"/>
</g>
<!-- &#45;8 -->
<g id="node8" class="node">
<title>&#45;8</title>
<polygon fill="lightgray" stroke="black" points="419.28,-91.92 395.78,-91.92 395.78,-73.42 419.28,-73.42 419.28,-91.92"/>
<text text-anchor="middle" x="407.53" y="-79.37" font-family="Times New Roman,serif" font-size="9.00">&#45;8</text>
</g>
<!-- &#45;8&#45;&gt;0 -->
<g id="edge12" class="edge">
<title>&#45;8&#45;&gt;0</title>
<path fill="none" stroke="red" stroke-width="0.27" d="M398.25,-73.02C394.77,-70.15 390.67,-67.13 386.53,-64.99 338.28,-39.99 275.55,-25.84 241.72,-19.53"/>
<polygon fill="red" stroke="red" stroke-width="0.27" points="242.67,-16.15 232.21,-17.83 241.44,-23.04 242.67,-16.15"/>
</g>
<!-- &#45;8&#45;&gt;1 -->
<g id="edge13" class="edge">
<title>&#45;8&#45;&gt;1</title>
<path fill="none" stroke="red" stroke-width="0.32" stroke-dasharray="1,5" d="M404.79,-73.02C402,-64.24 397.57,-50.27 393.77,-38.3"/>
<polygon fill="red" stroke="red" stroke-width="0.32" points="397.16,-37.42 390.8,-28.94 390.49,-39.53 397.16,-37.42"/>
</g>
<!-- &#45;9 -->
<g id="node9" class="node">
<title>&#45;9</title>
<polygon fill="lightgray" stroke="black" points="598.28,-91.92 574.78,-91.92 574.78,-73.42 598.28,-73.42 598.28,-91.92"/>
<text text-anchor="middle" x="586.53" y="-79.37" font-family="Times New Roman,serif" font-size="9.00">&#45;9</text>
</g>
<!-- &#45;9&#45;&gt;1 -->
<g id="edge14" class="edge">
<title>&#45;9&#45;&gt;1</title>
<path fill="none" stroke="red" stroke-width="0.21" d="M577.77,-72.97C574.47,-70.09 570.54,-67.09 566.53,-64.99 514.73,-37.91 446.59,-24.42 410.83,-18.81"/>
<polygon fill="red" stroke="red" stroke-width="0.21" points="411.56,-15.38 401.15,-17.37 410.52,-22.31 411.56,-15.38"/>
</g>
<!-- &#45;10 -->
<g id="node10" class="node">
<title>&#45;10</title>
<polygon fill="lightgray" stroke="black" points="465.53,-91.92 437.53,-91.92 437.53,-73.42 465.53,-73.42 465.53,-91.92"/>
<text text-anchor="middle" x="451.53" y="-79.37" font-family="Times New Roman,serif" font-size="9.00">&#45;10</text>
</g>
<!-- &#45;10&#45;&gt;0 -->
<g id="edge15" class="edge">
<title>&#45;10&#45;&gt;0</title>
<path fill="none" stroke="green" stroke-width="0.36" d="M441.32,-72.92C437.51,-70.04 433.02,-67.04 428.53,-64.99 365.19,-36.03 283.14,-23.07 242.55,-18.12"/>
<polygon fill="green" stroke="green" stroke-width="0.36" points="243.13,-14.66 232.79,-16.99 242.32,-21.61 243.13,-14.66"/>
</g>
<!-- &#45;10&#45;&gt;1 -->
<g id="edge16" class="edge">
<title>&#45;10&#45;&gt;1</title>
<path fill="none" stroke="red" stroke-width="0.41" d="M443.03,-73.02C433.12,-62.92 416.46,-45.97 403.8,-33.07"/>
<polygon fill="red" stroke="red" stroke-width="0.41" points="406.46,-30.79 396.96,-26.11 401.47,-35.7 406.46,-30.79"/>
</g>
<!-- &#45;11 -->
<g id="node11" class="node">
<title>&#45;11</title>
<polygon fill="lightgray" stroke="black" points="553.53,-154.85 525.53,-154.85 525.53,-136.35 553.53,-136.35 553.53,-154.85"/>
<text text-anchor="middle" x="539.53" y="-142.3" font-family="Times New Roman,serif" font-size="9.00">&#45;11</text>
</g>
<!-- &#45;11&#45;&gt;0 -->
<g id="edge17" class="edge">
<title>&#45;11&#45;&gt;0</title>
<path fill="none" stroke="green" stroke-width="0.23" stroke-dasharray="1,5" d="M525.14,-139.23C521.71,-138.12 518.02,-137.07 514.53,-136.35 429.76,-118.67 184.87,-164.34 126.53,-100.35 115.95,-88.73 118.5,-78.5 126.53,-64.99 140.91,-40.81 171.68,-27.7 193.46,-21.16"/>
<polygon fill="green" stroke="green" stroke-width="0.23" points="194.26,-24.57 202.98,-18.55 192.41,-17.82 194.26,-24.57"/>
</g>
<!-- &#45;11&#45;&gt;1 -->
<g id="edge18" class="edge">
<title>&#45;11&#45;&gt;1</title>
<path fill="none" stroke="green" stroke-width="0.18" stroke-dasharray="1,5" d="M553.88,-137.36C572.04,-127.88 601.66,-111.18 607.53,-100.35 615.02,-86.53 617.35,-77.26 607.53,-64.99 583.15,-34.55 463.84,-21.56 411.37,-17.26"/>
<polygon fill="green" stroke="green" stroke-width="0.18" points="411.76,-13.78 401.52,-16.49 411.22,-20.76 411.76,-13.78"/>
</g>
<!-- &#45;11&#45;&gt;80 -->
<g id="edge27" class="edge">
<title>&#45;11&#45;&gt;80</title>
<path fill="none" stroke="green" stroke-width="0.48" d="M539.53,-135.87C539.53,-129.32 539.53,-119.97 539.53,-110.99"/>
<polygon fill="green" stroke="green" stroke-width="0.48" points="543.03,-111.15 539.53,-101.15 536.03,-111.15 543.03,-111.15"/>
</g>
<!-- &#45;12 -->
<g id="node12" class="node">
<title>&#45;12</title>
<polygon fill="lightgray" stroke="black" points="79.53,-91.92 51.53,-91.92 51.53,-73.42 79.53,-73.42 79.53,-91.92"/>
<text text-anchor="middle" x="65.53" y="-79.37" font-family="Times New Roman,serif" font-size="9.00">&#45;12</text>
</g>
<!-- &#45;12&#45;&gt;0 -->
<g id="edge19" class="edge">
<title>&#45;12&#45;&gt;0</title>
<path fill="none" stroke="green" stroke-width="0.28" d="M78.96,-73.09C83.51,-70.34 88.66,-67.4 93.53,-64.99 127.54,-48.2 168.73,-32.66 194.03,-23.62"/>
<polygon fill="green" stroke="green" stroke-width="0.28" points="195.16,-26.93 203.43,-20.31 192.83,-20.33 195.16,-26.93"/>
</g>
<!-- &#45;13 -->
<g id="node13" class="node">
<title>&#45;13</title>
<polygon fill="lightgray" stroke="black" points="163.53,-91.92 135.53,-91.92 135.53,-73.42 163.53,-73.42 163.53,-91.92"/>
<text text-anchor="middle" x="149.53" y="-79.37" font-family="Times New Roman,serif" font-size="9.00">&#45;13</text>
</g>
<!-- &#45;13&#45;&gt;0 -->
<g id="edge20" class="edge">
<title>&#45;13&#45;&gt;0</title>
<path fill="none" stroke="red" stroke-width="0.24" d="M158.42,-73.02C169.01,-62.71 186.96,-45.25 200.3,-32.27"/>
<polygon fill="red" stroke="red" stroke-width="0.24" points="202.55,-34.96 207.28,-25.48 197.67,-29.94 202.55,-34.96"/>
</g>
<!-- &#45;13&#45;&gt;1 -->
<g id="edge21" class="edge">
<title>&#45;13&#45;&gt;1</title>
<path fill="none" stroke="green" stroke-width="0.18" d="M159.29,-73.26C163.19,-70.27 167.86,-67.12 172.53,-64.99 237.07,-35.6 320.76,-22.79 361.73,-17.98"/>
<polygon fill="green" stroke="green" stroke-width="0.18" points="362.05,-21.47 371.6,-16.89 361.27,-14.51 362.05,-21.47"/>
</g>
<!-- &#45;14 -->
<g id="node14" class="node">
<title>&#45;14</title>
<polygon fill="lightgray" stroke="black" points="209.53,-91.92 181.53,-91.92 181.53,-73.42 209.53,-73.42 209.53,-91.92"/>
<text text-anchor="middle" x="195.53" y="-79.37" font-family="Times New Roman,serif" font-size="9.00">&#45;14</text>
</g>
<!-- &#45;14&#45;&gt;0 -->
<g id="edge22" class="edge">
<title>&#45;14&#45;&gt;0</title>
<path fill="none" stroke="red" stroke-width="0.32" d="M198.41,-73.02C201.33,-64.24 205.97,-50.27 209.95,-38.3"/>
<polygon fill="red" stroke="red" stroke-width="0.32" points="213.23,-39.53 213.06,-28.94 206.59,-37.32 213.23,-39.53"/>
</g>
<!-- &#45;14&#45;&gt;1 -->
<g id="edge23" class="edge">
<title>&#45;14&#45;&gt;1</title>
<path fill="none" stroke="green" stroke-width="0.16" stroke-dasharray="1,5" d="M205.81,-73.06C209.63,-70.19 214.11,-67.17 218.53,-64.99 266.79,-41.26 328.55,-26.7 362.13,-19.96"/>
<polygon fill="green" stroke="green" stroke-width="0.16" points="362.59,-23.43 371.74,-18.09 361.26,-16.56 362.59,-23.43"/>
</g>
<!-- &#45;15 -->
<g id="node15" class="node">
<title>&#45;15</title>
<polygon fill="lightgray" stroke="black" points="641.53,-154.85 613.53,-154.85 613.53,-136.35 641.53,-136.35 641.53,-154.85"/>
<text text-anchor="middle" x="627.53" y="-142.3" font-family="Times New Roman,serif" font-size="9.00">&#45;15</text>
</g>
<!-- 80&#45;&gt;1 -->
<g id="edge24" class="edge">
<title>80&#45;&gt;1</title>
<path fill="none" stroke="red" stroke-width="0.11" d="M524.05,-73.23C518.85,-70.5 512.99,-67.52 507.53,-64.99 473.87,-49.38 433.86,-33.52 409.33,-24.1"/>
<polygon fill="red" stroke="red" stroke-width="0.11" points="410.89,-20.95 400.3,-20.65 408.39,-27.49 410.89,-20.95"/>
</g>
</g>
</svg>
