<?xml version="1.0" encoding="utf-8" standalone="no"?>
<!DOCTYPE svg PUBLIC "-//W3C//DTD SVG 1.1//EN"
  "http://www.w3.org/Graphics/SVG/1.1/DTD/svg11.dtd">
<svg xmlns:xlink="http://www.w3.org/1999/xlink" width="460.8pt" height="345.6pt" viewBox="0 0 460.8 345.6" xmlns="http://www.w3.org/2000/svg" version="1.1">
 <metadata>
  <rdf:RDF xmlns:dc="http://purl.org/dc/elements/1.1/" xmlns:cc="http://creativecommons.org/ns#" xmlns:rdf="http://www.w3.org/1999/02/22-rdf-syntax-ns#">
   <cc:Work>
    <dc:type rdf:resource="http://purl.org/dc/dcmitype/StillImage"/>
    <dc:date>2025-07-09T19:17:10.492368</dc:date>
    <dc:format>image/svg+xml</dc:format>
    <dc:creator>
     <cc:Agent>
      <dc:title>Matplotlib v3.10.0, https://matplotlib.org/</dc:title>
     </cc:Agent>
    </dc:creator>
   </cc:Work>
  </rdf:RDF>
 </metadata>
 <defs>
  <style type="text/css">*{stroke-linejoin: round; stroke-linecap: butt}</style>
 </defs>
 <g id="figure_1">
  <g id="patch_1">
   <path d="M 0 345.6 
L 460.8 345.6 
L 460.8 0 
L 0 0 
z
" style="fill: #ffffff"/>
  </g>
  <g id="axes_1">
   <g id="patch_2">
    <path d="M 57.6 307.584 
L 414.72 307.584 
L 414.72 41.472 
L 57.6 41.472 
z
" style="fill: #ffffff"/>
   </g>
   <g id="matplotlib.axis_1">
    <g id="xtick_1">
     <g id="line2d_1">
      <path d="M 73.832727 307.584 
L 73.832727 41.472 
" clip-path="url(#p340f300069)" style="fill: none; stroke: #b0b0b0; stroke-width: 0.8; stroke-linecap: square"/>
     </g>
     <g id="line2d_2">
      <defs>
       <path id="mcaed6040d9" d="M 0 0 
L 0 3.5 
" style="stroke: #000000; stroke-width: 0.8"/>
      </defs>
      <g>
       <use xlink:href="#mcaed6040d9" x="73.832727" y="307.584" style="stroke: #000000; stroke-width: 0.8"/>
      </g>
     </g>
     <g id="text_1">
      <!-- 0 -->
      <g transform="translate(70.651477 322.182437) scale(0.1 -0.1)">
       <defs>
        <path id="DejaVuSans-30" d="M 2034 4250 
Q 1547 4250 1301 3770 
Q 1056 3291 1056 2328 
Q 1056 1369 1301 889 
Q 1547 409 2034 409 
Q 2525 409 2770 889 
Q 3016 1369 3016 2328 
Q 3016 3291 2770 3770 
Q 2525 4250 2034 4250 
z
M 2034 4750 
Q 2819 4750 3233 4129 
Q 3647 3509 3647 2328 
Q 3647 1150 3233 529 
Q 2819 -91 2034 -91 
Q 1250 -91 836 529 
Q 422 1150 422 2328 
Q 422 3509 836 4129 
Q 1250 4750 2034 4750 
z
" transform="scale(0.015625)"/>
       </defs>
       <use xlink:href="#DejaVuSans-30"/>
      </g>
     </g>
    </g>
    <g id="xtick_2">
     <g id="line2d_3">
      <path d="M 138.893758 307.584 
L 138.893758 41.472 
" clip-path="url(#p340f300069)" style="fill: none; stroke: #b0b0b0; stroke-width: 0.8; stroke-linecap: square"/>
     </g>
     <g id="line2d_4">
      <g>
       <use xlink:href="#mcaed6040d9" x="138.893758" y="307.584" style="stroke: #000000; stroke-width: 0.8"/>
      </g>
     </g>
     <g id="text_2">
      <!-- 100 -->
      <g transform="translate(129.350008 322.182437) scale(0.1 -0.1)">
       <defs>
        <path id="DejaVuSans-31" d="M 794 531 
L 1825 531 
L 1825 4091 
L 703 3866 
L 703 4441 
L 1819 4666 
L 2450 4666 
L 2450 531 
L 3481 531 
L 3481 0 
L 794 0 
L 794 531 
z
" transform="scale(0.015625)"/>
       </defs>
       <use xlink:href="#DejaVuSans-31"/>
       <use xlink:href="#DejaVuSans-30" transform="translate(63.623047 0)"/>
       <use xlink:href="#DejaVuSans-30" transform="translate(127.246094 0)"/>
      </g>
     </g>
    </g>
    <g id="xtick_3">
     <g id="line2d_5">
      <path d="M 203.95479 307.584 
L 203.95479 41.472 
" clip-path="url(#p340f300069)" style="fill: none; stroke: #b0b0b0; stroke-width: 0.8; stroke-linecap: square"/>
     </g>
     <g id="line2d_6">
      <g>
       <use xlink:href="#mcaed6040d9" x="203.95479" y="307.584" style="stroke: #000000; stroke-width: 0.8"/>
      </g>
     </g>
     <g id="text_3">
      <!-- 200 -->
      <g transform="translate(194.41104 322.182437) scale(0.1 -0.1)">
       <defs>
        <path id="DejaVuSans-32" d="M 1228 531 
L 3431 531 
L 3431 0 
L 469 0 
L 469 531 
Q 828 903 1448 1529 
Q 2069 2156 2228 2338 
Q 2531 2678 2651 2914 
Q 2772 3150 2772 3378 
Q 2772 3750 2511 3984 
Q 2250 4219 1831 4219 
Q 1534 4219 1204 4116 
Q 875 4013 500 3803 
L 500 4441 
Q 881 4594 1212 4672 
Q 1544 4750 1819 4750 
Q 2544 4750 2975 4387 
Q 3406 4025 3406 3419 
Q 3406 3131 3298 2873 
Q 3191 2616 2906 2266 
Q 2828 2175 2409 1742 
Q 1991 1309 1228 531 
z
" transform="scale(0.015625)"/>
       </defs>
       <use xlink:href="#DejaVuSans-32"/>
       <use xlink:href="#DejaVuSans-30" transform="translate(63.623047 0)"/>
       <use xlink:href="#DejaVuSans-30" transform="translate(127.246094 0)"/>
      </g>
     </g>
    </g>
    <g id="xtick_4">
     <g id="line2d_7">
      <path d="M 269.015821 307.584 
L 269.015821 41.472 
" clip-path="url(#p340f300069)" style="fill: none; stroke: #b0b0b0; stroke-width: 0.8; stroke-linecap: square"/>
     </g>
     <g id="line2d_8">
      <g>
       <use xlink:href="#mcaed6040d9" x="269.015821" y="307.584" style="stroke: #000000; stroke-width: 0.8"/>
      </g>
     </g>
     <g id="text_4">
      <!-- 300 -->
      <g transform="translate(259.472071 322.182437) scale(0.1 -0.1)">
       <defs>
        <path id="DejaVuSans-33" d="M 2597 2516 
Q 3050 2419 3304 2112 
Q 3559 1806 3559 1356 
Q 3559 666 3084 287 
Q 2609 -91 1734 -91 
Q 1441 -91 1130 -33 
Q 819 25 488 141 
L 488 750 
Q 750 597 1062 519 
Q 1375 441 1716 441 
Q 2309 441 2620 675 
Q 2931 909 2931 1356 
Q 2931 1769 2642 2001 
Q 2353 2234 1838 2234 
L 1294 2234 
L 1294 2753 
L 1863 2753 
Q 2328 2753 2575 2939 
Q 2822 3125 2822 3475 
Q 2822 3834 2567 4026 
Q 2313 4219 1838 4219 
Q 1578 4219 1281 4162 
Q 984 4106 628 3988 
L 628 4550 
Q 988 4650 1302 4700 
Q 1616 4750 1894 4750 
Q 2613 4750 3031 4423 
Q 3450 4097 3450 3541 
Q 3450 3153 3228 2886 
Q 3006 2619 2597 2516 
z
" transform="scale(0.015625)"/>
       </defs>
       <use xlink:href="#DejaVuSans-33"/>
       <use xlink:href="#DejaVuSans-30" transform="translate(63.623047 0)"/>
       <use xlink:href="#DejaVuSans-30" transform="translate(127.246094 0)"/>
      </g>
     </g>
    </g>
    <g id="xtick_5">
     <g id="line2d_9">
      <path d="M 334.076852 307.584 
L 334.076852 41.472 
" clip-path="url(#p340f300069)" style="fill: none; stroke: #b0b0b0; stroke-width: 0.8; stroke-linecap: square"/>
     </g>
     <g id="line2d_10">
      <g>
       <use xlink:href="#mcaed6040d9" x="334.076852" y="307.584" style="stroke: #000000; stroke-width: 0.8"/>
      </g>
     </g>
     <g id="text_5">
      <!-- 400 -->
      <g transform="translate(324.533102 322.182437) scale(0.1 -0.1)">
       <defs>
        <path id="DejaVuSans-34" d="M 2419 4116 
L 825 1625 
L 2419 1625 
L 2419 4116 
z
M 2253 4666 
L 3047 4666 
L 3047 1625 
L 3713 1625 
L 3713 1100 
L 3047 1100 
L 3047 0 
L 2419 0 
L 2419 1100 
L 313 1100 
L 313 1709 
L 2253 4666 
z
" transform="scale(0.015625)"/>
       </defs>
       <use xlink:href="#DejaVuSans-34"/>
       <use xlink:href="#DejaVuSans-30" transform="translate(63.623047 0)"/>
       <use xlink:href="#DejaVuSans-30" transform="translate(127.246094 0)"/>
      </g>
     </g>
    </g>
    <g id="xtick_6">
     <g id="line2d_11">
      <path d="M 399.137883 307.584 
L 399.137883 41.472 
" clip-path="url(#p340f300069)" style="fill: none; stroke: #b0b0b0; stroke-width: 0.8; stroke-linecap: square"/>
     </g>
     <g id="line2d_12">
      <g>
       <use xlink:href="#mcaed6040d9" x="399.137883" y="307.584" style="stroke: #000000; stroke-width: 0.8"/>
      </g>
     </g>
     <g id="text_6">
      <!-- 500 -->
      <g transform="translate(389.594133 322.182437) scale(0.1 -0.1)">
       <defs>
        <path id="DejaVuSans-35" d="M 691 4666 
L 3169 4666 
L 3169 4134 
L 1269 4134 
L 1269 2991 
Q 1406 3038 1543 3061 
Q 1681 3084 1819 3084 
Q 2600 3084 3056 2656 
Q 3513 2228 3513 1497 
Q 3513 744 3044 326 
Q 2575 -91 1722 -91 
Q 1428 -91 1123 -41 
Q 819 9 494 109 
L 494 744 
Q 775 591 1075 516 
Q 1375 441 1709 441 
Q 2250 441 2565 725 
Q 2881 1009 2881 1497 
Q 2881 1984 2565 2268 
Q 2250 2553 1709 2553 
Q 1456 2553 1204 2497 
Q 953 2441 691 2322 
L 691 4666 
z
" transform="scale(0.015625)"/>
       </defs>
       <use xlink:href="#DejaVuSans-35"/>
       <use xlink:href="#DejaVuSans-30" transform="translate(63.623047 0)"/>
       <use xlink:href="#DejaVuSans-30" transform="translate(127.246094 0)"/>
      </g>
     </g>
    </g>
    <g id="text_7">
     <!-- Generations -->
     <g transform="translate(205.662344 335.860562) scale(0.1 -0.1)">
      <defs>
       <path id="DejaVuSans-47" d="M 3809 666 
L 3809 1919 
L 2778 1919 
L 2778 2438 
L 4434 2438 
L 4434 434 
Q 4069 175 3628 42 
Q 3188 -91 2688 -91 
Q 1594 -91 976 548 
Q 359 1188 359 2328 
Q 359 3472 976 4111 
Q 1594 4750 2688 4750 
Q 3144 4750 3555 4637 
Q 3966 4525 4313 4306 
L 4313 3634 
Q 3963 3931 3569 4081 
Q 3175 4231 2741 4231 
Q 1884 4231 1454 3753 
Q 1025 3275 1025 2328 
Q 1025 1384 1454 906 
Q 1884 428 2741 428 
Q 3075 428 3337 486 
Q 3600 544 3809 666 
z
" transform="scale(0.015625)"/>
       <path id="DejaVuSans-65" d="M 3597 1894 
L 3597 1613 
L 953 1613 
Q 991 1019 1311 708 
Q 1631 397 2203 397 
Q 2534 397 2845 478 
Q 3156 559 3463 722 
L 3463 178 
Q 3153 47 2828 -22 
Q 2503 -91 2169 -91 
Q 1331 -91 842 396 
Q 353 884 353 1716 
Q 353 2575 817 3079 
Q 1281 3584 2069 3584 
Q 2775 3584 3186 3129 
Q 3597 2675 3597 1894 
z
M 3022 2063 
Q 3016 2534 2758 2815 
Q 2500 3097 2075 3097 
Q 1594 3097 1305 2825 
Q 1016 2553 972 2059 
L 3022 2063 
z
" transform="scale(0.015625)"/>
       <path id="DejaVuSans-6e" d="M 3513 2113 
L 3513 0 
L 2938 0 
L 2938 2094 
Q 2938 2591 2744 2837 
Q 2550 3084 2163 3084 
Q 1697 3084 1428 2787 
Q 1159 2491 1159 1978 
L 1159 0 
L 581 0 
L 581 3500 
L 1159 3500 
L 1159 2956 
Q 1366 3272 1645 3428 
Q 1925 3584 2291 3584 
Q 2894 3584 3203 3211 
Q 3513 2838 3513 2113 
z
" transform="scale(0.015625)"/>
       <path id="DejaVuSans-72" d="M 2631 2963 
Q 2534 3019 2420 3045 
Q 2306 3072 2169 3072 
Q 1681 3072 1420 2755 
Q 1159 2438 1159 1844 
L 1159 0 
L 581 0 
L 581 3500 
L 1159 3500 
L 1159 2956 
Q 1341 3275 1631 3429 
Q 1922 3584 2338 3584 
Q 2397 3584 2469 3576 
Q 2541 3569 2628 3553 
L 2631 2963 
z
" transform="scale(0.015625)"/>
       <path id="DejaVuSans-61" d="M 2194 1759 
Q 1497 1759 1228 1600 
Q 959 1441 959 1056 
Q 959 750 1161 570 
Q 1363 391 1709 391 
Q 2188 391 2477 730 
Q 2766 1069 2766 1631 
L 2766 1759 
L 2194 1759 
z
M 3341 1997 
L 3341 0 
L 2766 0 
L 2766 531 
Q 2569 213 2275 61 
Q 1981 -91 1556 -91 
Q 1019 -91 701 211 
Q 384 513 384 1019 
Q 384 1609 779 1909 
Q 1175 2209 1959 2209 
L 2766 2209 
L 2766 2266 
Q 2766 2663 2505 2880 
Q 2244 3097 1772 3097 
Q 1472 3097 1187 3025 
Q 903 2953 641 2809 
L 641 3341 
Q 956 3463 1253 3523 
Q 1550 3584 1831 3584 
Q 2591 3584 2966 3190 
Q 3341 2797 3341 1997 
z
" transform="scale(0.015625)"/>
       <path id="DejaVuSans-74" d="M 1172 4494 
L 1172 3500 
L 2356 3500 
L 2356 3053 
L 1172 3053 
L 1172 1153 
Q 1172 725 1289 603 
Q 1406 481 1766 481 
L 2356 481 
L 2356 0 
L 1766 0 
Q 1100 0 847 248 
Q 594 497 594 1153 
L 594 3053 
L 172 3053 
L 172 3500 
L 594 3500 
L 594 4494 
L 1172 4494 
z
" transform="scale(0.015625)"/>
       <path id="DejaVuSans-69" d="M 603 3500 
L 1178 3500 
L 1178 0 
L 603 0 
L 603 3500 
z
M 603 4863 
L 1178 4863 
L 1178 4134 
L 603 4134 
L 603 4863 
z
" transform="scale(0.015625)"/>
       <path id="DejaVuSans-6f" d="M 1959 3097 
Q 1497 3097 1228 2736 
Q 959 2375 959 1747 
Q 959 1119 1226 758 
Q 1494 397 1959 397 
Q 2419 397 2687 759 
Q 2956 1122 2956 1747 
Q 2956 2369 2687 2733 
Q 2419 3097 1959 3097 
z
M 1959 3584 
Q 2709 3584 3137 3096 
Q 3566 2609 3566 1747 
Q 3566 888 3137 398 
Q 2709 -91 1959 -91 
Q 1206 -91 779 398 
Q 353 888 353 1747 
Q 353 2609 779 3096 
Q 1206 3584 1959 3584 
z
" transform="scale(0.015625)"/>
       <path id="DejaVuSans-73" d="M 2834 3397 
L 2834 2853 
Q 2591 2978 2328 3040 
Q 2066 3103 1784 3103 
Q 1356 3103 1142 2972 
Q 928 2841 928 2578 
Q 928 2378 1081 2264 
Q 1234 2150 1697 2047 
L 1894 2003 
Q 2506 1872 2764 1633 
Q 3022 1394 3022 966 
Q 3022 478 2636 193 
Q 2250 -91 1575 -91 
Q 1294 -91 989 -36 
Q 684 19 347 128 
L 347 722 
Q 666 556 975 473 
Q 1284 391 1588 391 
Q 1994 391 2212 530 
Q 2431 669 2431 922 
Q 2431 1156 2273 1281 
Q 2116 1406 1581 1522 
L 1381 1569 
Q 847 1681 609 1914 
Q 372 2147 372 2553 
Q 372 3047 722 3315 
Q 1072 3584 1716 3584 
Q 2034 3584 2315 3537 
Q 2597 3491 2834 3397 
z
" transform="scale(0.015625)"/>
      </defs>
      <use xlink:href="#DejaVuSans-47"/>
      <use xlink:href="#DejaVuSans-65" transform="translate(77.490234 0)"/>
      <use xlink:href="#DejaVuSans-6e" transform="translate(139.013672 0)"/>
      <use xlink:href="#DejaVuSans-65" transform="translate(202.392578 0)"/>
      <use xlink:href="#DejaVuSans-72" transform="translate(263.916016 0)"/>
      <use xlink:href="#DejaVuSans-61" transform="translate(305.029297 0)"/>
      <use xlink:href="#DejaVuSans-74" transform="translate(366.308594 0)"/>
      <use xlink:href="#DejaVuSans-69" transform="translate(405.517578 0)"/>
      <use xlink:href="#DejaVuSans-6f" transform="translate(433.300781 0)"/>
      <use xlink:href="#DejaVuSans-6e" transform="translate(494.482422 0)"/>
      <use xlink:href="#DejaVuSans-73" transform="translate(557.861328 0)"/>
     </g>
    </g>
   </g>
   <g id="matplotlib.axis_2">
    <g id="ytick_1">
     <g id="line2d_13">
      <path d="M 57.6 274.460581 
L 414.72 274.460581 
" clip-path="url(#p340f300069)" style="fill: none; stroke: #b0b0b0; stroke-width: 0.8; stroke-linecap: square"/>
     </g>
     <g id="line2d_14">
      <defs>
       <path id="m0436f6e5b4" d="M 0 0 
L -3.5 0 
" style="stroke: #000000; stroke-width: 0.8"/>
      </defs>
      <g>
       <use xlink:href="#m0436f6e5b4" x="57.6" y="274.460581" style="stroke: #000000; stroke-width: 0.8"/>
      </g>
     </g>
     <g id="text_8">
      <!-- −100000 -->
      <g transform="translate(4.045313 278.2598) scale(0.1 -0.1)">
       <defs>
        <path id="DejaVuSans-2212" d="M 678 2272 
L 4684 2272 
L 4684 1741 
L 678 1741 
L 678 2272 
z
" transform="scale(0.015625)"/>
       </defs>
       <use xlink:href="#DejaVuSans-2212"/>
       <use xlink:href="#DejaVuSans-31" transform="translate(83.789062 0)"/>
       <use xlink:href="#DejaVuSans-30" transform="translate(147.412109 0)"/>
       <use xlink:href="#DejaVuSans-30" transform="translate(211.035156 0)"/>
       <use xlink:href="#DejaVuSans-30" transform="translate(274.658203 0)"/>
       <use xlink:href="#DejaVuSans-30" transform="translate(338.28125 0)"/>
       <use xlink:href="#DejaVuSans-30" transform="translate(401.904297 0)"/>
      </g>
     </g>
    </g>
    <g id="ytick_2">
     <g id="line2d_15">
      <path d="M 57.6 218.404363 
L 414.72 218.404363 
" clip-path="url(#p340f300069)" style="fill: none; stroke: #b0b0b0; stroke-width: 0.8; stroke-linecap: square"/>
     </g>
     <g id="line2d_16">
      <g>
       <use xlink:href="#m0436f6e5b4" x="57.6" y="218.404363" style="stroke: #000000; stroke-width: 0.8"/>
      </g>
     </g>
     <g id="text_9">
      <!-- 0 -->
      <g transform="translate(44.2375 222.203581) scale(0.1 -0.1)">
       <use xlink:href="#DejaVuSans-30"/>
      </g>
     </g>
    </g>
    <g id="ytick_3">
     <g id="line2d_17">
      <path d="M 57.6 162.348145 
L 414.72 162.348145 
" clip-path="url(#p340f300069)" style="fill: none; stroke: #b0b0b0; stroke-width: 0.8; stroke-linecap: square"/>
     </g>
     <g id="line2d_18">
      <g>
       <use xlink:href="#m0436f6e5b4" x="57.6" y="162.348145" style="stroke: #000000; stroke-width: 0.8"/>
      </g>
     </g>
     <g id="text_10">
      <!-- 100000 -->
      <g transform="translate(12.425 166.147363) scale(0.1 -0.1)">
       <use xlink:href="#DejaVuSans-31"/>
       <use xlink:href="#DejaVuSans-30" transform="translate(63.623047 0)"/>
       <use xlink:href="#DejaVuSans-30" transform="translate(127.246094 0)"/>
       <use xlink:href="#DejaVuSans-30" transform="translate(190.869141 0)"/>
       <use xlink:href="#DejaVuSans-30" transform="translate(254.492188 0)"/>
       <use xlink:href="#DejaVuSans-30" transform="translate(318.115234 0)"/>
      </g>
     </g>
    </g>
    <g id="ytick_4">
     <g id="line2d_19">
      <path d="M 57.6 106.291926 
L 414.72 106.291926 
" clip-path="url(#p340f300069)" style="fill: none; stroke: #b0b0b0; stroke-width: 0.8; stroke-linecap: square"/>
     </g>
     <g id="line2d_20">
      <g>
       <use xlink:href="#m0436f6e5b4" x="57.6" y="106.291926" style="stroke: #000000; stroke-width: 0.8"/>
      </g>
     </g>
     <g id="text_11">
      <!-- 200000 -->
      <g transform="translate(12.425 110.091145) scale(0.1 -0.1)">
       <use xlink:href="#DejaVuSans-32"/>
       <use xlink:href="#DejaVuSans-30" transform="translate(63.623047 0)"/>
       <use xlink:href="#DejaVuSans-30" transform="translate(127.246094 0)"/>
       <use xlink:href="#DejaVuSans-30" transform="translate(190.869141 0)"/>
       <use xlink:href="#DejaVuSans-30" transform="translate(254.492188 0)"/>
       <use xlink:href="#DejaVuSans-30" transform="translate(318.115234 0)"/>
      </g>
     </g>
    </g>
    <g id="ytick_5">
     <g id="line2d_21">
      <path d="M 57.6 50.235708 
L 414.72 50.235708 
" clip-path="url(#p340f300069)" style="fill: none; stroke: #b0b0b0; stroke-width: 0.8; stroke-linecap: square"/>
     </g>
     <g id="line2d_22">
      <g>
       <use xlink:href="#m0436f6e5b4" x="57.6" y="50.235708" style="stroke: #000000; stroke-width: 0.8"/>
      </g>
     </g>
     <g id="text_12">
      <!-- 300000 -->
      <g transform="translate(12.425 54.034927) scale(0.1 -0.1)">
       <use xlink:href="#DejaVuSans-33"/>
       <use xlink:href="#DejaVuSans-30" transform="translate(63.623047 0)"/>
       <use xlink:href="#DejaVuSans-30" transform="translate(127.246094 0)"/>
       <use xlink:href="#DejaVuSans-30" transform="translate(190.869141 0)"/>
       <use xlink:href="#DejaVuSans-30" transform="translate(254.492188 0)"/>
       <use xlink:href="#DejaVuSans-30" transform="translate(318.115234 0)"/>
      </g>
     </g>
    </g>
    <g id="text_13">
     <!-- Fitness -->
     <g transform="translate(-2.034375 191.845187) rotate(-90) scale(0.1 -0.1)">
      <defs>
       <path id="DejaVuSans-46" d="M 628 4666 
L 3309 4666 
L 3309 4134 
L 1259 4134 
L 1259 2759 
L 3109 2759 
L 3109 2228 
L 1259 2228 
L 1259 0 
L 628 0 
L 628 4666 
z
" transform="scale(0.015625)"/>
      </defs>
      <use xlink:href="#DejaVuSans-46"/>
      <use xlink:href="#DejaVuSans-69" transform="translate(50.269531 0)"/>
      <use xlink:href="#DejaVuSans-74" transform="translate(78.052734 0)"/>
      <use xlink:href="#DejaVuSans-6e" transform="translate(117.261719 0)"/>
      <use xlink:href="#DejaVuSans-65" transform="translate(180.640625 0)"/>
      <use xlink:href="#DejaVuSans-73" transform="translate(242.164062 0)"/>
      <use xlink:href="#DejaVuSans-73" transform="translate(294.263672 0)"/>
     </g>
    </g>
   </g>
   <g id="line2d_23">
    <path d="M 73.832727 196.857755 
L 74.483338 188.349385 
L 75.133948 187.392002 
L 75.784558 196.554014 
L 76.435169 176.972416 
L 77.085779 202.589689 
L 77.736389 188.358613 
L 79.68822 174.227268 
L 80.33883 183.861474 
L 80.989441 173.802499 
L 81.640051 172.919634 
L 82.290661 169.892079 
L 82.941272 171.531746 
L 83.591882 178.558883 
L 84.242492 167.177307 
L 84.893103 166.402649 
L 85.543713 170.176056 
L 86.194323 166.107069 
L 86.844934 163.806259 
L 87.495544 163.91388 
L 88.146154 164.719173 
L 88.796764 154.634173 
L 89.447375 155.698995 
L 90.097985 155.615247 
L 90.748595 161.555827 
L 91.399206 163.048815 
L 92.049816 161.700008 
L 92.700426 159.524675 
L 93.351037 154.727285 
L 94.001647 156.559833 
L 94.652257 162.977769 
L 95.302868 172.793956 
L 95.953478 161.609138 
L 96.604088 163.910468 
L 97.254698 167.972038 
L 97.905309 164.475001 
L 98.555919 159.017021 
L 99.206529 154.783423 
L 99.85714 167.750548 
L 101.15836 165.111775 
L 101.808971 164.795656 
L 102.459581 162.610412 
L 103.110191 170.186134 
L 103.760802 165.216223 
L 104.411412 164.694339 
L 105.062022 163.3609 
L 105.712633 166.078191 
L 106.363243 164.34876 
L 107.013853 163.678308 
L 107.664463 171.619328 
L 108.315074 164.717219 
L 108.965684 165.464889 
L 109.616294 161.832571 
L 110.266905 156.72559 
L 110.917515 159.610401 
L 111.568125 164.750109 
L 112.218736 155.870488 
L 112.869346 163.106761 
L 113.519956 162.726381 
L 114.170567 161.059673 
L 114.821177 161.529383 
L 115.471787 163.508415 
L 116.122398 159.859593 
L 116.773008 159.181245 
L 117.423618 153.167518 
L 118.074228 159.624657 
L 118.724839 155.814944 
L 119.375449 162.407089 
L 120.026059 155.479211 
L 121.32728 166.626646 
L 121.97789 162.721718 
L 122.628501 163.709817 
L 123.279111 159.070222 
L 123.929721 166.152207 
L 124.580332 165.930634 
L 125.230942 156.332515 
L 125.881552 159.700925 
L 126.532163 160.199111 
L 127.182773 152.162299 
L 127.833383 159.941516 
L 128.483993 153.289135 
L 129.134604 152.253647 
L 129.785214 157.078774 
L 130.435824 148.077781 
L 131.086435 159.153922 
L 131.737045 154.439545 
L 132.387655 155.719334 
L 133.038266 155.38202 
L 133.688876 150.928291 
L 134.339486 150.622298 
L 134.990097 154.126634 
L 135.640707 167.722214 
L 136.291317 156.276092 
L 136.941927 163.3137 
L 138.243148 164.524135 
L 138.893758 154.727408 
L 139.544369 161.332077 
L 140.194979 169.192652 
L 140.845589 167.541131 
L 141.4962 172.04244 
L 142.14681 168.197125 
L 142.79742 170.824439 
L 143.448031 170.108213 
L 144.098641 155.674538 
L 144.749251 157.916394 
L 145.399862 156.589482 
L 146.050472 154.903578 
L 146.701082 150.887944 
L 147.351692 154.168671 
L 148.002303 153.497666 
L 148.652913 155.613022 
L 149.303523 150.494419 
L 149.954134 153.958733 
L 150.604744 159.897464 
L 151.255354 150.343057 
L 151.905965 161.783701 
L 152.556575 159.072818 
L 153.207185 160.781149 
L 153.857796 156.301235 
L 154.508406 156.738864 
L 155.159016 159.515348 
L 155.809627 159.301764 
L 156.460237 158.485122 
L 157.110847 154.748994 
L 157.761457 160.361712 
L 158.412068 163.290547 
L 159.062678 162.612857 
L 159.713288 154.142868 
L 160.363899 167.556664 
L 161.014509 164.805716 
L 161.665119 166.164899 
L 162.31573 165.755085 
L 162.96634 167.541131 
L 163.61695 160.018295 
L 164.267561 164.234395 
L 164.918171 160.693246 
L 165.568781 155.081539 
L 166.219392 154.886132 
L 166.870002 155.178477 
L 167.520612 157.741115 
L 168.171222 153.391465 
L 168.821833 146.276856 
L 169.472443 150.127813 
L 170.123053 151.175052 
L 170.773664 159.739849 
L 171.424274 158.372146 
L 172.074884 155.526706 
L 172.725495 160.118444 
L 173.376105 165.727069 
L 174.026715 166.395092 
L 174.677326 162.770052 
L 175.327936 178.55311 
L 175.978546 168.148242 
L 176.629156 166.661386 
L 177.279767 161.195444 
L 177.930377 159.93226 
L 178.580987 161.478635 
L 179.231598 156.072278 
L 179.882208 162.425153 
L 180.532818 161.829935 
L 181.183429 157.54759 
L 181.834039 155.396064 
L 182.484649 152.416228 
L 183.13526 152.782443 
L 183.78587 153.92605 
L 185.087091 157.655384 
L 185.737701 164.350971 
L 186.388311 174.694951 
L 187.038921 166.280722 
L 187.689532 166.185659 
L 188.340142 156.030248 
L 188.990752 162.646455 
L 189.641363 156.968905 
L 190.291973 166.06913 
L 190.942583 181.146744 
L 191.593194 171.59574 
L 192.243804 176.227883 
L 192.894414 162.350025 
L 193.545025 157.506545 
L 194.195635 159.25613 
L 194.846245 160.251417 
L 195.496856 153.242718 
L 196.147466 148.788432 
L 196.798076 148.898153 
L 197.448686 147.129085 
L 198.099297 151.276876 
L 198.749907 145.244169 
L 199.400517 153.974616 
L 200.051128 155.136781 
L 200.701738 151.984953 
L 201.352348 148.027298 
L 202.002959 154.008317 
L 202.653569 155.913464 
L 203.304179 156.833268 
L 203.95479 158.111677 
L 205.25601 152.798385 
L 205.906621 156.65435 
L 206.557231 153.692894 
L 207.207841 158.454554 
L 207.858451 156.488448 
L 208.509062 153.559161 
L 209.159672 149.025141 
L 209.810282 148.020671 
L 210.460893 149.225651 
L 211.111503 149.260105 
L 211.762113 144.147818 
L 212.412724 154.481508 
L 213.063334 158.412848 
L 213.713944 161.553093 
L 215.015165 160.64274 
L 215.665775 156.823726 
L 216.316385 167.217761 
L 216.966996 154.330087 
L 217.617606 157.536242 
L 218.268216 157.687832 
L 218.918827 155.020401 
L 219.569437 159.073399 
L 220.220047 158.769093 
L 220.870658 161.011251 
L 221.521268 162.70631 
L 222.171878 162.519574 
L 222.822489 169.821406 
L 223.473099 168.092628 
L 224.123709 167.513732 
L 224.77432 167.468091 
L 225.42493 162.286689 
L 226.07554 159.740094 
L 226.72615 160.289226 
L 227.376761 154.051885 
L 228.027371 150.223483 
L 228.677981 155.109984 
L 229.328592 154.878746 
L 229.979202 148.027007 
L 230.629812 147.492717 
L 231.280423 138.963265 
L 231.931033 137.740933 
L 233.232254 142.109737 
L 233.882864 143.135872 
L 234.533474 145.344018 
L 235.184085 157.244805 
L 235.834695 146.727557 
L 237.135915 150.244812 
L 237.786526 143.980562 
L 238.437136 148.703823 
L 239.087746 150.832781 
L 239.738357 158.665877 
L 240.388967 155.740932 
L 241.039577 154.83213 
L 241.690188 163.626041 
L 242.991408 154.465748 
L 243.642019 151.330666 
L 244.292629 156.870558 
L 244.943239 156.398621 
L 245.59385 157.87834 
L 246.24446 158.464844 
L 246.89507 159.977971 
L 247.54568 160.140749 
L 248.196291 155.49157 
L 248.846901 153.541421 
L 249.497511 160.696283 
L 250.148122 161.432968 
L 250.798732 158.083623 
L 251.449342 156.184704 
L 252.099953 162.330868 
L 252.750563 161.053521 
L 253.401173 154.814247 
L 254.051784 147.36688 
L 254.702394 143.421566 
L 255.353004 144.726182 
L 256.003615 149.234523 
L 256.654225 147.796562 
L 257.304835 151.274416 
L 257.955445 147.968537 
L 258.606056 148.79823 
L 259.256666 146.846319 
L 259.907276 148.21742 
L 261.208497 152.969842 
L 261.859107 146.033271 
L 262.509718 148.856255 
L 263.160328 151.146861 
L 263.810938 156.295018 
L 264.461549 155.230374 
L 265.112159 155.293208 
L 265.762769 147.827453 
L 266.413379 156.998446 
L 267.06399 160.359399 
L 267.7146 160.279203 
L 268.36521 157.484272 
L 269.015821 152.717695 
L 269.666431 158.637408 
L 270.317041 160.760472 
L 270.967652 151.867726 
L 271.618262 145.857019 
L 272.268872 146.967888 
L 272.919483 155.406157 
L 273.570093 156.321925 
L 274.220703 160.152278 
L 274.871314 151.363116 
L 275.521924 147.170573 
L 276.172534 145.720097 
L 276.823144 137.28155 
L 277.473755 144.249943 
L 278.124365 152.933777 
L 278.774975 147.373109 
L 279.425586 159.815722 
L 280.726806 159.578003 
L 281.377417 158.779533 
L 282.028027 156.712199 
L 282.678637 157.504793 
L 283.329248 153.711934 
L 283.979858 155.172291 
L 284.630468 155.999816 
L 285.281079 151.427593 
L 285.931689 159.251048 
L 286.582299 154.256787 
L 287.232909 157.188732 
L 287.88352 158.806821 
L 288.53413 150.880039 
L 289.18474 153.907295 
L 289.835351 150.876233 
L 290.485961 151.650951 
L 291.136571 145.12178 
L 291.787182 146.039382 
L 292.437792 158.809517 
L 293.088402 154.265931 
L 293.739013 162.932002 
L 294.389623 162.766798 
L 295.040233 164.494849 
L 295.690844 164.735339 
L 296.341454 160.259783 
L 296.992064 163.892911 
L 297.642674 156.32049 
L 298.293285 152.572782 
L 298.943895 157.350249 
L 299.594505 153.454366 
L 300.245116 157.555637 
L 300.895726 148.764451 
L 302.196947 160.178759 
L 302.847557 158.31718 
L 303.498167 159.46697 
L 304.148778 161.922222 
L 304.799388 159.497376 
L 305.449998 160.302158 
L 306.100608 164.518336 
L 306.751219 163.804056 
L 307.401829 165.097565 
L 308.052439 153.700876 
L 308.70305 153.160816 
L 309.35366 154.481603 
L 310.00427 168.55148 
L 310.654881 159.728081 
L 311.956101 149.180103 
L 312.606712 158.042129 
L 313.257322 162.135867 
L 313.907932 175.801791 
L 314.558543 165.624773 
L 315.209153 162.194681 
L 316.510373 159.870144 
L 317.160984 165.626657 
L 317.811594 158.598834 
L 319.112815 167.631169 
L 319.763425 162.788125 
L 320.414035 169.365017 
L 321.064646 166.552116 
L 321.715256 170.986021 
L 322.365866 173.697327 
L 323.016477 168.94795 
L 323.667087 167.734494 
L 324.317697 174.562892 
L 324.968308 164.376675 
L 325.618918 165.424946 
L 326.269528 170.650147 
L 326.920138 162.174143 
L 327.570749 161.725539 
L 328.221359 160.279668 
L 328.871969 156.865727 
L 329.52258 152.678434 
L 330.17319 147.07328 
L 330.8238 152.642513 
L 331.474411 152.56964 
L 332.125021 150.289769 
L 332.775631 155.099279 
L 333.426242 156.172846 
L 334.076852 160.490771 
L 334.727462 155.176036 
L 335.378073 148.375727 
L 336.028683 157.396698 
L 336.679293 152.222709 
L 337.329903 143.496657 
L 337.980514 145.975033 
L 338.631124 149.532399 
L 339.281734 144.730522 
L 339.932345 151.597517 
L 340.582955 148.587967 
L 341.233565 149.271515 
L 341.884176 151.974399 
L 342.534786 165.443145 
L 343.185396 161.433779 
L 343.836007 149.258669 
L 344.486617 153.874994 
L 345.137227 149.973077 
L 345.787837 149.7235 
L 346.438448 148.502616 
L 347.089058 148.342475 
L 348.390279 140.082584 
L 349.040889 149.375806 
L 349.691499 140.570305 
L 350.34211 145.682951 
L 350.99272 137.250847 
L 351.64333 143.974615 
L 352.293941 132.632643 
L 352.944551 140.139711 
L 353.595161 138.490951 
L 354.245772 144.266926 
L 354.896382 143.052576 
L 355.546992 136.078894 
L 356.197602 136.185858 
L 356.848213 134.470562 
L 357.498823 150.565696 
L 358.149433 150.957578 
L 358.800044 150.593212 
L 359.450654 149.570974 
L 360.101264 152.436907 
L 360.751875 151.850269 
L 361.402485 149.837041 
L 362.053095 144.9804 
L 362.703706 144.536667 
L 363.354316 146.981662 
L 364.004926 144.382676 
L 365.306147 149.8665 
L 365.956757 151.691247 
L 366.607367 147.826305 
L 367.257978 152.671423 
L 368.559198 147.220725 
L 369.209809 156.653921 
L 370.511029 146.84969 
L 371.16164 145.123366 
L 371.81225 142.168517 
L 372.46286 149.469449 
L 373.113471 150.850972 
L 373.764081 148.774612 
L 374.414691 153.429018 
L 375.065302 148.247105 
L 375.715912 148.817024 
L 376.366522 144.430396 
L 377.017132 152.401297 
L 377.667743 155.030509 
L 378.318353 152.498533 
L 378.968963 156.054728 
L 379.619574 148.661476 
L 380.270184 150.759988 
L 380.920794 153.581814 
L 381.571405 153.371512 
L 382.222015 150.736787 
L 382.872625 151.138683 
L 383.523236 148.311181 
L 384.173846 155.713899 
L 384.824456 157.25769 
L 385.475066 158.037603 
L 386.125677 155.626837 
L 386.776287 149.828974 
L 387.426897 152.957372 
L 388.077508 149.857776 
L 388.728118 149.218056 
L 389.378728 146.737526 
L 390.029339 148.069915 
L 390.679949 146.19871 
L 391.330559 145.76188 
L 391.98117 141.380746 
L 392.63178 145.366084 
L 393.28239 148.006699 
L 393.933001 149.9234 
L 394.583611 153.687716 
L 395.234221 156.591628 
L 395.884831 147.666901 
L 396.535442 151.348152 
L 397.186052 150.190913 
L 398.487273 141.514802 
L 398.487273 141.514802 
" clip-path="url(#p340f300069)" style="fill: none; stroke: #0000ff; stroke-width: 1.5; stroke-linecap: square"/>
   </g>
   <g id="line2d_24">
    <path d="M 73.832727 229.40652 
L 74.483338 258.643481 
L 75.133948 262.687415 
L 75.784558 277.543076 
L 76.435169 232.063306 
L 77.085779 295.488 
L 77.736389 267.499933 
L 78.386999 256.601303 
L 79.03761 226.946804 
L 79.68822 226.369958 
L 80.33883 239.894147 
L 80.989441 232.802563 
L 81.640051 232.517964 
L 82.290661 231.036488 
L 82.941272 237.498739 
L 83.591882 262.488324 
L 84.242492 222.647495 
L 84.893103 219.901564 
L 85.543713 264.104912 
L 86.194323 266.506632 
L 87.495544 237.566972 
L 88.146154 234.760466 
L 88.796764 221.872193 
L 89.447375 223.056437 
L 90.097985 215.496416 
L 90.748595 219.855261 
L 91.399206 217.068488 
L 92.049816 240.277212 
L 92.700426 212.15407 
L 93.351037 207.042575 
L 94.001647 218.944837 
L 94.652257 235.267597 
L 95.302868 261.986556 
L 95.953478 234.684753 
L 96.604088 226.75393 
L 97.254698 222.999667 
L 97.905309 222.731067 
L 98.555919 210.406556 
L 99.206529 204.01274 
L 99.85714 245.941019 
L 100.50775 229.904824 
L 101.15836 224.622276 
L 101.808971 227.01723 
L 102.459581 211.918737 
L 103.110191 247.146103 
L 103.760802 238.603793 
L 104.411412 218.108992 
L 105.062022 218.908765 
L 105.712633 229.766751 
L 106.363243 237.733553 
L 107.013853 218.833442 
L 107.664463 237.572461 
L 108.315074 217.259619 
L 108.965684 233.181137 
L 109.616294 214.578454 
L 110.266905 210.46038 
L 110.917515 223.751871 
L 111.568125 218.840285 
L 112.218736 222.857748 
L 112.869346 221.241001 
L 113.519956 229.145006 
L 114.170567 213.481912 
L 114.821177 222.874956 
L 115.471787 219.123652 
L 116.122398 229.158538 
L 116.773008 210.393136 
L 117.423618 202.516772 
L 118.074228 237.468471 
L 118.724839 216.710516 
L 119.375449 217.57403 
L 120.026059 208.827605 
L 120.67667 242.178976 
L 121.32728 239.533588 
L 121.97789 230.85091 
L 122.628501 242.864712 
L 123.279111 223.501021 
L 123.929721 242.328528 
L 124.580332 250.267897 
L 125.230942 206.955291 
L 125.881552 244.853769 
L 126.532163 236.807447 
L 127.182773 217.6869 
L 127.833383 225.668056 
L 128.483993 231.825083 
L 129.134604 208.868449 
L 129.785214 222.506153 
L 130.435824 206.35833 
L 131.086435 238.814846 
L 131.737045 208.811658 
L 132.387655 227.682787 
L 133.038266 227.029014 
L 133.688876 206.057409 
L 134.339486 200.730442 
L 134.990097 220.754334 
L 135.640707 244.839977 
L 136.291317 219.136413 
L 136.941927 235.099394 
L 137.592538 226.135958 
L 138.243148 234.431903 
L 138.893758 208.974806 
L 139.544369 232.955768 
L 140.194979 245.823517 
L 140.845589 238.734918 
L 141.4962 255.964211 
L 142.14681 238.695283 
L 142.79742 233.375209 
L 143.448031 246.525502 
L 144.098641 208.725976 
L 144.749251 228.427019 
L 145.399862 212.477826 
L 146.050472 225.340792 
L 146.701082 211.67396 
L 147.351692 211.388049 
L 148.002303 230.164855 
L 148.652913 211.236407 
L 149.303523 213.917159 
L 149.954134 218.529681 
L 150.604744 241.440827 
L 151.255354 211.166613 
L 151.905965 237.574658 
L 152.556575 214.344668 
L 153.207185 226.707823 
L 153.857796 218.80944 
L 154.508406 212.793319 
L 155.159016 214.93402 
L 155.809627 243.591838 
L 156.460237 226.695893 
L 157.110847 214.118257 
L 157.761457 221.943515 
L 158.412068 231.563173 
L 159.062678 219.048836 
L 159.713288 214.711901 
L 160.363899 256.09131 
L 161.014509 236.731556 
L 161.665119 242.328922 
L 162.31573 245.481847 
L 162.96634 253.447178 
L 163.61695 235.069145 
L 164.267561 243.015509 
L 164.918171 212.623316 
L 165.568781 208.285404 
L 166.219392 235.684936 
L 166.870002 209.936661 
L 167.520612 238.742726 
L 168.171222 208.708343 
L 168.821833 206.511606 
L 169.472443 205.079791 
L 170.123053 208.464181 
L 170.773664 265.911698 
L 171.424274 226.548117 
L 172.074884 218.496347 
L 172.725495 223.374232 
L 173.376105 239.040861 
L 174.026715 243.055437 
L 174.677326 242.163457 
L 175.327936 290.96702 
L 176.629156 230.34239 
L 177.279767 229.93103 
L 177.930377 214.008445 
L 178.580987 226.504382 
L 179.231598 217.954669 
L 179.882208 227.446157 
L 180.532818 219.888579 
L 181.183429 230.734058 
L 181.834039 210.33399 
L 182.484649 213.001977 
L 183.13526 207.290068 
L 183.78587 207.280091 
L 184.43648 215.427356 
L 185.087091 212.568605 
L 185.737701 255.196899 
L 186.388311 242.012097 
L 187.038921 247.924116 
L 187.689532 219.198018 
L 188.340142 210.357376 
L 188.990752 241.210386 
L 189.641363 225.003685 
L 190.291973 235.005302 
L 190.942583 292.899715 
L 191.593194 253.463415 
L 192.243804 276.829088 
L 192.894414 219.680415 
L 193.545025 235.618179 
L 194.195635 239.425903 
L 194.846245 219.787511 
L 195.496856 206.848026 
L 196.147466 207.602231 
L 196.798076 202.984865 
L 197.448686 200.505554 
L 198.099297 235.042597 
L 198.749907 215.241904 
L 199.400517 215.516221 
L 200.051128 229.585845 
L 200.701738 204.633965 
L 201.352348 211.918564 
L 202.002959 217.943975 
L 202.653569 220.359499 
L 203.304179 211.693211 
L 203.95479 229.59253 
L 204.6054 207.708231 
L 205.25601 217.613374 
L 206.557231 205.332013 
L 207.207841 226.326944 
L 207.858451 212.885778 
L 208.509062 204.898318 
L 209.159672 198.681253 
L 209.810282 202.72553 
L 210.460893 199.594585 
L 211.111503 202.463954 
L 211.762113 193.085479 
L 212.412724 230.056963 
L 213.063334 217.863281 
L 213.713944 215.476962 
L 214.364555 234.988812 
L 215.015165 211.437351 
L 215.665775 228.593679 
L 216.316385 230.217532 
L 216.966996 205.369145 
L 217.617606 226.895919 
L 218.268216 214.5085 
L 218.918827 205.093099 
L 219.569437 233.301985 
L 220.220047 217.708317 
L 220.870658 219.051519 
L 221.521268 211.171488 
L 222.171878 226.270978 
L 222.822489 228.836158 
L 223.473099 224.143729 
L 224.123709 234.074676 
L 224.77432 235.862388 
L 225.42493 213.734255 
L 226.07554 234.705895 
L 226.72615 211.876262 
L 227.376761 204.727178 
L 228.027371 201.764968 
L 228.677981 225.97941 
L 229.979202 200.810214 
L 230.629812 212.932309 
L 231.280423 187.44417 
L 231.931033 205.2202 
L 232.581643 190.363786 
L 233.232254 192.984606 
L 233.882864 196.691221 
L 234.533474 218.872374 
L 235.184085 246.442425 
L 235.834695 198.337379 
L 236.485305 203.426531 
L 237.135915 220.002347 
L 237.786526 195.00015 
L 238.437136 205.231492 
L 239.087746 229.830118 
L 239.738357 212.145234 
L 240.388967 211.134688 
L 241.039577 234.298587 
L 242.340798 213.128867 
L 243.642019 202.709698 
L 244.292629 224.162169 
L 244.943239 208.780834 
L 245.59385 213.221192 
L 246.24446 238.029981 
L 246.89507 227.103916 
L 247.54568 212.420107 
L 248.196291 207.43245 
L 248.846901 214.959619 
L 249.497511 213.469574 
L 250.148122 225.840752 
L 250.798732 210.537656 
L 251.449342 208.529218 
L 252.099953 229.784807 
L 253.401173 207.661397 
L 254.051784 198.059434 
L 254.702394 195.613116 
L 255.353004 195.547479 
L 256.003615 200.76871 
L 256.654225 200.226134 
L 257.304835 218.038525 
L 257.955445 198.419019 
L 258.606056 200.74741 
L 259.256666 197.002741 
L 259.907276 199.505538 
L 260.557887 225.865753 
L 261.208497 204.151272 
L 261.859107 194.849607 
L 262.509718 202.138221 
L 263.160328 206.093028 
L 264.461549 219.554559 
L 265.112159 207.241699 
L 265.762769 197.797779 
L 266.413379 214.967312 
L 267.06399 221.504663 
L 267.7146 221.066569 
L 268.36521 210.485888 
L 269.015821 211.000048 
L 269.666431 231.77045 
L 270.317041 215.589117 
L 271.618262 196.038399 
L 272.919483 213.501297 
L 273.570093 215.449887 
L 274.220703 228.662498 
L 274.871314 201.657897 
L 275.521924 221.780232 
L 276.172534 196.815195 
L 276.823144 184.782463 
L 278.124365 213.823016 
L 278.774975 203.359242 
L 279.425586 234.318087 
L 280.076196 224.016354 
L 280.726806 226.13384 
L 281.377417 218.555216 
L 282.028027 227.594898 
L 282.678637 224.08495 
L 283.329248 209.461396 
L 283.979858 213.685729 
L 284.630468 225.250663 
L 285.281079 211.436447 
L 285.931689 234.112933 
L 286.582299 227.275108 
L 287.232909 230.802492 
L 287.88352 217.133953 
L 288.53413 224.649165 
L 289.18474 224.174081 
L 289.835351 220.58184 
L 291.136571 197.24793 
L 291.787182 213.411022 
L 292.437792 236.133045 
L 293.088402 208.138551 
L 293.739013 233.632069 
L 294.389623 245.432553 
L 295.040233 249.226252 
L 295.690844 241.937078 
L 296.341454 219.303213 
L 296.992064 247.472862 
L 297.642674 213.497431 
L 298.293285 219.104946 
L 298.943895 242.274339 
L 299.594505 219.653413 
L 300.245116 214.798557 
L 300.895726 206.75298 
L 301.546336 227.854118 
L 302.196947 223.8601 
L 302.847557 218.269118 
L 303.498167 231.947423 
L 304.148778 219.375086 
L 304.799388 223.640547 
L 305.449998 229.025336 
L 306.100608 240.968744 
L 306.751219 234.358068 
L 307.401829 238.255334 
L 308.052439 205.749579 
L 308.70305 207.677731 
L 309.35366 244.801678 
L 310.00427 257.442328 
L 310.654881 213.115069 
L 311.305491 206.911875 
L 311.956101 206.159379 
L 312.606712 222.234181 
L 313.907932 268.551567 
L 314.558543 232.931376 
L 315.209153 217.29003 
L 315.859763 234.746077 
L 316.510373 235.56107 
L 317.160984 250.640799 
L 317.811594 208.682387 
L 318.462204 214.249131 
L 319.112815 241.428316 
L 319.763425 224.770733 
L 320.414035 233.727942 
L 321.064646 229.295171 
L 321.715256 241.904885 
L 322.365866 275.897401 
L 323.016477 253.118996 
L 323.667087 253.367368 
L 324.317697 274.98458 
L 324.968308 251.097001 
L 325.618918 252.25281 
L 326.269528 256.575871 
L 327.570749 222.187768 
L 328.221359 229.940468 
L 328.871969 210.798514 
L 329.52258 226.706038 
L 330.17319 200.557586 
L 330.8238 225.281378 
L 331.474411 205.020928 
L 332.125021 202.902454 
L 332.775631 212.252947 
L 333.426242 213.833894 
L 334.076852 242.672908 
L 334.727462 209.653276 
L 335.378073 211.494523 
L 336.028683 217.064643 
L 336.679293 205.412861 
L 337.329903 197.652862 
L 337.980514 206.820994 
L 338.631124 219.222957 
L 339.281734 200.172365 
L 339.932345 224.668407 
L 340.582955 202.686963 
L 341.233565 203.470052 
L 342.534786 252.679123 
L 343.185396 219.178918 
L 343.836007 203.494138 
L 344.486617 209.835614 
L 345.137227 205.123314 
L 345.787837 218.371095 
L 346.438448 201.363869 
L 347.089058 201.58021 
L 347.739668 193.442934 
L 348.390279 193.192531 
L 349.040889 221.186467 
L 349.691499 194.056707 
L 350.34211 201.74201 
L 350.99272 184.700345 
L 351.64333 210.026201 
L 352.293941 179.154361 
L 352.944551 191.367554 
L 353.595161 200.92933 
L 354.245772 201.943318 
L 354.896382 207.029907 
L 355.546992 184.525419 
L 356.197602 185.90857 
L 356.848213 199.511603 
L 357.498823 209.754205 
L 358.149433 209.588949 
L 358.800044 205.152858 
L 359.450654 230.491319 
L 360.101264 210.366729 
L 360.751875 216.492548 
L 361.402485 224.049295 
L 362.053095 204.685563 
L 362.703706 199.576521 
L 363.354316 203.824829 
L 364.004926 199.335784 
L 364.655537 205.962545 
L 365.306147 219.605315 
L 366.607367 217.794835 
L 367.257978 248.188603 
L 367.908588 209.448337 
L 368.559198 211.415472 
L 369.209809 239.41347 
L 369.860419 223.338764 
L 370.511029 200.394593 
L 371.16164 199.197188 
L 371.81225 194.910147 
L 372.46286 205.625506 
L 373.113471 219.183613 
L 373.764081 207.672003 
L 374.414691 208.277079 
L 375.065302 205.263518 
L 375.715912 203.638691 
L 376.366522 196.599767 
L 377.017132 229.880367 
L 377.667743 212.059557 
L 378.318353 206.475716 
L 378.968963 222.206363 
L 379.619574 209.956843 
L 380.270184 206.372905 
L 380.920794 209.446378 
L 381.571405 236.5752 
L 382.222015 212.74463 
L 382.872625 214.403143 
L 383.523236 202.326211 
L 384.173846 230.164238 
L 384.824456 232.914615 
L 385.475066 216.634128 
L 386.125677 217.7501 
L 386.776287 202.189983 
L 387.426897 209.159192 
L 388.077508 203.398374 
L 388.728118 206.984901 
L 389.378728 199.068617 
L 390.029339 206.55064 
L 390.679949 198.645317 
L 391.330559 215.776567 
L 391.98117 194.219871 
L 392.63178 210.083692 
L 393.28239 203.57088 
L 393.933001 220.1703 
L 394.583611 211.236685 
L 395.234221 211.816254 
L 395.884831 215.410245 
L 396.535442 207.110543 
L 397.186052 204.521244 
L 398.487273 192.673127 
L 398.487273 192.673127 
" clip-path="url(#p340f300069)" style="fill: none; stroke-dasharray: 9.6,2.4,1.5,2.4; stroke-dashoffset: 0; stroke: #008000; stroke-width: 1.5"/>
   </g>
   <g id="line2d_25">
    <path d="M 73.832727 164.30899 
L 74.483338 118.055289 
L 75.133948 112.096589 
L 75.784558 115.564952 
L 76.435169 121.881527 
L 77.085779 109.691378 
L 77.736389 109.217294 
L 78.386999 110.90445 
L 79.03761 131.915898 
L 79.68822 122.084578 
L 80.33883 127.828801 
L 80.989441 114.802435 
L 81.640051 113.321304 
L 82.290661 108.74767 
L 82.941272 105.564753 
L 83.591882 94.629442 
L 84.242492 111.707119 
L 84.893103 112.903734 
L 85.543713 76.2472 
L 86.194323 65.707507 
L 86.844934 76.794264 
L 87.495544 90.260787 
L 88.146154 94.67788 
L 88.796764 87.396153 
L 89.447375 88.341553 
L 90.748595 103.256392 
L 91.399206 109.029142 
L 92.049816 83.122803 
L 92.700426 106.89528 
L 93.351037 102.411995 
L 94.001647 94.174828 
L 94.652257 90.687941 
L 95.302868 83.601357 
L 95.953478 88.533523 
L 97.254698 112.944409 
L 97.905309 106.218936 
L 98.555919 107.627486 
L 99.206529 105.554106 
L 99.85714 89.560077 
L 100.50775 103.109203 
L 101.15836 105.601274 
L 101.808971 102.574082 
L 102.459581 113.302087 
L 103.110191 93.226164 
L 103.760802 91.828653 
L 104.411412 111.279686 
L 105.062022 107.813036 
L 105.712633 102.38963 
L 106.363243 90.963968 
L 107.013853 108.523174 
L 107.664463 105.666194 
L 108.315074 112.174819 
L 108.965684 97.748641 
L 109.616294 109.086687 
L 110.266905 102.9908 
L 110.917515 95.468931 
L 111.568125 110.659934 
L 112.218736 88.883227 
L 112.869346 104.972522 
L 113.519956 96.307756 
L 114.170567 108.637434 
L 114.821177 100.183809 
L 115.471787 107.893177 
L 116.122398 90.560648 
L 116.773008 107.969353 
L 117.423618 103.818264 
L 118.074228 81.780843 
L 119.375449 107.240148 
L 120.026059 102.130818 
L 120.67667 80.905527 
L 121.32728 93.719704 
L 121.97789 94.592525 
L 122.628501 84.554921 
L 123.279111 94.639424 
L 123.929721 89.975886 
L 124.580332 81.59337 
L 125.230942 105.709739 
L 125.881552 74.548081 
L 126.532163 83.590775 
L 127.182773 86.637699 
L 127.833383 94.214975 
L 128.483993 74.753188 
L 129.134604 95.638844 
L 129.785214 91.651396 
L 130.435824 89.797231 
L 131.086435 79.492998 
L 131.737045 100.067431 
L 132.387655 83.755881 
L 133.038266 83.735025 
L 133.688876 95.799173 
L 134.339486 100.514155 
L 134.990097 87.498933 
L 136.291317 93.415771 
L 136.941927 91.528006 
L 137.592538 101.727026 
L 138.243148 94.616366 
L 138.893758 100.480011 
L 139.544369 89.708387 
L 140.194979 92.561787 
L 140.845589 96.347344 
L 141.4962 88.120669 
L 142.79742 108.273668 
L 143.448031 93.690923 
L 144.098641 102.6231 
L 144.749251 87.405768 
L 145.399862 100.701137 
L 146.050472 84.466364 
L 146.701082 90.101927 
L 147.351692 96.949293 
L 148.002303 76.830478 
L 148.652913 99.989638 
L 149.303523 87.07168 
L 149.954134 89.387786 
L 150.604744 78.354101 
L 151.255354 89.5195 
L 151.905965 85.992743 
L 152.556575 103.800968 
L 153.207185 94.854476 
L 153.857796 93.793031 
L 154.508406 100.684409 
L 155.159016 104.096676 
L 155.809627 75.01169 
L 156.460237 90.274352 
L 157.110847 95.379731 
L 157.761457 98.77991 
L 158.412068 95.01792 
L 159.062678 106.176877 
L 160.363899 79.022018 
L 161.014509 92.879876 
L 161.665119 90.000877 
L 162.96634 81.635085 
L 163.61695 84.967445 
L 164.267561 85.453282 
L 164.918171 108.763176 
L 165.568781 101.877673 
L 166.219392 74.087328 
L 166.870002 100.420293 
L 167.520612 76.739504 
L 168.171222 98.074586 
L 168.821833 86.042107 
L 169.472443 95.175835 
L 170.123053 93.885923 
L 170.773664 53.568 
L 171.424274 90.196175 
L 172.074884 92.557066 
L 172.725495 96.862657 
L 173.376105 92.413276 
L 174.026715 89.734747 
L 174.677326 83.376648 
L 175.327936 66.139199 
L 175.978546 76.409062 
L 176.629156 102.980382 
L 177.279767 92.459857 
L 177.930377 105.856074 
L 178.580987 96.452888 
L 179.231598 94.189887 
L 179.882208 97.404148 
L 180.532818 103.771291 
L 181.183429 84.361121 
L 181.834039 100.458139 
L 182.484649 91.830478 
L 183.13526 98.274818 
L 183.78587 100.572009 
L 184.43648 96.051767 
L 185.087091 102.742164 
L 185.737701 73.505043 
L 186.388311 107.377805 
L 187.038921 84.637327 
L 187.689532 113.1733 
L 188.340142 101.70312 
L 188.990752 84.082525 
L 189.641363 88.934125 
L 190.291973 97.132958 
L 190.942583 69.393774 
L 191.593194 89.728066 
L 192.243804 75.626678 
L 192.894414 105.019635 
L 193.545025 79.394911 
L 194.195635 79.086356 
L 194.846245 100.715323 
L 195.496856 99.637411 
L 196.147466 89.974633 
L 196.798076 94.811441 
L 197.448686 93.752617 
L 198.099297 67.511156 
L 198.749907 75.246434 
L 199.400517 92.433011 
L 200.051128 80.687717 
L 200.701738 99.33594 
L 201.352348 84.136032 
L 202.002959 90.072658 
L 202.653569 91.46743 
L 203.304179 101.973326 
L 203.95479 86.630825 
L 204.6054 102.991493 
L 205.25601 87.983396 
L 205.906621 102.166558 
L 206.557231 102.053774 
L 207.207841 90.582164 
L 207.858451 100.091118 
L 208.509062 102.220005 
L 209.159672 99.369029 
L 209.810282 93.315813 
L 210.460893 98.856716 
L 211.111503 96.056257 
L 211.762113 95.210157 
L 212.412724 78.906052 
L 213.063334 98.962414 
L 213.713944 107.629224 
L 214.364555 87.171768 
L 215.015165 109.848128 
L 215.665775 85.053773 
L 216.316385 104.217991 
L 216.966996 103.291029 
L 217.617606 88.176566 
L 218.268216 100.867163 
L 218.918827 104.947703 
L 219.569437 84.844813 
L 220.220047 99.829869 
L 220.870658 102.970983 
L 221.521268 114.241131 
L 222.171878 98.768169 
L 222.822489 110.806654 
L 223.473099 112.041526 
L 224.123709 100.952789 
L 224.77432 99.073794 
L 225.42493 110.839123 
L 226.07554 84.774294 
L 226.72615 108.702191 
L 228.027371 98.681999 
L 228.677981 84.240558 
L 229.328592 96.1825 
L 229.979202 95.243799 
L 230.629812 82.053125 
L 231.280423 90.482359 
L 231.931033 70.261665 
L 232.581643 89.611476 
L 233.232254 91.234868 
L 233.882864 89.580522 
L 234.533474 71.815662 
L 235.184085 68.047184 
L 235.834695 95.117734 
L 236.485305 93.723523 
L 237.135915 80.487276 
L 237.786526 92.960974 
L 238.437136 92.176154 
L 239.087746 71.835443 
L 239.738357 105.186521 
L 240.388967 100.347176 
L 241.039577 75.365672 
L 241.690188 102.719843 
L 242.340798 104.495432 
L 242.991408 100.793157 
L 243.642019 99.951634 
L 244.292629 89.578948 
L 244.943239 104.016408 
L 245.59385 102.535488 
L 246.24446 78.899708 
L 247.54568 107.861392 
L 248.196291 103.550689 
L 248.846901 92.123223 
L 249.497511 107.922991 
L 250.148122 97.025184 
L 250.798732 105.629591 
L 251.449342 103.84019 
L 252.099953 94.87693 
L 252.750563 104.283825 
L 253.401173 101.967097 
L 254.702394 91.230016 
L 255.353004 93.904886 
L 256.003615 97.700336 
L 256.654225 95.366989 
L 257.304835 84.510306 
L 257.955445 97.518056 
L 258.606056 96.84905 
L 259.256666 96.689898 
L 259.907276 96.929302 
L 260.557887 75.368219 
L 261.208497 101.788412 
L 261.859107 97.216936 
L 262.509718 95.574289 
L 263.160328 96.200694 
L 263.810938 100.085978 
L 264.461549 90.906189 
L 265.112159 103.344717 
L 265.762769 97.857126 
L 266.413379 99.029581 
L 267.7146 99.491838 
L 268.36521 104.482655 
L 269.666431 85.504366 
L 270.317041 105.931826 
L 270.967652 98.759958 
L 271.618262 95.675639 
L 272.268872 89.279471 
L 272.919483 97.311018 
L 273.570093 97.193963 
L 274.220703 91.642057 
L 274.871314 101.068335 
L 275.521924 72.560915 
L 276.172534 94.624999 
L 276.823144 89.780637 
L 277.473755 88.232443 
L 278.124365 92.044539 
L 278.774975 91.386976 
L 279.425586 85.313357 
L 280.076196 95.293705 
L 280.726806 93.022167 
L 281.377417 99.00385 
L 282.028027 85.8295 
L 282.678637 90.924636 
L 283.329248 97.962473 
L 283.979858 96.658852 
L 284.630468 86.748968 
L 285.281079 91.418739 
L 285.931689 84.389163 
L 286.582299 81.238465 
L 287.232909 83.574971 
L 287.88352 100.479689 
L 288.53413 77.110913 
L 289.18474 83.640508 
L 289.835351 81.170626 
L 290.485961 94.184811 
L 291.136571 92.995629 
L 291.787182 78.667743 
L 292.437792 81.48599 
L 293.088402 100.393312 
L 293.739013 92.231935 
L 294.389623 80.101043 
L 295.040233 79.763446 
L 295.690844 87.5336 
L 296.341454 101.216353 
L 296.992064 80.31296 
L 297.642674 99.14355 
L 298.943895 72.426158 
L 300.245116 100.312716 
L 301.546336 81.608186 
L 302.196947 96.497417 
L 302.847557 98.365242 
L 303.498167 86.986516 
L 304.148778 104.469358 
L 304.799388 95.354205 
L 306.100608 88.067927 
L 306.751219 93.250044 
L 307.401829 91.939795 
L 308.052439 101.652173 
L 308.70305 98.643902 
L 309.35366 64.161528 
L 310.00427 79.660632 
L 310.654881 106.341093 
L 311.305491 101.521585 
L 311.956101 92.200826 
L 312.606712 93.850078 
L 313.257322 76.847553 
L 313.907932 83.052015 
L 314.558543 98.31817 
L 315.209153 107.099332 
L 315.859763 87.416468 
L 317.160984 80.612515 
L 317.811594 108.515281 
L 318.462204 112.574695 
L 319.112815 93.834021 
L 319.763425 100.805516 
L 320.414035 105.002093 
L 321.064646 103.80906 
L 321.715256 100.067158 
L 322.365866 71.497254 
L 323.016477 84.776905 
L 323.667087 82.10162 
L 324.317697 74.141205 
L 324.968308 77.656349 
L 325.618918 78.597082 
L 326.269528 84.724424 
L 326.920138 86.234749 
L 327.570749 101.26331 
L 328.221359 90.618867 
L 328.871969 102.93294 
L 329.52258 78.65083 
L 330.17319 93.588974 
L 330.8238 80.003647 
L 331.474411 100.118352 
L 332.125021 97.677084 
L 332.775631 97.945611 
L 333.426242 98.511798 
L 334.076852 78.308634 
L 334.727462 100.698796 
L 335.378073 85.256931 
L 336.028683 97.728754 
L 336.679293 99.032558 
L 337.329903 89.340451 
L 337.980514 85.129071 
L 338.631124 79.841841 
L 339.281734 89.288678 
L 339.932345 78.526627 
L 340.582955 94.48897 
L 341.233565 95.072977 
L 341.884176 76.850758 
L 342.534786 78.207166 
L 343.185396 103.688639 
L 343.836007 95.023199 
L 344.486617 97.914374 
L 345.137227 94.82284 
L 345.787837 81.075904 
L 346.438448 95.641362 
L 347.739668 94.463452 
L 348.390279 86.972637 
L 349.040889 77.565145 
L 349.691499 87.083903 
L 350.34211 89.623892 
L 350.99272 89.801349 
L 351.64333 77.92303 
L 352.293941 86.110925 
L 352.944551 88.911868 
L 353.595161 76.052572 
L 354.245772 86.590533 
L 354.896382 79.075245 
L 355.546992 87.63237 
L 356.197602 86.463145 
L 356.848213 69.429521 
L 357.498823 91.377188 
L 358.149433 92.326207 
L 358.800044 96.033566 
L 359.450654 68.650628 
L 360.101264 94.507085 
L 360.751875 87.207991 
L 361.402485 75.624787 
L 362.053095 85.275236 
L 362.703706 89.496813 
L 363.354316 90.138494 
L 364.004926 89.429568 
L 364.655537 88.149452 
L 365.306147 80.127685 
L 365.956757 84.744456 
L 366.607367 77.857775 
L 367.257978 57.154243 
L 367.908588 90.166291 
L 368.559198 83.025978 
L 369.209809 73.894371 
L 369.860419 80.59184 
L 370.511029 93.304786 
L 371.16164 91.049545 
L 371.81225 89.426887 
L 372.46286 93.313392 
L 373.113471 82.518331 
L 373.764081 89.87722 
L 374.414691 98.580958 
L 375.065302 91.230691 
L 375.715912 93.995358 
L 376.366522 92.261025 
L 377.017132 74.922227 
L 377.667743 98.001461 
L 378.318353 98.52135 
L 378.968963 89.903093 
L 379.619574 87.366109 
L 380.270184 95.147071 
L 380.920794 97.71725 
L 381.571405 70.167824 
L 382.222015 88.728944 
L 382.872625 87.874223 
L 383.523236 94.296151 
L 384.173846 81.26356 
L 384.824456 81.600765 
L 385.475066 99.441079 
L 386.125677 93.503575 
L 386.776287 97.467964 
L 387.426897 96.755553 
L 388.077508 96.317179 
L 388.728118 91.451211 
L 389.378728 94.406434 
L 390.029339 89.589191 
L 390.679949 93.752104 
L 391.330559 75.747193 
L 391.98117 88.541622 
L 392.63178 80.648477 
L 393.28239 92.442518 
L 393.933001 79.676499 
L 394.583611 96.138747 
L 395.234221 101.367001 
L 395.884831 79.923557 
L 396.535442 95.585761 
L 397.186052 95.860581 
L 397.836662 92.475773 
L 398.487273 90.356478 
L 398.487273 90.356478 
" clip-path="url(#p340f300069)" style="fill: none; stroke-dasharray: 9.6,2.4,1.5,2.4; stroke-dashoffset: 0; stroke: #008000; stroke-width: 1.5"/>
   </g>
   <g id="line2d_26">
    <path d="M 73.832727 107.163857 
L 98.555919 107.160798 
L 103.760802 107.160798 
L 104.411412 104.751611 
L 109.616294 104.751611 
L 110.266905 104.301047 
L 110.917515 98.422064 
L 129.134604 98.422064 
L 129.785214 97.633884 
L 141.4962 97.633884 
L 142.14681 93.877172 
L 242.991408 93.877172 
L 243.642019 91.657181 
L 398.487273 91.657181 
L 398.487273 91.657181 
" clip-path="url(#p340f300069)" style="fill: none; stroke: #ff0000; stroke-width: 1.5; stroke-linecap: square"/>
   </g>
   <g id="patch_3">
    <path d="M 57.6 307.584 
L 57.6 41.472 
" style="fill: none; stroke: #000000; stroke-width: 0.8; stroke-linejoin: miter; stroke-linecap: square"/>
   </g>
   <g id="patch_4">
    <path d="M 414.72 307.584 
L 414.72 41.472 
" style="fill: none; stroke: #000000; stroke-width: 0.8; stroke-linejoin: miter; stroke-linecap: square"/>
   </g>
   <g id="patch_5">
    <path d="M 57.6 307.584 
L 414.72 307.584 
" style="fill: none; stroke: #000000; stroke-width: 0.8; stroke-linejoin: miter; stroke-linecap: square"/>
   </g>
   <g id="patch_6">
    <path d="M 57.6 41.472 
L 414.72 41.472 
" style="fill: none; stroke: #000000; stroke-width: 0.8; stroke-linejoin: miter; stroke-linecap: square"/>
   </g>
   <g id="text_14">
    <!-- Population's average and best fitness -->
    <g transform="translate(123.529687 35.472) scale(0.12 -0.12)">
     <defs>
      <path id="DejaVuSans-50" d="M 1259 4147 
L 1259 2394 
L 2053 2394 
Q 2494 2394 2734 2622 
Q 2975 2850 2975 3272 
Q 2975 3691 2734 3919 
Q 2494 4147 2053 4147 
L 1259 4147 
z
M 628 4666 
L 2053 4666 
Q 2838 4666 3239 4311 
Q 3641 3956 3641 3272 
Q 3641 2581 3239 2228 
Q 2838 1875 2053 1875 
L 1259 1875 
L 1259 0 
L 628 0 
L 628 4666 
z
" transform="scale(0.015625)"/>
      <path id="DejaVuSans-70" d="M 1159 525 
L 1159 -1331 
L 581 -1331 
L 581 3500 
L 1159 3500 
L 1159 2969 
Q 1341 3281 1617 3432 
Q 1894 3584 2278 3584 
Q 2916 3584 3314 3078 
Q 3713 2572 3713 1747 
Q 3713 922 3314 415 
Q 2916 -91 2278 -91 
Q 1894 -91 1617 61 
Q 1341 213 1159 525 
z
M 3116 1747 
Q 3116 2381 2855 2742 
Q 2594 3103 2138 3103 
Q 1681 3103 1420 2742 
Q 1159 2381 1159 1747 
Q 1159 1113 1420 752 
Q 1681 391 2138 391 
Q 2594 391 2855 752 
Q 3116 1113 3116 1747 
z
" transform="scale(0.015625)"/>
      <path id="DejaVuSans-75" d="M 544 1381 
L 544 3500 
L 1119 3500 
L 1119 1403 
Q 1119 906 1312 657 
Q 1506 409 1894 409 
Q 2359 409 2629 706 
Q 2900 1003 2900 1516 
L 2900 3500 
L 3475 3500 
L 3475 0 
L 2900 0 
L 2900 538 
Q 2691 219 2414 64 
Q 2138 -91 1772 -91 
Q 1169 -91 856 284 
Q 544 659 544 1381 
z
M 1991 3584 
L 1991 3584 
z
" transform="scale(0.015625)"/>
      <path id="DejaVuSans-6c" d="M 603 4863 
L 1178 4863 
L 1178 0 
L 603 0 
L 603 4863 
z
" transform="scale(0.015625)"/>
      <path id="DejaVuSans-27" d="M 1147 4666 
L 1147 2931 
L 616 2931 
L 616 4666 
L 1147 4666 
z
" transform="scale(0.015625)"/>
      <path id="DejaVuSans-20" transform="scale(0.015625)"/>
      <path id="DejaVuSans-76" d="M 191 3500 
L 800 3500 
L 1894 563 
L 2988 3500 
L 3597 3500 
L 2284 0 
L 1503 0 
L 191 3500 
z
" transform="scale(0.015625)"/>
      <path id="DejaVuSans-67" d="M 2906 1791 
Q 2906 2416 2648 2759 
Q 2391 3103 1925 3103 
Q 1463 3103 1205 2759 
Q 947 2416 947 1791 
Q 947 1169 1205 825 
Q 1463 481 1925 481 
Q 2391 481 2648 825 
Q 2906 1169 2906 1791 
z
M 3481 434 
Q 3481 -459 3084 -895 
Q 2688 -1331 1869 -1331 
Q 1566 -1331 1297 -1286 
Q 1028 -1241 775 -1147 
L 775 -588 
Q 1028 -725 1275 -790 
Q 1522 -856 1778 -856 
Q 2344 -856 2625 -561 
Q 2906 -266 2906 331 
L 2906 616 
Q 2728 306 2450 153 
Q 2172 0 1784 0 
Q 1141 0 747 490 
Q 353 981 353 1791 
Q 353 2603 747 3093 
Q 1141 3584 1784 3584 
Q 2172 3584 2450 3431 
Q 2728 3278 2906 2969 
L 2906 3500 
L 3481 3500 
L 3481 434 
z
" transform="scale(0.015625)"/>
      <path id="DejaVuSans-64" d="M 2906 2969 
L 2906 4863 
L 3481 4863 
L 3481 0 
L 2906 0 
L 2906 525 
Q 2725 213 2448 61 
Q 2172 -91 1784 -91 
Q 1150 -91 751 415 
Q 353 922 353 1747 
Q 353 2572 751 3078 
Q 1150 3584 1784 3584 
Q 2172 3584 2448 3432 
Q 2725 3281 2906 2969 
z
M 947 1747 
Q 947 1113 1208 752 
Q 1469 391 1925 391 
Q 2381 391 2643 752 
Q 2906 1113 2906 1747 
Q 2906 2381 2643 2742 
Q 2381 3103 1925 3103 
Q 1469 3103 1208 2742 
Q 947 2381 947 1747 
z
" transform="scale(0.015625)"/>
      <path id="DejaVuSans-62" d="M 3116 1747 
Q 3116 2381 2855 2742 
Q 2594 3103 2138 3103 
Q 1681 3103 1420 2742 
Q 1159 2381 1159 1747 
Q 1159 1113 1420 752 
Q 1681 391 2138 391 
Q 2594 391 2855 752 
Q 3116 1113 3116 1747 
z
M 1159 2969 
Q 1341 3281 1617 3432 
Q 1894 3584 2278 3584 
Q 2916 3584 3314 3078 
Q 3713 2572 3713 1747 
Q 3713 922 3314 415 
Q 2916 -91 2278 -91 
Q 1894 -91 1617 61 
Q 1341 213 1159 525 
L 1159 0 
L 581 0 
L 581 4863 
L 1159 4863 
L 1159 2969 
z
" transform="scale(0.015625)"/>
      <path id="DejaVuSans-66" d="M 2375 4863 
L 2375 4384 
L 1825 4384 
Q 1516 4384 1395 4259 
Q 1275 4134 1275 3809 
L 1275 3500 
L 2222 3500 
L 2222 3053 
L 1275 3053 
L 1275 0 
L 697 0 
L 697 3053 
L 147 3053 
L 147 3500 
L 697 3500 
L 697 3744 
Q 697 4328 969 4595 
Q 1241 4863 1831 4863 
L 2375 4863 
z
" transform="scale(0.015625)"/>
     </defs>
     <use xlink:href="#DejaVuSans-50"/>
     <use xlink:href="#DejaVuSans-6f" transform="translate(56.677734 0)"/>
     <use xlink:href="#DejaVuSans-70" transform="translate(117.859375 0)"/>
     <use xlink:href="#DejaVuSans-75" transform="translate(181.335938 0)"/>
     <use xlink:href="#DejaVuSans-6c" transform="translate(244.714844 0)"/>
     <use xlink:href="#DejaVuSans-61" transform="translate(272.498047 0)"/>
     <use xlink:href="#DejaVuSans-74" transform="translate(333.777344 0)"/>
     <use xlink:href="#DejaVuSans-69" transform="translate(372.986328 0)"/>
     <use xlink:href="#DejaVuSans-6f" transform="translate(400.769531 0)"/>
     <use xlink:href="#DejaVuSans-6e" transform="translate(461.951172 0)"/>
     <use xlink:href="#DejaVuSans-27" transform="translate(525.330078 0)"/>
     <use xlink:href="#DejaVuSans-73" transform="translate(552.820312 0)"/>
     <use xlink:href="#DejaVuSans-20" transform="translate(604.919922 0)"/>
     <use xlink:href="#DejaVuSans-61" transform="translate(636.707031 0)"/>
     <use xlink:href="#DejaVuSans-76" transform="translate(697.986328 0)"/>
     <use xlink:href="#DejaVuSans-65" transform="translate(757.166016 0)"/>
     <use xlink:href="#DejaVuSans-72" transform="translate(818.689453 0)"/>
     <use xlink:href="#DejaVuSans-61" transform="translate(859.802734 0)"/>
     <use xlink:href="#DejaVuSans-67" transform="translate(921.082031 0)"/>
     <use xlink:href="#DejaVuSans-65" transform="translate(984.558594 0)"/>
     <use xlink:href="#DejaVuSans-20" transform="translate(1046.082031 0)"/>
     <use xlink:href="#DejaVuSans-61" transform="translate(1077.869141 0)"/>
     <use xlink:href="#DejaVuSans-6e" transform="translate(1139.148438 0)"/>
     <use xlink:href="#DejaVuSans-64" transform="translate(1202.527344 0)"/>
     <use xlink:href="#DejaVuSans-20" transform="translate(1266.003906 0)"/>
     <use xlink:href="#DejaVuSans-62" transform="translate(1297.791016 0)"/>
     <use xlink:href="#DejaVuSans-65" transform="translate(1361.267578 0)"/>
     <use xlink:href="#DejaVuSans-73" transform="translate(1422.791016 0)"/>
     <use xlink:href="#DejaVuSans-74" transform="translate(1474.890625 0)"/>
     <use xlink:href="#DejaVuSans-20" transform="translate(1514.099609 0)"/>
     <use xlink:href="#DejaVuSans-66" transform="translate(1545.886719 0)"/>
     <use xlink:href="#DejaVuSans-69" transform="translate(1581.091797 0)"/>
     <use xlink:href="#DejaVuSans-74" transform="translate(1608.875 0)"/>
     <use xlink:href="#DejaVuSans-6e" transform="translate(1648.083984 0)"/>
     <use xlink:href="#DejaVuSans-65" transform="translate(1711.462891 0)"/>
     <use xlink:href="#DejaVuSans-73" transform="translate(1772.986328 0)"/>
     <use xlink:href="#DejaVuSans-73" transform="translate(1825.085938 0)"/>
    </g>
   </g>
   <g id="legend_1">
    <g id="patch_7">
     <path d="M 199.689687 302.584 
L 272.630313 302.584 
Q 274.630313 302.584 274.630313 300.584 
L 274.630313 242.8715 
Q 274.630313 240.8715 272.630313 240.8715 
L 199.689687 240.8715 
Q 197.689687 240.8715 197.689687 242.8715 
L 197.689687 300.584 
Q 197.689687 302.584 199.689687 302.584 
z
" style="fill: #ffffff; opacity: 0.8; stroke: #cccccc; stroke-linejoin: miter"/>
    </g>
    <g id="line2d_27">
     <path d="M 201.689687 248.969937 
L 211.689687 248.969937 
L 221.689687 248.969937 
" style="fill: none; stroke: #0000ff; stroke-width: 1.5; stroke-linecap: square"/>
    </g>
    <g id="text_15">
     <!-- average -->
     <g transform="translate(229.689687 252.469937) scale(0.1 -0.1)">
      <use xlink:href="#DejaVuSans-61"/>
      <use xlink:href="#DejaVuSans-76" transform="translate(61.279297 0)"/>
      <use xlink:href="#DejaVuSans-65" transform="translate(120.458984 0)"/>
      <use xlink:href="#DejaVuSans-72" transform="translate(181.982422 0)"/>
      <use xlink:href="#DejaVuSans-61" transform="translate(223.095703 0)"/>
      <use xlink:href="#DejaVuSans-67" transform="translate(284.375 0)"/>
      <use xlink:href="#DejaVuSans-65" transform="translate(347.851562 0)"/>
     </g>
    </g>
    <g id="line2d_28">
     <path d="M 201.689687 263.648062 
L 211.689687 263.648062 
L 221.689687 263.648062 
" style="fill: none; stroke-dasharray: 9.6,2.4,1.5,2.4; stroke-dashoffset: 0; stroke: #008000; stroke-width: 1.5"/>
    </g>
    <g id="text_16">
     <!-- -1 sd -->
     <g transform="translate(229.689687 267.148062) scale(0.1 -0.1)">
      <defs>
       <path id="DejaVuSans-2d" d="M 313 2009 
L 1997 2009 
L 1997 1497 
L 313 1497 
L 313 2009 
z
" transform="scale(0.015625)"/>
      </defs>
      <use xlink:href="#DejaVuSans-2d"/>
      <use xlink:href="#DejaVuSans-31" transform="translate(36.083984 0)"/>
      <use xlink:href="#DejaVuSans-20" transform="translate(99.707031 0)"/>
      <use xlink:href="#DejaVuSans-73" transform="translate(131.494141 0)"/>
      <use xlink:href="#DejaVuSans-64" transform="translate(183.59375 0)"/>
     </g>
    </g>
    <g id="line2d_29">
     <path d="M 201.689687 278.326187 
L 211.689687 278.326187 
L 221.689687 278.326187 
" style="fill: none; stroke-dasharray: 9.6,2.4,1.5,2.4; stroke-dashoffset: 0; stroke: #008000; stroke-width: 1.5"/>
    </g>
    <g id="text_17">
     <!-- +1 sd -->
     <g transform="translate(229.689687 281.826187) scale(0.1 -0.1)">
      <defs>
       <path id="DejaVuSans-2b" d="M 2944 4013 
L 2944 2272 
L 4684 2272 
L 4684 1741 
L 2944 1741 
L 2944 0 
L 2419 0 
L 2419 1741 
L 678 1741 
L 678 2272 
L 2419 2272 
L 2419 4013 
L 2944 4013 
z
" transform="scale(0.015625)"/>
      </defs>
      <use xlink:href="#DejaVuSans-2b"/>
      <use xlink:href="#DejaVuSans-31" transform="translate(83.789062 0)"/>
      <use xlink:href="#DejaVuSans-20" transform="translate(147.412109 0)"/>
      <use xlink:href="#DejaVuSans-73" transform="translate(179.199219 0)"/>
      <use xlink:href="#DejaVuSans-64" transform="translate(231.298828 0)"/>
     </g>
    </g>
    <g id="line2d_30">
     <path d="M 201.689687 293.004312 
L 211.689687 293.004312 
L 221.689687 293.004312 
" style="fill: none; stroke: #ff0000; stroke-width: 1.5; stroke-linecap: square"/>
    </g>
    <g id="text_18">
     <!-- best -->
     <g transform="translate(229.689687 296.504312) scale(0.1 -0.1)">
      <use xlink:href="#DejaVuSans-62"/>
      <use xlink:href="#DejaVuSans-65" transform="translate(63.476562 0)"/>
      <use xlink:href="#DejaVuSans-73" transform="translate(125 0)"/>
      <use xlink:href="#DejaVuSans-74" transform="translate(177.099609 0)"/>
     </g>
    </g>
   </g>
  </g>
 </g>
 <defs>
  <clipPath id="p340f300069">
   <rect x="57.6" y="41.472" width="357.12" height="266.112"/>
  </clipPath>
 </defs>
</svg>
