<?xml version="1.0" encoding="UTF-8" standalone="no"?>
<!DOCTYPE svg PUBLIC "-//W3C//DTD SVG 1.1//EN"
 "http://www.w3.org/Graphics/SVG/1.1/DTD/svg11.dtd">
<!-- Generated by graphviz version 12.2.1 (20241206.2353)
 -->
<!-- Pages: 1 -->
<svg width="644pt" height="91pt"
 viewBox="0.00 0.00 643.75 91.49" xmlns="http://www.w3.org/2000/svg" xmlns:xlink="http://www.w3.org/1999/xlink">
<g id="graph0" class="graph" transform="scale(1 1) rotate(0) translate(4 87.49)">
<polygon fill="white" stroke="none" points="-4,4 -4,-87.49 639.75,-87.49 639.75,4 -4,4"/>
<!-- &#45;1 -->
<g id="node1" class="node">
<title>&#45;1</title>
<polygon fill="lightgray" stroke="black" points="253.75,-83.49 230.25,-83.49 230.25,-64.99 253.75,-64.99 253.75,-83.49"/>
<text text-anchor="middle" x="242" y="-70.94" font-family="Times New Roman,serif" font-size="9.00">&#45;1</text>
</g>
<!-- 0 -->
<g id="node16" class="node">
<title>0</title>
<ellipse fill="lightblue" stroke="black" cx="284" cy="-14.5" rx="14.5" ry="14.5"/>
<text text-anchor="middle" x="284" y="-11.2" font-family="Times New Roman,serif" font-size="9.00">0</text>
</g>
<!-- &#45;1&#45;&gt;0 -->
<g id="edge1" class="edge">
<title>&#45;1&#45;&gt;0</title>
<path fill="none" stroke="red" stroke-width="0.44" d="M248.2,-64.72C253.79,-57.03 262.23,-45.43 269.51,-35.42"/>
<polygon fill="red" stroke="red" stroke-width="0.44" points="272.31,-37.52 275.36,-27.37 266.65,-33.4 272.31,-37.52"/>
</g>
<!-- 1 -->
<g id="node17" class="node">
<title>1</title>
<ellipse fill="lightblue" stroke="black" cx="331" cy="-14.5" rx="14.5" ry="14.5"/>
<text text-anchor="middle" x="331" y="-11.2" font-family="Times New Roman,serif" font-size="9.00">1</text>
</g>
<!-- &#45;1&#45;&gt;1 -->
<g id="edge2" class="edge">
<title>&#45;1&#45;&gt;1</title>
<path fill="none" stroke="red" stroke-width="0.35" stroke-dasharray="1,5" d="M254,-65.45C268.47,-56.07 293.01,-40.15 310.49,-28.8"/>
<polygon fill="red" stroke="red" stroke-width="0.35" points="311.98,-32.01 318.46,-23.63 308.17,-26.14 311.98,-32.01"/>
</g>
<!-- &#45;2 -->
<g id="node2" class="node">
<title>&#45;2</title>
<polygon fill="lightgray" stroke="black" points="295.75,-83.49 272.25,-83.49 272.25,-64.99 295.75,-64.99 295.75,-83.49"/>
<text text-anchor="middle" x="284" y="-70.94" font-family="Times New Roman,serif" font-size="9.00">&#45;2</text>
</g>
<!-- &#45;2&#45;&gt;0 -->
<g id="edge3" class="edge">
<title>&#45;2&#45;&gt;0</title>
<path fill="none" stroke="green" stroke-width="0.15" d="M284,-64.72C284,-58.05 284,-48.42 284,-39.45"/>
<polygon fill="green" stroke="green" stroke-width="0.15" points="287.5,-39.65 284,-29.65 280.5,-39.65 287.5,-39.65"/>
</g>
<!-- &#45;2&#45;&gt;1 -->
<g id="edge4" class="edge">
<title>&#45;2&#45;&gt;1</title>
<path fill="none" stroke="green" stroke-width="0.32" d="M290.94,-64.72C297.4,-56.78 307.26,-44.66 315.59,-34.43"/>
<polygon fill="green" stroke="green" stroke-width="0.32" points="318.2,-36.76 321.8,-26.8 312.77,-32.35 318.2,-36.76"/>
</g>
<!-- &#45;3 -->
<g id="node3" class="node">
<title>&#45;3</title>
<polygon fill="lightgray" stroke="black" points="337.75,-83.49 314.25,-83.49 314.25,-64.99 337.75,-64.99 337.75,-83.49"/>
<text text-anchor="middle" x="326" y="-70.94" font-family="Times New Roman,serif" font-size="9.00">&#45;3</text>
</g>
<!-- &#45;3&#45;&gt;0 -->
<g id="edge5" class="edge">
<title>&#45;3&#45;&gt;0</title>
<path fill="none" stroke="green" stroke-width="0.41" d="M319.8,-64.72C314.21,-57.03 305.77,-45.43 298.49,-35.42"/>
<polygon fill="green" stroke="green" stroke-width="0.41" points="301.33,-33.37 292.61,-27.34 295.66,-37.48 301.33,-33.37"/>
</g>
<!-- &#45;3&#45;&gt;1 -->
<g id="edge6" class="edge">
<title>&#45;3&#45;&gt;1</title>
<path fill="none" stroke="red" stroke-width="0.26" stroke-dasharray="1,5" d="M326.74,-64.72C327.31,-58.12 328.13,-48.63 328.9,-39.74"/>
<polygon fill="red" stroke="red" stroke-width="0.26" points="332.38,-40.09 329.76,-29.83 325.41,-39.49 332.38,-40.09"/>
</g>
<!-- &#45;4 -->
<g id="node4" class="node">
<title>&#45;4</title>
<polygon fill="lightgray" stroke="black" points="379.75,-83.49 356.25,-83.49 356.25,-64.99 379.75,-64.99 379.75,-83.49"/>
<text text-anchor="middle" x="368" y="-70.94" font-family="Times New Roman,serif" font-size="9.00">&#45;4</text>
</g>
<!-- &#45;4&#45;&gt;0 -->
<g id="edge7" class="edge">
<title>&#45;4&#45;&gt;0</title>
<path fill="none" stroke="red" stroke-width="0.36" d="M355.96,-64.97C342.41,-55.65 320.18,-40.37 304.01,-29.25"/>
<polygon fill="red" stroke="red" stroke-width="0.36" points="306.42,-26.66 296.2,-23.88 302.45,-32.43 306.42,-26.66"/>
</g>
<!-- &#45;4&#45;&gt;1 -->
<g id="edge8" class="edge">
<title>&#45;4&#45;&gt;1</title>
<path fill="none" stroke="red" stroke-width="0.2" stroke-dasharray="1,5" d="M362.54,-64.72C357.68,-57.13 350.37,-45.72 344.01,-35.8"/>
<polygon fill="red" stroke="red" stroke-width="0.2" points="347.04,-34.04 338.7,-27.51 341.15,-37.82 347.04,-34.04"/>
</g>
<!-- &#45;5 -->
<g id="node5" class="node">
<title>&#45;5</title>
<polygon fill="lightgray" stroke="black" points="421.75,-83.49 398.25,-83.49 398.25,-64.99 421.75,-64.99 421.75,-83.49"/>
<text text-anchor="middle" x="410" y="-70.94" font-family="Times New Roman,serif" font-size="9.00">&#45;5</text>
</g>
<!-- &#45;5&#45;&gt;0 -->
<g id="edge9" class="edge">
<title>&#45;5&#45;&gt;0</title>
<path fill="none" stroke="green" stroke-width="0.62" d="M397.88,-68.46C378.59,-60.73 339.81,-44.78 308,-28.99 307.14,-28.56 306.26,-28.12 305.38,-27.66"/>
<polygon fill="green" stroke="green" stroke-width="0.62" points="307.36,-24.76 296.9,-23.06 304.02,-30.91 307.36,-24.76"/>
</g>
<!-- &#45;5&#45;&gt;1 -->
<g id="edge10" class="edge">
<title>&#45;5&#45;&gt;1</title>
<path fill="none" stroke="red" stroke-width="0.33" d="M398.34,-64.72C385.79,-55.54 365.59,-40.78 350.59,-29.81"/>
<polygon fill="red" stroke="red" stroke-width="0.33" points="352.99,-27.24 342.85,-24.16 348.86,-32.89 352.99,-27.24"/>
</g>
<!-- &#45;6 -->
<g id="node6" class="node">
<title>&#45;6</title>
<polygon fill="lightgray" stroke="black" points="635.75,-83.49 612.25,-83.49 612.25,-64.99 635.75,-64.99 635.75,-83.49"/>
<text text-anchor="middle" x="624" y="-70.94" font-family="Times New Roman,serif" font-size="9.00">&#45;6</text>
</g>
<!-- &#45;6&#45;&gt;1 -->
<g id="edge11" class="edge">
<title>&#45;6&#45;&gt;1</title>
<path fill="none" stroke="red" stroke-width="0.16" d="M612.14,-68.12C609.2,-66.98 606.01,-65.85 603,-64.99 513.7,-39.59 404.06,-24.31 355.8,-18.37"/>
<polygon fill="red" stroke="red" stroke-width="0.16" points="356.27,-14.9 345.92,-17.18 355.43,-21.85 356.27,-14.9"/>
</g>
<!-- &#45;7 -->
<g id="node7" class="node">
<title>&#45;7</title>
<polygon fill="lightgray" stroke="black" points="463.75,-83.49 440.25,-83.49 440.25,-64.99 463.75,-64.99 463.75,-83.49"/>
<text text-anchor="middle" x="452" y="-70.94" font-family="Times New Roman,serif" font-size="9.00">&#45;7</text>
</g>
<!-- &#45;7&#45;&gt;0 -->
<g id="edge12" class="edge">
<title>&#45;7&#45;&gt;0</title>
<path fill="none" stroke="red" stroke-width="0.19" d="M440.07,-68.34C437.13,-67.19 433.97,-66.01 431,-64.99 377.1,-46.56 360.5,-51.09 308,-28.99 306.99,-28.56 305.96,-28.11 304.94,-27.62"/>
<polygon fill="red" stroke="red" stroke-width="0.19" points="306.67,-24.58 296.19,-23.04 303.42,-30.78 306.67,-24.58"/>
</g>
<!-- &#45;7&#45;&gt;1 -->
<g id="edge13" class="edge">
<title>&#45;7&#45;&gt;1</title>
<path fill="none" stroke="red" stroke-width="0.32" d="M439.96,-67.49C419.8,-57.87 378.93,-38.37 353.37,-26.17"/>
<polygon fill="red" stroke="red" stroke-width="0.32" points="355.06,-23.1 344.53,-21.95 352.05,-29.42 355.06,-23.1"/>
</g>
<!-- &#45;8 -->
<g id="node8" class="node">
<title>&#45;8</title>
<polygon fill="lightgray" stroke="black" points="505.75,-83.49 482.25,-83.49 482.25,-64.99 505.75,-64.99 505.75,-83.49"/>
<text text-anchor="middle" x="494" y="-70.94" font-family="Times New Roman,serif" font-size="9.00">&#45;8</text>
</g>
<!-- &#45;8&#45;&gt;0 -->
<g id="edge14" class="edge">
<title>&#45;8&#45;&gt;0</title>
<path fill="none" stroke="green" stroke-width="0.12" d="M482.12,-68.19C479.17,-67.05 476,-65.9 473,-64.99 401.17,-43.2 378.15,-55.68 308,-28.99 306.97,-28.6 305.94,-28.17 304.9,-27.71"/>
<polygon fill="green" stroke="green" stroke-width="0.12" points="306.52,-24.61 296.03,-23.17 303.34,-30.84 306.52,-24.61"/>
</g>
<!-- &#45;8&#45;&gt;1 -->
<g id="edge15" class="edge">
<title>&#45;8&#45;&gt;1</title>
<path fill="none" stroke="red" stroke-width="0.23" stroke-dasharray="1,5" d="M482.04,-68.45C479.09,-67.29 475.94,-66.08 473,-64.99 431.54,-49.63 382.79,-32.93 354.54,-23.39"/>
<polygon fill="red" stroke="red" stroke-width="0.23" points="355.7,-20.08 345.1,-20.21 353.46,-26.72 355.7,-20.08"/>
</g>
<!-- &#45;9 -->
<g id="node9" class="node">
<title>&#45;9</title>
<polygon fill="lightgray" stroke="black" points="547.75,-83.49 524.25,-83.49 524.25,-64.99 547.75,-64.99 547.75,-83.49"/>
<text text-anchor="middle" x="536" y="-70.94" font-family="Times New Roman,serif" font-size="9.00">&#45;9</text>
</g>
<!-- &#45;9&#45;&gt;0 -->
<g id="edge16" class="edge">
<title>&#45;9&#45;&gt;0</title>
<path fill="none" stroke="green" stroke-width="0.38" d="M524.15,-68.1C521.2,-66.96 518.02,-65.84 515,-64.99 425.08,-39.79 395.97,-60.33 308,-28.99 307.09,-28.67 306.18,-28.31 305.27,-27.93"/>
<polygon fill="green" stroke="green" stroke-width="0.38" points="306.85,-24.81 296.34,-23.46 303.72,-31.07 306.85,-24.81"/>
</g>
<!-- &#45;9&#45;&gt;1 -->
<g id="edge17" class="edge">
<title>&#45;9&#45;&gt;1</title>
<path fill="none" stroke="green" stroke-width="0.47" d="M524.09,-68.3C521.14,-67.15 517.98,-65.97 515,-64.99 458.59,-46.39 390.79,-29.53 355.33,-21.12"/>
<polygon fill="green" stroke="green" stroke-width="0.47" points="356.24,-17.74 345.7,-18.86 354.64,-24.56 356.24,-17.74"/>
</g>
<!-- &#45;10 -->
<g id="node10" class="node">
<title>&#45;10</title>
<polygon fill="lightgray" stroke="black" points="594,-83.49 566,-83.49 566,-64.99 594,-64.99 594,-83.49"/>
<text text-anchor="middle" x="580" y="-70.94" font-family="Times New Roman,serif" font-size="9.00">&#45;10</text>
</g>
<!-- &#45;10&#45;&gt;0 -->
<g id="edge18" class="edge">
<title>&#45;10&#45;&gt;0</title>
<path fill="none" stroke="green" stroke-width="0.12" stroke-dasharray="1,5" d="M565.54,-67.56C562.73,-66.6 559.8,-65.69 557,-64.99 448.49,-37.98 413.86,-65 308,-28.99 306.96,-28.64 305.91,-28.24 304.87,-27.8"/>
<polygon fill="green" stroke="green" stroke-width="0.12" points="306.48,-24.7 295.97,-23.36 303.35,-30.96 306.48,-24.7"/>
</g>
<!-- &#45;10&#45;&gt;1 -->
<g id="edge19" class="edge">
<title>&#45;10&#45;&gt;1</title>
<path fill="none" stroke="green" stroke-width="0.15" d="M565.98,-67.89C563.04,-66.86 559.94,-65.84 557,-64.99 484.71,-44.2 397.25,-27.34 355.49,-19.79"/>
<polygon fill="green" stroke="green" stroke-width="0.15" points="356.12,-16.35 345.66,-18.03 354.89,-23.24 356.12,-16.35"/>
</g>
<!-- &#45;11 -->
<g id="node11" class="node">
<title>&#45;11</title>
<polygon fill="lightgray" stroke="black" points="28,-83.49 0,-83.49 0,-64.99 28,-64.99 28,-83.49"/>
<text text-anchor="middle" x="14" y="-70.94" font-family="Times New Roman,serif" font-size="9.00">&#45;11</text>
</g>
<!-- &#45;11&#45;&gt;0 -->
<g id="edge20" class="edge">
<title>&#45;11&#45;&gt;0</title>
<path fill="none" stroke="green" stroke-width="0.18" d="M28.5,-67.68C31.3,-66.71 34.22,-65.76 37,-64.99 117.19,-42.7 214.66,-26.2 259.4,-19.2"/>
<polygon fill="green" stroke="green" stroke-width="0.18" points="259.73,-22.69 269.08,-17.7 258.66,-15.77 259.73,-22.69"/>
</g>
<!-- &#45;11&#45;&gt;1 -->
<g id="edge21" class="edge">
<title>&#45;11&#45;&gt;1</title>
<path fill="none" stroke="green" stroke-width="0.41" d="M28.46,-67.53C31.26,-66.57 34.2,-65.67 37,-64.99 154.64,-36.39 192.18,-67.35 307,-28.99 307.91,-28.69 308.83,-28.35 309.75,-27.98"/>
<polygon fill="green" stroke="green" stroke-width="0.41" points="311.24,-31.14 318.66,-23.57 308.14,-24.87 311.24,-31.14"/>
</g>
<!-- &#45;12 -->
<g id="node12" class="node">
<title>&#45;12</title>
<polygon fill="lightgray" stroke="black" points="74,-83.49 46,-83.49 46,-64.99 74,-64.99 74,-83.49"/>
<text text-anchor="middle" x="60" y="-70.94" font-family="Times New Roman,serif" font-size="9.00">&#45;12</text>
</g>
<!-- &#45;12&#45;&gt;0 -->
<g id="edge22" class="edge">
<title>&#45;12&#45;&gt;0</title>
<path fill="none" stroke="red" stroke-width="0.38" d="M74.03,-67.95C76.98,-66.91 80.08,-65.87 83,-64.99 145.95,-46.01 221.57,-28.88 259.61,-20.65"/>
<polygon fill="red" stroke="red" stroke-width="0.38" points="260.12,-24.12 269.17,-18.6 258.66,-17.28 260.12,-24.12"/>
</g>
<!-- &#45;12&#45;&gt;1 -->
<g id="edge23" class="edge">
<title>&#45;12&#45;&gt;1</title>
<path fill="none" stroke="green" stroke-width="0.17" d="M74.47,-67.59C77.27,-66.63 80.21,-65.71 83,-64.99 180.65,-39.86 211.8,-62.22 307,-28.99 308.04,-28.63 309.08,-28.22 310.13,-27.78"/>
<polygon fill="green" stroke="green" stroke-width="0.17" points="311.59,-30.97 318.95,-23.35 308.45,-24.71 311.59,-30.97"/>
</g>
<!-- &#45;13 -->
<g id="node13" class="node">
<title>&#45;13</title>
<polygon fill="lightgray" stroke="black" points="120,-83.49 92,-83.49 92,-64.99 120,-64.99 120,-83.49"/>
<text text-anchor="middle" x="106" y="-70.94" font-family="Times New Roman,serif" font-size="9.00">&#45;13</text>
</g>
<!-- &#45;13&#45;&gt;0 -->
<g id="edge24" class="edge">
<title>&#45;13&#45;&gt;0</title>
<path fill="none" stroke="green" stroke-width="0.17" d="M120.08,-68.1C123.02,-67.05 126.11,-65.97 129,-64.99 175.43,-49.26 230.14,-32.11 260.57,-22.7"/>
<polygon fill="green" stroke="green" stroke-width="0.17" points="261.49,-26.07 270.02,-19.78 259.43,-19.38 261.49,-26.07"/>
</g>
<!-- &#45;13&#45;&gt;1 -->
<g id="edge25" class="edge">
<title>&#45;13&#45;&gt;1</title>
<path fill="none" stroke="green" stroke-width="0.44" d="M120.5,-67.68C123.3,-66.71 126.22,-65.77 129,-64.99 206.75,-43.31 231.35,-57.11 307,-28.99 307.9,-28.66 308.81,-28.29 309.72,-27.9"/>
<polygon fill="green" stroke="green" stroke-width="0.44" points="311.21,-31.07 318.55,-23.43 308.04,-24.82 311.21,-31.07"/>
</g>
<!-- &#45;14 -->
<g id="node14" class="node">
<title>&#45;14</title>
<polygon fill="lightgray" stroke="black" points="166,-83.49 138,-83.49 138,-64.99 166,-64.99 166,-83.49"/>
<text text-anchor="middle" x="152" y="-70.94" font-family="Times New Roman,serif" font-size="9.00">&#45;14</text>
</g>
<!-- &#45;14&#45;&gt;0 -->
<g id="edge26" class="edge">
<title>&#45;14&#45;&gt;0</title>
<path fill="none" stroke="red" stroke-width="0.33" d="M166.38,-66.95C189.25,-56.95 234.11,-37.32 261.33,-25.41"/>
<polygon fill="red" stroke="red" stroke-width="0.33" points="262.6,-28.68 270.36,-21.46 259.8,-22.26 262.6,-28.68"/>
</g>
<!-- &#45;14&#45;&gt;1 -->
<g id="edge27" class="edge">
<title>&#45;14&#45;&gt;1</title>
<path fill="none" stroke="green" stroke-width="0.15" d="M166.05,-68.01C168.99,-66.96 172.09,-65.91 175,-64.99 233,-46.71 250.74,-52.07 307,-28.99 308.02,-28.57 309.05,-28.12 310.07,-27.65"/>
<polygon fill="green" stroke="green" stroke-width="0.15" points="311.63,-30.79 318.88,-23.06 308.39,-24.58 311.63,-30.79"/>
</g>
<!-- &#45;15 -->
<g id="node15" class="node">
<title>&#45;15</title>
<polygon fill="lightgray" stroke="black" points="212,-83.49 184,-83.49 184,-64.99 212,-64.99 212,-83.49"/>
<text text-anchor="middle" x="198" y="-70.94" font-family="Times New Roman,serif" font-size="9.00">&#45;15</text>
</g>
<!-- &#45;15&#45;&gt;0 -->
<g id="edge28" class="edge">
<title>&#45;15&#45;&gt;0</title>
<path fill="none" stroke="red" stroke-width="0.18" d="M210.69,-64.72C224.65,-55.35 247.27,-40.16 263.7,-29.13"/>
<polygon fill="red" stroke="red" stroke-width="0.18" points="265.52,-32.12 271.87,-23.64 261.62,-26.31 265.52,-32.12"/>
</g>
<!-- &#45;15&#45;&gt;1 -->
<g id="edge29" class="edge">
<title>&#45;15&#45;&gt;1</title>
<path fill="none" stroke="green" stroke-width="0.18" d="M212.36,-68.08C233.45,-60.34 273.88,-44.95 307,-28.99 307.99,-28.51 309,-28.01 310.01,-27.5"/>
<polygon fill="green" stroke="green" stroke-width="0.18" points="311.58,-30.63 318.71,-22.79 308.25,-24.47 311.58,-30.63"/>
</g>
</g>
</svg>
