<?xml version="1.0" encoding="utf-8" standalone="no"?>
<!DOCTYPE svg PUBLIC "-//W3C//DTD SVG 1.1//EN"
  "http://www.w3.org/Graphics/SVG/1.1/DTD/svg11.dtd">
<svg xmlns:xlink="http://www.w3.org/1999/xlink" width="460.8pt" height="345.6pt" viewBox="0 0 460.8 345.6" xmlns="http://www.w3.org/2000/svg" version="1.1">
 <metadata>
  <rdf:RDF xmlns:dc="http://purl.org/dc/elements/1.1/" xmlns:cc="http://creativecommons.org/ns#" xmlns:rdf="http://www.w3.org/1999/02/22-rdf-syntax-ns#">
   <cc:Work>
    <dc:type rdf:resource="http://purl.org/dc/dcmitype/StillImage"/>
    <dc:date>2025-07-09T18:26:07.397396</dc:date>
    <dc:format>image/svg+xml</dc:format>
    <dc:creator>
     <cc:Agent>
      <dc:title>Matplotlib v3.10.0, https://matplotlib.org/</dc:title>
     </cc:Agent>
    </dc:creator>
   </cc:Work>
  </rdf:RDF>
 </metadata>
 <defs>
  <style type="text/css">*{stroke-linejoin: round; stroke-linecap: butt}</style>
 </defs>
 <g id="figure_1">
  <g id="patch_1">
   <path d="M 0 345.6 
L 460.8 345.6 
L 460.8 0 
L 0 0 
z
" style="fill: #ffffff"/>
  </g>
  <g id="axes_1">
   <g id="patch_2">
    <path d="M 57.6 307.584 
L 414.72 307.584 
L 414.72 41.472 
L 57.6 41.472 
z
" style="fill: #ffffff"/>
   </g>
   <g id="matplotlib.axis_1">
    <g id="xtick_1">
     <g id="line2d_1">
      <path d="M 73.832727 307.584 
L 73.832727 41.472 
" clip-path="url(#p075b98ccec)" style="fill: none; stroke: #b0b0b0; stroke-width: 0.8; stroke-linecap: square"/>
     </g>
     <g id="line2d_2">
      <defs>
       <path id="m4cb691b84d" d="M 0 0 
L 0 3.5 
" style="stroke: #000000; stroke-width: 0.8"/>
      </defs>
      <g>
       <use xlink:href="#m4cb691b84d" x="73.832727" y="307.584" style="stroke: #000000; stroke-width: 0.8"/>
      </g>
     </g>
     <g id="text_1">
      <!-- 0 -->
      <g transform="translate(70.651477 322.182437) scale(0.1 -0.1)">
       <defs>
        <path id="DejaVuSans-30" d="M 2034 4250 
Q 1547 4250 1301 3770 
Q 1056 3291 1056 2328 
Q 1056 1369 1301 889 
Q 1547 409 2034 409 
Q 2525 409 2770 889 
Q 3016 1369 3016 2328 
Q 3016 3291 2770 3770 
Q 2525 4250 2034 4250 
z
M 2034 4750 
Q 2819 4750 3233 4129 
Q 3647 3509 3647 2328 
Q 3647 1150 3233 529 
Q 2819 -91 2034 -91 
Q 1250 -91 836 529 
Q 422 1150 422 2328 
Q 422 3509 836 4129 
Q 1250 4750 2034 4750 
z
" transform="scale(0.015625)"/>
       </defs>
       <use xlink:href="#DejaVuSans-30"/>
      </g>
     </g>
    </g>
    <g id="xtick_2">
     <g id="line2d_3">
      <path d="M 138.893758 307.584 
L 138.893758 41.472 
" clip-path="url(#p075b98ccec)" style="fill: none; stroke: #b0b0b0; stroke-width: 0.8; stroke-linecap: square"/>
     </g>
     <g id="line2d_4">
      <g>
       <use xlink:href="#m4cb691b84d" x="138.893758" y="307.584" style="stroke: #000000; stroke-width: 0.8"/>
      </g>
     </g>
     <g id="text_2">
      <!-- 100 -->
      <g transform="translate(129.350008 322.182437) scale(0.1 -0.1)">
       <defs>
        <path id="DejaVuSans-31" d="M 794 531 
L 1825 531 
L 1825 4091 
L 703 3866 
L 703 4441 
L 1819 4666 
L 2450 4666 
L 2450 531 
L 3481 531 
L 3481 0 
L 794 0 
L 794 531 
z
" transform="scale(0.015625)"/>
       </defs>
       <use xlink:href="#DejaVuSans-31"/>
       <use xlink:href="#DejaVuSans-30" transform="translate(63.623047 0)"/>
       <use xlink:href="#DejaVuSans-30" transform="translate(127.246094 0)"/>
      </g>
     </g>
    </g>
    <g id="xtick_3">
     <g id="line2d_5">
      <path d="M 203.95479 307.584 
L 203.95479 41.472 
" clip-path="url(#p075b98ccec)" style="fill: none; stroke: #b0b0b0; stroke-width: 0.8; stroke-linecap: square"/>
     </g>
     <g id="line2d_6">
      <g>
       <use xlink:href="#m4cb691b84d" x="203.95479" y="307.584" style="stroke: #000000; stroke-width: 0.8"/>
      </g>
     </g>
     <g id="text_3">
      <!-- 200 -->
      <g transform="translate(194.41104 322.182437) scale(0.1 -0.1)">
       <defs>
        <path id="DejaVuSans-32" d="M 1228 531 
L 3431 531 
L 3431 0 
L 469 0 
L 469 531 
Q 828 903 1448 1529 
Q 2069 2156 2228 2338 
Q 2531 2678 2651 2914 
Q 2772 3150 2772 3378 
Q 2772 3750 2511 3984 
Q 2250 4219 1831 4219 
Q 1534 4219 1204 4116 
Q 875 4013 500 3803 
L 500 4441 
Q 881 4594 1212 4672 
Q 1544 4750 1819 4750 
Q 2544 4750 2975 4387 
Q 3406 4025 3406 3419 
Q 3406 3131 3298 2873 
Q 3191 2616 2906 2266 
Q 2828 2175 2409 1742 
Q 1991 1309 1228 531 
z
" transform="scale(0.015625)"/>
       </defs>
       <use xlink:href="#DejaVuSans-32"/>
       <use xlink:href="#DejaVuSans-30" transform="translate(63.623047 0)"/>
       <use xlink:href="#DejaVuSans-30" transform="translate(127.246094 0)"/>
      </g>
     </g>
    </g>
    <g id="xtick_4">
     <g id="line2d_7">
      <path d="M 269.015821 307.584 
L 269.015821 41.472 
" clip-path="url(#p075b98ccec)" style="fill: none; stroke: #b0b0b0; stroke-width: 0.8; stroke-linecap: square"/>
     </g>
     <g id="line2d_8">
      <g>
       <use xlink:href="#m4cb691b84d" x="269.015821" y="307.584" style="stroke: #000000; stroke-width: 0.8"/>
      </g>
     </g>
     <g id="text_4">
      <!-- 300 -->
      <g transform="translate(259.472071 322.182437) scale(0.1 -0.1)">
       <defs>
        <path id="DejaVuSans-33" d="M 2597 2516 
Q 3050 2419 3304 2112 
Q 3559 1806 3559 1356 
Q 3559 666 3084 287 
Q 2609 -91 1734 -91 
Q 1441 -91 1130 -33 
Q 819 25 488 141 
L 488 750 
Q 750 597 1062 519 
Q 1375 441 1716 441 
Q 2309 441 2620 675 
Q 2931 909 2931 1356 
Q 2931 1769 2642 2001 
Q 2353 2234 1838 2234 
L 1294 2234 
L 1294 2753 
L 1863 2753 
Q 2328 2753 2575 2939 
Q 2822 3125 2822 3475 
Q 2822 3834 2567 4026 
Q 2313 4219 1838 4219 
Q 1578 4219 1281 4162 
Q 984 4106 628 3988 
L 628 4550 
Q 988 4650 1302 4700 
Q 1616 4750 1894 4750 
Q 2613 4750 3031 4423 
Q 3450 4097 3450 3541 
Q 3450 3153 3228 2886 
Q 3006 2619 2597 2516 
z
" transform="scale(0.015625)"/>
       </defs>
       <use xlink:href="#DejaVuSans-33"/>
       <use xlink:href="#DejaVuSans-30" transform="translate(63.623047 0)"/>
       <use xlink:href="#DejaVuSans-30" transform="translate(127.246094 0)"/>
      </g>
     </g>
    </g>
    <g id="xtick_5">
     <g id="line2d_9">
      <path d="M 334.076852 307.584 
L 334.076852 41.472 
" clip-path="url(#p075b98ccec)" style="fill: none; stroke: #b0b0b0; stroke-width: 0.8; stroke-linecap: square"/>
     </g>
     <g id="line2d_10">
      <g>
       <use xlink:href="#m4cb691b84d" x="334.076852" y="307.584" style="stroke: #000000; stroke-width: 0.8"/>
      </g>
     </g>
     <g id="text_5">
      <!-- 400 -->
      <g transform="translate(324.533102 322.182437) scale(0.1 -0.1)">
       <defs>
        <path id="DejaVuSans-34" d="M 2419 4116 
L 825 1625 
L 2419 1625 
L 2419 4116 
z
M 2253 4666 
L 3047 4666 
L 3047 1625 
L 3713 1625 
L 3713 1100 
L 3047 1100 
L 3047 0 
L 2419 0 
L 2419 1100 
L 313 1100 
L 313 1709 
L 2253 4666 
z
" transform="scale(0.015625)"/>
       </defs>
       <use xlink:href="#DejaVuSans-34"/>
       <use xlink:href="#DejaVuSans-30" transform="translate(63.623047 0)"/>
       <use xlink:href="#DejaVuSans-30" transform="translate(127.246094 0)"/>
      </g>
     </g>
    </g>
    <g id="xtick_6">
     <g id="line2d_11">
      <path d="M 399.137883 307.584 
L 399.137883 41.472 
" clip-path="url(#p075b98ccec)" style="fill: none; stroke: #b0b0b0; stroke-width: 0.8; stroke-linecap: square"/>
     </g>
     <g id="line2d_12">
      <g>
       <use xlink:href="#m4cb691b84d" x="399.137883" y="307.584" style="stroke: #000000; stroke-width: 0.8"/>
      </g>
     </g>
     <g id="text_6">
      <!-- 500 -->
      <g transform="translate(389.594133 322.182437) scale(0.1 -0.1)">
       <defs>
        <path id="DejaVuSans-35" d="M 691 4666 
L 3169 4666 
L 3169 4134 
L 1269 4134 
L 1269 2991 
Q 1406 3038 1543 3061 
Q 1681 3084 1819 3084 
Q 2600 3084 3056 2656 
Q 3513 2228 3513 1497 
Q 3513 744 3044 326 
Q 2575 -91 1722 -91 
Q 1428 -91 1123 -41 
Q 819 9 494 109 
L 494 744 
Q 775 591 1075 516 
Q 1375 441 1709 441 
Q 2250 441 2565 725 
Q 2881 1009 2881 1497 
Q 2881 1984 2565 2268 
Q 2250 2553 1709 2553 
Q 1456 2553 1204 2497 
Q 953 2441 691 2322 
L 691 4666 
z
" transform="scale(0.015625)"/>
       </defs>
       <use xlink:href="#DejaVuSans-35"/>
       <use xlink:href="#DejaVuSans-30" transform="translate(63.623047 0)"/>
       <use xlink:href="#DejaVuSans-30" transform="translate(127.246094 0)"/>
      </g>
     </g>
    </g>
    <g id="text_7">
     <!-- Generations -->
     <g transform="translate(205.662344 335.860562) scale(0.1 -0.1)">
      <defs>
       <path id="DejaVuSans-47" d="M 3809 666 
L 3809 1919 
L 2778 1919 
L 2778 2438 
L 4434 2438 
L 4434 434 
Q 4069 175 3628 42 
Q 3188 -91 2688 -91 
Q 1594 -91 976 548 
Q 359 1188 359 2328 
Q 359 3472 976 4111 
Q 1594 4750 2688 4750 
Q 3144 4750 3555 4637 
Q 3966 4525 4313 4306 
L 4313 3634 
Q 3963 3931 3569 4081 
Q 3175 4231 2741 4231 
Q 1884 4231 1454 3753 
Q 1025 3275 1025 2328 
Q 1025 1384 1454 906 
Q 1884 428 2741 428 
Q 3075 428 3337 486 
Q 3600 544 3809 666 
z
" transform="scale(0.015625)"/>
       <path id="DejaVuSans-65" d="M 3597 1894 
L 3597 1613 
L 953 1613 
Q 991 1019 1311 708 
Q 1631 397 2203 397 
Q 2534 397 2845 478 
Q 3156 559 3463 722 
L 3463 178 
Q 3153 47 2828 -22 
Q 2503 -91 2169 -91 
Q 1331 -91 842 396 
Q 353 884 353 1716 
Q 353 2575 817 3079 
Q 1281 3584 2069 3584 
Q 2775 3584 3186 3129 
Q 3597 2675 3597 1894 
z
M 3022 2063 
Q 3016 2534 2758 2815 
Q 2500 3097 2075 3097 
Q 1594 3097 1305 2825 
Q 1016 2553 972 2059 
L 3022 2063 
z
" transform="scale(0.015625)"/>
       <path id="DejaVuSans-6e" d="M 3513 2113 
L 3513 0 
L 2938 0 
L 2938 2094 
Q 2938 2591 2744 2837 
Q 2550 3084 2163 3084 
Q 1697 3084 1428 2787 
Q 1159 2491 1159 1978 
L 1159 0 
L 581 0 
L 581 3500 
L 1159 3500 
L 1159 2956 
Q 1366 3272 1645 3428 
Q 1925 3584 2291 3584 
Q 2894 3584 3203 3211 
Q 3513 2838 3513 2113 
z
" transform="scale(0.015625)"/>
       <path id="DejaVuSans-72" d="M 2631 2963 
Q 2534 3019 2420 3045 
Q 2306 3072 2169 3072 
Q 1681 3072 1420 2755 
Q 1159 2438 1159 1844 
L 1159 0 
L 581 0 
L 581 3500 
L 1159 3500 
L 1159 2956 
Q 1341 3275 1631 3429 
Q 1922 3584 2338 3584 
Q 2397 3584 2469 3576 
Q 2541 3569 2628 3553 
L 2631 2963 
z
" transform="scale(0.015625)"/>
       <path id="DejaVuSans-61" d="M 2194 1759 
Q 1497 1759 1228 1600 
Q 959 1441 959 1056 
Q 959 750 1161 570 
Q 1363 391 1709 391 
Q 2188 391 2477 730 
Q 2766 1069 2766 1631 
L 2766 1759 
L 2194 1759 
z
M 3341 1997 
L 3341 0 
L 2766 0 
L 2766 531 
Q 2569 213 2275 61 
Q 1981 -91 1556 -91 
Q 1019 -91 701 211 
Q 384 513 384 1019 
Q 384 1609 779 1909 
Q 1175 2209 1959 2209 
L 2766 2209 
L 2766 2266 
Q 2766 2663 2505 2880 
Q 2244 3097 1772 3097 
Q 1472 3097 1187 3025 
Q 903 2953 641 2809 
L 641 3341 
Q 956 3463 1253 3523 
Q 1550 3584 1831 3584 
Q 2591 3584 2966 3190 
Q 3341 2797 3341 1997 
z
" transform="scale(0.015625)"/>
       <path id="DejaVuSans-74" d="M 1172 4494 
L 1172 3500 
L 2356 3500 
L 2356 3053 
L 1172 3053 
L 1172 1153 
Q 1172 725 1289 603 
Q 1406 481 1766 481 
L 2356 481 
L 2356 0 
L 1766 0 
Q 1100 0 847 248 
Q 594 497 594 1153 
L 594 3053 
L 172 3053 
L 172 3500 
L 594 3500 
L 594 4494 
L 1172 4494 
z
" transform="scale(0.015625)"/>
       <path id="DejaVuSans-69" d="M 603 3500 
L 1178 3500 
L 1178 0 
L 603 0 
L 603 3500 
z
M 603 4863 
L 1178 4863 
L 1178 4134 
L 603 4134 
L 603 4863 
z
" transform="scale(0.015625)"/>
       <path id="DejaVuSans-6f" d="M 1959 3097 
Q 1497 3097 1228 2736 
Q 959 2375 959 1747 
Q 959 1119 1226 758 
Q 1494 397 1959 397 
Q 2419 397 2687 759 
Q 2956 1122 2956 1747 
Q 2956 2369 2687 2733 
Q 2419 3097 1959 3097 
z
M 1959 3584 
Q 2709 3584 3137 3096 
Q 3566 2609 3566 1747 
Q 3566 888 3137 398 
Q 2709 -91 1959 -91 
Q 1206 -91 779 398 
Q 353 888 353 1747 
Q 353 2609 779 3096 
Q 1206 3584 1959 3584 
z
" transform="scale(0.015625)"/>
       <path id="DejaVuSans-73" d="M 2834 3397 
L 2834 2853 
Q 2591 2978 2328 3040 
Q 2066 3103 1784 3103 
Q 1356 3103 1142 2972 
Q 928 2841 928 2578 
Q 928 2378 1081 2264 
Q 1234 2150 1697 2047 
L 1894 2003 
Q 2506 1872 2764 1633 
Q 3022 1394 3022 966 
Q 3022 478 2636 193 
Q 2250 -91 1575 -91 
Q 1294 -91 989 -36 
Q 684 19 347 128 
L 347 722 
Q 666 556 975 473 
Q 1284 391 1588 391 
Q 1994 391 2212 530 
Q 2431 669 2431 922 
Q 2431 1156 2273 1281 
Q 2116 1406 1581 1522 
L 1381 1569 
Q 847 1681 609 1914 
Q 372 2147 372 2553 
Q 372 3047 722 3315 
Q 1072 3584 1716 3584 
Q 2034 3584 2315 3537 
Q 2597 3491 2834 3397 
z
" transform="scale(0.015625)"/>
      </defs>
      <use xlink:href="#DejaVuSans-47"/>
      <use xlink:href="#DejaVuSans-65" transform="translate(77.490234 0)"/>
      <use xlink:href="#DejaVuSans-6e" transform="translate(139.013672 0)"/>
      <use xlink:href="#DejaVuSans-65" transform="translate(202.392578 0)"/>
      <use xlink:href="#DejaVuSans-72" transform="translate(263.916016 0)"/>
      <use xlink:href="#DejaVuSans-61" transform="translate(305.029297 0)"/>
      <use xlink:href="#DejaVuSans-74" transform="translate(366.308594 0)"/>
      <use xlink:href="#DejaVuSans-69" transform="translate(405.517578 0)"/>
      <use xlink:href="#DejaVuSans-6f" transform="translate(433.300781 0)"/>
      <use xlink:href="#DejaVuSans-6e" transform="translate(494.482422 0)"/>
      <use xlink:href="#DejaVuSans-73" transform="translate(557.861328 0)"/>
     </g>
    </g>
   </g>
   <g id="matplotlib.axis_2">
    <g id="ytick_1">
     <g id="line2d_13">
      <path d="M 57.6 266.800341 
L 414.72 266.800341 
" clip-path="url(#p075b98ccec)" style="fill: none; stroke: #b0b0b0; stroke-width: 0.8; stroke-linecap: square"/>
     </g>
     <g id="line2d_14">
      <defs>
       <path id="m52fec70135" d="M 0 0 
L -3.5 0 
" style="stroke: #000000; stroke-width: 0.8"/>
      </defs>
      <g>
       <use xlink:href="#m52fec70135" x="57.6" y="266.800341" style="stroke: #000000; stroke-width: 0.8"/>
      </g>
     </g>
     <g id="text_8">
      <!-- −100000 -->
      <g transform="translate(4.045313 270.59956) scale(0.1 -0.1)">
       <defs>
        <path id="DejaVuSans-2212" d="M 678 2272 
L 4684 2272 
L 4684 1741 
L 678 1741 
L 678 2272 
z
" transform="scale(0.015625)"/>
       </defs>
       <use xlink:href="#DejaVuSans-2212"/>
       <use xlink:href="#DejaVuSans-31" transform="translate(83.789062 0)"/>
       <use xlink:href="#DejaVuSans-30" transform="translate(147.412109 0)"/>
       <use xlink:href="#DejaVuSans-30" transform="translate(211.035156 0)"/>
       <use xlink:href="#DejaVuSans-30" transform="translate(274.658203 0)"/>
       <use xlink:href="#DejaVuSans-30" transform="translate(338.28125 0)"/>
       <use xlink:href="#DejaVuSans-30" transform="translate(401.904297 0)"/>
      </g>
     </g>
    </g>
    <g id="ytick_2">
     <g id="line2d_15">
      <path d="M 57.6 214.251793 
L 414.72 214.251793 
" clip-path="url(#p075b98ccec)" style="fill: none; stroke: #b0b0b0; stroke-width: 0.8; stroke-linecap: square"/>
     </g>
     <g id="line2d_16">
      <g>
       <use xlink:href="#m52fec70135" x="57.6" y="214.251793" style="stroke: #000000; stroke-width: 0.8"/>
      </g>
     </g>
     <g id="text_9">
      <!-- 0 -->
      <g transform="translate(44.2375 218.051011) scale(0.1 -0.1)">
       <use xlink:href="#DejaVuSans-30"/>
      </g>
     </g>
    </g>
    <g id="ytick_3">
     <g id="line2d_17">
      <path d="M 57.6 161.703244 
L 414.72 161.703244 
" clip-path="url(#p075b98ccec)" style="fill: none; stroke: #b0b0b0; stroke-width: 0.8; stroke-linecap: square"/>
     </g>
     <g id="line2d_18">
      <g>
       <use xlink:href="#m52fec70135" x="57.6" y="161.703244" style="stroke: #000000; stroke-width: 0.8"/>
      </g>
     </g>
     <g id="text_10">
      <!-- 100000 -->
      <g transform="translate(12.425 165.502463) scale(0.1 -0.1)">
       <use xlink:href="#DejaVuSans-31"/>
       <use xlink:href="#DejaVuSans-30" transform="translate(63.623047 0)"/>
       <use xlink:href="#DejaVuSans-30" transform="translate(127.246094 0)"/>
       <use xlink:href="#DejaVuSans-30" transform="translate(190.869141 0)"/>
       <use xlink:href="#DejaVuSans-30" transform="translate(254.492188 0)"/>
       <use xlink:href="#DejaVuSans-30" transform="translate(318.115234 0)"/>
      </g>
     </g>
    </g>
    <g id="ytick_4">
     <g id="line2d_19">
      <path d="M 57.6 109.154696 
L 414.72 109.154696 
" clip-path="url(#p075b98ccec)" style="fill: none; stroke: #b0b0b0; stroke-width: 0.8; stroke-linecap: square"/>
     </g>
     <g id="line2d_20">
      <g>
       <use xlink:href="#m52fec70135" x="57.6" y="109.154696" style="stroke: #000000; stroke-width: 0.8"/>
      </g>
     </g>
     <g id="text_11">
      <!-- 200000 -->
      <g transform="translate(12.425 112.953914) scale(0.1 -0.1)">
       <use xlink:href="#DejaVuSans-32"/>
       <use xlink:href="#DejaVuSans-30" transform="translate(63.623047 0)"/>
       <use xlink:href="#DejaVuSans-30" transform="translate(127.246094 0)"/>
       <use xlink:href="#DejaVuSans-30" transform="translate(190.869141 0)"/>
       <use xlink:href="#DejaVuSans-30" transform="translate(254.492188 0)"/>
       <use xlink:href="#DejaVuSans-30" transform="translate(318.115234 0)"/>
      </g>
     </g>
    </g>
    <g id="ytick_5">
     <g id="line2d_21">
      <path d="M 57.6 56.606147 
L 414.72 56.606147 
" clip-path="url(#p075b98ccec)" style="fill: none; stroke: #b0b0b0; stroke-width: 0.8; stroke-linecap: square"/>
     </g>
     <g id="line2d_22">
      <g>
       <use xlink:href="#m52fec70135" x="57.6" y="56.606147" style="stroke: #000000; stroke-width: 0.8"/>
      </g>
     </g>
     <g id="text_12">
      <!-- 300000 -->
      <g transform="translate(12.425 60.405366) scale(0.1 -0.1)">
       <use xlink:href="#DejaVuSans-33"/>
       <use xlink:href="#DejaVuSans-30" transform="translate(63.623047 0)"/>
       <use xlink:href="#DejaVuSans-30" transform="translate(127.246094 0)"/>
       <use xlink:href="#DejaVuSans-30" transform="translate(190.869141 0)"/>
       <use xlink:href="#DejaVuSans-30" transform="translate(254.492188 0)"/>
       <use xlink:href="#DejaVuSans-30" transform="translate(318.115234 0)"/>
      </g>
     </g>
    </g>
    <g id="text_13">
     <!-- Fitness -->
     <g transform="translate(-2.034375 191.845187) rotate(-90) scale(0.1 -0.1)">
      <defs>
       <path id="DejaVuSans-46" d="M 628 4666 
L 3309 4666 
L 3309 4134 
L 1259 4134 
L 1259 2759 
L 3109 2759 
L 3109 2228 
L 1259 2228 
L 1259 0 
L 628 0 
L 628 4666 
z
" transform="scale(0.015625)"/>
      </defs>
      <use xlink:href="#DejaVuSans-46"/>
      <use xlink:href="#DejaVuSans-69" transform="translate(50.269531 0)"/>
      <use xlink:href="#DejaVuSans-74" transform="translate(78.052734 0)"/>
      <use xlink:href="#DejaVuSans-6e" transform="translate(117.261719 0)"/>
      <use xlink:href="#DejaVuSans-65" transform="translate(180.640625 0)"/>
      <use xlink:href="#DejaVuSans-73" transform="translate(242.164062 0)"/>
      <use xlink:href="#DejaVuSans-73" transform="translate(294.263672 0)"/>
     </g>
    </g>
   </g>
   <g id="line2d_23">
    <path d="M 73.832727 191.859934 
L 74.483338 187.865534 
L 75.133948 178.305235 
L 75.784558 172.967136 
L 76.435169 184.550748 
L 77.085779 191.525524 
L 77.736389 189.944425 
L 78.386999 178.586991 
L 79.03761 187.037756 
L 79.68822 186.662536 
L 80.33883 186.875956 
L 80.989441 183.091016 
L 82.290661 183.792253 
L 83.591882 191.814286 
L 84.242492 184.9702 
L 84.893103 185.21652 
L 85.543713 180.333685 
L 86.194323 184.674654 
L 87.495544 182.346312 
L 88.146154 184.856783 
L 88.796764 181.547918 
L 89.447375 177.395905 
L 90.097985 184.206868 
L 90.748595 176.244796 
L 91.399206 177.304348 
L 92.049816 174.655623 
L 92.700426 184.068466 
L 93.351037 179.412378 
L 94.001647 177.406354 
L 94.652257 173.652644 
L 95.302868 177.866099 
L 95.953478 174.028481 
L 96.604088 173.474263 
L 97.254698 175.455266 
L 97.905309 182.58808 
L 98.555919 187.040393 
L 99.206529 173.634108 
L 99.85714 174.907093 
L 100.50775 178.320824 
L 101.15836 172.812013 
L 101.808971 173.459435 
L 102.459581 179.622595 
L 103.110191 180.099685 
L 103.760802 180.814199 
L 104.411412 178.324393 
L 105.062022 172.966534 
L 105.712633 176.757173 
L 106.363243 171.951896 
L 107.013853 171.699646 
L 107.664463 170.319912 
L 108.315074 171.659617 
L 108.965684 175.60908 
L 109.616294 176.207156 
L 110.266905 174.776706 
L 110.917515 171.332588 
L 111.568125 171.293256 
L 112.218736 163.354936 
L 112.869346 162.469896 
L 113.519956 160.25687 
L 114.170567 165.443403 
L 114.821177 173.970724 
L 115.471787 163.9715 
L 116.122398 176.054129 
L 116.773008 166.474087 
L 117.423618 169.857419 
L 118.074228 172.006418 
L 118.724839 167.699042 
L 119.375449 177.268275 
L 120.026059 169.401105 
L 121.32728 159.132295 
L 121.97789 176.679674 
L 122.628501 167.256311 
L 123.279111 160.336274 
L 123.929721 157.004624 
L 124.580332 167.545231 
L 125.230942 158.954616 
L 125.881552 158.639042 
L 126.532163 159.458672 
L 127.182773 158.623335 
L 127.833383 167.997813 
L 128.483993 171.550763 
L 129.134604 169.650981 
L 129.785214 165.939854 
L 130.435824 166.055988 
L 131.086435 164.483751 
L 131.737045 170.591867 
L 132.387655 172.167206 
L 133.038266 160.731734 
L 134.339486 168.507022 
L 134.990097 171.004542 
L 135.640707 158.87032 
L 136.291317 158.779138 
L 136.941927 157.489058 
L 138.243148 165.844509 
L 138.893758 163.037778 
L 139.544369 158.142702 
L 140.194979 155.552953 
L 140.845589 172.314072 
L 141.4962 158.286451 
L 142.14681 158.711162 
L 142.79742 159.551564 
L 143.448031 164.058249 
L 144.098641 163.022813 
L 144.749251 168.585015 
L 145.399862 167.063349 
L 146.050472 175.015319 
L 146.701082 170.905561 
L 147.351692 165.436666 
L 148.002303 168.133338 
L 148.652913 161.327087 
L 149.303523 162.985816 
L 149.954134 162.464915 
L 150.604744 155.339871 
L 151.255354 150.919283 
L 151.905965 159.761569 
L 152.556575 164.366633 
L 153.207185 152.427407 
L 153.857796 154.187751 
L 154.508406 162.568003 
L 155.159016 157.512798 
L 155.809627 165.189074 
L 156.460237 168.364652 
L 157.110847 167.655023 
L 157.761457 158.209655 
L 158.412068 152.939671 
L 159.062678 165.129409 
L 160.363899 158.894139 
L 161.014509 174.85333 
L 161.665119 165.69371 
L 162.31573 165.232237 
L 162.96634 158.046936 
L 163.61695 156.707105 
L 164.267561 166.339177 
L 164.918171 160.698783 
L 165.568781 149.320454 
L 166.219392 164.800712 
L 166.870002 163.720252 
L 167.520612 162.158394 
L 168.171222 154.224973 
L 168.821833 165.806824 
L 169.472443 169.387391 
L 170.123053 164.576703 
L 170.773664 165.827086 
L 171.424274 173.888508 
L 172.074884 173.033753 
L 172.725495 174.589996 
L 174.026715 162.626158 
L 174.677326 161.383996 
L 175.327936 161.975794 
L 175.978546 160.021827 
L 176.629156 161.556434 
L 177.279767 169.464984 
L 177.930377 161.227263 
L 179.882208 162.314449 
L 180.532818 171.358505 
L 181.183429 170.303845 
L 181.834039 174.569111 
L 182.484649 176.032203 
L 183.13526 176.650572 
L 183.78587 180.105255 
L 185.737701 171.16272 
L 186.388311 174.891105 
L 187.038921 177.446545 
L 187.689532 173.429192 
L 188.340142 175.666139 
L 188.990752 175.693753 
L 189.641363 176.836057 
L 190.291973 179.152162 
L 190.942583 172.7564 
L 191.593194 171.09798 
L 192.243804 168.56627 
L 192.894414 167.768284 
L 193.545025 172.16584 
L 194.195635 168.166495 
L 194.846245 172.062346 
L 195.496856 167.409374 
L 196.147466 166.161732 
L 196.798076 169.777337 
L 197.448686 157.877682 
L 198.099297 159.755217 
L 198.749907 155.273915 
L 199.400517 160.603767 
L 200.051128 161.764841 
L 200.701738 165.666784 
L 201.352348 176.116448 
L 202.002959 169.273721 
L 202.653569 160.267526 
L 203.95479 164.531844 
L 204.6054 156.950423 
L 205.25601 163.404054 
L 206.557231 161.805003 
L 207.207841 164.309656 
L 207.858451 164.232276 
L 208.509062 156.006665 
L 209.159672 160.085635 
L 209.810282 166.235286 
L 210.460893 160.146332 
L 211.111503 156.773107 
L 211.762113 158.856636 
L 212.412724 161.834932 
L 213.063334 157.663737 
L 213.713944 161.101103 
L 214.364555 162.823164 
L 215.015165 165.103867 
L 216.316385 155.90381 
L 216.966996 161.741863 
L 217.617606 161.561892 
L 218.268216 158.448993 
L 218.918827 159.253233 
L 220.220047 158.455549 
L 220.870658 159.58595 
L 221.521268 153.751619 
L 222.171878 154.277544 
L 222.822489 167.221708 
L 223.473099 161.259897 
L 224.123709 162.424481 
L 224.77432 165.08974 
L 225.42493 155.131848 
L 226.07554 158.386795 
L 226.72615 160.644117 
L 227.376761 159.618023 
L 228.027371 167.418994 
L 228.677981 166.305939 
L 229.328592 157.10225 
L 229.979202 155.001266 
L 230.629812 151.473716 
L 231.280423 157.676906 
L 231.931033 157.105941 
L 234.533474 163.176087 
L 235.184085 157.279514 
L 235.834695 153.883664 
L 236.485305 168.044107 
L 237.135915 167.241877 
L 237.786526 168.822137 
L 238.437136 164.987594 
L 239.087746 162.052058 
L 239.738357 163.713003 
L 240.388967 170.67341 
L 241.039577 155.526443 
L 241.690188 161.342066 
L 242.340798 160.356443 
L 242.991408 163.146587 
L 243.642019 164.027642 
L 244.292629 158.968612 
L 244.943239 155.919545 
L 245.59385 156.551637 
L 246.24446 156.736064 
L 246.89507 146.161598 
L 247.54568 157.764134 
L 248.196291 159.998874 
L 248.846901 154.44735 
L 249.497511 147.665032 
L 250.148122 150.34445 
L 250.798732 151.466947 
L 251.449342 144.303024 
L 252.099953 146.718664 
L 252.750563 152.557542 
L 253.401173 153.297727 
L 254.051784 157.39528 
L 254.702394 160.723291 
L 255.353004 157.811805 
L 256.003615 157.948647 
L 256.654225 158.451744 
L 257.304835 159.992917 
L 257.955445 157.878702 
L 258.606056 158.622088 
L 259.256666 156.762953 
L 259.907276 157.130145 
L 260.557887 170.544141 
L 261.208497 154.740268 
L 261.859107 156.4755 
L 262.509718 150.790404 
L 263.160328 146.114952 
L 263.810938 145.28489 
L 264.461549 152.477474 
L 265.112159 148.195129 
L 265.762769 155.992169 
L 266.413379 160.336594 
L 267.06399 159.759967 
L 267.7146 156.448384 
L 268.36521 156.528459 
L 269.015821 160.059662 
L 269.666431 159.170975 
L 270.317041 151.155363 
L 270.967652 152.209152 
L 271.618262 146.083622 
L 272.268872 149.648317 
L 272.919483 159.178006 
L 274.220703 154.28425 
L 274.871314 146.190026 
L 275.521924 149.174529 
L 276.172534 154.668083 
L 276.823144 161.276294 
L 277.473755 161.326034 
L 278.124365 162.055746 
L 278.774975 170.95046 
L 279.425586 158.848977 
L 280.076196 165.509243 
L 280.726806 157.394738 
L 281.377417 162.634776 
L 282.028027 150.900735 
L 282.678637 152.770425 
L 283.329248 155.217983 
L 283.979858 153.243912 
L 284.630468 163.805496 
L 285.281079 158.080253 
L 285.931689 158.168742 
L 286.582299 157.051463 
L 287.232909 162.406812 
L 287.88352 160.022576 
L 288.53413 169.841228 
L 289.18474 166.387782 
L 289.835351 156.996692 
L 290.485961 149.359523 
L 291.136571 157.030985 
L 291.787182 153.071984 
L 292.437792 160.554815 
L 293.088402 161.111384 
L 293.739013 155.725235 
L 294.389623 153.54967 
L 295.040233 160.471012 
L 295.690844 158.570102 
L 296.341454 158.713018 
L 296.992064 157.468979 
L 297.642674 150.044151 
L 298.293285 152.94232 
L 300.245116 167.957051 
L 300.895726 159.188097 
L 301.546336 154.832197 
L 302.196947 159.406403 
L 302.847557 160.908417 
L 303.498167 153.596195 
L 304.148778 157.011637 
L 305.449998 150.822522 
L 306.100608 164.759934 
L 306.751219 163.085735 
L 307.401829 160.994261 
L 308.052439 160.572124 
L 308.70305 171.780238 
L 309.35366 169.568763 
L 310.00427 163.061734 
L 311.305491 154.788801 
L 311.956101 155.114721 
L 312.606712 153.779101 
L 313.257322 161.058595 
L 313.907932 158.764264 
L 314.558543 153.018773 
L 315.209153 149.832509 
L 315.859763 149.92849 
L 316.510373 155.13139 
L 317.160984 154.405124 
L 317.811594 151.5223 
L 318.462204 145.007053 
L 319.112815 145.217882 
L 319.763425 145.836344 
L 320.414035 148.770326 
L 321.064646 150.49459 
L 321.715256 147.483435 
L 322.365866 155.716256 
L 323.016477 155.374219 
L 323.667087 163.803732 
L 324.317697 164.721129 
L 324.968308 162.357064 
L 325.618918 163.122496 
L 326.269528 167.020955 
L 327.570749 155.955243 
L 328.221359 162.601989 
L 328.871969 154.906883 
L 329.52258 158.249776 
L 330.17319 157.550585 
L 330.8238 163.400888 
L 331.474411 160.691101 
L 332.125021 151.683737 
L 332.775631 154.826576 
L 333.426242 151.615028 
L 334.727462 147.989768 
L 335.378073 146.895814 
L 336.028683 151.699818 
L 336.679293 150.700609 
L 337.329903 147.328874 
L 337.980514 154.085316 
L 338.631124 156.391733 
L 339.281734 164.53823 
L 339.932345 156.62823 
L 340.582955 160.986506 
L 341.233565 172.682278 
L 341.884176 166.35968 
L 342.534786 172.28531 
L 343.185396 170.499706 
L 343.836007 168.331502 
L 344.486617 171.784676 
L 345.137227 167.495222 
L 345.787837 155.353705 
L 346.438448 156.250038 
L 347.089058 154.827321 
L 347.739668 160.827734 
L 348.390279 147.510052 
L 349.040889 155.830828 
L 349.691499 153.688294 
L 350.34211 148.845055 
L 350.99272 146.849089 
L 351.64333 153.034142 
L 352.293941 145.594529 
L 352.944551 150.003118 
L 353.595161 166.066843 
L 354.245772 172.005538 
L 354.896382 171.225292 
L 355.546992 166.911237 
L 356.197602 166.208968 
L 356.848213 166.117309 
L 357.498823 158.72831 
L 358.149433 167.096722 
L 358.800044 160.988299 
L 359.450654 157.265204 
L 360.101264 160.187151 
L 360.751875 155.401671 
L 361.402485 155.326405 
L 362.053095 164.777183 
L 362.703706 154.557126 
L 363.354316 149.57042 
L 364.004926 147.640153 
L 364.655537 150.821167 
L 365.306147 155.203201 
L 365.956757 152.005335 
L 367.257978 150.163273 
L 368.559198 147.108272 
L 369.209809 143.530602 
L 370.511029 151.617919 
L 371.16164 154.271445 
L 371.81225 148.508832 
L 372.46286 147.45951 
L 373.113471 147.436155 
L 374.414691 164.651285 
L 375.065302 161.046348 
L 375.715912 154.259924 
L 376.366522 161.088206 
L 377.017132 166.441333 
L 377.667743 164.069427 
L 378.318353 160.621442 
L 378.968963 155.380965 
L 379.619574 153.671502 
L 380.270184 156.555347 
L 380.920794 162.765162 
L 381.571405 165.937815 
L 382.222015 158.678578 
L 382.872625 159.309585 
L 383.523236 154.98975 
L 384.173846 158.064645 
L 384.824456 154.451863 
L 385.475066 148.793367 
L 386.125677 149.51181 
L 386.776287 151.012775 
L 387.426897 154.30975 
L 388.077508 162.168077 
L 388.728118 165.627273 
L 389.378728 154.152309 
L 390.029339 158.602734 
L 390.679949 153.496354 
L 391.330559 161.029315 
L 391.98117 158.376554 
L 392.63178 156.190493 
L 393.28239 151.068868 
L 393.933001 152.98963 
L 394.583611 152.084416 
L 395.234221 150.806885 
L 395.884831 148.666156 
L 396.535442 147.420302 
L 397.186052 146.467321 
L 397.836662 143.625008 
L 398.487273 147.232426 
L 398.487273 147.232426 
" clip-path="url(#p075b98ccec)" style="fill: none; stroke: #0000ff; stroke-width: 1.5; stroke-linecap: square"/>
   </g>
   <g id="line2d_24">
    <path d="M 73.832727 222.358507 
L 74.483338 243.706157 
L 75.133948 222.586626 
L 75.784558 217.173089 
L 76.435169 251.719963 
L 77.085779 272.014795 
L 77.736389 261.056872 
L 78.386999 219.665401 
L 79.03761 250.944303 
L 79.68822 252.941574 
L 80.33883 258.42964 
L 80.989441 237.141501 
L 81.640051 241.809866 
L 82.290661 248.859862 
L 82.941272 248.263867 
L 83.591882 267.930867 
L 84.242492 245.013174 
L 84.893103 240.958032 
L 85.543713 221.212274 
L 86.194323 229.765036 
L 86.844934 233.923497 
L 87.495544 234.170632 
L 88.146154 246.195201 
L 88.796764 231.1784 
L 89.447375 223.824585 
L 90.097985 259.135249 
L 90.748595 227.712966 
L 91.399206 235.335963 
L 92.049816 218.873835 
L 92.700426 260.904327 
L 93.351037 234.260301 
L 94.001647 222.507834 
L 94.652257 228.629409 
L 95.302868 238.77175 
L 95.953478 236.0476 
L 96.604088 237.811058 
L 97.254698 224.092307 
L 97.905309 256.749107 
L 98.555919 274.574905 
L 99.206529 230.301977 
L 99.85714 223.324201 
L 100.50775 255.970406 
L 101.15836 236.631732 
L 101.808971 252.788697 
L 102.459581 272.115869 
L 103.760802 255.747797 
L 104.411412 247.818014 
L 105.062022 217.836344 
L 105.712633 241.984423 
L 106.363243 232.470845 
L 107.013853 233.635473 
L 107.664463 219.939636 
L 108.315074 216.127028 
L 108.965684 260.686009 
L 109.616294 240.237682 
L 110.266905 249.180605 
L 110.917515 232.626569 
L 111.568125 251.265995 
L 112.218736 232.154665 
L 112.869346 223.793451 
L 113.519956 220.086471 
L 114.170567 253.524327 
L 114.821177 265.438836 
L 115.471787 228.712603 
L 116.122398 290.845539 
L 116.773008 249.952827 
L 117.423618 237.25253 
L 118.074228 253.006503 
L 118.724839 246.204383 
L 119.375449 284.888939 
L 120.026059 258.807736 
L 120.67667 248.937797 
L 121.32728 236.125129 
L 121.97789 295.488 
L 123.279111 230.074754 
L 123.929721 208.537343 
L 124.580332 244.674017 
L 125.230942 244.588012 
L 125.881552 219.487664 
L 126.532163 225.512988 
L 127.182773 229.118681 
L 127.833383 235.555857 
L 128.483993 259.999729 
L 129.785214 226.379587 
L 130.435824 249.352547 
L 131.086435 227.343383 
L 131.737045 250.002841 
L 132.387655 227.898737 
L 133.038266 222.962601 
L 133.688876 216.48133 
L 134.339486 243.132939 
L 134.990097 250.076852 
L 135.640707 205.409433 
L 136.291317 210.673515 
L 136.941927 211.180121 
L 137.592538 231.792483 
L 138.243148 245.552466 
L 138.893758 247.019152 
L 139.544369 232.087247 
L 140.194979 226.429919 
L 140.845589 291.060143 
L 141.4962 219.526912 
L 142.79742 232.945122 
L 144.098641 232.143809 
L 144.749251 244.2719 
L 145.399862 250.817654 
L 146.050472 275.964725 
L 146.701082 242.068191 
L 147.351692 216.759692 
L 148.002303 249.559145 
L 148.652913 214.050721 
L 149.303523 228.250443 
L 149.954134 230.983034 
L 150.604744 202.501505 
L 151.255354 197.155613 
L 151.905965 225.312051 
L 152.556575 224.888481 
L 153.207185 204.800003 
L 153.857796 206.137864 
L 154.508406 222.591219 
L 155.159016 217.127312 
L 155.809627 249.157154 
L 156.460237 225.452762 
L 157.110847 248.526241 
L 157.761457 207.12578 
L 158.412068 206.754602 
L 159.062678 233.892015 
L 159.713288 231.186048 
L 160.363899 237.283167 
L 161.014509 277.108584 
L 161.665119 246.502393 
L 162.31573 229.962352 
L 162.96634 207.302187 
L 163.61695 210.110833 
L 164.267561 243.248372 
L 164.918171 210.277054 
L 165.568781 199.959541 
L 166.219392 244.259277 
L 166.870002 238.858095 
L 167.520612 231.817193 
L 168.171222 201.942353 
L 168.821833 230.578531 
L 169.472443 235.939501 
L 170.123053 222.555995 
L 170.773664 241.367083 
L 171.424274 240.82188 
L 172.074884 235.256014 
L 172.725495 232.734295 
L 173.376105 225.223488 
L 174.026715 209.804108 
L 174.677326 216.1833 
L 175.327936 214.753112 
L 175.978546 219.905699 
L 176.629156 213.373978 
L 177.279767 238.370226 
L 177.930377 203.03991 
L 178.580987 206.835592 
L 179.231598 207.287947 
L 179.882208 219.135306 
L 180.532818 244.273254 
L 181.183429 219.151242 
L 181.834039 228.174159 
L 182.484649 245.301636 
L 183.13526 223.786993 
L 183.78587 245.383958 
L 184.43648 226.5587 
L 185.087091 217.66681 
L 185.737701 227.536715 
L 186.388311 251.903376 
L 187.038921 226.308967 
L 187.689532 230.204365 
L 188.340142 237.334457 
L 188.990752 249.763769 
L 189.641363 248.244915 
L 190.291973 248.635137 
L 190.942583 221.518903 
L 191.593194 212.92965 
L 192.243804 211.212932 
L 192.894414 230.688722 
L 193.545025 242.452532 
L 194.195635 237.593279 
L 194.846245 234.42998 
L 195.496856 223.757946 
L 196.147466 230.784236 
L 196.798076 258.189089 
L 198.749907 206.457331 
L 200.051128 232.528675 
L 200.701738 236.075689 
L 201.352348 266.736539 
L 202.002959 246.80192 
L 202.653569 212.05349 
L 203.304179 230.179121 
L 203.95479 231.476626 
L 204.6054 206.968141 
L 205.25601 219.88515 
L 205.906621 217.738953 
L 206.557231 221.650957 
L 207.207841 223.632975 
L 207.858451 220.127555 
L 208.509062 199.204758 
L 209.159672 214.708403 
L 209.810282 224.551641 
L 210.460893 206.62604 
L 211.111503 202.537734 
L 211.762113 208.514145 
L 212.412724 216.520684 
L 213.063334 207.046013 
L 213.713944 209.6958 
L 214.364555 226.625569 
L 215.015165 234.392538 
L 215.665775 206.223629 
L 216.316385 201.891375 
L 216.966996 234.941321 
L 217.617606 219.657022 
L 218.268216 222.647965 
L 218.918827 236.505174 
L 219.569437 209.799377 
L 220.220047 216.081155 
L 220.870658 212.059776 
L 221.521268 202.269081 
L 222.171878 206.549779 
L 222.822489 239.433088 
L 223.473099 222.730912 
L 224.123709 245.709679 
L 224.77432 232.249979 
L 225.42493 204.288106 
L 226.07554 223.844138 
L 226.72615 212.267127 
L 228.027371 239.097303 
L 228.677981 219.54705 
L 229.979202 203.814618 
L 230.629812 199.901635 
L 231.280423 218.031331 
L 231.931033 210.768732 
L 232.581643 219.359248 
L 233.232254 233.65021 
L 233.882864 235.122071 
L 234.533474 230.820053 
L 235.184085 207.2938 
L 235.834695 216.597858 
L 236.485305 248.792284 
L 237.135915 241.916763 
L 237.786526 242.233493 
L 238.437136 230.563421 
L 239.087746 226.32076 
L 239.738357 227.121519 
L 240.388967 235.687535 
L 241.039577 202.897359 
L 241.690188 234.047113 
L 242.340798 217.177814 
L 242.991408 216.898403 
L 243.642019 221.976976 
L 244.292629 208.218372 
L 244.943239 212.111695 
L 245.59385 219.351821 
L 246.24446 207.866507 
L 246.89507 192.565946 
L 247.54568 234.621037 
L 248.196291 235.492661 
L 248.846901 203.644878 
L 249.497511 203.440599 
L 250.148122 198.645047 
L 250.798732 200.792586 
L 251.449342 191.83701 
L 252.099953 209.839578 
L 252.750563 219.172128 
L 253.401173 220.248046 
L 254.702394 240.700363 
L 255.353004 226.482338 
L 256.003615 233.576531 
L 256.654225 225.361623 
L 257.304835 211.091378 
L 257.955445 231.218838 
L 258.606056 212.741901 
L 259.256666 227.774065 
L 259.907276 212.532146 
L 260.557887 255.876791 
L 261.208497 226.103738 
L 261.859107 230.489396 
L 262.509718 202.662187 
L 263.160328 192.457897 
L 263.810938 191.222419 
L 264.461549 214.964959 
L 265.112159 206.188015 
L 265.762769 220.57425 
L 266.413379 216.413748 
L 267.7146 231.296362 
L 268.36521 223.944064 
L 269.015821 234.496022 
L 269.666431 231.24989 
L 270.317041 196.803152 
L 270.967652 203.434609 
L 271.618262 190.923511 
L 272.268872 211.247076 
L 272.919483 225.369965 
L 273.570093 222.991377 
L 274.220703 209.330172 
L 274.871314 192.957705 
L 275.521924 218.288405 
L 276.172534 208.230558 
L 276.823144 245.632498 
L 277.473755 256.568153 
L 278.124365 246.279597 
L 278.774975 250.468397 
L 279.425586 230.176584 
L 280.076196 247.596231 
L 280.726806 217.303592 
L 281.377417 258.284744 
L 282.028027 219.507676 
L 282.678637 224.22439 
L 283.329248 227.44082 
L 283.979858 225.917108 
L 284.630468 239.427793 
L 285.281079 232.429597 
L 285.931689 232.04599 
L 286.582299 219.401902 
L 287.232909 233.977011 
L 287.88352 236.157595 
L 288.53413 254.607722 
L 289.18474 262.720378 
L 289.835351 207.630372 
L 290.485961 199.565543 
L 291.136571 211.519292 
L 291.787182 213.35423 
L 292.437792 228.772034 
L 293.088402 226.23458 
L 293.739013 211.489714 
L 294.389623 211.444834 
L 295.040233 222.446943 
L 295.690844 217.179293 
L 296.341454 231.896246 
L 296.992064 212.398107 
L 297.642674 199.527585 
L 298.293285 203.391553 
L 299.594505 232.560882 
L 300.245116 254.286436 
L 300.895726 219.973583 
L 301.546336 217.733647 
L 302.196947 241.508802 
L 302.847557 233.030635 
L 303.498167 205.004433 
L 304.148778 219.528561 
L 304.799388 216.349054 
L 305.449998 205.078623 
L 306.100608 256.29931 
L 306.751219 242.894489 
L 307.401829 244.001009 
L 308.052439 232.730512 
L 308.70305 255.766113 
L 309.35366 256.456533 
L 310.00427 228.941017 
L 310.654881 227.966117 
L 311.305491 209.806335 
L 311.956101 223.719828 
L 312.606712 206.306792 
L 313.257322 226.20626 
L 313.907932 240.367128 
L 314.558543 227.746765 
L 315.209153 200.53534 
L 315.859763 203.82462 
L 316.510373 234.350911 
L 317.160984 213.838562 
L 317.811594 201.897789 
L 318.462204 196.313209 
L 319.112815 207.654259 
L 319.763425 192.258929 
L 320.414035 211.248666 
L 321.064646 198.21052 
L 321.715256 217.342351 
L 322.365866 242.491506 
L 323.016477 236.571173 
L 323.667087 232.257972 
L 324.317697 227.143768 
L 324.968308 214.142238 
L 325.618918 237.763998 
L 326.269528 237.777048 
L 326.920138 221.343353 
L 327.570749 218.78384 
L 328.221359 233.854674 
L 328.871969 219.446526 
L 329.52258 227.671176 
L 330.17319 221.709517 
L 330.8238 240.193097 
L 331.474411 246.916678 
L 332.125021 199.395003 
L 332.775631 219.604495 
L 333.426242 213.198911 
L 334.076852 195.619602 
L 334.727462 192.528569 
L 335.378073 193.39311 
L 336.028683 202.639324 
L 336.679293 196.373278 
L 337.329903 194.248897 
L 337.980514 220.106769 
L 338.631124 219.96737 
L 339.281734 247.68387 
L 339.932345 218.493452 
L 340.582955 230.470153 
L 341.233565 256.978415 
L 341.884176 240.523788 
L 342.534786 252.658245 
L 343.185396 227.000839 
L 343.836007 233.979273 
L 344.486617 254.523906 
L 345.137227 248.02367 
L 345.787837 206.240099 
L 346.438448 209.590372 
L 347.089058 206.573478 
L 347.739668 238.797828 
L 348.390279 195.20533 
L 349.040889 230.723218 
L 349.691499 207.225597 
L 350.34211 197.743204 
L 350.99272 196.894602 
L 351.64333 212.906746 
L 352.293941 209.192071 
L 352.944551 225.256498 
L 353.595161 266.032836 
L 354.245772 266.836961 
L 354.896382 276.70716 
L 355.546992 267.729141 
L 356.197602 266.673847 
L 356.848213 262.044237 
L 357.498823 220.551863 
L 358.149433 242.600444 
L 358.800044 216.230258 
L 359.450654 209.616312 
L 360.101264 244.551207 
L 360.751875 206.552309 
L 361.402485 222.849786 
L 362.053095 254.932742 
L 362.703706 216.303291 
L 363.354316 198.849844 
L 364.004926 201.16049 
L 364.655537 213.140196 
L 365.306147 218.956654 
L 365.956757 211.629858 
L 366.607367 235.041671 
L 367.257978 212.711705 
L 368.559198 196.358592 
L 369.209809 221.682417 
L 369.860419 203.110593 
L 370.511029 209.567039 
L 371.16164 233.483688 
L 371.81225 198.055093 
L 372.46286 196.475494 
L 373.113471 201.327834 
L 373.764081 227.55989 
L 374.414691 248.442622 
L 375.065302 240.539726 
L 375.715912 223.470298 
L 376.366522 227.555063 
L 377.017132 240.472921 
L 377.667743 214.261109 
L 378.318353 210.900427 
L 378.968963 203.327594 
L 379.619574 202.489504 
L 380.270184 206.575273 
L 380.920794 227.902092 
L 381.571405 212.877432 
L 382.222015 203.940766 
L 382.872625 206.360746 
L 383.523236 200.858189 
L 384.173846 204.929451 
L 384.824456 222.09534 
L 385.475066 190.698218 
L 386.125677 195.688271 
L 386.776287 210.295115 
L 387.426897 205.602235 
L 388.077508 220.693008 
L 388.728118 229.579545 
L 389.378728 202.672889 
L 390.029339 225.400087 
L 390.679949 200.104519 
L 391.330559 248.111556 
L 391.98117 211.127611 
L 393.28239 195.985214 
L 393.933001 218.041377 
L 394.583611 206.669475 
L 395.234221 197.933055 
L 395.884831 194.492096 
L 396.535442 194.400099 
L 397.186052 193.396442 
L 397.836662 187.103309 
L 398.487273 210.819865 
L 398.487273 210.819865 
" clip-path="url(#p075b98ccec)" style="fill: none; stroke-dasharray: 9.6,2.4,1.5,2.4; stroke-dashoffset: 0; stroke: #008000; stroke-width: 1.5"/>
   </g>
   <g id="line2d_25">
    <path d="M 73.832727 161.361362 
L 74.483338 132.024911 
L 75.133948 134.023844 
L 75.784558 128.761183 
L 76.435169 117.381534 
L 77.085779 111.036253 
L 77.736389 118.831979 
L 78.386999 137.50858 
L 79.03761 123.13121 
L 79.68822 120.383499 
L 80.33883 115.322273 
L 80.989441 129.040531 
L 81.640051 125.064578 
L 82.290661 118.724644 
L 82.941272 127.607755 
L 83.591882 115.697705 
L 84.242492 124.927227 
L 84.893103 129.475008 
L 85.543713 139.455096 
L 86.194323 139.584272 
L 86.844934 133.059636 
L 87.495544 130.521992 
L 88.146154 123.518365 
L 88.796764 131.917435 
L 89.447375 130.967224 
L 90.097985 109.278486 
L 90.748595 124.776626 
L 91.399206 119.272733 
L 92.049816 130.437412 
L 92.700426 107.232605 
L 93.351037 124.564454 
L 94.001647 132.304875 
L 94.652257 118.675879 
L 95.302868 116.960449 
L 95.953478 112.009363 
L 96.604088 109.137467 
L 97.254698 126.818225 
L 97.905309 108.427053 
L 98.555919 99.50588 
L 99.206529 116.966238 
L 99.85714 126.489986 
L 100.50775 100.671241 
L 101.15836 108.992294 
L 101.808971 94.130173 
L 102.459581 87.129322 
L 103.110191 95.729459 
L 103.760802 105.880602 
L 104.411412 108.830773 
L 105.062022 128.096724 
L 105.712633 111.529922 
L 106.363243 111.432946 
L 107.013853 109.76382 
L 107.664463 120.700188 
L 108.315074 127.192206 
L 108.965684 90.532152 
L 109.616294 112.176631 
L 110.266905 100.372807 
L 110.917515 110.038608 
L 111.568125 91.320518 
L 112.218736 94.555207 
L 112.869346 101.14634 
L 113.519956 100.427269 
L 114.170567 77.362479 
L 114.821177 82.502612 
L 115.471787 99.230397 
L 116.122398 61.262719 
L 117.423618 102.462308 
L 118.074228 91.006334 
L 118.724839 89.193701 
L 119.375449 69.64761 
L 120.026059 79.994475 
L 120.67667 78.995754 
L 121.32728 82.13946 
L 121.97789 57.871348 
L 122.628501 72.320247 
L 123.279111 90.597794 
L 123.929721 105.471905 
L 125.230942 73.321219 
L 125.881552 97.79042 
L 126.532163 93.404356 
L 127.182773 88.127989 
L 127.833383 100.439769 
L 128.483993 83.101797 
L 129.785214 105.500121 
L 130.435824 82.759428 
L 131.086435 101.62412 
L 131.737045 91.180893 
L 132.387655 116.435676 
L 133.038266 98.500867 
L 133.688876 112.548561 
L 134.339486 93.881105 
L 134.990097 91.932231 
L 135.640707 112.331208 
L 136.291317 106.884761 
L 136.941927 103.797995 
L 137.592538 92.285714 
L 138.893758 79.056404 
L 139.544369 84.198157 
L 140.194979 84.675987 
L 140.845589 53.568 
L 141.4962 97.045991 
L 142.79742 86.158005 
L 143.448031 95.52485 
L 144.098641 93.901816 
L 144.749251 92.89813 
L 146.050472 74.065913 
L 146.701082 99.742931 
L 147.351692 114.113641 
L 148.002303 86.70753 
L 148.652913 108.603454 
L 149.303523 97.721189 
L 149.954134 93.946796 
L 150.604744 108.178237 
L 151.255354 104.682952 
L 151.905965 94.211086 
L 152.556575 103.844784 
L 153.207185 100.054811 
L 153.857796 102.237639 
L 154.508406 102.544786 
L 155.159016 97.898285 
L 155.809627 81.220995 
L 156.460237 111.276541 
L 157.110847 86.783805 
L 157.761457 109.293531 
L 158.412068 99.124739 
L 159.062678 96.366803 
L 159.713288 92.846663 
L 160.363899 80.50511 
L 161.014509 72.598077 
L 161.665119 84.885027 
L 162.31573 100.502121 
L 162.96634 108.791684 
L 163.61695 103.303377 
L 164.267561 89.429983 
L 164.918171 111.120512 
L 166.219392 85.342147 
L 166.870002 88.58241 
L 167.520612 92.499595 
L 168.171222 106.507594 
L 168.821833 101.035116 
L 169.472443 102.83528 
L 170.123053 106.597412 
L 170.773664 90.287088 
L 171.424274 106.955137 
L 172.074884 110.811492 
L 172.725495 116.445697 
L 173.376105 112.696728 
L 174.026715 115.448208 
L 174.677326 106.584692 
L 175.327936 109.198476 
L 175.978546 100.137954 
L 176.629156 109.738889 
L 177.279767 100.559741 
L 177.930377 119.414617 
L 178.580987 116.391266 
L 179.231598 116.483529 
L 179.882208 105.493591 
L 180.532818 98.443756 
L 181.183429 121.456449 
L 181.834039 120.964063 
L 182.484649 106.76277 
L 183.13526 129.514152 
L 183.78587 114.826552 
L 184.43648 127.620378 
L 185.087091 130.488388 
L 186.388311 97.878834 
L 187.038921 128.584122 
L 187.689532 116.65402 
L 188.340142 113.997821 
L 188.990752 101.623738 
L 190.291973 109.669186 
L 190.942583 123.993897 
L 191.593194 129.266309 
L 192.243804 125.919607 
L 192.894414 104.847846 
L 194.195635 98.739712 
L 194.846245 109.694712 
L 195.496856 111.060802 
L 196.147466 101.539229 
L 196.798076 81.365584 
L 197.448686 74.72385 
L 198.099297 95.35908 
L 198.749907 104.090498 
L 199.400517 101.663516 
L 200.051128 91.001007 
L 200.701738 95.257879 
L 201.352348 85.496357 
L 202.002959 91.745522 
L 202.653569 108.481562 
L 203.304179 94.554414 
L 203.95479 97.587061 
L 204.6054 106.932706 
L 205.25601 106.922958 
L 205.906621 107.436845 
L 206.557231 101.959048 
L 207.858451 108.336998 
L 208.509062 112.808572 
L 209.159672 105.462868 
L 209.810282 107.918932 
L 210.460893 113.666625 
L 211.111503 111.008479 
L 212.412724 107.14918 
L 213.063334 108.281461 
L 213.713944 112.506406 
L 214.364555 99.020758 
L 215.015165 95.815195 
L 215.665775 114.270946 
L 216.316385 109.916245 
L 216.966996 88.542404 
L 217.617606 103.466762 
L 218.268216 94.250021 
L 218.918827 82.001292 
L 219.569437 107.853186 
L 220.220047 100.829944 
L 220.870658 107.112124 
L 221.521268 105.234158 
L 222.171878 102.005308 
L 222.822489 95.010328 
L 223.473099 99.788882 
L 224.123709 79.139283 
L 224.77432 97.929502 
L 225.42493 105.97559 
L 226.07554 92.929452 
L 226.72615 109.021107 
L 227.376761 92.969336 
L 228.027371 95.740684 
L 228.677981 113.064828 
L 229.328592 102.467583 
L 229.979202 106.187914 
L 230.629812 103.045797 
L 231.280423 97.322481 
L 231.931033 103.443151 
L 232.581643 97.754602 
L 233.232254 86.872335 
L 233.882864 87.34737 
L 234.533474 95.532121 
L 235.184085 107.265229 
L 235.834695 91.169471 
L 236.485305 87.29593 
L 237.135915 92.566992 
L 237.786526 95.410782 
L 238.437136 99.411767 
L 239.087746 97.783356 
L 239.738357 100.304488 
L 240.388967 105.659285 
L 241.039577 108.155527 
L 241.690188 88.637019 
L 242.340798 103.535071 
L 242.991408 109.394771 
L 243.642019 106.078308 
L 244.292629 109.718853 
L 244.943239 99.727396 
L 245.59385 93.751453 
L 246.24446 105.605621 
L 246.89507 99.757251 
L 247.54568 80.907232 
L 248.196291 84.505086 
L 248.846901 105.249821 
L 249.497511 91.889464 
L 250.148122 102.043853 
L 250.798732 102.141308 
L 251.449342 96.769037 
L 252.099953 83.59775 
L 252.750563 85.942956 
L 253.401173 86.347408 
L 254.051784 85.0247 
L 254.702394 80.74622 
L 255.353004 89.141272 
L 256.003615 82.320764 
L 256.654225 91.541866 
L 257.304835 108.894455 
L 257.955445 84.538566 
L 258.606056 104.502276 
L 259.256666 85.751841 
L 259.907276 101.728144 
L 260.557887 85.211492 
L 261.208497 83.376798 
L 261.859107 82.461605 
L 262.509718 98.91862 
L 263.160328 99.772006 
L 263.810938 99.347362 
L 264.461549 89.989989 
L 265.112159 90.202243 
L 265.762769 91.410087 
L 266.413379 104.259439 
L 267.06399 95.039102 
L 267.7146 81.600405 
L 268.36521 89.112854 
L 269.015821 85.623301 
L 269.666431 87.092061 
L 270.317041 105.507574 
L 270.967652 100.983694 
L 271.618262 101.243733 
L 272.268872 88.049559 
L 272.919483 92.986047 
L 273.570093 90.181984 
L 274.220703 99.238328 
L 274.871314 99.422348 
L 275.521924 80.060654 
L 276.172534 101.105608 
L 276.823144 76.920089 
L 277.473755 66.083916 
L 278.774975 91.432523 
L 280.076196 83.422255 
L 280.726806 97.485883 
L 281.377417 66.984807 
L 282.028027 82.293794 
L 282.678637 81.31646 
L 283.329248 82.995147 
L 283.979858 80.570715 
L 284.630468 88.183198 
L 285.281079 83.73091 
L 285.931689 84.291495 
L 286.582299 94.701024 
L 287.232909 90.836613 
L 287.88352 83.887557 
L 288.53413 85.074734 
L 289.18474 70.055186 
L 289.835351 106.363013 
L 290.485961 99.153504 
L 291.136571 102.542677 
L 291.787182 92.789738 
L 292.437792 92.337596 
L 293.739013 99.960756 
L 294.389623 95.654506 
L 295.040233 98.495081 
L 295.690844 99.960911 
L 296.341454 85.529791 
L 296.992064 102.53985 
L 297.642674 100.560716 
L 298.293285 102.493087 
L 298.943895 97.025514 
L 299.594505 93.560493 
L 300.245116 81.627667 
L 300.895726 98.402612 
L 301.546336 91.930748 
L 302.196947 77.304004 
L 303.498167 102.187956 
L 304.148778 94.494712 
L 304.799388 90.976965 
L 305.449998 96.566422 
L 306.100608 73.220559 
L 306.751219 83.276981 
L 307.401829 77.987514 
L 308.052439 88.413736 
L 308.70305 87.794364 
L 309.35366 82.680993 
L 310.00427 97.18245 
L 310.654881 89.89381 
L 311.305491 99.771267 
L 311.956101 86.509614 
L 312.606712 101.25141 
L 313.257322 95.910929 
L 313.907932 77.1614 
L 314.558543 78.290781 
L 315.209153 99.129678 
L 315.859763 96.032359 
L 316.510373 75.911868 
L 317.160984 94.971685 
L 317.811594 101.14681 
L 318.462204 93.700897 
L 319.112815 82.781506 
L 319.763425 99.413759 
L 320.414035 86.291986 
L 321.064646 102.778659 
L 321.715256 77.624518 
L 322.365866 68.941005 
L 323.016477 74.177265 
L 323.667087 95.349492 
L 324.317697 102.29849 
L 324.968308 110.571889 
L 325.618918 88.480993 
L 326.269528 96.264862 
L 326.920138 101.028551 
L 327.570749 93.126646 
L 328.221359 91.349303 
L 328.871969 90.367239 
L 329.52258 88.828377 
L 330.17319 93.391653 
L 330.8238 86.608679 
L 331.474411 74.465525 
L 332.125021 103.972471 
L 332.775631 90.048656 
L 333.426242 90.031144 
L 334.076852 104.021523 
L 334.727462 103.450968 
L 335.378073 100.398518 
L 336.028683 100.760312 
L 336.679293 105.02794 
L 337.329903 100.40885 
L 337.980514 88.063862 
L 338.631124 92.816097 
L 339.281734 81.392589 
L 339.932345 94.763008 
L 341.233565 88.386141 
L 341.884176 92.195572 
L 342.534786 91.912375 
L 343.185396 113.998574 
L 343.836007 102.683731 
L 344.486617 89.045446 
L 345.137227 86.966774 
L 345.787837 104.46731 
L 346.438448 102.909704 
L 347.089058 103.081165 
L 347.739668 82.857641 
L 348.390279 99.814773 
L 349.040889 80.938438 
L 349.691499 100.150992 
L 350.34211 99.946905 
L 351.64333 93.161539 
L 352.293941 81.996987 
L 352.944551 74.749738 
L 353.595161 66.10085 
L 354.245772 77.174114 
L 354.896382 65.743425 
L 355.546992 66.093332 
L 356.197602 65.744089 
L 356.848213 70.190382 
L 357.498823 96.904757 
L 358.149433 91.592999 
L 358.800044 105.74634 
L 359.450654 104.914095 
L 360.101264 75.823096 
L 360.751875 104.251033 
L 361.402485 87.803023 
L 362.053095 74.621624 
L 362.703706 92.810962 
L 363.354316 100.290997 
L 364.655537 88.502139 
L 365.306147 91.449748 
L 365.956757 92.380812 
L 366.607367 67.069561 
L 367.257978 87.614841 
L 368.559198 97.857952 
L 369.209809 65.378787 
L 369.860419 92.469744 
L 370.511029 93.668799 
L 371.16164 75.059202 
L 371.81225 98.962571 
L 372.46286 98.443525 
L 373.113471 93.544477 
L 373.764081 84.771467 
L 374.414691 80.859949 
L 375.065302 81.552969 
L 375.715912 85.049551 
L 376.366522 94.62135 
L 377.017132 92.409746 
L 377.667743 113.877745 
L 378.318353 110.342458 
L 379.619574 104.853499 
L 380.270184 106.535422 
L 380.920794 97.628232 
L 381.571405 118.998197 
L 382.222015 113.416391 
L 382.872625 112.258423 
L 383.523236 109.12131 
L 384.173846 111.199839 
L 384.824456 86.808385 
L 385.475066 106.888516 
L 386.125677 103.335349 
L 386.776287 91.730435 
L 387.426897 103.017264 
L 388.077508 103.643147 
L 388.728118 101.675001 
L 389.378728 105.631729 
L 390.029339 91.80538 
L 390.679949 106.88819 
L 391.330559 73.947075 
L 391.98117 105.625497 
L 392.63178 109.505529 
L 393.28239 106.152521 
L 393.933001 87.937883 
L 394.583611 97.499357 
L 395.234221 103.680714 
L 395.884831 102.840217 
L 396.535442 100.440504 
L 397.186052 99.538201 
L 397.836662 100.146707 
L 398.487273 83.644987 
L 398.487273 83.644987 
" clip-path="url(#p075b98ccec)" style="fill: none; stroke-dasharray: 9.6,2.4,1.5,2.4; stroke-dashoffset: 0; stroke: #008000; stroke-width: 1.5"/>
   </g>
   <g id="line2d_26">
    <path d="M 73.832727 104.115989 
L 74.483338 104.115989 
L 75.133948 100.927277 
L 75.784558 94.716453 
L 235.184085 94.716453 
L 235.834695 81.420461 
L 398.487273 81.420461 
L 398.487273 81.420461 
" clip-path="url(#p075b98ccec)" style="fill: none; stroke: #ff0000; stroke-width: 1.5; stroke-linecap: square"/>
   </g>
   <g id="patch_3">
    <path d="M 57.6 307.584 
L 57.6 41.472 
" style="fill: none; stroke: #000000; stroke-width: 0.8; stroke-linejoin: miter; stroke-linecap: square"/>
   </g>
   <g id="patch_4">
    <path d="M 414.72 307.584 
L 414.72 41.472 
" style="fill: none; stroke: #000000; stroke-width: 0.8; stroke-linejoin: miter; stroke-linecap: square"/>
   </g>
   <g id="patch_5">
    <path d="M 57.6 307.584 
L 414.72 307.584 
" style="fill: none; stroke: #000000; stroke-width: 0.8; stroke-linejoin: miter; stroke-linecap: square"/>
   </g>
   <g id="patch_6">
    <path d="M 57.6 41.472 
L 414.72 41.472 
" style="fill: none; stroke: #000000; stroke-width: 0.8; stroke-linejoin: miter; stroke-linecap: square"/>
   </g>
   <g id="text_14">
    <!-- Population's average and best fitness -->
    <g transform="translate(123.529687 35.472) scale(0.12 -0.12)">
     <defs>
      <path id="DejaVuSans-50" d="M 1259 4147 
L 1259 2394 
L 2053 2394 
Q 2494 2394 2734 2622 
Q 2975 2850 2975 3272 
Q 2975 3691 2734 3919 
Q 2494 4147 2053 4147 
L 1259 4147 
z
M 628 4666 
L 2053 4666 
Q 2838 4666 3239 4311 
Q 3641 3956 3641 3272 
Q 3641 2581 3239 2228 
Q 2838 1875 2053 1875 
L 1259 1875 
L 1259 0 
L 628 0 
L 628 4666 
z
" transform="scale(0.015625)"/>
      <path id="DejaVuSans-70" d="M 1159 525 
L 1159 -1331 
L 581 -1331 
L 581 3500 
L 1159 3500 
L 1159 2969 
Q 1341 3281 1617 3432 
Q 1894 3584 2278 3584 
Q 2916 3584 3314 3078 
Q 3713 2572 3713 1747 
Q 3713 922 3314 415 
Q 2916 -91 2278 -91 
Q 1894 -91 1617 61 
Q 1341 213 1159 525 
z
M 3116 1747 
Q 3116 2381 2855 2742 
Q 2594 3103 2138 3103 
Q 1681 3103 1420 2742 
Q 1159 2381 1159 1747 
Q 1159 1113 1420 752 
Q 1681 391 2138 391 
Q 2594 391 2855 752 
Q 3116 1113 3116 1747 
z
" transform="scale(0.015625)"/>
      <path id="DejaVuSans-75" d="M 544 1381 
L 544 3500 
L 1119 3500 
L 1119 1403 
Q 1119 906 1312 657 
Q 1506 409 1894 409 
Q 2359 409 2629 706 
Q 2900 1003 2900 1516 
L 2900 3500 
L 3475 3500 
L 3475 0 
L 2900 0 
L 2900 538 
Q 2691 219 2414 64 
Q 2138 -91 1772 -91 
Q 1169 -91 856 284 
Q 544 659 544 1381 
z
M 1991 3584 
L 1991 3584 
z
" transform="scale(0.015625)"/>
      <path id="DejaVuSans-6c" d="M 603 4863 
L 1178 4863 
L 1178 0 
L 603 0 
L 603 4863 
z
" transform="scale(0.015625)"/>
      <path id="DejaVuSans-27" d="M 1147 4666 
L 1147 2931 
L 616 2931 
L 616 4666 
L 1147 4666 
z
" transform="scale(0.015625)"/>
      <path id="DejaVuSans-20" transform="scale(0.015625)"/>
      <path id="DejaVuSans-76" d="M 191 3500 
L 800 3500 
L 1894 563 
L 2988 3500 
L 3597 3500 
L 2284 0 
L 1503 0 
L 191 3500 
z
" transform="scale(0.015625)"/>
      <path id="DejaVuSans-67" d="M 2906 1791 
Q 2906 2416 2648 2759 
Q 2391 3103 1925 3103 
Q 1463 3103 1205 2759 
Q 947 2416 947 1791 
Q 947 1169 1205 825 
Q 1463 481 1925 481 
Q 2391 481 2648 825 
Q 2906 1169 2906 1791 
z
M 3481 434 
Q 3481 -459 3084 -895 
Q 2688 -1331 1869 -1331 
Q 1566 -1331 1297 -1286 
Q 1028 -1241 775 -1147 
L 775 -588 
Q 1028 -725 1275 -790 
Q 1522 -856 1778 -856 
Q 2344 -856 2625 -561 
Q 2906 -266 2906 331 
L 2906 616 
Q 2728 306 2450 153 
Q 2172 0 1784 0 
Q 1141 0 747 490 
Q 353 981 353 1791 
Q 353 2603 747 3093 
Q 1141 3584 1784 3584 
Q 2172 3584 2450 3431 
Q 2728 3278 2906 2969 
L 2906 3500 
L 3481 3500 
L 3481 434 
z
" transform="scale(0.015625)"/>
      <path id="DejaVuSans-64" d="M 2906 2969 
L 2906 4863 
L 3481 4863 
L 3481 0 
L 2906 0 
L 2906 525 
Q 2725 213 2448 61 
Q 2172 -91 1784 -91 
Q 1150 -91 751 415 
Q 353 922 353 1747 
Q 353 2572 751 3078 
Q 1150 3584 1784 3584 
Q 2172 3584 2448 3432 
Q 2725 3281 2906 2969 
z
M 947 1747 
Q 947 1113 1208 752 
Q 1469 391 1925 391 
Q 2381 391 2643 752 
Q 2906 1113 2906 1747 
Q 2906 2381 2643 2742 
Q 2381 3103 1925 3103 
Q 1469 3103 1208 2742 
Q 947 2381 947 1747 
z
" transform="scale(0.015625)"/>
      <path id="DejaVuSans-62" d="M 3116 1747 
Q 3116 2381 2855 2742 
Q 2594 3103 2138 3103 
Q 1681 3103 1420 2742 
Q 1159 2381 1159 1747 
Q 1159 1113 1420 752 
Q 1681 391 2138 391 
Q 2594 391 2855 752 
Q 3116 1113 3116 1747 
z
M 1159 2969 
Q 1341 3281 1617 3432 
Q 1894 3584 2278 3584 
Q 2916 3584 3314 3078 
Q 3713 2572 3713 1747 
Q 3713 922 3314 415 
Q 2916 -91 2278 -91 
Q 1894 -91 1617 61 
Q 1341 213 1159 525 
L 1159 0 
L 581 0 
L 581 4863 
L 1159 4863 
L 1159 2969 
z
" transform="scale(0.015625)"/>
      <path id="DejaVuSans-66" d="M 2375 4863 
L 2375 4384 
L 1825 4384 
Q 1516 4384 1395 4259 
Q 1275 4134 1275 3809 
L 1275 3500 
L 2222 3500 
L 2222 3053 
L 1275 3053 
L 1275 0 
L 697 0 
L 697 3053 
L 147 3053 
L 147 3500 
L 697 3500 
L 697 3744 
Q 697 4328 969 4595 
Q 1241 4863 1831 4863 
L 2375 4863 
z
" transform="scale(0.015625)"/>
     </defs>
     <use xlink:href="#DejaVuSans-50"/>
     <use xlink:href="#DejaVuSans-6f" transform="translate(56.677734 0)"/>
     <use xlink:href="#DejaVuSans-70" transform="translate(117.859375 0)"/>
     <use xlink:href="#DejaVuSans-75" transform="translate(181.335938 0)"/>
     <use xlink:href="#DejaVuSans-6c" transform="translate(244.714844 0)"/>
     <use xlink:href="#DejaVuSans-61" transform="translate(272.498047 0)"/>
     <use xlink:href="#DejaVuSans-74" transform="translate(333.777344 0)"/>
     <use xlink:href="#DejaVuSans-69" transform="translate(372.986328 0)"/>
     <use xlink:href="#DejaVuSans-6f" transform="translate(400.769531 0)"/>
     <use xlink:href="#DejaVuSans-6e" transform="translate(461.951172 0)"/>
     <use xlink:href="#DejaVuSans-27" transform="translate(525.330078 0)"/>
     <use xlink:href="#DejaVuSans-73" transform="translate(552.820312 0)"/>
     <use xlink:href="#DejaVuSans-20" transform="translate(604.919922 0)"/>
     <use xlink:href="#DejaVuSans-61" transform="translate(636.707031 0)"/>
     <use xlink:href="#DejaVuSans-76" transform="translate(697.986328 0)"/>
     <use xlink:href="#DejaVuSans-65" transform="translate(757.166016 0)"/>
     <use xlink:href="#DejaVuSans-72" transform="translate(818.689453 0)"/>
     <use xlink:href="#DejaVuSans-61" transform="translate(859.802734 0)"/>
     <use xlink:href="#DejaVuSans-67" transform="translate(921.082031 0)"/>
     <use xlink:href="#DejaVuSans-65" transform="translate(984.558594 0)"/>
     <use xlink:href="#DejaVuSans-20" transform="translate(1046.082031 0)"/>
     <use xlink:href="#DejaVuSans-61" transform="translate(1077.869141 0)"/>
     <use xlink:href="#DejaVuSans-6e" transform="translate(1139.148438 0)"/>
     <use xlink:href="#DejaVuSans-64" transform="translate(1202.527344 0)"/>
     <use xlink:href="#DejaVuSans-20" transform="translate(1266.003906 0)"/>
     <use xlink:href="#DejaVuSans-62" transform="translate(1297.791016 0)"/>
     <use xlink:href="#DejaVuSans-65" transform="translate(1361.267578 0)"/>
     <use xlink:href="#DejaVuSans-73" transform="translate(1422.791016 0)"/>
     <use xlink:href="#DejaVuSans-74" transform="translate(1474.890625 0)"/>
     <use xlink:href="#DejaVuSans-20" transform="translate(1514.099609 0)"/>
     <use xlink:href="#DejaVuSans-66" transform="translate(1545.886719 0)"/>
     <use xlink:href="#DejaVuSans-69" transform="translate(1581.091797 0)"/>
     <use xlink:href="#DejaVuSans-74" transform="translate(1608.875 0)"/>
     <use xlink:href="#DejaVuSans-6e" transform="translate(1648.083984 0)"/>
     <use xlink:href="#DejaVuSans-65" transform="translate(1711.462891 0)"/>
     <use xlink:href="#DejaVuSans-73" transform="translate(1772.986328 0)"/>
     <use xlink:href="#DejaVuSans-73" transform="translate(1825.085938 0)"/>
    </g>
   </g>
   <g id="legend_1">
    <g id="patch_7">
     <path d="M 199.689687 302.584 
L 272.630313 302.584 
Q 274.630313 302.584 274.630313 300.584 
L 274.630313 242.8715 
Q 274.630313 240.8715 272.630313 240.8715 
L 199.689687 240.8715 
Q 197.689687 240.8715 197.689687 242.8715 
L 197.689687 300.584 
Q 197.689687 302.584 199.689687 302.584 
z
" style="fill: #ffffff; opacity: 0.8; stroke: #cccccc; stroke-linejoin: miter"/>
    </g>
    <g id="line2d_27">
     <path d="M 201.689687 248.969937 
L 211.689687 248.969937 
L 221.689687 248.969937 
" style="fill: none; stroke: #0000ff; stroke-width: 1.5; stroke-linecap: square"/>
    </g>
    <g id="text_15">
     <!-- average -->
     <g transform="translate(229.689687 252.469937) scale(0.1 -0.1)">
      <use xlink:href="#DejaVuSans-61"/>
      <use xlink:href="#DejaVuSans-76" transform="translate(61.279297 0)"/>
      <use xlink:href="#DejaVuSans-65" transform="translate(120.458984 0)"/>
      <use xlink:href="#DejaVuSans-72" transform="translate(181.982422 0)"/>
      <use xlink:href="#DejaVuSans-61" transform="translate(223.095703 0)"/>
      <use xlink:href="#DejaVuSans-67" transform="translate(284.375 0)"/>
      <use xlink:href="#DejaVuSans-65" transform="translate(347.851562 0)"/>
     </g>
    </g>
    <g id="line2d_28">
     <path d="M 201.689687 263.648062 
L 211.689687 263.648062 
L 221.689687 263.648062 
" style="fill: none; stroke-dasharray: 9.6,2.4,1.5,2.4; stroke-dashoffset: 0; stroke: #008000; stroke-width: 1.5"/>
    </g>
    <g id="text_16">
     <!-- -1 sd -->
     <g transform="translate(229.689687 267.148062) scale(0.1 -0.1)">
      <defs>
       <path id="DejaVuSans-2d" d="M 313 2009 
L 1997 2009 
L 1997 1497 
L 313 1497 
L 313 2009 
z
" transform="scale(0.015625)"/>
      </defs>
      <use xlink:href="#DejaVuSans-2d"/>
      <use xlink:href="#DejaVuSans-31" transform="translate(36.083984 0)"/>
      <use xlink:href="#DejaVuSans-20" transform="translate(99.707031 0)"/>
      <use xlink:href="#DejaVuSans-73" transform="translate(131.494141 0)"/>
      <use xlink:href="#DejaVuSans-64" transform="translate(183.59375 0)"/>
     </g>
    </g>
    <g id="line2d_29">
     <path d="M 201.689687 278.326187 
L 211.689687 278.326187 
L 221.689687 278.326187 
" style="fill: none; stroke-dasharray: 9.6,2.4,1.5,2.4; stroke-dashoffset: 0; stroke: #008000; stroke-width: 1.5"/>
    </g>
    <g id="text_17">
     <!-- +1 sd -->
     <g transform="translate(229.689687 281.826187) scale(0.1 -0.1)">
      <defs>
       <path id="DejaVuSans-2b" d="M 2944 4013 
L 2944 2272 
L 4684 2272 
L 4684 1741 
L 2944 1741 
L 2944 0 
L 2419 0 
L 2419 1741 
L 678 1741 
L 678 2272 
L 2419 2272 
L 2419 4013 
L 2944 4013 
z
" transform="scale(0.015625)"/>
      </defs>
      <use xlink:href="#DejaVuSans-2b"/>
      <use xlink:href="#DejaVuSans-31" transform="translate(83.789062 0)"/>
      <use xlink:href="#DejaVuSans-20" transform="translate(147.412109 0)"/>
      <use xlink:href="#DejaVuSans-73" transform="translate(179.199219 0)"/>
      <use xlink:href="#DejaVuSans-64" transform="translate(231.298828 0)"/>
     </g>
    </g>
    <g id="line2d_30">
     <path d="M 201.689687 293.004312 
L 211.689687 293.004312 
L 221.689687 293.004312 
" style="fill: none; stroke: #ff0000; stroke-width: 1.5; stroke-linecap: square"/>
    </g>
    <g id="text_18">
     <!-- best -->
     <g transform="translate(229.689687 296.504312) scale(0.1 -0.1)">
      <use xlink:href="#DejaVuSans-62"/>
      <use xlink:href="#DejaVuSans-65" transform="translate(63.476562 0)"/>
      <use xlink:href="#DejaVuSans-73" transform="translate(125 0)"/>
      <use xlink:href="#DejaVuSans-74" transform="translate(177.099609 0)"/>
     </g>
    </g>
   </g>
  </g>
 </g>
 <defs>
  <clipPath id="p075b98ccec">
   <rect x="57.6" y="41.472" width="357.12" height="266.112"/>
  </clipPath>
 </defs>
</svg>
