<?xml version="1.0" encoding="UTF-8" standalone="no"?>
<!DOCTYPE svg PUBLIC "-//W3C//DTD SVG 1.1//EN"
 "http://www.w3.org/Graphics/SVG/1.1/DTD/svg11.dtd">
<!-- Generated by graphviz version 12.2.1 (20241206.2353)
 -->
<!-- Pages: 1 -->
<svg width="644pt" height="91pt"
 viewBox="0.00 0.00 643.50 91.49" xmlns="http://www.w3.org/2000/svg" xmlns:xlink="http://www.w3.org/1999/xlink">
<g id="graph0" class="graph" transform="scale(1 1) rotate(0) translate(4 87.49)">
<polygon fill="white" stroke="none" points="-4,4 -4,-87.49 639.5,-87.49 639.5,4 -4,4"/>
<!-- &#45;1 -->
<g id="node1" class="node">
<title>&#45;1</title>
<polygon fill="lightgray" stroke="black" points="425.5,-83.49 402,-83.49 402,-64.99 425.5,-64.99 425.5,-83.49"/>
<text text-anchor="middle" x="413.75" y="-70.94" font-family="Times New Roman,serif" font-size="9.00">&#45;1</text>
</g>
<!-- 0 -->
<g id="node16" class="node">
<title>0</title>
<ellipse fill="lightblue" stroke="black" cx="254.75" cy="-14.5" rx="14.5" ry="14.5"/>
<text text-anchor="middle" x="254.75" y="-11.2" font-family="Times New Roman,serif" font-size="9.00">0</text>
</g>
<!-- &#45;1&#45;&gt;0 -->
<g id="edge1" class="edge">
<title>&#45;1&#45;&gt;0</title>
<path fill="none" stroke="green" stroke-width="0.12" d="M401.78,-68.47C398.83,-67.31 395.68,-66.09 392.75,-64.99 352.61,-49.91 305.53,-33.24 278.04,-23.61"/>
<polygon fill="green" stroke="green" stroke-width="0.12" points="279.28,-20.34 268.68,-20.34 276.97,-26.94 279.28,-20.34"/>
</g>
<!-- 1 -->
<g id="node17" class="node">
<title>1</title>
<ellipse fill="lightblue" stroke="black" cx="323.75" cy="-14.5" rx="14.5" ry="14.5"/>
<text text-anchor="middle" x="323.75" y="-11.2" font-family="Times New Roman,serif" font-size="9.00">1</text>
</g>
<!-- &#45;1&#45;&gt;1 -->
<g id="edge2" class="edge">
<title>&#45;1&#45;&gt;1</title>
<path fill="none" stroke="green" stroke-width="0.13" stroke-dasharray="1,5" d="M401.61,-65.45C386.9,-56.02 361.89,-39.97 344.19,-28.61"/>
<polygon fill="green" stroke="green" stroke-width="0.13" points="346.17,-25.72 335.86,-23.27 342.39,-31.61 346.17,-25.72"/>
</g>
<!-- &#45;2 -->
<g id="node2" class="node">
<title>&#45;2</title>
<polygon fill="lightgray" stroke="black" points="467.5,-83.49 444,-83.49 444,-64.99 467.5,-64.99 467.5,-83.49"/>
<text text-anchor="middle" x="455.75" y="-70.94" font-family="Times New Roman,serif" font-size="9.00">&#45;2</text>
</g>
<!-- &#45;2&#45;&gt;0 -->
<g id="edge3" class="edge">
<title>&#45;2&#45;&gt;0</title>
<path fill="none" stroke="green" stroke-width="0.25" d="M443.84,-68.3C440.89,-67.15 437.73,-65.97 434.75,-64.99 376.18,-45.69 360.12,-45.67 300.75,-28.99 293.43,-26.93 285.47,-24.63 278.27,-22.51"/>
<polygon fill="green" stroke="green" stroke-width="0.25" points="279.35,-19.18 268.77,-19.7 277.37,-25.89 279.35,-19.18"/>
</g>
<!-- &#45;2&#45;&gt;1 -->
<g id="edge4" class="edge">
<title>&#45;2&#45;&gt;1</title>
<path fill="none" stroke="green" stroke-width="0.22" stroke-dasharray="1,5" d="M443.57,-67.91C421.51,-58.26 374.65,-37.76 346.51,-25.45"/>
<polygon fill="green" stroke="green" stroke-width="0.22" points="347.94,-22.26 337.37,-21.45 345.13,-28.67 347.94,-22.26"/>
</g>
<!-- &#45;3 -->
<g id="node3" class="node">
<title>&#45;3</title>
<polygon fill="lightgray" stroke="black" points="509.5,-83.49 486,-83.49 486,-64.99 509.5,-64.99 509.5,-83.49"/>
<text text-anchor="middle" x="497.75" y="-70.94" font-family="Times New Roman,serif" font-size="9.00">&#45;3</text>
</g>
<!-- &#45;3&#45;&gt;0 -->
<g id="edge5" class="edge">
<title>&#45;3&#45;&gt;0</title>
<path fill="none" stroke="green" stroke-width="0.12" stroke-dasharray="1,5" d="M485.88,-68.17C482.93,-67.02 479.75,-65.88 476.75,-64.99 400.2,-42.31 378.24,-48.25 300.75,-28.99 293.28,-27.14 285.21,-24.86 277.95,-22.71"/>
<polygon fill="green" stroke="green" stroke-width="0.12" points="279.12,-19.41 268.53,-19.87 277.09,-26.11 279.12,-19.41"/>
</g>
<!-- &#45;3&#45;&gt;1 -->
<g id="edge6" class="edge">
<title>&#45;3&#45;&gt;1</title>
<path fill="none" stroke="red" stroke-width="0.34" d="M485.8,-68.4C482.86,-67.25 479.7,-66.05 476.75,-64.99 431.57,-48.82 378.08,-32.05 347.81,-22.78"/>
<polygon fill="red" stroke="red" stroke-width="0.34" points="348.85,-19.44 338.27,-19.87 346.81,-26.13 348.85,-19.44"/>
</g>
<!-- &#45;4 -->
<g id="node4" class="node">
<title>&#45;4</title>
<polygon fill="lightgray" stroke="black" points="23.5,-83.49 0,-83.49 0,-64.99 23.5,-64.99 23.5,-83.49"/>
<text text-anchor="middle" x="11.75" y="-70.94" font-family="Times New Roman,serif" font-size="9.00">&#45;4</text>
</g>
<!-- &#45;4&#45;&gt;0 -->
<g id="edge7" class="edge">
<title>&#45;4&#45;&gt;0</title>
<path fill="none" stroke="green" stroke-width="0.22" d="M23.63,-68.2C26.58,-67.06 29.75,-65.91 32.75,-64.99 103.29,-43.41 189.09,-26.97 230.32,-19.66"/>
<polygon fill="green" stroke="green" stroke-width="0.22" points="230.68,-23.15 239.93,-17.98 229.48,-16.25 230.68,-23.15"/>
</g>
<!-- &#45;4&#45;&gt;1 -->
<g id="edge8" class="edge">
<title>&#45;4&#45;&gt;1</title>
<path fill="none" stroke="red" stroke-width="0.13" stroke-dasharray="1,5" d="M23.59,-68.05C26.54,-66.91 29.72,-65.8 32.75,-64.99 139.11,-36.69 170.24,-52.54 277.75,-28.99 285.27,-27.35 293.35,-25.13 300.61,-22.97"/>
<polygon fill="red" stroke="red" stroke-width="0.13" points="301.47,-26.37 310,-20.08 299.41,-19.68 301.47,-26.37"/>
</g>
<!-- &#45;5 -->
<g id="node5" class="node">
<title>&#45;5</title>
<polygon fill="lightgray" stroke="black" points="65.5,-83.49 42,-83.49 42,-64.99 65.5,-64.99 65.5,-83.49"/>
<text text-anchor="middle" x="53.75" y="-70.94" font-family="Times New Roman,serif" font-size="9.00">&#45;5</text>
</g>
<!-- &#45;5&#45;&gt;0 -->
<g id="edge9" class="edge">
<title>&#45;5&#45;&gt;0</title>
<path fill="none" stroke="green" stroke-width="0.27" d="M65.66,-68.31C68.61,-67.16 71.78,-65.98 74.75,-64.99 129.93,-46.62 196.19,-29.69 230.89,-21.2"/>
<polygon fill="green" stroke="green" stroke-width="0.27" points="231.31,-24.7 240.2,-18.94 229.66,-17.9 231.31,-24.7"/>
</g>
<!-- &#45;5&#45;&gt;1 -->
<g id="edge10" class="edge">
<title>&#45;5&#45;&gt;1</title>
<path fill="none" stroke="red" stroke-width="0.3" d="M65.6,-68.11C68.55,-66.97 71.73,-65.84 74.75,-64.99 162.94,-40.12 188.54,-49.92 277.75,-28.99 285.15,-27.25 293.13,-25.04 300.33,-22.91"/>
<polygon fill="red" stroke="red" stroke-width="0.3" points="301.18,-26.31 309.73,-20.04 299.14,-19.61 301.18,-26.31"/>
</g>
<!-- &#45;6 -->
<g id="node6" class="node">
<title>&#45;6</title>
<polygon fill="lightgray" stroke="black" points="551.5,-83.49 528,-83.49 528,-64.99 551.5,-64.99 551.5,-83.49"/>
<text text-anchor="middle" x="539.75" y="-70.94" font-family="Times New Roman,serif" font-size="9.00">&#45;6</text>
</g>
<!-- &#45;6&#45;&gt;1 -->
<g id="edge11" class="edge">
<title>&#45;6&#45;&gt;1</title>
<path fill="none" stroke="red" stroke-width="0.48" d="M527.85,-68.27C524.9,-67.12 521.73,-65.95 518.75,-64.99 458.49,-45.59 385.81,-28.85 348.5,-20.73"/>
<polygon fill="red" stroke="red" stroke-width="0.48" points="349.33,-17.33 338.82,-18.64 347.86,-24.17 349.33,-17.33"/>
</g>
<!-- &#45;7 -->
<g id="node7" class="node">
<title>&#45;7</title>
<polygon fill="lightgray" stroke="black" points="593.5,-83.49 570,-83.49 570,-64.99 593.5,-64.99 593.5,-83.49"/>
<text text-anchor="middle" x="581.75" y="-70.94" font-family="Times New Roman,serif" font-size="9.00">&#45;7</text>
</g>
<!-- &#45;7&#45;&gt;1 -->
<g id="edge12" class="edge">
<title>&#45;7&#45;&gt;1</title>
<path fill="none" stroke="green" stroke-width="0.34" d="M569.88,-68.18C566.93,-67.03 563.75,-65.89 560.75,-64.99 484.79,-42.32 392.13,-26.19 348.6,-19.27"/>
<polygon fill="green" stroke="green" stroke-width="0.34" points="349.31,-15.84 338.89,-17.75 348.23,-22.75 349.31,-15.84"/>
</g>
<!-- &#45;8 -->
<g id="node8" class="node">
<title>&#45;8</title>
<polygon fill="lightgray" stroke="black" points="107.5,-83.49 84,-83.49 84,-64.99 107.5,-64.99 107.5,-83.49"/>
<text text-anchor="middle" x="95.75" y="-70.94" font-family="Times New Roman,serif" font-size="9.00">&#45;8</text>
</g>
<!-- &#45;8&#45;&gt;0 -->
<g id="edge13" class="edge">
<title>&#45;8&#45;&gt;0</title>
<path fill="none" stroke="red" stroke-width="0.33" d="M107.72,-68.47C110.67,-67.31 113.82,-66.09 116.75,-64.99 156.72,-49.98 203.55,-33.39 231.1,-23.74"/>
<polygon fill="red" stroke="red" stroke-width="0.33" points="232.24,-27.05 240.52,-20.44 229.93,-20.44 232.24,-27.05"/>
</g>
<!-- &#45;8&#45;&gt;1 -->
<g id="edge14" class="edge">
<title>&#45;8&#45;&gt;1</title>
<path fill="none" stroke="green" stroke-width="0.21" d="M107.63,-68.21C110.58,-67.06 113.75,-65.91 116.75,-64.99 186.86,-43.52 206.76,-47.32 277.75,-28.99 285.11,-27.09 293.08,-24.83 300.28,-22.7"/>
<polygon fill="green" stroke="green" stroke-width="0.21" points="301.25,-26.07 309.82,-19.84 299.24,-19.36 301.25,-26.07"/>
</g>
<!-- &#45;9 -->
<g id="node9" class="node">
<title>&#45;9</title>
<polygon fill="lightgray" stroke="black" points="635.5,-83.49 612,-83.49 612,-64.99 635.5,-64.99 635.5,-83.49"/>
<text text-anchor="middle" x="623.75" y="-70.94" font-family="Times New Roman,serif" font-size="9.00">&#45;9</text>
</g>
<!-- &#45;9&#45;&gt;1 -->
<g id="edge15" class="edge">
<title>&#45;9&#45;&gt;1</title>
<path fill="none" stroke="green" stroke-width="0.39" d="M611.9,-68.11C608.95,-66.97 605.77,-65.84 602.75,-64.99 510.95,-39.09 398.16,-24.03 348.83,-18.25"/>
<polygon fill="green" stroke="green" stroke-width="0.39" points="349.42,-14.79 339.08,-17.13 348.62,-21.75 349.42,-14.79"/>
</g>
<!-- &#45;10 -->
<g id="node10" class="node">
<title>&#45;10</title>
<polygon fill="lightgray" stroke="black" points="153.75,-83.49 125.75,-83.49 125.75,-64.99 153.75,-64.99 153.75,-83.49"/>
<text text-anchor="middle" x="139.75" y="-70.94" font-family="Times New Roman,serif" font-size="9.00">&#45;10</text>
</g>
<!-- &#45;10&#45;&gt;0 -->
<g id="edge16" class="edge">
<title>&#45;10&#45;&gt;0</title>
<path fill="none" stroke="red" stroke-width="0.48" d="M153.85,-66.16C173.5,-56.3 209.3,-38.32 232.55,-26.65"/>
<polygon fill="red" stroke="red" stroke-width="0.48" points="233.93,-29.87 241.29,-22.25 230.79,-23.61 233.93,-29.87"/>
</g>
<!-- &#45;10&#45;&gt;1 -->
<g id="edge17" class="edge">
<title>&#45;10&#45;&gt;1</title>
<path fill="none" stroke="green" stroke-width="0.46" d="M153.82,-68.08C156.76,-67.03 159.85,-65.96 162.75,-64.99 211.15,-48.88 268.34,-31.75 299.87,-22.46"/>
<polygon fill="green" stroke="green" stroke-width="0.46" points="300.62,-25.89 309.23,-19.72 298.65,-19.17 300.62,-25.89"/>
</g>
<!-- &#45;11 -->
<g id="node11" class="node">
<title>&#45;11</title>
<polygon fill="lightgray" stroke="black" points="199.75,-83.49 171.75,-83.49 171.75,-64.99 199.75,-64.99 199.75,-83.49"/>
<text text-anchor="middle" x="185.75" y="-70.94" font-family="Times New Roman,serif" font-size="9.00">&#45;11</text>
</g>
<!-- &#45;11&#45;&gt;0 -->
<g id="edge18" class="edge">
<title>&#45;11&#45;&gt;0</title>
<path fill="none" stroke="red" stroke-width="0.16" stroke-dasharray="1,5" d="M195.93,-64.72C206.51,-55.87 223.29,-41.82 236.23,-30.99"/>
<polygon fill="red" stroke="red" stroke-width="0.16" points="238.47,-33.69 243.89,-24.58 233.98,-28.32 238.47,-33.69"/>
</g>
<!-- &#45;11&#45;&gt;1 -->
<g id="edge19" class="edge">
<title>&#45;11&#45;&gt;1</title>
<path fill="none" stroke="green" stroke-width="0.33" d="M200,-67.28C223.92,-57.27 272.34,-37.01 301.01,-25.01"/>
<polygon fill="green" stroke="green" stroke-width="0.33" points="302.25,-28.28 310.13,-21.2 299.55,-21.83 302.25,-28.28"/>
</g>
<!-- &#45;12 -->
<g id="node12" class="node">
<title>&#45;12</title>
<polygon fill="lightgray" stroke="black" points="245.75,-83.49 217.75,-83.49 217.75,-64.99 245.75,-64.99 245.75,-83.49"/>
<text text-anchor="middle" x="231.75" y="-70.94" font-family="Times New Roman,serif" font-size="9.00">&#45;12</text>
</g>
<!-- &#45;12&#45;&gt;0 -->
<g id="edge20" class="edge">
<title>&#45;12&#45;&gt;0</title>
<path fill="none" stroke="red" stroke-width="0.33" stroke-dasharray="1,5" d="M235.14,-64.72C237.93,-57.72 242.02,-47.46 245.74,-38.12"/>
<polygon fill="red" stroke="red" stroke-width="0.33" points="248.92,-39.59 249.37,-29 242.42,-37 248.92,-39.59"/>
</g>
<!-- &#45;12&#45;&gt;1 -->
<g id="edge21" class="edge">
<title>&#45;12&#45;&gt;1</title>
<path fill="none" stroke="green" stroke-width="0.17" d="M245.32,-64.72C260.56,-55.16 285.46,-39.53 303.11,-28.45"/>
<polygon fill="green" stroke="green" stroke-width="0.17" points="304.77,-31.54 311.38,-23.26 301.05,-25.61 304.77,-31.54"/>
</g>
<!-- &#45;13 -->
<g id="node13" class="node">
<title>&#45;13</title>
<polygon fill="lightgray" stroke="black" points="291.75,-83.49 263.75,-83.49 263.75,-64.99 291.75,-64.99 291.75,-83.49"/>
<text text-anchor="middle" x="277.75" y="-70.94" font-family="Times New Roman,serif" font-size="9.00">&#45;13</text>
</g>
<!-- &#45;13&#45;&gt;0 -->
<g id="edge22" class="edge">
<title>&#45;13&#45;&gt;0</title>
<path fill="none" stroke="red" stroke-width="0.42" d="M274.36,-64.72C271.6,-57.79 267.57,-47.68 263.88,-38.42"/>
<polygon fill="red" stroke="red" stroke-width="0.42" points="267.14,-37.13 260.18,-29.14 260.63,-39.72 267.14,-37.13"/>
</g>
<!-- &#45;13&#45;&gt;1 -->
<g id="edge23" class="edge">
<title>&#45;13&#45;&gt;1</title>
<path fill="none" stroke="green" stroke-width="0.17" d="M284.54,-64.72C290.86,-56.78 300.52,-44.66 308.67,-34.43"/>
<polygon fill="green" stroke="green" stroke-width="0.17" points="311.39,-36.62 314.89,-26.62 305.92,-32.26 311.39,-36.62"/>
</g>
<!-- &#45;14 -->
<g id="node14" class="node">
<title>&#45;14</title>
<polygon fill="lightgray" stroke="black" points="337.75,-83.49 309.75,-83.49 309.75,-64.99 337.75,-64.99 337.75,-83.49"/>
<text text-anchor="middle" x="323.75" y="-70.94" font-family="Times New Roman,serif" font-size="9.00">&#45;14</text>
</g>
<!-- &#45;14&#45;&gt;0 -->
<g id="edge24" class="edge">
<title>&#45;14&#45;&gt;0</title>
<path fill="none" stroke="green" stroke-width="0.11" d="M313.57,-64.72C302.89,-55.78 285.89,-41.55 272.9,-30.69"/>
<polygon fill="green" stroke="green" stroke-width="0.11" points="275.46,-28.27 265.55,-24.53 270.97,-33.64 275.46,-28.27"/>
</g>
<!-- &#45;14&#45;&gt;1 -->
<g id="edge25" class="edge">
<title>&#45;14&#45;&gt;1</title>
<path fill="none" stroke="green" stroke-width="0.1" stroke-dasharray="1,5" d="M323.75,-64.72C323.75,-58.05 323.75,-48.42 323.75,-39.45"/>
<polygon fill="green" stroke="green" stroke-width="0.1" points="327.25,-39.59 323.75,-29.59 320.25,-39.59 327.25,-39.59"/>
</g>
<!-- &#45;15 -->
<g id="node15" class="node">
<title>&#45;15</title>
<polygon fill="lightgray" stroke="black" points="383.75,-83.49 355.75,-83.49 355.75,-64.99 383.75,-64.99 383.75,-83.49"/>
<text text-anchor="middle" x="369.75" y="-70.94" font-family="Times New Roman,serif" font-size="9.00">&#45;15</text>
</g>
<!-- &#45;15&#45;&gt;0 -->
<g id="edge26" class="edge">
<title>&#45;15&#45;&gt;0</title>
<path fill="none" stroke="red" stroke-width="0.42" d="M355.65,-66.16C336,-56.3 300.2,-38.32 276.95,-26.65"/>
<polygon fill="red" stroke="red" stroke-width="0.42" points="278.62,-23.57 268.12,-22.21 275.48,-29.82 278.62,-23.57"/>
</g>
<!-- &#45;15&#45;&gt;1 -->
<g id="edge27" class="edge">
<title>&#45;15&#45;&gt;1</title>
<path fill="none" stroke="green" stroke-width="0.38" d="M362.96,-64.72C356.64,-56.78 346.98,-44.66 338.83,-34.43"/>
<polygon fill="green" stroke="green" stroke-width="0.38" points="341.78,-32.51 332.81,-26.87 336.3,-36.87 341.78,-32.51"/>
</g>
</g>
</svg>
