<?xml version="1.0" encoding="utf-8" standalone="no"?>
<!DOCTYPE svg PUBLIC "-//W3C//DTD SVG 1.1//EN"
  "http://www.w3.org/Graphics/SVG/1.1/DTD/svg11.dtd">
<svg xmlns:xlink="http://www.w3.org/1999/xlink" width="460.8pt" height="345.6pt" viewBox="0 0 460.8 345.6" xmlns="http://www.w3.org/2000/svg" version="1.1">
 <metadata>
  <rdf:RDF xmlns:dc="http://purl.org/dc/elements/1.1/" xmlns:cc="http://creativecommons.org/ns#" xmlns:rdf="http://www.w3.org/1999/02/22-rdf-syntax-ns#">
   <cc:Work>
    <dc:type rdf:resource="http://purl.org/dc/dcmitype/StillImage"/>
    <dc:date>2025-07-09T15:54:05.634500</dc:date>
    <dc:format>image/svg+xml</dc:format>
    <dc:creator>
     <cc:Agent>
      <dc:title>Matplotlib v3.10.0, https://matplotlib.org/</dc:title>
     </cc:Agent>
    </dc:creator>
   </cc:Work>
  </rdf:RDF>
 </metadata>
 <defs>
  <style type="text/css">*{stroke-linejoin: round; stroke-linecap: butt}</style>
 </defs>
 <g id="figure_1">
  <g id="patch_1">
   <path d="M 0 345.6 
L 460.8 345.6 
L 460.8 0 
L 0 0 
z
" style="fill: #ffffff"/>
  </g>
  <g id="axes_1">
   <g id="patch_2">
    <path d="M 57.6 307.584 
L 414.72 307.584 
L 414.72 41.472 
L 57.6 41.472 
z
" style="fill: #ffffff"/>
   </g>
   <g id="matplotlib.axis_1">
    <g id="xtick_1">
     <g id="line2d_1">
      <path d="M 73.832727 307.584 
L 73.832727 41.472 
" clip-path="url(#p3eadd2bf3a)" style="fill: none; stroke: #b0b0b0; stroke-width: 0.8; stroke-linecap: square"/>
     </g>
     <g id="line2d_2">
      <defs>
       <path id="m959638c4e2" d="M 0 0 
L 0 3.5 
" style="stroke: #000000; stroke-width: 0.8"/>
      </defs>
      <g>
       <use xlink:href="#m959638c4e2" x="73.832727" y="307.584" style="stroke: #000000; stroke-width: 0.8"/>
      </g>
     </g>
     <g id="text_1">
      <!-- 0 -->
      <g transform="translate(70.651477 322.182437) scale(0.1 -0.1)">
       <defs>
        <path id="DejaVuSans-30" d="M 2034 4250 
Q 1547 4250 1301 3770 
Q 1056 3291 1056 2328 
Q 1056 1369 1301 889 
Q 1547 409 2034 409 
Q 2525 409 2770 889 
Q 3016 1369 3016 2328 
Q 3016 3291 2770 3770 
Q 2525 4250 2034 4250 
z
M 2034 4750 
Q 2819 4750 3233 4129 
Q 3647 3509 3647 2328 
Q 3647 1150 3233 529 
Q 2819 -91 2034 -91 
Q 1250 -91 836 529 
Q 422 1150 422 2328 
Q 422 3509 836 4129 
Q 1250 4750 2034 4750 
z
" transform="scale(0.015625)"/>
       </defs>
       <use xlink:href="#DejaVuSans-30"/>
      </g>
     </g>
    </g>
    <g id="xtick_2">
     <g id="line2d_3">
      <path d="M 138.893758 307.584 
L 138.893758 41.472 
" clip-path="url(#p3eadd2bf3a)" style="fill: none; stroke: #b0b0b0; stroke-width: 0.8; stroke-linecap: square"/>
     </g>
     <g id="line2d_4">
      <g>
       <use xlink:href="#m959638c4e2" x="138.893758" y="307.584" style="stroke: #000000; stroke-width: 0.8"/>
      </g>
     </g>
     <g id="text_2">
      <!-- 100 -->
      <g transform="translate(129.350008 322.182437) scale(0.1 -0.1)">
       <defs>
        <path id="DejaVuSans-31" d="M 794 531 
L 1825 531 
L 1825 4091 
L 703 3866 
L 703 4441 
L 1819 4666 
L 2450 4666 
L 2450 531 
L 3481 531 
L 3481 0 
L 794 0 
L 794 531 
z
" transform="scale(0.015625)"/>
       </defs>
       <use xlink:href="#DejaVuSans-31"/>
       <use xlink:href="#DejaVuSans-30" transform="translate(63.623047 0)"/>
       <use xlink:href="#DejaVuSans-30" transform="translate(127.246094 0)"/>
      </g>
     </g>
    </g>
    <g id="xtick_3">
     <g id="line2d_5">
      <path d="M 203.95479 307.584 
L 203.95479 41.472 
" clip-path="url(#p3eadd2bf3a)" style="fill: none; stroke: #b0b0b0; stroke-width: 0.8; stroke-linecap: square"/>
     </g>
     <g id="line2d_6">
      <g>
       <use xlink:href="#m959638c4e2" x="203.95479" y="307.584" style="stroke: #000000; stroke-width: 0.8"/>
      </g>
     </g>
     <g id="text_3">
      <!-- 200 -->
      <g transform="translate(194.41104 322.182437) scale(0.1 -0.1)">
       <defs>
        <path id="DejaVuSans-32" d="M 1228 531 
L 3431 531 
L 3431 0 
L 469 0 
L 469 531 
Q 828 903 1448 1529 
Q 2069 2156 2228 2338 
Q 2531 2678 2651 2914 
Q 2772 3150 2772 3378 
Q 2772 3750 2511 3984 
Q 2250 4219 1831 4219 
Q 1534 4219 1204 4116 
Q 875 4013 500 3803 
L 500 4441 
Q 881 4594 1212 4672 
Q 1544 4750 1819 4750 
Q 2544 4750 2975 4387 
Q 3406 4025 3406 3419 
Q 3406 3131 3298 2873 
Q 3191 2616 2906 2266 
Q 2828 2175 2409 1742 
Q 1991 1309 1228 531 
z
" transform="scale(0.015625)"/>
       </defs>
       <use xlink:href="#DejaVuSans-32"/>
       <use xlink:href="#DejaVuSans-30" transform="translate(63.623047 0)"/>
       <use xlink:href="#DejaVuSans-30" transform="translate(127.246094 0)"/>
      </g>
     </g>
    </g>
    <g id="xtick_4">
     <g id="line2d_7">
      <path d="M 269.015821 307.584 
L 269.015821 41.472 
" clip-path="url(#p3eadd2bf3a)" style="fill: none; stroke: #b0b0b0; stroke-width: 0.8; stroke-linecap: square"/>
     </g>
     <g id="line2d_8">
      <g>
       <use xlink:href="#m959638c4e2" x="269.015821" y="307.584" style="stroke: #000000; stroke-width: 0.8"/>
      </g>
     </g>
     <g id="text_4">
      <!-- 300 -->
      <g transform="translate(259.472071 322.182437) scale(0.1 -0.1)">
       <defs>
        <path id="DejaVuSans-33" d="M 2597 2516 
Q 3050 2419 3304 2112 
Q 3559 1806 3559 1356 
Q 3559 666 3084 287 
Q 2609 -91 1734 -91 
Q 1441 -91 1130 -33 
Q 819 25 488 141 
L 488 750 
Q 750 597 1062 519 
Q 1375 441 1716 441 
Q 2309 441 2620 675 
Q 2931 909 2931 1356 
Q 2931 1769 2642 2001 
Q 2353 2234 1838 2234 
L 1294 2234 
L 1294 2753 
L 1863 2753 
Q 2328 2753 2575 2939 
Q 2822 3125 2822 3475 
Q 2822 3834 2567 4026 
Q 2313 4219 1838 4219 
Q 1578 4219 1281 4162 
Q 984 4106 628 3988 
L 628 4550 
Q 988 4650 1302 4700 
Q 1616 4750 1894 4750 
Q 2613 4750 3031 4423 
Q 3450 4097 3450 3541 
Q 3450 3153 3228 2886 
Q 3006 2619 2597 2516 
z
" transform="scale(0.015625)"/>
       </defs>
       <use xlink:href="#DejaVuSans-33"/>
       <use xlink:href="#DejaVuSans-30" transform="translate(63.623047 0)"/>
       <use xlink:href="#DejaVuSans-30" transform="translate(127.246094 0)"/>
      </g>
     </g>
    </g>
    <g id="xtick_5">
     <g id="line2d_9">
      <path d="M 334.076852 307.584 
L 334.076852 41.472 
" clip-path="url(#p3eadd2bf3a)" style="fill: none; stroke: #b0b0b0; stroke-width: 0.8; stroke-linecap: square"/>
     </g>
     <g id="line2d_10">
      <g>
       <use xlink:href="#m959638c4e2" x="334.076852" y="307.584" style="stroke: #000000; stroke-width: 0.8"/>
      </g>
     </g>
     <g id="text_5">
      <!-- 400 -->
      <g transform="translate(324.533102 322.182437) scale(0.1 -0.1)">
       <defs>
        <path id="DejaVuSans-34" d="M 2419 4116 
L 825 1625 
L 2419 1625 
L 2419 4116 
z
M 2253 4666 
L 3047 4666 
L 3047 1625 
L 3713 1625 
L 3713 1100 
L 3047 1100 
L 3047 0 
L 2419 0 
L 2419 1100 
L 313 1100 
L 313 1709 
L 2253 4666 
z
" transform="scale(0.015625)"/>
       </defs>
       <use xlink:href="#DejaVuSans-34"/>
       <use xlink:href="#DejaVuSans-30" transform="translate(63.623047 0)"/>
       <use xlink:href="#DejaVuSans-30" transform="translate(127.246094 0)"/>
      </g>
     </g>
    </g>
    <g id="xtick_6">
     <g id="line2d_11">
      <path d="M 399.137883 307.584 
L 399.137883 41.472 
" clip-path="url(#p3eadd2bf3a)" style="fill: none; stroke: #b0b0b0; stroke-width: 0.8; stroke-linecap: square"/>
     </g>
     <g id="line2d_12">
      <g>
       <use xlink:href="#m959638c4e2" x="399.137883" y="307.584" style="stroke: #000000; stroke-width: 0.8"/>
      </g>
     </g>
     <g id="text_6">
      <!-- 500 -->
      <g transform="translate(389.594133 322.182437) scale(0.1 -0.1)">
       <defs>
        <path id="DejaVuSans-35" d="M 691 4666 
L 3169 4666 
L 3169 4134 
L 1269 4134 
L 1269 2991 
Q 1406 3038 1543 3061 
Q 1681 3084 1819 3084 
Q 2600 3084 3056 2656 
Q 3513 2228 3513 1497 
Q 3513 744 3044 326 
Q 2575 -91 1722 -91 
Q 1428 -91 1123 -41 
Q 819 9 494 109 
L 494 744 
Q 775 591 1075 516 
Q 1375 441 1709 441 
Q 2250 441 2565 725 
Q 2881 1009 2881 1497 
Q 2881 1984 2565 2268 
Q 2250 2553 1709 2553 
Q 1456 2553 1204 2497 
Q 953 2441 691 2322 
L 691 4666 
z
" transform="scale(0.015625)"/>
       </defs>
       <use xlink:href="#DejaVuSans-35"/>
       <use xlink:href="#DejaVuSans-30" transform="translate(63.623047 0)"/>
       <use xlink:href="#DejaVuSans-30" transform="translate(127.246094 0)"/>
      </g>
     </g>
    </g>
    <g id="text_7">
     <!-- Generations -->
     <g transform="translate(205.662344 335.860562) scale(0.1 -0.1)">
      <defs>
       <path id="DejaVuSans-47" d="M 3809 666 
L 3809 1919 
L 2778 1919 
L 2778 2438 
L 4434 2438 
L 4434 434 
Q 4069 175 3628 42 
Q 3188 -91 2688 -91 
Q 1594 -91 976 548 
Q 359 1188 359 2328 
Q 359 3472 976 4111 
Q 1594 4750 2688 4750 
Q 3144 4750 3555 4637 
Q 3966 4525 4313 4306 
L 4313 3634 
Q 3963 3931 3569 4081 
Q 3175 4231 2741 4231 
Q 1884 4231 1454 3753 
Q 1025 3275 1025 2328 
Q 1025 1384 1454 906 
Q 1884 428 2741 428 
Q 3075 428 3337 486 
Q 3600 544 3809 666 
z
" transform="scale(0.015625)"/>
       <path id="DejaVuSans-65" d="M 3597 1894 
L 3597 1613 
L 953 1613 
Q 991 1019 1311 708 
Q 1631 397 2203 397 
Q 2534 397 2845 478 
Q 3156 559 3463 722 
L 3463 178 
Q 3153 47 2828 -22 
Q 2503 -91 2169 -91 
Q 1331 -91 842 396 
Q 353 884 353 1716 
Q 353 2575 817 3079 
Q 1281 3584 2069 3584 
Q 2775 3584 3186 3129 
Q 3597 2675 3597 1894 
z
M 3022 2063 
Q 3016 2534 2758 2815 
Q 2500 3097 2075 3097 
Q 1594 3097 1305 2825 
Q 1016 2553 972 2059 
L 3022 2063 
z
" transform="scale(0.015625)"/>
       <path id="DejaVuSans-6e" d="M 3513 2113 
L 3513 0 
L 2938 0 
L 2938 2094 
Q 2938 2591 2744 2837 
Q 2550 3084 2163 3084 
Q 1697 3084 1428 2787 
Q 1159 2491 1159 1978 
L 1159 0 
L 581 0 
L 581 3500 
L 1159 3500 
L 1159 2956 
Q 1366 3272 1645 3428 
Q 1925 3584 2291 3584 
Q 2894 3584 3203 3211 
Q 3513 2838 3513 2113 
z
" transform="scale(0.015625)"/>
       <path id="DejaVuSans-72" d="M 2631 2963 
Q 2534 3019 2420 3045 
Q 2306 3072 2169 3072 
Q 1681 3072 1420 2755 
Q 1159 2438 1159 1844 
L 1159 0 
L 581 0 
L 581 3500 
L 1159 3500 
L 1159 2956 
Q 1341 3275 1631 3429 
Q 1922 3584 2338 3584 
Q 2397 3584 2469 3576 
Q 2541 3569 2628 3553 
L 2631 2963 
z
" transform="scale(0.015625)"/>
       <path id="DejaVuSans-61" d="M 2194 1759 
Q 1497 1759 1228 1600 
Q 959 1441 959 1056 
Q 959 750 1161 570 
Q 1363 391 1709 391 
Q 2188 391 2477 730 
Q 2766 1069 2766 1631 
L 2766 1759 
L 2194 1759 
z
M 3341 1997 
L 3341 0 
L 2766 0 
L 2766 531 
Q 2569 213 2275 61 
Q 1981 -91 1556 -91 
Q 1019 -91 701 211 
Q 384 513 384 1019 
Q 384 1609 779 1909 
Q 1175 2209 1959 2209 
L 2766 2209 
L 2766 2266 
Q 2766 2663 2505 2880 
Q 2244 3097 1772 3097 
Q 1472 3097 1187 3025 
Q 903 2953 641 2809 
L 641 3341 
Q 956 3463 1253 3523 
Q 1550 3584 1831 3584 
Q 2591 3584 2966 3190 
Q 3341 2797 3341 1997 
z
" transform="scale(0.015625)"/>
       <path id="DejaVuSans-74" d="M 1172 4494 
L 1172 3500 
L 2356 3500 
L 2356 3053 
L 1172 3053 
L 1172 1153 
Q 1172 725 1289 603 
Q 1406 481 1766 481 
L 2356 481 
L 2356 0 
L 1766 0 
Q 1100 0 847 248 
Q 594 497 594 1153 
L 594 3053 
L 172 3053 
L 172 3500 
L 594 3500 
L 594 4494 
L 1172 4494 
z
" transform="scale(0.015625)"/>
       <path id="DejaVuSans-69" d="M 603 3500 
L 1178 3500 
L 1178 0 
L 603 0 
L 603 3500 
z
M 603 4863 
L 1178 4863 
L 1178 4134 
L 603 4134 
L 603 4863 
z
" transform="scale(0.015625)"/>
       <path id="DejaVuSans-6f" d="M 1959 3097 
Q 1497 3097 1228 2736 
Q 959 2375 959 1747 
Q 959 1119 1226 758 
Q 1494 397 1959 397 
Q 2419 397 2687 759 
Q 2956 1122 2956 1747 
Q 2956 2369 2687 2733 
Q 2419 3097 1959 3097 
z
M 1959 3584 
Q 2709 3584 3137 3096 
Q 3566 2609 3566 1747 
Q 3566 888 3137 398 
Q 2709 -91 1959 -91 
Q 1206 -91 779 398 
Q 353 888 353 1747 
Q 353 2609 779 3096 
Q 1206 3584 1959 3584 
z
" transform="scale(0.015625)"/>
       <path id="DejaVuSans-73" d="M 2834 3397 
L 2834 2853 
Q 2591 2978 2328 3040 
Q 2066 3103 1784 3103 
Q 1356 3103 1142 2972 
Q 928 2841 928 2578 
Q 928 2378 1081 2264 
Q 1234 2150 1697 2047 
L 1894 2003 
Q 2506 1872 2764 1633 
Q 3022 1394 3022 966 
Q 3022 478 2636 193 
Q 2250 -91 1575 -91 
Q 1294 -91 989 -36 
Q 684 19 347 128 
L 347 722 
Q 666 556 975 473 
Q 1284 391 1588 391 
Q 1994 391 2212 530 
Q 2431 669 2431 922 
Q 2431 1156 2273 1281 
Q 2116 1406 1581 1522 
L 1381 1569 
Q 847 1681 609 1914 
Q 372 2147 372 2553 
Q 372 3047 722 3315 
Q 1072 3584 1716 3584 
Q 2034 3584 2315 3537 
Q 2597 3491 2834 3397 
z
" transform="scale(0.015625)"/>
      </defs>
      <use xlink:href="#DejaVuSans-47"/>
      <use xlink:href="#DejaVuSans-65" transform="translate(77.490234 0)"/>
      <use xlink:href="#DejaVuSans-6e" transform="translate(139.013672 0)"/>
      <use xlink:href="#DejaVuSans-65" transform="translate(202.392578 0)"/>
      <use xlink:href="#DejaVuSans-72" transform="translate(263.916016 0)"/>
      <use xlink:href="#DejaVuSans-61" transform="translate(305.029297 0)"/>
      <use xlink:href="#DejaVuSans-74" transform="translate(366.308594 0)"/>
      <use xlink:href="#DejaVuSans-69" transform="translate(405.517578 0)"/>
      <use xlink:href="#DejaVuSans-6f" transform="translate(433.300781 0)"/>
      <use xlink:href="#DejaVuSans-6e" transform="translate(494.482422 0)"/>
      <use xlink:href="#DejaVuSans-73" transform="translate(557.861328 0)"/>
     </g>
    </g>
   </g>
   <g id="matplotlib.axis_2">
    <g id="ytick_1">
     <g id="line2d_13">
      <path d="M 57.6 278.668486 
L 414.72 278.668486 
" clip-path="url(#p3eadd2bf3a)" style="fill: none; stroke: #b0b0b0; stroke-width: 0.8; stroke-linecap: square"/>
     </g>
     <g id="line2d_14">
      <defs>
       <path id="md1c879ddde" d="M 0 0 
L -3.5 0 
" style="stroke: #000000; stroke-width: 0.8"/>
      </defs>
      <g>
       <use xlink:href="#md1c879ddde" x="57.6" y="278.668486" style="stroke: #000000; stroke-width: 0.8"/>
      </g>
     </g>
     <g id="text_8">
      <!-- −100000 -->
      <g transform="translate(4.045313 282.467705) scale(0.1 -0.1)">
       <defs>
        <path id="DejaVuSans-2212" d="M 678 2272 
L 4684 2272 
L 4684 1741 
L 678 1741 
L 678 2272 
z
" transform="scale(0.015625)"/>
       </defs>
       <use xlink:href="#DejaVuSans-2212"/>
       <use xlink:href="#DejaVuSans-31" transform="translate(83.789062 0)"/>
       <use xlink:href="#DejaVuSans-30" transform="translate(147.412109 0)"/>
       <use xlink:href="#DejaVuSans-30" transform="translate(211.035156 0)"/>
       <use xlink:href="#DejaVuSans-30" transform="translate(274.658203 0)"/>
       <use xlink:href="#DejaVuSans-30" transform="translate(338.28125 0)"/>
       <use xlink:href="#DejaVuSans-30" transform="translate(401.904297 0)"/>
      </g>
     </g>
    </g>
    <g id="ytick_2">
     <g id="line2d_15">
      <path d="M 57.6 245.673902 
L 414.72 245.673902 
" clip-path="url(#p3eadd2bf3a)" style="fill: none; stroke: #b0b0b0; stroke-width: 0.8; stroke-linecap: square"/>
     </g>
     <g id="line2d_16">
      <g>
       <use xlink:href="#md1c879ddde" x="57.6" y="245.673902" style="stroke: #000000; stroke-width: 0.8"/>
      </g>
     </g>
     <g id="text_9">
      <!-- 0 -->
      <g transform="translate(44.2375 249.47312) scale(0.1 -0.1)">
       <use xlink:href="#DejaVuSans-30"/>
      </g>
     </g>
    </g>
    <g id="ytick_3">
     <g id="line2d_17">
      <path d="M 57.6 212.679317 
L 414.72 212.679317 
" clip-path="url(#p3eadd2bf3a)" style="fill: none; stroke: #b0b0b0; stroke-width: 0.8; stroke-linecap: square"/>
     </g>
     <g id="line2d_18">
      <g>
       <use xlink:href="#md1c879ddde" x="57.6" y="212.679317" style="stroke: #000000; stroke-width: 0.8"/>
      </g>
     </g>
     <g id="text_10">
      <!-- 100000 -->
      <g transform="translate(12.425 216.478536) scale(0.1 -0.1)">
       <use xlink:href="#DejaVuSans-31"/>
       <use xlink:href="#DejaVuSans-30" transform="translate(63.623047 0)"/>
       <use xlink:href="#DejaVuSans-30" transform="translate(127.246094 0)"/>
       <use xlink:href="#DejaVuSans-30" transform="translate(190.869141 0)"/>
       <use xlink:href="#DejaVuSans-30" transform="translate(254.492188 0)"/>
       <use xlink:href="#DejaVuSans-30" transform="translate(318.115234 0)"/>
      </g>
     </g>
    </g>
    <g id="ytick_4">
     <g id="line2d_19">
      <path d="M 57.6 179.684732 
L 414.72 179.684732 
" clip-path="url(#p3eadd2bf3a)" style="fill: none; stroke: #b0b0b0; stroke-width: 0.8; stroke-linecap: square"/>
     </g>
     <g id="line2d_20">
      <g>
       <use xlink:href="#md1c879ddde" x="57.6" y="179.684732" style="stroke: #000000; stroke-width: 0.8"/>
      </g>
     </g>
     <g id="text_11">
      <!-- 200000 -->
      <g transform="translate(12.425 183.483951) scale(0.1 -0.1)">
       <use xlink:href="#DejaVuSans-32"/>
       <use xlink:href="#DejaVuSans-30" transform="translate(63.623047 0)"/>
       <use xlink:href="#DejaVuSans-30" transform="translate(127.246094 0)"/>
       <use xlink:href="#DejaVuSans-30" transform="translate(190.869141 0)"/>
       <use xlink:href="#DejaVuSans-30" transform="translate(254.492188 0)"/>
       <use xlink:href="#DejaVuSans-30" transform="translate(318.115234 0)"/>
      </g>
     </g>
    </g>
    <g id="ytick_5">
     <g id="line2d_21">
      <path d="M 57.6 146.690148 
L 414.72 146.690148 
" clip-path="url(#p3eadd2bf3a)" style="fill: none; stroke: #b0b0b0; stroke-width: 0.8; stroke-linecap: square"/>
     </g>
     <g id="line2d_22">
      <g>
       <use xlink:href="#md1c879ddde" x="57.6" y="146.690148" style="stroke: #000000; stroke-width: 0.8"/>
      </g>
     </g>
     <g id="text_12">
      <!-- 300000 -->
      <g transform="translate(12.425 150.489367) scale(0.1 -0.1)">
       <use xlink:href="#DejaVuSans-33"/>
       <use xlink:href="#DejaVuSans-30" transform="translate(63.623047 0)"/>
       <use xlink:href="#DejaVuSans-30" transform="translate(127.246094 0)"/>
       <use xlink:href="#DejaVuSans-30" transform="translate(190.869141 0)"/>
       <use xlink:href="#DejaVuSans-30" transform="translate(254.492188 0)"/>
       <use xlink:href="#DejaVuSans-30" transform="translate(318.115234 0)"/>
      </g>
     </g>
    </g>
    <g id="ytick_6">
     <g id="line2d_23">
      <path d="M 57.6 113.695563 
L 414.72 113.695563 
" clip-path="url(#p3eadd2bf3a)" style="fill: none; stroke: #b0b0b0; stroke-width: 0.8; stroke-linecap: square"/>
     </g>
     <g id="line2d_24">
      <g>
       <use xlink:href="#md1c879ddde" x="57.6" y="113.695563" style="stroke: #000000; stroke-width: 0.8"/>
      </g>
     </g>
     <g id="text_13">
      <!-- 400000 -->
      <g transform="translate(12.425 117.494782) scale(0.1 -0.1)">
       <use xlink:href="#DejaVuSans-34"/>
       <use xlink:href="#DejaVuSans-30" transform="translate(63.623047 0)"/>
       <use xlink:href="#DejaVuSans-30" transform="translate(127.246094 0)"/>
       <use xlink:href="#DejaVuSans-30" transform="translate(190.869141 0)"/>
       <use xlink:href="#DejaVuSans-30" transform="translate(254.492188 0)"/>
       <use xlink:href="#DejaVuSans-30" transform="translate(318.115234 0)"/>
      </g>
     </g>
    </g>
    <g id="ytick_7">
     <g id="line2d_25">
      <path d="M 57.6 80.700979 
L 414.72 80.700979 
" clip-path="url(#p3eadd2bf3a)" style="fill: none; stroke: #b0b0b0; stroke-width: 0.8; stroke-linecap: square"/>
     </g>
     <g id="line2d_26">
      <g>
       <use xlink:href="#md1c879ddde" x="57.6" y="80.700979" style="stroke: #000000; stroke-width: 0.8"/>
      </g>
     </g>
     <g id="text_14">
      <!-- 500000 -->
      <g transform="translate(12.425 84.500197) scale(0.1 -0.1)">
       <use xlink:href="#DejaVuSans-35"/>
       <use xlink:href="#DejaVuSans-30" transform="translate(63.623047 0)"/>
       <use xlink:href="#DejaVuSans-30" transform="translate(127.246094 0)"/>
       <use xlink:href="#DejaVuSans-30" transform="translate(190.869141 0)"/>
       <use xlink:href="#DejaVuSans-30" transform="translate(254.492188 0)"/>
       <use xlink:href="#DejaVuSans-30" transform="translate(318.115234 0)"/>
      </g>
     </g>
    </g>
    <g id="ytick_8">
     <g id="line2d_27">
      <path d="M 57.6 47.706394 
L 414.72 47.706394 
" clip-path="url(#p3eadd2bf3a)" style="fill: none; stroke: #b0b0b0; stroke-width: 0.8; stroke-linecap: square"/>
     </g>
     <g id="line2d_28">
      <g>
       <use xlink:href="#md1c879ddde" x="57.6" y="47.706394" style="stroke: #000000; stroke-width: 0.8"/>
      </g>
     </g>
     <g id="text_15">
      <!-- 600000 -->
      <g transform="translate(12.425 51.505613) scale(0.1 -0.1)">
       <defs>
        <path id="DejaVuSans-36" d="M 2113 2584 
Q 1688 2584 1439 2293 
Q 1191 2003 1191 1497 
Q 1191 994 1439 701 
Q 1688 409 2113 409 
Q 2538 409 2786 701 
Q 3034 994 3034 1497 
Q 3034 2003 2786 2293 
Q 2538 2584 2113 2584 
z
M 3366 4563 
L 3366 3988 
Q 3128 4100 2886 4159 
Q 2644 4219 2406 4219 
Q 1781 4219 1451 3797 
Q 1122 3375 1075 2522 
Q 1259 2794 1537 2939 
Q 1816 3084 2150 3084 
Q 2853 3084 3261 2657 
Q 3669 2231 3669 1497 
Q 3669 778 3244 343 
Q 2819 -91 2113 -91 
Q 1303 -91 875 529 
Q 447 1150 447 2328 
Q 447 3434 972 4092 
Q 1497 4750 2381 4750 
Q 2619 4750 2861 4703 
Q 3103 4656 3366 4563 
z
" transform="scale(0.015625)"/>
       </defs>
       <use xlink:href="#DejaVuSans-36"/>
       <use xlink:href="#DejaVuSans-30" transform="translate(63.623047 0)"/>
       <use xlink:href="#DejaVuSans-30" transform="translate(127.246094 0)"/>
       <use xlink:href="#DejaVuSans-30" transform="translate(190.869141 0)"/>
       <use xlink:href="#DejaVuSans-30" transform="translate(254.492188 0)"/>
       <use xlink:href="#DejaVuSans-30" transform="translate(318.115234 0)"/>
      </g>
     </g>
    </g>
    <g id="text_16">
     <!-- Fitness -->
     <g transform="translate(-2.034375 191.845187) rotate(-90) scale(0.1 -0.1)">
      <defs>
       <path id="DejaVuSans-46" d="M 628 4666 
L 3309 4666 
L 3309 4134 
L 1259 4134 
L 1259 2759 
L 3109 2759 
L 3109 2228 
L 1259 2228 
L 1259 0 
L 628 0 
L 628 4666 
z
" transform="scale(0.015625)"/>
      </defs>
      <use xlink:href="#DejaVuSans-46"/>
      <use xlink:href="#DejaVuSans-69" transform="translate(50.269531 0)"/>
      <use xlink:href="#DejaVuSans-74" transform="translate(78.052734 0)"/>
      <use xlink:href="#DejaVuSans-6e" transform="translate(117.261719 0)"/>
      <use xlink:href="#DejaVuSans-65" transform="translate(180.640625 0)"/>
      <use xlink:href="#DejaVuSans-73" transform="translate(242.164062 0)"/>
      <use xlink:href="#DejaVuSans-73" transform="translate(294.263672 0)"/>
     </g>
    </g>
   </g>
   <g id="line2d_29">
    <path d="M 73.832727 230.574228 
L 74.483338 232.095691 
L 75.133948 232.739456 
L 75.784558 230.729042 
L 76.435169 230.657886 
L 77.085779 232.507132 
L 77.736389 227.983425 
L 78.386999 230.151509 
L 79.03761 222.530977 
L 79.68822 224.062688 
L 80.989441 230.033362 
L 81.640051 231.041163 
L 82.290661 231.100592 
L 82.941272 226.933839 
L 83.591882 219.547695 
L 84.242492 227.544429 
L 84.893103 228.995115 
L 86.194323 223.267901 
L 86.844934 228.708451 
L 87.495544 224.017828 
L 88.146154 224.929054 
L 88.796764 222.077431 
L 89.447375 223.457258 
L 90.097985 223.954933 
L 90.748595 227.855792 
L 91.399206 230.170453 
L 92.049816 224.481612 
L 92.700426 223.430813 
L 93.351037 228.912687 
L 94.001647 225.114893 
L 94.652257 225.677093 
L 95.302868 229.975055 
L 95.953478 223.185608 
L 97.254698 219.814898 
L 97.905309 219.830425 
L 98.555919 223.275045 
L 99.206529 222.754309 
L 99.85714 224.584509 
L 100.50775 229.005403 
L 101.15836 222.286746 
L 101.808971 224.622315 
L 102.459581 224.094041 
L 103.110191 220.430101 
L 103.760802 219.656839 
L 104.411412 220.579684 
L 105.062022 222.675586 
L 105.712633 220.803573 
L 106.363243 223.672223 
L 107.013853 222.048888 
L 108.315074 222.333718 
L 108.965684 224.824171 
L 109.616294 225.888411 
L 110.266905 222.588834 
L 110.917515 224.846974 
L 111.568125 219.879556 
L 112.218736 224.77822 
L 112.869346 220.568768 
L 113.519956 227.362547 
L 114.170567 220.156011 
L 114.821177 217.257158 
L 115.471787 220.081302 
L 116.122398 219.911747 
L 116.773008 212.798659 
L 117.423618 213.73211 
L 118.074228 218.338167 
L 118.724839 213.460343 
L 119.375449 211.314583 
L 120.026059 212.754683 
L 120.67667 210.276008 
L 121.32728 218.678578 
L 121.97789 216.824919 
L 122.628501 213.929146 
L 123.279111 221.753484 
L 123.929721 215.078792 
L 125.230942 213.699211 
L 125.881552 215.967625 
L 126.532163 215.537103 
L 127.182773 216.204131 
L 127.833383 211.298828 
L 128.483993 218.736429 
L 129.134604 211.979033 
L 129.785214 210.048497 
L 131.086435 217.507097 
L 132.387655 209.896083 
L 133.038266 213.176301 
L 133.688876 210.94738 
L 134.339486 211.179809 
L 134.990097 216.384703 
L 135.640707 214.691308 
L 136.291317 208.110992 
L 136.941927 210.366989 
L 137.592538 209.807842 
L 138.243148 212.977238 
L 138.893758 216.957838 
L 139.544369 209.081195 
L 140.194979 214.930026 
L 140.845589 213.703591 
L 141.4962 215.711132 
L 142.14681 212.790972 
L 142.79742 214.038458 
L 143.448031 212.327761 
L 144.098641 217.953717 
L 144.749251 216.083135 
L 145.399862 215.563438 
L 146.050472 217.23548 
L 146.701082 210.521753 
L 147.351692 211.060871 
L 148.002303 214.829731 
L 148.652913 219.274043 
L 149.303523 214.381546 
L 149.954134 218.727529 
L 150.604744 215.736112 
L 151.255354 217.762044 
L 151.905965 213.743361 
L 152.556575 209.02139 
L 153.207185 215.318995 
L 153.857796 214.327908 
L 154.508406 214.034429 
L 155.159016 216.09217 
L 155.809627 212.742367 
L 156.460237 218.468599 
L 157.110847 217.69101 
L 158.412068 220.435493 
L 159.062678 220.242744 
L 159.713288 212.273376 
L 161.014509 217.185352 
L 161.665119 215.297142 
L 162.31573 210.182001 
L 162.96634 213.427743 
L 163.61695 211.860638 
L 164.267561 209.63125 
L 164.918171 213.11713 
L 165.568781 208.62109 
L 166.219392 208.347024 
L 166.870002 211.175892 
L 167.520612 213.059111 
L 168.171222 209.274962 
L 168.821833 212.054586 
L 170.123053 216.972258 
L 170.773664 214.799152 
L 171.424274 215.960584 
L 172.074884 211.702435 
L 172.725495 215.258773 
L 173.376105 207.773404 
L 174.026715 213.775272 
L 174.677326 212.175739 
L 175.327936 215.764168 
L 175.978546 211.202482 
L 176.629156 208.884357 
L 177.279767 213.964686 
L 177.930377 210.857123 
L 178.580987 214.06955 
L 179.231598 212.580953 
L 179.882208 210.128769 
L 180.532818 215.108828 
L 181.183429 212.367569 
L 181.834039 215.967147 
L 182.484649 216.053973 
L 183.13526 219.884036 
L 183.78587 217.069021 
L 184.43648 215.743635 
L 185.087091 219.668145 
L 185.737701 216.063329 
L 186.388311 211.708033 
L 187.038921 213.315463 
L 187.689532 213.510953 
L 188.340142 212.223891 
L 188.990752 217.649845 
L 189.641363 215.952529 
L 190.291973 212.772366 
L 190.942583 218.827516 
L 191.593194 212.092503 
L 192.243804 209.778782 
L 192.894414 218.056478 
L 193.545025 210.724126 
L 194.195635 210.812981 
L 194.846245 210.255439 
L 195.496856 207.791985 
L 196.147466 206.723001 
L 196.798076 206.706499 
L 197.448686 208.159244 
L 198.099297 207.87737 
L 198.749907 209.117212 
L 199.400517 208.373866 
L 200.051128 208.561506 
L 200.701738 209.417321 
L 201.352348 208.102149 
L 202.002959 209.619692 
L 202.653569 215.409432 
L 203.304179 213.944013 
L 203.95479 214.84833 
L 204.6054 214.141433 
L 205.25601 214.204774 
L 205.906621 213.758237 
L 206.557231 211.793857 
L 207.207841 211.655924 
L 207.858451 211.746521 
L 208.509062 209.06454 
L 209.159672 208.002392 
L 209.810282 212.308409 
L 210.460893 209.637412 
L 211.111503 214.866565 
L 211.762113 216.462963 
L 212.412724 221.577166 
L 213.063334 220.845285 
L 213.713944 208.386035 
L 214.364555 214.648969 
L 215.015165 218.285986 
L 215.665775 215.62747 
L 216.316385 216.313787 
L 216.966996 211.287515 
L 217.617606 218.850888 
L 218.268216 221.552299 
L 218.918827 219.634592 
L 219.569437 213.616985 
L 220.220047 214.637807 
L 220.870658 209.410214 
L 221.521268 205.909424 
L 222.171878 209.560526 
L 222.822489 211.125578 
L 223.473099 208.824666 
L 224.123709 211.139885 
L 224.77432 210.864889 
L 225.42493 211.455239 
L 226.07554 209.600076 
L 226.72615 213.157828 
L 227.376761 211.69119 
L 228.027371 204.494851 
L 228.677981 206.483709 
L 229.328592 211.069323 
L 229.979202 211.567828 
L 230.629812 207.133659 
L 231.280423 210.465688 
L 231.931033 209.728383 
L 232.581643 212.520658 
L 233.232254 210.009118 
L 233.882864 217.336472 
L 234.533474 214.589309 
L 235.184085 208.863344 
L 235.834695 211.537959 
L 236.485305 212.244811 
L 237.135915 211.513441 
L 237.786526 217.072343 
L 238.437136 208.65254 
L 239.087746 210.56948 
L 239.738357 218.224249 
L 240.388967 218.123486 
L 241.039577 211.583622 
L 241.690188 213.284842 
L 242.340798 216.045216 
L 242.991408 216.464018 
L 243.642019 217.777598 
L 244.292629 220.187779 
L 244.943239 218.825551 
L 245.59385 218.674867 
L 246.24446 219.402669 
L 246.89507 222.964806 
L 247.54568 220.03687 
L 248.196291 216.186546 
L 248.846901 216.568997 
L 249.497511 213.436962 
L 250.148122 211.872993 
L 250.798732 210.633223 
L 251.449342 207.097182 
L 252.099953 212.233775 
L 252.750563 208.035513 
L 253.401173 209.573347 
L 254.051784 213.018126 
L 254.702394 212.361531 
L 255.353004 217.376056 
L 256.003615 214.631365 
L 256.654225 218.050311 
L 257.304835 212.708841 
L 257.955445 218.102813 
L 258.606056 213.118719 
L 259.256666 209.632192 
L 259.907276 210.154746 
L 260.557887 217.179113 
L 261.208497 209.97546 
L 261.859107 215.887143 
L 262.509718 217.269731 
L 263.160328 215.604907 
L 263.810938 211.377761 
L 264.461549 213.230659 
L 265.112159 209.706884 
L 265.762769 211.741016 
L 266.413379 217.125188 
L 267.06399 214.365601 
L 267.7146 208.496308 
L 268.36521 213.459126 
L 269.015821 213.113956 
L 269.666431 214.933519 
L 270.317041 212.045133 
L 270.967652 207.32115 
L 271.618262 207.412084 
L 272.268872 206.178037 
L 272.919483 206.330208 
L 273.570093 212.141139 
L 274.220703 205.404039 
L 274.871314 208.829035 
L 275.521924 205.267057 
L 276.172534 209.14406 
L 276.823144 206.887545 
L 278.124365 211.079559 
L 278.774975 213.754423 
L 279.425586 212.227684 
L 280.076196 209.233344 
L 280.726806 207.043114 
L 281.377417 203.226072 
L 282.028027 205.344679 
L 282.678637 208.198331 
L 283.329248 206.797346 
L 283.979858 214.837141 
L 284.630468 212.171028 
L 285.281079 213.601498 
L 285.931689 212.715945 
L 286.582299 208.605766 
L 287.232909 210.417451 
L 287.88352 212.701738 
L 289.18474 218.62877 
L 289.835351 212.414328 
L 290.485961 211.486735 
L 291.136571 213.824964 
L 291.787182 211.097552 
L 292.437792 213.740271 
L 293.088402 215.693248 
L 293.739013 215.769838 
L 294.389623 211.564837 
L 295.040233 211.717165 
L 295.690844 210.816483 
L 296.341454 214.014615 
L 296.992064 218.968474 
L 298.293285 222.566772 
L 298.943895 221.869881 
L 299.594505 223.90345 
L 300.245116 221.966177 
L 300.895726 225.756055 
L 301.546336 217.309378 
L 302.196947 219.461716 
L 302.847557 219.968958 
L 303.498167 219.883314 
L 304.148778 218.372944 
L 304.799388 216.268165 
L 305.449998 217.771319 
L 306.100608 218.073738 
L 306.751219 218.699597 
L 307.401829 216.377826 
L 308.70305 219.302179 
L 309.35366 215.748318 
L 310.00427 223.123872 
L 310.654881 219.202836 
L 311.305491 217.852313 
L 311.956101 215.754294 
L 312.606712 214.227527 
L 313.257322 208.591527 
L 313.907932 212.732826 
L 315.209153 207.938568 
L 315.859763 216.927522 
L 316.510373 212.227395 
L 317.160984 209.475857 
L 317.811594 214.584272 
L 318.462204 214.517903 
L 319.112815 213.142291 
L 319.763425 210.69575 
L 320.414035 215.952374 
L 321.064646 217.381286 
L 321.715256 218.471071 
L 322.365866 218.615504 
L 323.016477 216.774911 
L 323.667087 217.856844 
L 324.317697 217.991283 
L 324.968308 217.786609 
L 325.618918 219.339449 
L 326.269528 216.959417 
L 326.920138 219.503706 
L 327.570749 221.064978 
L 328.221359 221.882833 
L 328.871969 229.790079 
L 329.52258 221.108529 
L 330.17319 219.474236 
L 330.8238 216.20256 
L 331.474411 216.617784 
L 332.125021 220.98159 
L 332.775631 215.999199 
L 333.426242 215.201097 
L 334.076852 214.090208 
L 334.727462 215.080913 
L 335.378073 216.581572 
L 336.028683 215.751361 
L 336.679293 215.581941 
L 337.329903 216.608079 
L 337.980514 218.48742 
L 338.631124 219.471275 
L 339.281734 214.618474 
L 339.932345 213.81452 
L 340.582955 215.967116 
L 341.233565 213.755343 
L 341.884176 215.506189 
L 342.534786 217.752956 
L 343.185396 211.040522 
L 343.836007 211.332903 
L 344.486617 213.749578 
L 345.137227 213.219177 
L 345.787837 215.132561 
L 346.438448 214.636647 
L 347.089058 211.833633 
L 347.739668 215.472195 
L 348.390279 212.165062 
L 349.040889 213.276577 
L 349.691499 210.865303 
L 350.34211 211.164623 
L 350.99272 210.619309 
L 351.64333 215.484373 
L 352.293941 210.980397 
L 352.944551 209.931095 
L 353.595161 217.187015 
L 354.245772 213.862057 
L 354.896382 211.883662 
L 355.546992 211.569884 
L 356.197602 214.655138 
L 356.848213 214.270634 
L 357.498823 216.720119 
L 358.149433 217.509634 
L 358.800044 214.996697 
L 359.450654 216.334205 
L 360.101264 213.273619 
L 360.751875 213.240514 
L 361.402485 215.386349 
L 362.053095 211.468171 
L 362.703706 212.031343 
L 363.354316 214.059078 
L 364.004926 214.196345 
L 364.655537 213.72157 
L 365.306147 211.616706 
L 365.956757 210.600294 
L 366.607367 218.783706 
L 367.257978 216.271879 
L 367.908588 211.974455 
L 368.559198 214.130508 
L 369.209809 217.11679 
L 369.860419 216.006824 
L 370.511029 211.434762 
L 371.16164 205.443645 
L 371.81225 210.892983 
L 372.46286 208.16159 
L 373.113471 207.385613 
L 373.764081 204.242991 
L 374.414691 211.742588 
L 375.715912 211.455667 
L 376.366522 211.065253 
L 377.017132 203.6834 
L 377.667743 209.441878 
L 378.318353 213.85543 
L 378.968963 209.632452 
L 379.619574 210.01933 
L 380.270184 213.07272 
L 380.920794 218.455078 
L 381.571405 213.814058 
L 382.222015 214.489713 
L 382.872625 210.536563 
L 383.523236 213.308631 
L 384.173846 210.890752 
L 384.824456 214.199324 
L 385.475066 215.883296 
L 386.125677 212.986479 
L 386.776287 216.219642 
L 387.426897 210.402314 
L 388.077508 212.40831 
L 388.728118 209.498611 
L 389.378728 209.092929 
L 390.029339 209.822668 
L 390.679949 207.751159 
L 391.330559 217.808691 
L 391.98117 218.458903 
L 392.63178 213.200529 
L 393.933001 218.679285 
L 394.583611 219.097054 
L 395.234221 215.865415 
L 395.884831 214.57279 
L 396.535442 207.482204 
L 397.186052 215.369065 
L 397.836662 212.694746 
L 398.487273 216.207504 
L 398.487273 216.207504 
" clip-path="url(#p3eadd2bf3a)" style="fill: none; stroke: #0000ff; stroke-width: 1.5; stroke-linecap: square"/>
   </g>
   <g id="line2d_30">
    <path d="M 73.832727 250.313167 
L 74.483338 282.792202 
L 75.133948 275.932094 
L 75.784558 279.742987 
L 76.435169 275.79798 
L 77.085779 289.291159 
L 77.736389 273.915433 
L 78.386999 281.225404 
L 79.03761 250.410727 
L 79.68822 277.709622 
L 80.989441 288.163704 
L 81.640051 281.593877 
L 82.290661 295.488 
L 82.941272 287.793034 
L 83.591882 259.585719 
L 84.242492 278.699794 
L 84.893103 286.687844 
L 86.194323 265.397439 
L 86.844934 284.530428 
L 87.495544 273.891329 
L 88.146154 277.30171 
L 88.796764 269.975651 
L 89.447375 274.976319 
L 90.097985 275.289757 
L 90.748595 286.496696 
L 91.399206 285.454098 
L 92.049816 264.074326 
L 92.700426 256.198886 
L 93.351037 280.640762 
L 94.652257 265.055322 
L 95.302868 283.178069 
L 95.953478 269.815598 
L 96.604088 273.977848 
L 97.254698 266.70763 
L 97.905309 262.92837 
L 98.555919 283.050342 
L 99.206529 273.141277 
L 99.85714 287.584022 
L 100.50775 293.024605 
L 101.15836 284.273601 
L 101.808971 277.326483 
L 102.459581 280.669324 
L 103.110191 262.782527 
L 103.760802 263.557285 
L 104.411412 268.630911 
L 105.062022 269.669949 
L 105.712633 267.828668 
L 106.363243 268.456529 
L 107.013853 259.160679 
L 107.664463 259.483947 
L 108.315074 261.694897 
L 108.965684 267.458598 
L 109.616294 267.854797 
L 110.266905 258.390385 
L 110.917515 275.637395 
L 111.568125 264.065743 
L 112.218736 277.378573 
L 112.869346 261.641275 
L 113.519956 288.534223 
L 114.170567 260.864375 
L 114.821177 254.948975 
L 115.471787 270.918361 
L 116.122398 272.606168 
L 116.773008 250.561818 
L 117.423618 264.241861 
L 118.074228 269.377706 
L 118.724839 261.855107 
L 119.375449 243.116609 
L 120.026059 261.228529 
L 120.67667 243.436408 
L 121.32728 284.280686 
L 121.97789 266.992768 
L 122.628501 254.831991 
L 123.279111 286.306886 
L 123.929721 264.291063 
L 124.580332 252.184126 
L 125.230942 259.451303 
L 125.881552 263.92962 
L 126.532163 262.30985 
L 127.182773 267.423249 
L 127.833383 259.130414 
L 128.483993 275.55204 
L 129.134604 249.213924 
L 129.785214 241.732708 
L 130.435824 255.288065 
L 131.086435 272.066969 
L 131.737045 256.129785 
L 132.387655 247.118443 
L 133.038266 256.861132 
L 133.688876 248.591717 
L 134.339486 247.137029 
L 134.990097 278.074846 
L 136.291317 242.95187 
L 136.941927 251.628147 
L 137.592538 247.142987 
L 138.243148 256.807296 
L 138.893758 278.848971 
L 139.544369 246.133363 
L 140.194979 261.733928 
L 140.845589 255.952988 
L 141.4962 259.165351 
L 142.14681 252.196453 
L 142.79742 267.483486 
L 143.448031 264.366899 
L 144.098641 281.141271 
L 144.749251 275.950187 
L 145.399862 276.52708 
L 146.050472 288.516164 
L 146.701082 256.484042 
L 147.351692 255.533019 
L 148.002303 269.596857 
L 148.652913 277.593089 
L 149.303523 255.862738 
L 149.954134 276.965299 
L 150.604744 286.138225 
L 151.255354 275.760398 
L 151.905965 260.319718 
L 152.556575 248.962767 
L 153.207185 268.972133 
L 153.857796 276.459243 
L 154.508406 257.704956 
L 155.159016 260.439834 
L 155.809627 254.551833 
L 156.460237 273.304087 
L 157.110847 261.305351 
L 157.761457 271.762029 
L 158.412068 272.240786 
L 159.062678 278.564722 
L 159.713288 246.629641 
L 161.014509 272.223021 
L 161.665119 260.954674 
L 162.31573 244.69161 
L 162.96634 264.74933 
L 163.61695 253.070663 
L 164.267561 253.198132 
L 164.918171 277.830717 
L 165.568781 244.484731 
L 166.219392 251.007457 
L 166.870002 258.650542 
L 167.520612 262.294148 
L 168.171222 258.622241 
L 169.472443 269.144465 
L 170.123053 265.957215 
L 170.773664 260.994648 
L 171.424274 263.373109 
L 172.074884 253.634874 
L 172.725495 272.300541 
L 173.376105 244.044059 
L 174.026715 254.577494 
L 174.677326 253.533462 
L 175.327936 265.965728 
L 175.978546 255.688704 
L 176.629156 250.06234 
L 177.279767 266.028562 
L 177.930377 260.709576 
L 178.580987 261.611297 
L 179.231598 262.854469 
L 179.882208 245.064998 
L 180.532818 270.491367 
L 181.183429 260.147236 
L 181.834039 266.430741 
L 182.484649 263.41311 
L 183.13526 282.058992 
L 183.78587 271.544173 
L 184.43648 267.837683 
L 185.087091 282.548697 
L 185.737701 268.531163 
L 186.388311 252.003396 
L 187.038921 256.719453 
L 187.689532 259.30961 
L 188.340142 255.247399 
L 188.990752 270.060914 
L 189.641363 266.816647 
L 190.291973 258.86016 
L 190.942583 269.107999 
L 191.593194 249.860115 
L 192.243804 244.648009 
L 192.894414 282.373362 
L 193.545025 259.578135 
L 194.195635 250.788337 
L 194.846245 251.674827 
L 195.496856 244.131566 
L 196.147466 241.216002 
L 196.798076 240.727436 
L 197.448686 241.045633 
L 198.099297 248.922452 
L 198.749907 243.21496 
L 199.400517 248.812716 
L 200.051128 247.792397 
L 200.701738 241.971553 
L 201.352348 250.433176 
L 202.002959 254.360422 
L 202.653569 266.805125 
L 203.304179 263.125959 
L 203.95479 269.560995 
L 204.6054 265.984027 
L 205.25601 266.490527 
L 205.906621 259.218968 
L 206.557231 258.152436 
L 207.207841 274.955039 
L 207.858451 266.004558 
L 208.509062 240.912998 
L 209.159672 240.45659 
L 209.810282 248.149877 
L 210.460893 258.434149 
L 211.111503 262.122028 
L 211.762113 262.123172 
L 212.412724 273.981203 
L 213.063334 278.013837 
L 213.713944 240.841111 
L 215.015165 267.516351 
L 215.665775 262.956126 
L 216.316385 267.634871 
L 216.966996 252.289634 
L 217.617606 271.973079 
L 218.268216 285.055101 
L 218.918827 285.959136 
L 219.569437 265.055416 
L 220.220047 268.446369 
L 220.870658 243.4956 
L 221.521268 240.90582 
L 222.171878 240.689365 
L 222.822489 250.953085 
L 223.473099 239.736463 
L 224.123709 249.274837 
L 225.42493 261.20895 
L 226.07554 257.466473 
L 226.72615 262.627733 
L 227.376761 257.059119 
L 228.027371 234.109812 
L 228.677981 247.548029 
L 229.328592 248.651691 
L 229.979202 271.706098 
L 230.629812 239.611637 
L 231.280423 259.213208 
L 231.931033 250.88835 
L 232.581643 244.868083 
L 233.232254 247.121626 
L 233.882864 273.718488 
L 234.533474 259.978936 
L 235.184085 242.001225 
L 235.834695 251.626237 
L 236.485305 252.755684 
L 237.135915 258.114098 
L 237.786526 273.43564 
L 238.437136 239.60834 
L 239.087746 255.069816 
L 239.738357 276.21499 
L 240.388967 262.795989 
L 241.039577 244.859307 
L 241.690188 248.098352 
L 242.340798 264.688655 
L 242.991408 270.815865 
L 243.642019 261.705943 
L 244.292629 260.733983 
L 244.943239 262.042073 
L 245.59385 261.133803 
L 246.24446 255.143273 
L 246.89507 272.048387 
L 247.54568 272.397697 
L 248.196291 258.91176 
L 248.846901 263.214425 
L 249.497511 261.247478 
L 250.148122 258.910052 
L 250.798732 247.653164 
L 251.449342 244.169238 
L 252.099953 253.432042 
L 252.750563 239.461444 
L 253.401173 245.509901 
L 254.051784 265.052137 
L 254.702394 262.756156 
L 255.353004 271.786064 
L 256.003615 266.556413 
L 256.654225 279.489484 
L 257.304835 262.404178 
L 257.955445 280.311843 
L 258.606056 261.258787 
L 259.256666 249.652823 
L 259.907276 252.548194 
L 260.557887 269.978748 
L 261.208497 249.098114 
L 261.859107 266.328877 
L 262.509718 268.891669 
L 263.160328 283.351345 
L 263.810938 250.078294 
L 264.461549 260.962546 
L 265.112159 250.741005 
L 265.762769 252.044963 
L 266.413379 271.250963 
L 267.06399 261.522376 
L 267.7146 244.111439 
L 268.36521 259.815996 
L 269.015821 270.859221 
L 269.666431 254.267035 
L 270.967652 238.582229 
L 271.618262 244.227576 
L 272.268872 245.19849 
L 272.919483 237.067002 
L 273.570093 260.658754 
L 274.220703 236.846249 
L 274.871314 252.383352 
L 275.521924 237.277452 
L 276.172534 253.425786 
L 276.823144 245.665884 
L 277.473755 247.911378 
L 278.774975 267.575929 
L 279.425586 255.021979 
L 280.076196 254.797068 
L 280.726806 237.453953 
L 281.377417 234.820185 
L 282.028027 237.386953 
L 282.678637 243.935925 
L 283.329248 245.757413 
L 283.979858 278.834499 
L 284.630468 258.614071 
L 285.281079 278.382034 
L 285.931689 256.325376 
L 286.582299 243.800426 
L 287.232909 253.75351 
L 287.88352 252.218309 
L 288.53413 254.711697 
L 289.18474 293.282987 
L 289.835351 245.436658 
L 290.485961 247.669764 
L 291.136571 248.186757 
L 291.787182 242.250999 
L 292.437792 265.965939 
L 293.088402 259.171184 
L 293.739013 256.219079 
L 294.389623 248.72895 
L 295.040233 246.122092 
L 295.690844 240.877359 
L 296.341454 262.305734 
L 296.992064 265.198656 
L 297.642674 271.606248 
L 298.293285 271.862736 
L 298.943895 266.059762 
L 299.594505 268.869604 
L 300.245116 271.100884 
L 300.895726 279.440645 
L 301.546336 261.582886 
L 302.196947 265.050289 
L 302.847557 260.028705 
L 303.498167 260.899106 
L 304.148778 255.501012 
L 304.799388 251.908953 
L 305.449998 247.617986 
L 306.100608 247.857775 
L 306.751219 258.889516 
L 307.401829 246.997816 
L 308.052439 256.098983 
L 309.35366 247.319059 
L 310.00427 271.72106 
L 310.654881 254.797732 
L 311.305491 255.3514 
L 311.956101 251.300176 
L 312.606712 254.015717 
L 313.257322 237.265393 
L 313.907932 249.355804 
L 314.558543 238.598519 
L 315.209153 235.419668 
L 315.859763 265.641363 
L 316.510373 248.192548 
L 317.160984 242.354187 
L 317.811594 251.224674 
L 318.462204 245.992315 
L 319.112815 244.367636 
L 319.763425 239.939996 
L 320.414035 262.785247 
L 321.064646 250.365179 
L 321.715256 257.80874 
L 322.365866 268.932925 
L 323.016477 260.870235 
L 323.667087 263.948741 
L 324.317697 256.031863 
L 324.968308 251.554485 
L 325.618918 248.952805 
L 326.269528 253.486715 
L 326.920138 255.363278 
L 327.570749 265.965227 
L 328.221359 257.935003 
L 328.871969 288.995491 
L 329.52258 252.711865 
L 330.8238 244.7096 
L 331.474411 247.495911 
L 332.125021 268.285066 
L 332.775631 245.13553 
L 333.426242 243.901507 
L 334.076852 244.930263 
L 334.727462 244.798372 
L 335.378073 251.93395 
L 336.028683 261.48759 
L 336.679293 249.669519 
L 337.329903 252.192689 
L 337.980514 263.007677 
L 338.631124 267.487851 
L 339.281734 246.039149 
L 339.932345 248.462166 
L 340.582955 258.788953 
L 341.233565 244.029065 
L 341.884176 264.159848 
L 342.534786 272.520075 
L 343.185396 240.382184 
L 343.836007 243.330172 
L 344.486617 251.393804 
L 345.137227 251.931326 
L 345.787837 251.993572 
L 346.438448 260.261061 
L 347.089058 245.185455 
L 347.739668 262.792423 
L 348.390279 245.208541 
L 349.040889 253.799839 
L 349.691499 242.875728 
L 350.34211 250.26892 
L 350.99272 241.411588 
L 351.64333 265.910699 
L 352.293941 242.775387 
L 352.944551 241.896829 
L 353.595161 262.09763 
L 354.245772 246.480393 
L 354.896382 247.887951 
L 355.546992 243.167593 
L 356.197602 260.068606 
L 356.848213 257.822313 
L 357.498823 263.356099 
L 358.149433 264.092591 
L 358.800044 253.894687 
L 359.450654 269.584742 
L 360.101264 255.694598 
L 360.751875 258.089152 
L 361.402485 262.545376 
L 362.053095 251.918403 
L 362.703706 244.477444 
L 363.354316 263.88534 
L 364.004926 256.479915 
L 364.655537 256.558172 
L 365.306147 250.507935 
L 365.956757 246.456426 
L 366.607367 281.051336 
L 367.908588 247.117569 
L 369.209809 264.93688 
L 369.860419 262.539575 
L 370.511029 244.842607 
L 371.16164 237.962789 
L 371.81225 260.375506 
L 372.46286 242.260022 
L 373.113471 238.532699 
L 373.764081 241.403528 
L 374.414691 255.724484 
L 375.065302 252.140385 
L 375.715912 252.572288 
L 376.366522 251.086375 
L 377.017132 234.132239 
L 377.667743 245.151281 
L 378.318353 260.147906 
L 378.968963 242.280722 
L 379.619574 243.888156 
L 380.920794 271.059535 
L 381.571405 257.51593 
L 382.222015 261.842287 
L 382.872625 255.997921 
L 383.523236 257.933633 
L 384.173846 244.68715 
L 384.824456 263.473931 
L 385.475066 269.887518 
L 386.125677 252.896355 
L 386.776287 257.915756 
L 387.426897 244.627742 
L 388.077508 249.082379 
L 388.728118 252.146359 
L 389.378728 250.480468 
L 390.029339 243.189692 
L 390.679949 250.31821 
L 391.330559 273.749977 
L 391.98117 270.510009 
L 392.63178 254.684144 
L 393.28239 251.319591 
L 393.933001 269.817385 
L 394.583611 272.634768 
L 395.234221 263.912225 
L 395.884831 248.561023 
L 396.535442 241.594673 
L 397.186052 260.985187 
L 397.836662 249.444151 
L 398.487273 268.735137 
L 398.487273 268.735137 
" clip-path="url(#p3eadd2bf3a)" style="fill: none; stroke-dasharray: 9.6,2.4,1.5,2.4; stroke-dashoffset: 0; stroke: #008000; stroke-width: 1.5"/>
   </g>
   <g id="line2d_31">
    <path d="M 73.832727 210.835289 
L 74.483338 181.399179 
L 75.133948 189.546819 
L 75.784558 181.715098 
L 76.435169 185.517792 
L 77.085779 175.723104 
L 77.736389 182.051417 
L 78.386999 179.077615 
L 79.03761 194.651226 
L 79.68822 170.415754 
L 80.989441 171.90302 
L 81.640051 180.48845 
L 82.290661 166.713184 
L 82.941272 166.074644 
L 83.591882 179.509672 
L 84.242492 176.389064 
L 84.893103 171.302386 
L 86.194323 181.138362 
L 86.844934 172.886474 
L 87.495544 174.144326 
L 88.146154 172.556399 
L 88.796764 174.17921 
L 89.447375 171.938197 
L 90.097985 172.620109 
L 90.748595 169.214887 
L 91.399206 174.886809 
L 92.049816 184.888898 
L 92.700426 190.66274 
L 93.351037 177.184611 
L 94.001647 176.952409 
L 94.652257 186.298864 
L 95.302868 176.77204 
L 95.953478 176.555617 
L 96.604088 168.787858 
L 97.905309 176.732479 
L 98.555919 163.499748 
L 99.206529 172.367341 
L 99.85714 161.584997 
L 100.50775 164.986201 
L 101.15836 160.299892 
L 101.808971 171.918146 
L 102.459581 167.518758 
L 103.110191 178.077676 
L 103.760802 175.756393 
L 104.411412 172.528458 
L 105.062022 175.681224 
L 105.712633 173.778478 
L 106.363243 178.887918 
L 107.013853 184.937096 
L 107.664463 184.833806 
L 108.315074 182.972539 
L 108.965684 182.189744 
L 109.616294 183.922026 
L 110.266905 186.787282 
L 110.917515 174.056552 
L 111.568125 175.693368 
L 112.218736 172.177867 
L 112.869346 179.496261 
L 113.519956 166.190871 
L 114.170567 179.447648 
L 114.821177 179.565341 
L 115.471787 169.244243 
L 116.122398 167.217326 
L 116.773008 175.0355 
L 117.423618 163.222359 
L 118.074228 167.298628 
L 118.724839 165.065578 
L 119.375449 179.512558 
L 120.026059 164.280838 
L 120.67667 177.115609 
L 121.32728 153.076469 
L 121.97789 166.657071 
L 122.628501 173.026302 
L 123.279111 157.200082 
L 123.929721 165.866521 
L 124.580332 176.471371 
L 125.230942 167.947118 
L 125.881552 168.00563 
L 126.532163 168.764357 
L 127.182773 164.985014 
L 128.483993 161.920818 
L 129.134604 174.744142 
L 129.785214 178.364285 
L 130.435824 172.655043 
L 131.086435 162.947225 
L 131.737045 171.008032 
L 132.387655 172.673724 
L 133.038266 169.49147 
L 133.688876 173.303043 
L 134.339486 175.222589 
L 134.990097 154.69456 
L 135.640707 168.530195 
L 136.291317 173.270114 
L 136.941927 169.105831 
L 137.592538 172.472697 
L 138.243148 169.14718 
L 138.893758 155.066704 
L 139.544369 172.029026 
L 140.194979 168.126123 
L 140.845589 171.454194 
L 141.4962 172.256913 
L 142.14681 173.38549 
L 142.79742 160.59343 
L 143.448031 160.288623 
L 144.098641 154.766163 
L 144.749251 156.216083 
L 145.399862 154.599795 
L 146.050472 145.954796 
L 146.701082 164.559464 
L 147.351692 166.588724 
L 148.002303 160.062604 
L 148.652913 160.954996 
L 149.303523 172.900354 
L 149.954134 160.489759 
L 150.604744 145.333999 
L 151.255354 159.76369 
L 151.905965 167.167005 
L 152.556575 169.080014 
L 153.207185 161.665858 
L 153.857796 152.196574 
L 154.508406 170.363902 
L 155.159016 171.744506 
L 155.809627 170.932901 
L 156.460237 163.633111 
L 157.110847 174.076669 
L 157.761457 166.410821 
L 158.412068 168.6302 
L 159.062678 161.920766 
L 159.713288 177.917112 
L 161.014509 162.147683 
L 161.665119 169.63961 
L 162.31573 175.672393 
L 162.96634 162.106155 
L 163.61695 170.650612 
L 164.267561 166.064368 
L 164.918171 148.403542 
L 165.568781 172.757448 
L 166.219392 165.686592 
L 166.870002 163.701242 
L 167.520612 163.824073 
L 168.171222 159.927682 
L 168.821833 160.335974 
L 169.472443 159.513437 
L 170.123053 167.987301 
L 170.773664 168.603657 
L 171.424274 168.54806 
L 172.074884 169.769997 
L 172.725495 158.217005 
L 173.376105 171.502749 
L 174.026715 172.97305 
L 174.677326 170.818016 
L 175.327936 165.562607 
L 176.629156 167.706373 
L 177.279767 161.90081 
L 177.930377 161.00467 
L 178.580987 166.527802 
L 179.231598 162.307437 
L 179.882208 175.192541 
L 180.532818 159.726289 
L 181.183429 164.587903 
L 181.834039 165.503554 
L 182.484649 168.694835 
L 183.13526 157.709081 
L 183.78587 162.593869 
L 184.43648 163.649588 
L 185.087091 156.787593 
L 186.388311 171.412669 
L 187.038921 169.911472 
L 187.689532 167.712296 
L 188.340142 169.200383 
L 188.990752 165.238777 
L 189.641363 165.088411 
L 190.942583 168.547033 
L 191.593194 174.324891 
L 192.243804 174.909555 
L 192.894414 153.739593 
L 194.195635 170.837625 
L 194.846245 168.836051 
L 195.496856 171.452404 
L 196.147466 172.229999 
L 196.798076 172.685562 
L 197.448686 175.272855 
L 198.099297 166.832287 
L 198.749907 175.019463 
L 199.400517 167.935017 
L 200.051128 169.330614 
L 200.701738 176.863089 
L 201.352348 165.771121 
L 202.653569 164.01374 
L 203.304179 164.762067 
L 203.95479 160.135664 
L 204.6054 162.298839 
L 205.25601 161.919021 
L 205.906621 168.297506 
L 206.557231 165.435278 
L 207.207841 148.356808 
L 207.858451 157.488483 
L 208.509062 177.216081 
L 209.159672 175.548194 
L 209.810282 176.46694 
L 210.460893 160.840676 
L 211.111503 167.611103 
L 211.762113 170.802755 
L 212.412724 169.173129 
L 213.063334 163.676734 
L 213.713944 175.930958 
L 214.364555 175.473848 
L 215.015165 169.05562 
L 215.665775 168.298814 
L 216.316385 164.992703 
L 216.966996 170.285396 
L 217.617606 165.728697 
L 218.268216 158.049497 
L 218.918827 153.310048 
L 219.569437 162.178553 
L 220.220047 160.829244 
L 220.870658 175.324827 
L 221.521268 170.913027 
L 222.171878 178.431687 
L 222.822489 171.298071 
L 223.473099 177.912869 
L 224.123709 173.004932 
L 224.77432 166.54455 
L 225.42493 161.701528 
L 226.07554 161.73368 
L 226.72615 163.687923 
L 227.376761 166.323261 
L 228.027371 174.879889 
L 228.677981 165.41939 
L 229.328592 173.486955 
L 229.979202 151.429558 
L 230.629812 174.655681 
L 231.280423 161.718168 
L 231.931033 168.568415 
L 232.581643 180.173233 
L 233.232254 172.89661 
L 233.882864 160.954456 
L 234.533474 169.199683 
L 235.184085 175.725463 
L 235.834695 171.449681 
L 236.485305 171.733939 
L 237.135915 164.912783 
L 237.786526 160.709047 
L 238.437136 177.69674 
L 239.087746 166.069145 
L 239.738357 160.233508 
L 240.388967 173.450982 
L 241.039577 178.307938 
L 241.690188 178.471333 
L 242.340798 167.401777 
L 242.991408 162.112171 
L 243.642019 173.849252 
L 244.292629 179.641576 
L 244.943239 175.609029 
L 245.59385 176.215931 
L 246.24446 183.662065 
L 246.89507 173.881224 
L 247.54568 167.676042 
L 248.196291 173.461332 
L 248.846901 169.92357 
L 249.497511 165.626447 
L 250.148122 164.835933 
L 250.798732 173.613282 
L 251.449342 170.025125 
L 252.099953 171.035507 
L 252.750563 176.609583 
L 253.401173 173.636793 
L 254.051784 160.984116 
L 255.353004 162.966048 
L 256.003615 162.706316 
L 256.654225 156.611137 
L 257.304835 163.013503 
L 257.955445 155.893783 
L 258.606056 164.978651 
L 259.256666 169.611561 
L 259.907276 167.761298 
L 260.557887 164.379478 
L 261.208497 170.852805 
L 261.859107 165.44541 
L 262.509718 165.647793 
L 263.160328 147.858469 
L 263.810938 172.677228 
L 264.461549 165.498771 
L 265.762769 171.437069 
L 266.413379 162.999414 
L 267.06399 167.208826 
L 267.7146 172.881177 
L 268.36521 167.102256 
L 269.015821 155.368691 
L 269.666431 175.600003 
L 270.317041 177.739835 
L 270.967652 176.060071 
L 271.618262 170.596593 
L 272.268872 167.157583 
L 272.919483 175.593414 
L 273.570093 163.623524 
L 274.220703 173.961829 
L 274.871314 165.274717 
L 275.521924 173.256662 
L 276.172534 164.862335 
L 276.823144 168.109207 
L 277.473755 169.932925 
L 278.124365 164.173535 
L 278.774975 159.932918 
L 279.425586 169.43339 
L 280.076196 163.66962 
L 280.726806 176.632275 
L 281.377417 171.631958 
L 282.028027 173.302404 
L 282.678637 172.460737 
L 283.329248 167.83728 
L 283.979858 150.839784 
L 284.630468 165.727986 
L 285.281079 148.820963 
L 285.931689 169.106514 
L 286.582299 173.411106 
L 287.232909 167.081393 
L 287.88352 173.185168 
L 288.53413 176.793881 
L 289.18474 143.974552 
L 289.835351 179.391998 
L 290.485961 175.303706 
L 291.136571 179.463172 
L 291.787182 179.944106 
L 292.437792 161.514603 
L 293.088402 172.215311 
L 293.739013 175.320597 
L 294.389623 174.400724 
L 295.040233 177.312239 
L 295.690844 180.755608 
L 296.341454 165.723495 
L 296.992064 172.738292 
L 297.642674 170.133089 
L 298.293285 173.270808 
L 298.943895 177.679999 
L 299.594505 178.937295 
L 300.245116 172.831471 
L 300.895726 172.071464 
L 302.196947 173.873144 
L 302.847557 179.90921 
L 303.498167 178.867523 
L 304.148778 181.244875 
L 304.799388 180.627377 
L 305.449998 187.924653 
L 306.100608 188.289701 
L 306.751219 178.509678 
L 307.401829 185.757835 
L 308.052439 179.781119 
L 308.70305 186.840492 
L 309.35366 184.177577 
L 310.00427 174.526683 
L 310.654881 183.60794 
L 311.305491 180.353225 
L 311.956101 180.208412 
L 312.606712 174.439337 
L 313.257322 179.917661 
L 313.907932 176.109848 
L 314.558543 181.765504 
L 315.209153 180.457468 
L 315.859763 168.213681 
L 316.510373 176.262242 
L 317.160984 176.597527 
L 317.811594 177.943871 
L 318.462204 183.043491 
L 319.112815 181.916946 
L 319.763425 181.451505 
L 320.414035 169.1195 
L 321.064646 184.397392 
L 321.715256 179.133401 
L 322.365866 168.298083 
L 323.016477 172.679587 
L 323.667087 171.764947 
L 324.317697 179.950703 
L 324.968308 184.018732 
L 325.618918 189.726093 
L 326.269528 180.432119 
L 326.920138 183.644135 
L 327.570749 176.164729 
L 328.221359 185.830663 
L 328.871969 170.584666 
L 329.52258 189.505194 
L 330.17319 190.235237 
L 330.8238 187.69552 
L 331.474411 185.739657 
L 332.125021 173.678114 
L 332.775631 186.862867 
L 333.426242 186.500687 
L 334.076852 183.250153 
L 334.727462 185.363454 
L 335.378073 181.229194 
L 336.028683 170.015131 
L 336.679293 181.494363 
L 337.329903 181.023469 
L 337.980514 173.967163 
L 338.631124 171.454698 
L 339.281734 183.1978 
L 339.932345 179.166874 
L 340.582955 173.14528 
L 341.233565 183.481621 
L 341.884176 166.85253 
L 342.534786 162.985837 
L 343.185396 181.69886 
L 343.836007 179.335635 
L 344.486617 176.105352 
L 345.137227 174.507029 
L 345.787837 178.271551 
L 346.438448 169.012233 
L 347.089058 178.481812 
L 347.739668 168.151967 
L 348.390279 179.121583 
L 349.040889 172.753314 
L 349.691499 178.854877 
L 350.34211 172.060325 
L 350.99272 179.82703 
L 351.64333 165.058047 
L 352.293941 179.185408 
L 352.944551 177.965362 
L 353.595161 172.2764 
L 354.245772 181.243721 
L 354.896382 175.879373 
L 355.546992 179.972174 
L 356.197602 169.24167 
L 356.848213 170.718955 
L 357.498823 170.084138 
L 358.149433 170.926676 
L 358.800044 176.098707 
L 359.450654 163.083668 
L 360.101264 170.85264 
L 360.751875 168.391875 
L 361.402485 168.227322 
L 362.053095 171.017939 
L 362.703706 179.585243 
L 363.354316 164.232816 
L 364.004926 171.912775 
L 364.655537 170.884968 
L 365.956757 174.744162 
L 366.607367 156.516077 
L 367.257978 168.873109 
L 367.908588 176.831341 
L 369.209809 169.2967 
L 369.860419 169.474072 
L 370.511029 178.026918 
L 371.16164 172.924502 
L 371.81225 161.410459 
L 372.46286 174.063157 
L 373.113471 176.238527 
L 373.764081 167.082455 
L 374.414691 167.760691 
L 375.065302 170.971687 
L 375.715912 170.339046 
L 376.366522 171.044131 
L 377.017132 173.23456 
L 377.667743 173.732476 
L 378.318353 167.562954 
L 378.968963 176.984182 
L 379.619574 176.150505 
L 380.270184 167.420522 
L 380.920794 165.850621 
L 381.571405 170.112186 
L 382.222015 167.137139 
L 382.872625 165.075205 
L 383.523236 168.683629 
L 384.173846 177.094353 
L 384.824456 164.924718 
L 385.475066 161.879074 
L 386.125677 173.076604 
L 387.426897 176.176886 
L 388.077508 175.734242 
L 388.728118 166.850863 
L 389.378728 167.70539 
L 390.029339 176.455644 
L 390.679949 165.184107 
L 391.330559 161.867405 
L 392.63178 171.716914 
L 393.28239 180.368858 
L 393.933001 167.541185 
L 394.583611 165.55934 
L 395.234221 167.818605 
L 395.884831 180.584557 
L 396.535442 173.369734 
L 397.186052 169.752943 
L 397.836662 175.945341 
L 398.487273 163.679872 
L 398.487273 163.679872 
" clip-path="url(#p3eadd2bf3a)" style="fill: none; stroke-dasharray: 9.6,2.4,1.5,2.4; stroke-dashoffset: 0; stroke: #008000; stroke-width: 1.5"/>
   </g>
   <g id="line2d_32">
    <path d="M 73.832727 172.903235 
L 74.483338 170.231055 
L 80.989441 170.231055 
L 81.640051 169.126638 
L 86.194323 169.126638 
L 86.844934 168.249365 
L 88.796764 168.249365 
L 89.447375 64.161951 
L 213.063334 64.161951 
L 213.713944 63.999866 
L 239.087746 63.999866 
L 239.738357 63.831791 
L 262.509718 63.831791 
L 263.160328 61.607442 
L 263.810938 61.607442 
L 264.461549 53.568 
L 398.487273 53.568 
L 398.487273 53.568 
" clip-path="url(#p3eadd2bf3a)" style="fill: none; stroke: #ff0000; stroke-width: 1.5; stroke-linecap: square"/>
   </g>
   <g id="patch_3">
    <path d="M 57.6 307.584 
L 57.6 41.472 
" style="fill: none; stroke: #000000; stroke-width: 0.8; stroke-linejoin: miter; stroke-linecap: square"/>
   </g>
   <g id="patch_4">
    <path d="M 414.72 307.584 
L 414.72 41.472 
" style="fill: none; stroke: #000000; stroke-width: 0.8; stroke-linejoin: miter; stroke-linecap: square"/>
   </g>
   <g id="patch_5">
    <path d="M 57.6 307.584 
L 414.72 307.584 
" style="fill: none; stroke: #000000; stroke-width: 0.8; stroke-linejoin: miter; stroke-linecap: square"/>
   </g>
   <g id="patch_6">
    <path d="M 57.6 41.472 
L 414.72 41.472 
" style="fill: none; stroke: #000000; stroke-width: 0.8; stroke-linejoin: miter; stroke-linecap: square"/>
   </g>
   <g id="text_17">
    <!-- Population's average and best fitness -->
    <g transform="translate(123.529687 35.472) scale(0.12 -0.12)">
     <defs>
      <path id="DejaVuSans-50" d="M 1259 4147 
L 1259 2394 
L 2053 2394 
Q 2494 2394 2734 2622 
Q 2975 2850 2975 3272 
Q 2975 3691 2734 3919 
Q 2494 4147 2053 4147 
L 1259 4147 
z
M 628 4666 
L 2053 4666 
Q 2838 4666 3239 4311 
Q 3641 3956 3641 3272 
Q 3641 2581 3239 2228 
Q 2838 1875 2053 1875 
L 1259 1875 
L 1259 0 
L 628 0 
L 628 4666 
z
" transform="scale(0.015625)"/>
      <path id="DejaVuSans-70" d="M 1159 525 
L 1159 -1331 
L 581 -1331 
L 581 3500 
L 1159 3500 
L 1159 2969 
Q 1341 3281 1617 3432 
Q 1894 3584 2278 3584 
Q 2916 3584 3314 3078 
Q 3713 2572 3713 1747 
Q 3713 922 3314 415 
Q 2916 -91 2278 -91 
Q 1894 -91 1617 61 
Q 1341 213 1159 525 
z
M 3116 1747 
Q 3116 2381 2855 2742 
Q 2594 3103 2138 3103 
Q 1681 3103 1420 2742 
Q 1159 2381 1159 1747 
Q 1159 1113 1420 752 
Q 1681 391 2138 391 
Q 2594 391 2855 752 
Q 3116 1113 3116 1747 
z
" transform="scale(0.015625)"/>
      <path id="DejaVuSans-75" d="M 544 1381 
L 544 3500 
L 1119 3500 
L 1119 1403 
Q 1119 906 1312 657 
Q 1506 409 1894 409 
Q 2359 409 2629 706 
Q 2900 1003 2900 1516 
L 2900 3500 
L 3475 3500 
L 3475 0 
L 2900 0 
L 2900 538 
Q 2691 219 2414 64 
Q 2138 -91 1772 -91 
Q 1169 -91 856 284 
Q 544 659 544 1381 
z
M 1991 3584 
L 1991 3584 
z
" transform="scale(0.015625)"/>
      <path id="DejaVuSans-6c" d="M 603 4863 
L 1178 4863 
L 1178 0 
L 603 0 
L 603 4863 
z
" transform="scale(0.015625)"/>
      <path id="DejaVuSans-27" d="M 1147 4666 
L 1147 2931 
L 616 2931 
L 616 4666 
L 1147 4666 
z
" transform="scale(0.015625)"/>
      <path id="DejaVuSans-20" transform="scale(0.015625)"/>
      <path id="DejaVuSans-76" d="M 191 3500 
L 800 3500 
L 1894 563 
L 2988 3500 
L 3597 3500 
L 2284 0 
L 1503 0 
L 191 3500 
z
" transform="scale(0.015625)"/>
      <path id="DejaVuSans-67" d="M 2906 1791 
Q 2906 2416 2648 2759 
Q 2391 3103 1925 3103 
Q 1463 3103 1205 2759 
Q 947 2416 947 1791 
Q 947 1169 1205 825 
Q 1463 481 1925 481 
Q 2391 481 2648 825 
Q 2906 1169 2906 1791 
z
M 3481 434 
Q 3481 -459 3084 -895 
Q 2688 -1331 1869 -1331 
Q 1566 -1331 1297 -1286 
Q 1028 -1241 775 -1147 
L 775 -588 
Q 1028 -725 1275 -790 
Q 1522 -856 1778 -856 
Q 2344 -856 2625 -561 
Q 2906 -266 2906 331 
L 2906 616 
Q 2728 306 2450 153 
Q 2172 0 1784 0 
Q 1141 0 747 490 
Q 353 981 353 1791 
Q 353 2603 747 3093 
Q 1141 3584 1784 3584 
Q 2172 3584 2450 3431 
Q 2728 3278 2906 2969 
L 2906 3500 
L 3481 3500 
L 3481 434 
z
" transform="scale(0.015625)"/>
      <path id="DejaVuSans-64" d="M 2906 2969 
L 2906 4863 
L 3481 4863 
L 3481 0 
L 2906 0 
L 2906 525 
Q 2725 213 2448 61 
Q 2172 -91 1784 -91 
Q 1150 -91 751 415 
Q 353 922 353 1747 
Q 353 2572 751 3078 
Q 1150 3584 1784 3584 
Q 2172 3584 2448 3432 
Q 2725 3281 2906 2969 
z
M 947 1747 
Q 947 1113 1208 752 
Q 1469 391 1925 391 
Q 2381 391 2643 752 
Q 2906 1113 2906 1747 
Q 2906 2381 2643 2742 
Q 2381 3103 1925 3103 
Q 1469 3103 1208 2742 
Q 947 2381 947 1747 
z
" transform="scale(0.015625)"/>
      <path id="DejaVuSans-62" d="M 3116 1747 
Q 3116 2381 2855 2742 
Q 2594 3103 2138 3103 
Q 1681 3103 1420 2742 
Q 1159 2381 1159 1747 
Q 1159 1113 1420 752 
Q 1681 391 2138 391 
Q 2594 391 2855 752 
Q 3116 1113 3116 1747 
z
M 1159 2969 
Q 1341 3281 1617 3432 
Q 1894 3584 2278 3584 
Q 2916 3584 3314 3078 
Q 3713 2572 3713 1747 
Q 3713 922 3314 415 
Q 2916 -91 2278 -91 
Q 1894 -91 1617 61 
Q 1341 213 1159 525 
L 1159 0 
L 581 0 
L 581 4863 
L 1159 4863 
L 1159 2969 
z
" transform="scale(0.015625)"/>
      <path id="DejaVuSans-66" d="M 2375 4863 
L 2375 4384 
L 1825 4384 
Q 1516 4384 1395 4259 
Q 1275 4134 1275 3809 
L 1275 3500 
L 2222 3500 
L 2222 3053 
L 1275 3053 
L 1275 0 
L 697 0 
L 697 3053 
L 147 3053 
L 147 3500 
L 697 3500 
L 697 3744 
Q 697 4328 969 4595 
Q 1241 4863 1831 4863 
L 2375 4863 
z
" transform="scale(0.015625)"/>
     </defs>
     <use xlink:href="#DejaVuSans-50"/>
     <use xlink:href="#DejaVuSans-6f" transform="translate(56.677734 0)"/>
     <use xlink:href="#DejaVuSans-70" transform="translate(117.859375 0)"/>
     <use xlink:href="#DejaVuSans-75" transform="translate(181.335938 0)"/>
     <use xlink:href="#DejaVuSans-6c" transform="translate(244.714844 0)"/>
     <use xlink:href="#DejaVuSans-61" transform="translate(272.498047 0)"/>
     <use xlink:href="#DejaVuSans-74" transform="translate(333.777344 0)"/>
     <use xlink:href="#DejaVuSans-69" transform="translate(372.986328 0)"/>
     <use xlink:href="#DejaVuSans-6f" transform="translate(400.769531 0)"/>
     <use xlink:href="#DejaVuSans-6e" transform="translate(461.951172 0)"/>
     <use xlink:href="#DejaVuSans-27" transform="translate(525.330078 0)"/>
     <use xlink:href="#DejaVuSans-73" transform="translate(552.820312 0)"/>
     <use xlink:href="#DejaVuSans-20" transform="translate(604.919922 0)"/>
     <use xlink:href="#DejaVuSans-61" transform="translate(636.707031 0)"/>
     <use xlink:href="#DejaVuSans-76" transform="translate(697.986328 0)"/>
     <use xlink:href="#DejaVuSans-65" transform="translate(757.166016 0)"/>
     <use xlink:href="#DejaVuSans-72" transform="translate(818.689453 0)"/>
     <use xlink:href="#DejaVuSans-61" transform="translate(859.802734 0)"/>
     <use xlink:href="#DejaVuSans-67" transform="translate(921.082031 0)"/>
     <use xlink:href="#DejaVuSans-65" transform="translate(984.558594 0)"/>
     <use xlink:href="#DejaVuSans-20" transform="translate(1046.082031 0)"/>
     <use xlink:href="#DejaVuSans-61" transform="translate(1077.869141 0)"/>
     <use xlink:href="#DejaVuSans-6e" transform="translate(1139.148438 0)"/>
     <use xlink:href="#DejaVuSans-64" transform="translate(1202.527344 0)"/>
     <use xlink:href="#DejaVuSans-20" transform="translate(1266.003906 0)"/>
     <use xlink:href="#DejaVuSans-62" transform="translate(1297.791016 0)"/>
     <use xlink:href="#DejaVuSans-65" transform="translate(1361.267578 0)"/>
     <use xlink:href="#DejaVuSans-73" transform="translate(1422.791016 0)"/>
     <use xlink:href="#DejaVuSans-74" transform="translate(1474.890625 0)"/>
     <use xlink:href="#DejaVuSans-20" transform="translate(1514.099609 0)"/>
     <use xlink:href="#DejaVuSans-66" transform="translate(1545.886719 0)"/>
     <use xlink:href="#DejaVuSans-69" transform="translate(1581.091797 0)"/>
     <use xlink:href="#DejaVuSans-74" transform="translate(1608.875 0)"/>
     <use xlink:href="#DejaVuSans-6e" transform="translate(1648.083984 0)"/>
     <use xlink:href="#DejaVuSans-65" transform="translate(1711.462891 0)"/>
     <use xlink:href="#DejaVuSans-73" transform="translate(1772.986328 0)"/>
     <use xlink:href="#DejaVuSans-73" transform="translate(1825.085938 0)"/>
    </g>
   </g>
   <g id="legend_1">
    <g id="patch_7">
     <path d="M 64.6 108.1845 
L 137.540625 108.1845 
Q 139.540625 108.1845 139.540625 106.1845 
L 139.540625 48.472 
Q 139.540625 46.472 137.540625 46.472 
L 64.6 46.472 
Q 62.6 46.472 62.6 48.472 
L 62.6 106.1845 
Q 62.6 108.1845 64.6 108.1845 
z
" style="fill: #ffffff; opacity: 0.8; stroke: #cccccc; stroke-linejoin: miter"/>
    </g>
    <g id="line2d_33">
     <path d="M 66.6 54.570438 
L 76.6 54.570438 
L 86.6 54.570438 
" style="fill: none; stroke: #0000ff; stroke-width: 1.5; stroke-linecap: square"/>
    </g>
    <g id="text_18">
     <!-- average -->
     <g transform="translate(94.6 58.070438) scale(0.1 -0.1)">
      <use xlink:href="#DejaVuSans-61"/>
      <use xlink:href="#DejaVuSans-76" transform="translate(61.279297 0)"/>
      <use xlink:href="#DejaVuSans-65" transform="translate(120.458984 0)"/>
      <use xlink:href="#DejaVuSans-72" transform="translate(181.982422 0)"/>
      <use xlink:href="#DejaVuSans-61" transform="translate(223.095703 0)"/>
      <use xlink:href="#DejaVuSans-67" transform="translate(284.375 0)"/>
      <use xlink:href="#DejaVuSans-65" transform="translate(347.851562 0)"/>
     </g>
    </g>
    <g id="line2d_34">
     <path d="M 66.6 69.248563 
L 76.6 69.248563 
L 86.6 69.248563 
" style="fill: none; stroke-dasharray: 9.6,2.4,1.5,2.4; stroke-dashoffset: 0; stroke: #008000; stroke-width: 1.5"/>
    </g>
    <g id="text_19">
     <!-- -1 sd -->
     <g transform="translate(94.6 72.748563) scale(0.1 -0.1)">
      <defs>
       <path id="DejaVuSans-2d" d="M 313 2009 
L 1997 2009 
L 1997 1497 
L 313 1497 
L 313 2009 
z
" transform="scale(0.015625)"/>
      </defs>
      <use xlink:href="#DejaVuSans-2d"/>
      <use xlink:href="#DejaVuSans-31" transform="translate(36.083984 0)"/>
      <use xlink:href="#DejaVuSans-20" transform="translate(99.707031 0)"/>
      <use xlink:href="#DejaVuSans-73" transform="translate(131.494141 0)"/>
      <use xlink:href="#DejaVuSans-64" transform="translate(183.59375 0)"/>
     </g>
    </g>
    <g id="line2d_35">
     <path d="M 66.6 83.926688 
L 76.6 83.926688 
L 86.6 83.926688 
" style="fill: none; stroke-dasharray: 9.6,2.4,1.5,2.4; stroke-dashoffset: 0; stroke: #008000; stroke-width: 1.5"/>
    </g>
    <g id="text_20">
     <!-- +1 sd -->
     <g transform="translate(94.6 87.426688) scale(0.1 -0.1)">
      <defs>
       <path id="DejaVuSans-2b" d="M 2944 4013 
L 2944 2272 
L 4684 2272 
L 4684 1741 
L 2944 1741 
L 2944 0 
L 2419 0 
L 2419 1741 
L 678 1741 
L 678 2272 
L 2419 2272 
L 2419 4013 
L 2944 4013 
z
" transform="scale(0.015625)"/>
      </defs>
      <use xlink:href="#DejaVuSans-2b"/>
      <use xlink:href="#DejaVuSans-31" transform="translate(83.789062 0)"/>
      <use xlink:href="#DejaVuSans-20" transform="translate(147.412109 0)"/>
      <use xlink:href="#DejaVuSans-73" transform="translate(179.199219 0)"/>
      <use xlink:href="#DejaVuSans-64" transform="translate(231.298828 0)"/>
     </g>
    </g>
    <g id="line2d_36">
     <path d="M 66.6 98.604813 
L 76.6 98.604813 
L 86.6 98.604813 
" style="fill: none; stroke: #ff0000; stroke-width: 1.5; stroke-linecap: square"/>
    </g>
    <g id="text_21">
     <!-- best -->
     <g transform="translate(94.6 102.104813) scale(0.1 -0.1)">
      <use xlink:href="#DejaVuSans-62"/>
      <use xlink:href="#DejaVuSans-65" transform="translate(63.476562 0)"/>
      <use xlink:href="#DejaVuSans-73" transform="translate(125 0)"/>
      <use xlink:href="#DejaVuSans-74" transform="translate(177.099609 0)"/>
     </g>
    </g>
   </g>
  </g>
 </g>
 <defs>
  <clipPath id="p3eadd2bf3a">
   <rect x="57.6" y="41.472" width="357.12" height="266.112"/>
  </clipPath>
 </defs>
</svg>
