<?xml version="1.0" encoding="UTF-8" standalone="no"?>
<!DOCTYPE svg PUBLIC "-//W3C//DTD SVG 1.1//EN"
 "http://www.w3.org/Graphics/SVG/1.1/DTD/svg11.dtd">
<!-- Generated by graphviz version 12.2.1 (20241206.2353)
 -->
<!-- Pages: 1 -->
<svg width="644pt" height="91pt"
 viewBox="0.00 0.00 643.50 91.49" xmlns="http://www.w3.org/2000/svg" xmlns:xlink="http://www.w3.org/1999/xlink">
<g id="graph0" class="graph" transform="scale(1 1) rotate(0) translate(4 87.49)">
<polygon fill="white" stroke="none" points="-4,4 -4,-87.49 639.5,-87.49 639.5,4 -4,4"/>
<!-- &#45;1 -->
<g id="node1" class="node">
<title>&#45;1</title>
<polygon fill="lightgray" stroke="black" points="509.5,-83.49 486,-83.49 486,-64.99 509.5,-64.99 509.5,-83.49"/>
<text text-anchor="middle" x="497.75" y="-70.94" font-family="Times New Roman,serif" font-size="9.00">&#45;1</text>
</g>
<!-- 0 -->
<g id="node16" class="node">
<title>0</title>
<ellipse fill="lightblue" stroke="black" cx="292.75" cy="-14.5" rx="14.5" ry="14.5"/>
<text text-anchor="middle" x="292.75" y="-11.2" font-family="Times New Roman,serif" font-size="9.00">0</text>
</g>
<!-- &#45;1&#45;&gt;0 -->
<g id="edge1" class="edge">
<title>&#45;1&#45;&gt;0</title>
<path fill="none" stroke="green" stroke-width="0.19" d="M485.85,-68.28C482.9,-67.13 479.73,-65.96 476.75,-64.99 416.48,-45.37 399.83,-45.92 338.75,-28.99 331.42,-26.96 323.46,-24.66 316.26,-22.54"/>
<polygon fill="green" stroke="green" stroke-width="0.19" points="317.27,-19.19 306.69,-19.7 315.28,-25.9 317.27,-19.19"/>
</g>
<!-- 1 -->
<g id="node17" class="node">
<title>1</title>
<ellipse fill="lightblue" stroke="black" cx="361.75" cy="-14.5" rx="14.5" ry="14.5"/>
<text text-anchor="middle" x="361.75" y="-11.2" font-family="Times New Roman,serif" font-size="9.00">1</text>
</g>
<!-- &#45;1&#45;&gt;1 -->
<g id="edge2" class="edge">
<title>&#45;1&#45;&gt;1</title>
<path fill="none" stroke="green" stroke-width="0.23" stroke-dasharray="1,5" d="M485.68,-68.12C462.89,-58.44 413.18,-37.33 384.12,-25"/>
<polygon fill="green" stroke="green" stroke-width="0.23" points="385.68,-21.85 375.1,-21.17 382.94,-28.3 385.68,-21.85"/>
</g>
<!-- &#45;2 -->
<g id="node2" class="node">
<title>&#45;2</title>
<polygon fill="lightgray" stroke="black" points="551.5,-83.49 528,-83.49 528,-64.99 551.5,-64.99 551.5,-83.49"/>
<text text-anchor="middle" x="539.75" y="-70.94" font-family="Times New Roman,serif" font-size="9.00">&#45;2</text>
</g>
<!-- &#45;2&#45;&gt;0 -->
<g id="edge3" class="edge">
<title>&#45;2&#45;&gt;0</title>
<path fill="none" stroke="green" stroke-width="0.17" d="M527.88,-68.16C524.93,-67.01 521.76,-65.88 518.75,-64.99 440.48,-41.99 417.97,-48.49 338.75,-28.99 331.28,-27.15 323.21,-24.88 315.94,-22.73"/>
<polygon fill="green" stroke="green" stroke-width="0.17" points="317.18,-19.45 306.59,-19.9 315.15,-26.15 317.18,-19.45"/>
</g>
<!-- &#45;2&#45;&gt;1 -->
<g id="edge4" class="edge">
<title>&#45;2&#45;&gt;1</title>
<path fill="none" stroke="red" stroke-width="0.2" stroke-dasharray="1,5" d="M527.81,-68.39C524.86,-67.23 521.7,-66.04 518.75,-64.99 471.99,-48.46 416.48,-31.6 385.57,-22.45"/>
<polygon fill="red" stroke="red" stroke-width="0.2" points="386.59,-19.1 376.01,-19.63 384.61,-25.81 386.59,-19.1"/>
</g>
<!-- &#45;3 -->
<g id="node3" class="node">
<title>&#45;3</title>
<polygon fill="lightgray" stroke="black" points="635.5,-83.49 612,-83.49 612,-64.99 635.5,-64.99 635.5,-83.49"/>
<text text-anchor="middle" x="623.75" y="-70.94" font-family="Times New Roman,serif" font-size="9.00">&#45;3</text>
</g>
<!-- &#45;3&#45;&gt;1 -->
<g id="edge5" class="edge">
<title>&#45;3&#45;&gt;1</title>
<path fill="none" stroke="red" stroke-width="0.13" d="M611.88,-68.17C608.93,-67.02 605.75,-65.88 602.75,-64.99 525.17,-41.97 430.43,-25.92 386.42,-19.12"/>
<polygon fill="red" stroke="red" stroke-width="0.13" points="386.97,-15.67 376.56,-17.63 385.92,-22.59 386.97,-15.67"/>
</g>
<!-- &#45;4 -->
<g id="node4" class="node">
<title>&#45;4</title>
<polygon fill="lightgray" stroke="black" points="593.5,-83.49 570,-83.49 570,-64.99 593.5,-64.99 593.5,-83.49"/>
<text text-anchor="middle" x="581.75" y="-70.94" font-family="Times New Roman,serif" font-size="9.00">&#45;4</text>
</g>
<!-- &#45;4&#45;&gt;0 -->
<g id="edge6" class="edge">
<title>&#45;4&#45;&gt;0</title>
<path fill="none" stroke="red" stroke-width="0.12" stroke-dasharray="1,5" d="M569.91,-68.08C566.96,-66.94 563.77,-65.82 560.75,-64.99 464.35,-38.57 436.23,-51.1 338.75,-28.99 331.25,-27.29 323.17,-25.06 315.9,-22.9"/>
<polygon fill="red" stroke="red" stroke-width="0.12" points="317.07,-19.6 306.49,-20.01 315.02,-26.29 317.07,-19.6"/>
</g>
<!-- &#45;4&#45;&gt;1 -->
<g id="edge7" class="edge">
<title>&#45;4&#45;&gt;1</title>
<path fill="none" stroke="red" stroke-width="0.11" d="M569.85,-68.26C566.91,-67.11 563.74,-65.94 560.75,-64.99 498.44,-45.1 423.07,-28.26 385.48,-20.35"/>
<polygon fill="red" stroke="red" stroke-width="0.11" points="386.59,-17 376.09,-18.39 385.16,-23.86 386.59,-17"/>
</g>
<!-- &#45;5 -->
<g id="node5" class="node">
<title>&#45;5</title>
<polygon fill="lightgray" stroke="black" points="65.5,-83.49 42,-83.49 42,-64.99 65.5,-64.99 65.5,-83.49"/>
<text text-anchor="middle" x="53.75" y="-70.94" font-family="Times New Roman,serif" font-size="9.00">&#45;5</text>
</g>
<!-- &#45;5&#45;&gt;0 -->
<g id="edge8" class="edge">
<title>&#45;5&#45;&gt;0</title>
<path fill="none" stroke="green" stroke-width="0.11" d="M65.63,-68.21C68.58,-67.07 71.76,-65.91 74.75,-64.99 143.87,-43.7 227.87,-27.18 268.47,-19.77"/>
<polygon fill="green" stroke="green" stroke-width="0.11" points="268.89,-23.25 278.11,-18.03 267.64,-16.36 268.89,-23.25"/>
</g>
<!-- &#45;6 -->
<g id="node6" class="node">
<title>&#45;6</title>
<polygon fill="lightgray" stroke="black" points="107.5,-83.49 84,-83.49 84,-64.99 107.5,-64.99 107.5,-83.49"/>
<text text-anchor="middle" x="95.75" y="-70.94" font-family="Times New Roman,serif" font-size="9.00">&#45;6</text>
</g>
<!-- &#45;6&#45;&gt;0 -->
<g id="edge9" class="edge">
<title>&#45;6&#45;&gt;0</title>
<path fill="none" stroke="red" stroke-width="0.2" stroke-dasharray="1,5" d="M107.67,-68.32C110.61,-67.17 113.78,-65.99 116.75,-64.99 170.23,-47.02 234.3,-30.14 268.47,-21.5"/>
<polygon fill="red" stroke="red" stroke-width="0.2" points="269.31,-24.9 278.16,-19.07 267.61,-18.11 269.31,-24.9"/>
</g>
<!-- &#45;6&#45;&gt;1 -->
<g id="edge10" class="edge">
<title>&#45;6&#45;&gt;1</title>
<path fill="none" stroke="red" stroke-width="0.33" d="M107.6,-68.12C110.55,-66.97 113.74,-65.85 116.75,-64.99 203.21,-40.44 228.28,-49.67 315.75,-28.99 323.15,-27.24 331.13,-25.02 338.33,-22.89"/>
<polygon fill="red" stroke="red" stroke-width="0.33" points="339.14,-26.3 347.69,-20.04 337.1,-19.61 339.14,-26.3"/>
</g>
<!-- &#45;7 -->
<g id="node7" class="node">
<title>&#45;7</title>
<polygon fill="lightgray" stroke="black" points="149.5,-83.49 126,-83.49 126,-64.99 149.5,-64.99 149.5,-83.49"/>
<text text-anchor="middle" x="137.75" y="-70.94" font-family="Times New Roman,serif" font-size="9.00">&#45;7</text>
</g>
<!-- &#45;7&#45;&gt;0 -->
<g id="edge11" class="edge">
<title>&#45;7&#45;&gt;0</title>
<path fill="none" stroke="green" stroke-width="0.39" d="M149.73,-68.49C152.67,-67.33 155.82,-66.11 158.75,-64.99 197.42,-50.26 242.6,-33.7 269.39,-23.96"/>
<polygon fill="green" stroke="green" stroke-width="0.39" points="270.26,-27.37 278.47,-20.66 267.87,-20.79 270.26,-27.37"/>
</g>
<!-- &#45;7&#45;&gt;1 -->
<g id="edge12" class="edge">
<title>&#45;7&#45;&gt;1</title>
<path fill="none" stroke="red" stroke-width="0.37" stroke-dasharray="1,5" d="M149.63,-68.22C152.58,-67.07 155.76,-65.92 158.75,-64.99 227.14,-43.84 246.48,-47.08 315.75,-28.99 323.02,-27.09 330.89,-24.85 338.02,-22.75"/>
<polygon fill="red" stroke="red" stroke-width="0.37" points="339.02,-26.11 347.59,-19.89 337.01,-19.4 339.02,-26.11"/>
</g>
<!-- &#45;8 -->
<g id="node8" class="node">
<title>&#45;8</title>
<polygon fill="lightgray" stroke="black" points="191.5,-83.49 168,-83.49 168,-64.99 191.5,-64.99 191.5,-83.49"/>
<text text-anchor="middle" x="179.75" y="-70.94" font-family="Times New Roman,serif" font-size="9.00">&#45;8</text>
</g>
<!-- &#45;8&#45;&gt;0 -->
<g id="edge13" class="edge">
<title>&#45;8&#45;&gt;0</title>
<path fill="none" stroke="red" stroke-width="0.29" stroke-dasharray="1,5" d="M191.84,-67.06C210.67,-57.44 247.29,-38.73 270.85,-26.69"/>
<polygon fill="red" stroke="red" stroke-width="0.29" points="272.35,-29.85 279.66,-22.18 269.16,-23.62 272.35,-29.85"/>
</g>
<!-- &#45;8&#45;&gt;1 -->
<g id="edge14" class="edge">
<title>&#45;8&#45;&gt;1</title>
<path fill="none" stroke="green" stroke-width="0.51" d="M191.68,-68.37C194.63,-67.22 197.79,-66.03 200.75,-64.99 226.31,-56.05 299.16,-34.14 337.49,-22.71"/>
<polygon fill="green" stroke="green" stroke-width="0.51" points="338.44,-26.08 347.02,-19.87 336.44,-19.37 338.44,-26.08"/>
</g>
<!-- &#45;9 -->
<g id="node9" class="node">
<title>&#45;9</title>
<polygon fill="lightgray" stroke="black" points="23.5,-83.49 0,-83.49 0,-64.99 23.5,-64.99 23.5,-83.49"/>
<text text-anchor="middle" x="11.75" y="-70.94" font-family="Times New Roman,serif" font-size="9.00">&#45;9</text>
</g>
<!-- &#45;9&#45;&gt;0 -->
<g id="edge15" class="edge">
<title>&#45;9&#45;&gt;0</title>
<path fill="none" stroke="green" stroke-width="0.32" d="M23.61,-68.14C26.56,-66.99 29.74,-65.86 32.75,-64.99 117.37,-40.55 221.05,-24.96 267.79,-18.67"/>
<polygon fill="green" stroke="green" stroke-width="0.32" points="268.21,-22.14 277.67,-17.37 267.3,-15.2 268.21,-22.14"/>
</g>
<!-- &#45;10 -->
<g id="node10" class="node">
<title>&#45;10</title>
<polygon fill="lightgray" stroke="black" points="237.75,-83.49 209.75,-83.49 209.75,-64.99 237.75,-64.99 237.75,-83.49"/>
<text text-anchor="middle" x="223.75" y="-70.94" font-family="Times New Roman,serif" font-size="9.00">&#45;10</text>
</g>
<!-- &#45;10&#45;&gt;0 -->
<g id="edge16" class="edge">
<title>&#45;10&#45;&gt;0</title>
<path fill="none" stroke="red" stroke-width="0.64" d="M233.93,-64.72C244.41,-55.95 260.98,-42.09 273.86,-31.3"/>
<polygon fill="red" stroke="red" stroke-width="0.64" points="275.91,-34.15 281.33,-25.05 271.42,-28.79 275.91,-34.15"/>
</g>
<!-- &#45;10&#45;&gt;1 -->
<g id="edge17" class="edge">
<title>&#45;10&#45;&gt;1</title>
<path fill="none" stroke="green" stroke-width="0.34" d="M238,-67.28C261.92,-57.27 310.34,-37.01 339.01,-25.01"/>
<polygon fill="green" stroke="green" stroke-width="0.34" points="340.24,-28.29 348.11,-21.2 337.54,-21.83 340.24,-28.29"/>
</g>
<!-- &#45;11 -->
<g id="node11" class="node">
<title>&#45;11</title>
<polygon fill="lightgray" stroke="black" points="283.75,-83.49 255.75,-83.49 255.75,-64.99 283.75,-64.99 283.75,-83.49"/>
<text text-anchor="middle" x="269.75" y="-70.94" font-family="Times New Roman,serif" font-size="9.00">&#45;11</text>
</g>
<!-- &#45;11&#45;&gt;0 -->
<g id="edge18" class="edge">
<title>&#45;11&#45;&gt;0</title>
<path fill="none" stroke="red" stroke-width="0.23" d="M273.14,-64.72C275.93,-57.72 280.02,-47.46 283.74,-38.12"/>
<polygon fill="red" stroke="red" stroke-width="0.23" points="286.97,-39.46 287.42,-28.87 280.47,-36.87 286.97,-39.46"/>
</g>
<!-- &#45;11&#45;&gt;1 -->
<g id="edge19" class="edge">
<title>&#45;11&#45;&gt;1</title>
<path fill="none" stroke="green" stroke-width="0.17" d="M283.32,-64.72C298.56,-55.16 323.46,-39.53 341.11,-28.45"/>
<polygon fill="green" stroke="green" stroke-width="0.17" points="342.76,-31.55 349.37,-23.27 339.04,-25.62 342.76,-31.55"/>
</g>
<!-- &#45;12 -->
<g id="node12" class="node">
<title>&#45;12</title>
<polygon fill="lightgray" stroke="black" points="329.75,-83.49 301.75,-83.49 301.75,-64.99 329.75,-64.99 329.75,-83.49"/>
<text text-anchor="middle" x="315.75" y="-70.94" font-family="Times New Roman,serif" font-size="9.00">&#45;12</text>
</g>
<!-- &#45;12&#45;&gt;0 -->
<g id="edge20" class="edge">
<title>&#45;12&#45;&gt;0</title>
<path fill="none" stroke="red" stroke-width="0.36" d="M312.36,-64.72C309.57,-57.72 305.48,-47.46 301.76,-38.12"/>
<polygon fill="red" stroke="red" stroke-width="0.36" points="305.1,-37.05 298.15,-29.05 298.6,-39.64 305.1,-37.05"/>
</g>
<!-- &#45;12&#45;&gt;1 -->
<g id="edge21" class="edge">
<title>&#45;12&#45;&gt;1</title>
<path fill="none" stroke="green" stroke-width="0.36" d="M322.54,-64.72C328.86,-56.78 338.52,-44.66 346.67,-34.43"/>
<polygon fill="green" stroke="green" stroke-width="0.36" points="349.22,-36.84 352.71,-26.84 343.74,-32.48 349.22,-36.84"/>
</g>
<!-- &#45;13 -->
<g id="node13" class="node">
<title>&#45;13</title>
<polygon fill="lightgray" stroke="black" points="375.75,-83.49 347.75,-83.49 347.75,-64.99 375.75,-64.99 375.75,-83.49"/>
<text text-anchor="middle" x="361.75" y="-70.94" font-family="Times New Roman,serif" font-size="9.00">&#45;13</text>
</g>
<!-- &#45;13&#45;&gt;0 -->
<g id="edge22" class="edge">
<title>&#45;13&#45;&gt;0</title>
<path fill="none" stroke="red" stroke-width="0.21" stroke-dasharray="1,5" d="M351.57,-64.72C340.99,-55.87 324.21,-41.82 311.27,-30.99"/>
<polygon fill="red" stroke="red" stroke-width="0.21" points="313.58,-28.37 303.67,-24.63 309.09,-33.74 313.58,-28.37"/>
</g>
<!-- &#45;13&#45;&gt;1 -->
<g id="edge23" class="edge">
<title>&#45;13&#45;&gt;1</title>
<path fill="none" stroke="red" stroke-width="0.21" d="M361.75,-64.72C361.75,-58.12 361.75,-48.63 361.75,-39.74"/>
<polygon fill="red" stroke="red" stroke-width="0.21" points="365.25,-39.75 361.75,-29.75 358.25,-39.75 365.25,-39.75"/>
</g>
<!-- &#45;14 -->
<g id="node14" class="node">
<title>&#45;14</title>
<polygon fill="lightgray" stroke="black" points="421.75,-83.49 393.75,-83.49 393.75,-64.99 421.75,-64.99 421.75,-83.49"/>
<text text-anchor="middle" x="407.75" y="-70.94" font-family="Times New Roman,serif" font-size="9.00">&#45;14</text>
</g>
<!-- &#45;14&#45;&gt;0 -->
<g id="edge24" class="edge">
<title>&#45;14&#45;&gt;0</title>
<path fill="none" stroke="red" stroke-width="0.15" d="M393.65,-66.16C373.92,-56.25 337.88,-38.16 314.64,-26.49"/>
<polygon fill="red" stroke="red" stroke-width="0.15" points="316.26,-23.38 305.75,-22.02 313.12,-29.64 316.26,-23.38"/>
</g>
<!-- &#45;14&#45;&gt;1 -->
<g id="edge25" class="edge">
<title>&#45;14&#45;&gt;1</title>
<path fill="none" stroke="red" stroke-width="0.51" d="M400.96,-64.72C394.7,-56.86 385.17,-44.9 377.08,-34.74"/>
<polygon fill="red" stroke="red" stroke-width="0.51" points="379.9,-32.67 370.93,-27.03 374.43,-37.03 379.9,-32.67"/>
</g>
<!-- &#45;15 -->
<g id="node15" class="node">
<title>&#45;15</title>
<polygon fill="lightgray" stroke="black" points="467.75,-83.49 439.75,-83.49 439.75,-64.99 467.75,-64.99 467.75,-83.49"/>
<text text-anchor="middle" x="453.75" y="-70.94" font-family="Times New Roman,serif" font-size="9.00">&#45;15</text>
</g>
<!-- &#45;15&#45;&gt;0 -->
<g id="edge26" class="edge">
<title>&#45;15&#45;&gt;0</title>
<path fill="none" stroke="red" stroke-width="0.36" stroke-dasharray="1,5" d="M439.46,-68.12C411.56,-58.11 349.63,-35.9 315.84,-23.78"/>
<polygon fill="red" stroke="red" stroke-width="0.36" points="317.42,-20.63 306.83,-20.54 315.06,-27.22 317.42,-20.63"/>
</g>
<!-- &#45;15&#45;&gt;1 -->
<g id="edge27" class="edge">
<title>&#45;15&#45;&gt;1</title>
<path fill="none" stroke="green" stroke-width="0.5" d="M440.18,-64.72C425.08,-55.24 400.5,-39.82 382.88,-28.76"/>
<polygon fill="green" stroke="green" stroke-width="0.5" points="384.89,-25.88 374.55,-23.53 381.16,-31.81 384.89,-25.88"/>
</g>
</g>
</svg>
