<?xml version="1.0" encoding="utf-8" standalone="no"?>
<!DOCTYPE svg PUBLIC "-//W3C//DTD SVG 1.1//EN"
  "http://www.w3.org/Graphics/SVG/1.1/DTD/svg11.dtd">
<svg xmlns:xlink="http://www.w3.org/1999/xlink" width="460.8pt" height="345.6pt" viewBox="0 0 460.8 345.6" xmlns="http://www.w3.org/2000/svg" version="1.1">
 <metadata>
  <rdf:RDF xmlns:dc="http://purl.org/dc/elements/1.1/" xmlns:cc="http://creativecommons.org/ns#" xmlns:rdf="http://www.w3.org/1999/02/22-rdf-syntax-ns#">
   <cc:Work>
    <dc:type rdf:resource="http://purl.org/dc/dcmitype/StillImage"/>
    <dc:date>2025-07-09T14:18:35.198516</dc:date>
    <dc:format>image/svg+xml</dc:format>
    <dc:creator>
     <cc:Agent>
      <dc:title>Matplotlib v3.10.0, https://matplotlib.org/</dc:title>
     </cc:Agent>
    </dc:creator>
   </cc:Work>
  </rdf:RDF>
 </metadata>
 <defs>
  <style type="text/css">*{stroke-linejoin: round; stroke-linecap: butt}</style>
 </defs>
 <g id="figure_1">
  <g id="patch_1">
   <path d="M 0 345.6 
L 460.8 345.6 
L 460.8 0 
L 0 0 
z
" style="fill: #ffffff"/>
  </g>
  <g id="axes_1">
   <g id="patch_2">
    <path d="M 57.6 307.584 
L 414.72 307.584 
L 414.72 41.472 
L 57.6 41.472 
z
" style="fill: #ffffff"/>
   </g>
   <g id="matplotlib.axis_1">
    <g id="xtick_1">
     <g id="line2d_1">
      <path d="M 73.832727 307.584 
L 73.832727 41.472 
" clip-path="url(#p274e16d9e1)" style="fill: none; stroke: #b0b0b0; stroke-width: 0.8; stroke-linecap: square"/>
     </g>
     <g id="line2d_2">
      <defs>
       <path id="me828cb5da2" d="M 0 0 
L 0 3.5 
" style="stroke: #000000; stroke-width: 0.8"/>
      </defs>
      <g>
       <use xlink:href="#me828cb5da2" x="73.832727" y="307.584" style="stroke: #000000; stroke-width: 0.8"/>
      </g>
     </g>
     <g id="text_1">
      <!-- 0 -->
      <g transform="translate(70.651477 322.182437) scale(0.1 -0.1)">
       <defs>
        <path id="DejaVuSans-30" d="M 2034 4250 
Q 1547 4250 1301 3770 
Q 1056 3291 1056 2328 
Q 1056 1369 1301 889 
Q 1547 409 2034 409 
Q 2525 409 2770 889 
Q 3016 1369 3016 2328 
Q 3016 3291 2770 3770 
Q 2525 4250 2034 4250 
z
M 2034 4750 
Q 2819 4750 3233 4129 
Q 3647 3509 3647 2328 
Q 3647 1150 3233 529 
Q 2819 -91 2034 -91 
Q 1250 -91 836 529 
Q 422 1150 422 2328 
Q 422 3509 836 4129 
Q 1250 4750 2034 4750 
z
" transform="scale(0.015625)"/>
       </defs>
       <use xlink:href="#DejaVuSans-30"/>
      </g>
     </g>
    </g>
    <g id="xtick_2">
     <g id="line2d_3">
      <path d="M 138.893758 307.584 
L 138.893758 41.472 
" clip-path="url(#p274e16d9e1)" style="fill: none; stroke: #b0b0b0; stroke-width: 0.8; stroke-linecap: square"/>
     </g>
     <g id="line2d_4">
      <g>
       <use xlink:href="#me828cb5da2" x="138.893758" y="307.584" style="stroke: #000000; stroke-width: 0.8"/>
      </g>
     </g>
     <g id="text_2">
      <!-- 100 -->
      <g transform="translate(129.350008 322.182437) scale(0.1 -0.1)">
       <defs>
        <path id="DejaVuSans-31" d="M 794 531 
L 1825 531 
L 1825 4091 
L 703 3866 
L 703 4441 
L 1819 4666 
L 2450 4666 
L 2450 531 
L 3481 531 
L 3481 0 
L 794 0 
L 794 531 
z
" transform="scale(0.015625)"/>
       </defs>
       <use xlink:href="#DejaVuSans-31"/>
       <use xlink:href="#DejaVuSans-30" transform="translate(63.623047 0)"/>
       <use xlink:href="#DejaVuSans-30" transform="translate(127.246094 0)"/>
      </g>
     </g>
    </g>
    <g id="xtick_3">
     <g id="line2d_5">
      <path d="M 203.95479 307.584 
L 203.95479 41.472 
" clip-path="url(#p274e16d9e1)" style="fill: none; stroke: #b0b0b0; stroke-width: 0.8; stroke-linecap: square"/>
     </g>
     <g id="line2d_6">
      <g>
       <use xlink:href="#me828cb5da2" x="203.95479" y="307.584" style="stroke: #000000; stroke-width: 0.8"/>
      </g>
     </g>
     <g id="text_3">
      <!-- 200 -->
      <g transform="translate(194.41104 322.182437) scale(0.1 -0.1)">
       <defs>
        <path id="DejaVuSans-32" d="M 1228 531 
L 3431 531 
L 3431 0 
L 469 0 
L 469 531 
Q 828 903 1448 1529 
Q 2069 2156 2228 2338 
Q 2531 2678 2651 2914 
Q 2772 3150 2772 3378 
Q 2772 3750 2511 3984 
Q 2250 4219 1831 4219 
Q 1534 4219 1204 4116 
Q 875 4013 500 3803 
L 500 4441 
Q 881 4594 1212 4672 
Q 1544 4750 1819 4750 
Q 2544 4750 2975 4387 
Q 3406 4025 3406 3419 
Q 3406 3131 3298 2873 
Q 3191 2616 2906 2266 
Q 2828 2175 2409 1742 
Q 1991 1309 1228 531 
z
" transform="scale(0.015625)"/>
       </defs>
       <use xlink:href="#DejaVuSans-32"/>
       <use xlink:href="#DejaVuSans-30" transform="translate(63.623047 0)"/>
       <use xlink:href="#DejaVuSans-30" transform="translate(127.246094 0)"/>
      </g>
     </g>
    </g>
    <g id="xtick_4">
     <g id="line2d_7">
      <path d="M 269.015821 307.584 
L 269.015821 41.472 
" clip-path="url(#p274e16d9e1)" style="fill: none; stroke: #b0b0b0; stroke-width: 0.8; stroke-linecap: square"/>
     </g>
     <g id="line2d_8">
      <g>
       <use xlink:href="#me828cb5da2" x="269.015821" y="307.584" style="stroke: #000000; stroke-width: 0.8"/>
      </g>
     </g>
     <g id="text_4">
      <!-- 300 -->
      <g transform="translate(259.472071 322.182437) scale(0.1 -0.1)">
       <defs>
        <path id="DejaVuSans-33" d="M 2597 2516 
Q 3050 2419 3304 2112 
Q 3559 1806 3559 1356 
Q 3559 666 3084 287 
Q 2609 -91 1734 -91 
Q 1441 -91 1130 -33 
Q 819 25 488 141 
L 488 750 
Q 750 597 1062 519 
Q 1375 441 1716 441 
Q 2309 441 2620 675 
Q 2931 909 2931 1356 
Q 2931 1769 2642 2001 
Q 2353 2234 1838 2234 
L 1294 2234 
L 1294 2753 
L 1863 2753 
Q 2328 2753 2575 2939 
Q 2822 3125 2822 3475 
Q 2822 3834 2567 4026 
Q 2313 4219 1838 4219 
Q 1578 4219 1281 4162 
Q 984 4106 628 3988 
L 628 4550 
Q 988 4650 1302 4700 
Q 1616 4750 1894 4750 
Q 2613 4750 3031 4423 
Q 3450 4097 3450 3541 
Q 3450 3153 3228 2886 
Q 3006 2619 2597 2516 
z
" transform="scale(0.015625)"/>
       </defs>
       <use xlink:href="#DejaVuSans-33"/>
       <use xlink:href="#DejaVuSans-30" transform="translate(63.623047 0)"/>
       <use xlink:href="#DejaVuSans-30" transform="translate(127.246094 0)"/>
      </g>
     </g>
    </g>
    <g id="xtick_5">
     <g id="line2d_9">
      <path d="M 334.076852 307.584 
L 334.076852 41.472 
" clip-path="url(#p274e16d9e1)" style="fill: none; stroke: #b0b0b0; stroke-width: 0.8; stroke-linecap: square"/>
     </g>
     <g id="line2d_10">
      <g>
       <use xlink:href="#me828cb5da2" x="334.076852" y="307.584" style="stroke: #000000; stroke-width: 0.8"/>
      </g>
     </g>
     <g id="text_5">
      <!-- 400 -->
      <g transform="translate(324.533102 322.182437) scale(0.1 -0.1)">
       <defs>
        <path id="DejaVuSans-34" d="M 2419 4116 
L 825 1625 
L 2419 1625 
L 2419 4116 
z
M 2253 4666 
L 3047 4666 
L 3047 1625 
L 3713 1625 
L 3713 1100 
L 3047 1100 
L 3047 0 
L 2419 0 
L 2419 1100 
L 313 1100 
L 313 1709 
L 2253 4666 
z
" transform="scale(0.015625)"/>
       </defs>
       <use xlink:href="#DejaVuSans-34"/>
       <use xlink:href="#DejaVuSans-30" transform="translate(63.623047 0)"/>
       <use xlink:href="#DejaVuSans-30" transform="translate(127.246094 0)"/>
      </g>
     </g>
    </g>
    <g id="xtick_6">
     <g id="line2d_11">
      <path d="M 399.137883 307.584 
L 399.137883 41.472 
" clip-path="url(#p274e16d9e1)" style="fill: none; stroke: #b0b0b0; stroke-width: 0.8; stroke-linecap: square"/>
     </g>
     <g id="line2d_12">
      <g>
       <use xlink:href="#me828cb5da2" x="399.137883" y="307.584" style="stroke: #000000; stroke-width: 0.8"/>
      </g>
     </g>
     <g id="text_6">
      <!-- 500 -->
      <g transform="translate(389.594133 322.182437) scale(0.1 -0.1)">
       <defs>
        <path id="DejaVuSans-35" d="M 691 4666 
L 3169 4666 
L 3169 4134 
L 1269 4134 
L 1269 2991 
Q 1406 3038 1543 3061 
Q 1681 3084 1819 3084 
Q 2600 3084 3056 2656 
Q 3513 2228 3513 1497 
Q 3513 744 3044 326 
Q 2575 -91 1722 -91 
Q 1428 -91 1123 -41 
Q 819 9 494 109 
L 494 744 
Q 775 591 1075 516 
Q 1375 441 1709 441 
Q 2250 441 2565 725 
Q 2881 1009 2881 1497 
Q 2881 1984 2565 2268 
Q 2250 2553 1709 2553 
Q 1456 2553 1204 2497 
Q 953 2441 691 2322 
L 691 4666 
z
" transform="scale(0.015625)"/>
       </defs>
       <use xlink:href="#DejaVuSans-35"/>
       <use xlink:href="#DejaVuSans-30" transform="translate(63.623047 0)"/>
       <use xlink:href="#DejaVuSans-30" transform="translate(127.246094 0)"/>
      </g>
     </g>
    </g>
    <g id="text_7">
     <!-- Generations -->
     <g transform="translate(205.662344 335.860562) scale(0.1 -0.1)">
      <defs>
       <path id="DejaVuSans-47" d="M 3809 666 
L 3809 1919 
L 2778 1919 
L 2778 2438 
L 4434 2438 
L 4434 434 
Q 4069 175 3628 42 
Q 3188 -91 2688 -91 
Q 1594 -91 976 548 
Q 359 1188 359 2328 
Q 359 3472 976 4111 
Q 1594 4750 2688 4750 
Q 3144 4750 3555 4637 
Q 3966 4525 4313 4306 
L 4313 3634 
Q 3963 3931 3569 4081 
Q 3175 4231 2741 4231 
Q 1884 4231 1454 3753 
Q 1025 3275 1025 2328 
Q 1025 1384 1454 906 
Q 1884 428 2741 428 
Q 3075 428 3337 486 
Q 3600 544 3809 666 
z
" transform="scale(0.015625)"/>
       <path id="DejaVuSans-65" d="M 3597 1894 
L 3597 1613 
L 953 1613 
Q 991 1019 1311 708 
Q 1631 397 2203 397 
Q 2534 397 2845 478 
Q 3156 559 3463 722 
L 3463 178 
Q 3153 47 2828 -22 
Q 2503 -91 2169 -91 
Q 1331 -91 842 396 
Q 353 884 353 1716 
Q 353 2575 817 3079 
Q 1281 3584 2069 3584 
Q 2775 3584 3186 3129 
Q 3597 2675 3597 1894 
z
M 3022 2063 
Q 3016 2534 2758 2815 
Q 2500 3097 2075 3097 
Q 1594 3097 1305 2825 
Q 1016 2553 972 2059 
L 3022 2063 
z
" transform="scale(0.015625)"/>
       <path id="DejaVuSans-6e" d="M 3513 2113 
L 3513 0 
L 2938 0 
L 2938 2094 
Q 2938 2591 2744 2837 
Q 2550 3084 2163 3084 
Q 1697 3084 1428 2787 
Q 1159 2491 1159 1978 
L 1159 0 
L 581 0 
L 581 3500 
L 1159 3500 
L 1159 2956 
Q 1366 3272 1645 3428 
Q 1925 3584 2291 3584 
Q 2894 3584 3203 3211 
Q 3513 2838 3513 2113 
z
" transform="scale(0.015625)"/>
       <path id="DejaVuSans-72" d="M 2631 2963 
Q 2534 3019 2420 3045 
Q 2306 3072 2169 3072 
Q 1681 3072 1420 2755 
Q 1159 2438 1159 1844 
L 1159 0 
L 581 0 
L 581 3500 
L 1159 3500 
L 1159 2956 
Q 1341 3275 1631 3429 
Q 1922 3584 2338 3584 
Q 2397 3584 2469 3576 
Q 2541 3569 2628 3553 
L 2631 2963 
z
" transform="scale(0.015625)"/>
       <path id="DejaVuSans-61" d="M 2194 1759 
Q 1497 1759 1228 1600 
Q 959 1441 959 1056 
Q 959 750 1161 570 
Q 1363 391 1709 391 
Q 2188 391 2477 730 
Q 2766 1069 2766 1631 
L 2766 1759 
L 2194 1759 
z
M 3341 1997 
L 3341 0 
L 2766 0 
L 2766 531 
Q 2569 213 2275 61 
Q 1981 -91 1556 -91 
Q 1019 -91 701 211 
Q 384 513 384 1019 
Q 384 1609 779 1909 
Q 1175 2209 1959 2209 
L 2766 2209 
L 2766 2266 
Q 2766 2663 2505 2880 
Q 2244 3097 1772 3097 
Q 1472 3097 1187 3025 
Q 903 2953 641 2809 
L 641 3341 
Q 956 3463 1253 3523 
Q 1550 3584 1831 3584 
Q 2591 3584 2966 3190 
Q 3341 2797 3341 1997 
z
" transform="scale(0.015625)"/>
       <path id="DejaVuSans-74" d="M 1172 4494 
L 1172 3500 
L 2356 3500 
L 2356 3053 
L 1172 3053 
L 1172 1153 
Q 1172 725 1289 603 
Q 1406 481 1766 481 
L 2356 481 
L 2356 0 
L 1766 0 
Q 1100 0 847 248 
Q 594 497 594 1153 
L 594 3053 
L 172 3053 
L 172 3500 
L 594 3500 
L 594 4494 
L 1172 4494 
z
" transform="scale(0.015625)"/>
       <path id="DejaVuSans-69" d="M 603 3500 
L 1178 3500 
L 1178 0 
L 603 0 
L 603 3500 
z
M 603 4863 
L 1178 4863 
L 1178 4134 
L 603 4134 
L 603 4863 
z
" transform="scale(0.015625)"/>
       <path id="DejaVuSans-6f" d="M 1959 3097 
Q 1497 3097 1228 2736 
Q 959 2375 959 1747 
Q 959 1119 1226 758 
Q 1494 397 1959 397 
Q 2419 397 2687 759 
Q 2956 1122 2956 1747 
Q 2956 2369 2687 2733 
Q 2419 3097 1959 3097 
z
M 1959 3584 
Q 2709 3584 3137 3096 
Q 3566 2609 3566 1747 
Q 3566 888 3137 398 
Q 2709 -91 1959 -91 
Q 1206 -91 779 398 
Q 353 888 353 1747 
Q 353 2609 779 3096 
Q 1206 3584 1959 3584 
z
" transform="scale(0.015625)"/>
       <path id="DejaVuSans-73" d="M 2834 3397 
L 2834 2853 
Q 2591 2978 2328 3040 
Q 2066 3103 1784 3103 
Q 1356 3103 1142 2972 
Q 928 2841 928 2578 
Q 928 2378 1081 2264 
Q 1234 2150 1697 2047 
L 1894 2003 
Q 2506 1872 2764 1633 
Q 3022 1394 3022 966 
Q 3022 478 2636 193 
Q 2250 -91 1575 -91 
Q 1294 -91 989 -36 
Q 684 19 347 128 
L 347 722 
Q 666 556 975 473 
Q 1284 391 1588 391 
Q 1994 391 2212 530 
Q 2431 669 2431 922 
Q 2431 1156 2273 1281 
Q 2116 1406 1581 1522 
L 1381 1569 
Q 847 1681 609 1914 
Q 372 2147 372 2553 
Q 372 3047 722 3315 
Q 1072 3584 1716 3584 
Q 2034 3584 2315 3537 
Q 2597 3491 2834 3397 
z
" transform="scale(0.015625)"/>
      </defs>
      <use xlink:href="#DejaVuSans-47"/>
      <use xlink:href="#DejaVuSans-65" transform="translate(77.490234 0)"/>
      <use xlink:href="#DejaVuSans-6e" transform="translate(139.013672 0)"/>
      <use xlink:href="#DejaVuSans-65" transform="translate(202.392578 0)"/>
      <use xlink:href="#DejaVuSans-72" transform="translate(263.916016 0)"/>
      <use xlink:href="#DejaVuSans-61" transform="translate(305.029297 0)"/>
      <use xlink:href="#DejaVuSans-74" transform="translate(366.308594 0)"/>
      <use xlink:href="#DejaVuSans-69" transform="translate(405.517578 0)"/>
      <use xlink:href="#DejaVuSans-6f" transform="translate(433.300781 0)"/>
      <use xlink:href="#DejaVuSans-6e" transform="translate(494.482422 0)"/>
      <use xlink:href="#DejaVuSans-73" transform="translate(557.861328 0)"/>
     </g>
    </g>
   </g>
   <g id="matplotlib.axis_2">
    <g id="ytick_1">
     <g id="line2d_13">
      <path d="M 57.6 299.648778 
L 414.72 299.648778 
" clip-path="url(#p274e16d9e1)" style="fill: none; stroke: #b0b0b0; stroke-width: 0.8; stroke-linecap: square"/>
     </g>
     <g id="line2d_14">
      <defs>
       <path id="m441ce9d600" d="M 0 0 
L -3.5 0 
" style="stroke: #000000; stroke-width: 0.8"/>
      </defs>
      <g>
       <use xlink:href="#m441ce9d600" x="57.6" y="299.648778" style="stroke: #000000; stroke-width: 0.8"/>
      </g>
     </g>
     <g id="text_8">
      <!-- −1.00 -->
      <g transform="translate(19.954687 303.447997) scale(0.1 -0.1)">
       <defs>
        <path id="DejaVuSans-2212" d="M 678 2272 
L 4684 2272 
L 4684 1741 
L 678 1741 
L 678 2272 
z
" transform="scale(0.015625)"/>
        <path id="DejaVuSans-2e" d="M 684 794 
L 1344 794 
L 1344 0 
L 684 0 
L 684 794 
z
" transform="scale(0.015625)"/>
       </defs>
       <use xlink:href="#DejaVuSans-2212"/>
       <use xlink:href="#DejaVuSans-31" transform="translate(83.789062 0)"/>
       <use xlink:href="#DejaVuSans-2e" transform="translate(147.412109 0)"/>
       <use xlink:href="#DejaVuSans-30" transform="translate(179.199219 0)"/>
       <use xlink:href="#DejaVuSans-30" transform="translate(242.822266 0)"/>
      </g>
     </g>
    </g>
    <g id="ytick_2">
     <g id="line2d_15">
      <path d="M 57.6 268.36087 
L 414.72 268.36087 
" clip-path="url(#p274e16d9e1)" style="fill: none; stroke: #b0b0b0; stroke-width: 0.8; stroke-linecap: square"/>
     </g>
     <g id="line2d_16">
      <g>
       <use xlink:href="#m441ce9d600" x="57.6" y="268.36087" style="stroke: #000000; stroke-width: 0.8"/>
      </g>
     </g>
     <g id="text_9">
      <!-- −0.75 -->
      <g transform="translate(19.954687 272.160089) scale(0.1 -0.1)">
       <defs>
        <path id="DejaVuSans-37" d="M 525 4666 
L 3525 4666 
L 3525 4397 
L 1831 0 
L 1172 0 
L 2766 4134 
L 525 4134 
L 525 4666 
z
" transform="scale(0.015625)"/>
       </defs>
       <use xlink:href="#DejaVuSans-2212"/>
       <use xlink:href="#DejaVuSans-30" transform="translate(83.789062 0)"/>
       <use xlink:href="#DejaVuSans-2e" transform="translate(147.412109 0)"/>
       <use xlink:href="#DejaVuSans-37" transform="translate(179.199219 0)"/>
       <use xlink:href="#DejaVuSans-35" transform="translate(242.822266 0)"/>
      </g>
     </g>
    </g>
    <g id="ytick_3">
     <g id="line2d_17">
      <path d="M 57.6 237.072962 
L 414.72 237.072962 
" clip-path="url(#p274e16d9e1)" style="fill: none; stroke: #b0b0b0; stroke-width: 0.8; stroke-linecap: square"/>
     </g>
     <g id="line2d_18">
      <g>
       <use xlink:href="#m441ce9d600" x="57.6" y="237.072962" style="stroke: #000000; stroke-width: 0.8"/>
      </g>
     </g>
     <g id="text_10">
      <!-- −0.50 -->
      <g transform="translate(19.954687 240.872181) scale(0.1 -0.1)">
       <use xlink:href="#DejaVuSans-2212"/>
       <use xlink:href="#DejaVuSans-30" transform="translate(83.789062 0)"/>
       <use xlink:href="#DejaVuSans-2e" transform="translate(147.412109 0)"/>
       <use xlink:href="#DejaVuSans-35" transform="translate(179.199219 0)"/>
       <use xlink:href="#DejaVuSans-30" transform="translate(242.822266 0)"/>
      </g>
     </g>
    </g>
    <g id="ytick_4">
     <g id="line2d_19">
      <path d="M 57.6 205.785054 
L 414.72 205.785054 
" clip-path="url(#p274e16d9e1)" style="fill: none; stroke: #b0b0b0; stroke-width: 0.8; stroke-linecap: square"/>
     </g>
     <g id="line2d_20">
      <g>
       <use xlink:href="#m441ce9d600" x="57.6" y="205.785054" style="stroke: #000000; stroke-width: 0.8"/>
      </g>
     </g>
     <g id="text_11">
      <!-- −0.25 -->
      <g transform="translate(19.954687 209.584272) scale(0.1 -0.1)">
       <use xlink:href="#DejaVuSans-2212"/>
       <use xlink:href="#DejaVuSans-30" transform="translate(83.789062 0)"/>
       <use xlink:href="#DejaVuSans-2e" transform="translate(147.412109 0)"/>
       <use xlink:href="#DejaVuSans-32" transform="translate(179.199219 0)"/>
       <use xlink:href="#DejaVuSans-35" transform="translate(242.822266 0)"/>
      </g>
     </g>
    </g>
    <g id="ytick_5">
     <g id="line2d_21">
      <path d="M 57.6 174.497145 
L 414.72 174.497145 
" clip-path="url(#p274e16d9e1)" style="fill: none; stroke: #b0b0b0; stroke-width: 0.8; stroke-linecap: square"/>
     </g>
     <g id="line2d_22">
      <g>
       <use xlink:href="#m441ce9d600" x="57.6" y="174.497145" style="stroke: #000000; stroke-width: 0.8"/>
      </g>
     </g>
     <g id="text_12">
      <!-- 0.00 -->
      <g transform="translate(28.334375 178.296364) scale(0.1 -0.1)">
       <use xlink:href="#DejaVuSans-30"/>
       <use xlink:href="#DejaVuSans-2e" transform="translate(63.623047 0)"/>
       <use xlink:href="#DejaVuSans-30" transform="translate(95.410156 0)"/>
       <use xlink:href="#DejaVuSans-30" transform="translate(159.033203 0)"/>
      </g>
     </g>
    </g>
    <g id="ytick_6">
     <g id="line2d_23">
      <path d="M 57.6 143.209237 
L 414.72 143.209237 
" clip-path="url(#p274e16d9e1)" style="fill: none; stroke: #b0b0b0; stroke-width: 0.8; stroke-linecap: square"/>
     </g>
     <g id="line2d_24">
      <g>
       <use xlink:href="#m441ce9d600" x="57.6" y="143.209237" style="stroke: #000000; stroke-width: 0.8"/>
      </g>
     </g>
     <g id="text_13">
      <!-- 0.25 -->
      <g transform="translate(28.334375 147.008456) scale(0.1 -0.1)">
       <use xlink:href="#DejaVuSans-30"/>
       <use xlink:href="#DejaVuSans-2e" transform="translate(63.623047 0)"/>
       <use xlink:href="#DejaVuSans-32" transform="translate(95.410156 0)"/>
       <use xlink:href="#DejaVuSans-35" transform="translate(159.033203 0)"/>
      </g>
     </g>
    </g>
    <g id="ytick_7">
     <g id="line2d_25">
      <path d="M 57.6 111.921329 
L 414.72 111.921329 
" clip-path="url(#p274e16d9e1)" style="fill: none; stroke: #b0b0b0; stroke-width: 0.8; stroke-linecap: square"/>
     </g>
     <g id="line2d_26">
      <g>
       <use xlink:href="#m441ce9d600" x="57.6" y="111.921329" style="stroke: #000000; stroke-width: 0.8"/>
      </g>
     </g>
     <g id="text_14">
      <!-- 0.50 -->
      <g transform="translate(28.334375 115.720548) scale(0.1 -0.1)">
       <use xlink:href="#DejaVuSans-30"/>
       <use xlink:href="#DejaVuSans-2e" transform="translate(63.623047 0)"/>
       <use xlink:href="#DejaVuSans-35" transform="translate(95.410156 0)"/>
       <use xlink:href="#DejaVuSans-30" transform="translate(159.033203 0)"/>
      </g>
     </g>
    </g>
    <g id="ytick_8">
     <g id="line2d_27">
      <path d="M 57.6 80.633421 
L 414.72 80.633421 
" clip-path="url(#p274e16d9e1)" style="fill: none; stroke: #b0b0b0; stroke-width: 0.8; stroke-linecap: square"/>
     </g>
     <g id="line2d_28">
      <g>
       <use xlink:href="#m441ce9d600" x="57.6" y="80.633421" style="stroke: #000000; stroke-width: 0.8"/>
      </g>
     </g>
     <g id="text_15">
      <!-- 0.75 -->
      <g transform="translate(28.334375 84.432639) scale(0.1 -0.1)">
       <use xlink:href="#DejaVuSans-30"/>
       <use xlink:href="#DejaVuSans-2e" transform="translate(63.623047 0)"/>
       <use xlink:href="#DejaVuSans-37" transform="translate(95.410156 0)"/>
       <use xlink:href="#DejaVuSans-35" transform="translate(159.033203 0)"/>
      </g>
     </g>
    </g>
    <g id="ytick_9">
     <g id="line2d_29">
      <path d="M 57.6 49.345512 
L 414.72 49.345512 
" clip-path="url(#p274e16d9e1)" style="fill: none; stroke: #b0b0b0; stroke-width: 0.8; stroke-linecap: square"/>
     </g>
     <g id="line2d_30">
      <g>
       <use xlink:href="#m441ce9d600" x="57.6" y="49.345512" style="stroke: #000000; stroke-width: 0.8"/>
      </g>
     </g>
     <g id="text_16">
      <!-- 1.00 -->
      <g transform="translate(28.334375 53.144731) scale(0.1 -0.1)">
       <use xlink:href="#DejaVuSans-31"/>
       <use xlink:href="#DejaVuSans-2e" transform="translate(63.623047 0)"/>
       <use xlink:href="#DejaVuSans-30" transform="translate(95.410156 0)"/>
       <use xlink:href="#DejaVuSans-30" transform="translate(159.033203 0)"/>
      </g>
     </g>
    </g>
    <g id="text_17">
     <!-- Fitness -->
     <g transform="translate(13.875 191.845187) rotate(-90) scale(0.1 -0.1)">
      <defs>
       <path id="DejaVuSans-46" d="M 628 4666 
L 3309 4666 
L 3309 4134 
L 1259 4134 
L 1259 2759 
L 3109 2759 
L 3109 2228 
L 1259 2228 
L 1259 0 
L 628 0 
L 628 4666 
z
" transform="scale(0.015625)"/>
      </defs>
      <use xlink:href="#DejaVuSans-46"/>
      <use xlink:href="#DejaVuSans-69" transform="translate(50.269531 0)"/>
      <use xlink:href="#DejaVuSans-74" transform="translate(78.052734 0)"/>
      <use xlink:href="#DejaVuSans-6e" transform="translate(117.261719 0)"/>
      <use xlink:href="#DejaVuSans-65" transform="translate(180.640625 0)"/>
      <use xlink:href="#DejaVuSans-73" transform="translate(242.164062 0)"/>
      <use xlink:href="#DejaVuSans-73" transform="translate(294.263672 0)"/>
     </g>
    </g>
    <g id="text_18">
     <!-- 1e6 -->
     <g transform="translate(57.6 38.472) scale(0.1 -0.1)">
      <defs>
       <path id="DejaVuSans-36" d="M 2113 2584 
Q 1688 2584 1439 2293 
Q 1191 2003 1191 1497 
Q 1191 994 1439 701 
Q 1688 409 2113 409 
Q 2538 409 2786 701 
Q 3034 994 3034 1497 
Q 3034 2003 2786 2293 
Q 2538 2584 2113 2584 
z
M 3366 4563 
L 3366 3988 
Q 3128 4100 2886 4159 
Q 2644 4219 2406 4219 
Q 1781 4219 1451 3797 
Q 1122 3375 1075 2522 
Q 1259 2794 1537 2939 
Q 1816 3084 2150 3084 
Q 2853 3084 3261 2657 
Q 3669 2231 3669 1497 
Q 3669 778 3244 343 
Q 2819 -91 2113 -91 
Q 1303 -91 875 529 
Q 447 1150 447 2328 
Q 447 3434 972 4092 
Q 1497 4750 2381 4750 
Q 2619 4750 2861 4703 
Q 3103 4656 3366 4563 
z
" transform="scale(0.015625)"/>
      </defs>
      <use xlink:href="#DejaVuSans-31"/>
      <use xlink:href="#DejaVuSans-65" transform="translate(63.623047 0)"/>
      <use xlink:href="#DejaVuSans-36" transform="translate(125.146484 0)"/>
     </g>
    </g>
   </g>
   <g id="line2d_31">
    <path d="M 73.832727 167.837568 
L 74.483338 168.414046 
L 75.133948 167.613624 
L 75.784558 168.117274 
L 76.435169 168.2186 
L 77.085779 165.093085 
L 77.736389 166.437049 
L 78.386999 166.938445 
L 79.03761 167.847722 
L 79.68822 168.00475 
L 80.33883 169.316312 
L 80.989441 168.740531 
L 81.640051 168.593875 
L 82.290661 168.052294 
L 82.941272 165.665269 
L 83.591882 168.574755 
L 84.242492 166.704214 
L 84.893103 166.537989 
L 85.543713 167.082932 
L 86.194323 166.884305 
L 86.844934 164.578003 
L 87.495544 164.783688 
L 88.796764 163.912947 
L 89.447375 167.263009 
L 90.097985 167.461988 
L 90.748595 167.345351 
L 91.399206 165.704262 
L 92.049816 166.555757 
L 92.700426 167.735891 
L 93.351037 164.707942 
L 94.001647 165.634194 
L 94.652257 167.250758 
L 95.302868 167.146343 
L 95.953478 165.317646 
L 96.604088 166.021648 
L 97.254698 163.323582 
L 97.905309 165.404368 
L 98.555919 166.647626 
L 99.85714 163.785561 
L 100.50775 164.505259 
L 101.15836 162.902047 
L 101.808971 164.222706 
L 102.459581 165.034144 
L 103.110191 162.331741 
L 103.760802 162.641424 
L 104.411412 164.06411 
L 105.062022 163.868002 
L 105.712633 162.446667 
L 106.363243 162.310622 
L 107.013853 164.067921 
L 107.664463 163.190159 
L 108.315074 164.049675 
L 108.965684 163.128061 
L 109.616294 165.276337 
L 110.266905 163.217126 
L 110.917515 164.214693 
L 111.568125 164.277901 
L 112.218736 163.285212 
L 112.869346 160.987789 
L 113.519956 164.009115 
L 114.170567 163.220581 
L 114.821177 166.334496 
L 115.471787 162.780751 
L 116.122398 164.004576 
L 116.773008 164.688207 
L 117.423618 174.528 
L 118.074228 166.598264 
L 118.724839 165.339243 
L 119.375449 164.608303 
L 120.026059 164.123212 
L 120.67667 164.45871 
L 121.32728 165.239958 
L 121.97789 164.927627 
L 122.628501 165.865502 
L 123.279111 164.805169 
L 123.929721 164.121222 
L 125.230942 165.561093 
L 125.881552 164.875637 
L 126.532163 163.689991 
L 127.182773 163.942179 
L 127.833383 162.454983 
L 128.483993 166.461048 
L 129.134604 166.028124 
L 129.785214 163.109202 
L 130.435824 164.259998 
L 131.086435 161.67319 
L 131.737045 163.261551 
L 133.038266 160.969556 
L 134.339486 161.025255 
L 134.990097 162.382956 
L 135.640707 161.65848 
L 136.291317 161.516823 
L 136.941927 162.20415 
L 137.592538 161.974114 
L 138.243148 161.007837 
L 138.893758 161.89023 
L 139.544369 162.56366 
L 140.194979 164.53054 
L 140.845589 162.411813 
L 141.4962 161.144522 
L 142.14681 161.627854 
L 142.79742 163.351907 
L 143.448031 159.869223 
L 144.098641 161.857427 
L 144.749251 161.457291 
L 145.399862 163.022471 
L 146.050472 162.783857 
L 146.701082 162.996225 
L 147.351692 162.26859 
L 148.002303 161.884487 
L 148.652913 161.134424 
L 149.303523 162.024266 
L 149.954134 162.350739 
L 150.604744 160.662544 
L 151.255354 165.100032 
L 151.905965 163.627243 
L 152.556575 164.396982 
L 153.207185 162.161515 
L 153.857796 161.036861 
L 155.159016 163.15166 
L 155.809627 161.174477 
L 156.460237 163.447982 
L 157.110847 162.359024 
L 157.761457 163.425648 
L 158.412068 165.003578 
L 159.062678 163.767296 
L 159.713288 163.735928 
L 160.363899 162.261482 
L 161.014509 162.185118 
L 161.665119 161.740568 
L 162.31573 163.455204 
L 162.96634 163.388384 
L 163.61695 163.162893 
L 164.267561 163.867727 
L 164.918171 162.642217 
L 165.568781 162.937836 
L 166.219392 162.423937 
L 166.870002 165.916482 
L 168.171222 165.509678 
L 168.821833 162.27956 
L 169.472443 164.607328 
L 170.123053 164.602004 
L 170.773664 162.994221 
L 171.424274 165.061017 
L 172.074884 164.195692 
L 172.725495 163.89443 
L 173.376105 162.718489 
L 174.026715 163.767868 
L 175.327936 164.130257 
L 175.978546 164.795741 
L 176.629156 163.666863 
L 177.279767 163.518348 
L 177.930377 163.12087 
L 178.580987 162.101056 
L 179.231598 162.716214 
L 180.532818 161.606398 
L 181.183429 164.733505 
L 181.834039 163.428778 
L 182.484649 166.064662 
L 183.13526 166.032954 
L 183.78587 166.345886 
L 184.43648 163.530413 
L 185.087091 163.8058 
L 185.737701 163.307238 
L 186.388311 163.175043 
L 187.038921 161.696217 
L 187.689532 162.802749 
L 188.340142 160.319901 
L 188.990752 162.70514 
L 189.641363 159.836026 
L 190.942583 160.476889 
L 191.593194 160.495151 
L 192.243804 160.837676 
L 192.894414 162.44609 
L 193.545025 161.383292 
L 194.195635 159.224001 
L 194.846245 160.326902 
L 195.496856 161.758248 
L 196.147466 163.706665 
L 196.798076 161.74665 
L 197.448686 162.142408 
L 198.749907 161.976953 
L 199.400517 163.445639 
L 200.051128 164.528018 
L 200.701738 160.591168 
L 201.352348 161.495993 
L 202.002959 163.03846 
L 202.653569 162.10069 
L 203.304179 161.944065 
L 203.95479 162.117651 
L 204.6054 163.813902 
L 205.25601 164.625841 
L 205.906621 162.775392 
L 206.557231 162.0723 
L 207.207841 161.947174 
L 207.858451 163.611067 
L 208.509062 160.500475 
L 209.159672 162.252843 
L 209.810282 161.938886 
L 210.460893 162.78834 
L 211.111503 163.114625 
L 211.762113 164.108554 
L 212.412724 161.25981 
L 213.063334 162.674159 
L 213.713944 162.750107 
L 214.364555 162.324085 
L 215.015165 162.631138 
L 215.665775 163.56923 
L 216.316385 161.312522 
L 216.966996 161.162638 
L 217.617606 162.722965 
L 218.268216 162.511306 
L 218.918827 160.640093 
L 219.569437 162.238064 
L 220.220047 160.059909 
L 220.870658 164.053198 
L 221.521268 162.083267 
L 222.171878 161.785077 
L 222.822489 162.609971 
L 223.473099 161.253856 
L 224.123709 161.290185 
L 224.77432 161.825984 
L 225.42493 159.220664 
L 226.07554 161.653366 
L 226.72615 162.978107 
L 227.376761 160.952772 
L 228.027371 160.495496 
L 228.677981 160.901446 
L 229.328592 161.625803 
L 229.979202 160.966431 
L 230.629812 159.392031 
L 231.280423 161.840041 
L 231.931033 160.343493 
L 232.581643 161.134855 
L 233.232254 161.470667 
L 233.882864 162.062194 
L 235.184085 162.728003 
L 235.834695 160.453909 
L 236.485305 160.599556 
L 237.135915 161.203378 
L 237.786526 161.135847 
L 238.437136 162.94153 
L 239.087746 162.366722 
L 239.738357 162.699609 
L 240.388967 162.32872 
L 241.039577 161.407992 
L 241.690188 161.765157 
L 242.340798 166.1596 
L 242.991408 163.464581 
L 243.642019 166.093404 
L 244.292629 162.685017 
L 244.943239 163.065116 
L 245.59385 160.773492 
L 246.24446 160.925717 
L 246.89507 162.23255 
L 247.54568 160.296252 
L 248.196291 162.582252 
L 248.846901 161.172788 
L 249.497511 161.05573 
L 250.148122 161.16072 
L 250.798732 160.199527 
L 251.449342 163.030363 
L 252.099953 161.817277 
L 252.750563 162.949556 
L 253.401173 166.227318 
L 254.051784 162.847965 
L 254.702394 162.744899 
L 255.353004 164.341862 
L 256.654225 164.294953 
L 257.304835 162.331766 
L 257.955445 162.449317 
L 258.606056 162.284199 
L 259.256666 161.565518 
L 259.907276 160.533723 
L 260.557887 163.94154 
L 261.208497 163.280188 
L 261.859107 162.019299 
L 262.509718 163.530851 
L 263.160328 162.723558 
L 263.810938 163.00437 
L 265.112159 163.907358 
L 265.762769 162.244366 
L 266.413379 161.856012 
L 267.06399 162.369053 
L 268.36521 162.500158 
L 269.015821 163.539489 
L 269.666431 162.659425 
L 270.317041 160.697308 
L 270.967652 161.116711 
L 271.618262 162.745413 
L 272.268872 159.918967 
L 272.919483 159.830473 
L 273.570093 160.456002 
L 274.220703 159.809618 
L 274.871314 163.013677 
L 275.521924 158.867251 
L 276.172534 159.615944 
L 276.823144 159.13396 
L 277.473755 159.729506 
L 278.124365 161.569358 
L 278.774975 159.539062 
L 280.076196 162.207096 
L 280.726806 160.883323 
L 281.377417 161.256762 
L 282.028027 160.73141 
L 282.678637 162.549999 
L 283.329248 161.282952 
L 283.979858 161.935714 
L 284.630468 160.495012 
L 285.931689 161.194712 
L 286.582299 162.660755 
L 287.88352 158.678598 
L 288.53413 162.386927 
L 289.18474 159.67133 
L 289.835351 159.555699 
L 290.485961 161.164378 
L 291.136571 161.154832 
L 291.787182 163.182456 
L 293.088402 161.396092 
L 293.739013 162.22742 
L 294.389623 161.80413 
L 295.040233 160.723944 
L 295.690844 160.262004 
L 296.341454 160.853809 
L 296.992064 161.92443 
L 297.642674 160.211757 
L 298.293285 160.403708 
L 298.943895 159.411773 
L 299.594505 161.540093 
L 300.245116 161.259924 
L 300.895726 161.141389 
L 301.546336 159.303869 
L 302.847557 161.328239 
L 303.498167 160.919619 
L 304.148778 158.392079 
L 304.799388 160.922546 
L 305.449998 160.854249 
L 306.100608 161.143205 
L 306.751219 162.138557 
L 307.401829 160.207503 
L 308.052439 160.303379 
L 308.70305 160.2482 
L 309.35366 162.083299 
L 310.00427 161.123167 
L 310.654881 163.42509 
L 311.305491 162.25307 
L 311.956101 159.697762 
L 312.606712 159.980454 
L 313.257322 160.38637 
L 313.907932 161.351701 
L 314.558543 160.58977 
L 315.209153 161.970627 
L 315.859763 162.304608 
L 316.510373 160.301852 
L 317.160984 161.948551 
L 317.811594 161.073609 
L 318.462204 161.704598 
L 319.112815 160.129622 
L 319.763425 161.441371 
L 320.414035 161.480293 
L 321.064646 162.448085 
L 321.715256 162.306277 
L 322.365866 162.543012 
L 323.016477 163.53649 
L 323.667087 162.319566 
L 324.317697 163.202195 
L 324.968308 163.444956 
L 325.618918 164.482458 
L 326.269528 163.920542 
L 326.920138 161.746643 
L 327.570749 162.048859 
L 328.221359 161.529983 
L 328.871969 162.531631 
L 329.52258 161.37507 
L 330.17319 162.460132 
L 330.8238 162.938756 
L 331.474411 165.784783 
L 332.125021 164.767128 
L 332.775631 162.249839 
L 334.076852 161.382983 
L 334.727462 162.271869 
L 335.378073 162.088688 
L 336.028683 161.471236 
L 336.679293 161.205025 
L 337.980514 161.988829 
L 338.631124 161.596939 
L 339.281734 162.80794 
L 339.932345 161.359073 
L 340.582955 163.838966 
L 341.884176 161.714244 
L 342.534786 163.231382 
L 343.185396 162.125527 
L 344.486617 161.14266 
L 345.137227 160.052342 
L 345.787837 161.233338 
L 346.438448 159.733244 
L 347.739668 162.024783 
L 348.390279 160.88686 
L 349.040889 163.703806 
L 349.691499 162.583561 
L 350.34211 161.963293 
L 350.99272 163.567822 
L 351.64333 162.517079 
L 352.293941 162.804657 
L 352.944551 163.574386 
L 353.595161 160.061441 
L 354.245772 161.531636 
L 354.896382 161.495883 
L 355.546992 161.683218 
L 356.197602 160.073497 
L 356.848213 160.816861 
L 357.498823 159.998566 
L 358.149433 165.331522 
L 358.800044 162.23642 
L 359.450654 163.720603 
L 360.101264 164.0365 
L 360.751875 161.357238 
L 361.402485 161.239814 
L 362.053095 161.883575 
L 362.703706 164.437037 
L 363.354316 162.332236 
L 364.004926 163.398938 
L 364.655537 162.239008 
L 365.306147 163.754059 
L 365.956757 162.45945 
L 366.607367 161.962851 
L 367.257978 162.101822 
L 367.908588 161.705478 
L 368.559198 160.76994 
L 369.209809 161.751228 
L 370.511029 160.471936 
L 371.16164 161.958927 
L 371.81225 161.392237 
L 373.113471 161.669287 
L 373.764081 162.125737 
L 374.414691 161.815779 
L 375.065302 162.241576 
L 375.715912 161.498626 
L 376.366522 162.985162 
L 377.017132 163.091964 
L 377.667743 163.848052 
L 378.318353 162.787599 
L 378.968963 162.079309 
L 379.619574 162.817095 
L 380.270184 163.732261 
L 380.920794 162.716311 
L 381.571405 163.417708 
L 382.222015 162.787873 
L 382.872625 162.591333 
L 383.523236 162.216954 
L 384.173846 161.995047 
L 384.824456 161.968797 
L 385.475066 161.361034 
L 386.125677 160.585281 
L 386.776287 162.445284 
L 387.426897 162.136689 
L 388.077508 161.154163 
L 388.728118 159.875882 
L 389.378728 160.091091 
L 390.029339 162.804831 
L 390.679949 163.267502 
L 391.330559 160.774604 
L 391.98117 159.687229 
L 392.63178 160.928541 
L 393.28239 161.453986 
L 393.933001 160.438226 
L 394.583611 159.915469 
L 395.234221 161.365998 
L 395.884831 164.010271 
L 396.535442 162.800915 
L 397.836662 162.318502 
L 398.487273 164.114092 
L 398.487273 164.114092 
" clip-path="url(#p274e16d9e1)" style="fill: none; stroke: #0000ff; stroke-width: 1.5; stroke-linecap: square"/>
   </g>
   <g id="line2d_32">
    <path d="M 73.832727 175.480479 
L 74.483338 183.432991 
L 75.133948 179.458929 
L 75.784558 185.951898 
L 76.435169 182.951776 
L 77.085779 178.638925 
L 77.736389 180.920219 
L 78.386999 182.010824 
L 79.03761 186.027858 
L 79.68822 185.087814 
L 80.33883 189.478939 
L 80.989441 187.792671 
L 81.640051 188.547399 
L 82.290661 187.025836 
L 82.941272 183.474109 
L 83.591882 185.899854 
L 84.242492 185.782312 
L 84.893103 185.791121 
L 85.543713 188.651421 
L 86.194323 188.245277 
L 86.844934 182.54533 
L 87.495544 183.49816 
L 88.146154 185.348414 
L 88.796764 181.716691 
L 89.447375 189.318904 
L 90.097985 187.350972 
L 90.748595 187.312952 
L 91.399206 183.287194 
L 92.049816 192.540202 
L 92.700426 191.798649 
L 93.351037 184.166654 
L 94.001647 186.305479 
L 94.652257 190.631789 
L 95.302868 190.499775 
L 95.953478 185.148136 
L 96.604088 186.399052 
L 97.254698 182.608842 
L 97.905309 184.299693 
L 98.555919 193.41434 
L 99.206529 184.389592 
L 99.85714 180.691321 
L 100.50775 183.989542 
L 101.15836 177.754314 
L 101.808971 183.292172 
L 102.459581 183.5813 
L 103.110191 177.510731 
L 103.760802 178.234784 
L 104.411412 187.38522 
L 105.062022 180.441553 
L 105.712633 179.160154 
L 106.363243 177.488473 
L 107.013853 184.263056 
L 107.664463 180.918882 
L 108.315074 182.285681 
L 108.965684 180.564252 
L 109.616294 188.262267 
L 110.266905 181.234115 
L 110.917515 185.350036 
L 111.568125 184.50467 
L 112.218736 183.199027 
L 112.869346 177.724397 
L 113.519956 183.303978 
L 114.170567 184.194794 
L 114.821177 190.893333 
L 115.471787 179.993959 
L 116.122398 184.151478 
L 116.773008 183.341578 
L 117.423618 295.488 
L 118.074228 189.611856 
L 118.724839 183.741982 
L 119.375449 183.134495 
L 120.026059 181.652507 
L 120.67667 182.287181 
L 121.32728 185.87356 
L 121.97789 183.576112 
L 122.628501 187.641499 
L 123.279111 182.003259 
L 123.929721 182.250898 
L 124.580332 181.938135 
L 125.230942 186.559766 
L 125.881552 187.143119 
L 126.532163 179.752646 
L 127.182773 184.43165 
L 127.833383 176.829016 
L 128.483993 193.328892 
L 129.134604 187.302788 
L 129.785214 179.776359 
L 130.435824 183.629849 
L 131.086435 176.120784 
L 131.737045 179.865727 
L 132.387655 182.003704 
L 133.038266 175.678089 
L 133.688876 175.351543 
L 134.339486 176.988124 
L 134.990097 180.553214 
L 135.640707 178.747143 
L 136.291317 177.875875 
L 136.941927 181.18371 
L 137.592538 178.045197 
L 138.243148 178.094063 
L 138.893758 182.300721 
L 139.544369 180.849591 
L 140.194979 184.634916 
L 140.845589 178.897387 
L 141.4962 179.473528 
L 142.14681 177.892704 
L 142.79742 182.151912 
L 143.448031 175.162807 
L 144.098641 179.314624 
L 144.749251 179.923104 
L 145.399862 183.838273 
L 146.050472 184.596105 
L 146.701082 183.350224 
L 147.351692 180.823061 
L 148.002303 180.159295 
L 148.652913 178.822411 
L 149.954134 181.110618 
L 150.604744 178.816871 
L 151.255354 189.736628 
L 151.905965 185.301554 
L 152.556575 185.984321 
L 153.207185 179.269491 
L 153.857796 181.528434 
L 154.508406 181.262883 
L 155.159016 184.35257 
L 155.809627 179.123139 
L 156.460237 182.500686 
L 157.110847 179.857735 
L 157.761457 181.49651 
L 158.412068 188.486417 
L 159.062678 183.158595 
L 159.713288 182.728984 
L 160.363899 181.280489 
L 161.014509 180.819803 
L 161.665119 180.195159 
L 162.31573 180.228884 
L 162.96634 179.251684 
L 163.61695 183.057635 
L 164.267561 182.84463 
L 164.918171 178.687809 
L 165.568781 180.544242 
L 166.219392 180.076578 
L 166.870002 202.668299 
L 167.520612 186.486381 
L 168.171222 185.872631 
L 168.821833 180.876124 
L 169.472443 181.960982 
L 170.123053 182.413771 
L 170.773664 180.880571 
L 171.424274 186.088117 
L 172.074884 182.606544 
L 172.725495 181.107902 
L 173.376105 180.179282 
L 174.026715 181.414087 
L 174.677326 184.593413 
L 175.327936 183.382614 
L 175.978546 184.943053 
L 176.629156 179.652724 
L 177.279767 179.643587 
L 177.930377 186.591572 
L 178.580987 184.241363 
L 179.231598 180.769431 
L 179.882208 179.684254 
L 180.532818 181.94185 
L 181.183429 183.505381 
L 181.834039 182.082224 
L 182.484649 187.755147 
L 183.13526 186.671341 
L 183.78587 188.234903 
L 184.43648 180.810214 
L 185.087091 184.666241 
L 185.737701 184.237526 
L 186.388311 185.610725 
L 187.038921 182.271843 
L 187.689532 186.143606 
L 188.340142 179.823691 
L 188.990752 183.144506 
L 189.641363 175.528231 
L 190.291973 177.428939 
L 190.942583 178.325018 
L 191.593194 177.864387 
L 192.894414 182.951163 
L 193.545025 180.006251 
L 194.195635 175.605223 
L 194.846245 176.453908 
L 195.496856 180.657904 
L 196.147466 182.986407 
L 196.798076 178.23425 
L 197.448686 178.408065 
L 198.099297 178.439103 
L 198.749907 178.634285 
L 199.400517 180.236743 
L 200.051128 182.911493 
L 200.701738 177.471117 
L 201.352348 179.38675 
L 202.002959 183.925193 
L 202.653569 177.980944 
L 203.304179 180.473191 
L 203.95479 180.870541 
L 204.6054 183.315351 
L 205.25601 183.847176 
L 205.906621 179.55772 
L 206.557231 177.578091 
L 207.207841 179.460869 
L 207.858451 178.582689 
L 208.509062 175.742107 
L 209.159672 181.014329 
L 209.810282 179.438986 
L 210.460893 179.788237 
L 211.111503 182.555191 
L 211.762113 183.397402 
L 212.412724 178.310474 
L 213.063334 181.494549 
L 213.713944 179.584535 
L 215.015165 178.208364 
L 215.665775 181.81207 
L 216.316385 177.687698 
L 216.966996 176.250108 
L 217.617606 177.247732 
L 218.918827 180.564193 
L 219.569437 179.060262 
L 220.220047 174.56731 
L 220.870658 183.678813 
L 221.521268 179.342786 
L 222.171878 179.615366 
L 222.822489 182.215377 
L 223.473099 180.109825 
L 224.123709 178.562684 
L 224.77432 180.953802 
L 225.42493 174.676391 
L 226.07554 178.633174 
L 226.72615 196.834038 
L 227.376761 176.4383 
L 228.027371 175.210903 
L 228.677981 179.495927 
L 229.328592 179.317881 
L 229.979202 177.453386 
L 230.629812 174.273235 
L 231.280423 204.615914 
L 231.931033 174.803248 
L 232.581643 176.552076 
L 233.232254 175.568093 
L 233.882864 180.852796 
L 234.533474 179.598352 
L 235.184085 183.144617 
L 235.834695 175.970375 
L 236.485305 179.178207 
L 237.135915 178.838061 
L 237.786526 177.997262 
L 238.437136 181.253154 
L 239.087746 180.465203 
L 239.738357 181.867974 
L 240.388967 182.773435 
L 241.039577 179.594882 
L 241.690188 181.586351 
L 242.340798 198.01694 
L 242.991408 184.774854 
L 243.642019 194.427098 
L 244.292629 180.77182 
L 244.943239 186.592019 
L 245.59385 177.360097 
L 246.24446 179.031648 
L 246.89507 179.238269 
L 247.54568 176.200285 
L 248.196291 183.70125 
L 248.846901 178.129374 
L 249.497511 178.443474 
L 250.148122 177.469946 
L 250.798732 174.894748 
L 251.449342 187.374988 
L 252.099953 181.704533 
L 252.750563 186.072318 
L 253.401173 229.583945 
L 254.051784 185.338307 
L 254.702394 181.864417 
L 255.353004 188.393376 
L 256.003615 183.656255 
L 256.654225 182.67278 
L 257.955445 179.261742 
L 258.606056 179.517912 
L 259.256666 179.532605 
L 259.907276 178.92369 
L 260.557887 185.592595 
L 261.208497 180.534779 
L 261.859107 179.626864 
L 262.509718 183.032552 
L 263.160328 178.53902 
L 263.810938 179.466488 
L 264.461549 180.076539 
L 265.112159 181.17731 
L 266.413379 176.726747 
L 267.06399 179.484685 
L 267.7146 179.448057 
L 268.36521 178.71568 
L 269.015821 183.18237 
L 269.666431 180.507117 
L 270.317041 175.93683 
L 270.967652 177.102732 
L 271.618262 183.566315 
L 272.268872 174.444053 
L 272.919483 175.810216 
L 273.570093 178.015441 
L 274.220703 176.552167 
L 274.871314 190.152723 
L 275.521924 172.722819 
L 276.172534 174.306314 
L 276.823144 174.26612 
L 277.473755 176.424485 
L 278.124365 180.361358 
L 278.774975 172.845674 
L 279.425586 179.318669 
L 280.076196 180.566003 
L 280.726806 178.819989 
L 281.377417 175.376589 
L 282.028027 174.725625 
L 282.678637 179.13529 
L 283.329248 175.659192 
L 283.979858 177.517929 
L 284.630468 177.280528 
L 285.281079 178.034748 
L 285.931689 176.865207 
L 286.582299 183.042047 
L 287.232909 175.707098 
L 287.88352 172.653487 
L 288.53413 182.411409 
L 289.18474 175.329578 
L 289.835351 174.573417 
L 290.485961 179.845674 
L 291.136571 177.418309 
L 291.787182 184.115747 
L 292.437792 178.345527 
L 293.088402 176.21619 
L 293.739013 178.724297 
L 294.389623 180.231163 
L 295.040233 175.442052 
L 295.690844 175.149572 
L 296.341454 177.193196 
L 296.992064 178.128564 
L 297.642674 174.3863 
L 298.293285 174.638373 
L 298.943895 172.304918 
L 299.594505 179.540866 
L 300.245116 175.510431 
L 300.895726 177.864809 
L 301.546336 172.264561 
L 302.196947 176.568817 
L 302.847557 177.492757 
L 303.498167 177.630186 
L 304.148778 173.766788 
L 305.449998 178.435753 
L 306.751219 180.622132 
L 307.401829 180.842358 
L 308.052439 176.616153 
L 308.70305 178.430134 
L 309.35366 179.489966 
L 310.00427 175.374834 
L 310.654881 183.149521 
L 311.305491 177.178821 
L 311.956101 172.611971 
L 312.606712 175.358136 
L 313.257322 173.655808 
L 313.907932 179.058032 
L 314.558543 172.860387 
L 315.209153 178.618639 
L 315.859763 179.926574 
L 316.510373 173.812922 
L 317.160984 176.878629 
L 317.811594 175.081812 
L 318.462204 177.514839 
L 319.112815 173.615976 
L 319.763425 176.196935 
L 320.414035 178.221026 
L 321.064646 177.938147 
L 321.715256 177.151941 
L 322.365866 178.239822 
L 323.016477 180.922736 
L 323.667087 177.688404 
L 324.317697 179.031639 
L 324.968308 182.597964 
L 326.269528 184.736636 
L 326.920138 176.904344 
L 327.570749 180.155405 
L 328.221359 176.746263 
L 328.871969 181.972102 
L 329.52258 178.074172 
L 330.17319 179.686592 
L 330.8238 178.523209 
L 331.474411 191.249451 
L 332.125021 181.870613 
L 332.775631 176.920487 
L 333.426242 175.700921 
L 334.076852 176.453954 
L 334.727462 175.701464 
L 335.378073 177.890582 
L 336.028683 177.664167 
L 336.679293 178.458881 
L 337.329903 180.968561 
L 337.980514 188.855968 
L 338.631124 182.111107 
L 339.281734 182.711847 
L 339.932345 177.835034 
L 340.582955 186.07035 
L 341.233565 178.643292 
L 341.884176 177.108641 
L 342.534786 179.619393 
L 343.185396 180.179545 
L 343.836007 177.400375 
L 344.486617 177.907156 
L 345.137227 174.487458 
L 345.787837 177.184061 
L 346.438448 175.01044 
L 347.089058 175.467666 
L 347.739668 179.478497 
L 348.390279 178.071456 
L 349.040889 182.798681 
L 349.691499 181.202532 
L 350.34211 177.476252 
L 350.99272 199.898156 
L 351.64333 178.285324 
L 352.293941 179.393175 
L 352.944551 186.311515 
L 353.595161 177.115944 
L 354.245772 181.9167 
L 354.896382 177.603368 
L 355.546992 178.960566 
L 356.197602 175.499707 
L 356.848213 179.038489 
L 357.498823 176.724537 
L 358.149433 192.676799 
L 358.800044 178.450784 
L 359.450654 181.85186 
L 360.101264 181.604732 
L 360.751875 176.201432 
L 361.402485 176.687084 
L 362.053095 176.908981 
L 362.703706 182.974545 
L 363.354316 177.300511 
L 364.004926 181.544456 
L 364.655537 178.616675 
L 365.306147 179.972932 
L 365.956757 178.065888 
L 366.607367 186.085227 
L 367.257978 175.956377 
L 367.908588 176.779155 
L 368.559198 174.296193 
L 369.209809 175.409742 
L 369.860419 178.20577 
L 370.511029 175.727809 
L 371.16164 181.127521 
L 371.81225 176.445617 
L 372.46286 179.43341 
L 373.113471 177.414971 
L 373.764081 177.583377 
L 374.414691 176.132443 
L 375.065302 181.200835 
L 375.715912 176.031241 
L 376.366522 184.585459 
L 377.017132 180.340717 
L 377.667743 181.069502 
L 378.318353 180.582373 
L 378.968963 179.494614 
L 379.619574 180.240488 
L 380.270184 181.710981 
L 380.920794 177.64362 
L 381.571405 181.193024 
L 382.222015 177.159111 
L 382.872625 177.775367 
L 383.523236 177.218358 
L 384.173846 179.833428 
L 384.824456 177.537976 
L 385.475066 176.601834 
L 386.125677 175.240081 
L 386.776287 178.07326 
L 387.426897 178.212053 
L 388.077508 177.52144 
L 388.728118 178.938883 
L 389.378728 177.198132 
L 390.029339 184.578268 
L 390.679949 185.141775 
L 391.330559 186.875165 
L 391.98117 177.901139 
L 392.63178 177.616357 
L 393.28239 179.501669 
L 393.933001 174.496386 
L 394.583611 174.307367 
L 395.234221 181.319686 
L 395.884831 184.381418 
L 396.535442 179.832212 
L 397.836662 177.918037 
L 398.487273 183.3602 
L 398.487273 183.3602 
" clip-path="url(#p274e16d9e1)" style="fill: none; stroke-dasharray: 9.6,2.4,1.5,2.4; stroke-dashoffset: 0; stroke: #008000; stroke-width: 1.5"/>
   </g>
   <g id="line2d_33">
    <path d="M 73.832727 160.194658 
L 74.483338 153.395101 
L 75.133948 155.768319 
L 75.784558 150.28265 
L 76.435169 153.485425 
L 77.085779 151.547245 
L 77.736389 151.95388 
L 78.386999 151.866065 
L 79.03761 149.667585 
L 79.68822 150.921686 
L 80.33883 149.153686 
L 80.989441 149.688392 
L 81.640051 148.640352 
L 82.290661 149.078753 
L 82.941272 147.856428 
L 83.591882 151.249656 
L 84.242492 147.626116 
L 84.893103 147.284857 
L 85.543713 145.514443 
L 86.194323 145.523334 
L 86.844934 146.610676 
L 87.495544 146.069217 
L 88.146154 143.272395 
L 88.796764 146.109203 
L 89.447375 145.207115 
L 90.097985 147.573004 
L 90.748595 147.37775 
L 91.399206 148.12133 
L 92.049816 140.571312 
L 92.700426 143.673133 
L 93.351037 145.249231 
L 94.001647 144.962909 
L 94.652257 143.869727 
L 95.302868 143.792912 
L 95.953478 145.487156 
L 96.604088 145.644243 
L 97.254698 144.038321 
L 97.905309 146.509043 
L 98.555919 139.880912 
L 99.206529 146.138909 
L 99.85714 146.879801 
L 100.50775 145.020976 
L 101.15836 148.049779 
L 101.808971 145.153241 
L 102.459581 146.486988 
L 103.110191 147.152751 
L 103.760802 147.048063 
L 104.411412 140.742999 
L 105.062022 147.29445 
L 105.712633 145.733181 
L 106.363243 147.132772 
L 107.013853 143.872786 
L 107.664463 145.461437 
L 108.315074 145.81367 
L 108.965684 145.69187 
L 109.616294 142.290407 
L 110.266905 145.200137 
L 110.917515 143.07935 
L 111.568125 144.051132 
L 112.218736 143.371398 
L 112.869346 144.251181 
L 113.519956 144.714253 
L 114.170567 142.246367 
L 114.821177 141.775658 
L 115.471787 145.567542 
L 116.122398 143.857674 
L 116.773008 146.034836 
L 117.423618 53.568 
L 118.074228 143.584672 
L 118.724839 146.936505 
L 119.375449 146.08211 
L 120.026059 146.593917 
L 120.67667 146.630239 
L 121.32728 144.606357 
L 121.97789 146.279143 
L 122.628501 144.089505 
L 123.279111 147.607078 
L 123.929721 145.991546 
L 124.580332 147.759374 
L 125.230942 144.562419 
L 125.881552 142.608154 
L 126.532163 147.627336 
L 127.182773 143.452708 
L 127.833383 148.080951 
L 128.483993 139.593203 
L 129.134604 144.753461 
L 129.785214 146.442045 
L 130.435824 144.890147 
L 131.086435 147.225596 
L 131.737045 146.657375 
L 132.387655 142.164776 
L 133.038266 146.261023 
L 133.688876 146.751572 
L 134.339486 145.062387 
L 134.990097 144.212699 
L 135.640707 144.569817 
L 136.291317 145.157771 
L 136.941927 143.22459 
L 137.592538 145.90303 
L 138.243148 143.92161 
L 138.893758 141.479739 
L 139.544369 144.277729 
L 140.194979 144.426164 
L 140.845589 145.926239 
L 141.4962 142.815516 
L 142.14681 145.363004 
L 142.79742 144.551903 
L 143.448031 144.575639 
L 144.098641 144.400229 
L 144.749251 142.991478 
L 145.399862 142.206668 
L 146.050472 140.971608 
L 146.701082 142.642226 
L 147.351692 143.714119 
L 148.652913 143.446436 
L 149.303523 144.044169 
L 149.954134 143.590861 
L 150.604744 142.508218 
L 151.255354 140.463436 
L 151.905965 141.952932 
L 152.556575 142.809642 
L 153.207185 145.053539 
L 153.857796 140.545289 
L 154.508406 142.872548 
L 155.159016 141.950749 
L 156.460237 144.395279 
L 157.761457 145.354787 
L 158.412068 141.52074 
L 159.062678 144.375997 
L 159.713288 144.742872 
L 160.363899 143.242474 
L 161.014509 143.550434 
L 161.665119 143.285977 
L 162.31573 146.681523 
L 162.96634 147.525084 
L 163.61695 143.268151 
L 164.918171 146.596625 
L 165.568781 145.331429 
L 166.219392 144.771296 
L 166.870002 129.164666 
L 167.520612 144.913114 
L 168.171222 145.146726 
L 168.821833 143.682995 
L 169.472443 147.253674 
L 170.123053 146.790238 
L 170.773664 145.107871 
L 171.424274 144.033917 
L 172.074884 145.784841 
L 172.725495 146.680958 
L 173.376105 145.257696 
L 174.026715 146.121648 
L 174.677326 143.220913 
L 175.327936 144.8779 
L 175.978546 144.648429 
L 176.629156 147.681001 
L 177.279767 147.393109 
L 177.930377 139.650168 
L 178.580987 139.960749 
L 179.231598 144.662996 
L 179.882208 144.760703 
L 180.532818 141.270946 
L 181.183429 145.96163 
L 181.834039 144.775332 
L 182.484649 144.374177 
L 183.13526 145.394566 
L 183.78587 144.456869 
L 184.43648 146.250613 
L 185.087091 142.945358 
L 185.737701 142.37695 
L 186.388311 140.739361 
L 187.038921 141.120592 
L 187.689532 139.461891 
L 188.990752 142.265774 
L 189.641363 144.143821 
L 190.291973 142.936906 
L 190.942583 142.628759 
L 191.593194 143.125915 
L 192.243804 141.300273 
L 192.894414 141.941016 
L 193.545025 142.760333 
L 194.195635 142.842779 
L 194.846245 144.199896 
L 195.496856 142.858593 
L 196.147466 144.426923 
L 196.798076 145.259051 
L 197.448686 145.876751 
L 198.749907 145.319621 
L 199.400517 146.654534 
L 200.051128 146.144544 
L 200.701738 143.71122 
L 201.352348 143.605237 
L 202.002959 142.151727 
L 202.653569 146.220436 
L 203.304179 143.414938 
L 203.95479 143.36476 
L 205.25601 145.404507 
L 206.557231 146.566508 
L 207.207841 144.43348 
L 207.858451 148.639445 
L 208.509062 145.258843 
L 209.159672 143.491356 
L 209.810282 144.438785 
L 210.460893 145.788443 
L 211.111503 143.67406 
L 211.762113 144.819705 
L 212.412724 144.209146 
L 213.063334 143.853769 
L 213.713944 145.915679 
L 214.364555 145.705674 
L 215.015165 147.053913 
L 215.665775 145.32639 
L 216.316385 144.937347 
L 216.966996 146.075169 
L 217.617606 148.198199 
L 218.268216 146.191765 
L 218.918827 140.715993 
L 219.569437 145.415865 
L 220.220047 145.552507 
L 220.870658 144.427582 
L 221.521268 144.823748 
L 223.473099 142.397887 
L 224.123709 144.017687 
L 224.77432 142.698165 
L 226.07554 144.673558 
L 226.72615 129.122176 
L 227.376761 145.467244 
L 228.027371 145.78009 
L 228.677981 142.306965 
L 229.328592 143.933724 
L 229.979202 144.479476 
L 230.629812 144.510827 
L 231.280423 119.064168 
L 231.931033 145.883738 
L 232.581643 145.717634 
L 233.232254 147.373241 
L 233.882864 143.271591 
L 234.533474 145.121358 
L 235.184085 142.311389 
L 235.834695 144.937444 
L 236.485305 142.020905 
L 237.135915 143.568695 
L 237.786526 144.274431 
L 238.437136 144.629906 
L 239.087746 144.268241 
L 239.738357 143.531245 
L 240.388967 141.884006 
L 241.039577 143.221101 
L 241.690188 141.943962 
L 242.340798 134.302261 
L 242.991408 142.154308 
L 243.642019 137.75971 
L 244.292629 144.598213 
L 244.943239 139.538213 
L 245.59385 144.186886 
L 246.24446 142.819787 
L 246.89507 145.226831 
L 247.54568 144.392219 
L 248.196291 141.463255 
L 248.846901 144.216203 
L 249.497511 143.667986 
L 250.148122 144.851494 
L 250.798732 145.504306 
L 251.449342 138.685738 
L 252.099953 141.930022 
L 252.750563 139.826793 
L 253.401173 102.870691 
L 254.051784 140.357624 
L 254.702394 143.625381 
L 255.353004 140.290349 
L 256.003615 144.930484 
L 256.654225 145.917126 
L 257.304835 143.663913 
L 257.955445 145.636892 
L 258.606056 145.050486 
L 259.907276 142.143756 
L 260.557887 142.290486 
L 261.208497 146.025596 
L 261.859107 144.411734 
L 262.509718 144.029151 
L 263.160328 146.908096 
L 263.810938 146.542252 
L 264.461549 146.81908 
L 265.112159 146.637407 
L 265.762769 145.601744 
L 266.413379 146.985277 
L 267.06399 145.25342 
L 267.7146 145.332487 
L 268.36521 146.284636 
L 269.015821 143.896607 
L 269.666431 144.811732 
L 270.317041 145.457786 
L 270.967652 145.13069 
L 271.618262 141.92451 
L 272.268872 145.393881 
L 272.919483 143.850729 
L 273.570093 142.896563 
L 274.220703 143.067069 
L 274.871314 135.874631 
L 275.521924 145.011682 
L 276.172534 144.925574 
L 277.473755 143.034527 
L 278.124365 142.777358 
L 278.774975 146.23245 
L 279.425586 142.539261 
L 280.076196 143.848188 
L 280.726806 142.946656 
L 281.377417 147.136934 
L 282.028027 146.737195 
L 282.678637 145.964708 
L 283.329248 146.906712 
L 283.979858 146.353499 
L 284.630468 143.709497 
L 285.281079 143.698525 
L 285.931689 145.524217 
L 286.582299 142.279463 
L 287.232909 145.526163 
L 287.88352 144.70371 
L 288.53413 142.362445 
L 289.18474 144.013082 
L 289.835351 144.537982 
L 290.485961 142.483082 
L 291.136571 144.891356 
L 291.787182 142.249165 
L 292.437792 146.383965 
L 293.088402 146.575993 
L 293.739013 145.730542 
L 294.389623 143.377097 
L 295.040233 146.005837 
L 295.690844 145.374436 
L 296.341454 144.514421 
L 296.992064 145.720296 
L 297.642674 146.037214 
L 298.293285 146.169044 
L 298.943895 146.518628 
L 299.594505 143.539319 
L 300.245116 147.009417 
L 300.895726 144.41797 
L 301.546336 146.343178 
L 302.196947 144.169489 
L 302.847557 145.163721 
L 303.498167 144.209053 
L 304.148778 143.01737 
L 304.799388 145.762326 
L 305.449998 143.272745 
L 306.100608 142.821044 
L 306.751219 143.654982 
L 307.401829 139.572648 
L 308.052439 143.990605 
L 308.70305 142.066266 
L 310.00427 146.8715 
L 310.654881 143.70066 
L 311.305491 147.327319 
L 311.956101 146.783554 
L 312.606712 144.602773 
L 313.257322 147.116931 
L 313.907932 143.64537 
L 314.558543 148.319153 
L 315.209153 145.322614 
L 315.859763 144.682642 
L 316.510373 146.790781 
L 317.160984 147.018473 
L 317.811594 147.065405 
L 318.462204 145.894357 
L 319.112815 146.643269 
L 319.763425 146.685806 
L 320.414035 144.73956 
L 321.064646 146.958023 
L 321.715256 147.460613 
L 323.016477 146.150245 
L 323.667087 146.950728 
L 324.317697 147.372752 
L 324.968308 144.291947 
L 325.618918 145.325318 
L 326.269528 143.104448 
L 326.920138 146.588941 
L 327.570749 143.942314 
L 328.221359 146.313703 
L 328.871969 143.09116 
L 329.52258 144.675967 
L 330.17319 145.233671 
L 330.8238 147.354302 
L 331.474411 140.320115 
L 332.125021 147.663643 
L 332.775631 147.579191 
L 333.426242 147.916894 
L 334.076852 146.312012 
L 334.727462 148.842275 
L 335.378073 146.286794 
L 336.028683 145.278305 
L 336.679293 143.951169 
L 337.329903 142.358934 
L 337.980514 135.12169 
L 338.631124 141.082771 
L 339.932345 144.883112 
L 340.582955 141.607582 
L 341.233565 146.972943 
L 341.884176 146.319847 
L 342.534786 146.843372 
L 343.185396 144.071509 
L 343.836007 145.913985 
L 344.486617 144.378165 
L 345.137227 145.617226 
L 345.787837 145.282615 
L 346.438448 144.456048 
L 347.089058 146.129956 
L 347.739668 144.571069 
L 348.390279 143.702265 
L 349.040889 144.608932 
L 349.691499 143.964589 
L 350.34211 146.450334 
L 350.99272 127.237488 
L 351.64333 146.748834 
L 352.293941 146.216139 
L 352.944551 140.837257 
L 353.595161 143.006939 
L 354.245772 141.146572 
L 354.896382 145.388398 
L 355.546992 144.40587 
L 356.197602 144.647287 
L 356.848213 142.595233 
L 357.498823 143.272596 
L 358.149433 137.986245 
L 358.800044 146.022056 
L 359.450654 145.589346 
L 360.101264 146.468269 
L 360.751875 146.513044 
L 361.402485 145.792544 
L 362.053095 146.858168 
L 362.703706 145.899528 
L 363.354316 147.363962 
L 364.004926 145.253419 
L 364.655537 145.86134 
L 365.306147 147.535187 
L 365.956757 146.853011 
L 366.607367 137.840475 
L 367.257978 148.247267 
L 367.908588 146.631802 
L 368.559198 147.243687 
L 369.209809 148.092714 
L 369.860419 144.073787 
L 370.511029 145.216063 
L 371.16164 142.790334 
L 371.81225 146.338858 
L 372.46286 143.571281 
L 373.113471 145.923603 
L 374.414691 147.499115 
L 375.065302 143.282317 
L 375.715912 146.96601 
L 376.366522 141.384864 
L 377.017132 145.843211 
L 377.667743 146.626602 
L 378.318353 144.992826 
L 378.968963 144.664004 
L 379.619574 145.393702 
L 380.270184 145.753541 
L 380.920794 147.789001 
L 381.571405 145.642391 
L 382.222015 148.416636 
L 382.872625 147.407299 
L 383.523236 147.21555 
L 384.173846 144.156666 
L 384.824456 146.399619 
L 386.125677 145.930482 
L 386.776287 146.817308 
L 387.426897 146.061325 
L 388.077508 144.786887 
L 388.728118 140.812882 
L 389.378728 142.984051 
L 390.029339 141.031394 
L 390.679949 141.39323 
L 391.330559 134.674042 
L 391.98117 141.473318 
L 392.63178 144.240725 
L 393.28239 143.406304 
L 393.933001 146.380066 
L 394.583611 145.523571 
L 395.234221 141.412309 
L 396.535442 145.769617 
L 397.186052 146.114442 
L 397.836662 146.718968 
L 398.487273 144.867985 
L 398.487273 144.867985 
" clip-path="url(#p274e16d9e1)" style="fill: none; stroke-dasharray: 9.6,2.4,1.5,2.4; stroke-dashoffset: 0; stroke: #008000; stroke-width: 1.5"/>
   </g>
   <g id="line2d_34">
    <path d="M 73.832727 144.762564 
L 74.483338 143.635501 
L 77.085779 143.635501 
L 77.736389 142.42085 
L 78.386999 140.72409 
L 79.68822 140.72409 
L 80.33883 107.8765 
L 80.989441 107.8765 
L 81.640051 102.33066 
L 84.893103 102.33066 
L 85.543713 100.056753 
L 95.302868 100.056753 
L 95.953478 97.733811 
L 101.15836 97.733811 
L 101.808971 94.6348 
L 112.218736 94.6348 
L 112.869346 93.420031 
L 398.487273 93.420031 
L 398.487273 93.420031 
" clip-path="url(#p274e16d9e1)" style="fill: none; stroke: #ff0000; stroke-width: 1.5; stroke-linecap: square"/>
   </g>
   <g id="patch_3">
    <path d="M 57.6 307.584 
L 57.6 41.472 
" style="fill: none; stroke: #000000; stroke-width: 0.8; stroke-linejoin: miter; stroke-linecap: square"/>
   </g>
   <g id="patch_4">
    <path d="M 414.72 307.584 
L 414.72 41.472 
" style="fill: none; stroke: #000000; stroke-width: 0.8; stroke-linejoin: miter; stroke-linecap: square"/>
   </g>
   <g id="patch_5">
    <path d="M 57.6 307.584 
L 414.72 307.584 
" style="fill: none; stroke: #000000; stroke-width: 0.8; stroke-linejoin: miter; stroke-linecap: square"/>
   </g>
   <g id="patch_6">
    <path d="M 57.6 41.472 
L 414.72 41.472 
" style="fill: none; stroke: #000000; stroke-width: 0.8; stroke-linejoin: miter; stroke-linecap: square"/>
   </g>
   <g id="text_19">
    <!-- Population's average and best fitness -->
    <g transform="translate(123.529687 35.472) scale(0.12 -0.12)">
     <defs>
      <path id="DejaVuSans-50" d="M 1259 4147 
L 1259 2394 
L 2053 2394 
Q 2494 2394 2734 2622 
Q 2975 2850 2975 3272 
Q 2975 3691 2734 3919 
Q 2494 4147 2053 4147 
L 1259 4147 
z
M 628 4666 
L 2053 4666 
Q 2838 4666 3239 4311 
Q 3641 3956 3641 3272 
Q 3641 2581 3239 2228 
Q 2838 1875 2053 1875 
L 1259 1875 
L 1259 0 
L 628 0 
L 628 4666 
z
" transform="scale(0.015625)"/>
      <path id="DejaVuSans-70" d="M 1159 525 
L 1159 -1331 
L 581 -1331 
L 581 3500 
L 1159 3500 
L 1159 2969 
Q 1341 3281 1617 3432 
Q 1894 3584 2278 3584 
Q 2916 3584 3314 3078 
Q 3713 2572 3713 1747 
Q 3713 922 3314 415 
Q 2916 -91 2278 -91 
Q 1894 -91 1617 61 
Q 1341 213 1159 525 
z
M 3116 1747 
Q 3116 2381 2855 2742 
Q 2594 3103 2138 3103 
Q 1681 3103 1420 2742 
Q 1159 2381 1159 1747 
Q 1159 1113 1420 752 
Q 1681 391 2138 391 
Q 2594 391 2855 752 
Q 3116 1113 3116 1747 
z
" transform="scale(0.015625)"/>
      <path id="DejaVuSans-75" d="M 544 1381 
L 544 3500 
L 1119 3500 
L 1119 1403 
Q 1119 906 1312 657 
Q 1506 409 1894 409 
Q 2359 409 2629 706 
Q 2900 1003 2900 1516 
L 2900 3500 
L 3475 3500 
L 3475 0 
L 2900 0 
L 2900 538 
Q 2691 219 2414 64 
Q 2138 -91 1772 -91 
Q 1169 -91 856 284 
Q 544 659 544 1381 
z
M 1991 3584 
L 1991 3584 
z
" transform="scale(0.015625)"/>
      <path id="DejaVuSans-6c" d="M 603 4863 
L 1178 4863 
L 1178 0 
L 603 0 
L 603 4863 
z
" transform="scale(0.015625)"/>
      <path id="DejaVuSans-27" d="M 1147 4666 
L 1147 2931 
L 616 2931 
L 616 4666 
L 1147 4666 
z
" transform="scale(0.015625)"/>
      <path id="DejaVuSans-20" transform="scale(0.015625)"/>
      <path id="DejaVuSans-76" d="M 191 3500 
L 800 3500 
L 1894 563 
L 2988 3500 
L 3597 3500 
L 2284 0 
L 1503 0 
L 191 3500 
z
" transform="scale(0.015625)"/>
      <path id="DejaVuSans-67" d="M 2906 1791 
Q 2906 2416 2648 2759 
Q 2391 3103 1925 3103 
Q 1463 3103 1205 2759 
Q 947 2416 947 1791 
Q 947 1169 1205 825 
Q 1463 481 1925 481 
Q 2391 481 2648 825 
Q 2906 1169 2906 1791 
z
M 3481 434 
Q 3481 -459 3084 -895 
Q 2688 -1331 1869 -1331 
Q 1566 -1331 1297 -1286 
Q 1028 -1241 775 -1147 
L 775 -588 
Q 1028 -725 1275 -790 
Q 1522 -856 1778 -856 
Q 2344 -856 2625 -561 
Q 2906 -266 2906 331 
L 2906 616 
Q 2728 306 2450 153 
Q 2172 0 1784 0 
Q 1141 0 747 490 
Q 353 981 353 1791 
Q 353 2603 747 3093 
Q 1141 3584 1784 3584 
Q 2172 3584 2450 3431 
Q 2728 3278 2906 2969 
L 2906 3500 
L 3481 3500 
L 3481 434 
z
" transform="scale(0.015625)"/>
      <path id="DejaVuSans-64" d="M 2906 2969 
L 2906 4863 
L 3481 4863 
L 3481 0 
L 2906 0 
L 2906 525 
Q 2725 213 2448 61 
Q 2172 -91 1784 -91 
Q 1150 -91 751 415 
Q 353 922 353 1747 
Q 353 2572 751 3078 
Q 1150 3584 1784 3584 
Q 2172 3584 2448 3432 
Q 2725 3281 2906 2969 
z
M 947 1747 
Q 947 1113 1208 752 
Q 1469 391 1925 391 
Q 2381 391 2643 752 
Q 2906 1113 2906 1747 
Q 2906 2381 2643 2742 
Q 2381 3103 1925 3103 
Q 1469 3103 1208 2742 
Q 947 2381 947 1747 
z
" transform="scale(0.015625)"/>
      <path id="DejaVuSans-62" d="M 3116 1747 
Q 3116 2381 2855 2742 
Q 2594 3103 2138 3103 
Q 1681 3103 1420 2742 
Q 1159 2381 1159 1747 
Q 1159 1113 1420 752 
Q 1681 391 2138 391 
Q 2594 391 2855 752 
Q 3116 1113 3116 1747 
z
M 1159 2969 
Q 1341 3281 1617 3432 
Q 1894 3584 2278 3584 
Q 2916 3584 3314 3078 
Q 3713 2572 3713 1747 
Q 3713 922 3314 415 
Q 2916 -91 2278 -91 
Q 1894 -91 1617 61 
Q 1341 213 1159 525 
L 1159 0 
L 581 0 
L 581 4863 
L 1159 4863 
L 1159 2969 
z
" transform="scale(0.015625)"/>
      <path id="DejaVuSans-66" d="M 2375 4863 
L 2375 4384 
L 1825 4384 
Q 1516 4384 1395 4259 
Q 1275 4134 1275 3809 
L 1275 3500 
L 2222 3500 
L 2222 3053 
L 1275 3053 
L 1275 0 
L 697 0 
L 697 3053 
L 147 3053 
L 147 3500 
L 697 3500 
L 697 3744 
Q 697 4328 969 4595 
Q 1241 4863 1831 4863 
L 2375 4863 
z
" transform="scale(0.015625)"/>
     </defs>
     <use xlink:href="#DejaVuSans-50"/>
     <use xlink:href="#DejaVuSans-6f" transform="translate(56.677734 0)"/>
     <use xlink:href="#DejaVuSans-70" transform="translate(117.859375 0)"/>
     <use xlink:href="#DejaVuSans-75" transform="translate(181.335938 0)"/>
     <use xlink:href="#DejaVuSans-6c" transform="translate(244.714844 0)"/>
     <use xlink:href="#DejaVuSans-61" transform="translate(272.498047 0)"/>
     <use xlink:href="#DejaVuSans-74" transform="translate(333.777344 0)"/>
     <use xlink:href="#DejaVuSans-69" transform="translate(372.986328 0)"/>
     <use xlink:href="#DejaVuSans-6f" transform="translate(400.769531 0)"/>
     <use xlink:href="#DejaVuSans-6e" transform="translate(461.951172 0)"/>
     <use xlink:href="#DejaVuSans-27" transform="translate(525.330078 0)"/>
     <use xlink:href="#DejaVuSans-73" transform="translate(552.820312 0)"/>
     <use xlink:href="#DejaVuSans-20" transform="translate(604.919922 0)"/>
     <use xlink:href="#DejaVuSans-61" transform="translate(636.707031 0)"/>
     <use xlink:href="#DejaVuSans-76" transform="translate(697.986328 0)"/>
     <use xlink:href="#DejaVuSans-65" transform="translate(757.166016 0)"/>
     <use xlink:href="#DejaVuSans-72" transform="translate(818.689453 0)"/>
     <use xlink:href="#DejaVuSans-61" transform="translate(859.802734 0)"/>
     <use xlink:href="#DejaVuSans-67" transform="translate(921.082031 0)"/>
     <use xlink:href="#DejaVuSans-65" transform="translate(984.558594 0)"/>
     <use xlink:href="#DejaVuSans-20" transform="translate(1046.082031 0)"/>
     <use xlink:href="#DejaVuSans-61" transform="translate(1077.869141 0)"/>
     <use xlink:href="#DejaVuSans-6e" transform="translate(1139.148438 0)"/>
     <use xlink:href="#DejaVuSans-64" transform="translate(1202.527344 0)"/>
     <use xlink:href="#DejaVuSans-20" transform="translate(1266.003906 0)"/>
     <use xlink:href="#DejaVuSans-62" transform="translate(1297.791016 0)"/>
     <use xlink:href="#DejaVuSans-65" transform="translate(1361.267578 0)"/>
     <use xlink:href="#DejaVuSans-73" transform="translate(1422.791016 0)"/>
     <use xlink:href="#DejaVuSans-74" transform="translate(1474.890625 0)"/>
     <use xlink:href="#DejaVuSans-20" transform="translate(1514.099609 0)"/>
     <use xlink:href="#DejaVuSans-66" transform="translate(1545.886719 0)"/>
     <use xlink:href="#DejaVuSans-69" transform="translate(1581.091797 0)"/>
     <use xlink:href="#DejaVuSans-74" transform="translate(1608.875 0)"/>
     <use xlink:href="#DejaVuSans-6e" transform="translate(1648.083984 0)"/>
     <use xlink:href="#DejaVuSans-65" transform="translate(1711.462891 0)"/>
     <use xlink:href="#DejaVuSans-73" transform="translate(1772.986328 0)"/>
     <use xlink:href="#DejaVuSans-73" transform="translate(1825.085938 0)"/>
    </g>
   </g>
   <g id="legend_1">
    <g id="patch_7">
     <path d="M 334.779375 302.584 
L 407.72 302.584 
Q 409.72 302.584 409.72 300.584 
L 409.72 242.8715 
Q 409.72 240.8715 407.72 240.8715 
L 334.779375 240.8715 
Q 332.779375 240.8715 332.779375 242.8715 
L 332.779375 300.584 
Q 332.779375 302.584 334.779375 302.584 
z
" style="fill: #ffffff; opacity: 0.8; stroke: #cccccc; stroke-linejoin: miter"/>
    </g>
    <g id="line2d_35">
     <path d="M 336.779375 248.969937 
L 346.779375 248.969937 
L 356.779375 248.969937 
" style="fill: none; stroke: #0000ff; stroke-width: 1.5; stroke-linecap: square"/>
    </g>
    <g id="text_20">
     <!-- average -->
     <g transform="translate(364.779375 252.469937) scale(0.1 -0.1)">
      <use xlink:href="#DejaVuSans-61"/>
      <use xlink:href="#DejaVuSans-76" transform="translate(61.279297 0)"/>
      <use xlink:href="#DejaVuSans-65" transform="translate(120.458984 0)"/>
      <use xlink:href="#DejaVuSans-72" transform="translate(181.982422 0)"/>
      <use xlink:href="#DejaVuSans-61" transform="translate(223.095703 0)"/>
      <use xlink:href="#DejaVuSans-67" transform="translate(284.375 0)"/>
      <use xlink:href="#DejaVuSans-65" transform="translate(347.851562 0)"/>
     </g>
    </g>
    <g id="line2d_36">
     <path d="M 336.779375 263.648062 
L 346.779375 263.648062 
L 356.779375 263.648062 
" style="fill: none; stroke-dasharray: 9.6,2.4,1.5,2.4; stroke-dashoffset: 0; stroke: #008000; stroke-width: 1.5"/>
    </g>
    <g id="text_21">
     <!-- -1 sd -->
     <g transform="translate(364.779375 267.148062) scale(0.1 -0.1)">
      <defs>
       <path id="DejaVuSans-2d" d="M 313 2009 
L 1997 2009 
L 1997 1497 
L 313 1497 
L 313 2009 
z
" transform="scale(0.015625)"/>
      </defs>
      <use xlink:href="#DejaVuSans-2d"/>
      <use xlink:href="#DejaVuSans-31" transform="translate(36.083984 0)"/>
      <use xlink:href="#DejaVuSans-20" transform="translate(99.707031 0)"/>
      <use xlink:href="#DejaVuSans-73" transform="translate(131.494141 0)"/>
      <use xlink:href="#DejaVuSans-64" transform="translate(183.59375 0)"/>
     </g>
    </g>
    <g id="line2d_37">
     <path d="M 336.779375 278.326187 
L 346.779375 278.326187 
L 356.779375 278.326187 
" style="fill: none; stroke-dasharray: 9.6,2.4,1.5,2.4; stroke-dashoffset: 0; stroke: #008000; stroke-width: 1.5"/>
    </g>
    <g id="text_22">
     <!-- +1 sd -->
     <g transform="translate(364.779375 281.826187) scale(0.1 -0.1)">
      <defs>
       <path id="DejaVuSans-2b" d="M 2944 4013 
L 2944 2272 
L 4684 2272 
L 4684 1741 
L 2944 1741 
L 2944 0 
L 2419 0 
L 2419 1741 
L 678 1741 
L 678 2272 
L 2419 2272 
L 2419 4013 
L 2944 4013 
z
" transform="scale(0.015625)"/>
      </defs>
      <use xlink:href="#DejaVuSans-2b"/>
      <use xlink:href="#DejaVuSans-31" transform="translate(83.789062 0)"/>
      <use xlink:href="#DejaVuSans-20" transform="translate(147.412109 0)"/>
      <use xlink:href="#DejaVuSans-73" transform="translate(179.199219 0)"/>
      <use xlink:href="#DejaVuSans-64" transform="translate(231.298828 0)"/>
     </g>
    </g>
    <g id="line2d_38">
     <path d="M 336.779375 293.004312 
L 346.779375 293.004312 
L 356.779375 293.004312 
" style="fill: none; stroke: #ff0000; stroke-width: 1.5; stroke-linecap: square"/>
    </g>
    <g id="text_23">
     <!-- best -->
     <g transform="translate(364.779375 296.504312) scale(0.1 -0.1)">
      <use xlink:href="#DejaVuSans-62"/>
      <use xlink:href="#DejaVuSans-65" transform="translate(63.476562 0)"/>
      <use xlink:href="#DejaVuSans-73" transform="translate(125 0)"/>
      <use xlink:href="#DejaVuSans-74" transform="translate(177.099609 0)"/>
     </g>
    </g>
   </g>
  </g>
 </g>
 <defs>
  <clipPath id="p274e16d9e1">
   <rect x="57.6" y="41.472" width="357.12" height="266.112"/>
  </clipPath>
 </defs>
</svg>
