<?xml version="1.0" encoding="UTF-8" standalone="no"?>
<!DOCTYPE svg PUBLIC "-//W3C//DTD SVG 1.1//EN"
 "http://www.w3.org/Graphics/SVG/1.1/DTD/svg11.dtd">
<!-- Generated by graphviz version 12.2.1 (20241206.2353)
 -->
<!-- Pages: 1 -->
<svg width="644pt" height="91pt"
 viewBox="0.00 0.00 643.75 91.49" xmlns="http://www.w3.org/2000/svg" xmlns:xlink="http://www.w3.org/1999/xlink">
<g id="graph0" class="graph" transform="scale(1 1) rotate(0) translate(4 87.49)">
<polygon fill="white" stroke="none" points="-4,4 -4,-87.49 639.75,-87.49 639.75,4 -4,4"/>
<!-- &#45;1 -->
<g id="node1" class="node">
<title>&#45;1</title>
<polygon fill="lightgray" stroke="black" points="65.5,-83.49 42,-83.49 42,-64.99 65.5,-64.99 65.5,-83.49"/>
<text text-anchor="middle" x="53.75" y="-70.94" font-family="Times New Roman,serif" font-size="9.00">&#45;1</text>
</g>
<!-- 1 -->
<g id="node17" class="node">
<title>1</title>
<ellipse fill="lightblue" stroke="black" cx="288.75" cy="-14.5" rx="14.5" ry="14.5"/>
<text text-anchor="middle" x="288.75" y="-11.2" font-family="Times New Roman,serif" font-size="9.00">1</text>
</g>
<!-- &#45;1&#45;&gt;1 -->
<g id="edge1" class="edge">
<title>&#45;1&#45;&gt;1</title>
<path fill="none" stroke="red" stroke-width="0.38" d="M65.64,-68.22C68.58,-67.07 71.76,-65.92 74.75,-64.99 142.16,-44.08 223.97,-27.53 264.11,-19.97"/>
<polygon fill="red" stroke="red" stroke-width="0.38" points="264.52,-23.45 273.71,-18.19 263.24,-16.57 264.52,-23.45"/>
</g>
<!-- &#45;2 -->
<g id="node2" class="node">
<title>&#45;2</title>
<polygon fill="lightgray" stroke="black" points="505.5,-83.49 482,-83.49 482,-64.99 505.5,-64.99 505.5,-83.49"/>
<text text-anchor="middle" x="493.75" y="-70.94" font-family="Times New Roman,serif" font-size="9.00">&#45;2</text>
</g>
<!-- 0 -->
<g id="node16" class="node">
<title>0</title>
<ellipse fill="lightblue" stroke="black" cx="357.75" cy="-14.5" rx="14.5" ry="14.5"/>
<text text-anchor="middle" x="357.75" y="-11.2" font-family="Times New Roman,serif" font-size="9.00">0</text>
</g>
<!-- &#45;2&#45;&gt;0 -->
<g id="edge2" class="edge">
<title>&#45;2&#45;&gt;0</title>
<path fill="none" stroke="red" stroke-width="0.28" d="M481.68,-68.12C458.89,-58.44 409.18,-37.33 380.12,-25"/>
<polygon fill="red" stroke="red" stroke-width="0.28" points="381.75,-21.88 371.18,-21.2 379.01,-28.33 381.75,-21.88"/>
</g>
<!-- &#45;2&#45;&gt;1 -->
<g id="edge3" class="edge">
<title>&#45;2&#45;&gt;1</title>
<path fill="none" stroke="green" stroke-width="0.11" stroke-dasharray="1,5" d="M481.85,-68.28C478.9,-67.13 475.73,-65.96 472.75,-64.99 412.48,-45.37 395.83,-45.92 334.75,-28.99 327.34,-26.94 319.28,-24.61 312.01,-22.47"/>
<polygon fill="green" stroke="green" stroke-width="0.11" points="313.14,-19.15 302.56,-19.67 311.15,-25.86 313.14,-19.15"/>
</g>
<!-- &#45;3 -->
<g id="node3" class="node">
<title>&#45;3</title>
<polygon fill="lightgray" stroke="black" points="547.5,-83.49 524,-83.49 524,-64.99 547.5,-64.99 547.5,-83.49"/>
<text text-anchor="middle" x="535.75" y="-70.94" font-family="Times New Roman,serif" font-size="9.00">&#45;3</text>
</g>
<!-- &#45;3&#45;&gt;0 -->
<g id="edge4" class="edge">
<title>&#45;3&#45;&gt;0</title>
<path fill="none" stroke="green" stroke-width="0.22" d="M523.81,-68.39C520.86,-67.23 517.7,-66.04 514.75,-64.99 467.99,-48.46 412.48,-31.6 381.57,-22.45"/>
<polygon fill="green" stroke="green" stroke-width="0.22" points="382.62,-19.11 372.04,-19.64 380.64,-25.82 382.62,-19.11"/>
</g>
<!-- &#45;3&#45;&gt;1 -->
<g id="edge5" class="edge">
<title>&#45;3&#45;&gt;1</title>
<path fill="none" stroke="green" stroke-width="0.24" d="M523.88,-68.16C520.93,-67.01 517.76,-65.88 514.75,-64.99 436.48,-41.99 413.97,-48.49 334.75,-28.99 327.37,-27.17 319.39,-24.93 312.19,-22.81"/>
<polygon fill="green" stroke="green" stroke-width="0.24" points="313.29,-19.48 302.7,-19.93 311.26,-26.18 313.29,-19.48"/>
</g>
<!-- &#45;4 -->
<g id="node4" class="node">
<title>&#45;4</title>
<polygon fill="lightgray" stroke="black" points="589.5,-83.49 566,-83.49 566,-64.99 589.5,-64.99 589.5,-83.49"/>
<text text-anchor="middle" x="577.75" y="-70.94" font-family="Times New Roman,serif" font-size="9.00">&#45;4</text>
</g>
<!-- &#45;4&#45;&gt;0 -->
<g id="edge6" class="edge">
<title>&#45;4&#45;&gt;0</title>
<path fill="none" stroke="green" stroke-width="0.38" d="M565.85,-68.26C562.91,-67.11 559.74,-65.94 556.75,-64.99 494.71,-45.18 419.71,-28.41 381.96,-20.45"/>
<polygon fill="green" stroke="green" stroke-width="0.38" points="382.99,-17.09 372.48,-18.47 381.56,-23.94 382.99,-17.09"/>
</g>
<!-- &#45;4&#45;&gt;1 -->
<g id="edge7" class="edge">
<title>&#45;4&#45;&gt;1</title>
<path fill="none" stroke="red" stroke-width="0.4" d="M565.91,-68.08C562.96,-66.94 559.77,-65.82 556.75,-64.99 460.35,-38.57 432.23,-51.1 334.75,-28.99 327.42,-27.33 319.54,-25.16 312.4,-23.05"/>
<polygon fill="red" stroke="red" stroke-width="0.4" points="313.48,-19.72 302.89,-20.14 311.43,-26.41 313.48,-19.72"/>
</g>
<!-- &#45;5 -->
<g id="node5" class="node">
<title>&#45;5</title>
<polygon fill="lightgray" stroke="black" points="107.5,-83.49 84,-83.49 84,-64.99 107.5,-64.99 107.5,-83.49"/>
<text text-anchor="middle" x="95.75" y="-70.94" font-family="Times New Roman,serif" font-size="9.00">&#45;5</text>
</g>
<!-- &#45;5&#45;&gt;0 -->
<g id="edge8" class="edge">
<title>&#45;5&#45;&gt;0</title>
<path fill="none" stroke="green" stroke-width="0.14" d="M107.61,-68.13C110.56,-66.98 113.74,-65.85 116.75,-64.99 201.49,-40.77 226.02,-49.42 311.75,-28.99 319.23,-27.21 327.31,-24.95 334.58,-22.8"/>
<polygon fill="green" stroke="green" stroke-width="0.14" points="335.41,-26.2 343.96,-19.94 333.37,-19.51 335.41,-26.2"/>
</g>
<!-- &#45;5&#45;&gt;1 -->
<g id="edge9" class="edge">
<title>&#45;5&#45;&gt;1</title>
<path fill="none" stroke="green" stroke-width="0.14" d="M107.67,-68.33C110.62,-67.18 113.78,-66 116.75,-64.99 169.05,-47.24 231.65,-30.27 265.03,-21.56"/>
<polygon fill="green" stroke="green" stroke-width="0.14" points="265.79,-24.98 274.59,-19.09 264.03,-18.21 265.79,-24.98"/>
</g>
<!-- &#45;6 -->
<g id="node6" class="node">
<title>&#45;6</title>
<polygon fill="lightgray" stroke="black" points="149.5,-83.49 126,-83.49 126,-64.99 149.5,-64.99 149.5,-83.49"/>
<text text-anchor="middle" x="137.75" y="-70.94" font-family="Times New Roman,serif" font-size="9.00">&#45;6</text>
</g>
<!-- &#45;6&#45;&gt;0 -->
<g id="edge10" class="edge">
<title>&#45;6&#45;&gt;0</title>
<path fill="none" stroke="green" stroke-width="0.75" d="M149.64,-68.23C152.59,-67.08 155.76,-65.93 158.75,-64.99 225.43,-44.17 244.21,-46.83 311.75,-28.99 318.85,-27.12 326.51,-24.93 333.51,-22.87"/>
<polygon fill="green" stroke="green" stroke-width="0.75" points="334.45,-26.25 343.03,-20.03 332.44,-19.54 334.45,-26.25"/>
</g>
<!-- &#45;6&#45;&gt;1 -->
<g id="edge11" class="edge">
<title>&#45;6&#45;&gt;1</title>
<path fill="none" stroke="red" stroke-width="0.16" d="M149.74,-68.51C152.68,-67.35 155.83,-66.12 158.75,-64.99 196.33,-50.46 240.15,-33.84 266.11,-24.03"/>
<polygon fill="red" stroke="red" stroke-width="0.16" points="267.1,-27.4 275.22,-20.59 264.63,-20.85 267.1,-27.4"/>
</g>
<!-- &#45;7 -->
<g id="node7" class="node">
<title>&#45;7</title>
<polygon fill="lightgray" stroke="black" points="191.5,-83.49 168,-83.49 168,-64.99 191.5,-64.99 191.5,-83.49"/>
<text text-anchor="middle" x="179.75" y="-70.94" font-family="Times New Roman,serif" font-size="9.00">&#45;7</text>
</g>
<!-- &#45;7&#45;&gt;0 -->
<g id="edge12" class="edge">
<title>&#45;7&#45;&gt;0</title>
<path fill="none" stroke="green" stroke-width="0.45" d="M191.69,-68.39C194.64,-67.23 197.8,-66.04 200.75,-64.99 247.51,-48.46 303.02,-31.6 333.93,-22.45"/>
<polygon fill="green" stroke="green" stroke-width="0.45" points="334.53,-25.92 343.13,-19.74 332.55,-19.21 334.53,-25.92"/>
</g>
<!-- &#45;7&#45;&gt;1 -->
<g id="edge13" class="edge">
<title>&#45;7&#45;&gt;1</title>
<path fill="none" stroke="red" stroke-width="0.31" d="M191.83,-66.84C209.89,-57.27 244.21,-39.09 266.78,-27.13"/>
<polygon fill="red" stroke="red" stroke-width="0.31" points="268.33,-30.27 275.53,-22.5 265.06,-24.09 268.33,-30.27"/>
</g>
<!-- &#45;8 -->
<g id="node8" class="node">
<title>&#45;8</title>
<polygon fill="lightgray" stroke="black" points="23.5,-83.49 0,-83.49 0,-64.99 23.5,-64.99 23.5,-83.49"/>
<text text-anchor="middle" x="11.75" y="-70.94" font-family="Times New Roman,serif" font-size="9.00">&#45;8</text>
</g>
<!-- &#45;8&#45;&gt;1 -->
<g id="edge14" class="edge">
<title>&#45;8&#45;&gt;1</title>
<path fill="none" stroke="green" stroke-width="0.11" d="M23.61,-68.14C26.56,-67 29.74,-65.87 32.75,-64.99 116.06,-40.8 218.1,-25.09 264.14,-18.72"/>
<polygon fill="green" stroke="green" stroke-width="0.11" points="264.49,-22.2 273.93,-17.39 263.55,-15.27 264.49,-22.2"/>
</g>
<!-- &#45;9 -->
<g id="node9" class="node">
<title>&#45;9</title>
<polygon fill="lightgray" stroke="black" points="233.5,-83.49 210,-83.49 210,-64.99 233.5,-64.99 233.5,-83.49"/>
<text text-anchor="middle" x="221.75" y="-70.94" font-family="Times New Roman,serif" font-size="9.00">&#45;9</text>
</g>
<!-- &#45;9&#45;&gt;0 -->
<g id="edge15" class="edge">
<title>&#45;9&#45;&gt;0</title>
<path fill="none" stroke="red" stroke-width="0.12" d="M233.82,-68.12C256.61,-58.44 306.32,-37.33 335.38,-25"/>
<polygon fill="red" stroke="red" stroke-width="0.12" points="336.72,-28.23 344.55,-21.1 333.98,-21.79 336.72,-28.23"/>
</g>
<!-- &#45;9&#45;&gt;1 -->
<g id="edge16" class="edge">
<title>&#45;9&#45;&gt;1</title>
<path fill="none" stroke="green" stroke-width="0.22" d="M231.64,-64.72C241.79,-55.97 257.83,-42.15 270.33,-31.37"/>
<polygon fill="green" stroke="green" stroke-width="0.22" points="272.4,-34.21 277.69,-25.03 267.83,-28.91 272.4,-34.21"/>
</g>
<!-- &#45;10 -->
<g id="node10" class="node">
<title>&#45;10</title>
<polygon fill="lightgray" stroke="black" points="279.75,-83.49 251.75,-83.49 251.75,-64.99 279.75,-64.99 279.75,-83.49"/>
<text text-anchor="middle" x="265.75" y="-70.94" font-family="Times New Roman,serif" font-size="9.00">&#45;10</text>
</g>
<!-- &#45;10&#45;&gt;0 -->
<g id="edge17" class="edge">
<title>&#45;10&#45;&gt;0</title>
<path fill="none" stroke="green" stroke-width="0.11" d="M279.32,-64.72C294.56,-55.16 319.46,-39.53 337.11,-28.45"/>
<polygon fill="green" stroke="green" stroke-width="0.11" points="338.84,-31.49 345.45,-23.21 335.12,-25.57 338.84,-31.49"/>
</g>
<!-- &#45;10&#45;&gt;1 -->
<g id="edge18" class="edge">
<title>&#45;10&#45;&gt;1</title>
<path fill="none" stroke="green" stroke-width="0.57" stroke-dasharray="1,5" d="M269.14,-64.72C271.9,-57.79 275.93,-47.68 279.62,-38.42"/>
<polygon fill="green" stroke="green" stroke-width="0.57" points="282.78,-39.94 283.23,-29.35 276.28,-37.35 282.78,-39.94"/>
</g>
<!-- &#45;11 -->
<g id="node11" class="node">
<title>&#45;11</title>
<polygon fill="lightgray" stroke="black" points="635.75,-83.49 607.75,-83.49 607.75,-64.99 635.75,-64.99 635.75,-83.49"/>
<text text-anchor="middle" x="621.75" y="-70.94" font-family="Times New Roman,serif" font-size="9.00">&#45;11</text>
</g>
<!-- &#45;11&#45;&gt;0 -->
<g id="edge19" class="edge">
<title>&#45;11&#45;&gt;0</title>
<path fill="none" stroke="green" stroke-width="0.1" d="M607.25,-67.69C604.45,-66.72 601.53,-65.77 598.75,-64.99 520.67,-43.09 425.86,-26.45 382.07,-19.32"/>
<polygon fill="green" stroke="green" stroke-width="0.1" points="382.9,-15.9 372.47,-17.77 381.79,-22.81 382.9,-15.9"/>
</g>
<!-- &#45;12 -->
<g id="node12" class="node">
<title>&#45;12</title>
<polygon fill="lightgray" stroke="black" points="325.75,-83.49 297.75,-83.49 297.75,-64.99 325.75,-64.99 325.75,-83.49"/>
<text text-anchor="middle" x="311.75" y="-70.94" font-family="Times New Roman,serif" font-size="9.00">&#45;12</text>
</g>
<!-- &#45;12&#45;&gt;0 -->
<g id="edge20" class="edge">
<title>&#45;12&#45;&gt;0</title>
<path fill="none" stroke="red" stroke-width="0.59" stroke-dasharray="1,5" d="M318.54,-64.72C324.8,-56.86 334.33,-44.9 342.42,-34.74"/>
<polygon fill="red" stroke="red" stroke-width="0.59" points="345,-37.12 348.49,-27.12 339.52,-32.76 345,-37.12"/>
</g>
<!-- &#45;12&#45;&gt;1 -->
<g id="edge21" class="edge">
<title>&#45;12&#45;&gt;1</title>
<path fill="none" stroke="green" stroke-width="0.39" d="M308.36,-64.72C305.57,-57.72 301.48,-47.46 297.76,-38.12"/>
<polygon fill="green" stroke="green" stroke-width="0.39" points="301.12,-37.09 294.16,-29.09 294.61,-39.68 301.12,-37.09"/>
</g>
<!-- &#45;13 -->
<g id="node13" class="node">
<title>&#45;13</title>
<polygon fill="lightgray" stroke="black" points="371.75,-83.49 343.75,-83.49 343.75,-64.99 371.75,-64.99 371.75,-83.49"/>
<text text-anchor="middle" x="357.75" y="-70.94" font-family="Times New Roman,serif" font-size="9.00">&#45;13</text>
</g>
<!-- &#45;13&#45;&gt;0 -->
<g id="edge22" class="edge">
<title>&#45;13&#45;&gt;0</title>
<path fill="none" stroke="red" stroke-width="0.23" stroke-dasharray="1,5" d="M357.75,-64.72C357.75,-58.12 357.75,-48.63 357.75,-39.74"/>
<polygon fill="red" stroke="red" stroke-width="0.23" points="361.25,-39.78 357.75,-29.78 354.25,-39.78 361.25,-39.78"/>
</g>
<!-- &#45;13&#45;&gt;1 -->
<g id="edge23" class="edge">
<title>&#45;13&#45;&gt;1</title>
<path fill="none" stroke="green" stroke-width="0.14" d="M347.57,-64.72C336.89,-55.78 319.89,-41.55 306.9,-30.69"/>
<polygon fill="green" stroke="green" stroke-width="0.14" points="309.51,-28.31 299.59,-24.57 305.02,-33.67 309.51,-28.31"/>
</g>
<!-- &#45;14 -->
<g id="node14" class="node">
<title>&#45;14</title>
<polygon fill="lightgray" stroke="black" points="417.75,-83.49 389.75,-83.49 389.75,-64.99 417.75,-64.99 417.75,-83.49"/>
<text text-anchor="middle" x="403.75" y="-70.94" font-family="Times New Roman,serif" font-size="9.00">&#45;14</text>
</g>
<!-- &#45;14&#45;&gt;0 -->
<g id="edge24" class="edge">
<title>&#45;14&#45;&gt;0</title>
<path fill="none" stroke="green" stroke-width="0.29" d="M396.96,-64.72C390.64,-56.78 380.98,-44.66 372.83,-34.43"/>
<polygon fill="green" stroke="green" stroke-width="0.29" points="375.69,-32.4 366.72,-26.76 370.22,-36.76 375.69,-32.4"/>
</g>
<!-- &#45;14&#45;&gt;1 -->
<g id="edge25" class="edge">
<title>&#45;14&#45;&gt;1</title>
<path fill="none" stroke="red" stroke-width="0.33" stroke-dasharray="1,5" d="M389.65,-66.16C369.92,-56.25 333.88,-38.16 310.64,-26.49"/>
<polygon fill="red" stroke="red" stroke-width="0.33" points="312.51,-23.51 302,-22.15 309.37,-29.76 312.51,-23.51"/>
</g>
<!-- &#45;15 -->
<g id="node15" class="node">
<title>&#45;15</title>
<polygon fill="lightgray" stroke="black" points="463.75,-83.49 435.75,-83.49 435.75,-64.99 463.75,-64.99 463.75,-83.49"/>
<text text-anchor="middle" x="449.75" y="-70.94" font-family="Times New Roman,serif" font-size="9.00">&#45;15</text>
</g>
<!-- &#45;15&#45;&gt;0 -->
<g id="edge26" class="edge">
<title>&#45;15&#45;&gt;0</title>
<path fill="none" stroke="red" stroke-width="0.19" d="M436.18,-64.72C420.94,-55.16 396.04,-39.53 378.39,-28.45"/>
<polygon fill="red" stroke="red" stroke-width="0.19" points="380.49,-25.63 370.16,-23.28 376.77,-31.56 380.49,-25.63"/>
</g>
<!-- &#45;15&#45;&gt;1 -->
<g id="edge27" class="edge">
<title>&#45;15&#45;&gt;1</title>
<path fill="none" stroke="red" stroke-width="0.26" stroke-dasharray="1,5" d="M435.46,-68.12C407.56,-58.11 345.63,-35.9 311.84,-23.78"/>
<polygon fill="red" stroke="red" stroke-width="0.26" points="313.29,-20.58 302.69,-20.5 310.92,-27.17 313.29,-20.58"/>
</g>
</g>
</svg>
