<?xml version="1.0" encoding="utf-8" standalone="no"?>
<!DOCTYPE svg PUBLIC "-//W3C//DTD SVG 1.1//EN"
  "http://www.w3.org/Graphics/SVG/1.1/DTD/svg11.dtd">
<svg xmlns:xlink="http://www.w3.org/1999/xlink" width="460.8pt" height="345.6pt" viewBox="0 0 460.8 345.6" xmlns="http://www.w3.org/2000/svg" version="1.1">
 <metadata>
  <rdf:RDF xmlns:dc="http://purl.org/dc/elements/1.1/" xmlns:cc="http://creativecommons.org/ns#" xmlns:rdf="http://www.w3.org/1999/02/22-rdf-syntax-ns#">
   <cc:Work>
    <dc:type rdf:resource="http://purl.org/dc/dcmitype/StillImage"/>
    <dc:date>2025-07-09T16:45:58.643253</dc:date>
    <dc:format>image/svg+xml</dc:format>
    <dc:creator>
     <cc:Agent>
      <dc:title>Matplotlib v3.10.0, https://matplotlib.org/</dc:title>
     </cc:Agent>
    </dc:creator>
   </cc:Work>
  </rdf:RDF>
 </metadata>
 <defs>
  <style type="text/css">*{stroke-linejoin: round; stroke-linecap: butt}</style>
 </defs>
 <g id="figure_1">
  <g id="patch_1">
   <path d="M 0 345.6 
L 460.8 345.6 
L 460.8 0 
L 0 0 
z
" style="fill: #ffffff"/>
  </g>
  <g id="axes_1">
   <g id="patch_2">
    <path d="M 57.6 307.584 
L 414.72 307.584 
L 414.72 41.472 
L 57.6 41.472 
z
" style="fill: #ffffff"/>
   </g>
   <g id="matplotlib.axis_1">
    <g id="xtick_1">
     <g id="line2d_1">
      <path d="M 73.832727 307.584 
L 73.832727 41.472 
" clip-path="url(#p09feb41557)" style="fill: none; stroke: #b0b0b0; stroke-width: 0.8; stroke-linecap: square"/>
     </g>
     <g id="line2d_2">
      <defs>
       <path id="m691dfde99a" d="M 0 0 
L 0 3.5 
" style="stroke: #000000; stroke-width: 0.8"/>
      </defs>
      <g>
       <use xlink:href="#m691dfde99a" x="73.832727" y="307.584" style="stroke: #000000; stroke-width: 0.8"/>
      </g>
     </g>
     <g id="text_1">
      <!-- 0 -->
      <g transform="translate(70.651477 322.182437) scale(0.1 -0.1)">
       <defs>
        <path id="DejaVuSans-30" d="M 2034 4250 
Q 1547 4250 1301 3770 
Q 1056 3291 1056 2328 
Q 1056 1369 1301 889 
Q 1547 409 2034 409 
Q 2525 409 2770 889 
Q 3016 1369 3016 2328 
Q 3016 3291 2770 3770 
Q 2525 4250 2034 4250 
z
M 2034 4750 
Q 2819 4750 3233 4129 
Q 3647 3509 3647 2328 
Q 3647 1150 3233 529 
Q 2819 -91 2034 -91 
Q 1250 -91 836 529 
Q 422 1150 422 2328 
Q 422 3509 836 4129 
Q 1250 4750 2034 4750 
z
" transform="scale(0.015625)"/>
       </defs>
       <use xlink:href="#DejaVuSans-30"/>
      </g>
     </g>
    </g>
    <g id="xtick_2">
     <g id="line2d_3">
      <path d="M 138.893758 307.584 
L 138.893758 41.472 
" clip-path="url(#p09feb41557)" style="fill: none; stroke: #b0b0b0; stroke-width: 0.8; stroke-linecap: square"/>
     </g>
     <g id="line2d_4">
      <g>
       <use xlink:href="#m691dfde99a" x="138.893758" y="307.584" style="stroke: #000000; stroke-width: 0.8"/>
      </g>
     </g>
     <g id="text_2">
      <!-- 100 -->
      <g transform="translate(129.350008 322.182437) scale(0.1 -0.1)">
       <defs>
        <path id="DejaVuSans-31" d="M 794 531 
L 1825 531 
L 1825 4091 
L 703 3866 
L 703 4441 
L 1819 4666 
L 2450 4666 
L 2450 531 
L 3481 531 
L 3481 0 
L 794 0 
L 794 531 
z
" transform="scale(0.015625)"/>
       </defs>
       <use xlink:href="#DejaVuSans-31"/>
       <use xlink:href="#DejaVuSans-30" transform="translate(63.623047 0)"/>
       <use xlink:href="#DejaVuSans-30" transform="translate(127.246094 0)"/>
      </g>
     </g>
    </g>
    <g id="xtick_3">
     <g id="line2d_5">
      <path d="M 203.95479 307.584 
L 203.95479 41.472 
" clip-path="url(#p09feb41557)" style="fill: none; stroke: #b0b0b0; stroke-width: 0.8; stroke-linecap: square"/>
     </g>
     <g id="line2d_6">
      <g>
       <use xlink:href="#m691dfde99a" x="203.95479" y="307.584" style="stroke: #000000; stroke-width: 0.8"/>
      </g>
     </g>
     <g id="text_3">
      <!-- 200 -->
      <g transform="translate(194.41104 322.182437) scale(0.1 -0.1)">
       <defs>
        <path id="DejaVuSans-32" d="M 1228 531 
L 3431 531 
L 3431 0 
L 469 0 
L 469 531 
Q 828 903 1448 1529 
Q 2069 2156 2228 2338 
Q 2531 2678 2651 2914 
Q 2772 3150 2772 3378 
Q 2772 3750 2511 3984 
Q 2250 4219 1831 4219 
Q 1534 4219 1204 4116 
Q 875 4013 500 3803 
L 500 4441 
Q 881 4594 1212 4672 
Q 1544 4750 1819 4750 
Q 2544 4750 2975 4387 
Q 3406 4025 3406 3419 
Q 3406 3131 3298 2873 
Q 3191 2616 2906 2266 
Q 2828 2175 2409 1742 
Q 1991 1309 1228 531 
z
" transform="scale(0.015625)"/>
       </defs>
       <use xlink:href="#DejaVuSans-32"/>
       <use xlink:href="#DejaVuSans-30" transform="translate(63.623047 0)"/>
       <use xlink:href="#DejaVuSans-30" transform="translate(127.246094 0)"/>
      </g>
     </g>
    </g>
    <g id="xtick_4">
     <g id="line2d_7">
      <path d="M 269.015821 307.584 
L 269.015821 41.472 
" clip-path="url(#p09feb41557)" style="fill: none; stroke: #b0b0b0; stroke-width: 0.8; stroke-linecap: square"/>
     </g>
     <g id="line2d_8">
      <g>
       <use xlink:href="#m691dfde99a" x="269.015821" y="307.584" style="stroke: #000000; stroke-width: 0.8"/>
      </g>
     </g>
     <g id="text_4">
      <!-- 300 -->
      <g transform="translate(259.472071 322.182437) scale(0.1 -0.1)">
       <defs>
        <path id="DejaVuSans-33" d="M 2597 2516 
Q 3050 2419 3304 2112 
Q 3559 1806 3559 1356 
Q 3559 666 3084 287 
Q 2609 -91 1734 -91 
Q 1441 -91 1130 -33 
Q 819 25 488 141 
L 488 750 
Q 750 597 1062 519 
Q 1375 441 1716 441 
Q 2309 441 2620 675 
Q 2931 909 2931 1356 
Q 2931 1769 2642 2001 
Q 2353 2234 1838 2234 
L 1294 2234 
L 1294 2753 
L 1863 2753 
Q 2328 2753 2575 2939 
Q 2822 3125 2822 3475 
Q 2822 3834 2567 4026 
Q 2313 4219 1838 4219 
Q 1578 4219 1281 4162 
Q 984 4106 628 3988 
L 628 4550 
Q 988 4650 1302 4700 
Q 1616 4750 1894 4750 
Q 2613 4750 3031 4423 
Q 3450 4097 3450 3541 
Q 3450 3153 3228 2886 
Q 3006 2619 2597 2516 
z
" transform="scale(0.015625)"/>
       </defs>
       <use xlink:href="#DejaVuSans-33"/>
       <use xlink:href="#DejaVuSans-30" transform="translate(63.623047 0)"/>
       <use xlink:href="#DejaVuSans-30" transform="translate(127.246094 0)"/>
      </g>
     </g>
    </g>
    <g id="xtick_5">
     <g id="line2d_9">
      <path d="M 334.076852 307.584 
L 334.076852 41.472 
" clip-path="url(#p09feb41557)" style="fill: none; stroke: #b0b0b0; stroke-width: 0.8; stroke-linecap: square"/>
     </g>
     <g id="line2d_10">
      <g>
       <use xlink:href="#m691dfde99a" x="334.076852" y="307.584" style="stroke: #000000; stroke-width: 0.8"/>
      </g>
     </g>
     <g id="text_5">
      <!-- 400 -->
      <g transform="translate(324.533102 322.182437) scale(0.1 -0.1)">
       <defs>
        <path id="DejaVuSans-34" d="M 2419 4116 
L 825 1625 
L 2419 1625 
L 2419 4116 
z
M 2253 4666 
L 3047 4666 
L 3047 1625 
L 3713 1625 
L 3713 1100 
L 3047 1100 
L 3047 0 
L 2419 0 
L 2419 1100 
L 313 1100 
L 313 1709 
L 2253 4666 
z
" transform="scale(0.015625)"/>
       </defs>
       <use xlink:href="#DejaVuSans-34"/>
       <use xlink:href="#DejaVuSans-30" transform="translate(63.623047 0)"/>
       <use xlink:href="#DejaVuSans-30" transform="translate(127.246094 0)"/>
      </g>
     </g>
    </g>
    <g id="xtick_6">
     <g id="line2d_11">
      <path d="M 399.137883 307.584 
L 399.137883 41.472 
" clip-path="url(#p09feb41557)" style="fill: none; stroke: #b0b0b0; stroke-width: 0.8; stroke-linecap: square"/>
     </g>
     <g id="line2d_12">
      <g>
       <use xlink:href="#m691dfde99a" x="399.137883" y="307.584" style="stroke: #000000; stroke-width: 0.8"/>
      </g>
     </g>
     <g id="text_6">
      <!-- 500 -->
      <g transform="translate(389.594133 322.182437) scale(0.1 -0.1)">
       <defs>
        <path id="DejaVuSans-35" d="M 691 4666 
L 3169 4666 
L 3169 4134 
L 1269 4134 
L 1269 2991 
Q 1406 3038 1543 3061 
Q 1681 3084 1819 3084 
Q 2600 3084 3056 2656 
Q 3513 2228 3513 1497 
Q 3513 744 3044 326 
Q 2575 -91 1722 -91 
Q 1428 -91 1123 -41 
Q 819 9 494 109 
L 494 744 
Q 775 591 1075 516 
Q 1375 441 1709 441 
Q 2250 441 2565 725 
Q 2881 1009 2881 1497 
Q 2881 1984 2565 2268 
Q 2250 2553 1709 2553 
Q 1456 2553 1204 2497 
Q 953 2441 691 2322 
L 691 4666 
z
" transform="scale(0.015625)"/>
       </defs>
       <use xlink:href="#DejaVuSans-35"/>
       <use xlink:href="#DejaVuSans-30" transform="translate(63.623047 0)"/>
       <use xlink:href="#DejaVuSans-30" transform="translate(127.246094 0)"/>
      </g>
     </g>
    </g>
    <g id="text_7">
     <!-- Generations -->
     <g transform="translate(205.662344 335.860562) scale(0.1 -0.1)">
      <defs>
       <path id="DejaVuSans-47" d="M 3809 666 
L 3809 1919 
L 2778 1919 
L 2778 2438 
L 4434 2438 
L 4434 434 
Q 4069 175 3628 42 
Q 3188 -91 2688 -91 
Q 1594 -91 976 548 
Q 359 1188 359 2328 
Q 359 3472 976 4111 
Q 1594 4750 2688 4750 
Q 3144 4750 3555 4637 
Q 3966 4525 4313 4306 
L 4313 3634 
Q 3963 3931 3569 4081 
Q 3175 4231 2741 4231 
Q 1884 4231 1454 3753 
Q 1025 3275 1025 2328 
Q 1025 1384 1454 906 
Q 1884 428 2741 428 
Q 3075 428 3337 486 
Q 3600 544 3809 666 
z
" transform="scale(0.015625)"/>
       <path id="DejaVuSans-65" d="M 3597 1894 
L 3597 1613 
L 953 1613 
Q 991 1019 1311 708 
Q 1631 397 2203 397 
Q 2534 397 2845 478 
Q 3156 559 3463 722 
L 3463 178 
Q 3153 47 2828 -22 
Q 2503 -91 2169 -91 
Q 1331 -91 842 396 
Q 353 884 353 1716 
Q 353 2575 817 3079 
Q 1281 3584 2069 3584 
Q 2775 3584 3186 3129 
Q 3597 2675 3597 1894 
z
M 3022 2063 
Q 3016 2534 2758 2815 
Q 2500 3097 2075 3097 
Q 1594 3097 1305 2825 
Q 1016 2553 972 2059 
L 3022 2063 
z
" transform="scale(0.015625)"/>
       <path id="DejaVuSans-6e" d="M 3513 2113 
L 3513 0 
L 2938 0 
L 2938 2094 
Q 2938 2591 2744 2837 
Q 2550 3084 2163 3084 
Q 1697 3084 1428 2787 
Q 1159 2491 1159 1978 
L 1159 0 
L 581 0 
L 581 3500 
L 1159 3500 
L 1159 2956 
Q 1366 3272 1645 3428 
Q 1925 3584 2291 3584 
Q 2894 3584 3203 3211 
Q 3513 2838 3513 2113 
z
" transform="scale(0.015625)"/>
       <path id="DejaVuSans-72" d="M 2631 2963 
Q 2534 3019 2420 3045 
Q 2306 3072 2169 3072 
Q 1681 3072 1420 2755 
Q 1159 2438 1159 1844 
L 1159 0 
L 581 0 
L 581 3500 
L 1159 3500 
L 1159 2956 
Q 1341 3275 1631 3429 
Q 1922 3584 2338 3584 
Q 2397 3584 2469 3576 
Q 2541 3569 2628 3553 
L 2631 2963 
z
" transform="scale(0.015625)"/>
       <path id="DejaVuSans-61" d="M 2194 1759 
Q 1497 1759 1228 1600 
Q 959 1441 959 1056 
Q 959 750 1161 570 
Q 1363 391 1709 391 
Q 2188 391 2477 730 
Q 2766 1069 2766 1631 
L 2766 1759 
L 2194 1759 
z
M 3341 1997 
L 3341 0 
L 2766 0 
L 2766 531 
Q 2569 213 2275 61 
Q 1981 -91 1556 -91 
Q 1019 -91 701 211 
Q 384 513 384 1019 
Q 384 1609 779 1909 
Q 1175 2209 1959 2209 
L 2766 2209 
L 2766 2266 
Q 2766 2663 2505 2880 
Q 2244 3097 1772 3097 
Q 1472 3097 1187 3025 
Q 903 2953 641 2809 
L 641 3341 
Q 956 3463 1253 3523 
Q 1550 3584 1831 3584 
Q 2591 3584 2966 3190 
Q 3341 2797 3341 1997 
z
" transform="scale(0.015625)"/>
       <path id="DejaVuSans-74" d="M 1172 4494 
L 1172 3500 
L 2356 3500 
L 2356 3053 
L 1172 3053 
L 1172 1153 
Q 1172 725 1289 603 
Q 1406 481 1766 481 
L 2356 481 
L 2356 0 
L 1766 0 
Q 1100 0 847 248 
Q 594 497 594 1153 
L 594 3053 
L 172 3053 
L 172 3500 
L 594 3500 
L 594 4494 
L 1172 4494 
z
" transform="scale(0.015625)"/>
       <path id="DejaVuSans-69" d="M 603 3500 
L 1178 3500 
L 1178 0 
L 603 0 
L 603 3500 
z
M 603 4863 
L 1178 4863 
L 1178 4134 
L 603 4134 
L 603 4863 
z
" transform="scale(0.015625)"/>
       <path id="DejaVuSans-6f" d="M 1959 3097 
Q 1497 3097 1228 2736 
Q 959 2375 959 1747 
Q 959 1119 1226 758 
Q 1494 397 1959 397 
Q 2419 397 2687 759 
Q 2956 1122 2956 1747 
Q 2956 2369 2687 2733 
Q 2419 3097 1959 3097 
z
M 1959 3584 
Q 2709 3584 3137 3096 
Q 3566 2609 3566 1747 
Q 3566 888 3137 398 
Q 2709 -91 1959 -91 
Q 1206 -91 779 398 
Q 353 888 353 1747 
Q 353 2609 779 3096 
Q 1206 3584 1959 3584 
z
" transform="scale(0.015625)"/>
       <path id="DejaVuSans-73" d="M 2834 3397 
L 2834 2853 
Q 2591 2978 2328 3040 
Q 2066 3103 1784 3103 
Q 1356 3103 1142 2972 
Q 928 2841 928 2578 
Q 928 2378 1081 2264 
Q 1234 2150 1697 2047 
L 1894 2003 
Q 2506 1872 2764 1633 
Q 3022 1394 3022 966 
Q 3022 478 2636 193 
Q 2250 -91 1575 -91 
Q 1294 -91 989 -36 
Q 684 19 347 128 
L 347 722 
Q 666 556 975 473 
Q 1284 391 1588 391 
Q 1994 391 2212 530 
Q 2431 669 2431 922 
Q 2431 1156 2273 1281 
Q 2116 1406 1581 1522 
L 1381 1569 
Q 847 1681 609 1914 
Q 372 2147 372 2553 
Q 372 3047 722 3315 
Q 1072 3584 1716 3584 
Q 2034 3584 2315 3537 
Q 2597 3491 2834 3397 
z
" transform="scale(0.015625)"/>
      </defs>
      <use xlink:href="#DejaVuSans-47"/>
      <use xlink:href="#DejaVuSans-65" transform="translate(77.490234 0)"/>
      <use xlink:href="#DejaVuSans-6e" transform="translate(139.013672 0)"/>
      <use xlink:href="#DejaVuSans-65" transform="translate(202.392578 0)"/>
      <use xlink:href="#DejaVuSans-72" transform="translate(263.916016 0)"/>
      <use xlink:href="#DejaVuSans-61" transform="translate(305.029297 0)"/>
      <use xlink:href="#DejaVuSans-74" transform="translate(366.308594 0)"/>
      <use xlink:href="#DejaVuSans-69" transform="translate(405.517578 0)"/>
      <use xlink:href="#DejaVuSans-6f" transform="translate(433.300781 0)"/>
      <use xlink:href="#DejaVuSans-6e" transform="translate(494.482422 0)"/>
      <use xlink:href="#DejaVuSans-73" transform="translate(557.861328 0)"/>
     </g>
    </g>
   </g>
   <g id="matplotlib.axis_2">
    <g id="ytick_1">
     <g id="line2d_13">
      <path d="M 57.6 295.18082 
L 414.72 295.18082 
" clip-path="url(#p09feb41557)" style="fill: none; stroke: #b0b0b0; stroke-width: 0.8; stroke-linecap: square"/>
     </g>
     <g id="line2d_14">
      <defs>
       <path id="m3794677607" d="M 0 0 
L -3.5 0 
" style="stroke: #000000; stroke-width: 0.8"/>
      </defs>
      <g>
       <use xlink:href="#m3794677607" x="57.6" y="295.18082" style="stroke: #000000; stroke-width: 0.8"/>
      </g>
     </g>
     <g id="text_8">
      <!-- −200000 -->
      <g transform="translate(4.045313 298.980039) scale(0.1 -0.1)">
       <defs>
        <path id="DejaVuSans-2212" d="M 678 2272 
L 4684 2272 
L 4684 1741 
L 678 1741 
L 678 2272 
z
" transform="scale(0.015625)"/>
       </defs>
       <use xlink:href="#DejaVuSans-2212"/>
       <use xlink:href="#DejaVuSans-32" transform="translate(83.789062 0)"/>
       <use xlink:href="#DejaVuSans-30" transform="translate(147.412109 0)"/>
       <use xlink:href="#DejaVuSans-30" transform="translate(211.035156 0)"/>
       <use xlink:href="#DejaVuSans-30" transform="translate(274.658203 0)"/>
       <use xlink:href="#DejaVuSans-30" transform="translate(338.28125 0)"/>
       <use xlink:href="#DejaVuSans-30" transform="translate(401.904297 0)"/>
      </g>
     </g>
    </g>
    <g id="ytick_2">
     <g id="line2d_15">
      <path d="M 57.6 263.069677 
L 414.72 263.069677 
" clip-path="url(#p09feb41557)" style="fill: none; stroke: #b0b0b0; stroke-width: 0.8; stroke-linecap: square"/>
     </g>
     <g id="line2d_16">
      <g>
       <use xlink:href="#m3794677607" x="57.6" y="263.069677" style="stroke: #000000; stroke-width: 0.8"/>
      </g>
     </g>
     <g id="text_9">
      <!-- −100000 -->
      <g transform="translate(4.045313 266.868895) scale(0.1 -0.1)">
       <use xlink:href="#DejaVuSans-2212"/>
       <use xlink:href="#DejaVuSans-31" transform="translate(83.789062 0)"/>
       <use xlink:href="#DejaVuSans-30" transform="translate(147.412109 0)"/>
       <use xlink:href="#DejaVuSans-30" transform="translate(211.035156 0)"/>
       <use xlink:href="#DejaVuSans-30" transform="translate(274.658203 0)"/>
       <use xlink:href="#DejaVuSans-30" transform="translate(338.28125 0)"/>
       <use xlink:href="#DejaVuSans-30" transform="translate(401.904297 0)"/>
      </g>
     </g>
    </g>
    <g id="ytick_3">
     <g id="line2d_17">
      <path d="M 57.6 230.958533 
L 414.72 230.958533 
" clip-path="url(#p09feb41557)" style="fill: none; stroke: #b0b0b0; stroke-width: 0.8; stroke-linecap: square"/>
     </g>
     <g id="line2d_18">
      <g>
       <use xlink:href="#m3794677607" x="57.6" y="230.958533" style="stroke: #000000; stroke-width: 0.8"/>
      </g>
     </g>
     <g id="text_10">
      <!-- 0 -->
      <g transform="translate(44.2375 234.757751) scale(0.1 -0.1)">
       <use xlink:href="#DejaVuSans-30"/>
      </g>
     </g>
    </g>
    <g id="ytick_4">
     <g id="line2d_19">
      <path d="M 57.6 198.847389 
L 414.72 198.847389 
" clip-path="url(#p09feb41557)" style="fill: none; stroke: #b0b0b0; stroke-width: 0.8; stroke-linecap: square"/>
     </g>
     <g id="line2d_20">
      <g>
       <use xlink:href="#m3794677607" x="57.6" y="198.847389" style="stroke: #000000; stroke-width: 0.8"/>
      </g>
     </g>
     <g id="text_11">
      <!-- 100000 -->
      <g transform="translate(12.425 202.646608) scale(0.1 -0.1)">
       <use xlink:href="#DejaVuSans-31"/>
       <use xlink:href="#DejaVuSans-30" transform="translate(63.623047 0)"/>
       <use xlink:href="#DejaVuSans-30" transform="translate(127.246094 0)"/>
       <use xlink:href="#DejaVuSans-30" transform="translate(190.869141 0)"/>
       <use xlink:href="#DejaVuSans-30" transform="translate(254.492188 0)"/>
       <use xlink:href="#DejaVuSans-30" transform="translate(318.115234 0)"/>
      </g>
     </g>
    </g>
    <g id="ytick_5">
     <g id="line2d_21">
      <path d="M 57.6 166.736245 
L 414.72 166.736245 
" clip-path="url(#p09feb41557)" style="fill: none; stroke: #b0b0b0; stroke-width: 0.8; stroke-linecap: square"/>
     </g>
     <g id="line2d_22">
      <g>
       <use xlink:href="#m3794677607" x="57.6" y="166.736245" style="stroke: #000000; stroke-width: 0.8"/>
      </g>
     </g>
     <g id="text_12">
      <!-- 200000 -->
      <g transform="translate(12.425 170.535464) scale(0.1 -0.1)">
       <use xlink:href="#DejaVuSans-32"/>
       <use xlink:href="#DejaVuSans-30" transform="translate(63.623047 0)"/>
       <use xlink:href="#DejaVuSans-30" transform="translate(127.246094 0)"/>
       <use xlink:href="#DejaVuSans-30" transform="translate(190.869141 0)"/>
       <use xlink:href="#DejaVuSans-30" transform="translate(254.492188 0)"/>
       <use xlink:href="#DejaVuSans-30" transform="translate(318.115234 0)"/>
      </g>
     </g>
    </g>
    <g id="ytick_6">
     <g id="line2d_23">
      <path d="M 57.6 134.625101 
L 414.72 134.625101 
" clip-path="url(#p09feb41557)" style="fill: none; stroke: #b0b0b0; stroke-width: 0.8; stroke-linecap: square"/>
     </g>
     <g id="line2d_24">
      <g>
       <use xlink:href="#m3794677607" x="57.6" y="134.625101" style="stroke: #000000; stroke-width: 0.8"/>
      </g>
     </g>
     <g id="text_13">
      <!-- 300000 -->
      <g transform="translate(12.425 138.42432) scale(0.1 -0.1)">
       <use xlink:href="#DejaVuSans-33"/>
       <use xlink:href="#DejaVuSans-30" transform="translate(63.623047 0)"/>
       <use xlink:href="#DejaVuSans-30" transform="translate(127.246094 0)"/>
       <use xlink:href="#DejaVuSans-30" transform="translate(190.869141 0)"/>
       <use xlink:href="#DejaVuSans-30" transform="translate(254.492188 0)"/>
       <use xlink:href="#DejaVuSans-30" transform="translate(318.115234 0)"/>
      </g>
     </g>
    </g>
    <g id="ytick_7">
     <g id="line2d_25">
      <path d="M 57.6 102.513958 
L 414.72 102.513958 
" clip-path="url(#p09feb41557)" style="fill: none; stroke: #b0b0b0; stroke-width: 0.8; stroke-linecap: square"/>
     </g>
     <g id="line2d_26">
      <g>
       <use xlink:href="#m3794677607" x="57.6" y="102.513958" style="stroke: #000000; stroke-width: 0.8"/>
      </g>
     </g>
     <g id="text_14">
      <!-- 400000 -->
      <g transform="translate(12.425 106.313176) scale(0.1 -0.1)">
       <use xlink:href="#DejaVuSans-34"/>
       <use xlink:href="#DejaVuSans-30" transform="translate(63.623047 0)"/>
       <use xlink:href="#DejaVuSans-30" transform="translate(127.246094 0)"/>
       <use xlink:href="#DejaVuSans-30" transform="translate(190.869141 0)"/>
       <use xlink:href="#DejaVuSans-30" transform="translate(254.492188 0)"/>
       <use xlink:href="#DejaVuSans-30" transform="translate(318.115234 0)"/>
      </g>
     </g>
    </g>
    <g id="ytick_8">
     <g id="line2d_27">
      <path d="M 57.6 70.402814 
L 414.72 70.402814 
" clip-path="url(#p09feb41557)" style="fill: none; stroke: #b0b0b0; stroke-width: 0.8; stroke-linecap: square"/>
     </g>
     <g id="line2d_28">
      <g>
       <use xlink:href="#m3794677607" x="57.6" y="70.402814" style="stroke: #000000; stroke-width: 0.8"/>
      </g>
     </g>
     <g id="text_15">
      <!-- 500000 -->
      <g transform="translate(12.425 74.202032) scale(0.1 -0.1)">
       <use xlink:href="#DejaVuSans-35"/>
       <use xlink:href="#DejaVuSans-30" transform="translate(63.623047 0)"/>
       <use xlink:href="#DejaVuSans-30" transform="translate(127.246094 0)"/>
       <use xlink:href="#DejaVuSans-30" transform="translate(190.869141 0)"/>
       <use xlink:href="#DejaVuSans-30" transform="translate(254.492188 0)"/>
       <use xlink:href="#DejaVuSans-30" transform="translate(318.115234 0)"/>
      </g>
     </g>
    </g>
    <g id="text_16">
     <!-- Fitness -->
     <g transform="translate(-2.034375 191.845187) rotate(-90) scale(0.1 -0.1)">
      <defs>
       <path id="DejaVuSans-46" d="M 628 4666 
L 3309 4666 
L 3309 4134 
L 1259 4134 
L 1259 2759 
L 3109 2759 
L 3109 2228 
L 1259 2228 
L 1259 0 
L 628 0 
L 628 4666 
z
" transform="scale(0.015625)"/>
      </defs>
      <use xlink:href="#DejaVuSans-46"/>
      <use xlink:href="#DejaVuSans-69" transform="translate(50.269531 0)"/>
      <use xlink:href="#DejaVuSans-74" transform="translate(78.052734 0)"/>
      <use xlink:href="#DejaVuSans-6e" transform="translate(117.261719 0)"/>
      <use xlink:href="#DejaVuSans-65" transform="translate(180.640625 0)"/>
      <use xlink:href="#DejaVuSans-73" transform="translate(242.164062 0)"/>
      <use xlink:href="#DejaVuSans-73" transform="translate(294.263672 0)"/>
     </g>
    </g>
   </g>
   <g id="line2d_29">
    <path d="M 73.832727 215.99707 
L 74.483338 208.018164 
L 75.133948 209.444951 
L 75.784558 216.525299 
L 77.085779 205.179016 
L 77.736389 209.484054 
L 78.386999 210.636518 
L 79.03761 213.455097 
L 79.68822 218.375393 
L 80.33883 212.531458 
L 80.989441 213.294044 
L 81.640051 209.620914 
L 82.290661 211.602023 
L 82.941272 207.04057 
L 83.591882 207.012161 
L 84.242492 209.371867 
L 84.893103 209.416274 
L 85.543713 209.051155 
L 86.194323 209.09091 
L 86.844934 215.217997 
L 87.495544 210.693929 
L 88.146154 208.52065 
L 89.447375 205.690162 
L 90.097985 209.607477 
L 90.748595 206.864155 
L 91.399206 210.881717 
L 92.700426 205.487549 
L 93.351037 208.484303 
L 94.001647 203.139839 
L 94.652257 204.524685 
L 95.302868 201.593386 
L 95.953478 205.672154 
L 96.604088 201.995217 
L 97.254698 202.593914 
L 97.905309 204.000977 
L 98.555919 206.147278 
L 99.206529 205.105141 
L 99.85714 207.1799 
L 100.50775 205.38139 
L 101.15836 205.815353 
L 101.808971 207.208886 
L 103.110191 201.234539 
L 103.760802 203.204913 
L 104.411412 202.578921 
L 105.062022 202.886339 
L 105.712633 203.625547 
L 106.363243 202.336109 
L 107.013853 201.861512 
L 107.664463 203.720793 
L 108.315074 203.3528 
L 108.965684 204.225691 
L 109.616294 198.729214 
L 110.266905 203.273179 
L 110.917515 211.414884 
L 111.568125 208.246864 
L 112.218736 203.98942 
L 112.869346 207.150069 
L 113.519956 208.545281 
L 114.170567 210.235472 
L 114.821177 202.328789 
L 115.471787 203.20181 
L 116.122398 202.064444 
L 116.773008 200.534176 
L 117.423618 200.474543 
L 118.074228 202.9018 
L 118.724839 200.395678 
L 119.375449 202.413588 
L 120.026059 207.544166 
L 120.67667 203.670124 
L 121.32728 194.1648 
L 121.97789 198.210216 
L 122.628501 197.619375 
L 123.279111 201.468679 
L 123.929721 200.48476 
L 124.580332 198.506697 
L 125.230942 199.161755 
L 125.881552 203.042597 
L 126.532163 204.206045 
L 127.182773 207.955623 
L 127.833383 205.079208 
L 128.483993 208.114012 
L 129.134604 203.796635 
L 129.785214 206.016685 
L 130.435824 198.718096 
L 131.086435 200.063704 
L 131.737045 196.836968 
L 132.387655 196.424312 
L 133.038266 196.469399 
L 133.688876 199.419802 
L 134.339486 200.380422 
L 134.990097 202.365264 
L 135.640707 206.741416 
L 136.291317 205.538883 
L 136.941927 213.143868 
L 137.592538 208.826166 
L 138.243148 210.544228 
L 138.893758 208.954495 
L 139.544369 210.479625 
L 140.194979 208.293603 
L 140.845589 208.521429 
L 141.4962 204.688592 
L 142.14681 202.28136 
L 142.79742 203.614334 
L 143.448031 199.459316 
L 144.098641 202.828843 
L 144.749251 202.157494 
L 145.399862 197.596706 
L 146.050472 199.321554 
L 146.701082 203.365211 
L 147.351692 200.440395 
L 148.002303 200.859719 
L 148.652913 201.513613 
L 149.303523 197.992925 
L 149.954134 196.060418 
L 150.604744 198.622814 
L 151.255354 204.96188 
L 151.905965 201.206967 
L 152.556575 199.642306 
L 153.207185 204.240341 
L 153.857796 198.849316 
L 154.508406 195.793349 
L 155.159016 194.187721 
L 155.809627 205.093213 
L 156.460237 202.83432 
L 157.110847 207.114521 
L 157.761457 203.422327 
L 158.412068 205.285784 
L 159.062678 205.914429 
L 160.363899 202.474844 
L 161.014509 200.732916 
L 161.665119 199.985646 
L 162.31573 201.158582 
L 162.96634 197.121237 
L 163.61695 196.841055 
L 164.267561 200.660347 
L 164.918171 196.875377 
L 165.568781 196.90698 
L 166.219392 198.930335 
L 166.870002 197.056553 
L 167.520612 196.033279 
L 168.171222 194.526 
L 168.821833 196.12137 
L 169.472443 198.355314 
L 170.123053 199.805305 
L 170.773664 197.941284 
L 171.424274 196.887027 
L 172.074884 198.416365 
L 172.725495 196.124986 
L 173.376105 194.822319 
L 174.026715 198.241263 
L 174.677326 198.368714 
L 175.978546 194.304544 
L 176.629156 199.089269 
L 177.279767 194.510912 
L 177.930377 191.219194 
L 178.580987 193.420834 
L 179.231598 196.056063 
L 179.882208 203.406045 
L 180.532818 198.712358 
L 181.183429 198.314798 
L 181.834039 197.146421 
L 182.484649 196.532016 
L 183.13526 197.00157 
L 183.78587 196.616966 
L 184.43648 196.961677 
L 185.087091 198.276223 
L 185.737701 196.942851 
L 186.388311 199.739201 
L 187.038921 198.277366 
L 187.689532 195.609775 
L 188.990752 200.070186 
L 189.641363 197.678839 
L 190.291973 196.576909 
L 190.942583 195.203936 
L 191.593194 193.233981 
L 192.243804 191.914339 
L 192.894414 197.368662 
L 193.545025 198.261116 
L 194.195635 201.755326 
L 194.846245 198.791078 
L 195.496856 197.682582 
L 196.147466 199.020332 
L 196.798076 198.456728 
L 197.448686 196.412232 
L 198.099297 193.632525 
L 198.749907 204.382583 
L 199.400517 205.219485 
L 200.051128 208.477735 
L 200.701738 205.966382 
L 201.352348 207.053355 
L 202.002959 200.5018 
L 202.653569 202.820798 
L 203.304179 200.330029 
L 203.95479 199.12853 
L 204.6054 195.91579 
L 205.25601 200.442229 
L 205.906621 199.744555 
L 206.557231 196.146594 
L 207.207841 196.326917 
L 207.858451 193.839838 
L 208.509062 193.053153 
L 209.159672 199.292055 
L 209.810282 193.786992 
L 210.460893 194.394022 
L 211.111503 193.882396 
L 211.762113 195.123279 
L 212.412724 199.13392 
L 213.063334 196.73826 
L 213.713944 191.844351 
L 214.364555 193.735683 
L 215.015165 198.424059 
L 215.665775 200.263606 
L 216.316385 197.882156 
L 216.966996 197.76619 
L 217.617606 194.785781 
L 218.268216 192.330951 
L 218.918827 191.455505 
L 219.569437 192.994435 
L 220.220047 195.532398 
L 220.870658 194.843764 
L 221.521268 197.107579 
L 222.171878 198.034594 
L 222.822489 196.961862 
L 223.473099 194.907317 
L 224.123709 195.672683 
L 224.77432 197.687799 
L 225.42493 195.278503 
L 226.07554 198.59335 
L 227.376761 199.578062 
L 228.027371 192.798561 
L 228.677981 193.819641 
L 229.328592 193.945572 
L 229.979202 192.297446 
L 230.629812 192.189025 
L 231.280423 195.972387 
L 231.931033 194.846202 
L 232.581643 198.198646 
L 233.232254 191.971267 
L 233.882864 198.411017 
L 234.533474 195.53855 
L 235.184085 195.539732 
L 235.834695 195.789231 
L 236.485305 197.03206 
L 237.135915 198.572713 
L 237.786526 197.38869 
L 238.437136 205.827766 
L 239.087746 200.049207 
L 239.738357 199.546947 
L 240.388967 196.758457 
L 241.039577 191.98423 
L 241.690188 196.24061 
L 242.340798 198.209384 
L 242.991408 196.401235 
L 243.642019 198.578298 
L 244.292629 198.880444 
L 244.943239 199.806338 
L 245.59385 198.976407 
L 246.24446 197.418618 
L 246.89507 196.451294 
L 247.54568 194.642282 
L 248.196291 194.145062 
L 248.846901 199.585819 
L 249.497511 198.157315 
L 250.148122 200.199058 
L 250.798732 204.503915 
L 251.449342 207.606805 
L 252.099953 201.603412 
L 252.750563 199.996469 
L 253.401173 201.005216 
L 254.051784 198.92355 
L 254.702394 197.779262 
L 255.353004 201.177051 
L 256.003615 201.595631 
L 256.654225 199.369131 
L 257.304835 200.703146 
L 257.955445 198.474812 
L 258.606056 199.05076 
L 259.256666 193.427353 
L 259.907276 199.576368 
L 260.557887 195.991953 
L 261.208497 196.144704 
L 261.859107 196.487699 
L 262.509718 203.723614 
L 263.160328 205.311347 
L 263.810938 200.594413 
L 264.461549 199.508292 
L 265.112159 197.955377 
L 265.762769 199.931961 
L 267.06399 193.373516 
L 267.7146 194.164492 
L 268.36521 192.688061 
L 269.015821 198.041898 
L 269.666431 195.19644 
L 270.317041 193.084065 
L 271.618262 196.849096 
L 272.268872 193.723684 
L 272.919483 193.297268 
L 273.570093 197.361399 
L 274.220703 196.839211 
L 274.871314 195.753977 
L 275.521924 196.465155 
L 276.172534 199.270992 
L 276.823144 200.702837 
L 277.473755 200.458896 
L 278.124365 196.98897 
L 278.774975 190.840858 
L 279.425586 195.027149 
L 280.076196 197.658574 
L 280.726806 191.762107 
L 281.377417 191.342042 
L 282.028027 187.582448 
L 282.678637 190.453956 
L 283.329248 198.745307 
L 283.979858 197.728042 
L 284.630468 197.334902 
L 285.281079 195.6422 
L 285.931689 194.43876 
L 286.582299 189.80703 
L 287.232909 195.900376 
L 287.88352 197.004366 
L 288.53413 197.687653 
L 289.18474 206.103023 
L 290.485961 201.999178 
L 291.136571 202.917935 
L 291.787182 202.895068 
L 292.437792 200.106906 
L 293.088402 200.63797 
L 293.739013 199.136562 
L 294.389623 200.285059 
L 295.040233 198.416119 
L 295.690844 198.217858 
L 296.341454 193.292128 
L 296.992064 191.542756 
L 297.642674 193.047879 
L 298.293285 193.654532 
L 298.943895 196.967937 
L 299.594505 195.879965 
L 300.245116 200.399244 
L 300.895726 200.724457 
L 301.546336 191.909314 
L 302.196947 191.35751 
L 302.847557 189.627473 
L 303.498167 191.668893 
L 304.148778 189.526897 
L 304.799388 193.061216 
L 305.449998 195.590848 
L 306.100608 194.454619 
L 306.751219 193.555257 
L 307.401829 190.198257 
L 308.70305 195.311434 
L 309.35366 196.8823 
L 310.00427 191.480963 
L 310.654881 193.572834 
L 311.305491 192.722028 
L 311.956101 192.86431 
L 312.606712 190.969509 
L 313.257322 195.624127 
L 313.907932 193.817755 
L 314.558543 194.11846 
L 315.209153 193.660073 
L 315.859763 194.971545 
L 316.510373 198.391969 
L 317.160984 194.002788 
L 317.811594 197.000149 
L 318.462204 197.9307 
L 319.112815 196.988534 
L 319.763425 199.983851 
L 320.414035 193.799964 
L 321.064646 196.814719 
L 321.715256 193.186928 
L 322.365866 192.881232 
L 323.016477 193.891705 
L 323.667087 190.306469 
L 324.317697 193.4022 
L 324.968308 187.251249 
L 325.618918 192.102177 
L 326.269528 191.602144 
L 326.920138 199.035228 
L 327.570749 194.598356 
L 328.871969 191.15076 
L 329.52258 191.841561 
L 330.8238 190.1594 
L 331.474411 188.809678 
L 332.125021 188.493007 
L 332.775631 189.975052 
L 333.426242 192.408204 
L 334.076852 189.605131 
L 334.727462 192.477003 
L 335.378073 190.132458 
L 336.028683 193.659434 
L 336.679293 195.974054 
L 337.329903 191.907671 
L 337.980514 193.453517 
L 338.631124 195.842596 
L 339.281734 190.804116 
L 339.932345 191.32691 
L 340.582955 196.400734 
L 341.233565 194.939165 
L 341.884176 195.662761 
L 342.534786 196.207794 
L 343.185396 193.453932 
L 343.836007 194.157366 
L 344.486617 191.50342 
L 345.137227 194.093998 
L 345.787837 194.349758 
L 346.438448 193.882592 
L 347.089058 193.604599 
L 347.739668 188.734972 
L 348.390279 189.89372 
L 349.040889 187.916893 
L 349.691499 187.636981 
L 350.34211 186.509702 
L 350.99272 188.42501 
L 351.64333 189.443122 
L 352.293941 193.100555 
L 352.944551 188.962727 
L 353.595161 189.489536 
L 354.245772 191.805018 
L 354.896382 195.01106 
L 355.546992 193.202364 
L 356.197602 195.410033 
L 356.848213 200.047895 
L 357.498823 198.178022 
L 358.149433 197.298316 
L 358.800044 193.200147 
L 359.450654 194.031887 
L 360.101264 197.558237 
L 360.751875 194.957873 
L 361.402485 197.874727 
L 362.053095 199.013989 
L 362.703706 196.824107 
L 363.354316 197.000544 
L 364.004926 202.535951 
L 364.655537 193.072052 
L 365.306147 196.944915 
L 365.956757 193.875195 
L 366.607367 195.491895 
L 367.257978 194.376245 
L 367.908588 196.39862 
L 368.559198 196.607744 
L 369.209809 200.126672 
L 369.860419 193.487706 
L 370.511029 194.998963 
L 371.16164 195.544116 
L 371.81225 198.387192 
L 372.46286 193.801767 
L 373.113471 191.618368 
L 373.764081 192.392909 
L 374.414691 191.605901 
L 375.065302 195.464721 
L 375.715912 191.115286 
L 376.366522 191.104466 
L 377.667743 193.087377 
L 378.318353 191.345064 
L 378.968963 189.153079 
L 379.619574 189.132198 
L 380.270184 190.741152 
L 380.920794 191.604379 
L 381.571405 199.226013 
L 382.222015 190.581703 
L 382.872625 191.046897 
L 383.523236 192.313264 
L 384.173846 191.58686 
L 384.824456 189.242227 
L 385.475066 190.45055 
L 386.125677 191.190154 
L 386.776287 191.051537 
L 387.426897 192.289325 
L 388.077508 194.505232 
L 388.728118 191.922375 
L 389.378728 194.10334 
L 390.029339 189.626586 
L 390.679949 197.072778 
L 391.330559 194.625488 
L 391.98117 190.919605 
L 392.63178 191.051741 
L 393.28239 186.575369 
L 394.583611 195.970013 
L 395.234221 194.66851 
L 395.884831 197.145346 
L 396.535442 191.14928 
L 397.186052 197.013983 
L 397.836662 193.291506 
L 398.487273 192.105098 
L 398.487273 192.105098 
" clip-path="url(#p09feb41557)" style="fill: none; stroke: #0000ff; stroke-width: 1.5; stroke-linecap: square"/>
   </g>
   <g id="line2d_30">
    <path d="M 73.832727 234.57647 
L 74.483338 232.406028 
L 75.133948 248.733625 
L 75.784558 269.070348 
L 76.435169 258.287293 
L 77.085779 230.672697 
L 77.736389 248.506975 
L 78.386999 253.237467 
L 79.03761 248.253375 
L 79.68822 262.881962 
L 80.33883 254.287862 
L 80.989441 256.343938 
L 81.640051 249.972781 
L 82.290661 253.233334 
L 82.941272 245.615216 
L 83.591882 240.210103 
L 84.242492 251.235269 
L 84.893103 251.856656 
L 85.543713 253.77933 
L 86.194323 250.985979 
L 86.844934 269.187748 
L 87.495544 264.526573 
L 88.796764 250.481235 
L 89.447375 249.233763 
L 90.097985 259.109264 
L 90.748595 253.243684 
L 91.399206 263.146792 
L 92.049816 258.565938 
L 92.700426 249.668404 
L 93.351037 256.272148 
L 94.001647 239.766769 
L 94.652257 245.602742 
L 95.302868 240.378256 
L 95.953478 241.978653 
L 96.604088 238.862292 
L 97.254698 249.002374 
L 97.905309 244.963547 
L 98.555919 247.3414 
L 99.206529 250.261003 
L 99.85714 240.667664 
L 100.50775 242.407169 
L 101.15836 242.027746 
L 101.808971 235.569409 
L 102.459581 231.464023 
L 103.110191 245.588101 
L 103.760802 242.17568 
L 104.411412 231.120007 
L 105.062022 234.631826 
L 105.712633 235.546359 
L 106.363243 231.115106 
L 107.013853 244.411453 
L 107.664463 239.046295 
L 108.315074 239.488651 
L 108.965684 247.797193 
L 109.616294 234.100288 
L 110.266905 241.521129 
L 110.917515 265.977407 
L 111.568125 255.655754 
L 112.218736 240.28152 
L 112.869346 256.998972 
L 113.519956 255.680478 
L 114.170567 267.305997 
L 114.821177 246.988009 
L 115.471787 244.188768 
L 116.122398 249.432138 
L 116.773008 236.39196 
L 117.423618 237.710928 
L 118.074228 255.370267 
L 118.724839 237.870585 
L 119.375449 245.470122 
L 120.026059 258.806117 
L 120.67667 256.773613 
L 121.32728 233.267455 
L 121.97789 249.213061 
L 122.628501 234.804227 
L 123.279111 245.785281 
L 124.580332 233.970986 
L 125.230942 240.525505 
L 125.881552 255.953326 
L 126.532163 253.034693 
L 127.182773 256.295785 
L 127.833383 247.179861 
L 128.483993 256.638712 
L 129.134604 242.806648 
L 129.785214 264.269118 
L 130.435824 234.221183 
L 131.086435 247.358311 
L 131.737045 234.792106 
L 132.387655 230.502968 
L 133.038266 240.416332 
L 133.688876 236.758005 
L 134.339486 255.064447 
L 134.990097 257.977095 
L 135.640707 269.174518 
L 136.291317 263.480574 
L 136.941927 295.488 
L 137.592538 263.337123 
L 138.893758 254.314299 
L 139.544369 265.381251 
L 140.194979 261.916641 
L 140.845589 256.711015 
L 141.4962 252.91386 
L 142.14681 248.458084 
L 142.79742 235.90652 
L 143.448031 234.595004 
L 144.098641 248.242013 
L 144.749251 257.893098 
L 145.399862 241.317673 
L 146.050472 242.855059 
L 146.701082 259.11697 
L 147.351692 253.58051 
L 148.002303 252.895517 
L 148.652913 266.605699 
L 149.303523 250.414852 
L 149.954134 237.60417 
L 150.604744 243.499375 
L 151.255354 273.94131 
L 151.905965 244.680759 
L 152.556575 244.294024 
L 153.207185 262.21768 
L 154.508406 226.669029 
L 155.159016 229.588885 
L 155.809627 256.237478 
L 156.460237 253.734299 
L 157.110847 256.431848 
L 157.761457 245.29056 
L 158.412068 247.766612 
L 159.062678 250.777685 
L 159.713288 245.61652 
L 160.363899 245.861406 
L 161.014509 243.481868 
L 161.665119 243.385228 
L 162.31573 250.549279 
L 162.96634 232.010927 
L 163.61695 232.303824 
L 164.267561 240.77891 
L 164.918171 234.165608 
L 165.568781 239.226507 
L 166.219392 239.837702 
L 166.870002 232.017298 
L 167.520612 239.172479 
L 168.171222 229.364388 
L 168.821833 239.768889 
L 169.472443 240.690124 
L 170.123053 241.171788 
L 170.773664 229.980895 
L 171.424274 229.847457 
L 172.074884 239.722768 
L 172.725495 229.166222 
L 173.376105 230.061005 
L 174.026715 242.428452 
L 174.677326 236.915745 
L 175.327936 228.343671 
L 175.978546 231.592788 
L 176.629156 252.443452 
L 177.279767 226.836155 
L 177.930377 222.26658 
L 178.580987 226.530024 
L 179.231598 232.786113 
L 179.882208 272.922302 
L 180.532818 237.321342 
L 181.183429 234.235683 
L 181.834039 235.126691 
L 182.484649 229.879131 
L 183.13526 240.561806 
L 183.78587 240.63531 
L 184.43648 239.022084 
L 185.087091 231.97832 
L 185.737701 237.286054 
L 186.388311 244.863996 
L 187.038921 231.061297 
L 187.689532 228.872741 
L 188.340142 238.320974 
L 188.990752 259.088206 
L 189.641363 237.126802 
L 190.291973 235.228959 
L 190.942583 228.485991 
L 191.593194 225.693986 
L 192.243804 227.168448 
L 192.894414 250.07224 
L 193.545025 250.677915 
L 194.195635 257.862177 
L 194.846245 251.327102 
L 195.496856 232.400366 
L 196.147466 237.168214 
L 196.798076 239.858774 
L 197.448686 230.360366 
L 198.099297 242.315515 
L 198.749907 262.730517 
L 199.400517 269.006499 
L 200.051128 267.844646 
L 200.701738 259.687343 
L 201.352348 265.685156 
L 202.002959 246.098175 
L 202.653569 246.892128 
L 203.304179 248.947113 
L 203.95479 236.884602 
L 204.6054 229.900477 
L 205.25601 241.809375 
L 205.906621 236.580509 
L 206.557231 238.532758 
L 207.207841 239.500783 
L 207.858451 230.37849 
L 208.509062 228.454657 
L 209.159672 252.319014 
L 209.810282 237.117196 
L 210.460893 227.138971 
L 211.111503 233.312616 
L 211.762113 229.038289 
L 212.412724 251.192214 
L 213.713944 225.700093 
L 214.364555 237.053159 
L 215.015165 245.010523 
L 215.665775 250.585715 
L 216.316385 232.871486 
L 216.966996 238.683276 
L 217.617606 228.551887 
L 218.268216 239.082831 
L 218.918827 226.819682 
L 219.569437 233.736091 
L 220.220047 231.032008 
L 220.870658 241.025384 
L 221.521268 236.063338 
L 222.171878 246.843967 
L 222.822489 238.733556 
L 223.473099 235.639487 
L 224.123709 239.97946 
L 224.77432 240.167511 
L 225.42493 234.429929 
L 226.07554 250.548798 
L 226.72615 242.075169 
L 227.376761 259.26064 
L 228.027371 238.323228 
L 228.677981 228.051351 
L 229.328592 235.113647 
L 229.979202 234.794914 
L 230.629812 227.191915 
L 231.280423 231.070702 
L 231.931033 231.699308 
L 232.581643 250.820092 
L 233.232254 230.918681 
L 233.882864 248.648407 
L 234.533474 240.657117 
L 235.184085 248.897874 
L 235.834695 248.160224 
L 236.485305 242.665298 
L 237.135915 251.170503 
L 237.786526 242.931879 
L 238.437136 279.998011 
L 239.087746 259.957124 
L 239.738357 252.952548 
L 241.039577 233.156656 
L 241.690188 237.56789 
L 242.340798 242.989285 
L 242.991408 237.075018 
L 243.642019 244.131761 
L 244.292629 246.362758 
L 245.59385 236.94154 
L 246.24446 230.003453 
L 248.196291 225.370841 
L 248.846901 233.260757 
L 249.497511 230.818148 
L 250.798732 254.301285 
L 251.449342 255.587273 
L 252.099953 236.454922 
L 252.750563 235.282397 
L 253.401173 237.329757 
L 254.051784 249.904709 
L 254.702394 236.415918 
L 255.353004 243.582946 
L 256.003615 246.308569 
L 256.654225 239.898052 
L 257.304835 242.252276 
L 257.955445 233.246042 
L 258.606056 237.636504 
L 259.256666 225.246755 
L 259.907276 253.276471 
L 260.557887 236.374175 
L 261.208497 231.774702 
L 261.859107 240.058611 
L 262.509718 257.089903 
L 263.160328 265.903326 
L 263.810938 247.058565 
L 265.112159 237.774272 
L 265.762769 241.308889 
L 266.413379 237.99997 
L 267.06399 237.521998 
L 267.7146 227.749084 
L 268.36521 233.048316 
L 269.015821 243.280402 
L 269.666431 229.466795 
L 270.317041 226.873104 
L 270.967652 232.491736 
L 271.618262 249.437575 
L 272.268872 227.294324 
L 272.919483 226.604732 
L 273.570093 240.094675 
L 274.220703 233.607707 
L 274.871314 230.020716 
L 275.521924 242.445634 
L 276.172534 244.010252 
L 276.823144 244.379513 
L 277.473755 256.540601 
L 278.124365 241.42823 
L 278.774975 222.223817 
L 279.425586 245.186051 
L 280.076196 246.007525 
L 280.726806 224.21768 
L 281.377417 226.528418 
L 282.028027 218.623336 
L 282.678637 223.147443 
L 283.329248 255.727064 
L 283.979858 243.416975 
L 284.630468 238.570202 
L 285.281079 241.553067 
L 285.931689 227.974046 
L 286.582299 222.590145 
L 287.232909 230.719274 
L 287.88352 242.193747 
L 288.53413 241.294673 
L 289.18474 255.597861 
L 289.835351 251.387032 
L 290.485961 248.265551 
L 291.136571 237.86016 
L 292.437792 245.639841 
L 293.088402 236.041375 
L 293.739013 245.614557 
L 294.389623 242.764267 
L 295.040233 235.869484 
L 295.690844 248.257195 
L 296.341454 225.634826 
L 296.992064 228.828998 
L 297.642674 230.922144 
L 298.293285 231.562355 
L 298.943895 245.623476 
L 299.594505 233.479339 
L 300.245116 246.195856 
L 300.895726 251.223797 
L 301.546336 225.569682 
L 302.196947 226.02269 
L 302.847557 227.085012 
L 303.498167 226.320801 
L 304.148778 224.709458 
L 304.799388 246.200589 
L 305.449998 241.481041 
L 306.100608 230.457317 
L 306.751219 227.51898 
L 307.401829 223.346089 
L 308.052439 229.748216 
L 308.70305 232.819951 
L 309.35366 247.791142 
L 310.00427 225.257538 
L 310.654881 227.050765 
L 311.305491 229.321626 
L 311.956101 232.54283 
L 312.606712 227.609509 
L 313.257322 230.712578 
L 313.907932 228.345524 
L 314.558543 231.63263 
L 315.209153 228.447326 
L 315.859763 229.03673 
L 316.510373 244.55031 
L 317.160984 228.558304 
L 318.462204 249.121435 
L 319.112815 238.96941 
L 319.763425 249.792031 
L 320.414035 227.655498 
L 321.064646 243.62006 
L 321.715256 241.218168 
L 322.365866 231.913659 
L 323.016477 230.540976 
L 323.667087 224.569949 
L 324.317697 228.567104 
L 324.968308 221.827693 
L 325.618918 226.817309 
L 326.269528 228.29122 
L 326.920138 241.427942 
L 327.570749 236.736507 
L 328.221359 228.269546 
L 328.871969 231.414499 
L 329.52258 237.388121 
L 330.17319 238.339823 
L 330.8238 232.618292 
L 331.474411 225.110011 
L 332.125021 233.638592 
L 332.775631 225.639326 
L 333.426242 249.664302 
L 334.076852 228.436332 
L 334.727462 227.321105 
L 335.378073 223.153828 
L 336.028683 230.255769 
L 336.679293 240.97015 
L 337.329903 224.982646 
L 337.980514 228.397114 
L 338.631124 230.8641 
L 339.281734 223.836007 
L 339.932345 225.500844 
L 340.582955 248.294269 
L 341.233565 231.313174 
L 341.884176 232.937567 
L 342.534786 240.277757 
L 343.185396 233.205268 
L 343.836007 238.871412 
L 344.486617 226.83521 
L 345.137227 238.646685 
L 345.787837 229.575489 
L 346.438448 228.16108 
L 347.089058 227.862709 
L 347.739668 221.559185 
L 348.390279 230.504793 
L 349.040889 219.693186 
L 349.691499 219.526338 
L 350.34211 218.570976 
L 350.99272 221.995797 
L 351.64333 227.941459 
L 352.293941 236.530768 
L 352.944551 222.066284 
L 353.595161 233.906782 
L 354.245772 239.02686 
L 354.896382 241.265712 
L 355.546992 245.81266 
L 356.197602 244.571892 
L 356.848213 254.638103 
L 357.498823 252.648894 
L 358.800044 228.802406 
L 359.450654 253.140087 
L 360.101264 234.49421 
L 360.751875 232.03496 
L 361.402485 242.205702 
L 362.053095 242.589711 
L 362.703706 231.207635 
L 363.354316 232.487201 
L 364.004926 271.837136 
L 364.655537 228.381069 
L 365.306147 243.382171 
L 365.956757 231.749628 
L 366.607367 241.653289 
L 367.257978 240.483071 
L 367.908588 249.521034 
L 368.559198 248.290321 
L 369.209809 252.122876 
L 369.860419 233.698227 
L 370.511029 244.934147 
L 371.16164 238.331537 
L 371.81225 238.854082 
L 372.46286 227.140088 
L 373.113471 225.000236 
L 373.764081 225.742824 
L 374.414691 230.8299 
L 375.065302 250.064057 
L 375.715912 225.954323 
L 376.366522 224.422076 
L 377.017132 235.164022 
L 377.667743 242.41222 
L 378.318353 230.203272 
L 378.968963 221.807072 
L 379.619574 223.4191 
L 380.270184 238.085524 
L 380.920794 225.241638 
L 381.571405 280.906388 
L 382.222015 224.420601 
L 382.872625 238.166483 
L 384.173846 225.378013 
L 384.824456 221.6137 
L 385.475066 224.547366 
L 386.125677 224.514836 
L 386.776287 224.121854 
L 387.426897 226.093367 
L 388.077508 235.787956 
L 388.728118 225.878074 
L 389.378728 227.37697 
L 390.029339 222.384212 
L 390.679949 247.169319 
L 391.330559 231.622508 
L 391.98117 224.006604 
L 392.63178 224.734855 
L 393.28239 218.803392 
L 393.933001 226.171423 
L 394.583611 240.542599 
L 395.234221 235.634927 
L 395.884831 233.390823 
L 396.535442 225.368296 
L 397.186052 241.333996 
L 397.836662 231.949624 
L 398.487273 233.925992 
L 398.487273 233.925992 
" clip-path="url(#p09feb41557)" style="fill: none; stroke-dasharray: 9.6,2.4,1.5,2.4; stroke-dashoffset: 0; stroke: #008000; stroke-width: 1.5"/>
   </g>
   <g id="line2d_31">
    <path d="M 73.832727 197.41767 
L 75.133948 170.156277 
L 75.784558 163.980251 
L 76.435169 163.322277 
L 77.085779 179.685336 
L 77.736389 170.461132 
L 78.386999 168.035569 
L 79.03761 178.65682 
L 79.68822 173.868824 
L 80.33883 170.775053 
L 80.989441 170.244149 
L 81.640051 169.269047 
L 82.290661 169.970712 
L 82.941272 168.465924 
L 83.591882 173.81422 
L 84.242492 167.508466 
L 84.893103 166.975893 
L 85.543713 164.322979 
L 86.194323 167.195841 
L 86.844934 161.248247 
L 87.495544 156.861284 
L 88.146154 160.077303 
L 88.796764 163.922964 
L 90.097985 160.10569 
L 90.748595 160.484626 
L 91.399206 158.616641 
L 92.049816 157.667474 
L 92.700426 161.306694 
L 93.351037 160.696457 
L 94.001647 166.512909 
L 94.652257 163.446628 
L 95.302868 162.808516 
L 95.953478 169.365656 
L 96.604088 165.128141 
L 97.254698 156.185453 
L 97.905309 163.038407 
L 98.555919 164.953155 
L 99.206529 159.949279 
L 99.85714 173.692136 
L 100.50775 168.35561 
L 101.15836 169.60296 
L 101.808971 178.848363 
L 102.459581 176.49245 
L 103.110191 156.880976 
L 103.760802 164.234146 
L 104.411412 174.037835 
L 105.062022 171.140851 
L 105.712633 171.704735 
L 106.363243 173.557113 
L 107.013853 159.311571 
L 107.664463 168.39529 
L 108.315074 167.216949 
L 108.965684 160.654189 
L 109.616294 163.358141 
L 110.266905 165.025229 
L 110.917515 156.852361 
L 111.568125 160.837975 
L 112.218736 167.69732 
L 112.869346 157.301165 
L 113.519956 161.410084 
L 114.170567 153.164947 
L 115.471787 162.214851 
L 116.122398 154.69675 
L 116.773008 164.676392 
L 117.423618 163.238158 
L 118.074228 150.433334 
L 118.724839 162.920772 
L 120.026059 156.282215 
L 120.67667 150.566636 
L 121.32728 155.062144 
L 121.97789 147.207371 
L 122.628501 160.434523 
L 123.279111 157.152076 
L 123.929721 160.809972 
L 124.580332 163.042408 
L 125.230942 157.798005 
L 125.881552 150.131868 
L 126.532163 155.377397 
L 127.182773 159.615461 
L 127.833383 162.978555 
L 128.483993 159.589311 
L 129.134604 164.786621 
L 129.785214 147.764251 
L 130.435824 163.215009 
L 131.086435 152.769097 
L 131.737045 158.88183 
L 132.387655 162.345655 
L 133.038266 152.522467 
L 133.688876 162.0816 
L 134.339486 145.696397 
L 134.990097 146.753433 
L 135.640707 144.308315 
L 136.291317 147.597191 
L 136.941927 130.799736 
L 137.592538 154.315209 
L 138.243148 162.283773 
L 138.893758 163.594691 
L 139.544369 155.577999 
L 140.194979 154.670566 
L 140.845589 160.331844 
L 141.4962 156.463324 
L 142.14681 156.104636 
L 142.79742 171.322147 
L 144.098641 157.415674 
L 144.749251 146.421889 
L 145.399862 153.875739 
L 146.050472 155.788049 
L 146.701082 147.613451 
L 147.351692 147.300281 
L 148.002303 148.823921 
L 148.652913 136.421527 
L 149.954134 154.516666 
L 150.604744 153.746253 
L 151.255354 135.98245 
L 151.905965 157.733176 
L 152.556575 154.990587 
L 153.207185 146.263003 
L 153.857796 154.611214 
L 154.508406 164.917669 
L 155.159016 158.786557 
L 155.809627 153.948947 
L 156.460237 151.934341 
L 157.110847 157.797195 
L 157.761457 161.554094 
L 158.412068 162.804957 
L 159.062678 161.051173 
L 159.713288 162.471076 
L 160.363899 159.088282 
L 161.014509 157.983964 
L 161.665119 156.586064 
L 162.31573 151.767885 
L 162.96634 162.231548 
L 164.918171 159.585145 
L 165.568781 154.587454 
L 166.219392 158.022969 
L 166.870002 162.095808 
L 167.520612 152.894078 
L 168.171222 159.687611 
L 168.821833 152.47385 
L 169.472443 156.020504 
L 170.123053 158.438822 
L 170.773664 165.901673 
L 171.424274 163.926598 
L 172.074884 157.109963 
L 172.725495 163.083749 
L 173.376105 159.583634 
L 174.026715 154.054074 
L 174.677326 159.821683 
L 175.327936 164.159153 
L 175.978546 157.0163 
L 176.629156 145.735085 
L 177.279767 162.185669 
L 177.930377 160.171808 
L 178.580987 160.311644 
L 179.231598 159.326014 
L 179.882208 133.889789 
L 180.532818 160.103373 
L 181.183429 162.393912 
L 181.834039 159.166151 
L 182.484649 163.1849 
L 183.13526 153.441334 
L 183.78587 152.598622 
L 184.43648 154.90127 
L 185.087091 164.574126 
L 185.737701 156.599648 
L 186.388311 154.614405 
L 187.038921 165.493435 
L 187.689532 162.34681 
L 188.340142 157.644416 
L 188.990752 141.052166 
L 189.641363 158.230876 
L 190.291973 157.924859 
L 190.942583 161.921881 
L 191.593194 160.773976 
L 192.243804 156.66023 
L 192.894414 144.665084 
L 193.545025 145.844318 
L 194.195635 145.648476 
L 194.846245 146.255053 
L 195.496856 162.964798 
L 196.147466 160.872449 
L 196.798076 157.054682 
L 197.448686 162.464098 
L 198.099297 144.949534 
L 198.749907 146.03465 
L 199.400517 141.432472 
L 200.051128 149.110825 
L 200.701738 152.245421 
L 201.352348 148.421553 
L 202.002959 154.905425 
L 202.653569 158.749467 
L 203.304179 151.712944 
L 203.95479 161.372458 
L 204.6054 161.931103 
L 205.25601 159.075083 
L 205.906621 162.908602 
L 206.557231 153.76043 
L 207.207841 153.153051 
L 207.858451 157.301187 
L 208.509062 157.65165 
L 209.159672 146.265096 
L 209.810282 150.456788 
L 210.460893 161.649074 
L 211.111503 154.452177 
L 211.762113 161.208269 
L 212.412724 147.075626 
L 213.063334 155.103568 
L 213.713944 157.98861 
L 214.364555 150.418208 
L 215.015165 151.837594 
L 215.665775 149.941497 
L 216.316385 162.892825 
L 216.966996 156.849103 
L 217.617606 161.019675 
L 218.268216 145.579072 
L 218.918827 156.091329 
L 219.569437 152.252779 
L 220.220047 160.032788 
L 220.870658 148.662144 
L 221.521268 158.15182 
L 222.171878 149.225222 
L 222.822489 155.190168 
L 223.473099 154.175148 
L 224.123709 151.365906 
L 224.77432 155.208087 
L 225.42493 156.127076 
L 226.07554 146.637902 
L 226.72615 156.182907 
L 227.376761 139.895485 
L 228.027371 147.273893 
L 228.677981 159.58793 
L 229.328592 152.777497 
L 229.979202 149.799979 
L 230.629812 157.186136 
L 231.280423 160.874072 
L 231.931033 157.993095 
L 232.581643 145.577201 
L 233.232254 153.023852 
L 233.882864 148.173626 
L 234.533474 150.419982 
L 235.184085 142.181591 
L 235.834695 143.418239 
L 236.485305 151.398821 
L 237.135915 145.974922 
L 237.786526 151.845501 
L 238.437136 131.657522 
L 239.087746 140.141289 
L 239.738357 146.141346 
L 240.388967 150.888096 
L 241.039577 150.811805 
L 241.690188 154.91333 
L 242.340798 153.429483 
L 242.991408 155.727452 
L 243.642019 153.024836 
L 244.292629 151.398131 
L 244.943239 157.93482 
L 245.59385 161.011273 
L 246.24446 164.833782 
L 246.89507 164.431991 
L 247.54568 162.625103 
L 248.196291 162.919283 
L 248.846901 165.91088 
L 249.497511 165.496483 
L 250.148122 157.133183 
L 250.798732 154.706545 
L 251.449342 159.626337 
L 252.099953 166.751902 
L 252.750563 164.710542 
L 253.401173 164.680675 
L 254.051784 147.942391 
L 254.702394 159.142607 
L 255.353004 158.771156 
L 256.003615 156.882692 
L 256.654225 158.840211 
L 257.304835 159.154017 
L 257.955445 163.703583 
L 258.606056 160.465016 
L 259.256666 161.607952 
L 259.907276 145.876264 
L 260.557887 155.609731 
L 261.208497 160.514706 
L 261.859107 152.916787 
L 262.509718 150.357325 
L 263.160328 144.719367 
L 263.810938 154.130262 
L 264.461549 156.617411 
L 265.112159 158.136482 
L 265.762769 158.555033 
L 266.413379 154.704267 
L 267.06399 149.225034 
L 267.7146 160.5799 
L 268.36521 152.327806 
L 269.015821 152.803393 
L 269.666431 160.926085 
L 270.967652 157.759084 
L 271.618262 144.260617 
L 272.268872 160.153044 
L 272.919483 159.989804 
L 273.570093 154.628123 
L 274.220703 160.070716 
L 274.871314 161.487239 
L 275.521924 150.484676 
L 276.172534 154.531733 
L 276.823144 157.026162 
L 277.473755 144.377192 
L 278.774975 159.4579 
L 279.425586 144.868248 
L 280.076196 149.309622 
L 280.726806 159.306535 
L 281.377417 156.155666 
L 282.028027 156.541559 
L 282.678637 157.760468 
L 283.329248 141.76355 
L 283.979858 152.03911 
L 284.630468 156.099601 
L 285.281079 149.731333 
L 285.931689 160.903473 
L 286.582299 157.023916 
L 287.232909 161.081478 
L 287.88352 151.814986 
L 289.18474 156.608185 
L 289.835351 156.684662 
L 290.485961 155.732805 
L 291.136571 167.97571 
L 291.787182 163.971969 
L 292.437792 154.57397 
L 293.088402 165.234566 
L 293.739013 152.658568 
L 294.389623 157.805851 
L 295.040233 160.962753 
L 295.690844 148.17852 
L 296.341454 160.94943 
L 296.992064 154.256515 
L 297.642674 155.173614 
L 298.293285 155.74671 
L 298.943895 148.312397 
L 299.594505 158.280591 
L 300.245116 154.602632 
L 300.895726 150.225118 
L 301.546336 158.248946 
L 302.196947 156.69233 
L 302.847557 152.169934 
L 303.498167 157.016985 
L 304.148778 154.344337 
L 304.799388 139.921843 
L 306.100608 158.451921 
L 306.751219 159.591535 
L 307.401829 157.050424 
L 308.052439 156.223726 
L 308.70305 157.802916 
L 309.35366 145.973458 
L 310.00427 157.704388 
L 310.654881 160.094903 
L 311.305491 156.12243 
L 311.956101 153.18579 
L 312.606712 154.32951 
L 313.257322 160.535676 
L 313.907932 159.289985 
L 314.558543 156.60429 
L 315.859763 160.906359 
L 316.510373 152.233628 
L 317.160984 159.447271 
L 317.811594 155.55419 
L 318.462204 146.739964 
L 319.112815 155.007658 
L 319.763425 150.17567 
L 320.414035 159.94443 
L 321.064646 150.009377 
L 321.715256 145.155688 
L 322.365866 153.848806 
L 323.016477 157.242434 
L 323.667087 156.042989 
L 324.317697 158.237296 
L 324.968308 152.674805 
L 325.618918 157.387046 
L 326.269528 154.913067 
L 326.920138 156.642513 
L 327.570749 152.460204 
L 328.221359 157.73535 
L 328.871969 150.887022 
L 329.52258 146.295001 
L 330.17319 143.492798 
L 331.474411 152.509346 
L 332.125021 143.347422 
L 332.775631 154.310778 
L 333.426242 135.152105 
L 334.076852 150.77393 
L 334.727462 157.632901 
L 335.378073 157.111088 
L 336.028683 157.063099 
L 336.679293 150.977957 
L 337.329903 158.832697 
L 337.980514 158.50992 
L 338.631124 160.821093 
L 339.281734 157.772224 
L 339.932345 157.152976 
L 340.582955 144.507199 
L 341.233565 158.565155 
L 341.884176 158.387956 
L 342.534786 152.13783 
L 343.185396 153.702597 
L 343.836007 149.44332 
L 344.486617 156.17163 
L 345.137227 149.541312 
L 345.787837 159.124027 
L 346.438448 159.604103 
L 347.089058 159.346488 
L 347.739668 155.910758 
L 348.390279 149.282648 
L 349.040889 156.140601 
L 349.691499 155.747624 
L 350.34211 154.448428 
L 350.99272 154.854223 
L 351.64333 150.944785 
L 352.293941 149.670341 
L 352.944551 155.85917 
L 353.595161 145.072291 
L 354.245772 144.583176 
L 354.896382 148.756409 
L 355.546992 140.592068 
L 356.197602 146.248173 
L 356.848213 145.457688 
L 357.498823 143.707149 
L 358.149433 153.709591 
L 358.800044 157.597889 
L 359.450654 134.923687 
L 360.101264 160.622263 
L 360.751875 157.880787 
L 361.402485 153.543751 
L 362.053095 155.438268 
L 362.703706 162.440578 
L 363.354316 161.513887 
L 364.004926 133.234765 
L 364.655537 157.763036 
L 365.306147 150.507659 
L 365.956757 156.000763 
L 366.607367 149.330501 
L 367.257978 148.26942 
L 367.908588 143.276206 
L 368.559198 144.925167 
L 369.209809 148.130469 
L 369.860419 153.277184 
L 370.511029 145.063778 
L 371.16164 152.756695 
L 371.81225 157.920302 
L 372.46286 160.463446 
L 373.113471 158.236501 
L 373.764081 159.042995 
L 374.414691 152.381901 
L 375.065302 140.865384 
L 375.715912 156.276249 
L 376.366522 157.786856 
L 377.017132 148.856371 
L 377.667743 143.762534 
L 378.318353 152.486856 
L 378.968963 156.499087 
L 379.619574 154.845297 
L 380.270184 143.396779 
L 380.920794 157.96712 
L 381.571405 117.545637 
L 382.222015 156.742804 
L 382.872625 143.927311 
L 383.523236 153.372367 
L 384.173846 157.795706 
L 384.824456 156.870754 
L 385.475066 156.353734 
L 386.125677 157.865472 
L 386.776287 157.981219 
L 387.426897 158.485282 
L 388.077508 153.222508 
L 388.728118 157.966677 
L 389.378728 160.829709 
L 390.029339 156.868959 
L 390.679949 146.976237 
L 391.330559 157.628467 
L 391.98117 157.832605 
L 392.63178 157.368627 
L 393.28239 154.347346 
L 393.933001 155.68333 
L 394.583611 151.397428 
L 395.234221 153.702093 
L 395.884831 160.89987 
L 397.186052 152.69397 
L 397.836662 154.633388 
L 398.487273 150.284204 
L 398.487273 150.284204 
" clip-path="url(#p09feb41557)" style="fill: none; stroke-dasharray: 9.6,2.4,1.5,2.4; stroke-dashoffset: 0; stroke: #008000; stroke-width: 1.5"/>
   </g>
   <g id="line2d_32">
    <path d="M 73.832727 173.753511 
L 74.483338 159.37434 
L 80.33883 159.37434 
L 81.640051 158.134449 
L 86.844934 158.134449 
L 87.495544 153.810771 
L 89.447375 153.810771 
L 90.097985 152.600345 
L 95.302868 152.600345 
L 95.953478 126.797665 
L 102.459581 126.797665 
L 103.110191 119.907641 
L 107.664463 119.907641 
L 108.315074 102.40117 
L 116.122398 102.40117 
L 116.773008 76.86216 
L 164.918171 76.86216 
L 165.568781 68.911776 
L 179.882208 68.911776 
L 180.532818 60.694689 
L 252.099953 60.694689 
L 252.750563 53.568 
L 398.487273 53.568 
L 398.487273 53.568 
" clip-path="url(#p09feb41557)" style="fill: none; stroke: #ff0000; stroke-width: 1.5; stroke-linecap: square"/>
   </g>
   <g id="patch_3">
    <path d="M 57.6 307.584 
L 57.6 41.472 
" style="fill: none; stroke: #000000; stroke-width: 0.8; stroke-linejoin: miter; stroke-linecap: square"/>
   </g>
   <g id="patch_4">
    <path d="M 414.72 307.584 
L 414.72 41.472 
" style="fill: none; stroke: #000000; stroke-width: 0.8; stroke-linejoin: miter; stroke-linecap: square"/>
   </g>
   <g id="patch_5">
    <path d="M 57.6 307.584 
L 414.72 307.584 
" style="fill: none; stroke: #000000; stroke-width: 0.8; stroke-linejoin: miter; stroke-linecap: square"/>
   </g>
   <g id="patch_6">
    <path d="M 57.6 41.472 
L 414.72 41.472 
" style="fill: none; stroke: #000000; stroke-width: 0.8; stroke-linejoin: miter; stroke-linecap: square"/>
   </g>
   <g id="text_17">
    <!-- Population's average and best fitness -->
    <g transform="translate(123.529687 35.472) scale(0.12 -0.12)">
     <defs>
      <path id="DejaVuSans-50" d="M 1259 4147 
L 1259 2394 
L 2053 2394 
Q 2494 2394 2734 2622 
Q 2975 2850 2975 3272 
Q 2975 3691 2734 3919 
Q 2494 4147 2053 4147 
L 1259 4147 
z
M 628 4666 
L 2053 4666 
Q 2838 4666 3239 4311 
Q 3641 3956 3641 3272 
Q 3641 2581 3239 2228 
Q 2838 1875 2053 1875 
L 1259 1875 
L 1259 0 
L 628 0 
L 628 4666 
z
" transform="scale(0.015625)"/>
      <path id="DejaVuSans-70" d="M 1159 525 
L 1159 -1331 
L 581 -1331 
L 581 3500 
L 1159 3500 
L 1159 2969 
Q 1341 3281 1617 3432 
Q 1894 3584 2278 3584 
Q 2916 3584 3314 3078 
Q 3713 2572 3713 1747 
Q 3713 922 3314 415 
Q 2916 -91 2278 -91 
Q 1894 -91 1617 61 
Q 1341 213 1159 525 
z
M 3116 1747 
Q 3116 2381 2855 2742 
Q 2594 3103 2138 3103 
Q 1681 3103 1420 2742 
Q 1159 2381 1159 1747 
Q 1159 1113 1420 752 
Q 1681 391 2138 391 
Q 2594 391 2855 752 
Q 3116 1113 3116 1747 
z
" transform="scale(0.015625)"/>
      <path id="DejaVuSans-75" d="M 544 1381 
L 544 3500 
L 1119 3500 
L 1119 1403 
Q 1119 906 1312 657 
Q 1506 409 1894 409 
Q 2359 409 2629 706 
Q 2900 1003 2900 1516 
L 2900 3500 
L 3475 3500 
L 3475 0 
L 2900 0 
L 2900 538 
Q 2691 219 2414 64 
Q 2138 -91 1772 -91 
Q 1169 -91 856 284 
Q 544 659 544 1381 
z
M 1991 3584 
L 1991 3584 
z
" transform="scale(0.015625)"/>
      <path id="DejaVuSans-6c" d="M 603 4863 
L 1178 4863 
L 1178 0 
L 603 0 
L 603 4863 
z
" transform="scale(0.015625)"/>
      <path id="DejaVuSans-27" d="M 1147 4666 
L 1147 2931 
L 616 2931 
L 616 4666 
L 1147 4666 
z
" transform="scale(0.015625)"/>
      <path id="DejaVuSans-20" transform="scale(0.015625)"/>
      <path id="DejaVuSans-76" d="M 191 3500 
L 800 3500 
L 1894 563 
L 2988 3500 
L 3597 3500 
L 2284 0 
L 1503 0 
L 191 3500 
z
" transform="scale(0.015625)"/>
      <path id="DejaVuSans-67" d="M 2906 1791 
Q 2906 2416 2648 2759 
Q 2391 3103 1925 3103 
Q 1463 3103 1205 2759 
Q 947 2416 947 1791 
Q 947 1169 1205 825 
Q 1463 481 1925 481 
Q 2391 481 2648 825 
Q 2906 1169 2906 1791 
z
M 3481 434 
Q 3481 -459 3084 -895 
Q 2688 -1331 1869 -1331 
Q 1566 -1331 1297 -1286 
Q 1028 -1241 775 -1147 
L 775 -588 
Q 1028 -725 1275 -790 
Q 1522 -856 1778 -856 
Q 2344 -856 2625 -561 
Q 2906 -266 2906 331 
L 2906 616 
Q 2728 306 2450 153 
Q 2172 0 1784 0 
Q 1141 0 747 490 
Q 353 981 353 1791 
Q 353 2603 747 3093 
Q 1141 3584 1784 3584 
Q 2172 3584 2450 3431 
Q 2728 3278 2906 2969 
L 2906 3500 
L 3481 3500 
L 3481 434 
z
" transform="scale(0.015625)"/>
      <path id="DejaVuSans-64" d="M 2906 2969 
L 2906 4863 
L 3481 4863 
L 3481 0 
L 2906 0 
L 2906 525 
Q 2725 213 2448 61 
Q 2172 -91 1784 -91 
Q 1150 -91 751 415 
Q 353 922 353 1747 
Q 353 2572 751 3078 
Q 1150 3584 1784 3584 
Q 2172 3584 2448 3432 
Q 2725 3281 2906 2969 
z
M 947 1747 
Q 947 1113 1208 752 
Q 1469 391 1925 391 
Q 2381 391 2643 752 
Q 2906 1113 2906 1747 
Q 2906 2381 2643 2742 
Q 2381 3103 1925 3103 
Q 1469 3103 1208 2742 
Q 947 2381 947 1747 
z
" transform="scale(0.015625)"/>
      <path id="DejaVuSans-62" d="M 3116 1747 
Q 3116 2381 2855 2742 
Q 2594 3103 2138 3103 
Q 1681 3103 1420 2742 
Q 1159 2381 1159 1747 
Q 1159 1113 1420 752 
Q 1681 391 2138 391 
Q 2594 391 2855 752 
Q 3116 1113 3116 1747 
z
M 1159 2969 
Q 1341 3281 1617 3432 
Q 1894 3584 2278 3584 
Q 2916 3584 3314 3078 
Q 3713 2572 3713 1747 
Q 3713 922 3314 415 
Q 2916 -91 2278 -91 
Q 1894 -91 1617 61 
Q 1341 213 1159 525 
L 1159 0 
L 581 0 
L 581 4863 
L 1159 4863 
L 1159 2969 
z
" transform="scale(0.015625)"/>
      <path id="DejaVuSans-66" d="M 2375 4863 
L 2375 4384 
L 1825 4384 
Q 1516 4384 1395 4259 
Q 1275 4134 1275 3809 
L 1275 3500 
L 2222 3500 
L 2222 3053 
L 1275 3053 
L 1275 0 
L 697 0 
L 697 3053 
L 147 3053 
L 147 3500 
L 697 3500 
L 697 3744 
Q 697 4328 969 4595 
Q 1241 4863 1831 4863 
L 2375 4863 
z
" transform="scale(0.015625)"/>
     </defs>
     <use xlink:href="#DejaVuSans-50"/>
     <use xlink:href="#DejaVuSans-6f" transform="translate(56.677734 0)"/>
     <use xlink:href="#DejaVuSans-70" transform="translate(117.859375 0)"/>
     <use xlink:href="#DejaVuSans-75" transform="translate(181.335938 0)"/>
     <use xlink:href="#DejaVuSans-6c" transform="translate(244.714844 0)"/>
     <use xlink:href="#DejaVuSans-61" transform="translate(272.498047 0)"/>
     <use xlink:href="#DejaVuSans-74" transform="translate(333.777344 0)"/>
     <use xlink:href="#DejaVuSans-69" transform="translate(372.986328 0)"/>
     <use xlink:href="#DejaVuSans-6f" transform="translate(400.769531 0)"/>
     <use xlink:href="#DejaVuSans-6e" transform="translate(461.951172 0)"/>
     <use xlink:href="#DejaVuSans-27" transform="translate(525.330078 0)"/>
     <use xlink:href="#DejaVuSans-73" transform="translate(552.820312 0)"/>
     <use xlink:href="#DejaVuSans-20" transform="translate(604.919922 0)"/>
     <use xlink:href="#DejaVuSans-61" transform="translate(636.707031 0)"/>
     <use xlink:href="#DejaVuSans-76" transform="translate(697.986328 0)"/>
     <use xlink:href="#DejaVuSans-65" transform="translate(757.166016 0)"/>
     <use xlink:href="#DejaVuSans-72" transform="translate(818.689453 0)"/>
     <use xlink:href="#DejaVuSans-61" transform="translate(859.802734 0)"/>
     <use xlink:href="#DejaVuSans-67" transform="translate(921.082031 0)"/>
     <use xlink:href="#DejaVuSans-65" transform="translate(984.558594 0)"/>
     <use xlink:href="#DejaVuSans-20" transform="translate(1046.082031 0)"/>
     <use xlink:href="#DejaVuSans-61" transform="translate(1077.869141 0)"/>
     <use xlink:href="#DejaVuSans-6e" transform="translate(1139.148438 0)"/>
     <use xlink:href="#DejaVuSans-64" transform="translate(1202.527344 0)"/>
     <use xlink:href="#DejaVuSans-20" transform="translate(1266.003906 0)"/>
     <use xlink:href="#DejaVuSans-62" transform="translate(1297.791016 0)"/>
     <use xlink:href="#DejaVuSans-65" transform="translate(1361.267578 0)"/>
     <use xlink:href="#DejaVuSans-73" transform="translate(1422.791016 0)"/>
     <use xlink:href="#DejaVuSans-74" transform="translate(1474.890625 0)"/>
     <use xlink:href="#DejaVuSans-20" transform="translate(1514.099609 0)"/>
     <use xlink:href="#DejaVuSans-66" transform="translate(1545.886719 0)"/>
     <use xlink:href="#DejaVuSans-69" transform="translate(1581.091797 0)"/>
     <use xlink:href="#DejaVuSans-74" transform="translate(1608.875 0)"/>
     <use xlink:href="#DejaVuSans-6e" transform="translate(1648.083984 0)"/>
     <use xlink:href="#DejaVuSans-65" transform="translate(1711.462891 0)"/>
     <use xlink:href="#DejaVuSans-73" transform="translate(1772.986328 0)"/>
     <use xlink:href="#DejaVuSans-73" transform="translate(1825.085938 0)"/>
    </g>
   </g>
   <g id="legend_1">
    <g id="patch_7">
     <path d="M 334.779375 302.584 
L 407.72 302.584 
Q 409.72 302.584 409.72 300.584 
L 409.72 242.8715 
Q 409.72 240.8715 407.72 240.8715 
L 334.779375 240.8715 
Q 332.779375 240.8715 332.779375 242.8715 
L 332.779375 300.584 
Q 332.779375 302.584 334.779375 302.584 
z
" style="fill: #ffffff; opacity: 0.8; stroke: #cccccc; stroke-linejoin: miter"/>
    </g>
    <g id="line2d_33">
     <path d="M 336.779375 248.969937 
L 346.779375 248.969937 
L 356.779375 248.969937 
" style="fill: none; stroke: #0000ff; stroke-width: 1.5; stroke-linecap: square"/>
    </g>
    <g id="text_18">
     <!-- average -->
     <g transform="translate(364.779375 252.469937) scale(0.1 -0.1)">
      <use xlink:href="#DejaVuSans-61"/>
      <use xlink:href="#DejaVuSans-76" transform="translate(61.279297 0)"/>
      <use xlink:href="#DejaVuSans-65" transform="translate(120.458984 0)"/>
      <use xlink:href="#DejaVuSans-72" transform="translate(181.982422 0)"/>
      <use xlink:href="#DejaVuSans-61" transform="translate(223.095703 0)"/>
      <use xlink:href="#DejaVuSans-67" transform="translate(284.375 0)"/>
      <use xlink:href="#DejaVuSans-65" transform="translate(347.851562 0)"/>
     </g>
    </g>
    <g id="line2d_34">
     <path d="M 336.779375 263.648062 
L 346.779375 263.648062 
L 356.779375 263.648062 
" style="fill: none; stroke-dasharray: 9.6,2.4,1.5,2.4; stroke-dashoffset: 0; stroke: #008000; stroke-width: 1.5"/>
    </g>
    <g id="text_19">
     <!-- -1 sd -->
     <g transform="translate(364.779375 267.148062) scale(0.1 -0.1)">
      <defs>
       <path id="DejaVuSans-2d" d="M 313 2009 
L 1997 2009 
L 1997 1497 
L 313 1497 
L 313 2009 
z
" transform="scale(0.015625)"/>
      </defs>
      <use xlink:href="#DejaVuSans-2d"/>
      <use xlink:href="#DejaVuSans-31" transform="translate(36.083984 0)"/>
      <use xlink:href="#DejaVuSans-20" transform="translate(99.707031 0)"/>
      <use xlink:href="#DejaVuSans-73" transform="translate(131.494141 0)"/>
      <use xlink:href="#DejaVuSans-64" transform="translate(183.59375 0)"/>
     </g>
    </g>
    <g id="line2d_35">
     <path d="M 336.779375 278.326187 
L 346.779375 278.326187 
L 356.779375 278.326187 
" style="fill: none; stroke-dasharray: 9.6,2.4,1.5,2.4; stroke-dashoffset: 0; stroke: #008000; stroke-width: 1.5"/>
    </g>
    <g id="text_20">
     <!-- +1 sd -->
     <g transform="translate(364.779375 281.826187) scale(0.1 -0.1)">
      <defs>
       <path id="DejaVuSans-2b" d="M 2944 4013 
L 2944 2272 
L 4684 2272 
L 4684 1741 
L 2944 1741 
L 2944 0 
L 2419 0 
L 2419 1741 
L 678 1741 
L 678 2272 
L 2419 2272 
L 2419 4013 
L 2944 4013 
z
" transform="scale(0.015625)"/>
      </defs>
      <use xlink:href="#DejaVuSans-2b"/>
      <use xlink:href="#DejaVuSans-31" transform="translate(83.789062 0)"/>
      <use xlink:href="#DejaVuSans-20" transform="translate(147.412109 0)"/>
      <use xlink:href="#DejaVuSans-73" transform="translate(179.199219 0)"/>
      <use xlink:href="#DejaVuSans-64" transform="translate(231.298828 0)"/>
     </g>
    </g>
    <g id="line2d_36">
     <path d="M 336.779375 293.004312 
L 346.779375 293.004312 
L 356.779375 293.004312 
" style="fill: none; stroke: #ff0000; stroke-width: 1.5; stroke-linecap: square"/>
    </g>
    <g id="text_21">
     <!-- best -->
     <g transform="translate(364.779375 296.504312) scale(0.1 -0.1)">
      <use xlink:href="#DejaVuSans-62"/>
      <use xlink:href="#DejaVuSans-65" transform="translate(63.476562 0)"/>
      <use xlink:href="#DejaVuSans-73" transform="translate(125 0)"/>
      <use xlink:href="#DejaVuSans-74" transform="translate(177.099609 0)"/>
     </g>
    </g>
   </g>
  </g>
 </g>
 <defs>
  <clipPath id="p09feb41557">
   <rect x="57.6" y="41.472" width="357.12" height="266.112"/>
  </clipPath>
 </defs>
</svg>
