<?xml version="1.0" encoding="UTF-8" standalone="no"?>
<!DOCTYPE svg PUBLIC "-//W3C//DTD SVG 1.1//EN"
 "http://www.w3.org/Graphics/SVG/1.1/DTD/svg11.dtd">
<!-- Generated by graphviz version 12.2.1 (20241206.2353)
 -->
<!-- Pages: 1 -->
<svg width="727pt" height="163pt"
 viewBox="0.00 0.00 727.39 162.85" xmlns="http://www.w3.org/2000/svg" xmlns:xlink="http://www.w3.org/1999/xlink">
<g id="graph0" class="graph" transform="scale(1 1) rotate(0) translate(4 158.85)">
<polygon fill="white" stroke="none" points="-4,4 -4,-158.85 723.39,-158.85 723.39,4 -4,4"/>
<!-- &#45;1 -->
<g id="node1" class="node">
<title>&#45;1</title>
<polygon fill="lightgray" stroke="black" points="547.75,-91.92 524.25,-91.92 524.25,-73.42 547.75,-73.42 547.75,-91.92"/>
<text text-anchor="middle" x="536" y="-79.37" font-family="Times New Roman,serif" font-size="9.00">&#45;1</text>
</g>
<!-- 0 -->
<g id="node16" class="node">
<title>0</title>
<ellipse fill="lightblue" stroke="black" cx="324" cy="-14.5" rx="14.5" ry="14.5"/>
<text text-anchor="middle" x="324" y="-11.2" font-family="Times New Roman,serif" font-size="9.00">0</text>
</g>
<!-- &#45;1&#45;&gt;0 -->
<g id="edge1" class="edge">
<title>&#45;1&#45;&gt;0</title>
<path fill="none" stroke="red" stroke-width="0.35" stroke-dasharray="1,5" d="M526.75,-72.95C523.28,-70.07 519.17,-67.07 515,-64.99 459.19,-37.18 386.18,-23.89 348.65,-18.54"/>
<polygon fill="red" stroke="red" stroke-width="0.35" points="349.52,-15.12 339.14,-17.25 348.58,-22.06 349.52,-15.12"/>
</g>
<!-- 1 -->
<g id="node17" class="node">
<title>1</title>
<ellipse fill="lightblue" stroke="black" cx="578" cy="-14.5" rx="14.5" ry="14.5"/>
<text text-anchor="middle" x="578" y="-11.2" font-family="Times New Roman,serif" font-size="9.00">1</text>
</g>
<!-- &#45;1&#45;&gt;1 -->
<g id="edge2" class="edge">
<title>&#45;1&#45;&gt;1</title>
<path fill="none" stroke="green" stroke-width="0.13" stroke-dasharray="1,5" d="M541.49,-73.02C547.5,-63.55 557.35,-48.04 565.3,-35.51"/>
<polygon fill="green" stroke="green" stroke-width="0.13" points="568.16,-37.53 570.56,-27.21 562.25,-33.78 568.16,-37.53"/>
</g>
<!-- &#45;2 -->
<g id="node2" class="node">
<title>&#45;2</title>
<polygon fill="lightgray" stroke="black" points="115.75,-91.92 92.25,-91.92 92.25,-73.42 115.75,-73.42 115.75,-91.92"/>
<text text-anchor="middle" x="104" y="-79.37" font-family="Times New Roman,serif" font-size="9.00">&#45;2</text>
</g>
<!-- &#45;2&#45;&gt;0 -->
<g id="edge3" class="edge">
<title>&#45;2&#45;&gt;0</title>
<path fill="none" stroke="red" stroke-width="0.32" d="M113.24,-72.93C116.7,-70.04 120.82,-67.05 125,-64.99 183.43,-36.22 259.98,-23.3 298.91,-18.26"/>
<polygon fill="red" stroke="red" stroke-width="0.32" points="299.29,-21.74 308.79,-17.05 298.44,-14.79 299.29,-21.74"/>
</g>
<!-- &#45;3 -->
<g id="node3" class="node">
<title>&#45;3</title>
<polygon fill="lightgray" stroke="black" points="589.75,-91.92 566.25,-91.92 566.25,-73.42 589.75,-73.42 589.75,-91.92"/>
<text text-anchor="middle" x="578" y="-79.37" font-family="Times New Roman,serif" font-size="9.00">&#45;3</text>
</g>
<!-- &#45;3&#45;&gt;0 -->
<g id="edge4" class="edge">
<title>&#45;3&#45;&gt;0</title>
<path fill="none" stroke="green" stroke-width="0.39" d="M569.21,-73.19C565.67,-70.19 561.38,-67.05 557,-64.99 486.28,-31.68 392.95,-20.57 348.97,-17.04"/>
<polygon fill="green" stroke="green" stroke-width="0.39" points="349.47,-13.57 339.24,-16.33 348.95,-20.55 349.47,-13.57"/>
</g>
<!-- &#45;3&#45;&gt;1 -->
<g id="edge5" class="edge">
<title>&#45;3&#45;&gt;1</title>
<path fill="none" stroke="red" stroke-width="0.27" d="M578,-73.02C578,-64.54 578,-51.23 578,-39.55"/>
<polygon fill="red" stroke="red" stroke-width="0.27" points="581.5,-39.88 578,-29.88 574.5,-39.88 581.5,-39.88"/>
</g>
<!-- &#45;4 -->
<g id="node4" class="node">
<title>&#45;4</title>
<polygon fill="lightgray" stroke="black" points="289.75,-154.85 266.25,-154.85 266.25,-136.35 289.75,-136.35 289.75,-154.85"/>
<text text-anchor="middle" x="278" y="-142.3" font-family="Times New Roman,serif" font-size="9.00">&#45;4</text>
</g>
<!-- &#45;4&#45;&gt;0 -->
<g id="edge6" class="edge">
<title>&#45;4&#45;&gt;0</title>
<path fill="none" stroke="green" stroke-width="0.53" d="M265.98,-141.36C248.86,-136.02 218.09,-123.59 205,-100.35 197.29,-86.66 196.28,-78.06 205,-64.99 225.85,-33.74 270.52,-22.19 298.81,-17.95"/>
<polygon fill="green" stroke="green" stroke-width="0.53" points="299.21,-21.42 308.68,-16.67 298.31,-14.48 299.21,-21.42"/>
</g>
<!-- &#45;4&#45;&gt;1 -->
<g id="edge7" class="edge">
<title>&#45;4&#45;&gt;1</title>
<path fill="none" stroke="red" stroke-width="0.23" stroke-dasharray="1,5" d="M290.01,-139.68C293.51,-138.41 297.36,-137.18 301,-136.35 375.06,-119.4 590.18,-156.83 641,-100.35 651.51,-88.67 647.87,-79.12 641,-64.99 632.52,-47.55 614.58,-34.42 600.01,-26.08"/>
<polygon fill="red" stroke="red" stroke-width="0.23" points="601.83,-23.09 591.36,-21.46 598.53,-29.26 601.83,-23.09"/>
</g>
<!-- 20 -->
<g id="node18" class="node">
<title>20</title>
<ellipse fill="white" stroke="black" cx="278" cy="-82.67" rx="17.68" ry="17.68"/>
<text text-anchor="middle" x="278" y="-79.37" font-family="Times New Roman,serif" font-size="9.00">20</text>
</g>
<!-- &#45;4&#45;&gt;20 -->
<g id="edge27" class="edge">
<title>&#45;4&#45;&gt;20</title>
<path fill="none" stroke="red" stroke-width="0.15" d="M278,-135.87C278,-129.17 278,-119.56 278,-110.4"/>
<polygon fill="red" stroke="red" stroke-width="0.15" points="281.5,-110.66 278,-100.66 274.5,-110.66 281.5,-110.66"/>
</g>
<!-- &#45;5 -->
<g id="node5" class="node">
<title>&#45;5</title>
<polygon fill="lightgray" stroke="black" points="157.75,-91.92 134.25,-91.92 134.25,-73.42 157.75,-73.42 157.75,-91.92"/>
<text text-anchor="middle" x="146" y="-79.37" font-family="Times New Roman,serif" font-size="9.00">&#45;5</text>
</g>
<!-- &#45;5&#45;&gt;0 -->
<g id="edge8" class="edge">
<title>&#45;5&#45;&gt;0</title>
<path fill="none" stroke="red" stroke-width="0.13" stroke-dasharray="1,5" d="M158.06,-73.02C162.33,-70.21 167.25,-67.24 172,-64.99 215.3,-44.47 269.33,-29.12 299.92,-21.29"/>
<polygon fill="red" stroke="red" stroke-width="0.13" points="300.67,-24.71 309.52,-18.89 298.97,-17.92 300.67,-24.71"/>
</g>
<!-- &#45;6 -->
<g id="node6" class="node">
<title>&#45;6</title>
<polygon fill="lightgray" stroke="black" points="333.75,-154.85 310.25,-154.85 310.25,-136.35 333.75,-136.35 333.75,-154.85"/>
<text text-anchor="middle" x="322" y="-142.3" font-family="Times New Roman,serif" font-size="9.00">&#45;6</text>
</g>
<!-- &#45;6&#45;&gt;0 -->
<g id="edge9" class="edge">
<title>&#45;6&#45;&gt;0</title>
<path fill="none" stroke="green" stroke-width="0.21" d="M322.13,-136.13C322.43,-116.83 323.17,-68.99 323.63,-39.69"/>
<polygon fill="green" stroke="green" stroke-width="0.21" points="327.12,-39.84 323.78,-29.78 320.12,-39.73 327.12,-39.84"/>
</g>
<!-- &#45;6&#45;&gt;1 -->
<g id="edge10" class="edge">
<title>&#45;6&#45;&gt;1</title>
<path fill="none" stroke="green" stroke-width="0.37" d="M333.81,-139.32C336.77,-138.18 339.96,-137.1 343,-136.35 414.85,-118.66 624.59,-155.42 674,-100.35 684.49,-88.65 682.18,-78.41 674,-64.99 658.5,-39.56 625.27,-26.63 602.29,-20.48"/>
<polygon fill="green" stroke="green" stroke-width="0.37" points="603.33,-17.13 592.79,-18.18 601.68,-23.94 603.33,-17.13"/>
</g>
<!-- &#45;6&#45;&gt;20 -->
<g id="edge26" class="edge">
<title>&#45;6&#45;&gt;20</title>
<path fill="none" stroke="green" stroke-width="0.12" d="M315.7,-135.87C310,-127.97 301.36,-116.02 293.8,-105.54"/>
<polygon fill="green" stroke="green" stroke-width="0.12" points="296.83,-103.77 288.14,-97.71 291.16,-107.86 296.83,-103.77"/>
</g>
<!-- &#45;7 -->
<g id="node7" class="node">
<title>&#45;7</title>
<polygon fill="lightgray" stroke="black" points="421.75,-154.85 398.25,-154.85 398.25,-136.35 421.75,-136.35 421.75,-154.85"/>
<text text-anchor="middle" x="410" y="-142.3" font-family="Times New Roman,serif" font-size="9.00">&#45;7</text>
</g>
<!-- &#45;8 -->
<g id="node8" class="node">
<title>&#45;8</title>
<polygon fill="lightgray" stroke="black" points="631.75,-91.92 608.25,-91.92 608.25,-73.42 631.75,-73.42 631.75,-91.92"/>
<text text-anchor="middle" x="620" y="-79.37" font-family="Times New Roman,serif" font-size="9.00">&#45;8</text>
</g>
<!-- &#45;8&#45;&gt;0 -->
<g id="edge11" class="edge">
<title>&#45;8&#45;&gt;0</title>
<path fill="none" stroke="green" stroke-width="0.18" stroke-dasharray="1,5" d="M611.25,-73.12C607.7,-70.11 603.41,-66.99 599,-64.99 512.91,-26.07 398.63,-17.72 348.9,-15.96"/>
<polygon fill="green" stroke="green" stroke-width="0.18" points="349.12,-12.46 339.03,-15.67 348.92,-19.46 349.12,-12.46"/>
</g>
<!-- &#45;8&#45;&gt;1 -->
<g id="edge12" class="edge">
<title>&#45;8&#45;&gt;1</title>
<path fill="none" stroke="red" stroke-width="1.06" d="M614.51,-73.02C608.67,-63.82 599.22,-48.94 591.4,-36.61"/>
<polygon fill="red" stroke="red" stroke-width="1.06" points="594.5,-34.96 586.18,-28.39 588.59,-38.71 594.5,-34.96"/>
</g>
<!-- &#45;9 -->
<g id="node9" class="node">
<title>&#45;9</title>
<polygon fill="lightgray" stroke="black" points="413.75,-91.92 390.25,-91.92 390.25,-73.42 413.75,-73.42 413.75,-91.92"/>
<text text-anchor="middle" x="402" y="-79.37" font-family="Times New Roman,serif" font-size="9.00">&#45;9</text>
</g>
<!-- &#45;9&#45;&gt;0 -->
<g id="edge13" class="edge">
<title>&#45;9&#45;&gt;0</title>
<path fill="none" stroke="red" stroke-width="0.13" d="M391.8,-73.02C379.21,-62.34 357.58,-43.98 342.13,-30.88"/>
<polygon fill="red" stroke="red" stroke-width="0.13" points="344.74,-28.5 334.85,-24.7 340.21,-33.84 344.74,-28.5"/>
</g>
<!-- &#45;9&#45;&gt;1 -->
<g id="edge14" class="edge">
<title>&#45;9&#45;&gt;1</title>
<path fill="none" stroke="green" stroke-width="0.47" d="M411.31,-73.08C414.79,-70.21 418.89,-67.18 423,-64.99 466.25,-41.91 522.09,-27.38 553.58,-20.41"/>
<polygon fill="green" stroke="green" stroke-width="0.47" points="553.89,-23.92 562.94,-18.41 552.43,-17.08 553.89,-23.92"/>
</g>
<!-- &#45;10 -->
<g id="node10" class="node">
<title>&#45;10</title>
<polygon fill="lightgray" stroke="black" points="380,-154.85 352,-154.85 352,-136.35 380,-136.35 380,-154.85"/>
<text text-anchor="middle" x="366" y="-142.3" font-family="Times New Roman,serif" font-size="9.00">&#45;10</text>
</g>
<!-- &#45;10&#45;&gt;0 -->
<g id="edge15" class="edge">
<title>&#45;10&#45;&gt;0</title>
<path fill="none" stroke="red" stroke-width="0.73" stroke-dasharray="1,5" d="M363.24,-136.13C356.93,-116.71 341.22,-68.43 331.7,-39.18"/>
<polygon fill="red" stroke="red" stroke-width="0.73" points="335.04,-38.12 328.62,-29.69 328.38,-40.28 335.04,-38.12"/>
</g>
<!-- &#45;10&#45;&gt;1 -->
<g id="edge16" class="edge">
<title>&#45;10&#45;&gt;1</title>
<path fill="none" stroke="red" stroke-width="0.2" d="M380.45,-138.84C383.25,-137.89 386.19,-137 389,-136.35 459.36,-120.04 663.84,-154.17 712,-100.35 722.48,-88.64 720.98,-77.88 712,-64.99 687.4,-29.68 634.57,-19.5 603.1,-16.6"/>
<polygon fill="red" stroke="red" stroke-width="0.2" points="603.46,-13.12 593.23,-15.87 602.95,-20.1 603.46,-13.12"/>
</g>
<!-- &#45;10&#45;&gt;20 -->
<g id="edge24" class="edge">
<title>&#45;10&#45;&gt;20</title>
<path fill="none" stroke="green" stroke-width="0.11" stroke-dasharray="1,5" d="M353.39,-135.87C339.63,-126.34 317.33,-110.9 300.54,-99.27"/>
<polygon fill="green" stroke="green" stroke-width="0.11" points="302.69,-96.51 292.48,-93.69 298.71,-102.26 302.69,-96.51"/>
</g>
<!-- &#45;11 -->
<g id="node11" class="node">
<title>&#45;11</title>
<polygon fill="lightgray" stroke="black" points="460,-91.92 432,-91.92 432,-73.42 460,-73.42 460,-91.92"/>
<text text-anchor="middle" x="446" y="-79.37" font-family="Times New Roman,serif" font-size="9.00">&#45;11</text>
</g>
<!-- &#45;11&#45;&gt;0 -->
<g id="edge17" class="edge">
<title>&#45;11&#45;&gt;0</title>
<path fill="none" stroke="green" stroke-width="0.41" stroke-dasharray="1,5" d="M435.02,-73.15C431.29,-70.41 427.05,-67.45 423,-64.99 397.7,-49.64 367.02,-34.85 346.58,-25.5"/>
<polygon fill="green" stroke="green" stroke-width="0.41" points="348.29,-22.43 337.74,-21.5 345.41,-28.81 348.29,-22.43"/>
</g>
<!-- &#45;11&#45;&gt;1 -->
<g id="edge18" class="edge">
<title>&#45;11&#45;&gt;1</title>
<path fill="none" stroke="green" stroke-width="0.17" stroke-dasharray="1,5" d="M456.93,-73.06C460.65,-70.31 464.91,-67.37 469,-64.99 497.51,-48.41 532.56,-33.37 555.09,-24.32"/>
<polygon fill="green" stroke="green" stroke-width="0.17" points="556.24,-27.63 564.25,-20.7 553.66,-21.12 556.24,-27.63"/>
</g>
<!-- &#45;12 -->
<g id="node12" class="node">
<title>&#45;12</title>
<polygon fill="lightgray" stroke="black" points="242,-91.92 214,-91.92 214,-73.42 242,-73.42 242,-91.92"/>
<text text-anchor="middle" x="228" y="-79.37" font-family="Times New Roman,serif" font-size="9.00">&#45;12</text>
</g>
<!-- &#45;12&#45;&gt;0 -->
<g id="edge19" class="edge">
<title>&#45;12&#45;&gt;0</title>
<path fill="none" stroke="red" stroke-width="0.69" stroke-dasharray="1,5" d="M239.65,-73.11C243.27,-70.48 247.28,-67.6 251,-64.99 268.48,-52.73 288.58,-39.14 303.26,-29.31"/>
<polygon fill="red" stroke="red" stroke-width="0.69" points="304.79,-32.49 311.16,-24.02 300.9,-26.67 304.79,-32.49"/>
</g>
<!-- &#45;13 -->
<g id="node13" class="node">
<title>&#45;13</title>
<polygon fill="lightgray" stroke="black" points="28,-91.92 0,-91.92 0,-73.42 28,-73.42 28,-91.92"/>
<text text-anchor="middle" x="14" y="-79.37" font-family="Times New Roman,serif" font-size="9.00">&#45;13</text>
</g>
<!-- &#45;13&#45;&gt;0 -->
<g id="edge20" class="edge">
<title>&#45;13&#45;&gt;0</title>
<path fill="none" stroke="red" stroke-width="0.13" d="M23.7,-73.12C27.59,-70.11 32.27,-66.98 37,-64.99 128.37,-26.46 248.17,-17.92 299.23,-16.03"/>
<polygon fill="red" stroke="red" stroke-width="0.13" points="299.23,-19.53 309.12,-15.72 299.01,-12.53 299.23,-19.53"/>
</g>
<!-- &#45;14 -->
<g id="node14" class="node">
<title>&#45;14</title>
<polygon fill="lightgray" stroke="black" points="506,-91.92 478,-91.92 478,-73.42 506,-73.42 506,-91.92"/>
<text text-anchor="middle" x="492" y="-79.37" font-family="Times New Roman,serif" font-size="9.00">&#45;14</text>
</g>
<!-- &#45;14&#45;&gt;0 -->
<g id="edge21" class="edge">
<title>&#45;14&#45;&gt;0</title>
<path fill="none" stroke="red" stroke-width="0.13" d="M481.67,-73.17C477.85,-70.3 473.38,-67.26 469,-64.99 428.62,-44.06 377.49,-29.01 347.98,-21.32"/>
<polygon fill="red" stroke="red" stroke-width="0.13" points="348.9,-17.94 338.35,-18.87 347.18,-24.73 348.9,-17.94"/>
</g>
<!-- &#45;14&#45;&gt;1 -->
<g id="edge22" class="edge">
<title>&#45;14&#45;&gt;1</title>
<path fill="none" stroke="green" stroke-width="0.28" stroke-dasharray="1,5" d="M503.24,-73.02C517.28,-62.22 541.51,-43.57 558.58,-30.44"/>
<polygon fill="green" stroke="green" stroke-width="0.28" points="560.63,-33.28 566.42,-24.4 556.36,-27.73 560.63,-33.28"/>
</g>
<!-- &#45;15 -->
<g id="node15" class="node">
<title>&#45;15</title>
<polygon fill="lightgray" stroke="black" points="74,-91.92 46,-91.92 46,-73.42 74,-73.42 74,-91.92"/>
<text text-anchor="middle" x="60" y="-79.37" font-family="Times New Roman,serif" font-size="9.00">&#45;15</text>
</g>
<!-- &#45;15&#45;&gt;0 -->
<g id="edge23" class="edge">
<title>&#45;15&#45;&gt;0</title>
<path fill="none" stroke="green" stroke-width="0.31" stroke-dasharray="1,5" d="M69.73,-73.2C73.63,-70.2 78.31,-67.06 83,-64.99 157.23,-32.29 253.95,-20.87 298.95,-17.15"/>
<polygon fill="green" stroke="green" stroke-width="0.31" points="299.05,-20.65 308.76,-16.4 298.52,-13.67 299.05,-20.65"/>
</g>
<!-- 20&#45;&gt;0 -->
<g id="edge25" class="edge">
<title>20&#45;&gt;0</title>
<path fill="none" stroke="green" stroke-width="0.16" stroke-dasharray="1,5" d="M287.76,-67.64C294.35,-58.15 303.14,-45.5 310.42,-35.03"/>
<polygon fill="green" stroke="green" stroke-width="0.16" points="313.12,-37.28 315.95,-27.07 307.37,-33.28 313.12,-37.28"/>
</g>
</g>
</svg>
