<?xml version="1.0" encoding="utf-8" standalone="no"?>
<!DOCTYPE svg PUBLIC "-//W3C//DTD SVG 1.1//EN"
  "http://www.w3.org/Graphics/SVG/1.1/DTD/svg11.dtd">
<svg xmlns:xlink="http://www.w3.org/1999/xlink" width="460.8pt" height="345.6pt" viewBox="0 0 460.8 345.6" xmlns="http://www.w3.org/2000/svg" version="1.1">
 <metadata>
  <rdf:RDF xmlns:dc="http://purl.org/dc/elements/1.1/" xmlns:cc="http://creativecommons.org/ns#" xmlns:rdf="http://www.w3.org/1999/02/22-rdf-syntax-ns#">
   <cc:Work>
    <dc:type rdf:resource="http://purl.org/dc/dcmitype/StillImage"/>
    <dc:date>2025-07-09T20:10:27.319307</dc:date>
    <dc:format>image/svg+xml</dc:format>
    <dc:creator>
     <cc:Agent>
      <dc:title>Matplotlib v3.10.0, https://matplotlib.org/</dc:title>
     </cc:Agent>
    </dc:creator>
   </cc:Work>
  </rdf:RDF>
 </metadata>
 <defs>
  <style type="text/css">*{stroke-linejoin: round; stroke-linecap: butt}</style>
 </defs>
 <g id="figure_1">
  <g id="patch_1">
   <path d="M 0 345.6 
L 460.8 345.6 
L 460.8 0 
L 0 0 
z
" style="fill: #ffffff"/>
  </g>
  <g id="axes_1">
   <g id="patch_2">
    <path d="M 57.6 307.584 
L 414.72 307.584 
L 414.72 41.472 
L 57.6 41.472 
z
" style="fill: #ffffff"/>
   </g>
   <g id="matplotlib.axis_1">
    <g id="xtick_1">
     <g id="line2d_1">
      <path d="M 73.832727 307.584 
L 73.832727 41.472 
" clip-path="url(#p455e1d2a0c)" style="fill: none; stroke: #b0b0b0; stroke-width: 0.8; stroke-linecap: square"/>
     </g>
     <g id="line2d_2">
      <defs>
       <path id="mb002f9066e" d="M 0 0 
L 0 3.5 
" style="stroke: #000000; stroke-width: 0.8"/>
      </defs>
      <g>
       <use xlink:href="#mb002f9066e" x="73.832727" y="307.584" style="stroke: #000000; stroke-width: 0.8"/>
      </g>
     </g>
     <g id="text_1">
      <!-- 0 -->
      <g transform="translate(70.651477 322.182437) scale(0.1 -0.1)">
       <defs>
        <path id="DejaVuSans-30" d="M 2034 4250 
Q 1547 4250 1301 3770 
Q 1056 3291 1056 2328 
Q 1056 1369 1301 889 
Q 1547 409 2034 409 
Q 2525 409 2770 889 
Q 3016 1369 3016 2328 
Q 3016 3291 2770 3770 
Q 2525 4250 2034 4250 
z
M 2034 4750 
Q 2819 4750 3233 4129 
Q 3647 3509 3647 2328 
Q 3647 1150 3233 529 
Q 2819 -91 2034 -91 
Q 1250 -91 836 529 
Q 422 1150 422 2328 
Q 422 3509 836 4129 
Q 1250 4750 2034 4750 
z
" transform="scale(0.015625)"/>
       </defs>
       <use xlink:href="#DejaVuSans-30"/>
      </g>
     </g>
    </g>
    <g id="xtick_2">
     <g id="line2d_3">
      <path d="M 138.893758 307.584 
L 138.893758 41.472 
" clip-path="url(#p455e1d2a0c)" style="fill: none; stroke: #b0b0b0; stroke-width: 0.8; stroke-linecap: square"/>
     </g>
     <g id="line2d_4">
      <g>
       <use xlink:href="#mb002f9066e" x="138.893758" y="307.584" style="stroke: #000000; stroke-width: 0.8"/>
      </g>
     </g>
     <g id="text_2">
      <!-- 100 -->
      <g transform="translate(129.350008 322.182437) scale(0.1 -0.1)">
       <defs>
        <path id="DejaVuSans-31" d="M 794 531 
L 1825 531 
L 1825 4091 
L 703 3866 
L 703 4441 
L 1819 4666 
L 2450 4666 
L 2450 531 
L 3481 531 
L 3481 0 
L 794 0 
L 794 531 
z
" transform="scale(0.015625)"/>
       </defs>
       <use xlink:href="#DejaVuSans-31"/>
       <use xlink:href="#DejaVuSans-30" transform="translate(63.623047 0)"/>
       <use xlink:href="#DejaVuSans-30" transform="translate(127.246094 0)"/>
      </g>
     </g>
    </g>
    <g id="xtick_3">
     <g id="line2d_5">
      <path d="M 203.95479 307.584 
L 203.95479 41.472 
" clip-path="url(#p455e1d2a0c)" style="fill: none; stroke: #b0b0b0; stroke-width: 0.8; stroke-linecap: square"/>
     </g>
     <g id="line2d_6">
      <g>
       <use xlink:href="#mb002f9066e" x="203.95479" y="307.584" style="stroke: #000000; stroke-width: 0.8"/>
      </g>
     </g>
     <g id="text_3">
      <!-- 200 -->
      <g transform="translate(194.41104 322.182437) scale(0.1 -0.1)">
       <defs>
        <path id="DejaVuSans-32" d="M 1228 531 
L 3431 531 
L 3431 0 
L 469 0 
L 469 531 
Q 828 903 1448 1529 
Q 2069 2156 2228 2338 
Q 2531 2678 2651 2914 
Q 2772 3150 2772 3378 
Q 2772 3750 2511 3984 
Q 2250 4219 1831 4219 
Q 1534 4219 1204 4116 
Q 875 4013 500 3803 
L 500 4441 
Q 881 4594 1212 4672 
Q 1544 4750 1819 4750 
Q 2544 4750 2975 4387 
Q 3406 4025 3406 3419 
Q 3406 3131 3298 2873 
Q 3191 2616 2906 2266 
Q 2828 2175 2409 1742 
Q 1991 1309 1228 531 
z
" transform="scale(0.015625)"/>
       </defs>
       <use xlink:href="#DejaVuSans-32"/>
       <use xlink:href="#DejaVuSans-30" transform="translate(63.623047 0)"/>
       <use xlink:href="#DejaVuSans-30" transform="translate(127.246094 0)"/>
      </g>
     </g>
    </g>
    <g id="xtick_4">
     <g id="line2d_7">
      <path d="M 269.015821 307.584 
L 269.015821 41.472 
" clip-path="url(#p455e1d2a0c)" style="fill: none; stroke: #b0b0b0; stroke-width: 0.8; stroke-linecap: square"/>
     </g>
     <g id="line2d_8">
      <g>
       <use xlink:href="#mb002f9066e" x="269.015821" y="307.584" style="stroke: #000000; stroke-width: 0.8"/>
      </g>
     </g>
     <g id="text_4">
      <!-- 300 -->
      <g transform="translate(259.472071 322.182437) scale(0.1 -0.1)">
       <defs>
        <path id="DejaVuSans-33" d="M 2597 2516 
Q 3050 2419 3304 2112 
Q 3559 1806 3559 1356 
Q 3559 666 3084 287 
Q 2609 -91 1734 -91 
Q 1441 -91 1130 -33 
Q 819 25 488 141 
L 488 750 
Q 750 597 1062 519 
Q 1375 441 1716 441 
Q 2309 441 2620 675 
Q 2931 909 2931 1356 
Q 2931 1769 2642 2001 
Q 2353 2234 1838 2234 
L 1294 2234 
L 1294 2753 
L 1863 2753 
Q 2328 2753 2575 2939 
Q 2822 3125 2822 3475 
Q 2822 3834 2567 4026 
Q 2313 4219 1838 4219 
Q 1578 4219 1281 4162 
Q 984 4106 628 3988 
L 628 4550 
Q 988 4650 1302 4700 
Q 1616 4750 1894 4750 
Q 2613 4750 3031 4423 
Q 3450 4097 3450 3541 
Q 3450 3153 3228 2886 
Q 3006 2619 2597 2516 
z
" transform="scale(0.015625)"/>
       </defs>
       <use xlink:href="#DejaVuSans-33"/>
       <use xlink:href="#DejaVuSans-30" transform="translate(63.623047 0)"/>
       <use xlink:href="#DejaVuSans-30" transform="translate(127.246094 0)"/>
      </g>
     </g>
    </g>
    <g id="xtick_5">
     <g id="line2d_9">
      <path d="M 334.076852 307.584 
L 334.076852 41.472 
" clip-path="url(#p455e1d2a0c)" style="fill: none; stroke: #b0b0b0; stroke-width: 0.8; stroke-linecap: square"/>
     </g>
     <g id="line2d_10">
      <g>
       <use xlink:href="#mb002f9066e" x="334.076852" y="307.584" style="stroke: #000000; stroke-width: 0.8"/>
      </g>
     </g>
     <g id="text_5">
      <!-- 400 -->
      <g transform="translate(324.533102 322.182437) scale(0.1 -0.1)">
       <defs>
        <path id="DejaVuSans-34" d="M 2419 4116 
L 825 1625 
L 2419 1625 
L 2419 4116 
z
M 2253 4666 
L 3047 4666 
L 3047 1625 
L 3713 1625 
L 3713 1100 
L 3047 1100 
L 3047 0 
L 2419 0 
L 2419 1100 
L 313 1100 
L 313 1709 
L 2253 4666 
z
" transform="scale(0.015625)"/>
       </defs>
       <use xlink:href="#DejaVuSans-34"/>
       <use xlink:href="#DejaVuSans-30" transform="translate(63.623047 0)"/>
       <use xlink:href="#DejaVuSans-30" transform="translate(127.246094 0)"/>
      </g>
     </g>
    </g>
    <g id="xtick_6">
     <g id="line2d_11">
      <path d="M 399.137883 307.584 
L 399.137883 41.472 
" clip-path="url(#p455e1d2a0c)" style="fill: none; stroke: #b0b0b0; stroke-width: 0.8; stroke-linecap: square"/>
     </g>
     <g id="line2d_12">
      <g>
       <use xlink:href="#mb002f9066e" x="399.137883" y="307.584" style="stroke: #000000; stroke-width: 0.8"/>
      </g>
     </g>
     <g id="text_6">
      <!-- 500 -->
      <g transform="translate(389.594133 322.182437) scale(0.1 -0.1)">
       <defs>
        <path id="DejaVuSans-35" d="M 691 4666 
L 3169 4666 
L 3169 4134 
L 1269 4134 
L 1269 2991 
Q 1406 3038 1543 3061 
Q 1681 3084 1819 3084 
Q 2600 3084 3056 2656 
Q 3513 2228 3513 1497 
Q 3513 744 3044 326 
Q 2575 -91 1722 -91 
Q 1428 -91 1123 -41 
Q 819 9 494 109 
L 494 744 
Q 775 591 1075 516 
Q 1375 441 1709 441 
Q 2250 441 2565 725 
Q 2881 1009 2881 1497 
Q 2881 1984 2565 2268 
Q 2250 2553 1709 2553 
Q 1456 2553 1204 2497 
Q 953 2441 691 2322 
L 691 4666 
z
" transform="scale(0.015625)"/>
       </defs>
       <use xlink:href="#DejaVuSans-35"/>
       <use xlink:href="#DejaVuSans-30" transform="translate(63.623047 0)"/>
       <use xlink:href="#DejaVuSans-30" transform="translate(127.246094 0)"/>
      </g>
     </g>
    </g>
    <g id="text_7">
     <!-- Generations -->
     <g transform="translate(205.662344 335.860562) scale(0.1 -0.1)">
      <defs>
       <path id="DejaVuSans-47" d="M 3809 666 
L 3809 1919 
L 2778 1919 
L 2778 2438 
L 4434 2438 
L 4434 434 
Q 4069 175 3628 42 
Q 3188 -91 2688 -91 
Q 1594 -91 976 548 
Q 359 1188 359 2328 
Q 359 3472 976 4111 
Q 1594 4750 2688 4750 
Q 3144 4750 3555 4637 
Q 3966 4525 4313 4306 
L 4313 3634 
Q 3963 3931 3569 4081 
Q 3175 4231 2741 4231 
Q 1884 4231 1454 3753 
Q 1025 3275 1025 2328 
Q 1025 1384 1454 906 
Q 1884 428 2741 428 
Q 3075 428 3337 486 
Q 3600 544 3809 666 
z
" transform="scale(0.015625)"/>
       <path id="DejaVuSans-65" d="M 3597 1894 
L 3597 1613 
L 953 1613 
Q 991 1019 1311 708 
Q 1631 397 2203 397 
Q 2534 397 2845 478 
Q 3156 559 3463 722 
L 3463 178 
Q 3153 47 2828 -22 
Q 2503 -91 2169 -91 
Q 1331 -91 842 396 
Q 353 884 353 1716 
Q 353 2575 817 3079 
Q 1281 3584 2069 3584 
Q 2775 3584 3186 3129 
Q 3597 2675 3597 1894 
z
M 3022 2063 
Q 3016 2534 2758 2815 
Q 2500 3097 2075 3097 
Q 1594 3097 1305 2825 
Q 1016 2553 972 2059 
L 3022 2063 
z
" transform="scale(0.015625)"/>
       <path id="DejaVuSans-6e" d="M 3513 2113 
L 3513 0 
L 2938 0 
L 2938 2094 
Q 2938 2591 2744 2837 
Q 2550 3084 2163 3084 
Q 1697 3084 1428 2787 
Q 1159 2491 1159 1978 
L 1159 0 
L 581 0 
L 581 3500 
L 1159 3500 
L 1159 2956 
Q 1366 3272 1645 3428 
Q 1925 3584 2291 3584 
Q 2894 3584 3203 3211 
Q 3513 2838 3513 2113 
z
" transform="scale(0.015625)"/>
       <path id="DejaVuSans-72" d="M 2631 2963 
Q 2534 3019 2420 3045 
Q 2306 3072 2169 3072 
Q 1681 3072 1420 2755 
Q 1159 2438 1159 1844 
L 1159 0 
L 581 0 
L 581 3500 
L 1159 3500 
L 1159 2956 
Q 1341 3275 1631 3429 
Q 1922 3584 2338 3584 
Q 2397 3584 2469 3576 
Q 2541 3569 2628 3553 
L 2631 2963 
z
" transform="scale(0.015625)"/>
       <path id="DejaVuSans-61" d="M 2194 1759 
Q 1497 1759 1228 1600 
Q 959 1441 959 1056 
Q 959 750 1161 570 
Q 1363 391 1709 391 
Q 2188 391 2477 730 
Q 2766 1069 2766 1631 
L 2766 1759 
L 2194 1759 
z
M 3341 1997 
L 3341 0 
L 2766 0 
L 2766 531 
Q 2569 213 2275 61 
Q 1981 -91 1556 -91 
Q 1019 -91 701 211 
Q 384 513 384 1019 
Q 384 1609 779 1909 
Q 1175 2209 1959 2209 
L 2766 2209 
L 2766 2266 
Q 2766 2663 2505 2880 
Q 2244 3097 1772 3097 
Q 1472 3097 1187 3025 
Q 903 2953 641 2809 
L 641 3341 
Q 956 3463 1253 3523 
Q 1550 3584 1831 3584 
Q 2591 3584 2966 3190 
Q 3341 2797 3341 1997 
z
" transform="scale(0.015625)"/>
       <path id="DejaVuSans-74" d="M 1172 4494 
L 1172 3500 
L 2356 3500 
L 2356 3053 
L 1172 3053 
L 1172 1153 
Q 1172 725 1289 603 
Q 1406 481 1766 481 
L 2356 481 
L 2356 0 
L 1766 0 
Q 1100 0 847 248 
Q 594 497 594 1153 
L 594 3053 
L 172 3053 
L 172 3500 
L 594 3500 
L 594 4494 
L 1172 4494 
z
" transform="scale(0.015625)"/>
       <path id="DejaVuSans-69" d="M 603 3500 
L 1178 3500 
L 1178 0 
L 603 0 
L 603 3500 
z
M 603 4863 
L 1178 4863 
L 1178 4134 
L 603 4134 
L 603 4863 
z
" transform="scale(0.015625)"/>
       <path id="DejaVuSans-6f" d="M 1959 3097 
Q 1497 3097 1228 2736 
Q 959 2375 959 1747 
Q 959 1119 1226 758 
Q 1494 397 1959 397 
Q 2419 397 2687 759 
Q 2956 1122 2956 1747 
Q 2956 2369 2687 2733 
Q 2419 3097 1959 3097 
z
M 1959 3584 
Q 2709 3584 3137 3096 
Q 3566 2609 3566 1747 
Q 3566 888 3137 398 
Q 2709 -91 1959 -91 
Q 1206 -91 779 398 
Q 353 888 353 1747 
Q 353 2609 779 3096 
Q 1206 3584 1959 3584 
z
" transform="scale(0.015625)"/>
       <path id="DejaVuSans-73" d="M 2834 3397 
L 2834 2853 
Q 2591 2978 2328 3040 
Q 2066 3103 1784 3103 
Q 1356 3103 1142 2972 
Q 928 2841 928 2578 
Q 928 2378 1081 2264 
Q 1234 2150 1697 2047 
L 1894 2003 
Q 2506 1872 2764 1633 
Q 3022 1394 3022 966 
Q 3022 478 2636 193 
Q 2250 -91 1575 -91 
Q 1294 -91 989 -36 
Q 684 19 347 128 
L 347 722 
Q 666 556 975 473 
Q 1284 391 1588 391 
Q 1994 391 2212 530 
Q 2431 669 2431 922 
Q 2431 1156 2273 1281 
Q 2116 1406 1581 1522 
L 1381 1569 
Q 847 1681 609 1914 
Q 372 2147 372 2553 
Q 372 3047 722 3315 
Q 1072 3584 1716 3584 
Q 2034 3584 2315 3537 
Q 2597 3491 2834 3397 
z
" transform="scale(0.015625)"/>
      </defs>
      <use xlink:href="#DejaVuSans-47"/>
      <use xlink:href="#DejaVuSans-65" transform="translate(77.490234 0)"/>
      <use xlink:href="#DejaVuSans-6e" transform="translate(139.013672 0)"/>
      <use xlink:href="#DejaVuSans-65" transform="translate(202.392578 0)"/>
      <use xlink:href="#DejaVuSans-72" transform="translate(263.916016 0)"/>
      <use xlink:href="#DejaVuSans-61" transform="translate(305.029297 0)"/>
      <use xlink:href="#DejaVuSans-74" transform="translate(366.308594 0)"/>
      <use xlink:href="#DejaVuSans-69" transform="translate(405.517578 0)"/>
      <use xlink:href="#DejaVuSans-6f" transform="translate(433.300781 0)"/>
      <use xlink:href="#DejaVuSans-6e" transform="translate(494.482422 0)"/>
      <use xlink:href="#DejaVuSans-73" transform="translate(557.861328 0)"/>
     </g>
    </g>
   </g>
   <g id="matplotlib.axis_2">
    <g id="ytick_1">
     <g id="line2d_13">
      <path d="M 57.6 284.253156 
L 414.72 284.253156 
" clip-path="url(#p455e1d2a0c)" style="fill: none; stroke: #b0b0b0; stroke-width: 0.8; stroke-linecap: square"/>
     </g>
     <g id="line2d_14">
      <defs>
       <path id="m144798e625" d="M 0 0 
L -3.5 0 
" style="stroke: #000000; stroke-width: 0.8"/>
      </defs>
      <g>
       <use xlink:href="#m144798e625" x="57.6" y="284.253156" style="stroke: #000000; stroke-width: 0.8"/>
      </g>
     </g>
     <g id="text_8">
      <!-- −100000 -->
      <g transform="translate(4.045313 288.052375) scale(0.1 -0.1)">
       <defs>
        <path id="DejaVuSans-2212" d="M 678 2272 
L 4684 2272 
L 4684 1741 
L 678 1741 
L 678 2272 
z
" transform="scale(0.015625)"/>
       </defs>
       <use xlink:href="#DejaVuSans-2212"/>
       <use xlink:href="#DejaVuSans-31" transform="translate(83.789062 0)"/>
       <use xlink:href="#DejaVuSans-30" transform="translate(147.412109 0)"/>
       <use xlink:href="#DejaVuSans-30" transform="translate(211.035156 0)"/>
       <use xlink:href="#DejaVuSans-30" transform="translate(274.658203 0)"/>
       <use xlink:href="#DejaVuSans-30" transform="translate(338.28125 0)"/>
       <use xlink:href="#DejaVuSans-30" transform="translate(401.904297 0)"/>
      </g>
     </g>
    </g>
    <g id="ytick_2">
     <g id="line2d_15">
      <path d="M 57.6 228.046907 
L 414.72 228.046907 
" clip-path="url(#p455e1d2a0c)" style="fill: none; stroke: #b0b0b0; stroke-width: 0.8; stroke-linecap: square"/>
     </g>
     <g id="line2d_16">
      <g>
       <use xlink:href="#m144798e625" x="57.6" y="228.046907" style="stroke: #000000; stroke-width: 0.8"/>
      </g>
     </g>
     <g id="text_9">
      <!-- 0 -->
      <g transform="translate(44.2375 231.846126) scale(0.1 -0.1)">
       <use xlink:href="#DejaVuSans-30"/>
      </g>
     </g>
    </g>
    <g id="ytick_3">
     <g id="line2d_17">
      <path d="M 57.6 171.840659 
L 414.72 171.840659 
" clip-path="url(#p455e1d2a0c)" style="fill: none; stroke: #b0b0b0; stroke-width: 0.8; stroke-linecap: square"/>
     </g>
     <g id="line2d_18">
      <g>
       <use xlink:href="#m144798e625" x="57.6" y="171.840659" style="stroke: #000000; stroke-width: 0.8"/>
      </g>
     </g>
     <g id="text_10">
      <!-- 100000 -->
      <g transform="translate(12.425 175.639878) scale(0.1 -0.1)">
       <use xlink:href="#DejaVuSans-31"/>
       <use xlink:href="#DejaVuSans-30" transform="translate(63.623047 0)"/>
       <use xlink:href="#DejaVuSans-30" transform="translate(127.246094 0)"/>
       <use xlink:href="#DejaVuSans-30" transform="translate(190.869141 0)"/>
       <use xlink:href="#DejaVuSans-30" transform="translate(254.492188 0)"/>
       <use xlink:href="#DejaVuSans-30" transform="translate(318.115234 0)"/>
      </g>
     </g>
    </g>
    <g id="ytick_4">
     <g id="line2d_19">
      <path d="M 57.6 115.63441 
L 414.72 115.63441 
" clip-path="url(#p455e1d2a0c)" style="fill: none; stroke: #b0b0b0; stroke-width: 0.8; stroke-linecap: square"/>
     </g>
     <g id="line2d_20">
      <g>
       <use xlink:href="#m144798e625" x="57.6" y="115.63441" style="stroke: #000000; stroke-width: 0.8"/>
      </g>
     </g>
     <g id="text_11">
      <!-- 200000 -->
      <g transform="translate(12.425 119.433629) scale(0.1 -0.1)">
       <use xlink:href="#DejaVuSans-32"/>
       <use xlink:href="#DejaVuSans-30" transform="translate(63.623047 0)"/>
       <use xlink:href="#DejaVuSans-30" transform="translate(127.246094 0)"/>
       <use xlink:href="#DejaVuSans-30" transform="translate(190.869141 0)"/>
       <use xlink:href="#DejaVuSans-30" transform="translate(254.492188 0)"/>
       <use xlink:href="#DejaVuSans-30" transform="translate(318.115234 0)"/>
      </g>
     </g>
    </g>
    <g id="ytick_5">
     <g id="line2d_21">
      <path d="M 57.6 59.428162 
L 414.72 59.428162 
" clip-path="url(#p455e1d2a0c)" style="fill: none; stroke: #b0b0b0; stroke-width: 0.8; stroke-linecap: square"/>
     </g>
     <g id="line2d_22">
      <g>
       <use xlink:href="#m144798e625" x="57.6" y="59.428162" style="stroke: #000000; stroke-width: 0.8"/>
      </g>
     </g>
     <g id="text_12">
      <!-- 300000 -->
      <g transform="translate(12.425 63.227381) scale(0.1 -0.1)">
       <use xlink:href="#DejaVuSans-33"/>
       <use xlink:href="#DejaVuSans-30" transform="translate(63.623047 0)"/>
       <use xlink:href="#DejaVuSans-30" transform="translate(127.246094 0)"/>
       <use xlink:href="#DejaVuSans-30" transform="translate(190.869141 0)"/>
       <use xlink:href="#DejaVuSans-30" transform="translate(254.492188 0)"/>
       <use xlink:href="#DejaVuSans-30" transform="translate(318.115234 0)"/>
      </g>
     </g>
    </g>
    <g id="text_13">
     <!-- Fitness -->
     <g transform="translate(-2.034375 191.845187) rotate(-90) scale(0.1 -0.1)">
      <defs>
       <path id="DejaVuSans-46" d="M 628 4666 
L 3309 4666 
L 3309 4134 
L 1259 4134 
L 1259 2759 
L 3109 2759 
L 3109 2228 
L 1259 2228 
L 1259 0 
L 628 0 
L 628 4666 
z
" transform="scale(0.015625)"/>
      </defs>
      <use xlink:href="#DejaVuSans-46"/>
      <use xlink:href="#DejaVuSans-69" transform="translate(50.269531 0)"/>
      <use xlink:href="#DejaVuSans-74" transform="translate(78.052734 0)"/>
      <use xlink:href="#DejaVuSans-6e" transform="translate(117.261719 0)"/>
      <use xlink:href="#DejaVuSans-65" transform="translate(180.640625 0)"/>
      <use xlink:href="#DejaVuSans-73" transform="translate(242.164062 0)"/>
      <use xlink:href="#DejaVuSans-73" transform="translate(294.263672 0)"/>
     </g>
    </g>
   </g>
   <g id="line2d_23">
    <path d="M 73.832727 205.173849 
L 74.483338 189.121056 
L 75.133948 188.488168 
L 75.784558 201.100015 
L 76.435169 194.732949 
L 77.085779 190.987741 
L 77.736389 190.751914 
L 79.03761 193.730574 
L 79.68822 192.240266 
L 80.33883 196.756379 
L 80.989441 195.518386 
L 81.640051 193.942919 
L 82.290661 198.153848 
L 82.941272 198.087751 
L 83.591882 191.596283 
L 84.242492 198.886789 
L 84.893103 183.518189 
L 85.543713 191.276923 
L 86.194323 180.646684 
L 86.844934 191.119946 
L 87.495544 182.493698 
L 88.146154 176.284569 
L 88.796764 178.612834 
L 89.447375 182.604513 
L 90.097985 181.049693 
L 90.748595 173.756931 
L 91.399206 178.446241 
L 92.049816 185.062597 
L 92.700426 187.079948 
L 93.351037 181.384096 
L 94.001647 174.333257 
L 94.652257 174.397964 
L 95.302868 175.920505 
L 95.953478 180.663797 
L 96.604088 174.595545 
L 97.254698 170.159709 
L 97.905309 160.261422 
L 98.555919 171.596657 
L 99.206529 166.531758 
L 99.85714 165.313016 
L 100.50775 159.631421 
L 101.15836 159.651802 
L 101.808971 159.463763 
L 102.459581 155.871007 
L 103.110191 161.871554 
L 103.760802 164.197556 
L 104.411412 162.20429 
L 105.062022 155.046541 
L 105.712633 158.702877 
L 106.363243 156.267811 
L 107.013853 157.950993 
L 107.664463 149.128633 
L 108.315074 155.450903 
L 109.616294 171.153956 
L 110.266905 161.761642 
L 110.917515 161.074405 
L 111.568125 154.497912 
L 112.218736 158.296114 
L 112.869346 166.176163 
L 113.519956 164.141047 
L 114.170567 172.244109 
L 115.471787 161.299311 
L 116.122398 177.321914 
L 116.773008 168.387683 
L 117.423618 173.069801 
L 118.074228 161.872631 
L 118.724839 167.752166 
L 119.375449 168.826159 
L 120.026059 167.931255 
L 120.67667 185.962515 
L 121.32728 172.730762 
L 121.97789 170.183342 
L 122.628501 175.650967 
L 123.279111 170.174417 
L 123.929721 172.816863 
L 124.580332 170.745848 
L 125.230942 168.25656 
L 125.881552 166.649405 
L 126.532163 159.646959 
L 127.182773 164.362248 
L 127.833383 159.303091 
L 128.483993 160.471184 
L 129.134604 160.381035 
L 129.785214 160.910284 
L 130.435824 163.842693 
L 131.086435 162.956992 
L 131.737045 156.396722 
L 132.387655 169.817928 
L 133.038266 163.454501 
L 133.688876 168.124266 
L 134.339486 169.730862 
L 134.990097 157.930762 
L 135.640707 161.40041 
L 136.291317 159.439436 
L 136.941927 169.876534 
L 137.592538 171.59644 
L 138.243148 175.656609 
L 138.893758 181.587256 
L 139.544369 170.907091 
L 140.194979 177.72632 
L 140.845589 174.99964 
L 141.4962 185.204551 
L 142.14681 173.421341 
L 142.79742 170.503665 
L 143.448031 166.951185 
L 144.098641 174.549147 
L 144.749251 168.751032 
L 145.399862 169.654003 
L 146.050472 171.280492 
L 146.701082 176.937055 
L 147.351692 184.095193 
L 148.002303 182.314099 
L 148.652913 170.253023 
L 149.303523 175.098707 
L 149.954134 174.279315 
L 150.604744 174.462648 
L 151.255354 178.713434 
L 151.905965 179.334405 
L 153.207185 178.312918 
L 153.857796 172.260174 
L 154.508406 169.920249 
L 155.159016 176.541396 
L 155.809627 174.752039 
L 156.460237 169.201029 
L 157.110847 171.757129 
L 157.761457 169.116304 
L 158.412068 164.825974 
L 159.062678 165.622294 
L 159.713288 171.23901 
L 160.363899 167.619124 
L 161.014509 161.847716 
L 161.665119 166.042421 
L 162.31573 164.337842 
L 162.96634 159.206856 
L 163.61695 156.160087 
L 164.267561 162.805031 
L 164.918171 153.574773 
L 165.568781 153.868337 
L 166.219392 163.026469 
L 166.870002 159.194033 
L 167.520612 165.663839 
L 168.171222 159.638751 
L 168.821833 163.020889 
L 169.472443 158.599248 
L 170.123053 156.365224 
L 170.773664 159.162985 
L 171.424274 151.205452 
L 172.074884 160.953783 
L 172.725495 158.921836 
L 173.376105 151.902282 
L 174.026715 152.569559 
L 174.677326 155.685473 
L 175.327936 153.685079 
L 175.978546 152.113906 
L 176.629156 157.570653 
L 177.279767 159.423875 
L 177.930377 151.891846 
L 178.580987 161.038941 
L 179.231598 162.247148 
L 179.882208 162.419094 
L 180.532818 160.104577 
L 181.183429 152.451534 
L 181.834039 157.091955 
L 182.484649 166.714538 
L 183.13526 163.572692 
L 183.78587 161.557189 
L 184.43648 153.658474 
L 185.087091 155.9697 
L 185.737701 156.532608 
L 186.388311 160.247253 
L 187.038921 163.047077 
L 187.689532 164.281657 
L 188.340142 164.678202 
L 189.641363 159.724704 
L 190.291973 154.61728 
L 190.942583 154.679206 
L 191.593194 151.473985 
L 192.243804 149.60732 
L 192.894414 149.10087 
L 193.545025 151.346025 
L 194.195635 160.929196 
L 194.846245 154.750602 
L 195.496856 152.323187 
L 196.147466 150.781111 
L 196.798076 154.335675 
L 197.448686 154.87363 
L 198.099297 154.721025 
L 198.749907 159.667184 
L 199.400517 159.310633 
L 200.051128 154.802965 
L 201.352348 162.431772 
L 202.002959 157.827932 
L 202.653569 163.284464 
L 203.304179 159.617261 
L 203.95479 157.689217 
L 204.6054 162.764694 
L 205.25601 162.656491 
L 205.906621 156.297669 
L 206.557231 151.632824 
L 207.207841 156.131917 
L 207.858451 162.678576 
L 208.509062 154.225567 
L 209.159672 150.118022 
L 209.810282 148.657533 
L 210.460893 149.321049 
L 211.111503 157.713848 
L 211.762113 151.530821 
L 212.412724 153.15132 
L 213.063334 153.749817 
L 213.713944 152.558562 
L 214.364555 143.560268 
L 215.015165 152.5624 
L 215.665775 163.564515 
L 216.316385 163.499288 
L 216.966996 165.376746 
L 217.617606 163.220548 
L 218.268216 162.271815 
L 218.918827 164.110797 
L 220.220047 166.228299 
L 221.521268 169.330756 
L 222.171878 166.225005 
L 222.822489 162.204203 
L 223.473099 160.025724 
L 224.123709 161.666379 
L 224.77432 166.116165 
L 225.42493 165.026488 
L 226.07554 158.769615 
L 226.72615 161.339107 
L 227.376761 156.813155 
L 228.027371 169.053921 
L 228.677981 167.253229 
L 229.328592 170.474786 
L 229.979202 167.475422 
L 231.280423 177.544354 
L 231.931033 169.789596 
L 232.581643 170.291721 
L 233.232254 163.040116 
L 233.882864 162.179114 
L 234.533474 160.009271 
L 235.184085 160.73137 
L 235.834695 162.060374 
L 236.485305 161.344665 
L 237.135915 160.360765 
L 237.786526 154.723903 
L 238.437136 155.198159 
L 239.087746 164.275387 
L 239.738357 160.932604 
L 240.388967 166.155872 
L 241.690188 156.186134 
L 242.340798 169.765994 
L 242.991408 168.438566 
L 243.642019 164.302987 
L 244.292629 154.385225 
L 244.943239 161.010418 
L 245.59385 154.15413 
L 246.24446 151.439942 
L 246.89507 153.869433 
L 247.54568 159.290588 
L 248.196291 158.001294 
L 248.846901 157.706076 
L 249.497511 155.429621 
L 250.148122 153.832694 
L 250.798732 155.714082 
L 251.449342 162.105437 
L 252.099953 162.892203 
L 252.750563 160.219644 
L 253.401173 153.188801 
L 254.051784 157.018251 
L 254.702394 154.972548 
L 255.353004 157.187861 
L 256.003615 156.044606 
L 256.654225 153.659114 
L 257.304835 159.374385 
L 257.955445 163.997783 
L 258.606056 153.557131 
L 259.907276 156.686375 
L 260.557887 154.722537 
L 261.208497 144.433279 
L 261.859107 145.523991 
L 262.509718 148.268239 
L 263.160328 150.173362 
L 263.810938 147.280991 
L 264.461549 142.697592 
L 265.112159 143.576484 
L 265.762769 147.257979 
L 266.413379 145.130977 
L 267.06399 149.116048 
L 267.7146 147.756592 
L 268.36521 150.734796 
L 269.015821 150.669999 
L 269.666431 148.744576 
L 270.317041 154.708396 
L 270.967652 151.024505 
L 271.618262 150.763067 
L 272.268872 152.829637 
L 272.919483 147.511 
L 273.570093 152.857509 
L 274.220703 154.31422 
L 274.871314 156.847656 
L 275.521924 152.116254 
L 276.172534 156.997651 
L 276.823144 157.999068 
L 277.473755 153.695771 
L 278.124365 145.885835 
L 278.774975 152.110951 
L 279.425586 147.118779 
L 280.726806 160.12595 
L 281.377417 159.130731 
L 282.028027 157.715188 
L 282.678637 161.177821 
L 283.329248 156.11502 
L 283.979858 156.898587 
L 284.630468 151.818217 
L 285.281079 148.985644 
L 285.931689 148.502057 
L 286.582299 152.513874 
L 287.232909 148.06971 
L 287.88352 148.982272 
L 288.53413 152.89836 
L 289.18474 152.012691 
L 289.835351 148.777206 
L 290.485961 159.408559 
L 291.787182 152.495133 
L 292.437792 164.424453 
L 293.088402 165.339998 
L 293.739013 158.232148 
L 294.389623 159.882352 
L 295.040233 157.309335 
L 295.690844 157.428654 
L 296.341454 158.739169 
L 296.992064 156.826501 
L 297.642674 153.859827 
L 298.293285 149.694512 
L 298.943895 156.57225 
L 299.594505 158.746562 
L 300.245116 153.239099 
L 300.895726 151.972221 
L 301.546336 151.767318 
L 302.196947 160.636439 
L 302.847557 153.756172 
L 303.498167 153.782642 
L 304.148778 148.557481 
L 304.799388 150.950901 
L 305.449998 151.371613 
L 306.100608 151.347311 
L 306.751219 155.537187 
L 307.401829 158.458169 
L 308.052439 159.632701 
L 308.70305 149.700109 
L 309.35366 153.464384 
L 310.00427 153.180706 
L 310.654881 153.534181 
L 311.305491 161.113779 
L 311.956101 156.58488 
L 312.606712 161.676247 
L 313.257322 159.454467 
L 313.907932 164.17257 
L 314.558543 160.752636 
L 315.209153 161.741876 
L 315.859763 160.556806 
L 316.510373 149.20196 
L 317.160984 144.557806 
L 317.811594 146.745921 
L 318.462204 154.517697 
L 319.112815 152.926706 
L 319.763425 150.809792 
L 320.414035 155.610424 
L 321.064646 152.720738 
L 321.715256 147.133552 
L 322.365866 147.218027 
L 323.016477 151.10654 
L 323.667087 147.516597 
L 324.317697 145.809907 
L 324.968308 143.022234 
L 325.618918 151.540125 
L 326.269528 150.96305 
L 326.920138 158.912223 
L 327.570749 161.134442 
L 328.221359 171.377798 
L 328.871969 158.905304 
L 329.52258 161.312052 
L 330.17319 157.508942 
L 330.8238 152.155248 
L 331.474411 150.990405 
L 332.125021 148.207283 
L 332.775631 153.978796 
L 333.426242 157.85562 
L 334.076852 163.938732 
L 334.727462 167.788347 
L 335.378073 170.010339 
L 336.028683 168.039931 
L 336.679293 151.995664 
L 337.329903 149.257916 
L 337.980514 155.077603 
L 338.631124 149.870751 
L 339.281734 152.78867 
L 339.932345 157.947576 
L 340.582955 147.401132 
L 341.233565 147.77645 
L 341.884176 142.104603 
L 342.534786 146.047897 
L 343.185396 147.51536 
L 343.836007 157.629811 
L 345.137227 145.765081 
L 345.787837 148.161011 
L 346.438448 149.65778 
L 347.089058 155.93982 
L 347.739668 151.472344 
L 348.390279 149.025633 
L 349.040889 151.798033 
L 349.691499 149.429886 
L 350.34211 152.48842 
L 350.99272 147.354783 
L 351.64333 153.715506 
L 352.293941 158.110461 
L 352.944551 156.986721 
L 353.595161 160.597267 
L 354.896382 153.980493 
L 355.546992 155.831143 
L 356.197602 162.820859 
L 356.848213 150.274009 
L 357.498823 163.333745 
L 358.149433 164.700971 
L 358.800044 152.478265 
L 359.450654 145.439485 
L 360.101264 146.084295 
L 360.751875 148.130786 
L 361.402485 149.385339 
L 362.053095 140.966761 
L 362.703706 151.043271 
L 363.354316 139.610932 
L 364.004926 145.300357 
L 364.655537 143.322647 
L 365.306147 142.14401 
L 365.956757 149.171601 
L 366.607367 148.523341 
L 367.908588 149.644746 
L 368.559198 155.464691 
L 369.209809 158.982177 
L 370.511029 149.63885 
L 371.16164 148.298908 
L 371.81225 149.677794 
L 372.46286 152.829015 
L 373.113471 158.509303 
L 373.764081 153.718215 
L 374.414691 146.522952 
L 375.065302 151.893151 
L 375.715912 151.578795 
L 376.366522 155.839215 
L 377.017132 163.95579 
L 377.667743 165.181878 
L 378.318353 158.308216 
L 378.968963 157.054707 
L 379.619574 154.319515 
L 380.270184 158.677902 
L 380.920794 149.613853 
L 381.571405 154.958784 
L 382.222015 161.95618 
L 382.872625 165.47867 
L 383.523236 153.024399 
L 384.173846 156.661109 
L 384.824456 155.759008 
L 385.475066 158.201981 
L 386.125677 154.727395 
L 386.776287 152.46858 
L 387.426897 158.546244 
L 388.077508 157.319606 
L 388.728118 154.096544 
L 389.378728 158.855406 
L 390.029339 154.733922 
L 390.679949 153.513591 
L 391.330559 157.109897 
L 391.98117 159.024137 
L 392.63178 153.983854 
L 393.28239 160.862643 
L 393.933001 158.288788 
L 395.234221 162.109793 
L 395.884831 161.484892 
L 396.535442 162.384241 
L 397.186052 162.59206 
L 398.487273 170.875754 
L 398.487273 170.875754 
" clip-path="url(#p455e1d2a0c)" style="fill: none; stroke: #0000ff; stroke-width: 1.5; stroke-linecap: square"/>
   </g>
   <g id="line2d_24">
    <path d="M 73.832727 238.210055 
L 74.483338 235.343387 
L 75.133948 238.025498 
L 75.784558 266.624055 
L 76.435169 255.132388 
L 77.085779 238.230595 
L 78.386999 252.157245 
L 79.03761 247.121439 
L 79.68822 251.087297 
L 80.33883 239.17216 
L 80.989441 243.249008 
L 81.640051 252.845003 
L 82.290661 274.2004 
L 83.591882 250.055205 
L 84.242492 280.337684 
L 84.893103 233.19937 
L 85.543713 253.537089 
L 86.194323 236.751806 
L 86.844934 275.378214 
L 87.495544 247.709217 
L 88.146154 228.117666 
L 88.796764 232.578234 
L 89.447375 238.268864 
L 90.097985 242.810339 
L 90.748595 227.921129 
L 91.399206 234.374038 
L 92.049816 267.38247 
L 92.700426 271.277454 
L 93.351037 247.801367 
L 94.001647 234.901802 
L 94.652257 238.802742 
L 95.302868 259.395514 
L 95.953478 268.272414 
L 96.604088 258.07141 
L 97.254698 228.237567 
L 97.905309 218.959269 
L 98.555919 244.935694 
L 99.206529 241.832072 
L 99.85714 235.043059 
L 100.50775 222.783859 
L 101.15836 216.854814 
L 101.808971 214.33759 
L 102.459581 222.442421 
L 103.110191 218.336118 
L 103.760802 233.69864 
L 104.411412 222.521112 
L 105.062022 223.225237 
L 105.712633 230.94832 
L 106.363243 215.026152 
L 107.013853 212.756497 
L 107.664463 204.067145 
L 108.315074 239.548498 
L 108.965684 243.043772 
L 109.616294 259.089188 
L 110.266905 227.225646 
L 110.917515 216.925786 
L 111.568125 210.301576 
L 112.218736 227.532251 
L 112.869346 248.199276 
L 113.519956 239.880866 
L 114.170567 245.79838 
L 114.821177 227.154616 
L 115.471787 229.884281 
L 116.122398 254.889712 
L 116.773008 226.29925 
L 117.423618 271.863933 
L 118.074228 246.694592 
L 118.724839 227.057198 
L 119.375449 228.815165 
L 120.026059 220.705701 
L 120.67667 291.196966 
L 121.32728 246.900634 
L 121.97789 255.163945 
L 122.628501 267.096155 
L 123.279111 263.410832 
L 123.929721 273.680808 
L 124.580332 270.425201 
L 125.230942 243.087272 
L 125.881552 252.213088 
L 126.532163 230.368822 
L 127.182773 247.582802 
L 127.833383 220.521907 
L 128.483993 218.560869 
L 129.134604 215.058077 
L 129.785214 235.037258 
L 130.435824 267.248746 
L 131.737045 212.872369 
L 132.387655 272.959517 
L 133.038266 243.046218 
L 133.688876 241.082269 
L 134.339486 253.722217 
L 134.990097 218.123408 
L 135.640707 219.153562 
L 136.291317 219.938481 
L 136.941927 265.352546 
L 137.592538 253.177479 
L 138.243148 269.705699 
L 138.893758 281.812312 
L 139.544369 240.066941 
L 140.194979 285.258169 
L 140.845589 265.59078 
L 141.4962 295.488 
L 142.14681 259.317466 
L 142.79742 241.856935 
L 143.448031 232.931117 
L 144.098641 245.773601 
L 144.749251 250.460791 
L 145.399862 235.996144 
L 146.050472 246.401587 
L 147.351692 284.34266 
L 148.002303 256.187381 
L 148.652913 236.770393 
L 149.303523 232.275005 
L 149.954134 230.505339 
L 150.604744 246.891439 
L 151.255354 252.155957 
L 151.905965 273.004747 
L 152.556575 268.121942 
L 153.207185 251.177628 
L 153.857796 238.12065 
L 154.508406 227.526835 
L 155.159016 249.931016 
L 155.809627 261.694547 
L 156.460237 234.462861 
L 157.110847 233.260347 
L 157.761457 230.257157 
L 158.412068 222.752787 
L 159.062678 227.288365 
L 159.713288 247.93098 
L 161.014509 218.182974 
L 161.665119 266.35212 
L 162.31573 234.988308 
L 162.96634 214.12036 
L 163.61695 222.730752 
L 164.267561 222.300514 
L 164.918171 207.001094 
L 165.568781 225.695722 
L 166.219392 221.579933 
L 166.870002 218.180226 
L 167.520612 221.347929 
L 168.171222 217.206903 
L 168.821833 223.66755 
L 169.472443 208.978444 
L 170.123053 209.125936 
L 170.773664 212.888779 
L 171.424274 207.369065 
L 172.074884 230.088591 
L 172.725495 214.067974 
L 173.376105 206.227609 
L 174.026715 205.79033 
L 174.677326 222.906357 
L 175.327936 205.353299 
L 175.978546 211.894849 
L 176.629156 220.619677 
L 177.279767 211.790916 
L 177.930377 206.894232 
L 179.231598 228.815971 
L 179.882208 219.321553 
L 180.532818 216.053496 
L 181.183429 206.139144 
L 181.834039 221.083086 
L 182.484649 232.383583 
L 183.13526 225.918686 
L 183.78587 222.379926 
L 184.43648 205.569495 
L 185.087091 221.649474 
L 185.737701 215.015442 
L 186.388311 227.745493 
L 187.038921 231.142688 
L 187.689532 232.992043 
L 188.340142 233.010349 
L 188.990752 241.239885 
L 189.641363 236.881841 
L 190.291973 215.773193 
L 190.942583 207.699782 
L 191.593194 204.042934 
L 192.243804 201.610913 
L 192.894414 202.404126 
L 193.545025 204.95047 
L 194.195635 217.592648 
L 194.846245 210.209328 
L 195.496856 205.615283 
L 196.147466 206.822788 
L 196.798076 209.1024 
L 198.099297 213.059197 
L 198.749907 223.479663 
L 200.051128 209.769871 
L 200.701738 221.264776 
L 201.352348 220.005924 
L 202.002959 225.891566 
L 202.653569 248.802683 
L 203.304179 226.946538 
L 203.95479 217.076139 
L 204.6054 228.390647 
L 205.25601 219.877444 
L 205.906621 213.784963 
L 206.557231 204.800919 
L 207.207841 215.077267 
L 207.858451 228.743323 
L 208.509062 207.658816 
L 209.159672 202.031045 
L 209.810282 202.685762 
L 210.460893 202.30129 
L 211.111503 231.227316 
L 211.762113 220.841339 
L 212.412724 221.567243 
L 213.063334 209.03566 
L 213.713944 209.980766 
L 214.364555 195.228098 
L 215.015165 213.565317 
L 215.665775 240.353757 
L 216.316385 243.823196 
L 217.617606 243.160031 
L 218.268216 240.000745 
L 218.918827 238.505502 
L 219.569437 237.76618 
L 220.220047 249.897767 
L 220.870658 234.609144 
L 221.521268 251.498534 
L 222.171878 242.637955 
L 222.822489 216.424424 
L 223.473099 213.239057 
L 224.123709 215.936553 
L 224.77432 241.2413 
L 225.42493 222.916716 
L 226.07554 214.370487 
L 226.72615 215.813362 
L 227.376761 208.936761 
L 228.027371 242.955655 
L 228.677981 232.09663 
L 229.328592 244.01346 
L 229.979202 229.370951 
L 230.629812 246.977836 
L 231.280423 230.607968 
L 231.931033 237.919968 
L 232.581643 221.283417 
L 233.232254 215.899284 
L 233.882864 220.224436 
L 234.533474 211.908496 
L 235.184085 218.89854 
L 235.834695 215.264716 
L 236.485305 225.166244 
L 237.135915 214.55031 
L 237.786526 206.046088 
L 238.437136 219.611359 
L 239.087746 220.578709 
L 239.738357 238.596452 
L 240.388967 243.421955 
L 241.039577 215.296651 
L 241.690188 215.359766 
L 242.340798 236.410913 
L 242.991408 227.736916 
L 244.292629 203.422139 
L 244.943239 213.878227 
L 245.59385 204.2128 
L 246.24446 199.698596 
L 246.89507 209.608813 
L 247.54568 212.592334 
L 248.196291 225.591337 
L 248.846901 222.141142 
L 249.497511 208.510886 
L 250.148122 205.690817 
L 250.798732 217.308643 
L 251.449342 225.778398 
L 252.099953 229.806972 
L 252.750563 214.019391 
L 253.401173 204.166189 
L 254.051784 215.25941 
L 255.353004 210.495242 
L 256.003615 219.904246 
L 256.654225 224.408322 
L 257.304835 221.217452 
L 257.955445 250.544136 
L 258.606056 208.282293 
L 259.256666 212.487484 
L 259.907276 212.457416 
L 260.557887 207.390012 
L 261.208497 192.64411 
L 262.509718 201.656984 
L 263.160328 207.329053 
L 263.810938 201.891067 
L 264.461549 194.298644 
L 265.112159 196.445028 
L 265.762769 215.771323 
L 266.413379 223.075235 
L 267.06399 208.530706 
L 267.7146 201.328596 
L 268.36521 203.23523 
L 269.015821 204.633598 
L 269.666431 201.862635 
L 270.317041 226.559014 
L 270.967652 216.340822 
L 271.618262 213.356938 
L 272.268872 220.322384 
L 272.919483 221.178606 
L 273.570093 225.393032 
L 274.220703 255.06044 
L 274.871314 240.333032 
L 275.521924 233.547115 
L 276.172534 239.859149 
L 276.823144 241.792809 
L 277.473755 236.390175 
L 278.124365 197.675398 
L 278.774975 204.953368 
L 279.425586 197.522677 
L 280.076196 225.443841 
L 281.377417 213.240476 
L 282.028027 218.796188 
L 282.678637 217.00688 
L 283.329248 211.091815 
L 283.979858 210.72114 
L 284.630468 204.670244 
L 285.281079 200.594599 
L 285.931689 202.295126 
L 286.582299 207.324367 
L 287.232909 201.155623 
L 287.88352 203.451368 
L 288.53413 207.353426 
L 289.18474 208.489141 
L 289.835351 202.644085 
L 290.485961 217.895886 
L 291.136571 211.887103 
L 291.787182 207.313546 
L 292.437792 226.621882 
L 293.088402 225.648879 
L 293.739013 213.201963 
L 294.389623 239.020583 
L 295.040233 210.843156 
L 295.690844 210.831722 
L 296.341454 219.376614 
L 296.992064 210.531958 
L 297.642674 208.362618 
L 298.293285 201.897986 
L 298.943895 213.081132 
L 299.594505 219.09384 
L 300.245116 208.964477 
L 300.895726 207.515976 
L 301.546336 207.791867 
L 302.196947 235.946301 
L 302.847557 210.923993 
L 303.498167 207.996418 
L 304.148778 202.265599 
L 304.799388 205.307996 
L 305.449998 206.742463 
L 306.100608 211.316831 
L 306.751219 226.56939 
L 307.401829 217.330753 
L 308.052439 214.322412 
L 308.70305 202.374915 
L 309.35366 207.087236 
L 310.00427 207.273418 
L 310.654881 208.444748 
L 311.305491 220.739395 
L 311.956101 210.944746 
L 312.606712 229.572836 
L 313.257322 220.228753 
L 313.907932 235.216822 
L 314.558543 217.142531 
L 315.209153 221.983316 
L 315.859763 217.554297 
L 316.510373 201.40014 
L 317.160984 195.54019 
L 317.811594 199.80973 
L 318.462204 211.322414 
L 319.112815 210.174971 
L 319.763425 205.861686 
L 320.414035 219.985348 
L 321.064646 207.157466 
L 321.715256 199.590869 
L 322.365866 199.744139 
L 323.016477 205.936337 
L 324.317697 196.815 
L 324.968308 193.763407 
L 325.618918 218.110855 
L 326.269528 209.563639 
L 326.920138 214.183427 
L 327.570749 221.452988 
L 328.221359 249.930116 
L 328.871969 227.066848 
L 329.52258 226.723236 
L 330.17319 225.326536 
L 330.8238 205.293289 
L 331.474411 202.872461 
L 332.125021 199.302593 
L 332.775631 209.629312 
L 333.426242 228.841174 
L 334.076852 232.040528 
L 335.378073 264.560299 
L 336.028683 255.874158 
L 336.679293 203.227967 
L 337.329903 200.460829 
L 337.980514 208.722842 
L 338.631124 200.826779 
L 339.281734 220.207862 
L 339.932345 229.265317 
L 340.582955 198.604754 
L 341.233565 204.860739 
L 341.884176 191.296377 
L 342.534786 197.828519 
L 343.185396 200.23031 
L 343.836007 216.734826 
L 344.486617 205.584676 
L 345.137227 197.147544 
L 345.787837 200.423359 
L 346.438448 214.884509 
L 347.089058 211.115685 
L 347.739668 204.977251 
L 348.390279 202.132777 
L 349.040889 207.797532 
L 349.691499 203.640867 
L 350.34211 207.089325 
L 352.293941 223.282243 
L 352.944551 215.730801 
L 353.595161 219.956225 
L 354.245772 212.233537 
L 354.896382 207.627212 
L 355.546992 216.527841 
L 356.197602 218.676808 
L 356.848213 201.640321 
L 357.498823 233.608393 
L 359.450654 194.428938 
L 360.101264 196.616103 
L 360.751875 200.303568 
L 361.402485 205.092319 
L 362.053095 191.066897 
L 362.703706 206.183515 
L 363.354316 189.184818 
L 364.004926 200.637391 
L 364.655537 195.491197 
L 365.306147 194.45423 
L 365.956757 205.868518 
L 366.607367 210.942629 
L 367.257978 203.26365 
L 367.908588 206.027248 
L 368.559198 222.698338 
L 370.511029 203.810071 
L 371.81225 202.170578 
L 372.46286 207.558708 
L 373.113471 213.988907 
L 373.764081 206.205039 
L 374.414691 196.79375 
L 375.065302 205.598071 
L 375.715912 204.736948 
L 376.366522 210.106646 
L 377.017132 230.444003 
L 377.667743 224.544701 
L 378.318353 211.277666 
L 378.968963 210.939948 
L 379.619574 209.052132 
L 380.270184 212.24313 
L 380.920794 201.648576 
L 381.571405 208.288003 
L 382.222015 228.409789 
L 382.872625 241.863726 
L 383.523236 205.722437 
L 384.173846 219.950441 
L 384.824456 215.385017 
L 385.475066 213.054086 
L 386.125677 209.887377 
L 386.776287 208.110376 
L 387.426897 231.994309 
L 388.077508 213.651832 
L 388.728118 208.095678 
L 389.378728 214.856982 
L 390.679949 206.613882 
L 391.330559 211.585036 
L 391.98117 219.381601 
L 392.63178 207.587966 
L 393.28239 215.82622 
L 393.933001 211.837925 
L 394.583611 219.075352 
L 395.234221 215.687586 
L 395.884831 215.113061 
L 396.535442 230.983008 
L 397.186052 238.921753 
L 397.836662 237.409108 
L 398.487273 237.228062 
L 398.487273 237.228062 
" clip-path="url(#p455e1d2a0c)" style="fill: none; stroke-dasharray: 9.6,2.4,1.5,2.4; stroke-dashoffset: 0; stroke: #008000; stroke-width: 1.5"/>
   </g>
   <g id="line2d_25">
    <path d="M 73.832727 172.137643 
L 74.483338 142.898724 
L 75.784558 135.575974 
L 76.435169 134.33351 
L 77.085779 143.744887 
L 77.736389 136.444474 
L 78.386999 132.154105 
L 79.03761 140.339709 
L 79.68822 133.393234 
L 80.33883 154.340597 
L 80.989441 147.787763 
L 82.290661 122.107296 
L 82.941272 134.314911 
L 83.591882 133.137362 
L 84.242492 117.435893 
L 84.893103 133.837008 
L 86.194323 124.541561 
L 86.844934 106.861677 
L 87.495544 117.278178 
L 88.146154 124.451473 
L 88.796764 124.647433 
L 89.447375 126.940162 
L 90.097985 119.289048 
L 90.748595 119.592734 
L 91.399206 122.518444 
L 92.049816 102.742724 
L 92.700426 102.882442 
L 93.351037 114.966824 
L 94.001647 113.764713 
L 94.652257 109.993186 
L 95.302868 92.445496 
L 95.953478 93.055179 
L 96.604088 91.11968 
L 97.254698 112.081852 
L 97.905309 101.563576 
L 98.555919 98.25762 
L 99.206529 91.231445 
L 99.85714 95.582972 
L 100.50775 96.478983 
L 101.15836 102.448789 
L 101.808971 104.589937 
L 102.459581 89.299592 
L 103.110191 105.40699 
L 103.760802 94.696472 
L 104.411412 101.887467 
L 105.062022 86.867844 
L 105.712633 86.457435 
L 106.363243 97.50947 
L 107.013853 103.14549 
L 107.664463 94.190121 
L 108.315074 71.353309 
L 108.965684 84.32233 
L 109.616294 83.218724 
L 110.266905 96.297637 
L 110.917515 105.223023 
L 111.568125 98.694248 
L 112.218736 89.059978 
L 112.869346 84.15305 
L 113.519956 88.401229 
L 114.170567 98.689839 
L 114.821177 106.120155 
L 115.471787 92.714342 
L 116.122398 99.754116 
L 116.773008 110.476115 
L 117.423618 74.27567 
L 118.074228 77.050671 
L 118.724839 108.447135 
L 119.375449 108.837152 
L 120.026059 115.156809 
L 120.67667 80.728064 
L 121.32728 98.56089 
L 121.97789 85.202739 
L 122.628501 84.20578 
L 123.279111 76.938002 
L 123.929721 71.952918 
L 124.580332 71.066495 
L 125.230942 93.425849 
L 125.881552 81.085723 
L 126.532163 88.925097 
L 127.182773 81.141694 
L 127.833383 98.084274 
L 128.483993 102.381499 
L 129.134604 105.703993 
L 129.785214 86.78331 
L 130.435824 60.436641 
L 131.086435 84.008954 
L 131.737045 99.921075 
L 132.387655 66.676339 
L 133.038266 83.862783 
L 133.688876 95.166263 
L 134.339486 85.739507 
L 134.990097 97.738116 
L 135.640707 103.647258 
L 136.291317 98.940392 
L 136.941927 74.400523 
L 137.592538 90.015401 
L 138.243148 81.607519 
L 138.893758 81.3622 
L 139.544369 101.747242 
L 140.194979 70.19447 
L 140.845589 84.408499 
L 141.4962 74.921102 
L 142.79742 99.150395 
L 143.448031 100.971253 
L 144.098641 103.324694 
L 144.749251 87.041273 
L 145.399862 103.311862 
L 146.701082 88.189918 
L 147.351692 83.847727 
L 148.002303 108.440817 
L 148.652913 103.735653 
L 149.303523 117.92241 
L 149.954134 118.05329 
L 150.604744 102.033857 
L 151.255354 105.270911 
L 151.905965 85.664064 
L 152.556575 89.649794 
L 153.207185 105.448208 
L 153.857796 106.399699 
L 154.508406 112.313662 
L 155.159016 103.151775 
L 155.809627 87.809532 
L 156.460237 103.939198 
L 157.110847 110.253911 
L 157.761457 107.975451 
L 158.412068 106.899161 
L 159.062678 103.956223 
L 159.713288 94.547041 
L 160.363899 102.767729 
L 161.014509 105.512457 
L 161.665119 65.732723 
L 162.31573 93.687375 
L 162.96634 104.293353 
L 163.61695 89.589422 
L 164.267561 103.309548 
L 164.918171 100.148452 
L 165.568781 82.040951 
L 166.219392 104.473005 
L 166.870002 100.207839 
L 167.520612 109.979749 
L 168.171222 102.070599 
L 168.821833 102.374227 
L 169.472443 108.220052 
L 170.123053 103.604512 
L 170.773664 105.43719 
L 171.424274 95.041839 
L 172.074884 91.818975 
L 172.725495 103.775699 
L 173.376105 97.576956 
L 174.026715 99.348789 
L 174.677326 88.464589 
L 175.327936 102.016859 
L 175.978546 92.332963 
L 176.629156 94.52163 
L 177.279767 107.056834 
L 177.930377 96.889459 
L 178.580987 103.324117 
L 179.231598 95.678324 
L 179.882208 105.516636 
L 180.532818 104.155659 
L 181.834039 93.100825 
L 182.484649 101.045493 
L 183.13526 101.226697 
L 183.78587 100.734452 
L 184.43648 101.747453 
L 185.087091 90.289927 
L 185.737701 98.049775 
L 186.388311 92.749013 
L 187.038921 94.951466 
L 187.689532 95.571271 
L 188.340142 96.346054 
L 188.990752 82.958792 
L 189.641363 82.567567 
L 190.291973 93.461367 
L 190.942583 101.65863 
L 191.593194 98.905037 
L 192.243804 97.603728 
L 192.894414 95.797615 
L 193.545025 97.741579 
L 194.195635 104.265745 
L 194.846245 99.291876 
L 195.496856 99.03109 
L 196.147466 94.739434 
L 196.798076 99.568951 
L 197.448686 98.791842 
L 198.099297 96.382853 
L 198.749907 95.854705 
L 199.400517 102.363017 
L 200.051128 99.836059 
L 200.701738 95.575716 
L 201.352348 104.857621 
L 202.002959 89.764298 
L 202.653569 77.766245 
L 203.304179 92.287985 
L 203.95479 98.302295 
L 204.6054 97.138742 
L 205.25601 105.435538 
L 205.906621 98.810374 
L 206.557231 98.464728 
L 207.207841 97.186567 
L 207.858451 96.61383 
L 208.509062 100.792319 
L 209.159672 98.204998 
L 209.810282 94.629303 
L 210.460893 96.340808 
L 211.111503 84.20038 
L 211.762113 82.220303 
L 212.412724 84.735396 
L 213.063334 98.463974 
L 214.364555 91.892437 
L 215.015165 91.559483 
L 215.665775 86.775274 
L 216.316385 83.175379 
L 216.966996 87.234962 
L 217.617606 83.281065 
L 218.268216 84.542886 
L 218.918827 89.716091 
L 219.569437 92.472267 
L 220.220047 82.558831 
L 220.870658 100.83471 
L 221.521268 87.162978 
L 222.171878 89.812055 
L 222.822489 107.983981 
L 223.473099 106.812391 
L 224.123709 107.396205 
L 224.77432 90.99103 
L 225.42493 107.13626 
L 226.07554 103.168744 
L 226.72615 106.864852 
L 227.376761 104.689548 
L 228.027371 95.152186 
L 228.677981 102.409828 
L 229.328592 96.936112 
L 229.979202 105.579893 
L 230.629812 97.950981 
L 231.280423 124.48074 
L 231.931033 101.659223 
L 232.581643 119.300025 
L 233.232254 110.180947 
L 233.882864 104.133791 
L 234.533474 108.110045 
L 235.184085 102.564201 
L 235.834695 108.856032 
L 236.485305 97.523087 
L 237.135915 106.17122 
L 237.786526 103.401719 
L 238.437136 90.78496 
L 239.087746 107.972064 
L 239.738357 83.268756 
L 240.388967 88.889788 
L 241.039577 107.635356 
L 241.690188 97.012503 
L 242.991408 109.140216 
L 243.642019 113.382704 
L 244.292629 105.348312 
L 244.943239 108.142609 
L 245.59385 104.095461 
L 246.24446 103.181289 
L 246.89507 98.130054 
L 247.54568 105.988841 
L 248.196291 90.41125 
L 248.846901 93.271009 
L 249.497511 102.348357 
L 250.148122 101.97457 
L 250.798732 94.119521 
L 251.449342 98.432477 
L 252.099953 95.977435 
L 252.750563 106.419897 
L 253.401173 102.211413 
L 254.051784 98.777091 
L 254.702394 97.004474 
L 255.353004 103.880481 
L 256.003615 92.184967 
L 256.654225 82.909907 
L 257.304835 97.531318 
L 257.955445 77.451431 
L 258.606056 98.83197 
L 259.256666 97.879922 
L 259.907276 100.915333 
L 260.557887 102.055061 
L 261.208497 96.222448 
L 261.859107 93.85574 
L 262.509718 94.879494 
L 263.160328 93.017671 
L 263.810938 92.670916 
L 264.461549 91.096541 
L 265.112159 90.707941 
L 266.413379 67.186718 
L 267.06399 89.701389 
L 268.36521 98.234362 
L 269.015821 96.7064 
L 269.666431 95.626517 
L 270.317041 82.857777 
L 271.618262 88.169197 
L 272.268872 85.33689 
L 272.919483 73.843393 
L 273.570093 80.321986 
L 274.220703 53.568 
L 274.871314 73.362279 
L 275.521924 70.685393 
L 276.172534 74.136153 
L 276.823144 74.205327 
L 277.473755 71.001368 
L 278.124365 94.096272 
L 278.774975 99.268534 
L 279.425586 96.714882 
L 280.076196 81.483225 
L 280.726806 101.46301 
L 281.377417 105.020986 
L 282.028027 96.634187 
L 282.678637 105.348763 
L 283.329248 101.138225 
L 283.979858 103.076033 
L 284.630468 98.96619 
L 285.281079 97.376689 
L 285.931689 94.708989 
L 286.582299 97.703381 
L 287.232909 94.983797 
L 287.88352 94.513176 
L 288.53413 98.443294 
L 289.18474 95.536241 
L 289.835351 94.910327 
L 290.485961 100.921232 
L 291.136571 99.751396 
L 291.787182 97.676721 
L 292.437792 102.227025 
L 293.088402 105.031117 
L 293.739013 103.262332 
L 294.389623 80.74412 
L 295.040233 103.775514 
L 295.690844 104.025586 
L 296.341454 98.101724 
L 296.992064 103.121045 
L 297.642674 99.357035 
L 298.293285 97.491038 
L 298.943895 100.063369 
L 299.594505 98.399283 
L 300.245116 97.51372 
L 300.895726 96.428466 
L 301.546336 95.742769 
L 302.196947 85.326577 
L 302.847557 96.588352 
L 303.498167 99.568866 
L 304.148778 94.849362 
L 304.799388 96.593805 
L 305.449998 96.000764 
L 306.100608 91.377792 
L 306.751219 84.504985 
L 307.401829 99.585585 
L 308.052439 104.94299 
L 308.70305 97.025303 
L 309.35366 99.841532 
L 310.00427 99.087993 
L 310.654881 98.623614 
L 311.305491 101.488163 
L 311.956101 102.225015 
L 312.606712 93.779658 
L 313.257322 98.68018 
L 313.907932 93.128318 
L 314.558543 104.362741 
L 315.209153 101.500435 
L 315.859763 103.559316 
L 316.510373 97.00378 
L 317.160984 93.575423 
L 317.811594 93.682111 
L 318.462204 97.712979 
L 319.112815 95.678441 
L 319.763425 95.757898 
L 320.414035 91.235499 
L 321.064646 98.284009 
L 321.715256 94.676234 
L 322.365866 94.691914 
L 323.016477 96.276744 
L 323.667087 93.971135 
L 324.317697 94.804814 
L 324.968308 92.28106 
L 325.618918 84.969395 
L 326.269528 92.362461 
L 326.920138 103.641019 
L 327.570749 100.815897 
L 328.221359 92.825481 
L 328.871969 90.743761 
L 329.52258 95.900868 
L 330.17319 89.691347 
L 330.8238 99.017207 
L 331.474411 99.10835 
L 332.125021 97.111974 
L 332.775631 98.328281 
L 333.426242 86.870065 
L 334.076852 95.836936 
L 334.727462 87.927174 
L 335.378073 75.46038 
L 336.028683 80.205703 
L 336.679293 100.763362 
L 337.329903 98.055003 
L 337.980514 101.432364 
L 338.631124 98.914723 
L 339.281734 85.369478 
L 339.932345 86.629834 
L 340.582955 96.197509 
L 341.233565 90.692161 
L 341.884176 92.91283 
L 342.534786 94.267275 
L 343.185396 94.800411 
L 343.836007 98.524795 
L 344.486617 97.465366 
L 345.137227 94.382617 
L 345.787837 95.898663 
L 346.438448 84.431051 
L 347.089058 100.763955 
L 347.739668 97.967437 
L 348.390279 95.918489 
L 349.040889 95.798535 
L 349.691499 95.218906 
L 350.34211 97.887515 
L 350.99272 82.105506 
L 351.64333 89.384058 
L 352.293941 92.938679 
L 352.944551 98.24264 
L 353.595161 101.238309 
L 354.245772 102.190927 
L 354.896382 100.333773 
L 355.546992 95.134445 
L 356.197602 106.96491 
L 356.848213 98.907698 
L 357.498823 93.059097 
L 358.149433 109.602038 
L 358.800044 99.068837 
L 359.450654 96.450032 
L 360.101264 95.552486 
L 360.751875 95.958004 
L 361.402485 93.678358 
L 362.053095 90.866626 
L 362.703706 95.903027 
L 363.354316 90.037047 
L 364.004926 89.963323 
L 364.655537 91.154097 
L 365.306147 89.833791 
L 365.956757 92.474685 
L 366.607367 86.104053 
L 367.257978 94.861787 
L 367.908588 93.262243 
L 368.559198 88.231045 
L 369.209809 101.268074 
L 369.860419 99.431603 
L 370.511029 95.467628 
L 371.16164 93.62295 
L 371.81225 97.18501 
L 372.46286 98.099323 
L 373.113471 103.029699 
L 373.764081 101.23139 
L 374.414691 96.252154 
L 375.065302 98.188231 
L 375.715912 98.420641 
L 376.366522 101.571785 
L 377.017132 97.467577 
L 377.667743 105.819055 
L 378.318353 105.338767 
L 378.968963 103.169466 
L 379.619574 99.586898 
L 380.270184 105.112674 
L 380.920794 97.57913 
L 381.571405 101.629565 
L 382.872625 89.093613 
L 383.523236 100.326361 
L 384.173846 93.371777 
L 384.824456 96.132999 
L 385.475066 103.349877 
L 386.125677 99.567414 
L 386.776287 96.826785 
L 387.426897 85.098179 
L 388.077508 100.987381 
L 388.728118 100.097409 
L 389.378728 102.853829 
L 390.029339 98.945141 
L 390.679949 100.4133 
L 391.330559 102.634758 
L 391.98117 98.666674 
L 392.63178 100.379741 
L 393.28239 105.899067 
L 393.933001 104.739651 
L 394.583611 101.55073 
L 395.234221 108.532 
L 395.884831 107.856723 
L 396.535442 93.785474 
L 397.186052 86.262367 
L 397.836662 96.383518 
L 398.487273 104.523446 
L 398.487273 104.523446 
" clip-path="url(#p455e1d2a0c)" style="fill: none; stroke-dasharray: 9.6,2.4,1.5,2.4; stroke-dashoffset: 0; stroke: #008000; stroke-width: 1.5"/>
   </g>
   <g id="line2d_26">
    <path d="M 73.832727 112.711745 
L 74.483338 107.574089 
L 82.941272 107.574089 
L 83.591882 97.935687 
L 161.665119 97.935687 
L 162.31573 97.130594 
L 388.728118 97.130594 
L 389.378728 96.428005 
L 398.487273 96.428005 
L 398.487273 96.428005 
" clip-path="url(#p455e1d2a0c)" style="fill: none; stroke: #ff0000; stroke-width: 1.5; stroke-linecap: square"/>
   </g>
   <g id="patch_3">
    <path d="M 57.6 307.584 
L 57.6 41.472 
" style="fill: none; stroke: #000000; stroke-width: 0.8; stroke-linejoin: miter; stroke-linecap: square"/>
   </g>
   <g id="patch_4">
    <path d="M 414.72 307.584 
L 414.72 41.472 
" style="fill: none; stroke: #000000; stroke-width: 0.8; stroke-linejoin: miter; stroke-linecap: square"/>
   </g>
   <g id="patch_5">
    <path d="M 57.6 307.584 
L 414.72 307.584 
" style="fill: none; stroke: #000000; stroke-width: 0.8; stroke-linejoin: miter; stroke-linecap: square"/>
   </g>
   <g id="patch_6">
    <path d="M 57.6 41.472 
L 414.72 41.472 
" style="fill: none; stroke: #000000; stroke-width: 0.8; stroke-linejoin: miter; stroke-linecap: square"/>
   </g>
   <g id="text_14">
    <!-- Population's average and best fitness -->
    <g transform="translate(123.529687 35.472) scale(0.12 -0.12)">
     <defs>
      <path id="DejaVuSans-50" d="M 1259 4147 
L 1259 2394 
L 2053 2394 
Q 2494 2394 2734 2622 
Q 2975 2850 2975 3272 
Q 2975 3691 2734 3919 
Q 2494 4147 2053 4147 
L 1259 4147 
z
M 628 4666 
L 2053 4666 
Q 2838 4666 3239 4311 
Q 3641 3956 3641 3272 
Q 3641 2581 3239 2228 
Q 2838 1875 2053 1875 
L 1259 1875 
L 1259 0 
L 628 0 
L 628 4666 
z
" transform="scale(0.015625)"/>
      <path id="DejaVuSans-70" d="M 1159 525 
L 1159 -1331 
L 581 -1331 
L 581 3500 
L 1159 3500 
L 1159 2969 
Q 1341 3281 1617 3432 
Q 1894 3584 2278 3584 
Q 2916 3584 3314 3078 
Q 3713 2572 3713 1747 
Q 3713 922 3314 415 
Q 2916 -91 2278 -91 
Q 1894 -91 1617 61 
Q 1341 213 1159 525 
z
M 3116 1747 
Q 3116 2381 2855 2742 
Q 2594 3103 2138 3103 
Q 1681 3103 1420 2742 
Q 1159 2381 1159 1747 
Q 1159 1113 1420 752 
Q 1681 391 2138 391 
Q 2594 391 2855 752 
Q 3116 1113 3116 1747 
z
" transform="scale(0.015625)"/>
      <path id="DejaVuSans-75" d="M 544 1381 
L 544 3500 
L 1119 3500 
L 1119 1403 
Q 1119 906 1312 657 
Q 1506 409 1894 409 
Q 2359 409 2629 706 
Q 2900 1003 2900 1516 
L 2900 3500 
L 3475 3500 
L 3475 0 
L 2900 0 
L 2900 538 
Q 2691 219 2414 64 
Q 2138 -91 1772 -91 
Q 1169 -91 856 284 
Q 544 659 544 1381 
z
M 1991 3584 
L 1991 3584 
z
" transform="scale(0.015625)"/>
      <path id="DejaVuSans-6c" d="M 603 4863 
L 1178 4863 
L 1178 0 
L 603 0 
L 603 4863 
z
" transform="scale(0.015625)"/>
      <path id="DejaVuSans-27" d="M 1147 4666 
L 1147 2931 
L 616 2931 
L 616 4666 
L 1147 4666 
z
" transform="scale(0.015625)"/>
      <path id="DejaVuSans-20" transform="scale(0.015625)"/>
      <path id="DejaVuSans-76" d="M 191 3500 
L 800 3500 
L 1894 563 
L 2988 3500 
L 3597 3500 
L 2284 0 
L 1503 0 
L 191 3500 
z
" transform="scale(0.015625)"/>
      <path id="DejaVuSans-67" d="M 2906 1791 
Q 2906 2416 2648 2759 
Q 2391 3103 1925 3103 
Q 1463 3103 1205 2759 
Q 947 2416 947 1791 
Q 947 1169 1205 825 
Q 1463 481 1925 481 
Q 2391 481 2648 825 
Q 2906 1169 2906 1791 
z
M 3481 434 
Q 3481 -459 3084 -895 
Q 2688 -1331 1869 -1331 
Q 1566 -1331 1297 -1286 
Q 1028 -1241 775 -1147 
L 775 -588 
Q 1028 -725 1275 -790 
Q 1522 -856 1778 -856 
Q 2344 -856 2625 -561 
Q 2906 -266 2906 331 
L 2906 616 
Q 2728 306 2450 153 
Q 2172 0 1784 0 
Q 1141 0 747 490 
Q 353 981 353 1791 
Q 353 2603 747 3093 
Q 1141 3584 1784 3584 
Q 2172 3584 2450 3431 
Q 2728 3278 2906 2969 
L 2906 3500 
L 3481 3500 
L 3481 434 
z
" transform="scale(0.015625)"/>
      <path id="DejaVuSans-64" d="M 2906 2969 
L 2906 4863 
L 3481 4863 
L 3481 0 
L 2906 0 
L 2906 525 
Q 2725 213 2448 61 
Q 2172 -91 1784 -91 
Q 1150 -91 751 415 
Q 353 922 353 1747 
Q 353 2572 751 3078 
Q 1150 3584 1784 3584 
Q 2172 3584 2448 3432 
Q 2725 3281 2906 2969 
z
M 947 1747 
Q 947 1113 1208 752 
Q 1469 391 1925 391 
Q 2381 391 2643 752 
Q 2906 1113 2906 1747 
Q 2906 2381 2643 2742 
Q 2381 3103 1925 3103 
Q 1469 3103 1208 2742 
Q 947 2381 947 1747 
z
" transform="scale(0.015625)"/>
      <path id="DejaVuSans-62" d="M 3116 1747 
Q 3116 2381 2855 2742 
Q 2594 3103 2138 3103 
Q 1681 3103 1420 2742 
Q 1159 2381 1159 1747 
Q 1159 1113 1420 752 
Q 1681 391 2138 391 
Q 2594 391 2855 752 
Q 3116 1113 3116 1747 
z
M 1159 2969 
Q 1341 3281 1617 3432 
Q 1894 3584 2278 3584 
Q 2916 3584 3314 3078 
Q 3713 2572 3713 1747 
Q 3713 922 3314 415 
Q 2916 -91 2278 -91 
Q 1894 -91 1617 61 
Q 1341 213 1159 525 
L 1159 0 
L 581 0 
L 581 4863 
L 1159 4863 
L 1159 2969 
z
" transform="scale(0.015625)"/>
      <path id="DejaVuSans-66" d="M 2375 4863 
L 2375 4384 
L 1825 4384 
Q 1516 4384 1395 4259 
Q 1275 4134 1275 3809 
L 1275 3500 
L 2222 3500 
L 2222 3053 
L 1275 3053 
L 1275 0 
L 697 0 
L 697 3053 
L 147 3053 
L 147 3500 
L 697 3500 
L 697 3744 
Q 697 4328 969 4595 
Q 1241 4863 1831 4863 
L 2375 4863 
z
" transform="scale(0.015625)"/>
     </defs>
     <use xlink:href="#DejaVuSans-50"/>
     <use xlink:href="#DejaVuSans-6f" transform="translate(56.677734 0)"/>
     <use xlink:href="#DejaVuSans-70" transform="translate(117.859375 0)"/>
     <use xlink:href="#DejaVuSans-75" transform="translate(181.335938 0)"/>
     <use xlink:href="#DejaVuSans-6c" transform="translate(244.714844 0)"/>
     <use xlink:href="#DejaVuSans-61" transform="translate(272.498047 0)"/>
     <use xlink:href="#DejaVuSans-74" transform="translate(333.777344 0)"/>
     <use xlink:href="#DejaVuSans-69" transform="translate(372.986328 0)"/>
     <use xlink:href="#DejaVuSans-6f" transform="translate(400.769531 0)"/>
     <use xlink:href="#DejaVuSans-6e" transform="translate(461.951172 0)"/>
     <use xlink:href="#DejaVuSans-27" transform="translate(525.330078 0)"/>
     <use xlink:href="#DejaVuSans-73" transform="translate(552.820312 0)"/>
     <use xlink:href="#DejaVuSans-20" transform="translate(604.919922 0)"/>
     <use xlink:href="#DejaVuSans-61" transform="translate(636.707031 0)"/>
     <use xlink:href="#DejaVuSans-76" transform="translate(697.986328 0)"/>
     <use xlink:href="#DejaVuSans-65" transform="translate(757.166016 0)"/>
     <use xlink:href="#DejaVuSans-72" transform="translate(818.689453 0)"/>
     <use xlink:href="#DejaVuSans-61" transform="translate(859.802734 0)"/>
     <use xlink:href="#DejaVuSans-67" transform="translate(921.082031 0)"/>
     <use xlink:href="#DejaVuSans-65" transform="translate(984.558594 0)"/>
     <use xlink:href="#DejaVuSans-20" transform="translate(1046.082031 0)"/>
     <use xlink:href="#DejaVuSans-61" transform="translate(1077.869141 0)"/>
     <use xlink:href="#DejaVuSans-6e" transform="translate(1139.148438 0)"/>
     <use xlink:href="#DejaVuSans-64" transform="translate(1202.527344 0)"/>
     <use xlink:href="#DejaVuSans-20" transform="translate(1266.003906 0)"/>
     <use xlink:href="#DejaVuSans-62" transform="translate(1297.791016 0)"/>
     <use xlink:href="#DejaVuSans-65" transform="translate(1361.267578 0)"/>
     <use xlink:href="#DejaVuSans-73" transform="translate(1422.791016 0)"/>
     <use xlink:href="#DejaVuSans-74" transform="translate(1474.890625 0)"/>
     <use xlink:href="#DejaVuSans-20" transform="translate(1514.099609 0)"/>
     <use xlink:href="#DejaVuSans-66" transform="translate(1545.886719 0)"/>
     <use xlink:href="#DejaVuSans-69" transform="translate(1581.091797 0)"/>
     <use xlink:href="#DejaVuSans-74" transform="translate(1608.875 0)"/>
     <use xlink:href="#DejaVuSans-6e" transform="translate(1648.083984 0)"/>
     <use xlink:href="#DejaVuSans-65" transform="translate(1711.462891 0)"/>
     <use xlink:href="#DejaVuSans-73" transform="translate(1772.986328 0)"/>
     <use xlink:href="#DejaVuSans-73" transform="translate(1825.085938 0)"/>
    </g>
   </g>
   <g id="legend_1">
    <g id="patch_7">
     <path d="M 334.779375 302.584 
L 407.72 302.584 
Q 409.72 302.584 409.72 300.584 
L 409.72 242.8715 
Q 409.72 240.8715 407.72 240.8715 
L 334.779375 240.8715 
Q 332.779375 240.8715 332.779375 242.8715 
L 332.779375 300.584 
Q 332.779375 302.584 334.779375 302.584 
z
" style="fill: #ffffff; opacity: 0.8; stroke: #cccccc; stroke-linejoin: miter"/>
    </g>
    <g id="line2d_27">
     <path d="M 336.779375 248.969937 
L 346.779375 248.969937 
L 356.779375 248.969937 
" style="fill: none; stroke: #0000ff; stroke-width: 1.5; stroke-linecap: square"/>
    </g>
    <g id="text_15">
     <!-- average -->
     <g transform="translate(364.779375 252.469937) scale(0.1 -0.1)">
      <use xlink:href="#DejaVuSans-61"/>
      <use xlink:href="#DejaVuSans-76" transform="translate(61.279297 0)"/>
      <use xlink:href="#DejaVuSans-65" transform="translate(120.458984 0)"/>
      <use xlink:href="#DejaVuSans-72" transform="translate(181.982422 0)"/>
      <use xlink:href="#DejaVuSans-61" transform="translate(223.095703 0)"/>
      <use xlink:href="#DejaVuSans-67" transform="translate(284.375 0)"/>
      <use xlink:href="#DejaVuSans-65" transform="translate(347.851562 0)"/>
     </g>
    </g>
    <g id="line2d_28">
     <path d="M 336.779375 263.648062 
L 346.779375 263.648062 
L 356.779375 263.648062 
" style="fill: none; stroke-dasharray: 9.6,2.4,1.5,2.4; stroke-dashoffset: 0; stroke: #008000; stroke-width: 1.5"/>
    </g>
    <g id="text_16">
     <!-- -1 sd -->
     <g transform="translate(364.779375 267.148062) scale(0.1 -0.1)">
      <defs>
       <path id="DejaVuSans-2d" d="M 313 2009 
L 1997 2009 
L 1997 1497 
L 313 1497 
L 313 2009 
z
" transform="scale(0.015625)"/>
      </defs>
      <use xlink:href="#DejaVuSans-2d"/>
      <use xlink:href="#DejaVuSans-31" transform="translate(36.083984 0)"/>
      <use xlink:href="#DejaVuSans-20" transform="translate(99.707031 0)"/>
      <use xlink:href="#DejaVuSans-73" transform="translate(131.494141 0)"/>
      <use xlink:href="#DejaVuSans-64" transform="translate(183.59375 0)"/>
     </g>
    </g>
    <g id="line2d_29">
     <path d="M 336.779375 278.326187 
L 346.779375 278.326187 
L 356.779375 278.326187 
" style="fill: none; stroke-dasharray: 9.6,2.4,1.5,2.4; stroke-dashoffset: 0; stroke: #008000; stroke-width: 1.5"/>
    </g>
    <g id="text_17">
     <!-- +1 sd -->
     <g transform="translate(364.779375 281.826187) scale(0.1 -0.1)">
      <defs>
       <path id="DejaVuSans-2b" d="M 2944 4013 
L 2944 2272 
L 4684 2272 
L 4684 1741 
L 2944 1741 
L 2944 0 
L 2419 0 
L 2419 1741 
L 678 1741 
L 678 2272 
L 2419 2272 
L 2419 4013 
L 2944 4013 
z
" transform="scale(0.015625)"/>
      </defs>
      <use xlink:href="#DejaVuSans-2b"/>
      <use xlink:href="#DejaVuSans-31" transform="translate(83.789062 0)"/>
      <use xlink:href="#DejaVuSans-20" transform="translate(147.412109 0)"/>
      <use xlink:href="#DejaVuSans-73" transform="translate(179.199219 0)"/>
      <use xlink:href="#DejaVuSans-64" transform="translate(231.298828 0)"/>
     </g>
    </g>
    <g id="line2d_30">
     <path d="M 336.779375 293.004312 
L 346.779375 293.004312 
L 356.779375 293.004312 
" style="fill: none; stroke: #ff0000; stroke-width: 1.5; stroke-linecap: square"/>
    </g>
    <g id="text_18">
     <!-- best -->
     <g transform="translate(364.779375 296.504312) scale(0.1 -0.1)">
      <use xlink:href="#DejaVuSans-62"/>
      <use xlink:href="#DejaVuSans-65" transform="translate(63.476562 0)"/>
      <use xlink:href="#DejaVuSans-73" transform="translate(125 0)"/>
      <use xlink:href="#DejaVuSans-74" transform="translate(177.099609 0)"/>
     </g>
    </g>
   </g>
  </g>
 </g>
 <defs>
  <clipPath id="p455e1d2a0c">
   <rect x="57.6" y="41.472" width="357.12" height="266.112"/>
  </clipPath>
 </defs>
</svg>
